%FSTAX23Y23*%
%MOIN*%
%SFA1B1*%

%IPPOS*%
%AMD24*
4,1,8,-0.017500,0.016200,-0.017500,-0.016200,-0.008700,-0.025000,0.008700,-0.025000,0.017500,-0.016200,0.017500,0.016200,0.008700,0.025000,-0.008700,0.025000,-0.017500,0.016200,0.0*
%
%ADD16R,0.010240X0.051180*%
%ADD17O,0.010240X0.051180*%
%ADD18R,0.110240X0.039370*%
%ADD19R,0.066930X0.023620*%
%ADD20R,0.019680X0.047240*%
%ADD21R,0.013780X0.066930*%
%ADD22O,0.013780X0.066930*%
%ADD23R,0.035000X0.050000*%
G04~CAMADD=24~4~0.0~0.0~500.0~350.0~0.0~87.5~0~0.0~0.0~0.0~0.0~0~0.0~0.0~0.0~0.0~0~0.0~0.0~0.0~90.0~350.0~500.0*
%ADD24D24*%
%ADD25R,0.047240X0.019680*%
%ADD42C,0.196850*%
%ADD43R,0.039370X0.039370*%
%ADD44C,0.039370*%
%ADD45C,0.200000*%
%LNusb2uart-1*%
%LPD*%
G54D16*
X00193Y00716D03*
X00768Y00706D03*
G54D17*
X00212Y00716D03*
X00232D03*
X00252D03*
X00271D03*
Y00523D03*
X00252D03*
X00232D03*
X00212D03*
X00193D03*
X00787Y00706D03*
X00807D03*
X00827D03*
X00846D03*
Y00513D03*
X00827D03*
X00807D03*
X00787D03*
X00768D03*
G54D18*
X00191Y01052D03*
Y00807D03*
X00828Y00802D03*
Y01047D03*
G54D19*
X00323Y0093D03*
Y00979D03*
Y0088D03*
X00696Y00925D03*
Y00875D03*
Y00974D03*
G54D20*
X00844Y00264D03*
X0077D03*
X00807Y00375D03*
X0077D03*
X00844D03*
G54D21*
X00351Y00733D03*
G54D22*
X00376Y00733D03*
X00402D03*
X00427D03*
X00453D03*
X00479D03*
X00504D03*
X0053D03*
X00555D03*
X00581D03*
X00606D03*
X00632D03*
X00658D03*
X00683D03*
Y00426D03*
X00658D03*
X00632D03*
X00606D03*
X00581D03*
X00555D03*
X0053D03*
X00504D03*
X00479D03*
X00453D03*
X00427D03*
X00402D03*
X00376D03*
X00351D03*
G54D23*
X00697Y0026D03*
G54D24*
X00697Y0033D03*
G54D25*
X00507Y00342D03*
Y00267D03*
Y00305D03*
X00617Y00267D03*
Y00342D03*
G54D42*
X00782Y00115D03*
G54D43*
X00585Y0018D03*
G54D44*
X00535Y0018D03*
X00486D03*
X00437D03*
G54D45*
X00237Y012D03*
X00783D03*
X00237Y0012D03*
M02*