%FSTAX23Y23*%
%MOIN*%
%SFA1B1*%

%IPPOS*%
%ADD57C,0.003940*%
%ADD59C,0.005910*%
%ADD65C,0.001970*%
%ADD66C,0.001000*%
%ADD67C,0.001580*%
%LNusb2uart-1*%
%LPD*%
G54D57*
X00742Y00315D02*
Y00465D01*
X00867Y00315D02*
Y00465D01*
Y00315D02*
X00742D01*
X00867Y00465D02*
X00742D01*
X00174Y0047D02*
Y0062D01*
X003Y0047D02*
Y0062D01*
Y0047D02*
X00174D01*
X003Y0062D02*
X00174D01*
X00173Y00523D02*
Y00716D01*
X00291D02*
X00173D01*
X00291Y00523D02*
Y00716D01*
Y00523D02*
X00173D01*
X00748Y00513D02*
Y00706D01*
X00866D02*
X00748D01*
X00866Y00513D02*
Y00706D01*
Y00513D02*
X00748D01*
X00872Y00235D02*
X00742D01*
X00872D02*
Y00405D01*
X00742*
Y00235D02*
Y00405D01*
X00722Y0078D02*
X00312D01*
X00722Y0038D02*
Y0078D01*
Y0038D02*
X00312D01*
Y0078*
X00647Y0024D02*
X00477D01*
Y0037*
X00647D02*
X00477D01*
X00647Y0024D02*
Y0037D01*
G54D59*
X00483Y00062D02*
D01*
X00483Y00061*
X00483Y00061*
X00483Y00061*
X00483Y00061*
X00483Y00061*
X00483Y0006*
X00484Y0006*
X00484Y0006*
X00484Y0006*
X00484Y0006*
X00484Y0006*
X00484Y00059*
X00484Y00059*
X00485Y00059*
X00485Y00059*
X00485Y00059*
X00485Y00059*
X00485Y00059*
X00485Y00059*
X00486Y00059*
X00486Y00059*
X00486Y00059*
X00486*
X00486Y00059*
X00487Y00059*
X00487Y00059*
X00487Y00059*
X00487Y00059*
X00487Y00059*
X00488Y00059*
X00488Y00059*
X00488Y00059*
X00488Y00059*
X00488Y0006*
X00488Y0006*
X00489Y0006*
X00489Y0006*
X00489Y0006*
X00489Y0006*
X00489Y00061*
X00489Y00061*
X00489Y00061*
X00489Y00061*
X00489Y00061*
X00489Y00062*
X00489Y00062*
X00489Y00062*
X00489Y00062*
X00489Y00062*
X00489Y00063*
X00489Y00063*
X00489Y00063*
X00489Y00063*
X00489Y00063*
X00488Y00063*
X00488Y00064*
X00488Y00064*
X00488Y00064*
X00488Y00064*
X00488Y00064*
X00487Y00064*
X00487Y00064*
X00487Y00064*
X00487Y00064*
X00487Y00064*
X00486Y00064*
X00486Y00065*
X00486*
X00486Y00064*
X00486Y00064*
X00485Y00064*
X00485Y00064*
X00485Y00064*
X00485Y00064*
X00485Y00064*
X00485Y00064*
X00484Y00064*
X00484Y00064*
X00484Y00064*
X00484Y00063*
X00484Y00063*
X00484Y00063*
X00484Y00063*
X00483Y00063*
X00483Y00063*
X00483Y00062*
X00483Y00062*
X00483Y00062*
X00483Y00062*
X00483Y00062*
G54D65*
X00791Y0039D02*
D01*
X00791Y00389*
X00791Y00388*
X00791Y00387*
X00791Y00386*
X00792Y00385*
X00792Y00384*
X00792Y00383*
X00793Y00382*
X00793Y00381*
X00794Y00381*
X00795Y0038*
X00795Y00379*
X00796Y00379*
X00797Y00378*
X00798Y00378*
X00798Y00377*
X00799Y00377*
X008Y00376*
X00801Y00376*
X00802Y00376*
X00803Y00376*
X00804Y00376*
X00805*
X00806Y00376*
X00807Y00376*
X00808Y00376*
X00809Y00376*
X0081Y00377*
X00811Y00377*
X00811Y00378*
X00812Y00378*
X00813Y00379*
X00814Y00379*
X00814Y0038*
X00815Y00381*
X00816Y00381*
X00816Y00382*
X00817Y00383*
X00817Y00384*
X00817Y00385*
X00818Y00386*
X00818Y00387*
X00818Y00388*
X00818Y00389*
X00818Y0039*
X00818Y0039*
X00818Y00391*
X00818Y00392*
X00818Y00393*
X00817Y00394*
X00817Y00395*
X00817Y00396*
X00816Y00397*
X00816Y00398*
X00815Y00398*
X00814Y00399*
X00814Y004*
X00813Y004*
X00812Y00401*
X00811Y00401*
X00811Y00402*
X0081Y00402*
X00809Y00403*
X00808Y00403*
X00807Y00403*
X00806Y00403*
X00805Y00403*
X00804*
X00803Y00403*
X00802Y00403*
X00801Y00403*
X008Y00403*
X00799Y00402*
X00798Y00402*
X00798Y00401*
X00797Y00401*
X00796Y004*
X00795Y004*
X00795Y00399*
X00794Y00398*
X00793Y00398*
X00793Y00397*
X00792Y00396*
X00792Y00395*
X00792Y00394*
X00791Y00393*
X00791Y00392*
X00791Y00391*
X00791Y0039*
X00791Y0039*
X00223Y00545D02*
D01*
X00223Y00544*
X00223Y00543*
X00223Y00542*
X00224Y00541*
X00224Y0054*
X00224Y00539*
X00225Y00538*
X00225Y00537*
X00226Y00536*
X00226Y00536*
X00227Y00535*
X00228Y00534*
X00228Y00534*
X00229Y00533*
X0023Y00533*
X00231Y00532*
X00232Y00532*
X00233Y00531*
X00234Y00531*
X00235Y00531*
X00235Y00531*
X00236Y00531*
X00237*
X00238Y00531*
X00239Y00531*
X0024Y00531*
X00241Y00531*
X00242Y00532*
X00243Y00532*
X00244Y00533*
X00245Y00533*
X00245Y00534*
X00246Y00534*
X00247Y00535*
X00247Y00536*
X00248Y00536*
X00249Y00537*
X00249Y00538*
X00249Y00539*
X0025Y0054*
X0025Y00541*
X0025Y00542*
X00251Y00543*
X00251Y00544*
X00251Y00545*
X00251Y00545*
X00251Y00546*
X0025Y00547*
X0025Y00548*
X0025Y00549*
X00249Y0055*
X00249Y00551*
X00249Y00552*
X00248Y00553*
X00247Y00553*
X00247Y00554*
X00246Y00555*
X00245Y00555*
X00245Y00556*
X00244Y00556*
X00243Y00557*
X00242Y00557*
X00241Y00558*
X0024Y00558*
X00239Y00558*
X00238Y00558*
X00237Y00558*
X00236*
X00235Y00558*
X00235Y00558*
X00234Y00558*
X00233Y00558*
X00232Y00557*
X00231Y00557*
X0023Y00556*
X00229Y00556*
X00228Y00555*
X00228Y00555*
X00227Y00554*
X00226Y00553*
X00226Y00553*
X00225Y00552*
X00225Y00551*
X00224Y0055*
X00224Y00549*
X00224Y00548*
X00223Y00547*
X00223Y00546*
X00223Y00545*
X00223Y00545*
X00218Y0062D02*
D01*
X00218Y00619*
X00218Y00618*
X00218Y00617*
X00219Y00616*
X00219Y00615*
X00219Y00614*
X0022Y00613*
X0022Y00612*
X00221Y00611*
X00221Y00611*
X00222Y0061*
X00223Y00609*
X00223Y00609*
X00224Y00608*
X00225Y00608*
X00226Y00607*
X00227Y00607*
X00228Y00606*
X00229Y00606*
X0023Y00606*
X0023Y00606*
X00231Y00606*
X00232*
X00233Y00606*
X00234Y00606*
X00235Y00606*
X00236Y00606*
X00237Y00607*
X00238Y00607*
X00239Y00608*
X0024Y00608*
X0024Y00609*
X00241Y00609*
X00242Y0061*
X00242Y00611*
X00243Y00611*
X00244Y00612*
X00244Y00613*
X00244Y00614*
X00245Y00615*
X00245Y00616*
X00245Y00617*
X00246Y00618*
X00246Y00619*
X00246Y0062*
X00246Y0062*
X00246Y00621*
X00245Y00622*
X00245Y00623*
X00245Y00624*
X00244Y00625*
X00244Y00626*
X00244Y00627*
X00243Y00628*
X00242Y00628*
X00242Y00629*
X00241Y0063*
X0024Y0063*
X0024Y00631*
X00239Y00631*
X00238Y00632*
X00237Y00632*
X00236Y00633*
X00235Y00633*
X00234Y00633*
X00233Y00633*
X00232Y00633*
X00231*
X0023Y00633*
X0023Y00633*
X00229Y00633*
X00228Y00633*
X00227Y00632*
X00226Y00632*
X00225Y00631*
X00224Y00631*
X00223Y0063*
X00223Y0063*
X00222Y00629*
X00221Y00628*
X00221Y00628*
X0022Y00627*
X0022Y00626*
X00219Y00625*
X00219Y00624*
X00219Y00623*
X00218Y00622*
X00218Y00621*
X00218Y0062*
X00218Y0062*
X00793Y0061D02*
D01*
X00793Y00609*
X00793Y00608*
X00793Y00607*
X00794Y00606*
X00794Y00605*
X00794Y00604*
X00795Y00603*
X00795Y00602*
X00796Y00601*
X00796Y00601*
X00797Y006*
X00798Y00599*
X00798Y00599*
X00799Y00598*
X008Y00598*
X00801Y00597*
X00802Y00597*
X00803Y00596*
X00804Y00596*
X00805Y00596*
X00805Y00596*
X00806Y00596*
X00807*
X00808Y00596*
X00809Y00596*
X0081Y00596*
X00811Y00596*
X00812Y00597*
X00813Y00597*
X00814Y00598*
X00815Y00598*
X00815Y00599*
X00816Y00599*
X00817Y006*
X00817Y00601*
X00818Y00601*
X00819Y00602*
X00819Y00603*
X00819Y00604*
X0082Y00605*
X0082Y00606*
X0082Y00607*
X00821Y00608*
X00821Y00609*
X00821Y0061*
X00821Y0061*
X00821Y00611*
X0082Y00612*
X0082Y00613*
X0082Y00614*
X00819Y00615*
X00819Y00616*
X00819Y00617*
X00818Y00618*
X00817Y00618*
X00817Y00619*
X00816Y0062*
X00815Y0062*
X00815Y00621*
X00814Y00621*
X00813Y00622*
X00812Y00622*
X00811Y00623*
X0081Y00623*
X00809Y00623*
X00808Y00623*
X00807Y00623*
X00806*
X00805Y00623*
X00805Y00623*
X00804Y00623*
X00803Y00623*
X00802Y00622*
X00801Y00622*
X008Y00621*
X00799Y00621*
X00798Y0062*
X00798Y0062*
X00797Y00619*
X00796Y00618*
X00796Y00618*
X00795Y00617*
X00795Y00616*
X00794Y00615*
X00794Y00614*
X00794Y00613*
X00793Y00612*
X00793Y00611*
X00793Y0061*
X00793Y0061*
Y0032D02*
D01*
X00793Y00319*
X00793Y00318*
X00793Y00317*
X00794Y00316*
X00794Y00315*
X00794Y00314*
X00795Y00313*
X00795Y00312*
X00796Y00311*
X00796Y00311*
X00797Y0031*
X00798Y00309*
X00798Y00309*
X00799Y00308*
X008Y00308*
X00801Y00307*
X00802Y00307*
X00803Y00306*
X00804Y00306*
X00805Y00306*
X00805Y00306*
X00806Y00306*
X00807*
X00808Y00306*
X00809Y00306*
X0081Y00306*
X00811Y00306*
X00812Y00307*
X00813Y00307*
X00814Y00308*
X00815Y00308*
X00815Y00309*
X00816Y00309*
X00817Y0031*
X00817Y00311*
X00818Y00311*
X00819Y00312*
X00819Y00313*
X00819Y00314*
X0082Y00315*
X0082Y00316*
X0082Y00317*
X00821Y00318*
X00821Y00319*
X00821Y0032*
X00821Y0032*
X00821Y00321*
X0082Y00322*
X0082Y00323*
X0082Y00324*
X00819Y00325*
X00819Y00326*
X00819Y00327*
X00818Y00328*
X00817Y00328*
X00817Y00329*
X00816Y0033*
X00815Y0033*
X00815Y00331*
X00814Y00331*
X00813Y00332*
X00812Y00332*
X00811Y00333*
X0081Y00333*
X00809Y00333*
X00808Y00333*
X00807Y00333*
X00806*
X00805Y00333*
X00805Y00333*
X00804Y00333*
X00803Y00333*
X00802Y00332*
X00801Y00332*
X008Y00331*
X00799Y00331*
X00798Y0033*
X00798Y0033*
X00797Y00329*
X00796Y00328*
X00796Y00328*
X00795Y00327*
X00795Y00326*
X00794Y00325*
X00794Y00324*
X00794Y00323*
X00793Y00322*
X00793Y00321*
X00793Y0032*
X00793Y0032*
X00503Y0058D02*
D01*
X00503Y00579*
X00503Y00578*
X00503Y00577*
X00504Y00576*
X00504Y00575*
X00504Y00574*
X00505Y00573*
X00505Y00572*
X00506Y00571*
X00506Y00571*
X00507Y0057*
X00508Y00569*
X00508Y00569*
X00509Y00568*
X0051Y00568*
X00511Y00567*
X00512Y00567*
X00513Y00566*
X00514Y00566*
X00515Y00566*
X00515Y00566*
X00516Y00566*
X00517*
X00518Y00566*
X00519Y00566*
X0052Y00566*
X00521Y00566*
X00522Y00567*
X00523Y00567*
X00524Y00568*
X00525Y00568*
X00525Y00569*
X00526Y00569*
X00527Y0057*
X00527Y00571*
X00528Y00571*
X00529Y00572*
X00529Y00573*
X00529Y00574*
X0053Y00575*
X0053Y00576*
X0053Y00577*
X00531Y00578*
X00531Y00579*
X00531Y0058*
X00531Y0058*
X00531Y00581*
X0053Y00582*
X0053Y00583*
X0053Y00584*
X00529Y00585*
X00529Y00586*
X00529Y00587*
X00528Y00588*
X00527Y00588*
X00527Y00589*
X00526Y0059*
X00525Y0059*
X00525Y00591*
X00524Y00591*
X00523Y00592*
X00522Y00592*
X00521Y00593*
X0052Y00593*
X00519Y00593*
X00518Y00593*
X00517Y00593*
X00516*
X00515Y00593*
X00515Y00593*
X00514Y00593*
X00513Y00593*
X00512Y00592*
X00511Y00592*
X0051Y00591*
X00509Y00591*
X00508Y0059*
X00508Y0059*
X00507Y00589*
X00506Y00588*
X00506Y00588*
X00505Y00587*
X00505Y00586*
X00504Y00585*
X00504Y00584*
X00504Y00583*
X00503Y00582*
X00503Y00581*
X00503Y0058*
X00503Y0058*
X00683Y00295D02*
D01*
X00683Y00294*
X00683Y00293*
X00683Y00292*
X00683Y00291*
X00684Y0029*
X00684Y00289*
X00684Y00288*
X00685Y00287*
X00685Y00286*
X00686Y00286*
X00687Y00285*
X00687Y00284*
X00688Y00284*
X00689Y00283*
X0069Y00283*
X00691Y00282*
X00691Y00282*
X00692Y00281*
X00693Y00281*
X00694Y00281*
X00695Y00281*
X00696Y00281*
X00697*
X00698Y00281*
X00699Y00281*
X007Y00281*
X00701Y00281*
X00702Y00282*
X00703Y00282*
X00704Y00283*
X00704Y00283*
X00705Y00284*
X00706Y00284*
X00707Y00285*
X00707Y00286*
X00708Y00286*
X00708Y00287*
X00709Y00288*
X00709Y00289*
X0071Y0029*
X0071Y00291*
X0071Y00292*
X0071Y00293*
X0071Y00294*
X0071Y00295*
X0071Y00295*
X0071Y00296*
X0071Y00297*
X0071Y00298*
X0071Y00299*
X00709Y003*
X00709Y00301*
X00708Y00302*
X00708Y00303*
X00707Y00303*
X00707Y00304*
X00706Y00305*
X00705Y00305*
X00704Y00306*
X00704Y00306*
X00703Y00307*
X00702Y00307*
X00701Y00308*
X007Y00308*
X00699Y00308*
X00698Y00308*
X00697Y00308*
X00696*
X00695Y00308*
X00694Y00308*
X00693Y00308*
X00692Y00308*
X00691Y00307*
X00691Y00307*
X0069Y00306*
X00689Y00306*
X00688Y00305*
X00687Y00305*
X00687Y00304*
X00686Y00303*
X00685Y00303*
X00685Y00302*
X00684Y00301*
X00684Y003*
X00684Y00299*
X00683Y00298*
X00683Y00297*
X00683Y00296*
X00683Y00295*
X00683Y00295*
X00548Y00305D02*
D01*
X00548Y00304*
X00548Y00303*
X00548Y00302*
X00549Y00301*
X00549Y003*
X00549Y00299*
X0055Y00298*
X0055Y00297*
X00551Y00296*
X00551Y00296*
X00552Y00295*
X00553Y00294*
X00553Y00294*
X00554Y00293*
X00555Y00293*
X00556Y00292*
X00557Y00292*
X00558Y00291*
X00559Y00291*
X0056Y00291*
X0056Y00291*
X00561Y00291*
X00562*
X00563Y00291*
X00564Y00291*
X00565Y00291*
X00566Y00291*
X00567Y00292*
X00568Y00292*
X00569Y00293*
X0057Y00293*
X0057Y00294*
X00571Y00294*
X00572Y00295*
X00572Y00296*
X00573Y00296*
X00574Y00297*
X00574Y00298*
X00574Y00299*
X00575Y003*
X00575Y00301*
X00575Y00302*
X00576Y00303*
X00576Y00304*
X00576Y00305*
X00576Y00305*
X00576Y00306*
X00575Y00307*
X00575Y00308*
X00575Y00309*
X00574Y0031*
X00574Y00311*
X00574Y00312*
X00573Y00313*
X00572Y00313*
X00572Y00314*
X00571Y00315*
X0057Y00315*
X0057Y00316*
X00569Y00316*
X00568Y00317*
X00567Y00317*
X00566Y00318*
X00565Y00318*
X00564Y00318*
X00563Y00318*
X00562Y00318*
X00561*
X0056Y00318*
X0056Y00318*
X00559Y00318*
X00558Y00318*
X00557Y00317*
X00556Y00317*
X00555Y00316*
X00554Y00316*
X00553Y00315*
X00553Y00315*
X00552Y00314*
X00551Y00313*
X00551Y00313*
X0055Y00312*
X0055Y00311*
X00549Y0031*
X00549Y00309*
X00549Y00308*
X00548Y00307*
X00548Y00306*
X00548Y00305*
X00548Y00305*
X00497Y0018D02*
D01*
X00497Y00179*
X00497Y00178*
X00497Y00177*
X00497Y00176*
X00498Y00175*
X00498Y00174*
X00499Y00173*
X00499Y00172*
X005Y00171*
X005Y00171*
X00501Y0017*
X00501Y00169*
X00502Y00169*
X00503Y00168*
X00504Y00168*
X00505Y00167*
X00506Y00167*
X00506Y00166*
X00507Y00166*
X00508Y00166*
X00509Y00166*
X0051Y00166*
X00511*
X00512Y00166*
X00513Y00166*
X00514Y00166*
X00515Y00166*
X00516Y00167*
X00517Y00167*
X00518Y00168*
X00518Y00168*
X00519Y00169*
X0052Y00169*
X00521Y0017*
X00521Y00171*
X00522Y00171*
X00522Y00172*
X00523Y00173*
X00523Y00174*
X00524Y00175*
X00524Y00176*
X00524Y00177*
X00524Y00178*
X00524Y00179*
X00525Y0018*
X00524Y0018*
X00524Y00181*
X00524Y00182*
X00524Y00183*
X00524Y00184*
X00523Y00185*
X00523Y00186*
X00522Y00187*
X00522Y00188*
X00521Y00188*
X00521Y00189*
X0052Y0019*
X00519Y0019*
X00518Y00191*
X00518Y00191*
X00517Y00192*
X00516Y00192*
X00515Y00193*
X00514Y00193*
X00513Y00193*
X00512Y00193*
X00511Y00193*
X0051*
X00509Y00193*
X00508Y00193*
X00507Y00193*
X00506Y00193*
X00506Y00192*
X00505Y00192*
X00504Y00191*
X00503Y00191*
X00502Y0019*
X00501Y0019*
X00501Y00189*
X005Y00188*
X005Y00188*
X00499Y00187*
X00499Y00186*
X00498Y00185*
X00498Y00184*
X00497Y00183*
X00497Y00182*
X00497Y00181*
X00497Y0018*
X00497Y0018*
X00805Y0037D02*
Y00409D01*
X00824Y0039D02*
X00785D01*
X00237Y00525D02*
Y00564D01*
X00257Y00545D02*
X00217D01*
X00252Y0062D02*
X00212D01*
X00232Y006D02*
Y00639D01*
X00827Y0061D02*
X00787D01*
X00807Y0059D02*
Y00629D01*
Y003D02*
Y00339D01*
X00827Y0032D02*
X00787D01*
X00517Y0056D02*
Y00599D01*
X00537Y0058D02*
X00497D01*
X00716Y00295D02*
X00677D01*
X00697Y00275D02*
Y00314D01*
X00562Y00285D02*
Y00324D01*
X00582Y00305D02*
X00542D01*
X0053Y0018D02*
X00491D01*
X00511Y0016D02*
Y00199D01*
G54D66*
X00812Y00495D02*
D01*
X00812Y00494*
X00812Y00494*
X00812Y00493*
X00812Y00493*
X00812Y00493*
X00812Y00492*
X00812Y00492*
X00813Y00492*
X00813Y00492*
X00813Y00491*
X00813Y00491*
X00814Y00491*
X00814Y00491*
X00814Y0049*
X00814Y0049*
X00815Y0049*
X00815Y0049*
X00815Y0049*
X00816Y0049*
X00816Y0049*
X00816Y0049*
X00817Y0049*
X00817*
X00817Y0049*
X00818Y0049*
X00818Y0049*
X00818Y0049*
X00819Y0049*
X00819Y0049*
X00819Y0049*
X0082Y0049*
X0082Y00491*
X0082Y00491*
X0082Y00491*
X00821Y00491*
X00821Y00492*
X00821Y00492*
X00821Y00492*
X00821Y00492*
X00822Y00493*
X00822Y00493*
X00822Y00493*
X00822Y00494*
X00822Y00494*
X00822Y00495*
X00822Y00495*
X00822Y00495*
X00822Y00496*
X00822Y00496*
X00822Y00496*
X00821Y00497*
X00821Y00497*
X00821Y00497*
X00821Y00497*
X00821Y00498*
X0082Y00498*
X0082Y00498*
X0082Y00498*
X0082Y00499*
X00819Y00499*
X00819Y00499*
X00819Y00499*
X00818Y00499*
X00818Y00499*
X00818Y00499*
X00817Y00499*
X00817Y00499*
X00817*
X00816Y00499*
X00816Y00499*
X00816Y00499*
X00815Y00499*
X00815Y00499*
X00815Y00499*
X00814Y00499*
X00814Y00499*
X00814Y00498*
X00814Y00498*
X00813Y00498*
X00813Y00498*
X00813Y00497*
X00813Y00497*
X00812Y00497*
X00812Y00497*
X00812Y00496*
X00812Y00496*
X00812Y00496*
X00812Y00495*
X00812Y00495*
X00812Y00495*
X00252Y00645D02*
D01*
X00252Y00644*
X00252Y00644*
X00252Y00643*
X00252Y00643*
X00252Y00643*
X00252Y00642*
X00252Y00642*
X00253Y00642*
X00253Y00642*
X00253Y00641*
X00253Y00641*
X00254Y00641*
X00254Y00641*
X00254Y0064*
X00254Y0064*
X00255Y0064*
X00255Y0064*
X00255Y0064*
X00256Y0064*
X00256Y0064*
X00256Y0064*
X00257Y0064*
X00257*
X00257Y0064*
X00258Y0064*
X00258Y0064*
X00258Y0064*
X00259Y0064*
X00259Y0064*
X00259Y0064*
X0026Y0064*
X0026Y00641*
X0026Y00641*
X0026Y00641*
X00261Y00641*
X00261Y00642*
X00261Y00642*
X00261Y00642*
X00261Y00642*
X00262Y00643*
X00262Y00643*
X00262Y00643*
X00262Y00644*
X00262Y00644*
X00262Y00645*
X00262Y00645*
X00262Y00645*
X00262Y00646*
X00262Y00646*
X00262Y00646*
X00261Y00647*
X00261Y00647*
X00261Y00647*
X00261Y00647*
X00261Y00648*
X0026Y00648*
X0026Y00648*
X0026Y00648*
X0026Y00649*
X00259Y00649*
X00259Y00649*
X00259Y00649*
X00258Y00649*
X00258Y00649*
X00258Y00649*
X00257Y00649*
X00257Y00649*
X00257*
X00256Y00649*
X00256Y00649*
X00256Y00649*
X00255Y00649*
X00255Y00649*
X00255Y00649*
X00254Y00649*
X00254Y00649*
X00254Y00648*
X00254Y00648*
X00253Y00648*
X00253Y00648*
X00253Y00647*
X00253Y00647*
X00252Y00647*
X00252Y00647*
X00252Y00646*
X00252Y00646*
X00252Y00646*
X00252Y00645*
X00252Y00645*
X00252Y00645*
X00194Y0044D02*
D01*
X00194Y00439*
X00194Y00439*
X00194Y00438*
X00194Y00438*
X00194Y00438*
X00195Y00437*
X00195Y00437*
X00195Y00437*
X00195Y00437*
X00195Y00436*
X00196Y00436*
X00196Y00436*
X00196Y00436*
X00196Y00435*
X00197Y00435*
X00197Y00435*
X00197Y00435*
X00198Y00435*
X00198Y00435*
X00198Y00435*
X00199Y00435*
X00199Y00435*
X00199*
X002Y00435*
X002Y00435*
X002Y00435*
X00201Y00435*
X00201Y00435*
X00201Y00435*
X00202Y00435*
X00202Y00435*
X00202Y00436*
X00203Y00436*
X00203Y00436*
X00203Y00436*
X00203Y00437*
X00203Y00437*
X00204Y00437*
X00204Y00437*
X00204Y00438*
X00204Y00438*
X00204Y00438*
X00204Y00439*
X00204Y00439*
X00204Y0044*
X00204Y0044*
X00204Y0044*
X00204Y00441*
X00204Y00441*
X00204Y00441*
X00204Y00442*
X00204Y00442*
X00203Y00442*
X00203Y00442*
X00203Y00443*
X00203Y00443*
X00203Y00443*
X00202Y00443*
X00202Y00444*
X00202Y00444*
X00201Y00444*
X00201Y00444*
X00201Y00444*
X002Y00444*
X002Y00444*
X002Y00444*
X00199Y00444*
X00199*
X00199Y00444*
X00198Y00444*
X00198Y00444*
X00198Y00444*
X00197Y00444*
X00197Y00444*
X00197Y00444*
X00196Y00444*
X00196Y00443*
X00196Y00443*
X00196Y00443*
X00195Y00443*
X00195Y00442*
X00195Y00442*
X00195Y00442*
X00195Y00442*
X00194Y00441*
X00194Y00441*
X00194Y00441*
X00194Y0044*
X00194Y0044*
X00194Y0044*
X00272Y0042D02*
D01*
X00272Y00419*
X00272Y00419*
X00272Y00418*
X00272Y00418*
X00272Y00418*
X00272Y00417*
X00272Y00417*
X00273Y00417*
X00273Y00417*
X00273Y00416*
X00273Y00416*
X00274Y00416*
X00274Y00416*
X00274Y00415*
X00274Y00415*
X00275Y00415*
X00275Y00415*
X00275Y00415*
X00276Y00415*
X00276Y00415*
X00276Y00415*
X00277Y00415*
X00277*
X00277Y00415*
X00278Y00415*
X00278Y00415*
X00278Y00415*
X00279Y00415*
X00279Y00415*
X00279Y00415*
X0028Y00415*
X0028Y00416*
X0028Y00416*
X0028Y00416*
X00281Y00416*
X00281Y00417*
X00281Y00417*
X00281Y00417*
X00281Y00417*
X00282Y00418*
X00282Y00418*
X00282Y00418*
X00282Y00419*
X00282Y00419*
X00282Y0042*
X00282Y0042*
X00282Y0042*
X00282Y00421*
X00282Y00421*
X00282Y00421*
X00281Y00422*
X00281Y00422*
X00281Y00422*
X00281Y00422*
X00281Y00423*
X0028Y00423*
X0028Y00423*
X0028Y00423*
X0028Y00424*
X00279Y00424*
X00279Y00424*
X00279Y00424*
X00278Y00424*
X00278Y00424*
X00278Y00424*
X00277Y00424*
X00277Y00424*
X00277*
X00276Y00424*
X00276Y00424*
X00276Y00424*
X00275Y00424*
X00275Y00424*
X00275Y00424*
X00274Y00424*
X00274Y00424*
X00274Y00423*
X00274Y00423*
X00273Y00423*
X00273Y00423*
X00273Y00422*
X00273Y00422*
X00272Y00422*
X00272Y00422*
X00272Y00421*
X00272Y00421*
X00272Y00421*
X00272Y0042*
X00272Y0042*
X00272Y0042*
X00812Y00262D02*
D01*
X00812Y00262*
X00812Y00262*
X00812Y00261*
X00812Y00261*
X00812Y0026*
X00812Y0026*
X00812Y0026*
X00813Y0026*
X00813Y00259*
X00813Y00259*
X00813Y00259*
X00814Y00258*
X00814Y00258*
X00814Y00258*
X00814Y00258*
X00815Y00258*
X00815Y00258*
X00815Y00257*
X00816Y00257*
X00816Y00257*
X00816Y00257*
X00817Y00257*
X00817*
X00817Y00257*
X00818Y00257*
X00818Y00257*
X00818Y00257*
X00819Y00258*
X00819Y00258*
X00819Y00258*
X0082Y00258*
X0082Y00258*
X0082Y00258*
X0082Y00259*
X00821Y00259*
X00821Y00259*
X00821Y0026*
X00821Y0026*
X00821Y0026*
X00822Y0026*
X00822Y00261*
X00822Y00261*
X00822Y00262*
X00822Y00262*
X00822Y00262*
X00822Y00263*
X00822Y00263*
X00822Y00263*
X00822Y00264*
X00822Y00264*
X00821Y00264*
X00821Y00265*
X00821Y00265*
X00821Y00265*
X00821Y00265*
X0082Y00266*
X0082Y00266*
X0082Y00266*
X0082Y00266*
X00819Y00267*
X00819Y00267*
X00819Y00267*
X00818Y00267*
X00818Y00267*
X00818Y00267*
X00817Y00267*
X00817Y00267*
X00817*
X00816Y00267*
X00816Y00267*
X00816Y00267*
X00815Y00267*
X00815Y00267*
X00815Y00267*
X00814Y00267*
X00814Y00266*
X00814Y00266*
X00814Y00266*
X00813Y00266*
X00813Y00265*
X00813Y00265*
X00813Y00265*
X00812Y00265*
X00812Y00264*
X00812Y00264*
X00812Y00264*
X00812Y00263*
X00812Y00263*
X00812Y00263*
X00812Y00262*
X00767Y0026D02*
D01*
X00767Y0026*
X00767Y0026*
X00767Y00259*
X00767Y00259*
X00767Y00259*
X00767Y00258*
X00767Y00258*
X00768Y00258*
X00768Y00257*
X00768Y00257*
X00768Y00257*
X00769Y00257*
X00769Y00256*
X00769Y00256*
X00769Y00256*
X0077Y00256*
X0077Y00256*
X0077Y00255*
X00771Y00255*
X00771Y00255*
X00771Y00255*
X00772Y00255*
X00772*
X00772Y00255*
X00773Y00255*
X00773Y00255*
X00773Y00255*
X00774Y00256*
X00774Y00256*
X00774Y00256*
X00775Y00256*
X00775Y00256*
X00775Y00257*
X00775Y00257*
X00776Y00257*
X00776Y00257*
X00776Y00258*
X00776Y00258*
X00776Y00258*
X00777Y00259*
X00777Y00259*
X00777Y00259*
X00777Y0026*
X00777Y0026*
X00777Y0026*
X00777Y00261*
X00777Y00261*
X00777Y00261*
X00777Y00262*
X00777Y00262*
X00776Y00262*
X00776Y00263*
X00776Y00263*
X00776Y00263*
X00776Y00263*
X00775Y00264*
X00775Y00264*
X00775Y00264*
X00775Y00264*
X00774Y00265*
X00774Y00265*
X00774Y00265*
X00773Y00265*
X00773Y00265*
X00773Y00265*
X00772Y00265*
X00772Y00265*
X00772*
X00771Y00265*
X00771Y00265*
X00771Y00265*
X0077Y00265*
X0077Y00265*
X0077Y00265*
X00769Y00265*
X00769Y00264*
X00769Y00264*
X00769Y00264*
X00768Y00264*
X00768Y00263*
X00768Y00263*
X00768Y00263*
X00767Y00263*
X00767Y00262*
X00767Y00262*
X00767Y00262*
X00767Y00261*
X00767Y00261*
X00767Y00261*
X00767Y0026*
X00367Y00885D02*
D01*
X00367Y00885*
X00367Y00885*
X00367Y00884*
X00367Y00884*
X00367Y00884*
X00367Y00883*
X00367Y00883*
X00368Y00883*
X00368Y00882*
X00368Y00882*
X00368Y00882*
X00369Y00882*
X00369Y00881*
X00369Y00881*
X00369Y00881*
X0037Y00881*
X0037Y00881*
X0037Y0088*
X00371Y0088*
X00371Y0088*
X00371Y0088*
X00372Y0088*
X00372*
X00372Y0088*
X00373Y0088*
X00373Y0088*
X00373Y0088*
X00374Y00881*
X00374Y00881*
X00374Y00881*
X00375Y00881*
X00375Y00881*
X00375Y00882*
X00375Y00882*
X00376Y00882*
X00376Y00882*
X00376Y00883*
X00376Y00883*
X00376Y00883*
X00377Y00884*
X00377Y00884*
X00377Y00884*
X00377Y00885*
X00377Y00885*
X00377Y00885*
X00377Y00886*
X00377Y00886*
X00377Y00886*
X00377Y00887*
X00377Y00887*
X00376Y00887*
X00376Y00888*
X00376Y00888*
X00376Y00888*
X00376Y00888*
X00375Y00889*
X00375Y00889*
X00375Y00889*
X00375Y00889*
X00374Y0089*
X00374Y0089*
X00374Y0089*
X00373Y0089*
X00373Y0089*
X00373Y0089*
X00372Y0089*
X00372Y0089*
X00372*
X00371Y0089*
X00371Y0089*
X00371Y0089*
X0037Y0089*
X0037Y0089*
X0037Y0089*
X00369Y0089*
X00369Y00889*
X00369Y00889*
X00369Y00889*
X00368Y00889*
X00368Y00888*
X00368Y00888*
X00368Y00888*
X00367Y00888*
X00367Y00887*
X00367Y00887*
X00367Y00887*
X00367Y00886*
X00367Y00886*
X00367Y00886*
X00367Y00885*
X00622Y0082D02*
D01*
X00622Y00819*
X00622Y00819*
X00622Y00818*
X00622Y00818*
X00622Y00818*
X00622Y00817*
X00622Y00817*
X00623Y00817*
X00623Y00817*
X00623Y00816*
X00623Y00816*
X00624Y00816*
X00624Y00816*
X00624Y00815*
X00624Y00815*
X00625Y00815*
X00625Y00815*
X00625Y00815*
X00626Y00815*
X00626Y00815*
X00626Y00815*
X00627Y00815*
X00627*
X00627Y00815*
X00628Y00815*
X00628Y00815*
X00628Y00815*
X00629Y00815*
X00629Y00815*
X00629Y00815*
X0063Y00815*
X0063Y00816*
X0063Y00816*
X0063Y00816*
X00631Y00816*
X00631Y00817*
X00631Y00817*
X00631Y00817*
X00631Y00817*
X00632Y00818*
X00632Y00818*
X00632Y00818*
X00632Y00819*
X00632Y00819*
X00632Y0082*
X00632Y0082*
X00632Y0082*
X00632Y00821*
X00632Y00821*
X00632Y00821*
X00631Y00822*
X00631Y00822*
X00631Y00822*
X00631Y00822*
X00631Y00823*
X0063Y00823*
X0063Y00823*
X0063Y00823*
X0063Y00824*
X00629Y00824*
X00629Y00824*
X00629Y00824*
X00628Y00824*
X00628Y00824*
X00628Y00824*
X00627Y00824*
X00627Y00824*
X00627*
X00626Y00824*
X00626Y00824*
X00626Y00824*
X00625Y00824*
X00625Y00824*
X00625Y00824*
X00624Y00824*
X00624Y00824*
X00624Y00823*
X00624Y00823*
X00623Y00823*
X00623Y00823*
X00623Y00822*
X00623Y00822*
X00622Y00822*
X00622Y00822*
X00622Y00821*
X00622Y00821*
X00622Y00821*
X00622Y0082*
X00622Y0082*
X00622Y0082*
X00702D02*
D01*
X00702Y00819*
X00702Y00819*
X00702Y00818*
X00702Y00818*
X00702Y00818*
X00702Y00817*
X00702Y00817*
X00703Y00817*
X00703Y00817*
X00703Y00816*
X00703Y00816*
X00704Y00816*
X00704Y00816*
X00704Y00815*
X00704Y00815*
X00705Y00815*
X00705Y00815*
X00705Y00815*
X00706Y00815*
X00706Y00815*
X00706Y00815*
X00707Y00815*
X00707*
X00707Y00815*
X00708Y00815*
X00708Y00815*
X00708Y00815*
X00709Y00815*
X00709Y00815*
X00709Y00815*
X0071Y00815*
X0071Y00816*
X0071Y00816*
X0071Y00816*
X00711Y00816*
X00711Y00817*
X00711Y00817*
X00711Y00817*
X00711Y00817*
X00712Y00818*
X00712Y00818*
X00712Y00818*
X00712Y00819*
X00712Y00819*
X00712Y0082*
X00712Y0082*
X00712Y0082*
X00712Y00821*
X00712Y00821*
X00712Y00821*
X00711Y00822*
X00711Y00822*
X00711Y00822*
X00711Y00822*
X00711Y00823*
X0071Y00823*
X0071Y00823*
X0071Y00823*
X0071Y00824*
X00709Y00824*
X00709Y00824*
X00709Y00824*
X00708Y00824*
X00708Y00824*
X00708Y00824*
X00707Y00824*
X00707Y00824*
X00707*
X00706Y00824*
X00706Y00824*
X00706Y00824*
X00705Y00824*
X00705Y00824*
X00705Y00824*
X00704Y00824*
X00704Y00824*
X00704Y00823*
X00704Y00823*
X00703Y00823*
X00703Y00823*
X00703Y00822*
X00703Y00822*
X00702Y00822*
X00702Y00822*
X00702Y00821*
X00702Y00821*
X00702Y00821*
X00702Y0082*
X00702Y0082*
X00702Y0082*
X00449D02*
D01*
X00449Y00819*
X00449Y00819*
X00449Y00818*
X00449Y00818*
X00449Y00818*
X0045Y00817*
X0045Y00817*
X0045Y00817*
X0045Y00817*
X0045Y00816*
X00451Y00816*
X00451Y00816*
X00451Y00816*
X00451Y00815*
X00452Y00815*
X00452Y00815*
X00452Y00815*
X00453Y00815*
X00453Y00815*
X00453Y00815*
X00454Y00815*
X00454Y00815*
X00454*
X00455Y00815*
X00455Y00815*
X00455Y00815*
X00456Y00815*
X00456Y00815*
X00456Y00815*
X00457Y00815*
X00457Y00815*
X00457Y00816*
X00458Y00816*
X00458Y00816*
X00458Y00816*
X00458Y00817*
X00458Y00817*
X00459Y00817*
X00459Y00817*
X00459Y00818*
X00459Y00818*
X00459Y00818*
X00459Y00819*
X00459Y00819*
X00459Y0082*
X00459Y0082*
X00459Y0082*
X00459Y00821*
X00459Y00821*
X00459Y00821*
X00459Y00822*
X00459Y00822*
X00458Y00822*
X00458Y00822*
X00458Y00823*
X00458Y00823*
X00458Y00823*
X00457Y00823*
X00457Y00824*
X00457Y00824*
X00456Y00824*
X00456Y00824*
X00456Y00824*
X00455Y00824*
X00455Y00824*
X00455Y00824*
X00454Y00824*
X00454*
X00454Y00824*
X00453Y00824*
X00453Y00824*
X00453Y00824*
X00452Y00824*
X00452Y00824*
X00452Y00824*
X00451Y00824*
X00451Y00823*
X00451Y00823*
X00451Y00823*
X0045Y00823*
X0045Y00822*
X0045Y00822*
X0045Y00822*
X0045Y00822*
X00449Y00821*
X00449Y00821*
X00449Y00821*
X00449Y0082*
X00449Y0082*
X00449Y0082*
X00527D02*
D01*
X00527Y00819*
X00527Y00819*
X00527Y00818*
X00527Y00818*
X00527Y00818*
X00527Y00817*
X00527Y00817*
X00528Y00817*
X00528Y00817*
X00528Y00816*
X00528Y00816*
X00529Y00816*
X00529Y00816*
X00529Y00815*
X00529Y00815*
X0053Y00815*
X0053Y00815*
X0053Y00815*
X00531Y00815*
X00531Y00815*
X00531Y00815*
X00532Y00815*
X00532*
X00532Y00815*
X00533Y00815*
X00533Y00815*
X00533Y00815*
X00534Y00815*
X00534Y00815*
X00534Y00815*
X00535Y00815*
X00535Y00816*
X00535Y00816*
X00535Y00816*
X00536Y00816*
X00536Y00817*
X00536Y00817*
X00536Y00817*
X00536Y00817*
X00537Y00818*
X00537Y00818*
X00537Y00818*
X00537Y00819*
X00537Y00819*
X00537Y0082*
X00537Y0082*
X00537Y0082*
X00537Y00821*
X00537Y00821*
X00537Y00821*
X00536Y00822*
X00536Y00822*
X00536Y00822*
X00536Y00822*
X00536Y00823*
X00535Y00823*
X00535Y00823*
X00535Y00823*
X00535Y00824*
X00534Y00824*
X00534Y00824*
X00534Y00824*
X00533Y00824*
X00533Y00824*
X00533Y00824*
X00532Y00824*
X00532Y00824*
X00532*
X00531Y00824*
X00531Y00824*
X00531Y00824*
X0053Y00824*
X0053Y00824*
X0053Y00824*
X00529Y00824*
X00529Y00824*
X00529Y00823*
X00529Y00823*
X00528Y00823*
X00528Y00823*
X00528Y00822*
X00528Y00822*
X00527Y00822*
X00527Y00822*
X00527Y00821*
X00527Y00821*
X00527Y00821*
X00527Y0082*
X00527Y0082*
X00527Y0082*
Y00317D02*
D01*
X00527Y00316*
X00527Y00316*
X00527Y00316*
X00527Y00315*
X00527Y00315*
X00527Y00315*
X00527Y00314*
X00528Y00314*
X00528Y00314*
X00528Y00314*
X00528Y00313*
X00529Y00313*
X00529Y00313*
X00529Y00313*
X00529Y00312*
X0053Y00312*
X0053Y00312*
X0053Y00312*
X00531Y00312*
X00531Y00312*
X00531Y00312*
X00532Y00312*
X00532*
X00532Y00312*
X00533Y00312*
X00533Y00312*
X00533Y00312*
X00534Y00312*
X00534Y00312*
X00534Y00312*
X00535Y00313*
X00535Y00313*
X00535Y00313*
X00535Y00313*
X00536Y00314*
X00536Y00314*
X00536Y00314*
X00536Y00314*
X00536Y00315*
X00537Y00315*
X00537Y00315*
X00537Y00316*
X00537Y00316*
X00537Y00316*
X00537Y00317*
X00537Y00317*
X00537Y00317*
X00537Y00318*
X00537Y00318*
X00537Y00319*
X00536Y00319*
X00536Y00319*
X00536Y00319*
X00536Y0032*
X00536Y0032*
X00535Y0032*
X00535Y00321*
X00535Y00321*
X00535Y00321*
X00534Y00321*
X00534Y00321*
X00534Y00321*
X00533Y00322*
X00533Y00322*
X00533Y00322*
X00532Y00322*
X00532Y00322*
X00532*
X00531Y00322*
X00531Y00322*
X00531Y00322*
X0053Y00322*
X0053Y00321*
X0053Y00321*
X00529Y00321*
X00529Y00321*
X00529Y00321*
X00529Y00321*
X00528Y0032*
X00528Y0032*
X00528Y0032*
X00528Y00319*
X00527Y00319*
X00527Y00319*
X00527Y00319*
X00527Y00318*
X00527Y00318*
X00527Y00317*
X00527Y00317*
X00527Y00317*
Y00505D02*
D01*
X00527Y00504*
X00527Y00504*
X00527Y00503*
X00527Y00503*
X00527Y00503*
X00527Y00502*
X00527Y00502*
X00528Y00502*
X00528Y00502*
X00528Y00501*
X00528Y00501*
X00529Y00501*
X00529Y00501*
X00529Y005*
X00529Y005*
X0053Y005*
X0053Y005*
X0053Y005*
X00531Y005*
X00531Y005*
X00531Y005*
X00532Y005*
X00532*
X00532Y005*
X00533Y005*
X00533Y005*
X00533Y005*
X00534Y005*
X00534Y005*
X00534Y005*
X00535Y005*
X00535Y00501*
X00535Y00501*
X00535Y00501*
X00536Y00501*
X00536Y00502*
X00536Y00502*
X00536Y00502*
X00536Y00502*
X00537Y00503*
X00537Y00503*
X00537Y00503*
X00537Y00504*
X00537Y00504*
X00537Y00505*
X00537Y00505*
X00537Y00505*
X00537Y00506*
X00537Y00506*
X00537Y00506*
X00536Y00507*
X00536Y00507*
X00536Y00507*
X00536Y00507*
X00536Y00508*
X00535Y00508*
X00535Y00508*
X00535Y00508*
X00535Y00509*
X00534Y00509*
X00534Y00509*
X00534Y00509*
X00533Y00509*
X00533Y00509*
X00533Y00509*
X00532Y00509*
X00532Y00509*
X00532*
X00531Y00509*
X00531Y00509*
X00531Y00509*
X0053Y00509*
X0053Y00509*
X0053Y00509*
X00529Y00509*
X00529Y00509*
X00529Y00508*
X00529Y00508*
X00528Y00508*
X00528Y00508*
X00528Y00507*
X00528Y00507*
X00527Y00507*
X00527Y00507*
X00527Y00506*
X00527Y00506*
X00527Y00506*
X00527Y00505*
X00527Y00505*
X00527Y00505*
X00432D02*
D01*
X00432Y00504*
X00432Y00504*
X00432Y00503*
X00432Y00503*
X00432Y00503*
X00432Y00502*
X00432Y00502*
X00433Y00502*
X00433Y00502*
X00433Y00501*
X00433Y00501*
X00434Y00501*
X00434Y00501*
X00434Y005*
X00434Y005*
X00435Y005*
X00435Y005*
X00435Y005*
X00436Y005*
X00436Y005*
X00436Y005*
X00437Y005*
X00437*
X00437Y005*
X00438Y005*
X00438Y005*
X00438Y005*
X00439Y005*
X00439Y005*
X00439Y005*
X0044Y005*
X0044Y00501*
X0044Y00501*
X0044Y00501*
X00441Y00501*
X00441Y00502*
X00441Y00502*
X00441Y00502*
X00441Y00502*
X00442Y00503*
X00442Y00503*
X00442Y00503*
X00442Y00504*
X00442Y00504*
X00442Y00505*
X00442Y00505*
X00442Y00505*
X00442Y00506*
X00442Y00506*
X00442Y00506*
X00441Y00507*
X00441Y00507*
X00441Y00507*
X00441Y00507*
X00441Y00508*
X0044Y00508*
X0044Y00508*
X0044Y00508*
X0044Y00509*
X00439Y00509*
X00439Y00509*
X00439Y00509*
X00438Y00509*
X00438Y00509*
X00438Y00509*
X00437Y00509*
X00437Y00509*
X00437*
X00436Y00509*
X00436Y00509*
X00436Y00509*
X00435Y00509*
X00435Y00509*
X00435Y00509*
X00434Y00509*
X00434Y00509*
X00434Y00508*
X00434Y00508*
X00433Y00508*
X00433Y00508*
X00433Y00507*
X00433Y00507*
X00432Y00507*
X00432Y00507*
X00432Y00506*
X00432Y00506*
X00432Y00506*
X00432Y00505*
X00432Y00505*
X00432Y00505*
X00638D02*
D01*
X00638Y00504*
X00638Y00504*
X00638Y00503*
X00638Y00503*
X00638Y00503*
X00638Y00502*
X00638Y00502*
X00638Y00502*
X00639Y00502*
X00639Y00501*
X00639Y00501*
X00639Y00501*
X0064Y00501*
X0064Y005*
X0064Y005*
X0064Y005*
X00641Y005*
X00641Y005*
X00641Y005*
X00642Y005*
X00642Y005*
X00642Y005*
X00643*
X00643Y005*
X00644Y005*
X00644Y005*
X00644Y005*
X00645Y005*
X00645Y005*
X00645Y005*
X00645Y005*
X00646Y00501*
X00646Y00501*
X00646Y00501*
X00646Y00501*
X00647Y00502*
X00647Y00502*
X00647Y00502*
X00647Y00502*
X00647Y00503*
X00647Y00503*
X00648Y00503*
X00648Y00504*
X00648Y00504*
X00648Y00505*
X00648Y00505*
X00648Y00505*
X00648Y00506*
X00647Y00506*
X00647Y00506*
X00647Y00507*
X00647Y00507*
X00647Y00507*
X00647Y00507*
X00646Y00508*
X00646Y00508*
X00646Y00508*
X00646Y00508*
X00645Y00509*
X00645Y00509*
X00645Y00509*
X00645Y00509*
X00644Y00509*
X00644Y00509*
X00644Y00509*
X00643Y00509*
X00643Y00509*
X00642*
X00642Y00509*
X00642Y00509*
X00641Y00509*
X00641Y00509*
X00641Y00509*
X0064Y00509*
X0064Y00509*
X0064Y00509*
X0064Y00508*
X00639Y00508*
X00639Y00508*
X00639Y00508*
X00639Y00507*
X00638Y00507*
X00638Y00507*
X00638Y00507*
X00638Y00506*
X00638Y00506*
X00638Y00506*
X00638Y00505*
X00638Y00505*
X00638Y00505*
X00604Y0054D02*
D01*
X00604Y00539*
X00604Y00539*
X00604Y00538*
X00604Y00538*
X00604Y00538*
X00605Y00537*
X00605Y00537*
X00605Y00537*
X00605Y00537*
X00605Y00536*
X00606Y00536*
X00606Y00536*
X00606Y00536*
X00606Y00535*
X00607Y00535*
X00607Y00535*
X00607Y00535*
X00608Y00535*
X00608Y00535*
X00608Y00535*
X00609Y00535*
X00609Y00535*
X00609*
X0061Y00535*
X0061Y00535*
X0061Y00535*
X00611Y00535*
X00611Y00535*
X00611Y00535*
X00612Y00535*
X00612Y00535*
X00612Y00536*
X00613Y00536*
X00613Y00536*
X00613Y00536*
X00613Y00537*
X00613Y00537*
X00614Y00537*
X00614Y00537*
X00614Y00538*
X00614Y00538*
X00614Y00538*
X00614Y00539*
X00614Y00539*
X00614Y0054*
X00614Y0054*
X00614Y0054*
X00614Y00541*
X00614Y00541*
X00614Y00541*
X00614Y00542*
X00614Y00542*
X00613Y00542*
X00613Y00542*
X00613Y00543*
X00613Y00543*
X00613Y00543*
X00612Y00543*
X00612Y00544*
X00612Y00544*
X00611Y00544*
X00611Y00544*
X00611Y00544*
X0061Y00544*
X0061Y00544*
X0061Y00544*
X00609Y00544*
X00609*
X00609Y00544*
X00608Y00544*
X00608Y00544*
X00608Y00544*
X00607Y00544*
X00607Y00544*
X00607Y00544*
X00606Y00544*
X00606Y00543*
X00606Y00543*
X00606Y00543*
X00605Y00543*
X00605Y00542*
X00605Y00542*
X00605Y00542*
X00605Y00542*
X00604Y00541*
X00604Y00541*
X00604Y00541*
X00604Y0054*
X00604Y0054*
X00604Y0054*
X00692Y00265D02*
D01*
X00692Y00265*
X00692Y00265*
X00692Y00264*
X00692Y00264*
X00692Y00264*
X00692Y00263*
X00692Y00263*
X00693Y00263*
X00693Y00262*
X00693Y00262*
X00693Y00262*
X00694Y00262*
X00694Y00261*
X00694Y00261*
X00694Y00261*
X00695Y00261*
X00695Y00261*
X00695Y0026*
X00696Y0026*
X00696Y0026*
X00696Y0026*
X00697Y0026*
X00697*
X00697Y0026*
X00698Y0026*
X00698Y0026*
X00698Y0026*
X00699Y00261*
X00699Y00261*
X00699Y00261*
X007Y00261*
X007Y00261*
X007Y00262*
X007Y00262*
X00701Y00262*
X00701Y00262*
X00701Y00263*
X00701Y00263*
X00701Y00263*
X00702Y00264*
X00702Y00264*
X00702Y00264*
X00702Y00265*
X00702Y00265*
X00702Y00265*
X00702Y00266*
X00702Y00266*
X00702Y00266*
X00702Y00267*
X00702Y00267*
X00701Y00267*
X00701Y00268*
X00701Y00268*
X00701Y00268*
X00701Y00268*
X007Y00269*
X007Y00269*
X007Y00269*
X007Y00269*
X00699Y0027*
X00699Y0027*
X00699Y0027*
X00698Y0027*
X00698Y0027*
X00698Y0027*
X00697Y0027*
X00697Y0027*
X00697*
X00696Y0027*
X00696Y0027*
X00696Y0027*
X00695Y0027*
X00695Y0027*
X00695Y0027*
X00694Y0027*
X00694Y00269*
X00694Y00269*
X00694Y00269*
X00693Y00269*
X00693Y00268*
X00693Y00268*
X00693Y00268*
X00692Y00268*
X00692Y00267*
X00692Y00267*
X00692Y00267*
X00692Y00266*
X00692Y00266*
X00692Y00266*
X00692Y00265*
X00472Y00287D02*
D01*
X00472Y00287*
X00472Y00287*
X00472Y00286*
X00472Y00286*
X00472Y00286*
X00472Y00285*
X00472Y00285*
X00473Y00285*
X00473Y00284*
X00473Y00284*
X00473Y00284*
X00474Y00284*
X00474Y00283*
X00474Y00283*
X00474Y00283*
X00475Y00283*
X00475Y00283*
X00475Y00282*
X00476Y00282*
X00476Y00282*
X00476Y00282*
X00477Y00282*
X00477*
X00477Y00282*
X00478Y00282*
X00478Y00282*
X00478Y00282*
X00479Y00283*
X00479Y00283*
X00479Y00283*
X0048Y00283*
X0048Y00283*
X0048Y00284*
X0048Y00284*
X00481Y00284*
X00481Y00284*
X00481Y00285*
X00481Y00285*
X00481Y00285*
X00482Y00286*
X00482Y00286*
X00482Y00286*
X00482Y00287*
X00482Y00287*
X00482Y00287*
X00482Y00288*
X00482Y00288*
X00482Y00288*
X00482Y00289*
X00482Y00289*
X00481Y00289*
X00481Y0029*
X00481Y0029*
X00481Y0029*
X00481Y0029*
X0048Y00291*
X0048Y00291*
X0048Y00291*
X0048Y00291*
X00479Y00292*
X00479Y00292*
X00479Y00292*
X00478Y00292*
X00478Y00292*
X00478Y00292*
X00477Y00292*
X00477Y00292*
X00477*
X00476Y00292*
X00476Y00292*
X00476Y00292*
X00475Y00292*
X00475Y00292*
X00475Y00292*
X00474Y00292*
X00474Y00291*
X00474Y00291*
X00474Y00291*
X00473Y00291*
X00473Y0029*
X00473Y0029*
X00473Y0029*
X00472Y0029*
X00472Y00289*
X00472Y00289*
X00472Y00289*
X00472Y00288*
X00472Y00288*
X00472Y00288*
X00472Y00287*
X00637Y00285D02*
D01*
X00637Y00284*
X00637Y00284*
X00637Y00283*
X00637Y00283*
X00637Y00283*
X00637Y00282*
X00637Y00282*
X00638Y00282*
X00638Y00282*
X00638Y00281*
X00638Y00281*
X00639Y00281*
X00639Y00281*
X00639Y0028*
X00639Y0028*
X0064Y0028*
X0064Y0028*
X0064Y0028*
X00641Y0028*
X00641Y0028*
X00641Y0028*
X00642Y0028*
X00642*
X00642Y0028*
X00643Y0028*
X00643Y0028*
X00643Y0028*
X00644Y0028*
X00644Y0028*
X00644Y0028*
X00645Y0028*
X00645Y00281*
X00645Y00281*
X00645Y00281*
X00646Y00281*
X00646Y00282*
X00646Y00282*
X00646Y00282*
X00646Y00282*
X00647Y00283*
X00647Y00283*
X00647Y00283*
X00647Y00284*
X00647Y00284*
X00647Y00285*
X00647Y00285*
X00647Y00285*
X00647Y00286*
X00647Y00286*
X00647Y00286*
X00646Y00287*
X00646Y00287*
X00646Y00287*
X00646Y00287*
X00646Y00288*
X00645Y00288*
X00645Y00288*
X00645Y00288*
X00645Y00289*
X00644Y00289*
X00644Y00289*
X00644Y00289*
X00643Y00289*
X00643Y00289*
X00643Y00289*
X00642Y00289*
X00642Y00289*
X00642*
X00641Y00289*
X00641Y00289*
X00641Y00289*
X0064Y00289*
X0064Y00289*
X0064Y00289*
X00639Y00289*
X00639Y00289*
X00639Y00288*
X00639Y00288*
X00638Y00288*
X00638Y00288*
X00638Y00287*
X00638Y00287*
X00637Y00287*
X00637Y00287*
X00637Y00286*
X00637Y00286*
X00637Y00286*
X00637Y00285*
X00637Y00285*
X00637Y00285*
X00817Y00487D02*
Y00502D01*
X00825Y00495D02*
X00809D01*
X00257Y00637D02*
Y00652D01*
X00265Y00645D02*
X00249D01*
X00199Y00432D02*
Y00447D01*
X00207Y0044D02*
X00191D01*
X00277Y00412D02*
Y00427D01*
X00285Y0042D02*
X00269D01*
X00825Y00262D02*
X00809D01*
X00817Y00254D02*
Y0027D01*
X0078Y0026D02*
X00764D01*
X00772Y00252D02*
Y00268D01*
X0038Y00885D02*
X00364D01*
X00372Y00877D02*
Y00893D01*
X00627Y00812D02*
Y00827D01*
X00635Y0082D02*
X00619D01*
X00707Y00812D02*
Y00827D01*
X00715Y0082D02*
X00699D01*
X00454Y00812D02*
Y00827D01*
X00462Y0082D02*
X00446D01*
X00532Y00812D02*
Y00827D01*
X0054Y0082D02*
X00524D01*
X0054Y00317D02*
X00524D01*
X00532Y00309D02*
Y00325D01*
Y00497D02*
Y00512D01*
X0054Y00505D02*
X00524D01*
X00437Y00497D02*
Y00512D01*
X00445Y00505D02*
X00429D01*
X00643Y00497D02*
Y00512D01*
X00651Y00505D02*
X00635D01*
X00609Y00532D02*
Y00547D01*
X00617Y0054D02*
X00601D01*
X00697Y00257D02*
Y00273D01*
X00705Y00265D02*
X00689D01*
X00477Y00279D02*
Y00295D01*
X00485Y00287D02*
X00469D01*
X00642Y00277D02*
Y00292D01*
X0065Y00285D02*
X00634D01*
G54D67*
X00485Y0092D02*
D01*
X00485Y00919*
X00485Y00919*
X00485Y00918*
X00485Y00918*
X00485Y00917*
X00485Y00917*
X00486Y00916*
X00486Y00916*
X00486Y00915*
X00486Y00915*
X00487Y00915*
X00487Y00914*
X00488Y00914*
X00488Y00914*
X00488Y00913*
X00489Y00913*
X00489Y00913*
X0049Y00913*
X0049Y00913*
X00491Y00913*
X00491Y00912*
X00492Y00912*
X00492*
X00493Y00912*
X00493Y00913*
X00494Y00913*
X00494Y00913*
X00495Y00913*
X00495Y00913*
X00495Y00913*
X00496Y00914*
X00496Y00914*
X00497Y00914*
X00497Y00915*
X00497Y00915*
X00498Y00915*
X00498Y00916*
X00498Y00916*
X00498Y00917*
X00499Y00917*
X00499Y00918*
X00499Y00918*
X00499Y00919*
X00499Y00919*
X00499Y0092*
X00499Y0092*
X00499Y0092*
X00499Y00921*
X00499Y00921*
X00499Y00922*
X00498Y00922*
X00498Y00923*
X00498Y00923*
X00498Y00924*
X00497Y00924*
X00497Y00924*
X00497Y00925*
X00496Y00925*
X00496Y00925*
X00495Y00926*
X00495Y00926*
X00495Y00926*
X00494Y00926*
X00494Y00926*
X00493Y00926*
X00493Y00927*
X00492Y00927*
X00492*
X00491Y00927*
X00491Y00926*
X0049Y00926*
X0049Y00926*
X00489Y00926*
X00489Y00926*
X00488Y00926*
X00488Y00925*
X00488Y00925*
X00487Y00925*
X00487Y00924*
X00486Y00924*
X00486Y00924*
X00486Y00923*
X00486Y00923*
X00485Y00922*
X00485Y00922*
X00485Y00921*
X00485Y00921*
X00485Y0092*
X00485Y0092*
X00485Y0092*
X00502D02*
X00482D01*
X00492Y0091D02*
Y0093D01*
M02*