%FSTAX23Y23*%
%MOIN*%
%SFA1B1*%

%IPPOS*%
%ADD13C,0.007870*%
%ADD57C,0.003940*%
%ADD58C,0.009840*%
%ADD59C,0.005910*%
%ADD60C,0.003150*%
%ADD61C,0.006000*%
%ADD62C,0.005910*%
%LNusb2uart-1*%
%LPD*%
G54D13*
X00777Y00362D02*
X00746D01*
Y00397*
X00864Y00362D02*
X00832D01*
X00864D02*
Y00397D01*
X00209Y00517D02*
X00178D01*
Y00552*
X00296Y00517D02*
X00265D01*
X00296D02*
Y00552D01*
X00457Y00851D02*
X00412D01*
Y00852D02*
Y00896D01*
X00506Y01034D02*
X00532Y00995D01*
Y01034D02*
X00506Y00995D01*
X00545D02*
X00558D01*
X00552*
Y01034*
X00545Y01028*
X00224Y00675D02*
Y00714D01*
X00244*
X0025Y00708*
Y00695*
X00244Y00688*
X00224*
X00237D02*
X0025Y00675D01*
X00263Y00681D02*
X0027Y00675D01*
X00283*
X0029Y00681*
Y00708*
X00283Y00714*
X0027*
X00263Y00708*
Y00701*
X0027Y00695*
X0029*
X00689Y0049D02*
Y00529D01*
X00709*
X00715Y00523*
Y0051*
X00709Y00503*
X00689*
X00702D02*
X00715Y0049D01*
X00728Y00523D02*
X00735Y00529D01*
X00748*
X00755Y00523*
Y00516*
X00748Y0051*
X00755Y00503*
Y00496*
X00748Y0049*
X00735*
X00728Y00496*
Y00503*
X00735Y0051*
X00728Y00516*
Y00523*
X00735Y0051D02*
X00748D01*
X00619Y0073D02*
Y00769D01*
X00639*
X00645Y00763*
Y0075*
X00639Y00743*
X00619*
X00632D02*
X00645Y0073D01*
X00658Y00769D02*
X00685D01*
Y00763*
X00658Y00736*
Y0073*
X00504Y00435D02*
Y00474D01*
X00524*
X0053Y00468*
Y00455*
X00524Y00448*
X00504*
X00517D02*
X0053Y00435D01*
X0057Y00474D02*
X00557Y00468D01*
X00543Y00455*
Y00441*
X0055Y00435*
X00563*
X0057Y00441*
Y00448*
X00563Y00455*
X00543*
X00512Y00277D02*
X00552D01*
Y00258*
X00545Y00251*
X00532*
X00525Y00258*
Y00277*
Y00264D02*
X00512Y00251D01*
X00552Y00212D02*
Y00238D01*
X00532*
X00538Y00225*
Y00218*
X00532Y00212*
X00519*
X00512Y00218*
Y00231*
X00519Y00238*
X00159Y0035D02*
Y00389D01*
X00179*
X00185Y00383*
Y0037*
X00179Y00363*
X00159*
X00172D02*
X00185Y0035D01*
X00218D02*
Y00389D01*
X00198Y0037*
X00225*
X00352Y01002D02*
X00392D01*
Y00983*
X00385Y00976*
X00372*
X00365Y00983*
Y01002*
Y00989D02*
X00352Y00976D01*
X00385Y00963D02*
X00392Y00956D01*
Y00943*
X00385Y00937*
X00378*
X00372Y00943*
Y0095*
Y00943*
X00365Y00937*
X00359*
X00352Y00943*
Y00956*
X00359Y00963*
X00677Y00382D02*
X00717D01*
Y00363*
X0071Y00356*
X00697*
X0069Y00363*
Y00382*
Y00369D02*
X00677Y00356D01*
Y00317D02*
Y00343D01*
X00703Y00317*
X0071*
X00717Y00323*
Y00336*
X0071Y00343*
X00742Y00351D02*
X00782D01*
Y00331*
X00775Y00325*
X00762*
X00755Y00331*
Y00351*
Y00338D02*
X00742Y00325D01*
Y00311D02*
Y00298D01*
Y00305*
X00782*
X00775Y00311*
X00345Y00506D02*
Y00533D01*
X00339Y00539*
X00326*
X00319Y00533*
Y00506*
X00326Y005*
X00339*
X00332Y00513D02*
X00345Y005D01*
X00339D02*
X00345Y00506D01*
X00385Y005D02*
X00358D01*
X00385Y00526*
Y00533*
X00378Y00539*
X00365*
X00358Y00533*
X00717Y00436D02*
Y00463D01*
X0071Y00469*
X00697*
X00691Y00463*
Y00436*
X00697Y0043*
X0071*
X00704Y00443D02*
X00717Y0043D01*
X0071D02*
X00717Y00436D01*
X0073Y0043D02*
X00743D01*
X00737*
Y00469*
X0073Y00463*
X00684Y00954D02*
Y00915D01*
X00704*
X0071Y00921*
Y00948*
X00704Y00954*
X00684*
X0075D02*
X00737Y00948D01*
X00723Y00935*
Y00921*
X0073Y00915*
X00743*
X0075Y00921*
Y00928*
X00743Y00935*
X00723*
X00684Y00899D02*
Y0086D01*
X00704*
X0071Y00866*
Y00893*
X00704Y00899*
X00684*
X0075D02*
X00723D01*
Y0088*
X00737Y00886*
X00743*
X0075Y0088*
Y00866*
X00743Y0086*
X0073*
X00723Y00866*
X00219Y00849D02*
Y0081D01*
X00239*
X00245Y00816*
Y00843*
X00239Y00849*
X00219*
X00278Y0081D02*
Y00849D01*
X00258Y0083*
X00285*
X00229Y00999D02*
Y0096D01*
X00249*
X00255Y00966*
Y00993*
X00249Y00999*
X00229*
X00268Y00993D02*
X00275Y00999D01*
X00288*
X00295Y00993*
Y00986*
X00288Y0098*
X00282*
X00288*
X00295Y00973*
Y00966*
X00288Y0096*
X00275*
X00268Y00966*
X00411Y00059D02*
Y0002D01*
X0043*
X00437Y00026*
Y00053*
X0043Y00059*
X00411*
X0045Y0002D02*
X00463D01*
X00457*
Y00059*
X0045Y00053*
X00804Y00563D02*
X00797Y00569D01*
X00784*
X00778Y00563*
Y00536*
X00784Y0053*
X00797*
X00804Y00536*
X00817Y0053D02*
X0083D01*
X00824*
Y00569*
X00817Y00563*
X00876Y0053D02*
X0085D01*
X00876Y00556*
Y00563*
X0087Y00569*
X00856*
X0085Y00563*
X00524Y00768D02*
X00517Y00774D01*
X00504*
X00498Y00768*
Y00741*
X00504Y00735*
X00517*
X00524Y00741*
X00537Y00735D02*
X0055D01*
X00544*
Y00774*
X00537Y00768*
X0057D02*
X00576Y00774D01*
X0059*
X00596Y00768*
Y00741*
X0059Y00735*
X00576*
X0057Y00741*
Y00768*
X0044D02*
X00434Y00774D01*
X00421*
X00414Y00768*
Y00741*
X00421Y00735*
X00434*
X0044Y00741*
X00453D02*
X0046Y00735D01*
X00473*
X0048Y00741*
Y00768*
X00473Y00774*
X0046*
X00453Y00768*
Y00761*
X0046Y00755*
X0048*
X0073Y00778D02*
X00724Y00784D01*
X00711*
X00704Y00778*
Y00751*
X00711Y00745*
X00724*
X0073Y00751*
X00743Y00778D02*
X0075Y00784D01*
X00763*
X0077Y00778*
Y00771*
X00763Y00765*
X0077Y00758*
Y00751*
X00763Y00745*
X0075*
X00743Y00751*
Y00758*
X0075Y00765*
X00743Y00771*
Y00778*
X0075Y00765D02*
X00763D01*
X0027Y00383D02*
X00264Y00389D01*
X00251*
X00244Y00383*
Y00356*
X00251Y0035*
X00264*
X0027Y00356*
X00283Y00389D02*
X0031D01*
Y00383*
X00283Y00356*
Y0035*
X006Y00603D02*
X00594Y00609D01*
X00581*
X00574Y00603*
Y00576*
X00581Y0057*
X00594*
X006Y00576*
X0064Y00609D02*
X00627Y00603D01*
X00613Y0059*
Y00576*
X0062Y0057*
X00633*
X0064Y00576*
Y00583*
X00633Y0059*
X00613*
X0042Y00468D02*
X00414Y00474D01*
X00401*
X00394Y00468*
Y00441*
X00401Y00435*
X00414*
X0042Y00441*
X0046Y00474D02*
X00433D01*
Y00455*
X00447Y00461*
X00453*
X0046Y00455*
Y00441*
X00453Y00435*
X0044*
X00433Y00441*
X0088Y00266D02*
X00887Y00273D01*
Y00286*
X0088Y00292*
X00854*
X00847Y00286*
Y00273*
X00854Y00266*
X0088Y00253D02*
X00887Y00246D01*
Y00233*
X0088Y00227*
X00873*
X00867Y00233*
Y0024*
Y00233*
X0086Y00227*
X00854*
X00847Y00233*
Y00246*
X00854Y00253*
X00655Y00371D02*
X00662Y00378D01*
Y00391*
X00655Y00397*
X00629*
X00622Y00391*
Y00378*
X00629Y00371*
X00622Y00332D02*
Y00358D01*
X00648Y00332*
X00655*
X00662Y00338*
Y00351*
X00655Y00358*
X00435Y00285D02*
X00442Y00291D01*
Y00304*
X00435Y00311*
X00409*
X00402Y00304*
Y00291*
X00409Y00285*
X00402Y00271D02*
Y00258D01*
Y00265*
X00442*
X00435Y00271*
G54D57*
X0028Y00937D02*
D01*
X0028Y00937*
X0028Y00937*
X0028Y00937*
X0028Y00937*
X0028Y00937*
X0028Y00937*
X0028Y00936*
X0028Y00936*
X0028Y00936*
X0028Y00936*
X0028Y00936*
X0028Y00936*
X0028Y00936*
X00281Y00936*
X00281Y00936*
X00281Y00936*
X00281Y00936*
X00281Y00935*
X00281Y00935*
X00281Y00935*
X00281Y00935*
X00282Y00935*
X00282*
X00282Y00935*
X00282Y00935*
X00282Y00935*
X00282Y00935*
X00282Y00936*
X00283Y00936*
X00283Y00936*
X00283Y00936*
X00283Y00936*
X00283Y00936*
X00283Y00936*
X00283Y00936*
X00283Y00936*
X00283Y00936*
X00283Y00936*
X00283Y00937*
X00284Y00937*
X00284Y00937*
X00284Y00937*
X00284Y00937*
X00284Y00937*
X00284Y00937*
D01*
X00284Y00938*
X00284Y00938*
X00284Y00938*
X00284Y00938*
X00284Y00938*
X00283Y00938*
X00283Y00938*
X00283Y00938*
X00283Y00939*
X00283Y00939*
X00283Y00939*
X00283Y00939*
X00283Y00939*
X00283Y00939*
X00283Y00939*
X00283Y00939*
X00282Y00939*
X00282Y00939*
X00282Y00939*
X00282Y00939*
X00282Y00939*
X00282Y00939*
X00282*
X00281Y00939*
X00281Y00939*
X00281Y00939*
X00281Y00939*
X00281Y00939*
X00281Y00939*
X00281Y00939*
X00281Y00939*
X0028Y00939*
X0028Y00939*
X0028Y00939*
X0028Y00939*
X0028Y00939*
X0028Y00938*
X0028Y00938*
X0028Y00938*
X0028Y00938*
X0028Y00938*
X0028Y00938*
X0028Y00938*
X0028Y00938*
X0028Y00937*
X00229Y00872D02*
D01*
X00229Y00872*
X00229Y00872*
X00229Y00872*
X00229Y00872*
X00229Y00872*
X00229Y00872*
X00229Y00873*
X00229Y00873*
X00229Y00873*
X00229Y00873*
X00229Y00873*
X00228Y00873*
X00228Y00873*
X00228Y00873*
X00228Y00873*
X00228Y00873*
X00228Y00873*
X00228Y00874*
X00228Y00874*
X00227Y00874*
X00227Y00874*
X00227Y00874*
X00227*
X00227Y00874*
X00227Y00874*
X00227Y00874*
X00227Y00874*
X00226Y00873*
X00226Y00873*
X00226Y00873*
X00226Y00873*
X00226Y00873*
X00226Y00873*
X00226Y00873*
X00226Y00873*
X00226Y00873*
X00225Y00873*
X00225Y00873*
X00225Y00872*
X00225Y00872*
X00225Y00872*
X00225Y00872*
X00225Y00872*
X00225Y00872*
X00225Y00872*
D01*
X00225Y00871*
X00225Y00871*
X00225Y00871*
X00225Y00871*
X00225Y00871*
X00225Y00871*
X00225Y00871*
X00225Y00871*
X00226Y0087*
X00226Y0087*
X00226Y0087*
X00226Y0087*
X00226Y0087*
X00226Y0087*
X00226Y0087*
X00226Y0087*
X00226Y0087*
X00227Y0087*
X00227Y0087*
X00227Y0087*
X00227Y0087*
X00227Y0087*
X00227*
X00227Y0087*
X00227Y0087*
X00228Y0087*
X00228Y0087*
X00228Y0087*
X00228Y0087*
X00228Y0087*
X00228Y0087*
X00228Y0087*
X00228Y0087*
X00229Y0087*
X00229Y0087*
X00229Y0087*
X00229Y00871*
X00229Y00871*
X00229Y00871*
X00229Y00871*
X00229Y00871*
X00229Y00871*
X00229Y00871*
X00229Y00871*
X00229Y00872*
X00604Y00917D02*
D01*
X00604Y00917*
X00604Y00917*
X00603Y00917*
X00603Y00917*
X00603Y00917*
X00603Y00917*
X00603Y00918*
X00603Y00918*
X00603Y00918*
X00603Y00918*
X00603Y00918*
X00603Y00918*
X00603Y00918*
X00603Y00918*
X00603Y00918*
X00602Y00918*
X00602Y00918*
X00602Y00919*
X00602Y00919*
X00602Y00919*
X00602Y00919*
X00602Y00919*
X00601*
X00601Y00919*
X00601Y00919*
X00601Y00919*
X00601Y00919*
X00601Y00918*
X00601Y00918*
X00601Y00918*
X006Y00918*
X006Y00918*
X006Y00918*
X006Y00918*
X006Y00918*
X006Y00918*
X006Y00918*
X006Y00918*
X006Y00917*
X006Y00917*
X006Y00917*
X006Y00917*
X006Y00917*
X006Y00917*
X006Y00917*
D01*
X006Y00916*
X006Y00916*
X006Y00916*
X006Y00916*
X006Y00916*
X006Y00916*
X006Y00916*
X006Y00916*
X006Y00915*
X006Y00915*
X006Y00915*
X006Y00915*
X006Y00915*
X006Y00915*
X00601Y00915*
X00601Y00915*
X00601Y00915*
X00601Y00915*
X00601Y00915*
X00601Y00915*
X00601Y00915*
X00601Y00915*
X00602*
X00602Y00915*
X00602Y00915*
X00602Y00915*
X00602Y00915*
X00602Y00915*
X00602Y00915*
X00603Y00915*
X00603Y00915*
X00603Y00915*
X00603Y00915*
X00603Y00915*
X00603Y00915*
X00603Y00915*
X00603Y00916*
X00603Y00916*
X00603Y00916*
X00603Y00916*
X00603Y00916*
X00603Y00916*
X00604Y00916*
X00604Y00916*
X00604Y00917*
X00604Y00867D02*
D01*
X00604Y00867*
X00604Y00867*
X00604Y00867*
X00604Y00867*
X00604Y00867*
X00604Y00867*
X00604Y00868*
X00604Y00868*
X00604Y00868*
X00604Y00868*
X00604Y00868*
X00603Y00868*
X00603Y00868*
X00603Y00868*
X00603Y00868*
X00603Y00868*
X00603Y00868*
X00603Y00869*
X00603Y00869*
X00602Y00869*
X00602Y00869*
X00602Y00869*
X00602*
X00602Y00869*
X00602Y00869*
X00602Y00869*
X00602Y00869*
X00601Y00868*
X00601Y00868*
X00601Y00868*
X00601Y00868*
X00601Y00868*
X00601Y00868*
X00601Y00868*
X00601Y00868*
X00601Y00868*
X006Y00868*
X006Y00868*
X006Y00867*
X006Y00867*
X006Y00867*
X006Y00867*
X006Y00867*
X006Y00867*
X006Y00867*
D01*
X006Y00866*
X006Y00866*
X006Y00866*
X006Y00866*
X006Y00866*
X006Y00866*
X006Y00866*
X006Y00866*
X00601Y00865*
X00601Y00865*
X00601Y00865*
X00601Y00865*
X00601Y00865*
X00601Y00865*
X00601Y00865*
X00601Y00865*
X00601Y00865*
X00602Y00865*
X00602Y00865*
X00602Y00865*
X00602Y00865*
X00602Y00865*
X00602*
X00602Y00865*
X00602Y00865*
X00603Y00865*
X00603Y00865*
X00603Y00865*
X00603Y00865*
X00603Y00865*
X00603Y00865*
X00603Y00865*
X00603Y00865*
X00604Y00865*
X00604Y00865*
X00604Y00865*
X00604Y00866*
X00604Y00866*
X00604Y00866*
X00604Y00866*
X00604Y00866*
X00604Y00866*
X00604Y00866*
X00604Y00866*
X00604Y00867*
G54D58*
X00863Y00455D02*
D01*
X00863Y00454*
X00863Y00454*
X00863Y00453*
X00863Y00453*
X00863Y00453*
X00863Y00452*
X00863Y00452*
X00863Y00452*
X00864Y00452*
X00864Y00451*
X00864Y00451*
X00864Y00451*
X00864Y00451*
X00865Y0045*
X00865Y0045*
X00865Y0045*
X00866Y0045*
X00866Y0045*
X00866Y0045*
X00867Y0045*
X00867Y0045*
X00867Y0045*
X00868*
X00868Y0045*
X00868Y0045*
X00869Y0045*
X00869Y0045*
X00869Y0045*
X0087Y0045*
X0087Y0045*
X0087Y0045*
X00871Y00451*
X00871Y00451*
X00871Y00451*
X00871Y00451*
X00871Y00452*
X00872Y00452*
X00872Y00452*
X00872Y00452*
X00872Y00453*
X00872Y00453*
X00872Y00453*
X00872Y00454*
X00872Y00454*
X00872Y00455*
X00872Y00455*
X00872Y00455*
X00872Y00456*
X00872Y00456*
X00872Y00456*
X00872Y00457*
X00872Y00457*
X00872Y00457*
X00871Y00457*
X00871Y00458*
X00871Y00458*
X00871Y00458*
X00871Y00458*
X0087Y00459*
X0087Y00459*
X0087Y00459*
X00869Y00459*
X00869Y00459*
X00869Y00459*
X00868Y00459*
X00868Y00459*
X00868Y00459*
X00867*
X00867Y00459*
X00867Y00459*
X00866Y00459*
X00866Y00459*
X00866Y00459*
X00865Y00459*
X00865Y00459*
X00865Y00459*
X00864Y00458*
X00864Y00458*
X00864Y00458*
X00864Y00458*
X00864Y00457*
X00863Y00457*
X00863Y00457*
X00863Y00457*
X00863Y00456*
X00863Y00456*
X00863Y00456*
X00863Y00455*
X00863Y00455*
X00863Y00455*
X00295Y0061D02*
D01*
X00295Y00609*
X00295Y00609*
X00295Y00608*
X00295Y00608*
X00295Y00608*
X00295Y00607*
X00296Y00607*
X00296Y00607*
X00296Y00607*
X00296Y00606*
X00296Y00606*
X00297Y00606*
X00297Y00606*
X00297Y00605*
X00297Y00605*
X00298Y00605*
X00298Y00605*
X00298Y00605*
X00299Y00605*
X00299Y00605*
X00299Y00605*
X003Y00605*
X003*
X003Y00605*
X00301Y00605*
X00301Y00605*
X00301Y00605*
X00302Y00605*
X00302Y00605*
X00302Y00605*
X00303Y00605*
X00303Y00606*
X00303Y00606*
X00303Y00606*
X00304Y00606*
X00304Y00607*
X00304Y00607*
X00304Y00607*
X00304Y00607*
X00305Y00608*
X00305Y00608*
X00305Y00608*
X00305Y00609*
X00305Y00609*
X00305Y0061*
X00305Y0061*
X00305Y0061*
X00305Y00611*
X00305Y00611*
X00305Y00611*
X00304Y00612*
X00304Y00612*
X00304Y00612*
X00304Y00612*
X00304Y00613*
X00303Y00613*
X00303Y00613*
X00303Y00613*
X00303Y00614*
X00302Y00614*
X00302Y00614*
X00302Y00614*
X00301Y00614*
X00301Y00614*
X00301Y00614*
X003Y00614*
X003Y00614*
X003*
X00299Y00614*
X00299Y00614*
X00299Y00614*
X00298Y00614*
X00298Y00614*
X00298Y00614*
X00297Y00614*
X00297Y00614*
X00297Y00613*
X00297Y00613*
X00296Y00613*
X00296Y00613*
X00296Y00612*
X00296Y00612*
X00296Y00612*
X00295Y00612*
X00295Y00611*
X00295Y00611*
X00295Y00611*
X00295Y0061*
X00295Y0061*
X00295Y0061*
G54D59*
X00483Y00053D02*
D01*
X00483Y00053*
X00483Y00053*
X00483Y00053*
X00483Y00052*
X00483Y00052*
X00483Y00052*
X00484Y00052*
X00484Y00052*
X00484Y00052*
X00484Y00051*
X00484Y00051*
X00484Y00051*
X00484Y00051*
X00485Y00051*
X00485Y00051*
X00485Y00051*
X00485Y00051*
X00485Y0005*
X00485Y0005*
X00486Y0005*
X00486Y0005*
X00486Y0005*
X00486*
X00486Y0005*
X00487Y0005*
X00487Y0005*
X00487Y0005*
X00487Y00051*
X00487Y00051*
X00488Y00051*
X00488Y00051*
X00488Y00051*
X00488Y00051*
X00488Y00051*
X00488Y00051*
X00489Y00052*
X00489Y00052*
X00489Y00052*
X00489Y00052*
X00489Y00052*
X00489Y00052*
X00489Y00053*
X00489Y00053*
X00489Y00053*
X00489Y00053*
X00489Y00054*
X00489Y00054*
X00489Y00054*
X00489Y00054*
X00489Y00054*
X00489Y00054*
X00489Y00055*
X00489Y00055*
X00489Y00055*
X00488Y00055*
X00488Y00055*
X00488Y00055*
X00488Y00056*
X00488Y00056*
X00488Y00056*
X00487Y00056*
X00487Y00056*
X00487Y00056*
X00487Y00056*
X00487Y00056*
X00486Y00056*
X00486Y00056*
X00486*
X00486Y00056*
X00486Y00056*
X00485Y00056*
X00485Y00056*
X00485Y00056*
X00485Y00056*
X00485Y00056*
X00485Y00056*
X00484Y00056*
X00484Y00055*
X00484Y00055*
X00484Y00055*
X00484Y00055*
X00484Y00055*
X00484Y00055*
X00483Y00054*
X00483Y00054*
X00483Y00054*
X00483Y00054*
X00483Y00054*
X00483Y00054*
X00483Y00053*
G54D60*
X00274Y00918D02*
X00234D01*
Y00941*
X00274D02*
X00234D01*
X00274Y00918D02*
Y00941D01*
X00274Y00891D02*
X00235D01*
X00274Y00868D02*
Y00891D01*
Y00868D02*
X00235D01*
Y00891*
X00649Y00936D02*
X00609D01*
X00649Y00913D02*
Y00936D01*
Y00913D02*
X00609D01*
Y00936*
X00649Y00886D02*
X0061D01*
X00649Y00863D02*
Y00886D01*
Y00863D02*
X0061D01*
Y00886*
G54D61*
X0085Y00477D02*
X00827D01*
X00807D02*
X00783D01*
X0085Y00512D02*
X00827D01*
X00807D02*
X00783D01*
Y00477D02*
Y00512D01*
X00783Y00477D02*
X00783Y00477D01*
X0085Y00477D02*
Y00512D01*
X00817Y00489D02*
Y00501D01*
X00288Y00627D02*
X00223D01*
X00288Y00662D02*
X00223D01*
X00288Y00627D02*
Y00662D01*
X00223Y00627D02*
Y00662D01*
X00233Y00457D02*
X00168D01*
X00233Y00422D02*
X00168D01*
Y00457*
X00233Y00422D02*
Y00457D01*
X0031Y00402D02*
X00287D01*
X00267D02*
X00243D01*
X0031Y00437D02*
X00287D01*
X00267D02*
X00243D01*
Y00402D02*
Y00437D01*
X00243Y00402D02*
X00243Y00402D01*
X0031Y00402D02*
Y00437D01*
X00277Y00414D02*
Y00426D01*
X00799Y00229D02*
Y00252D01*
Y00272D02*
Y00296D01*
X00835Y00229D02*
Y00252D01*
Y00272D02*
Y00296D01*
X00799*
Y00296*
X00835Y00229D02*
X00799D01*
X00823Y00262D02*
X00811D01*
X00754Y00229D02*
Y00294D01*
X0079Y00229D02*
Y00294D01*
Y00229D02*
X00754D01*
X0079Y00294D02*
X00754D01*
X00354Y00854D02*
Y00919D01*
X0039Y00854D02*
Y00919D01*
Y00854D02*
X00354D01*
X0039Y00919D02*
X00354D01*
X00658Y00802D02*
X00593D01*
X00658Y00837D02*
X00593D01*
X00658Y00802D02*
Y00837D01*
X00593Y00802D02*
Y00837D01*
X00697Y00837D02*
X00673D01*
X0074D02*
X00717D01*
X00697Y00802D02*
X00673D01*
X0074D02*
X00717D01*
X0074D02*
Y00837D01*
Y00837*
X00673Y00802D02*
Y00837D01*
X00707Y00814D02*
Y00826D01*
X00488Y00802D02*
X00464D01*
X00444D02*
X00421D01*
X00488Y00837D02*
X00464D01*
X00444D02*
X00421D01*
Y00802D02*
Y00837D01*
Y00802D02*
Y00802D01*
X00488Y00802D02*
Y00837D01*
X00454Y00814D02*
Y00826D01*
X00522Y00837D02*
X00498D01*
X00565D02*
X00542D01*
X00522Y00802D02*
X00498D01*
X00565D02*
X00542D01*
X00565D02*
Y00837D01*
Y00837*
X00498Y00802D02*
Y00837D01*
X00532Y00814D02*
Y00826D01*
X00514Y00285D02*
Y0035D01*
X0055Y00285D02*
Y0035D01*
Y00285D02*
X00514D01*
X0055Y0035D02*
X00514D01*
X00565Y00522D02*
X005D01*
X00565Y00487D02*
X005D01*
Y00522*
X00565Y00487D02*
Y00522D01*
X00427D02*
X00403D01*
X0047D02*
X00447D01*
X00427Y00487D02*
X00403D01*
X0047D02*
X00447D01*
X0047D02*
Y00522D01*
Y00522*
X00403Y00487D02*
Y00522D01*
X00437Y00499D02*
Y00511D01*
X00676Y00522D02*
X00611D01*
X00676Y00487D02*
X00611D01*
Y00522*
X00676Y00487D02*
Y00522D01*
X00643Y00522D02*
X00619D01*
X00599D02*
X00576D01*
X00643Y00557D02*
X00619D01*
X00599D02*
X00576D01*
Y00522D02*
Y00557D01*
Y00522D02*
Y00522D01*
X00643Y00522D02*
Y00557D01*
X00609Y00534D02*
Y00546D01*
X00529Y0007D02*
Y00116D01*
X00475Y0007D02*
Y00116D01*
X00715Y00299D02*
X00679D01*
X00715Y00234D02*
X00679D01*
X00715D02*
Y00299D01*
X00679Y00234D02*
Y00299D01*
X00483Y00287D02*
X00471D01*
X00495Y00321D02*
X00459D01*
X00495Y00254D02*
Y00254D01*
X00459*
Y00277*
Y00297D02*
Y00321D01*
X00495Y00254D02*
Y00277D01*
Y00297D02*
Y00321D01*
X00648Y00285D02*
X00636D01*
X0066Y00318D02*
X00624D01*
X0066Y00251D02*
Y00251D01*
X00624*
Y00275*
Y00295D02*
Y00318D01*
X0066Y00251D02*
Y00275D01*
Y00295D02*
Y00318D01*
G54D62*
X00417Y00855D02*
Y00985D01*
X00567Y00855D02*
X00417D01*
X00567D02*
Y00985D01*
X00417*
M02*