%FSTAX23Y23*%
%MOIN*%
%SFA1B1*%

%IPPOS*%
%ADD12C,0.010000*%
%ADD13C,0.007870*%
%ADD20R,0.019680X0.047240*%
%ADD40C,0.015750*%
%ADD42C,0.196850*%
%ADD43R,0.039370X0.039370*%
%ADD44C,0.039370*%
%ADD45C,0.200000*%
%ADD46C,0.023620*%
%ADD47R,0.011810X0.023620*%
%ADD48R,0.015750X0.019680*%
%ADD49R,0.019680X0.015750*%
%ADD50R,0.051180X0.047240*%
%ADD51R,0.008820X0.023030*%
%LNusb2uart-1*%
%LPD*%
G36*
X00273Y01301D02*
X00286Y01296D01*
X00301Y01287*
X00313Y01276*
X00324Y01263*
X00333Y01249*
X0034Y01233*
X00344Y01216*
X00345Y012*
X00344Y01183*
X00343Y01181*
X00348Y01177*
X00348Y01177*
Y01156*
Y01135*
X00345Y01135*
X00337Y0114*
X00335Y01144*
X00329Y01144*
X00324Y01136*
X00313Y01123*
X00301Y01112*
X00286Y01103*
X0027Y01097*
X00254Y01093*
X00237Y01091*
X0022Y01093*
X00203Y01097*
X00188Y01103*
X00173Y01112*
X0016Y01123*
X00149Y01136*
X0014Y0115*
X00138Y01157*
X00133Y01156*
Y00163*
X00138Y00162*
X0014Y00169*
X00149Y00183*
X0016Y00196*
X00173Y00207*
X00188Y00216*
X00203Y00222*
X0022Y00226*
X00237Y00228*
X00241Y00227*
X00242Y00232*
X00239Y00235*
X00234Y00242*
X00234Y00245*
X00276*
X00275Y00242*
X00271Y00235*
X00263Y0023*
X00262Y0023*
X00262Y00224*
X0027Y00222*
X00286Y00216*
X00301Y00207*
X00313Y00196*
X00324Y00183*
X00333Y00169*
X0034Y00153*
X00344Y00136*
X00345Y0012*
X00344Y00103*
X0034Y00086*
X00333Y0007*
X00324Y00056*
X00313Y00043*
X00301Y00032*
X00286Y00023*
X00273Y00018*
X00274Y00013*
X00737*
X00738Y00018*
X00733Y00019*
X00719Y00028*
X00707Y00039*
X00696Y00052*
X00687Y00066*
X0068Y00082*
X00677Y00098*
X00675Y00115*
X00677Y00131*
X0068Y00147*
X00687Y00163*
X00696Y00177*
X00707Y0019*
X00719Y00201*
X00733Y0021*
X00749Y00216*
X00765Y0022*
X00782Y00221*
X00799Y0022*
X00815Y00216*
X0083Y0021*
X00845Y00201*
X00857Y0019*
X00868Y00177*
X00877Y00163*
X00883Y00147*
X00884Y00145*
X00889Y00146*
Y00294*
X00884Y00296*
X00877Y00294*
X00869Y00296*
X00863Y003*
X0086Y00305*
X00854*
X00851Y003*
X00847Y00298*
Y00295*
X00846Y0029*
X00844Y00286*
X00835Y00277*
Y00267*
X00837Y00262*
Y0026*
Y0025*
X00817*
X00797*
Y00261*
X00794Y00263*
X0079Y00263*
X0079Y00262*
Y0026*
Y00257*
Y00229*
X00754*
Y00235*
X00752Y00235*
X00748Y00238*
X00719Y00267*
X00719Y00267*
X00715Y00263*
Y00234*
X00701*
X00697Y0023*
X00695Y00222*
X00691Y00215*
X00685Y00211*
X00677Y00209*
X00669Y00211*
X00663Y00215*
X00658Y00222*
X00657Y0023*
X00658Y00237*
X00663Y00244*
X00669Y00248*
X00676Y00249*
X00679Y00252*
Y00265*
X00678Y0027*
X00665*
X0066Y00264*
Y00251*
X00651*
X0065Y00247*
X00646Y0024*
X0064Y00236*
X00632Y00234*
X00624Y00236*
X00618Y0024*
X00613Y00247*
X00612Y00255*
X00613Y00262*
X00618Y00269*
X00624Y00273*
Y0028*
X00622Y00284*
Y00297*
X00642*
X00662*
Y00296*
X00679*
Y00299*
X00715*
X00719Y00299*
X00755Y00335*
X0076Y00338*
X00765Y00339*
X00787*
Y00376*
X00822*
Y00334*
X00827Y00332*
X00829Y00333*
X00837Y00335*
X00845Y00333*
X00851Y00329*
X00854Y00324*
X0086*
X00863Y00329*
X00864Y00329*
Y00359*
X00836Y00387*
X00833Y00391*
X00832Y00396*
Y00403*
X00824*
Y00453*
X00819Y00455*
X00816Y0045*
X0081Y00446*
X00802Y00444*
X00794Y00446*
X00789Y00449*
X00785Y00446*
Y00403*
X00749*
X00748Y004*
X00748Y00399*
X00743Y00392*
X00736Y00387*
X00732Y00387*
Y00408*
Y00429*
X00736Y00428*
X00743Y00423*
X00744Y00421*
X00749Y00423*
Y00466*
X00766*
X00776Y00476*
X0078Y00478*
X00783Y00479*
Y00512*
X00813*
X00817Y00514*
X0083*
Y00495*
Y00475*
X00824*
X00821Y0047*
X00824Y00466*
X00827*
X0086*
Y00403*
X00861Y00399*
X00884Y00376*
X00889Y00378*
Y01159*
X00884Y0116*
X0088Y0115*
X00871Y01136*
X0086Y01123*
X00847Y01112*
X00833Y01103*
X00817Y01097*
X008Y01093*
X00783Y01091*
X00767Y01093*
X0075Y01097*
X00734Y01103*
X0072Y01112*
X00715Y01116*
X0071Y01114*
X00708Y01108*
X00704Y01101*
X00696Y01096*
X00693Y01095*
Y01116*
X00688*
Y01121*
X00667*
X00667Y01125*
X00672Y01132*
X00679Y01137*
X00688Y01139*
X00689Y01138*
X00692Y01143*
X00687Y0115*
X00681Y01166*
X00677Y01183*
X00676Y01192*
X00675Y01193*
X00672Y01192*
X0067Y01191*
X00669Y01187*
X00664Y01179*
X00657Y01175*
X00653Y01174*
Y01195*
Y01216*
X00657Y01216*
X00664Y01211*
X00669Y01204*
X0067Y012*
X00675Y01199*
X00675Y01199*
X00675Y012*
X00675Y01201*
X00677Y01216*
X00681Y01233*
X00687Y01249*
X00696Y01263*
X00707Y01276*
X0072Y01287*
X00734Y01296*
X00748Y01301*
X00747Y01306*
X00274*
X00273Y01301*
G37*
%LNusb2uart-2*%
%LPC*%
G36*
X00377Y01291D02*
Y01275D01*
X00361*
X00361Y01278*
X00366Y01285*
X00373Y0129*
X00377Y01291*
G37*
G36*
X00387D02*
X0039Y0129D01*
X00398Y01285*
X00402Y01278*
X00403Y01275*
X00387*
Y01291*
G37*
G36*
X00457D02*
Y01275D01*
X00441*
X00441Y01278*
X00446Y01285*
X00453Y0129*
X00457Y01291*
G37*
G36*
X00467D02*
X0047Y0129D01*
X00478Y01285*
X00482Y01278*
X00483Y01275*
X00467*
Y01291*
G37*
G36*
X00532D02*
Y01275D01*
X00516*
X00516Y01278*
X00521Y01285*
X00528Y0129*
X00532Y01291*
G37*
G36*
X00542D02*
X00545Y0129D01*
X00553Y01285*
X00557Y01278*
X00558Y01275*
X00542*
Y01291*
G37*
G36*
X00597D02*
Y01275D01*
X00581*
X00581Y01278*
X00586Y01285*
X00593Y0129*
X00597Y01291*
G37*
G36*
X00607D02*
X0061Y0129D01*
X00618Y01285*
X00622Y01278*
X00623Y01275*
X00607*
Y01291*
G37*
G36*
X00361Y01265D02*
X00377D01*
Y01248*
X00373Y01249*
X00366Y01254*
X00361Y01261*
X00361Y01265*
G37*
G36*
X00387D02*
X00403D01*
X00402Y01261*
X00398Y01254*
X0039Y01249*
X00387Y01248*
Y01265*
G37*
G36*
X00441D02*
X00457D01*
Y01248*
X00453Y01249*
X00446Y01254*
X00441Y01261*
X00441Y01265*
G37*
G36*
X00467D02*
X00483D01*
X00482Y01261*
X00478Y01254*
X0047Y01249*
X00467Y01248*
Y01265*
G37*
G36*
X00516D02*
X00532D01*
Y01248*
X00528Y01249*
X00521Y01254*
X00516Y01261*
X00516Y01265*
G37*
G36*
X00542D02*
X00558D01*
X00557Y01261*
X00553Y01254*
X00545Y01249*
X00542Y01248*
Y01265*
G37*
G36*
X00581D02*
X00597D01*
Y01248*
X00593Y01249*
X00586Y01254*
X00581Y01261*
X00581Y01265*
G37*
G36*
X00607D02*
X00623D01*
X00622Y01261*
X00618Y01254*
X0061Y01249*
X00607Y01248*
Y01265*
G37*
G36*
X00407Y01226D02*
Y0121D01*
X00391*
X00391Y01213*
X00396Y0122*
X00403Y01225*
X00407Y01226*
G37*
G36*
X00417D02*
X0042Y01225D01*
X00428Y0122*
X00432Y01213*
X00433Y0121*
X00417*
Y01226*
G37*
G36*
X00643Y01216D02*
Y012D01*
X00627*
X00628Y01204*
X00633Y01211*
X0064Y01216*
X00643Y01216*
G37*
G36*
X00391Y012D02*
X00407D01*
Y01183*
X00403Y01184*
X00396Y01189*
X00391Y01196*
X00391Y012*
G37*
G36*
X00417D02*
X00433D01*
X00432Y01196*
X00428Y01189*
X0042Y01184*
X00417Y01183*
Y012*
G37*
G36*
X00627Y0119D02*
X00643D01*
Y01174*
X0064Y01175*
X00633Y01179*
X00628Y01187*
X00627Y0119*
G37*
G36*
X00358Y01177D02*
X00362Y01176D01*
X00369Y01172*
X00374Y01164*
X00374Y01161*
X00358*
Y01177*
G37*
G36*
Y01151D02*
X00374D01*
X00374Y01147*
X00369Y0114*
X00362Y01135*
X00358Y01135*
Y01151*
G37*
G36*
X00667Y01111D02*
X00683D01*
Y01095*
X00679Y01096*
X00672Y01101*
X00667Y01108*
X00667Y01111*
G37*
G36*
X00722Y01059D02*
Y01043D01*
X00706*
X00707Y01046*
X00711Y01053*
X00719Y01058*
X00722Y01059*
G37*
G36*
X00732D02*
X00736Y01058D01*
X00743Y01053*
X00748Y01046*
X00748Y01043*
X00732*
Y01059*
G37*
G36*
X00289Y01059D02*
Y01043D01*
X00273*
X00274Y01046*
X00278Y01053*
X00286Y01058*
X00289Y01059*
G37*
G36*
X00299D02*
X00303Y01058D01*
X0031Y01053*
X00315Y01046*
X00315Y01043*
X00299*
Y01059*
G37*
G36*
X00706Y01033D02*
X00722D01*
Y01016*
X00719Y01017*
X00711Y01022*
X00707Y01029*
X00706Y01033*
G37*
G36*
X00732D02*
X00748D01*
X00748Y01029*
X00743Y01022*
X00736Y01017*
X00732Y01016*
Y01033*
G37*
G36*
X00273D02*
X00289D01*
Y01016*
X00286Y01017*
X00278Y01022*
X00274Y01029*
X00273Y01033*
G37*
G36*
X00299D02*
X00315D01*
X00315Y01029*
X0031Y01022*
X00303Y01017*
X00299Y01016*
Y01033*
G37*
G36*
X0021Y0098D02*
Y00964D01*
X00194*
X00195Y00967*
X002Y00975*
X00207Y0098*
X0021Y0098*
G37*
G36*
X0022D02*
X00224Y0098D01*
X00231Y00975*
X00236Y00967*
X00237Y00964*
X0022*
Y0098*
G37*
G36*
X00762D02*
Y00964D01*
X00745*
X00746Y00967*
X00751Y00975*
X00758Y0098*
X00762Y0098*
G37*
G36*
X00772D02*
X00775Y0098D01*
X00782Y00975*
X00787Y00967*
X00788Y00964*
X00772*
Y0098*
G37*
G36*
X0022Y00954D02*
X00238D01*
X0024Y00951*
X00257*
Y00949*
X00281*
X00282Y00949*
X00287Y0095*
X00295Y00948*
X00301Y00944*
X00305Y00937*
X00306Y00933*
X00338Y00901*
X00342Y00896*
X00343Y0089*
Y00761*
X00466Y00638*
X00469Y00633*
X00471Y00627*
Y00582*
X00476Y00581*
X00482Y00586*
X00486Y00586*
Y00565*
Y00544*
X00482Y00545*
X00476Y00549*
X00471Y00548*
Y00518*
X00473Y00516*
X00482Y00507*
X00486Y00506*
X00493Y00502*
X00493Y00501*
X00498Y00503*
Y00524*
X00511*
Y00505*
Y00485*
X00503*
X00499*
X00497Y0048*
X00497Y0048*
X00497Y0048*
X00493Y00474*
X00486Y00469*
X00479Y00468*
X00471Y00469*
X00464Y00474*
X0046Y0048*
X00459Y00485*
X00457Y00487*
X00441*
X00437Y00485*
X00435*
X00424*
Y00505*
Y00524*
X00437*
X00439Y00529*
Y0056*
X00434Y00561*
X00433Y00557*
X00428Y0055*
X00421Y00545*
X00417Y00544*
Y00565*
Y00586*
X00421Y00586*
X00428Y00581*
X00433Y00574*
X00434Y0057*
X00439Y0057*
Y0062*
X00316Y00743*
X00312Y00748*
X00311Y00754*
Y00873*
X00306Y00874*
X00305Y00872*
X00301Y00865*
X00295Y00861*
X00287Y00859*
X00285Y0086*
X0028Y00856*
Y00767*
X00281Y00765*
X00284Y00761*
X00285Y00756*
Y00662*
X00288*
Y00627*
X00286*
Y00621*
X00292*
Y00558*
X00257*
Y0062*
Y00621*
X00253Y00625*
X00244*
Y00645*
Y00664*
X00257*
X00261Y00668*
Y00751*
X00259Y00753*
X00256Y00757*
X00255Y00762*
Y00858*
X00247*
Y0088*
Y00901*
X00258*
Y00899*
X00281*
X00282Y00899*
X00287Y009*
X00287Y009*
X0029Y00904*
X00285Y00909*
X00281Y0091*
X00257*
Y00908*
X00246*
Y0093*
X00241*
Y00935*
X00225*
X0022Y00938*
X0022*
Y00954*
G37*
G36*
X00621Y00946D02*
X00632D01*
Y00944*
X00656*
X00657Y00944*
X00662Y00945*
X0067Y00943*
X00676Y00939*
X0068Y00932*
X00682Y00925*
X0068Y00917*
X00676Y0091*
X0067Y00906*
X00662Y00904*
X00657Y00906*
X00656Y00905*
X00632*
Y00903*
X00621*
Y00925*
Y00946*
G37*
G36*
X00194Y00954D02*
X0021D01*
Y00938*
X00207Y00938*
X002Y00943*
X00195Y0095*
X00194Y00954*
G37*
G36*
X00745D02*
X00762D01*
Y00938*
X00758Y00938*
X00751Y00943*
X00746Y0095*
X00745Y00954*
G37*
G36*
X00772D02*
X00788D01*
X00787Y0095*
X00782Y00943*
X00775Y00938*
X00772Y00938*
Y00954*
G37*
G36*
X006Y00946D02*
X00611D01*
Y0093*
X006*
Y00946*
G37*
G36*
X00352Y00921D02*
X00367D01*
Y00908*
X00352*
Y00921*
G37*
G36*
X00225Y00925D02*
X00236D01*
Y00908*
X00225*
Y00925*
G37*
G36*
X00417Y01008D02*
X00567D01*
X00572Y01007*
X00576Y01004*
X00591Y00989*
X00594Y00985*
X00595Y0098*
Y00907*
X00595Y00907*
X00596Y00907*
X006Y0091*
Y0092*
X00611*
Y00903*
X00606*
X00604Y009*
X00603Y00898*
X00604Y00896*
X00612*
Y00875*
Y00853*
X00601*
Y00861*
X00596Y00863*
X00595Y00863*
Y00837*
X00622*
X00625*
X0063*
X00658*
Y00833*
X00673*
Y00837*
X00703*
X00707Y00839*
X00709*
X0072*
Y0082*
Y008*
X00707*
X00703Y00802*
X00678*
X00675*
X00672Y00797*
X00673Y00796*
X00675Y00792*
X00677Y00785*
X00675Y00777*
X00671Y0077*
X00665Y00766*
X00657Y00764*
X00649Y00766*
X00643Y0077*
X00638Y00777*
X00637Y00785*
X00637Y00786*
X00633Y00789*
X00631Y00794*
X0063Y00799*
Y00801*
X00625Y00802*
X00622*
X00612*
X00607Y00796*
X00607Y00795*
X00605Y00787*
X00601Y0078*
X00595Y00776*
X00587Y00774*
X00579Y00776*
X00573Y0078*
X00568Y00787*
X00567Y00795*
X00567Y00795*
X00563Y008*
X00555*
Y0082*
X00545*
Y008*
X00536*
X00532Y00795*
X00532Y00795*
X0053Y00787*
X00526Y0078*
X0052Y00776*
X00512Y00774*
X00504Y00776*
X00498Y0078*
X00496Y00783*
X0049*
X00489Y00782*
X00483Y00778*
X00475Y00776*
X00468Y00778*
X00461Y00782*
X00457Y00789*
X00455Y00795*
X00455Y00796*
X00451Y008*
X00441*
Y0082*
X00431*
Y008*
X00419*
Y00806*
X00412*
X00407Y00807*
X00403Y0081*
X00393Y0082*
X00392Y00821*
X00386*
X00386Y0082*
X0038Y00816*
X00372Y00814*
X00364Y00816*
X00358Y0082*
X00353Y00827*
X00352Y00835*
X00353Y00842*
X00358Y00849*
X00358Y00849*
X00357Y00854*
X00354*
Y00885*
X00352*
Y00898*
X00372*
Y00903*
X00377*
Y00921*
X00389*
Y00955*
Y0098*
X0039Y00985*
X00393Y00989*
X00408Y01004*
X00412Y01007*
X00417Y01008*
G37*
G36*
X00622Y00896D02*
X00633D01*
Y00894*
X00656*
X00657Y00894*
X00662Y00895*
X0067Y00893*
X00676Y00889*
X0068Y00882*
X00682Y00875*
X0068Y00867*
X00676Y0086*
X0067Y00856*
X00662Y00854*
X00657Y00855*
X00656Y00855*
X00633*
Y00853*
X00622*
Y00875*
Y00896*
G37*
G36*
X00171Y00901D02*
Y00885D01*
X00155*
X00155Y00889*
X0016Y00896*
X00168Y00901*
X00171Y00901*
G37*
G36*
X00181D02*
X00185Y00901D01*
X00192Y00896*
X00197Y00889*
X00197Y00885*
X00181*
Y00901*
G37*
G36*
X00801D02*
Y00885D01*
X00785*
X00785Y00889*
X0079Y00896*
X00797Y00901*
X00801Y00901*
G37*
G36*
X00811D02*
X00814Y00901D01*
X00822Y00896*
X00827Y00889*
X00827Y00885*
X00811*
Y00901*
G37*
G36*
X00226Y00901D02*
X00237D01*
Y00885*
X00226*
Y00901*
G37*
G36*
X00155Y00875D02*
X00171D01*
Y00859*
X00168Y0086*
X0016Y00864*
X00155Y00872*
X00155Y00875*
G37*
G36*
X00181D02*
X00197D01*
X00197Y00872*
X00192Y00864*
X00185Y0086*
X00181Y00859*
Y00875*
G37*
G36*
X00785D02*
X00801D01*
Y00859*
X00797Y0086*
X0079Y00864*
X00785Y00872*
X00785Y00875*
G37*
G36*
X00811D02*
X00827D01*
X00827Y00872*
X00822Y00864*
X00814Y0086*
X00811Y00859*
Y00875*
G37*
G36*
X00226Y00875D02*
X00237D01*
Y00858*
X00226*
Y00875*
G37*
G36*
X0073Y00839D02*
X00742D01*
Y00825*
X0073*
Y00839*
G37*
G36*
Y00815D02*
X00742D01*
Y008*
X0073*
Y00815*
G37*
G36*
X00722Y00744D02*
Y00728D01*
X00706*
X00707Y00731*
X00711Y00738*
X00719Y00743*
X00722Y00744*
G37*
G36*
X00732D02*
X00736Y00743D01*
X00743Y00738*
X00748Y00731*
X00748Y00728*
X00732*
Y00744*
G37*
G36*
X00706Y00718D02*
X00722D01*
Y00701*
X00719Y00702*
X00711Y00707*
X00707Y00714*
X00706Y00718*
G37*
G36*
X00732D02*
X00748D01*
X00748Y00714*
X00743Y00707*
X00736Y00702*
X00732Y00701*
Y00718*
G37*
G36*
X00234Y00664D02*
Y0065D01*
X00221*
Y00664*
X00234*
G37*
G36*
X00368Y00665D02*
Y00649D01*
X00352*
X00352Y00653*
X00357Y0066*
X00364Y00665*
X00368Y00665*
G37*
G36*
X00378D02*
X00381Y00665D01*
X00389Y0066*
X00393Y00653*
X00394Y00649*
X00378*
Y00665*
G37*
G36*
X00604D02*
Y00649D01*
X00588*
X00589Y00653*
X00593Y0066*
X00601Y00665*
X00604Y00665*
G37*
G36*
X00614D02*
X00618Y00665D01*
X00625Y0066*
X0063Y00653*
X0063Y00649*
X00614*
Y00665*
G37*
G36*
X00352Y00639D02*
X00368D01*
Y00623*
X00364Y00623*
X00357Y00628*
X00352Y00635*
X00352Y00639*
G37*
G36*
X00378D02*
X00394D01*
X00393Y00635*
X00389Y00628*
X00381Y00623*
X00378Y00623*
Y00639*
G37*
G36*
X00588D02*
X00604D01*
Y00623*
X00601Y00623*
X00593Y00628*
X00589Y00635*
X00588Y00639*
G37*
G36*
X00614D02*
X0063D01*
X0063Y00635*
X00625Y00628*
X00618Y00623*
X00614Y00623*
Y00639*
G37*
G36*
X00195Y00623D02*
Y00595D01*
X0018*
Y00623*
X00195*
G37*
G36*
X00221Y0064D02*
X00234D01*
Y00625*
X00226*
X00224*
X00223Y00625*
X00221Y00624*
X00219Y00621*
X00219Y0062*
Y00619*
Y00595*
X00205*
Y00623*
X00215*
X00216*
X00217Y00623*
X0022Y00624*
X00221Y00627*
X00221Y00628*
Y00629*
Y0064*
G37*
G36*
X00329Y00586D02*
Y0057D01*
X00312*
X00313Y00574*
X00318Y00581*
X00325Y00586*
X00329Y00586*
G37*
G36*
X00339D02*
X00342Y00586D01*
X00349Y00581*
X00354Y00574*
X00355Y0057*
X00339*
Y00586*
G37*
G36*
X00407D02*
Y0057D01*
X00391*
X00392Y00574*
X00397Y00581*
X00404Y00586*
X00407Y00586*
G37*
G36*
X00496D02*
X005Y00586D01*
X00507Y00581*
X00512Y00574*
X00512Y0057*
X00496*
Y00586*
G37*
G36*
X00722D02*
Y0057D01*
X00706*
X00707Y00574*
X00711Y00581*
X00719Y00586*
X00722Y00586*
G37*
G36*
X00732D02*
X00736Y00586D01*
X00743Y00581*
X00748Y00574*
X00748Y0057*
X00732*
Y00586*
G37*
G36*
X0018Y00585D02*
X00195D01*
Y00556*
X0018*
Y00585*
G37*
G36*
X00205D02*
X00219D01*
Y00556*
X00205*
Y00585*
G37*
G36*
X00586Y00559D02*
Y00545D01*
X00574*
Y00559*
X00586*
G37*
G36*
X00312Y0056D02*
X00329D01*
Y00544*
X00325Y00545*
X00318Y0055*
X00313Y00557*
X00312Y0056*
G37*
G36*
X00339D02*
X00355D01*
X00354Y00557*
X00349Y0055*
X00342Y00545*
X00339Y00544*
Y0056*
G37*
G36*
X00391D02*
X00407D01*
Y00544*
X00404Y00545*
X00397Y0055*
X00392Y00557*
X00391Y0056*
G37*
G36*
X00496D02*
X00512D01*
X00512Y00557*
X00507Y0055*
X005Y00545*
X00496Y00544*
Y0056*
G37*
G36*
X00706D02*
X00722D01*
Y00544*
X00719Y00545*
X00711Y0055*
X00707Y00557*
X00706Y0056*
G37*
G36*
X00732D02*
X00748D01*
X00748Y00557*
X00743Y0055*
X00736Y00545*
X00732Y00544*
Y0056*
G37*
G36*
X00414Y00524D02*
Y0051D01*
X00401*
Y00524*
X00414*
G37*
G36*
X0084Y00514D02*
X00852D01*
Y005*
X0084*
Y00514*
G37*
G36*
X00401Y005D02*
X00414D01*
Y00485*
X00401*
Y005*
G37*
G36*
X00609Y00559D02*
X00613Y00557D01*
X00643*
Y00526*
X00645Y00522*
X00676*
Y00499*
X0068Y00492*
X00682Y00485*
X0068Y00477*
X00676Y0047*
X0067Y00466*
X00662Y00464*
X00654Y00466*
X0065Y00469*
X00644Y00468*
X00643Y00466*
X00637Y00462*
X00629Y0046*
X00621Y00462*
X00615Y00466*
X0061Y00473*
X00609Y0048*
X0061Y00488*
X00611Y00489*
Y00515*
X00609Y0052*
X00596*
X00594Y00515*
X00595Y00512*
X00597Y00505*
X00595Y00497*
X00591Y0049*
X00585Y00486*
X00577Y00484*
X00569Y00486*
X00565Y00487*
X00534*
Y00485*
X00521*
Y00505*
Y00524*
X00534*
Y00522*
X00562*
X00564*
X00569Y00523*
X00569Y00523*
X00569Y00523*
X00574Y00525*
Y00535*
X00591*
Y0054*
X00596*
Y00559*
X00609*
G37*
G36*
X0084Y0049D02*
X00852D01*
Y00475*
X0084*
Y0049*
G37*
G36*
X003Y00439D02*
X00312D01*
Y00425*
X003*
Y00439*
G37*
G36*
X00722Y00429D02*
Y00413D01*
X00706*
X00707Y00416*
X00711Y00423*
X00719Y00428*
X00722Y00429*
G37*
G36*
X003Y00415D02*
X00312D01*
Y004*
X003*
Y00415*
G37*
G36*
X00155Y00403D02*
X00171D01*
Y00387*
X00168Y00387*
X0016Y00392*
X00155Y00399*
X00155Y00403*
G37*
G36*
X00219Y00531D02*
X00255D01*
Y00471*
Y00469*
X00256Y00467*
X0026Y00464*
X00267Y00463*
X00273Y00459*
X00278Y00452*
X00279Y00445*
X00279Y00443*
X00282Y00439*
X0029*
Y0042*
Y004*
X00277*
X00273Y00402*
X0026*
X00254Y00396*
X0025Y00393*
X00245Y00392*
X00216*
X00211Y00393*
X00206Y00396*
X00201Y00401*
X00197Y004*
X00196Y00399*
X00192Y00392*
X00185Y00387*
X00181Y00387*
Y00408*
X00176*
Y00413*
X00155*
X00155Y00416*
X0016Y00423*
X00168Y00428*
X00168Y00428*
Y00457*
X00196*
X00199*
X00201*
X00203Y00461*
X00204Y00462*
X00203Y00463*
X00202Y00471*
X00203Y00478*
X00208Y00485*
X00214Y00489*
X00219Y0049*
Y00531*
G37*
G36*
X00706Y00403D02*
X00722D01*
Y00387*
X00719Y00387*
X00711Y00392*
X00707Y00399*
X00706Y00403*
G37*
G36*
X0021Y0035D02*
Y00334D01*
X00194*
X00195Y00338*
X002Y00345*
X00207Y0035*
X0021Y0035*
G37*
G36*
X0022D02*
X00224Y0035D01*
X00231Y00345*
X00236Y00338*
X00237Y00334*
X0022*
Y0035*
G37*
G36*
X00289D02*
Y00334D01*
X00273*
X00274Y00338*
X00278Y00345*
X00286Y0035*
X00289Y0035*
G37*
G36*
X00299D02*
X00303Y0035D01*
X0031Y00345*
X00315Y00338*
X00315Y00334*
X00299*
Y0035*
G37*
G36*
X00368D02*
Y00334D01*
X00352*
X00352Y00338*
X00357Y00345*
X00364Y0035*
X00368Y0035*
G37*
G36*
X00378D02*
X00381Y0035D01*
X00389Y00345*
X00393Y00338*
X00394Y00334*
X00378*
Y0035*
G37*
G36*
X00457Y00323D02*
X00472D01*
Y0031*
X00457*
Y00323*
G37*
G36*
X00482D02*
X00497D01*
Y0031*
X00482*
Y00323*
G37*
G36*
X00572Y00326D02*
Y0031D01*
X00556*
X00556Y00313*
X00561Y0032*
X00568Y00325*
X00572Y00326*
G37*
G36*
X00582D02*
X00585Y00325D01*
X00593Y0032*
X00597Y00313*
X00598Y0031*
X00582*
Y00326*
G37*
G36*
X00194Y00324D02*
X0021D01*
Y00308*
X00207Y00308*
X002Y00313*
X00195Y00321*
X00194Y00324*
G37*
G36*
X0022D02*
X00237D01*
X00236Y00321*
X00231Y00313*
X00224Y00308*
X0022Y00308*
Y00324*
G37*
G36*
X00273D02*
X00289D01*
Y00308*
X00286Y00308*
X00278Y00313*
X00274Y00321*
X00273Y00324*
G37*
G36*
X00299D02*
X00315D01*
X00315Y00321*
X0031Y00313*
X00303Y00308*
X00299Y00308*
Y00324*
G37*
G36*
X00352D02*
X00368D01*
Y00308*
X00364Y00308*
X00357Y00313*
X00352Y00321*
X00352Y00324*
G37*
G36*
X00378D02*
X00394D01*
X00393Y00321*
X00389Y00313*
X00381Y00308*
X00378Y00308*
Y00324*
G37*
G36*
X00622Y0032D02*
X00637D01*
Y00307*
X00622*
Y0032*
G37*
G36*
X00647D02*
X00662D01*
Y00307*
X00647*
Y0032*
G37*
G36*
X00556Y003D02*
X00572D01*
Y00283*
X00568Y00284*
X00561Y00289*
X00556Y00296*
X00556Y003*
G37*
G36*
X00582D02*
X00598D01*
X00597Y00296*
X00593Y00289*
X00585Y00284*
X00582Y00283*
Y003*
G37*
G36*
X00171Y00272D02*
Y00255D01*
X00155*
X00155Y00259*
X0016Y00266*
X00168Y00271*
X00171Y00272*
G37*
G36*
X00181D02*
X00185Y00271D01*
X00192Y00266*
X00197Y00259*
X00197Y00255*
X00181*
Y00272*
G37*
G36*
X0025D02*
Y00255D01*
X00234*
X00234Y00259*
X00239Y00266*
X00246Y00271*
X0025Y00272*
G37*
G36*
X0026D02*
X00263Y00271D01*
X00271Y00266*
X00275Y00259*
X00276Y00255*
X0026*
Y00272*
G37*
G36*
X00329D02*
Y00255D01*
X00312*
X00313Y00259*
X00318Y00266*
X00325Y00271*
X00329Y00272*
G37*
G36*
X00339D02*
X00342Y00271D01*
X00349Y00266*
X00354Y00259*
X00355Y00255*
X00339*
Y00272*
G37*
G36*
X00547Y0039D02*
X00555Y00388D01*
X00561Y00384*
X00565Y00377*
X00567Y0037*
X00565Y00362*
X00561Y00355*
X0056Y00355*
Y0035*
X00559Y00344*
X00556Y0034*
X0055Y00334*
Y00319*
Y00314*
Y00285*
X00537*
X00511Y0026*
X00506Y00256*
X00501Y00255*
X00495Y00251*
X00487Y00249*
X00479Y00251*
X00475Y00254*
X00459*
Y00283*
X00457Y00287*
Y003*
X00477*
X00497*
Y00297*
X00501Y00295*
X00514Y00308*
Y00317*
Y00322*
Y0035*
X00529*
X00533Y00354*
X00533Y00355*
X00528Y00362*
X00527Y0037*
X00528Y00377*
X00533Y00384*
X00539Y00388*
X00547Y0039*
G37*
G36*
X00155Y00245D02*
X00171D01*
Y00229*
X00168Y0023*
X0016Y00235*
X00155Y00242*
X00155Y00245*
G37*
G36*
X00181D02*
X00197D01*
X00197Y00242*
X00192Y00235*
X00185Y0023*
X00181Y00229*
Y00245*
G37*
G36*
X00797Y0024D02*
X00812D01*
Y00227*
X00797*
Y0024*
G37*
G36*
X00822D02*
X00837D01*
Y00227*
X00822*
Y0024*
G37*
G36*
X00412Y00227D02*
D01*
X0055*
X00554Y00226*
X00558Y00223*
X00574Y00207*
X00612*
Y00152*
X00557*
Y00155*
X00552Y00158*
X00549Y00155*
X00544Y00153*
Y00145*
X00543Y0014*
X0054Y00136*
X0053Y00126*
Y0009*
Y00057*
X00501*
Y00055*
X00491*
Y00057*
X0049*
Y00077*
X00486*
Y00082*
X00472*
Y00098*
X00474*
Y00109*
X00474Y0011*
Y00116*
X00472Y00117*
X00432*
X00427Y00118*
X00423Y00121*
X00388Y00156*
Y00156*
X00386Y0016*
X00385Y00165*
Y002*
X00386Y00204*
X00388Y00208*
X00403Y00223*
X00407Y00226*
X00412Y00227*
G37*
G36*
X00312Y00245D02*
X00355D01*
X00354Y00242*
X00351Y00238*
X00352Y00236*
X00354Y00233*
X00362Y00231*
X00369Y00227*
X00374Y00219*
X00374Y00216*
X00332*
X00333Y00219*
X00335Y00223*
X00335Y00225*
X00333Y00228*
X00325Y0023*
X00318Y00235*
X00313Y00242*
X00312Y00245*
G37*
G36*
X00332Y00206D02*
X00348D01*
Y0019*
X00345Y0019*
X00337Y00195*
X00333Y00202*
X00332Y00206*
G37*
G36*
X00358D02*
X00374D01*
X00374Y00202*
X00369Y00195*
X00362Y0019*
X00358Y0019*
Y00206*
G37*
G36*
X00407Y00114D02*
Y00098D01*
X00391*
X00392Y00101*
X00397Y00109*
X00404Y00113*
X00407Y00114*
G37*
G36*
X00417D02*
X00421Y00113D01*
X00428Y00109*
X00433Y00101*
X00434Y00098*
X00417*
Y00114*
G37*
G36*
X00565D02*
Y00098D01*
X00548*
X00549Y00101*
X00554Y00109*
X00561Y00113*
X00565Y00114*
G37*
G36*
X00575D02*
X00578Y00113D01*
X00585Y00109*
X0059Y00101*
X00591Y00098*
X00575*
Y00114*
G37*
G36*
X00643D02*
Y00098D01*
X00627*
X00628Y00101*
X00633Y00109*
X0064Y00113*
X00643Y00114*
G37*
G36*
X00653D02*
X00657Y00113D01*
X00664Y00109*
X00669Y00101*
X0067Y00098*
X00653*
Y00114*
G37*
G36*
X00391Y00088D02*
X00407D01*
Y00072*
X00404Y00072*
X00397Y00077*
X00392Y00084*
X00391Y00088*
G37*
G36*
X00417D02*
X00434D01*
X00433Y00084*
X00428Y00077*
X00421Y00072*
X00417Y00072*
Y00088*
G37*
G36*
X00548D02*
X00565D01*
Y00072*
X00561Y00072*
X00554Y00077*
X00549Y00084*
X00548Y00088*
G37*
G36*
X00575D02*
X00591D01*
X0059Y00084*
X00585Y00077*
X00578Y00072*
X00575Y00072*
Y00088*
G37*
G36*
X00627D02*
X00643D01*
Y00072*
X0064Y00072*
X00633Y00077*
X00628Y00084*
X00627Y00088*
G37*
G36*
X00653D02*
X0067D01*
X00669Y00084*
X00664Y00077*
X00657Y00072*
X00653Y00072*
Y00088*
G37*
G36*
X00472Y00072D02*
X00481D01*
Y00055*
X00472*
Y00072*
G37*
%LNusb2uart-3*%
%LPD*%
G54D12*
X00767Y00435D02*
Y00448D01*
X00785Y00466D02*
X00767Y00448D01*
X00793Y00466D02*
X00785D01*
X00799Y00472D02*
X00793Y00466D01*
X00799Y00472D02*
Y00495D01*
X00846Y00431D02*
X00842Y00435D01*
X00846Y00396D02*
Y00431D01*
X00877Y00365D02*
X00846Y00396D01*
X00877Y00315D02*
Y00365D01*
X00837Y00315D02*
X00834Y00312D01*
Y00295D02*
Y00312D01*
X00819Y0028D02*
X00817D01*
X00834Y00295D02*
X00819Y0028D01*
X00697Y0025D02*
X00695D01*
X00677Y00231*
Y0023D02*
Y00231D01*
X00577Y00505D02*
D01*
X0055*
X0055*
X00629Y0048D02*
X00628Y00481D01*
Y00504D02*
X00627Y00505D01*
X00628Y00481D02*
Y00504D01*
X00534Y00335D02*
X00532D01*
X00537Y00337D02*
X00534Y00335D01*
X00537Y00337D02*
Y00339D01*
X00547Y0035D02*
X00537Y00339D01*
X00547Y0035D02*
Y0037D01*
X00773Y00279D02*
X00772Y00278D01*
X00816Y00279D02*
X00773D01*
X00817Y0028D02*
X00816Y00279D01*
X00805Y00331D02*
Y00345D01*
Y00331D02*
X008Y00326D01*
X00765*
X00722Y00283*
X00697*
X00757Y00247D02*
X00722Y00283D01*
X00769Y00247D02*
X00757D01*
X00772Y00245D02*
X00769Y00247D01*
X00697Y00283D02*
X0066D01*
X00644Y00267*
X00642*
X00662Y00503D02*
X0066Y00505D01*
X00662Y00485D02*
Y00503D01*
X00627Y00505D02*
Y0054D01*
X00259Y0042D02*
Y00445D01*
Y00418D02*
Y0042D01*
Y00418D02*
X00256Y00415D01*
X00216Y00405D02*
X00204Y00417D01*
X00245Y00405D02*
X00216D01*
X00256Y00415D02*
X00254D01*
X00186Y00437D02*
X00183Y0044D01*
X00204Y00417D02*
X00204D01*
X00186Y00435D02*
Y00437D01*
X00204Y00417D02*
X00196Y00424D01*
Y00425*
X00254Y00415D02*
X00245Y00405D01*
X00196Y00425D02*
X00186Y00435D01*
X00372Y00835D02*
Y0087D01*
X00689Y0082D02*
X00643D01*
Y00799D02*
Y00818D01*
X00657Y00785D02*
X00643Y00799D01*
X00609Y00818D02*
Y0082D01*
Y00818D02*
X00587Y00795D01*
Y00795D02*
Y00795D01*
X00472Y00867D02*
X00453Y00886D01*
X00472Y0082D02*
Y00867D01*
X00511Y00824D02*
X00495Y00841D01*
Y00916*
X00582Y00885D02*
Y0098D01*
Y0083D02*
Y00885D01*
X0058Y00886D02*
X00533D01*
X00582Y00885D02*
X0058Y00886D01*
X00402Y00955D02*
Y0098D01*
Y0083D02*
Y00955D01*
X00451Y00953D02*
X00403D01*
X00402Y00955*
X00417Y00995D02*
X00402Y0098D01*
X00412Y0082D02*
X00402Y0083D01*
X00436Y0082D02*
D01*
X00412*
X00567Y00995D02*
X00417D01*
X00582Y0098D02*
X00567Y00995D01*
X00582Y0083D02*
X00572Y0082D01*
X0055*
X00475Y00796D02*
Y00816D01*
X00472Y0082*
X00453Y00886D02*
X00451D01*
X00533Y00953D02*
X00531D01*
X00495Y00916*
X00514Y0082D02*
X00513Y00818D01*
Y00796D02*
X00512Y00795D01*
X00513Y00796D02*
Y00818D01*
X00514Y0082D02*
X00511Y00822D01*
Y00824*
G54D13*
X00287Y0088D02*
X00267D01*
Y00762D02*
Y0088D01*
X00273Y00645D02*
Y00756D01*
X00267Y00762*
X00432Y0013D02*
X00397Y00165D01*
X00486Y00121D02*
X00477Y0013D01*
X00432*
X00486Y0011D02*
X00486Y0011D01*
Y00121*
X00502Y0011D02*
Y00155D01*
X00287Y0093D02*
X00267D01*
X00274Y0059D02*
X00273Y0059D01*
Y00644*
X00273Y00645*
X00227Y00465D02*
X00219Y00456D01*
Y00441D02*
Y00456D01*
Y00441D02*
X00217Y0044D01*
X00662Y00925D02*
X00642D01*
X00662Y00875D02*
X00642D01*
X00585Y0018D02*
X0055Y00215D01*
X00412*
X00397Y002*
Y00165D02*
Y002D01*
X00502Y00155D02*
X00486Y00171D01*
Y0018*
X00535D02*
X00532Y00176D01*
Y00145D02*
Y00176D01*
Y00145D02*
X00518Y0013D01*
Y0011D02*
Y0013D01*
G54D20*
X00805Y00345D03*
X00767Y00435D03*
X00842D03*
X00237Y005D03*
X002Y0059D03*
X00274D03*
G54D40*
X00455Y00627D02*
X00327Y00754D01*
X00455Y00505D02*
Y00627D01*
X00462Y00505D02*
X00455D01*
X00327Y0089D02*
X00287Y0093D01*
X00327Y00754D02*
Y0089D01*
X00479Y00488D02*
X00462Y00505D01*
X00532Y00301D02*
X0053D01*
X005Y00271*
X00488*
X00487Y0027*
G54D42*
X00782Y00115D03*
G54D43*
X00585Y0018D03*
G54D44*
X00535Y0018D03*
X00486D03*
X00437D03*
G54D45*
X00237Y012D03*
X00783D03*
X00237Y0012D03*
G54D46*
X00412Y00565D03*
X00582Y00885D03*
X00382Y0127D03*
X00412Y01205D03*
X00462Y0127D03*
X00537D03*
X00602D03*
X00176Y0088D03*
Y00408D03*
Y0025D03*
X00215Y00959D03*
Y00329D03*
X00255Y0025D03*
X00334Y00565D03*
X00294Y00329D03*
X00334Y0025D03*
X00373Y00644D03*
Y00329D03*
X00412Y00093D03*
X00491Y00565D03*
X0057Y00093D03*
X00648Y01195D03*
X00609Y00644D03*
X00648Y00093D03*
X00688Y01116D03*
X00727Y01038D03*
Y00723D03*
Y00565D03*
Y00408D03*
X00767Y00959D03*
X00806Y0088D03*
X00577Y00305D03*
X00294Y01038D03*
X00353Y01156D03*
Y00211D03*
X00287Y0088D03*
X00802Y00465D03*
X00877Y00315D03*
X00837D03*
X00677Y0023D03*
X00577Y00505D03*
X00629Y0048D03*
X00547Y0037D03*
X00632Y00255D03*
X00662Y00485D03*
X00487Y0027D03*
X00479Y00488D03*
X00287Y0093D03*
X00222Y00471D03*
X00259Y00445D03*
X00372Y00835D03*
X00662Y00925D03*
Y00875D03*
X00657Y00785D03*
X00587Y00795D03*
X00475Y00796D03*
X00512Y00795D03*
G54D47*
X00241Y0093D03*
X00267D03*
X00267Y0088D03*
X00242D03*
X00642Y00925D03*
X00616D03*
X00642Y00875D03*
X00617D03*
G54D48*
X00799Y00495D03*
X00835D03*
X00273Y00645D03*
X00239D03*
X00183Y0044D03*
X00217D03*
X00259Y0042D03*
X00295D03*
X00643Y0082D03*
X00609D03*
X00725D03*
X00689D03*
X00436D03*
X00472D03*
X0055D03*
X00514D03*
X00516Y00505D03*
X0055D03*
X00455D03*
X00419D03*
X00627D03*
X0066D03*
X00591Y0054D03*
X00627D03*
G54D49*
X00817Y0028D03*
Y00245D03*
X00772D03*
Y00278D03*
X00372Y0087D03*
Y00903D03*
X00532Y00301D03*
Y00335D03*
X00697Y00283D03*
Y0025D03*
X00477Y00305D03*
X00477Y0027D03*
X00642Y00302D03*
Y00267D03*
G54D50*
X00451Y00953D03*
X00533D03*
Y00886D03*
X00451D03*
G54D51*
X00486Y0011D03*
X00502D03*
X00518D03*
Y00077D03*
X00502D03*
X00486D03*
M02*