%FSTAX23Y23*%
%MOIN*%
%SFA1B1*%

%IPPOS*%
%ADD20R,0.019680X0.047240*%
%ADD42C,0.196850*%
%ADD43R,0.039370X0.039370*%
%ADD44C,0.039370*%
%ADD45C,0.200000*%
%ADD47R,0.011810X0.023620*%
%ADD48R,0.015750X0.019680*%
%ADD49R,0.019680X0.015750*%
%ADD50R,0.051180X0.047240*%
%ADD51R,0.008820X0.023030*%
%LNusb2uart-1*%
%LPD*%
G54D20*
X00805Y00345D03*
X00767Y00435D03*
X00842D03*
X00237Y005D03*
X002Y0059D03*
X00274D03*
G54D42*
X00782Y00115D03*
G54D43*
X00585Y0018D03*
G54D44*
X00535Y0018D03*
X00486D03*
X00437D03*
G54D45*
X00237Y012D03*
X00783D03*
X00237Y0012D03*
G54D47*
X00241Y0093D03*
X00267D03*
X00267Y0088D03*
X00242D03*
X00642Y00925D03*
X00616D03*
X00642Y00875D03*
X00617D03*
G54D48*
X00799Y00495D03*
X00835D03*
X00273Y00645D03*
X00239D03*
X00183Y0044D03*
X00217D03*
X00259Y0042D03*
X00295D03*
X00643Y0082D03*
X00609D03*
X00725D03*
X00689D03*
X00436D03*
X00472D03*
X0055D03*
X00514D03*
X00516Y00505D03*
X0055D03*
X00455D03*
X00419D03*
X00627D03*
X0066D03*
X00591Y0054D03*
X00627D03*
G54D49*
X00817Y0028D03*
Y00245D03*
X00772D03*
Y00278D03*
X00372Y0087D03*
Y00903D03*
X00532Y00301D03*
Y00335D03*
X00697Y00283D03*
Y0025D03*
X00477Y00305D03*
X00477Y0027D03*
X00642Y00302D03*
Y00267D03*
G54D50*
X00451Y00953D03*
X00533D03*
Y00886D03*
X00451D03*
G54D51*
X00486Y0011D03*
X00502D03*
X00518D03*
Y00077D03*
X00502D03*
X00486D03*
M02*