G04 Layer: BottomSolderMaskLayer*
G04 EasyEDA v6.4.20.6, 2021-08-10T23:17:12+08:00*
G04 038dca5a8d274e5a88e6f2799ec95489,d221c9f3c2774e99b69775551637dae4,10*
G04 Gerber Generator version 0.2*
G04 Scale: 100 percent, Rotated: No, Reflected: No *
G04 Dimensions in millimeters *
G04 leading zeros omitted , absolute positions ,4 integer and 5 decimal *
%FSLAX45Y45*%
%MOMM*%

%ADD57C,1.2032*%
%ADD60C,5.2032*%

%LPD*%
G36*
X147065Y1179321D02*
G01*
X147065Y1212087D01*
X215900Y1212087D01*
X215900Y1179321D01*
G37*
G36*
X147065Y1139444D02*
G01*
X147065Y1171955D01*
X215900Y1171955D01*
X215900Y1139444D01*
G37*
G36*
X147065Y1099312D02*
G01*
X147065Y1132078D01*
X215900Y1132078D01*
X215900Y1099312D01*
G37*
G36*
X63500Y1099312D02*
G01*
X63500Y1132078D01*
X132334Y1132078D01*
X132334Y1099312D01*
G37*
G36*
X63500Y1139444D02*
G01*
X63500Y1171955D01*
X132334Y1171955D01*
X132334Y1139444D01*
G37*
G36*
X63500Y1179321D02*
G01*
X63500Y1212087D01*
X132334Y1212087D01*
X132334Y1179321D01*
G37*
G36*
X2241295Y1421892D02*
G01*
X2241295Y1488694D01*
X2305304Y1488694D01*
X2305304Y1421892D01*
G37*
G36*
X2241295Y1508505D02*
G01*
X2241295Y1575307D01*
X2305304Y1575307D01*
X2305304Y1508505D01*
G37*
G36*
X2241295Y278892D02*
G01*
X2241295Y345694D01*
X2305304Y345694D01*
X2305304Y278892D01*
G37*
G36*
X2241295Y365505D02*
G01*
X2241295Y432307D01*
X2305304Y432307D01*
X2305304Y365505D01*
G37*
G36*
X2723895Y1904492D02*
G01*
X2723895Y1971294D01*
X2787904Y1971294D01*
X2787904Y1904492D01*
G37*
G36*
X2723895Y1991105D02*
G01*
X2723895Y2057907D01*
X2787904Y2057907D01*
X2787904Y1991105D01*
G37*
G36*
X641095Y1038605D02*
G01*
X641095Y1105407D01*
X705104Y1105407D01*
X705104Y1038605D01*
G37*
G36*
X641095Y951992D02*
G01*
X641095Y1018794D01*
X705104Y1018794D01*
X705104Y951992D01*
G37*
G36*
X2774695Y1625092D02*
G01*
X2774695Y1691894D01*
X2838704Y1691894D01*
X2838704Y1625092D01*
G37*
G36*
X2774695Y1711705D02*
G01*
X2774695Y1778507D01*
X2838704Y1778507D01*
X2838704Y1711705D01*
G37*
G36*
X2114295Y1508505D02*
G01*
X2114295Y1575307D01*
X2178304Y1575307D01*
X2178304Y1508505D01*
G37*
G36*
X2114295Y1421892D02*
G01*
X2114295Y1488694D01*
X2178304Y1488694D01*
X2178304Y1421892D01*
G37*
G36*
X215392Y2126995D02*
G01*
X215392Y2191004D01*
X282194Y2191004D01*
X282194Y2126995D01*
G37*
G36*
X302005Y2126995D02*
G01*
X302005Y2191004D01*
X368807Y2191004D01*
X368807Y2126995D01*
G37*
G36*
X3193795Y403605D02*
G01*
X3193795Y470407D01*
X3257804Y470407D01*
X3257804Y403605D01*
G37*
G36*
X3193795Y316992D02*
G01*
X3193795Y383794D01*
X3257804Y383794D01*
X3257804Y316992D01*
G37*
G36*
X3193795Y1216405D02*
G01*
X3193795Y1283207D01*
X3257804Y1283207D01*
X3257804Y1216405D01*
G37*
G36*
X3193795Y1129792D02*
G01*
X3193795Y1196594D01*
X3257804Y1196594D01*
X3257804Y1129792D01*
G37*
G36*
X856995Y2031492D02*
G01*
X856995Y2098294D01*
X921004Y2098294D01*
X921004Y2031492D01*
G37*
G36*
X856995Y2118105D02*
G01*
X856995Y2184907D01*
X921004Y2184907D01*
X921004Y2118105D01*
G37*
G36*
X2761995Y644905D02*
G01*
X2761995Y711707D01*
X2826004Y711707D01*
X2826004Y644905D01*
G37*
G36*
X2761995Y558292D02*
G01*
X2761995Y625094D01*
X2826004Y625094D01*
X2826004Y558292D01*
G37*
G36*
X2114295Y365505D02*
G01*
X2114295Y432307D01*
X2178304Y432307D01*
X2178304Y365505D01*
G37*
G36*
X2114295Y278892D02*
G01*
X2114295Y345694D01*
X2178304Y345694D01*
X2178304Y278892D01*
G37*
G36*
X933195Y1737105D02*
G01*
X933195Y1803907D01*
X997204Y1803907D01*
X997204Y1737105D01*
G37*
G36*
X933195Y1650492D02*
G01*
X933195Y1717294D01*
X997204Y1717294D01*
X997204Y1650492D01*
G37*
G36*
X806195Y723392D02*
G01*
X806195Y790194D01*
X870204Y790194D01*
X870204Y723392D01*
G37*
G36*
X806195Y810005D02*
G01*
X806195Y876807D01*
X870204Y876807D01*
X870204Y810005D01*
G37*
G36*
X1072895Y1650492D02*
G01*
X1072895Y1717294D01*
X1136904Y1717294D01*
X1136904Y1650492D01*
G37*
G36*
X1072895Y1737105D02*
G01*
X1072895Y1803907D01*
X1136904Y1803907D01*
X1136904Y1737105D01*
G37*
G36*
X1396491Y971295D02*
G01*
X1396491Y1035304D01*
X1463293Y1035304D01*
X1463293Y971295D01*
G37*
G36*
X1483106Y971295D02*
G01*
X1483106Y1035304D01*
X1549908Y1035304D01*
X1549908Y971295D01*
G37*
G36*
X1263395Y1737105D02*
G01*
X1263395Y1803907D01*
X1327404Y1803907D01*
X1327404Y1737105D01*
G37*
G36*
X1263395Y1650492D02*
G01*
X1263395Y1717294D01*
X1327404Y1717294D01*
X1327404Y1650492D01*
G37*
G36*
X1352295Y1320292D02*
G01*
X1352295Y1387094D01*
X1416304Y1387094D01*
X1416304Y1320292D01*
G37*
G36*
X1352295Y1406905D02*
G01*
X1352295Y1473707D01*
X1416304Y1473707D01*
X1416304Y1406905D01*
G37*
G36*
X414528Y774954D02*
G01*
X414528Y901445D01*
X499871Y901445D01*
X499871Y774954D01*
G37*
G36*
X509523Y774954D02*
G01*
X509523Y901445D01*
X594868Y901445D01*
X594868Y774954D01*
G37*
G36*
X604520Y774954D02*
G01*
X604520Y901445D01*
X689863Y901445D01*
X689863Y774954D01*
G37*
G36*
X604520Y554989D02*
G01*
X604520Y681481D01*
X689863Y681481D01*
X689863Y554989D01*
G37*
G36*
X414528Y554989D02*
G01*
X414528Y681481D01*
X499871Y681481D01*
X499871Y554989D01*
G37*
G36*
X818134Y1264665D02*
G01*
X818134Y1394713D01*
X968502Y1394713D01*
X968502Y1264665D01*
G37*
G36*
X1038097Y1264665D02*
G01*
X1038097Y1394713D01*
X1188465Y1394713D01*
X1188465Y1264665D01*
G37*
G36*
X1038097Y1094486D02*
G01*
X1038097Y1224534D01*
X1188465Y1224534D01*
X1188465Y1094486D01*
G37*
G36*
X818134Y1094486D02*
G01*
X818134Y1224534D01*
X968502Y1224534D01*
X968502Y1094486D01*
G37*
G36*
X654050Y1932686D02*
G01*
X654050Y2046731D01*
X717550Y2046731D01*
X717550Y1932686D01*
G37*
G36*
X749045Y1712468D02*
G01*
X749045Y1826513D01*
X812545Y1826513D01*
X812545Y1712468D01*
G37*
G36*
X559054Y1712468D02*
G01*
X559054Y1826513D01*
X622554Y1826513D01*
X622554Y1712468D01*
G37*
G36*
X837945Y259842D02*
G01*
X837945Y376936D01*
X901445Y376936D01*
X901445Y259842D01*
G37*
G36*
X647954Y259842D02*
G01*
X647954Y376936D01*
X711454Y376936D01*
X711454Y259842D01*
G37*
G36*
X742950Y486663D02*
G01*
X742950Y604012D01*
X806450Y604012D01*
X806450Y486663D01*
G37*
G36*
X1223799Y1998685D02*
G01*
X1223799Y2028687D01*
X1163800Y2028687D01*
X1163800Y1998685D01*
G37*
G36*
X1223799Y1933686D02*
G01*
X1223799Y1963689D01*
X1163800Y1963689D01*
X1163800Y1933686D01*
G37*
G36*
X1265400Y287314D02*
G01*
X1265400Y257312D01*
X1325399Y257312D01*
X1325399Y287314D01*
G37*
G36*
X1265400Y352313D02*
G01*
X1265400Y322310D01*
X1325399Y322310D01*
X1325399Y352313D01*
G37*
G36*
X1138400Y287314D02*
G01*
X1138400Y257312D01*
X1198399Y257312D01*
X1198399Y287314D01*
G37*
G36*
X1138400Y352313D02*
G01*
X1138400Y322310D01*
X1198399Y322310D01*
X1198399Y352313D01*
G37*
G36*
X1350799Y1998685D02*
G01*
X1350799Y2028687D01*
X1290800Y2028687D01*
X1290800Y1998685D01*
G37*
G36*
X1350799Y1933686D02*
G01*
X1350799Y1963689D01*
X1290800Y1963689D01*
X1290800Y1933686D01*
G37*
G36*
X3484585Y1113000D02*
G01*
X3514587Y1113000D01*
X3514587Y1172999D01*
X3484585Y1172999D01*
G37*
G36*
X3419586Y1113000D02*
G01*
X3449589Y1113000D01*
X3449589Y1172999D01*
X3419586Y1172999D01*
G37*
G36*
X3484585Y300200D02*
G01*
X3514587Y300200D01*
X3514587Y360199D01*
X3484585Y360199D01*
G37*
G36*
X3419586Y300200D02*
G01*
X3449589Y300200D01*
X3449589Y360199D01*
X3419586Y360199D01*
G37*
G36*
X3484585Y1240000D02*
G01*
X3514587Y1240000D01*
X3514587Y1299999D01*
X3484585Y1299999D01*
G37*
G36*
X3419586Y1240000D02*
G01*
X3449589Y1240000D01*
X3449589Y1299999D01*
X3419586Y1299999D01*
G37*
G36*
X3484585Y427200D02*
G01*
X3514587Y427200D01*
X3514587Y487199D01*
X3484585Y487199D01*
G37*
G36*
X3419586Y427200D02*
G01*
X3449589Y427200D01*
X3449589Y487199D01*
X3419586Y487199D01*
G37*
G36*
X1386840Y1098295D02*
G01*
X1386840Y1162304D01*
X1475993Y1162304D01*
X1475993Y1098295D01*
G37*
G36*
X1495806Y1098295D02*
G01*
X1495806Y1162304D01*
X1584959Y1162304D01*
X1584959Y1098295D01*
G37*
G36*
X898905Y971295D02*
G01*
X898905Y1035304D01*
X988060Y1035304D01*
X988060Y971295D01*
G37*
G36*
X789939Y971295D02*
G01*
X789939Y1035304D01*
X879094Y1035304D01*
X879094Y971295D01*
G37*
G36*
X1479295Y1419605D02*
G01*
X1479295Y1508760D01*
X1543304Y1508760D01*
X1543304Y1419605D01*
G37*
G36*
X1479295Y1310639D02*
G01*
X1479295Y1399794D01*
X1543304Y1399794D01*
X1543304Y1310639D01*
G37*
G36*
X437895Y955039D02*
G01*
X437895Y1044194D01*
X501904Y1044194D01*
X501904Y955039D01*
G37*
G36*
X437895Y1064005D02*
G01*
X437895Y1153160D01*
X501904Y1153160D01*
X501904Y1064005D01*
G37*
G36*
X1152905Y971295D02*
G01*
X1152905Y1035304D01*
X1242060Y1035304D01*
X1242060Y971295D01*
G37*
G36*
X1043939Y971295D02*
G01*
X1043939Y1035304D01*
X1133094Y1035304D01*
X1133094Y971295D01*
G37*
G36*
X2609595Y548639D02*
G01*
X2609595Y637794D01*
X2673604Y637794D01*
X2673604Y548639D01*
G37*
G36*
X2609595Y657605D02*
G01*
X2609595Y746760D01*
X2673604Y746760D01*
X2673604Y657605D01*
G37*
G36*
X2364740Y107695D02*
G01*
X2364740Y171704D01*
X2453893Y171704D01*
X2453893Y107695D01*
G37*
G36*
X2473706Y107695D02*
G01*
X2473706Y171704D01*
X2562859Y171704D01*
X2562859Y107695D01*
G37*
G36*
X1758695Y314705D02*
G01*
X1758695Y403860D01*
X1822704Y403860D01*
X1822704Y314705D01*
G37*
G36*
X1758695Y205739D02*
G01*
X1758695Y294894D01*
X1822704Y294894D01*
X1822704Y205739D01*
G37*
G36*
X1965706Y945895D02*
G01*
X1965706Y1009904D01*
X2054859Y1009904D01*
X2054859Y945895D01*
G37*
G36*
X1856740Y945895D02*
G01*
X1856740Y1009904D01*
X1945893Y1009904D01*
X1945893Y945895D01*
G37*
G36*
X2927095Y670305D02*
G01*
X2927095Y759460D01*
X2991104Y759460D01*
X2991104Y670305D01*
G37*
G36*
X2927095Y561339D02*
G01*
X2927095Y650494D01*
X2991104Y650494D01*
X2991104Y561339D01*
G37*
G36*
X637539Y145795D02*
G01*
X637539Y209804D01*
X726694Y209804D01*
X726694Y145795D01*
G37*
G36*
X746505Y145795D02*
G01*
X746505Y209804D01*
X835660Y209804D01*
X835660Y145795D01*
G37*
G36*
X526795Y2130805D02*
G01*
X526795Y2219960D01*
X590804Y2219960D01*
X590804Y2130805D01*
G37*
G36*
X526795Y2021839D02*
G01*
X526795Y2110994D01*
X590804Y2110994D01*
X590804Y2021839D01*
G37*
G36*
X2596895Y1717039D02*
G01*
X2596895Y1806194D01*
X2660904Y1806194D01*
X2660904Y1717039D01*
G37*
G36*
X2596895Y1826005D02*
G01*
X2596895Y1915160D01*
X2660904Y1915160D01*
X2660904Y1826005D01*
G37*
G36*
X2860040Y1136395D02*
G01*
X2860040Y1200404D01*
X2949193Y1200404D01*
X2949193Y1136395D01*
G37*
G36*
X2969006Y1136395D02*
G01*
X2969006Y1200404D01*
X3058159Y1200404D01*
X3058159Y1136395D01*
G37*
G36*
X2847340Y323595D02*
G01*
X2847340Y387604D01*
X2936493Y387604D01*
X2936493Y323595D01*
G37*
G36*
X2956306Y323595D02*
G01*
X2956306Y387604D01*
X3045459Y387604D01*
X3045459Y323595D01*
G37*
G36*
X2364740Y1250695D02*
G01*
X2364740Y1314704D01*
X2453893Y1314704D01*
X2453893Y1250695D01*
G37*
G36*
X2473706Y1250695D02*
G01*
X2473706Y1314704D01*
X2562859Y1314704D01*
X2562859Y1250695D01*
G37*
G36*
X1758695Y1470405D02*
G01*
X1758695Y1559560D01*
X1822704Y1559560D01*
X1822704Y1470405D01*
G37*
G36*
X1758695Y1361439D02*
G01*
X1758695Y1450594D01*
X1822704Y1450594D01*
X1822704Y1361439D01*
G37*
G36*
X1965706Y2101595D02*
G01*
X1965706Y2165604D01*
X2054859Y2165604D01*
X2054859Y2101595D01*
G37*
G36*
X1856740Y2101595D02*
G01*
X1856740Y2165604D01*
X1945893Y2165604D01*
X1945893Y2101595D01*
G37*
G36*
X2901695Y1711705D02*
G01*
X2901695Y1800860D01*
X2965704Y1800860D01*
X2965704Y1711705D01*
G37*
G36*
X2901695Y1602739D02*
G01*
X2901695Y1691894D01*
X2965704Y1691894D01*
X2965704Y1602739D01*
G37*
G36*
X539495Y955039D02*
G01*
X539495Y1044194D01*
X603504Y1044194D01*
X603504Y955039D01*
G37*
G36*
X539495Y1064005D02*
G01*
X539495Y1153160D01*
X603504Y1153160D01*
X603504Y1064005D01*
G37*
G36*
X2850895Y1978405D02*
G01*
X2850895Y2067560D01*
X2914904Y2067560D01*
X2914904Y1978405D01*
G37*
G36*
X2850895Y1869439D02*
G01*
X2850895Y1958594D01*
X2914904Y1958594D01*
X2914904Y1869439D01*
G37*
G36*
X205739Y1999995D02*
G01*
X205739Y2064004D01*
X294894Y2064004D01*
X294894Y1999995D01*
G37*
G36*
X314705Y1999995D02*
G01*
X314705Y2064004D01*
X403860Y2064004D01*
X403860Y1999995D01*
G37*
G36*
X167639Y1580895D02*
G01*
X167639Y1644904D01*
X256794Y1644904D01*
X256794Y1580895D01*
G37*
G36*
X276605Y1580895D02*
G01*
X276605Y1644904D01*
X365760Y1644904D01*
X365760Y1580895D01*
G37*
G36*
X606805Y1606295D02*
G01*
X606805Y1670304D01*
X673607Y1670304D01*
X673607Y1606295D01*
G37*
G36*
X520192Y1606295D02*
G01*
X520192Y1670304D01*
X586994Y1670304D01*
X586994Y1606295D01*
G37*
D57*
G01*
X292100Y1342212D03*
G01*
X292100Y1217193D03*
G01*
X292100Y1092200D03*
G36*
X231902Y907034D02*
G01*
X231902Y1027429D01*
X352297Y1027429D01*
X352297Y907034D01*
G37*
D60*
G01*
X292100Y292100D03*
G01*
X3467100Y1981200D03*
M02*
