G04 Layer: TopPasteMaskLayer*
G04 EasyEDA v6.4.20.6, 2021-08-10T23:17:12+08:00*
G04 038dca5a8d274e5a88e6f2799ec95489,d221c9f3c2774e99b69775551637dae4,10*
G04 Gerber Generator version 0.2*
G04 Scale: 100 percent, Rotated: No, Reflected: No *
G04 Dimensions in millimeters *
G04 leading zeros omitted , absolute positions ,4 integer and 5 decimal *
%FSLAX45Y45*%
%MOMM*%

%ADD14C,0.2800*%
%ADD15C,0.3640*%
%ADD16C,0.2700*%
%ADD19R,2.7000X1.0000*%
%ADD21R,0.8000X0.8000*%
%ADD23R,0.6000X1.7000*%
%ADD24R,1.1000X2.7000*%
%ADD25R,0.5500X1.0000*%

%LPD*%
D14*
X836599Y486897D02*
G01*
X836599Y620897D01*
X786587Y486897D02*
G01*
X786587Y620897D01*
X736600Y486897D02*
G01*
X736600Y620897D01*
X686587Y486897D02*
G01*
X686587Y620897D01*
X636600Y486897D02*
G01*
X636600Y620897D01*
X836599Y64902D02*
G01*
X836599Y198902D01*
X786587Y64902D02*
G01*
X786587Y198902D01*
X736600Y64902D02*
G01*
X736600Y198902D01*
X686587Y64902D02*
G01*
X686587Y198902D01*
X636600Y64902D02*
G01*
X636600Y198902D01*
X649300Y1824502D02*
G01*
X649300Y1690502D01*
X699312Y1824502D02*
G01*
X699312Y1690502D01*
X749300Y1824502D02*
G01*
X749300Y1690502D01*
X799312Y1824502D02*
G01*
X799312Y1690502D01*
X849299Y1824502D02*
G01*
X849299Y1690502D01*
X649300Y2246497D02*
G01*
X649300Y2112497D01*
X699312Y2246497D02*
G01*
X699312Y2112497D01*
X749300Y2246497D02*
G01*
X749300Y2112497D01*
X799312Y2246497D02*
G01*
X799312Y2112497D01*
X849299Y2246497D02*
G01*
X849299Y2112497D01*
D15*
X644296Y905456D02*
G01*
X644296Y740308D01*
X709295Y905456D02*
G01*
X709295Y740308D01*
X774293Y905456D02*
G01*
X774293Y740308D01*
X839292Y905456D02*
G01*
X839292Y740308D01*
X904290Y905456D02*
G01*
X904290Y740308D01*
X969289Y905456D02*
G01*
X969289Y740308D01*
X1034313Y905456D02*
G01*
X1034313Y740308D01*
X1099312Y905456D02*
G01*
X1099312Y740308D01*
X1164310Y905456D02*
G01*
X1164310Y740308D01*
X1229309Y905456D02*
G01*
X1229309Y740308D01*
X1294307Y905456D02*
G01*
X1294307Y740308D01*
X1359306Y905456D02*
G01*
X1359306Y740308D01*
X1424304Y905456D02*
G01*
X1424304Y740308D01*
X1489303Y905456D02*
G01*
X1489303Y740308D01*
X644296Y1596489D02*
G01*
X644296Y1431340D01*
X709295Y1596489D02*
G01*
X709295Y1431340D01*
X774293Y1596489D02*
G01*
X774293Y1431340D01*
X839292Y1596489D02*
G01*
X839292Y1431340D01*
X904290Y1596489D02*
G01*
X904290Y1431340D01*
X969289Y1596489D02*
G01*
X969289Y1431340D01*
X1034313Y1596489D02*
G01*
X1034313Y1431340D01*
X1099312Y1596489D02*
G01*
X1099312Y1431340D01*
X1164310Y1596489D02*
G01*
X1164310Y1431340D01*
X1229309Y1596489D02*
G01*
X1229309Y1431340D01*
X1294307Y1596489D02*
G01*
X1294307Y1431340D01*
X1359306Y1596489D02*
G01*
X1359306Y1431340D01*
X1424304Y1596489D02*
G01*
X1424304Y1431340D01*
X1489303Y1596489D02*
G01*
X1489303Y1431340D01*
D16*
X2573294Y296494D02*
G01*
X2696291Y296494D01*
X2573294Y346506D02*
G01*
X2696291Y346506D01*
X2573294Y396494D02*
G01*
X2696291Y396494D01*
X2573294Y446506D02*
G01*
X2696291Y446506D01*
X2573294Y496493D02*
G01*
X2696291Y496493D01*
X2573294Y546506D02*
G01*
X2696291Y546506D01*
X2573294Y596493D02*
G01*
X2696291Y596493D01*
X2573294Y646506D02*
G01*
X2696291Y646506D01*
X2573294Y696493D02*
G01*
X2696291Y696493D01*
X2573294Y746505D02*
G01*
X2696291Y746505D01*
X2573294Y796493D02*
G01*
X2696291Y796493D01*
X2573294Y846505D02*
G01*
X2696291Y846505D01*
X2484805Y934991D02*
G01*
X2484805Y1057993D01*
X2434793Y934991D02*
G01*
X2434793Y1057993D01*
X2384806Y934991D02*
G01*
X2384806Y1057993D01*
X2334793Y934991D02*
G01*
X2334793Y1057993D01*
X2284806Y934991D02*
G01*
X2284806Y1057993D01*
X2234793Y934991D02*
G01*
X2234793Y1057993D01*
X2184806Y934991D02*
G01*
X2184806Y1057993D01*
X2134793Y934991D02*
G01*
X2134793Y1057993D01*
X2084806Y934991D02*
G01*
X2084806Y1057993D01*
X2034793Y934991D02*
G01*
X2034793Y1057993D01*
X1984806Y934991D02*
G01*
X1984806Y1057993D01*
X1934794Y934991D02*
G01*
X1934794Y1057993D01*
X1723308Y846505D02*
G01*
X1846305Y846505D01*
X1723308Y796493D02*
G01*
X1846305Y796493D01*
X1723308Y746505D02*
G01*
X1846305Y746505D01*
X1723308Y696493D02*
G01*
X1846305Y696493D01*
X1723308Y646506D02*
G01*
X1846305Y646506D01*
X1723308Y596493D02*
G01*
X1846305Y596493D01*
X1723308Y546506D02*
G01*
X1846305Y546506D01*
X1723308Y496493D02*
G01*
X1846305Y496493D01*
X1723308Y446506D02*
G01*
X1846305Y446506D01*
X1723308Y396494D02*
G01*
X1846305Y396494D01*
X1723308Y346506D02*
G01*
X1846305Y346506D01*
X1723308Y296494D02*
G01*
X1846305Y296494D01*
X1934794Y85006D02*
G01*
X1934794Y208008D01*
X1984806Y85006D02*
G01*
X1984806Y208008D01*
X2034793Y85006D02*
G01*
X2034793Y208008D01*
X2084806Y85006D02*
G01*
X2084806Y208008D01*
X2134793Y85006D02*
G01*
X2134793Y208008D01*
X2184806Y85006D02*
G01*
X2184806Y208008D01*
X2234793Y85006D02*
G01*
X2234793Y208008D01*
X2284806Y85006D02*
G01*
X2284806Y208008D01*
X2334793Y85006D02*
G01*
X2334793Y208008D01*
X2384806Y85006D02*
G01*
X2384806Y208008D01*
X2434793Y85006D02*
G01*
X2434793Y208008D01*
X2484805Y85006D02*
G01*
X2484805Y208008D01*
D15*
X3123107Y1108989D02*
G01*
X3037309Y1108989D01*
X3123107Y1173987D02*
G01*
X3037309Y1173987D01*
X3123107Y1238986D02*
G01*
X3037309Y1238986D01*
X3123107Y1304010D02*
G01*
X3037309Y1304010D01*
X2880893Y1108989D02*
G01*
X2795094Y1108989D01*
X2880893Y1173987D02*
G01*
X2795094Y1173987D01*
X2880893Y1238986D02*
G01*
X2795094Y1238986D01*
X2880893Y1304010D02*
G01*
X2795094Y1304010D01*
X3123107Y296189D02*
G01*
X3037309Y296189D01*
X3123107Y361187D02*
G01*
X3037309Y361187D01*
X3123107Y426186D02*
G01*
X3037309Y426186D01*
X3123107Y491210D02*
G01*
X3037309Y491210D01*
X2880893Y296189D02*
G01*
X2795094Y296189D01*
X2880893Y361187D02*
G01*
X2795094Y361187D01*
X2880893Y426186D02*
G01*
X2795094Y426186D01*
X2880893Y491210D02*
G01*
X2795094Y491210D01*
D16*
X2573294Y1426794D02*
G01*
X2696291Y1426794D01*
X2573294Y1476806D02*
G01*
X2696291Y1476806D01*
X2573294Y1526794D02*
G01*
X2696291Y1526794D01*
X2573294Y1576806D02*
G01*
X2696291Y1576806D01*
X2573294Y1626793D02*
G01*
X2696291Y1626793D01*
X2573294Y1676806D02*
G01*
X2696291Y1676806D01*
X2573294Y1726793D02*
G01*
X2696291Y1726793D01*
X2573294Y1776806D02*
G01*
X2696291Y1776806D01*
X2573294Y1826793D02*
G01*
X2696291Y1826793D01*
X2573294Y1876805D02*
G01*
X2696291Y1876805D01*
X2573294Y1926793D02*
G01*
X2696291Y1926793D01*
X2573294Y1976805D02*
G01*
X2696291Y1976805D01*
X2484805Y2065291D02*
G01*
X2484805Y2188293D01*
X2434793Y2065291D02*
G01*
X2434793Y2188293D01*
X2384806Y2065291D02*
G01*
X2384806Y2188293D01*
X2334793Y2065291D02*
G01*
X2334793Y2188293D01*
X2284806Y2065291D02*
G01*
X2284806Y2188293D01*
X2234793Y2065291D02*
G01*
X2234793Y2188293D01*
X2184806Y2065291D02*
G01*
X2184806Y2188293D01*
X2134793Y2065291D02*
G01*
X2134793Y2188293D01*
X2084806Y2065291D02*
G01*
X2084806Y2188293D01*
X2034793Y2065291D02*
G01*
X2034793Y2188293D01*
X1984806Y2065291D02*
G01*
X1984806Y2188293D01*
X1934794Y2065291D02*
G01*
X1934794Y2188293D01*
X1723308Y1976805D02*
G01*
X1846305Y1976805D01*
X1723308Y1926793D02*
G01*
X1846305Y1926793D01*
X1723308Y1876805D02*
G01*
X1846305Y1876805D01*
X1723308Y1826793D02*
G01*
X1846305Y1826793D01*
X1723308Y1776806D02*
G01*
X1846305Y1776806D01*
X1723308Y1726793D02*
G01*
X1846305Y1726793D01*
X1723308Y1676806D02*
G01*
X1846305Y1676806D01*
X1723308Y1626793D02*
G01*
X1846305Y1626793D01*
X1723308Y1576806D02*
G01*
X1846305Y1576806D01*
X1723308Y1526794D02*
G01*
X1846305Y1526794D01*
X1723308Y1476806D02*
G01*
X1846305Y1476806D01*
X1723308Y1426794D02*
G01*
X1846305Y1426794D01*
X1934794Y1215306D02*
G01*
X1934794Y1338308D01*
X1984806Y1215306D02*
G01*
X1984806Y1338308D01*
X2034793Y1215306D02*
G01*
X2034793Y1338308D01*
X2084806Y1215306D02*
G01*
X2084806Y1338308D01*
X2134793Y1215306D02*
G01*
X2134793Y1338308D01*
X2184806Y1215306D02*
G01*
X2184806Y1338308D01*
X2234793Y1215306D02*
G01*
X2234793Y1338308D01*
X2284806Y1215306D02*
G01*
X2284806Y1338308D01*
X2334793Y1215306D02*
G01*
X2334793Y1338308D01*
X2384806Y1215306D02*
G01*
X2384806Y1338308D01*
X2434793Y1215306D02*
G01*
X2434793Y1338308D01*
X2484805Y1215306D02*
G01*
X2484805Y1338308D01*
D19*
G01*
X3601694Y136220D03*
G01*
X3601694Y651205D03*
G36*
X3196592Y301266D02*
G01*
X3196592Y361210D01*
X3366772Y361210D01*
X3366772Y301266D01*
G37*
G36*
X3196592Y426234D02*
G01*
X3196592Y486178D01*
X3366772Y486178D01*
X3366772Y426234D01*
G37*
G01*
X3601694Y949020D03*
G01*
X3601694Y1464005D03*
G36*
X3196592Y1114066D02*
G01*
X3196592Y1174010D01*
X3366772Y1174010D01*
X3366772Y1114066D01*
G37*
G36*
X3196592Y1239034D02*
G01*
X3196592Y1298978D01*
X3366772Y1298978D01*
X3366772Y1239034D01*
G37*
D21*
G01*
X389889Y2159000D03*
G01*
X219710Y2159000D03*
G36*
X2817200Y2153399D02*
G01*
X2923199Y2153399D01*
X2923199Y2088400D01*
X2817200Y2088400D01*
G37*
G36*
X2817200Y2058403D02*
G01*
X2923199Y2058403D01*
X2923199Y1993402D01*
X2817200Y1993402D01*
G37*
G36*
X2817200Y1963407D02*
G01*
X2923199Y1963407D01*
X2923199Y1898406D01*
X2817200Y1898406D01*
G37*
G36*
X3037189Y1963407D02*
G01*
X3143189Y1963407D01*
X3143189Y1898406D01*
X3037189Y1898406D01*
G37*
G36*
X3037189Y2153399D02*
G01*
X3143189Y2153399D01*
X3143189Y2088400D01*
X3037189Y2088400D01*
G37*
G36*
X1139814Y559925D02*
G01*
X1199812Y559925D01*
X1199812Y389925D01*
X1139814Y389925D01*
G37*
G36*
X1264813Y559925D02*
G01*
X1324815Y559925D01*
X1324815Y389920D01*
X1264813Y389920D01*
G37*
G36*
X1555793Y294949D02*
G01*
X1665790Y294949D01*
X1665790Y24940D01*
X1555793Y24940D01*
G37*
G36*
X924813Y294927D02*
G01*
X1034816Y294927D01*
X1034816Y24917D01*
X924813Y24917D01*
G37*
G36*
X1389794Y559955D02*
G01*
X1449796Y559955D01*
X1449796Y389950D01*
X1389794Y389950D01*
G37*
D25*
G01*
X209804Y1984197D03*
G01*
X399795Y1984197D03*
G01*
X399795Y1724202D03*
G01*
X304800Y1724202D03*
G01*
X209804Y1724202D03*
G36*
X3126087Y1504000D02*
G01*
X3126087Y1557200D01*
X3019087Y1557200D01*
X3019087Y1504000D01*
G37*
G36*
X3126087Y1693999D02*
G01*
X3126087Y1747199D01*
X3019087Y1747199D01*
X3019087Y1693999D01*
G37*
G36*
X2899087Y1599001D02*
G01*
X2899087Y1652198D01*
X2792087Y1652198D01*
X2792087Y1599001D01*
G37*
D23*
G01*
X1446174Y1798243D03*
G01*
X1321181Y1798243D03*
D24*
G01*
X1005204Y2113229D03*
G01*
X1636191Y2113254D03*
D23*
G01*
X1196212Y1798218D03*
M02*
