G04 Layer: BottomLayer*
G04 EasyEDA v6.4.20.6, 2021-08-10T23:17:12+08:00*
G04 038dca5a8d274e5a88e6f2799ec95489,d221c9f3c2774e99b69775551637dae4,10*
G04 Gerber Generator version 0.2*
G04 Scale: 100 percent, Rotated: No, Reflected: No *
G04 Dimensions in millimeters *
G04 leading zeros omitted , absolute positions ,4 integer and 5 decimal *
%FSLAX45Y45*%
%MOMM*%

%ADD10C,0.2540*%
%ADD11C,0.3000*%
%ADD12C,0.2000*%
%ADD13C,0.5000*%
%ADD17C,0.6096*%
%ADD18C,0.6100*%
%ADD27C,1.0000*%
%ADD28R,1.0000X1.0000*%
%ADD29C,5.0000*%
%ADD30R,0.5850X0.2240*%
%ADD31R,0.5400X0.5657*%
%ADD40R,0.5400X0.7901*%

%LPD*%
G36*
X698804Y1674215D02*
G01*
X695452Y1674774D01*
X692454Y1676400D01*
X690219Y1678939D01*
X688644Y1681429D01*
X684580Y1685493D01*
X679653Y1688592D01*
X674217Y1690471D01*
X667918Y1691182D01*
X649528Y1691182D01*
X645718Y1691944D01*
X642467Y1694078D01*
X640232Y1697278D01*
X639368Y1701038D01*
X639978Y1704898D01*
X642620Y1711960D01*
X643331Y1718157D01*
X643331Y1737207D01*
X610463Y1737207D01*
X610463Y1699209D01*
X609600Y1695145D01*
X607212Y1691741D01*
X603656Y1689607D01*
X600252Y1688439D01*
X596900Y1687880D01*
X593547Y1688439D01*
X587705Y1690471D01*
X580237Y1691284D01*
X576681Y1692300D01*
X573735Y1694586D01*
X571804Y1697736D01*
X571144Y1701342D01*
X571144Y1737207D01*
X538276Y1737207D01*
X538276Y1718157D01*
X538988Y1711960D01*
X541578Y1704898D01*
X542239Y1701038D01*
X541375Y1697278D01*
X539140Y1694078D01*
X535889Y1691944D01*
X532079Y1691182D01*
X529844Y1691182D01*
X525983Y1691995D01*
X522681Y1694180D01*
X294081Y1922780D01*
X291896Y1926082D01*
X291084Y1929942D01*
X291084Y1951278D01*
X292150Y1955850D01*
X301650Y1974748D01*
X303834Y1977643D01*
X306882Y1979625D01*
X310438Y1980387D01*
X320395Y1979066D01*
X333197Y1979066D01*
X333197Y2012137D01*
X325882Y2012137D01*
X321970Y2012899D01*
X318668Y2015134D01*
X316484Y2018436D01*
X315722Y2022297D01*
X315722Y2041702D01*
X316484Y2045563D01*
X318668Y2048865D01*
X321970Y2051100D01*
X325882Y2051862D01*
X333197Y2051862D01*
X333197Y2084882D01*
X320395Y2084882D01*
X310032Y2083460D01*
X306476Y2084222D01*
X303428Y2086152D01*
X301244Y2088997D01*
X300075Y2091283D01*
X298958Y2095296D01*
X299516Y2099360D01*
X301701Y2102866D01*
X305054Y2105253D01*
X309118Y2106066D01*
X363016Y2106066D01*
X370992Y2107133D01*
X401015Y2115159D01*
X404114Y2115464D01*
X407162Y2114854D01*
X411226Y2113381D01*
X416306Y2110181D01*
X425246Y2106066D01*
X434695Y2103526D01*
X444500Y2102662D01*
X454304Y2103526D01*
X463753Y2106066D01*
X472693Y2110181D01*
X480720Y2115820D01*
X487680Y2122779D01*
X490626Y2127046D01*
X493928Y2130044D01*
X498144Y2131314D01*
X502513Y2130704D01*
X506222Y2128316D01*
X508660Y2124252D01*
X509219Y2120900D01*
X508660Y2117547D01*
X506628Y2111654D01*
X505917Y2105304D01*
X505917Y2092502D01*
X538937Y2092502D01*
X538937Y2099818D01*
X539699Y2103729D01*
X541934Y2107031D01*
X545236Y2109216D01*
X549097Y2109978D01*
X568502Y2109978D01*
X572363Y2109216D01*
X575665Y2107031D01*
X577900Y2103729D01*
X578662Y2099818D01*
X578662Y2092502D01*
X611682Y2092502D01*
X611682Y2106320D01*
X612597Y2110638D01*
X615289Y2114143D01*
X619201Y2116175D01*
X628853Y2118766D01*
X637794Y2122881D01*
X642874Y2126081D01*
X653999Y2130145D01*
X657504Y2130806D01*
X826211Y2130806D01*
X829868Y2130145D01*
X832967Y2128215D01*
X835253Y2125319D01*
X836371Y2121408D01*
X836117Y2117852D01*
X834745Y2114651D01*
X832307Y2112060D01*
X829157Y2110536D01*
X815035Y2106320D01*
X812139Y2105914D01*
X732028Y2105914D01*
X723544Y2105101D01*
X715873Y2102764D01*
X708812Y2099005D01*
X702259Y2093569D01*
X693521Y2084882D01*
X690270Y2082698D01*
X649884Y2065782D01*
X642772Y2061514D01*
X638810Y2057501D01*
X635812Y2052574D01*
X633933Y2047036D01*
X632968Y2038959D01*
X631698Y2034235D01*
X629818Y2030526D01*
X626618Y2027885D01*
X622655Y2026716D01*
X618540Y2027275D01*
X614984Y2029409D01*
X612546Y2032812D01*
X611733Y2036876D01*
X611733Y2040280D01*
X578662Y2040280D01*
X578662Y2000961D01*
X585216Y2000961D01*
X591566Y2001672D01*
X597001Y2003602D01*
X601929Y2006701D01*
X605993Y2010765D01*
X609092Y2015693D01*
X610057Y2018385D01*
X612038Y2021789D01*
X615137Y2024125D01*
X618896Y2025192D01*
X622808Y2024684D01*
X626211Y2022754D01*
X628650Y2019706D01*
X629767Y2015947D01*
X630326Y2009495D01*
X632968Y1999691D01*
X633272Y1997049D01*
X633272Y1938426D01*
X633984Y1932076D01*
X635914Y1926640D01*
X639013Y1921713D01*
X643077Y1917649D01*
X648004Y1914550D01*
X653440Y1912670D01*
X659790Y1911959D01*
X711809Y1911959D01*
X718159Y1912670D01*
X722884Y1914296D01*
X726541Y1914855D01*
X730199Y1914093D01*
X733298Y1912010D01*
X735431Y1909013D01*
X738581Y1902206D01*
X742492Y1896618D01*
X750011Y1884121D01*
X751128Y1881581D01*
X751484Y1878888D01*
X751484Y1859889D01*
X750417Y1855317D01*
X747318Y1849069D01*
X745744Y1846834D01*
X743610Y1845056D01*
X738073Y1841550D01*
X734009Y1837486D01*
X730910Y1832559D01*
X728980Y1827123D01*
X728268Y1820773D01*
X728268Y1718157D01*
X728980Y1711858D01*
X730910Y1706372D01*
X734009Y1701495D01*
X738073Y1697380D01*
X743000Y1694332D01*
X747471Y1691893D01*
X749858Y1688642D01*
X750824Y1684680D01*
X750112Y1680718D01*
X747979Y1677314D01*
X744626Y1675028D01*
X740664Y1674215D01*
G37*

%LPC*%
G36*
X385419Y1979066D02*
G01*
X398221Y1979066D01*
X404571Y1979828D01*
X410006Y1981707D01*
X414934Y1984806D01*
X418998Y1988870D01*
X422097Y1993798D01*
X424027Y1999234D01*
X424738Y2005584D01*
X424738Y2012137D01*
X385419Y2012137D01*
G37*
G36*
X610463Y1801774D02*
G01*
X643331Y1801774D01*
X643331Y1820773D01*
X642620Y1827123D01*
X640689Y1832559D01*
X637590Y1837486D01*
X633526Y1841550D01*
X628599Y1844649D01*
X623163Y1846529D01*
X616813Y1847240D01*
X610463Y1847240D01*
G37*
G36*
X385419Y2051862D02*
G01*
X424738Y2051862D01*
X424738Y2058416D01*
X424027Y2064766D01*
X422097Y2070201D01*
X418998Y2075129D01*
X414934Y2079193D01*
X410006Y2082292D01*
X404571Y2084171D01*
X398221Y2084882D01*
X385419Y2084882D01*
G37*
G36*
X538276Y1801774D02*
G01*
X571144Y1801774D01*
X571144Y1847240D01*
X564794Y1847240D01*
X558444Y1846529D01*
X553008Y1844649D01*
X548081Y1841550D01*
X544017Y1837486D01*
X540918Y1832559D01*
X538988Y1827123D01*
X538276Y1820773D01*
G37*
G36*
X532384Y2000961D02*
G01*
X538937Y2000961D01*
X538937Y2040280D01*
X505917Y2040280D01*
X505917Y2027478D01*
X506628Y2021128D01*
X508508Y2015693D01*
X511606Y2010765D01*
X515670Y2006701D01*
X520598Y2003602D01*
X526034Y2001672D01*
G37*

%LPD*%
G36*
X460197Y1065022D02*
G01*
X456336Y1065784D01*
X453034Y1067968D01*
X450799Y1071270D01*
X450037Y1075182D01*
X450037Y1083665D01*
X447141Y1085900D01*
X445262Y1089050D01*
X444601Y1092657D01*
X444601Y1124559D01*
X445262Y1128166D01*
X447141Y1131265D01*
X450037Y1133551D01*
X450037Y1175156D01*
X447141Y1177442D01*
X445262Y1180592D01*
X444601Y1184198D01*
X444601Y1422196D01*
X444398Y1426819D01*
X443839Y1431239D01*
X442874Y1435557D01*
X441553Y1439824D01*
X439826Y1443888D01*
X437794Y1447850D01*
X435406Y1451610D01*
X432714Y1455115D01*
X429564Y1458569D01*
X366369Y1521764D01*
X362915Y1524914D01*
X359410Y1527606D01*
X355650Y1529994D01*
X351688Y1532026D01*
X347624Y1533753D01*
X343357Y1535074D01*
X339039Y1536039D01*
X334619Y1536598D01*
X329996Y1536801D01*
X280924Y1536801D01*
X277266Y1537512D01*
X274066Y1539443D01*
X271830Y1542389D01*
X270814Y1545996D01*
X271119Y1549704D01*
X271932Y1552549D01*
X273964Y1556410D01*
X277418Y1559052D01*
X281686Y1559966D01*
X295097Y1559966D01*
X295097Y1593037D01*
X287782Y1593037D01*
X283870Y1593799D01*
X280568Y1596034D01*
X278384Y1599336D01*
X277622Y1603197D01*
X277622Y1622602D01*
X278384Y1626463D01*
X280568Y1629765D01*
X283870Y1632000D01*
X287782Y1632762D01*
X295097Y1632762D01*
X295097Y1665782D01*
X282956Y1665782D01*
X279400Y1666443D01*
X276301Y1668272D01*
X274015Y1671116D01*
X272897Y1674520D01*
X266801Y1717497D01*
X266801Y1739392D01*
X267766Y1743710D01*
X268833Y1746046D01*
X271373Y1755495D01*
X272237Y1765300D01*
X271373Y1775104D01*
X268833Y1784553D01*
X264718Y1793493D01*
X259079Y1801520D01*
X252120Y1808480D01*
X244094Y1814118D01*
X235153Y1818233D01*
X225704Y1820773D01*
X215900Y1821637D01*
X206095Y1820773D01*
X196646Y1818233D01*
X187706Y1814118D01*
X179679Y1808480D01*
X172720Y1801520D01*
X167081Y1793493D01*
X162966Y1784553D01*
X160426Y1775104D01*
X159562Y1765300D01*
X160426Y1755495D01*
X162966Y1746046D01*
X164033Y1743710D01*
X164998Y1739392D01*
X164998Y1719224D01*
X164693Y1716836D01*
X147675Y1646580D01*
X146761Y1639316D01*
X146761Y1586382D01*
X147370Y1580489D01*
X160985Y1509877D01*
X161391Y1497990D01*
X161950Y1493570D01*
X162915Y1489252D01*
X164236Y1484985D01*
X165963Y1480921D01*
X167995Y1476959D01*
X170383Y1473200D01*
X173075Y1469694D01*
X176225Y1466240D01*
X192430Y1450035D01*
X195884Y1446885D01*
X199390Y1444193D01*
X203149Y1441805D01*
X207111Y1439773D01*
X211175Y1438046D01*
X215442Y1436725D01*
X219760Y1435760D01*
X224180Y1435201D01*
X228803Y1434998D01*
X304901Y1434998D01*
X308813Y1434236D01*
X312064Y1432001D01*
X320497Y1423619D01*
X322681Y1420317D01*
X323443Y1416456D01*
X323443Y1373581D01*
X332638Y1373581D01*
X336499Y1372768D01*
X339801Y1370584D01*
X342036Y1367282D01*
X342798Y1363421D01*
X342798Y1321003D01*
X342036Y1317142D01*
X339801Y1313840D01*
X336499Y1311656D01*
X332638Y1310843D01*
X323443Y1310843D01*
X323443Y1300480D01*
X322478Y1296162D01*
X319735Y1292656D01*
X315772Y1290675D01*
X311353Y1290523D01*
X300786Y1292555D01*
X289204Y1293012D01*
X277672Y1291691D01*
X273608Y1290574D01*
X269900Y1290269D01*
X266344Y1291285D01*
X263398Y1293571D01*
X261416Y1296720D01*
X260756Y1300378D01*
X260756Y1310843D01*
X223164Y1310843D01*
X224078Y1308557D01*
X230022Y1298549D01*
X237439Y1289608D01*
X240029Y1287272D01*
X242519Y1283868D01*
X243433Y1279702D01*
X242519Y1275537D01*
X240029Y1272133D01*
X237439Y1269796D01*
X230022Y1260856D01*
X224129Y1250848D01*
X219405Y1239215D01*
X217220Y1235862D01*
X213918Y1233576D01*
X210007Y1232814D01*
X202438Y1232814D01*
X202438Y1202944D01*
X201676Y1199083D01*
X199440Y1195781D01*
X196138Y1193596D01*
X192278Y1192784D01*
X170637Y1192784D01*
X166725Y1193596D01*
X163474Y1195781D01*
X161239Y1199083D01*
X160477Y1202944D01*
X160477Y1232814D01*
X152755Y1232814D01*
X146456Y1232103D01*
X143052Y1230884D01*
X139700Y1230325D01*
X136347Y1230884D01*
X132943Y1232103D01*
X126644Y1232814D01*
X66598Y1232712D01*
X51155Y1231544D01*
X45313Y1230731D01*
X38811Y1228598D01*
X35001Y1228140D01*
X31343Y1229055D01*
X28244Y1231290D01*
X26212Y1234490D01*
X25501Y1238250D01*
X25501Y2178761D01*
X26466Y2191258D01*
X28803Y2201519D01*
X32613Y2211374D01*
X37744Y2220620D01*
X44145Y2229002D01*
X51714Y2236368D01*
X60198Y2242616D01*
X69545Y2247595D01*
X79451Y2251202D01*
X89763Y2253335D01*
X100838Y2254097D01*
X228600Y2254097D01*
X232511Y2253335D01*
X235813Y2251100D01*
X237998Y2247798D01*
X238760Y2243937D01*
X237998Y2240026D01*
X235813Y2236724D01*
X220319Y2221280D01*
X212750Y2212035D01*
X210312Y2209901D01*
X204419Y2206193D01*
X200355Y2202129D01*
X197256Y2197201D01*
X195326Y2191766D01*
X194614Y2185416D01*
X194614Y2132584D01*
X195376Y2125878D01*
X202285Y2103577D01*
X202742Y2099767D01*
X201726Y2096058D01*
X197815Y2087981D01*
X195783Y2085187D01*
X192989Y2083257D01*
X187706Y2080818D01*
X179679Y2075180D01*
X172720Y2068220D01*
X167081Y2060193D01*
X162966Y2051253D01*
X160426Y2041804D01*
X159562Y2032000D01*
X160426Y2022195D01*
X162966Y2012746D01*
X167081Y2003806D01*
X172720Y1995779D01*
X179679Y1988820D01*
X187706Y1983181D01*
X193649Y1980438D01*
X196443Y1978507D01*
X198424Y1975764D01*
X208229Y1956257D01*
X209296Y1951685D01*
X209296Y1909318D01*
X210108Y1900834D01*
X212445Y1893163D01*
X216204Y1886102D01*
X221640Y1879549D01*
X502920Y1598218D01*
X505155Y1595170D01*
X509219Y1591106D01*
X512267Y1588871D01*
X629208Y1471930D01*
X631444Y1468628D01*
X632206Y1464767D01*
X632206Y1175258D01*
X631444Y1171397D01*
X629208Y1168095D01*
X625906Y1165860D01*
X622046Y1165098D01*
X618134Y1165860D01*
X609701Y1171397D01*
X604266Y1173327D01*
X597916Y1174038D01*
X591362Y1174038D01*
X591362Y1134719D01*
X615238Y1134719D01*
X618896Y1134059D01*
X622046Y1132128D01*
X624281Y1129182D01*
X625348Y1125626D01*
X625094Y1121918D01*
X620928Y1106424D01*
X620217Y1099718D01*
X620217Y1092657D01*
X619404Y1088796D01*
X617220Y1085494D01*
X613918Y1083259D01*
X610057Y1082497D01*
X591362Y1082497D01*
X591362Y1075182D01*
X590600Y1071270D01*
X588365Y1067968D01*
X585063Y1065784D01*
X581202Y1065022D01*
X561797Y1065022D01*
X557936Y1065784D01*
X554634Y1067968D01*
X552399Y1071270D01*
X551637Y1075182D01*
X551637Y1082497D01*
X489762Y1082497D01*
X489762Y1075182D01*
X489000Y1071270D01*
X486765Y1067968D01*
X483463Y1065784D01*
X479602Y1065022D01*
G37*

%LPC*%
G36*
X347319Y1559966D02*
G01*
X360121Y1559966D01*
X366471Y1560728D01*
X371906Y1562608D01*
X376834Y1565706D01*
X380898Y1569770D01*
X383997Y1574698D01*
X385927Y1580134D01*
X386638Y1586484D01*
X386638Y1593037D01*
X347319Y1593037D01*
G37*
G36*
X489762Y1134719D02*
G01*
X551637Y1134719D01*
X551637Y1174038D01*
X545084Y1174038D01*
X538734Y1173327D01*
X533298Y1171397D01*
X524611Y1165606D01*
X520700Y1164844D01*
X516788Y1165606D01*
X513029Y1168298D01*
X508101Y1171397D01*
X502666Y1173327D01*
X496316Y1174038D01*
X489762Y1174038D01*
G37*
G36*
X347319Y1632762D02*
G01*
X386638Y1632762D01*
X386638Y1639316D01*
X385927Y1645666D01*
X383997Y1651101D01*
X380898Y1656029D01*
X376834Y1660093D01*
X371906Y1663192D01*
X366471Y1665071D01*
X360121Y1665782D01*
X347319Y1665782D01*
G37*
G36*
X223164Y1373581D02*
G01*
X260756Y1373581D01*
X260756Y1411071D01*
X255828Y1408887D01*
X246125Y1402537D01*
X237439Y1394815D01*
X230022Y1385874D01*
X224078Y1375867D01*
G37*

%LPD*%
G36*
X37592Y408889D02*
G01*
X33121Y408990D01*
X29209Y411022D01*
X26466Y414528D01*
X25501Y418846D01*
X25501Y1016762D01*
X26263Y1020673D01*
X28498Y1023975D01*
X31800Y1026160D01*
X35661Y1026921D01*
X39573Y1026160D01*
X42824Y1023975D01*
X63144Y1003706D01*
X69392Y998626D01*
X76047Y995222D01*
X83413Y993241D01*
X89306Y992784D01*
X158699Y992784D01*
X162610Y992022D01*
X165912Y989837D01*
X213207Y942492D01*
X215442Y939190D01*
X216204Y935329D01*
X216204Y917752D01*
X216916Y911453D01*
X218795Y906018D01*
X221894Y901090D01*
X226009Y897026D01*
X230886Y893927D01*
X236372Y891997D01*
X242671Y891286D01*
X247853Y891286D01*
X251104Y890778D01*
X310438Y870966D01*
X314045Y868883D01*
X316534Y865479D01*
X317398Y861364D01*
X317398Y774903D01*
X317601Y770280D01*
X318160Y765860D01*
X319125Y761542D01*
X320446Y757275D01*
X322173Y753211D01*
X324205Y749249D01*
X326593Y745490D01*
X329285Y741984D01*
X332435Y738530D01*
X395833Y675182D01*
X398018Y671880D01*
X398780Y668020D01*
X398780Y565759D01*
X399186Y562102D01*
X398830Y557987D01*
X396849Y554380D01*
X393598Y551840D01*
X389636Y550824D01*
X385572Y551434D01*
X377342Y554482D01*
X355092Y560730D01*
X332384Y565048D01*
X309422Y567436D01*
X286308Y567944D01*
X263245Y566470D01*
X240385Y563118D01*
X217881Y557834D01*
X195935Y550672D01*
X174650Y541731D01*
X154127Y531012D01*
X134620Y518668D01*
X116230Y504698D01*
X99060Y489204D01*
X83261Y472389D01*
X68884Y454253D01*
X56134Y435051D01*
X44551Y413969D01*
X41656Y410616D01*
G37*

%LPD*%
G36*
X419303Y25908D02*
G01*
X415442Y26670D01*
X412191Y28803D01*
X409956Y32004D01*
X409143Y35814D01*
X409752Y39624D01*
X411835Y42976D01*
X414934Y45262D01*
X419912Y47599D01*
X439928Y59131D01*
X458927Y72339D01*
X476707Y87071D01*
X493217Y103225D01*
X508304Y120700D01*
X521919Y139395D01*
X533857Y159207D01*
X544169Y179882D01*
X552653Y201371D01*
X559308Y223469D01*
X564134Y246075D01*
X567029Y269036D01*
X567994Y292100D01*
X567029Y315163D01*
X564134Y338124D01*
X559308Y360730D01*
X552653Y382828D01*
X544169Y404317D01*
X533857Y424992D01*
X521919Y444804D01*
X508304Y463448D01*
X493217Y480974D01*
X476707Y497128D01*
X458927Y511860D01*
X446024Y520801D01*
X443128Y523900D01*
X441756Y527964D01*
X442163Y532180D01*
X444246Y535889D01*
X447700Y538429D01*
X451866Y539292D01*
X489153Y539292D01*
X495452Y540004D01*
X500938Y541934D01*
X505815Y544982D01*
X509930Y549097D01*
X512978Y553974D01*
X514908Y559460D01*
X515620Y565759D01*
X515620Y670661D01*
X514908Y676960D01*
X512826Y682853D01*
X508304Y691794D01*
X507441Y694182D01*
X506374Y698957D01*
X505053Y703224D01*
X503326Y707288D01*
X501294Y711250D01*
X498906Y715010D01*
X496214Y718515D01*
X493064Y721969D01*
X473049Y741934D01*
X470865Y745236D01*
X470052Y749147D01*
X470865Y753008D01*
X473049Y756310D01*
X476351Y758494D01*
X480212Y759307D01*
X489153Y759307D01*
X495452Y760018D01*
X501345Y762050D01*
X504698Y762660D01*
X508050Y762050D01*
X513943Y760018D01*
X520242Y759307D01*
X584149Y759307D01*
X590448Y760018D01*
X596341Y762050D01*
X599694Y762660D01*
X603046Y762050D01*
X608939Y760018D01*
X615238Y759307D01*
X624586Y759307D01*
X624586Y805332D01*
X620776Y805332D01*
X616864Y806145D01*
X613562Y808329D01*
X611378Y811631D01*
X610616Y815492D01*
X610616Y860907D01*
X611378Y864768D01*
X613562Y868070D01*
X616864Y870254D01*
X620776Y871067D01*
X624586Y871067D01*
X624586Y917092D01*
X615238Y917092D01*
X609650Y917295D01*
X606094Y919124D01*
X603554Y922223D01*
X602386Y926084D01*
X602843Y930046D01*
X604774Y933602D01*
X607923Y936091D01*
X616508Y940460D01*
X620623Y941578D01*
X624789Y940917D01*
X628345Y938580D01*
X631698Y935888D01*
X634288Y933297D01*
X638098Y932738D01*
X640334Y931926D01*
X646684Y931214D01*
X659638Y931214D01*
X663498Y930452D01*
X666800Y928268D01*
X669036Y924966D01*
X669798Y921054D01*
X669798Y871067D01*
X685546Y871067D01*
X689406Y870254D01*
X692708Y868070D01*
X694944Y864768D01*
X695706Y860907D01*
X695706Y815492D01*
X694944Y811631D01*
X692708Y808329D01*
X689406Y806145D01*
X685546Y805332D01*
X669798Y805332D01*
X669798Y759307D01*
X679145Y759307D01*
X684377Y759866D01*
X688594Y759460D01*
X692302Y757377D01*
X694791Y753922D01*
X695706Y749808D01*
X695706Y706628D01*
X694791Y702462D01*
X692302Y699058D01*
X688594Y696925D01*
X684377Y696518D01*
X679145Y697128D01*
X615238Y697128D01*
X608939Y696417D01*
X603453Y694486D01*
X598576Y691438D01*
X594461Y687324D01*
X591413Y682447D01*
X589483Y676960D01*
X588772Y670661D01*
X588772Y565759D01*
X589483Y559460D01*
X591413Y553974D01*
X594461Y549097D01*
X598576Y544982D01*
X603707Y541782D01*
X605790Y540054D01*
X607364Y537768D01*
X611632Y529336D01*
X615035Y518617D01*
X618896Y512013D01*
X622604Y507746D01*
X715467Y414832D01*
X717753Y411378D01*
X718464Y407263D01*
X717448Y403250D01*
X714908Y399948D01*
X711301Y397967D01*
X705713Y397713D01*
X653694Y397713D01*
X647344Y397002D01*
X641908Y395122D01*
X636981Y392023D01*
X632917Y387908D01*
X629818Y383032D01*
X627888Y377545D01*
X627176Y371246D01*
X627176Y302209D01*
X626719Y299161D01*
X624281Y294894D01*
X620166Y285953D01*
X617626Y276504D01*
X616762Y266700D01*
X617626Y256895D01*
X620166Y247446D01*
X625703Y235356D01*
X626008Y231902D01*
X625094Y228549D01*
X619353Y216255D01*
X617372Y210566D01*
X616661Y204216D01*
X616661Y151384D01*
X617372Y145034D01*
X619302Y139598D01*
X622401Y134670D01*
X626465Y130606D01*
X631393Y127508D01*
X636828Y125628D01*
X643178Y124866D01*
X721004Y124866D01*
X727354Y125628D01*
X733247Y127660D01*
X736600Y128219D01*
X739952Y127660D01*
X745845Y125628D01*
X752195Y124866D01*
X764997Y124866D01*
X764997Y157937D01*
X757682Y157937D01*
X753770Y158699D01*
X750468Y160934D01*
X748284Y164236D01*
X747522Y168097D01*
X747522Y187502D01*
X748284Y191363D01*
X750468Y194665D01*
X753770Y196900D01*
X757682Y197662D01*
X764997Y197662D01*
X764997Y230682D01*
X752195Y230682D01*
X745845Y229971D01*
X739952Y227939D01*
X736600Y227380D01*
X733247Y227939D01*
X729843Y229108D01*
X726236Y231292D01*
X723849Y234746D01*
X723036Y238912D01*
X724001Y243027D01*
X726948Y249174D01*
X729538Y253492D01*
X731520Y259079D01*
X732231Y265379D01*
X732231Y371246D01*
X731570Y376885D01*
X732028Y381203D01*
X734212Y384962D01*
X737819Y387451D01*
X742086Y388213D01*
X746302Y387096D01*
X749147Y385622D01*
X756513Y383641D01*
X762406Y383184D01*
X806399Y383184D01*
X810056Y382524D01*
X813257Y380542D01*
X816102Y376377D01*
X816914Y374142D01*
X817168Y371805D01*
X817168Y265379D01*
X817880Y259079D01*
X819810Y253593D01*
X825703Y244906D01*
X826516Y241147D01*
X825906Y237388D01*
X823925Y234086D01*
X820877Y231800D01*
X817219Y230733D01*
X817219Y197662D01*
X856538Y197662D01*
X856538Y204216D01*
X855827Y210566D01*
X853897Y216001D01*
X847953Y224840D01*
X847191Y228752D01*
X847953Y232613D01*
X850188Y235915D01*
X853440Y238150D01*
X857351Y238912D01*
X895705Y238912D01*
X902055Y239623D01*
X907491Y241503D01*
X912418Y244602D01*
X916482Y248716D01*
X919581Y253593D01*
X921512Y259079D01*
X922223Y265379D01*
X922223Y371246D01*
X921512Y377545D01*
X919581Y383032D01*
X916482Y387908D01*
X912418Y392023D01*
X907491Y395122D01*
X897280Y398627D01*
X895096Y400304D01*
X851255Y444093D01*
X845007Y449173D01*
X838352Y452577D01*
X830986Y454558D01*
X824585Y455015D01*
X820877Y456031D01*
X817778Y458368D01*
X815797Y461619D01*
X815187Y465429D01*
X816000Y469188D01*
X818134Y472338D01*
X821486Y475691D01*
X824585Y480618D01*
X827430Y489610D01*
X829360Y492353D01*
X832053Y494334D01*
X850290Y503478D01*
X854862Y504545D01*
X1312976Y505155D01*
X1316786Y504443D01*
X1320038Y502361D01*
X1609699Y224739D01*
X1615135Y220370D01*
X1622653Y216204D01*
X1630629Y212801D01*
X1638706Y210210D01*
X1647698Y209296D01*
X1710182Y209296D01*
X1714754Y208229D01*
X1743710Y193700D01*
X1747570Y190601D01*
X1752498Y187502D01*
X1757934Y185572D01*
X1764284Y184861D01*
X1817116Y184861D01*
X1823466Y185572D01*
X1828901Y187502D01*
X1833829Y190601D01*
X1837893Y193903D01*
X1866442Y208229D01*
X1871014Y209296D01*
X1900682Y209296D01*
X1909165Y210108D01*
X1916836Y212445D01*
X1923897Y216204D01*
X1930450Y221640D01*
X1950821Y241960D01*
X1953768Y244043D01*
X1963877Y248716D01*
X1975053Y251866D01*
X1983993Y255981D01*
X1992020Y261620D01*
X1998980Y268579D01*
X2004618Y276606D01*
X2008733Y285546D01*
X2011883Y296722D01*
X2016556Y306832D01*
X2018639Y309778D01*
X2063394Y354533D01*
X2066391Y356616D01*
X2069896Y357530D01*
X2073452Y357124D01*
X2086457Y353263D01*
X2089607Y351739D01*
X2092045Y349148D01*
X2093417Y345948D01*
X2093671Y342392D01*
X2093417Y340055D01*
X2093417Y284581D01*
X2094128Y278282D01*
X2096007Y272846D01*
X2099106Y267919D01*
X2103170Y263855D01*
X2108098Y260756D01*
X2113534Y258825D01*
X2119884Y258114D01*
X2172716Y258114D01*
X2179472Y258876D01*
X2206904Y266954D01*
X2209800Y267360D01*
X2212695Y266954D01*
X2222347Y264109D01*
X2225954Y262178D01*
X2228494Y259079D01*
X2229612Y255168D01*
X2230526Y244195D01*
X2233066Y234746D01*
X2237181Y225806D01*
X2242820Y217779D01*
X2249779Y210820D01*
X2257806Y205181D01*
X2266746Y201066D01*
X2276195Y198526D01*
X2286000Y197662D01*
X2295804Y198526D01*
X2305253Y201066D01*
X2314194Y205181D01*
X2322220Y210820D01*
X2329180Y217779D01*
X2334818Y225806D01*
X2337612Y231902D01*
X2339644Y234746D01*
X2342540Y236778D01*
X2345944Y237693D01*
X2349449Y237388D01*
X2352395Y236626D01*
X2362200Y235762D01*
X2372004Y236626D01*
X2381453Y239166D01*
X2390394Y243281D01*
X2398420Y248920D01*
X2405380Y255879D01*
X2411018Y263906D01*
X2415133Y272846D01*
X2417673Y282295D01*
X2418537Y292100D01*
X2417673Y301904D01*
X2415133Y311353D01*
X2411018Y320294D01*
X2405380Y328320D01*
X2402738Y330962D01*
X2400503Y334264D01*
X2399741Y338175D01*
X2400503Y342036D01*
X2402738Y345338D01*
X2509774Y452374D01*
X2513025Y454558D01*
X2516936Y455371D01*
X2731414Y455371D01*
X2735326Y454558D01*
X2738628Y452374D01*
X2742895Y448106D01*
X2750921Y442468D01*
X2759862Y438302D01*
X2769311Y435762D01*
X2779115Y434898D01*
X2788920Y435762D01*
X2798368Y438302D01*
X2807309Y442468D01*
X2815336Y448106D01*
X2822295Y455015D01*
X2827934Y463092D01*
X2832049Y471982D01*
X2834589Y481482D01*
X2835452Y491235D01*
X2834589Y501040D01*
X2832049Y510540D01*
X2827934Y519430D01*
X2824784Y523900D01*
X2823260Y527253D01*
X2823057Y531012D01*
X2824175Y534568D01*
X2826562Y537464D01*
X2829763Y539292D01*
X2832201Y540156D01*
X2837332Y543407D01*
X2839974Y545795D01*
X2848051Y554228D01*
X2850591Y556158D01*
X2857347Y559765D01*
X2863545Y564896D01*
X2888843Y590143D01*
X2892145Y592378D01*
X2893364Y592582D01*
X2893618Y593852D01*
X2895803Y597154D01*
X2926130Y627430D01*
X2928721Y629666D01*
X2931769Y631393D01*
X2935224Y632002D01*
X2939237Y632002D01*
X2939237Y633628D01*
X2940202Y637946D01*
X2942945Y641451D01*
X2949803Y647141D01*
X2952851Y648868D01*
X2956306Y649478D01*
X2968802Y649478D01*
X2972663Y648716D01*
X2975965Y646531D01*
X2978200Y643229D01*
X2978962Y639318D01*
X2978962Y632002D01*
X3011982Y632002D01*
X3011982Y644804D01*
X3011271Y651154D01*
X3009239Y657047D01*
X3008680Y660400D01*
X3009239Y663752D01*
X3011271Y669645D01*
X3011982Y675995D01*
X3011982Y753821D01*
X3011271Y760171D01*
X3009392Y765606D01*
X3006293Y770534D01*
X3002229Y774598D01*
X2997301Y777697D01*
X2991866Y779627D01*
X2985516Y780338D01*
X2932684Y780338D01*
X2926334Y779627D01*
X2920898Y777697D01*
X2915970Y774598D01*
X2911906Y770534D01*
X2908808Y765606D01*
X2906928Y760171D01*
X2906217Y753821D01*
X2906217Y745896D01*
X2905252Y741629D01*
X2883408Y694791D01*
X2881426Y691896D01*
X2864256Y674776D01*
X2860954Y672541D01*
X2857093Y671779D01*
X2853182Y672541D01*
X2849880Y674776D01*
X2847695Y678078D01*
X2846882Y681939D01*
X2846882Y705916D01*
X2845866Y713892D01*
X2835249Y753668D01*
X2834894Y756310D01*
X2834894Y1111656D01*
X2835808Y1115872D01*
X2838399Y1119327D01*
X2842158Y1121359D01*
X2846425Y1121714D01*
X2850489Y1120241D01*
X2853893Y1118108D01*
X2859328Y1116228D01*
X2865678Y1115466D01*
X2900222Y1115466D01*
X2902864Y1115161D01*
X2911195Y1112926D01*
X2921000Y1112062D01*
X2930804Y1112926D01*
X2939135Y1115161D01*
X2949854Y1116228D01*
X2955747Y1118260D01*
X2959100Y1118819D01*
X2962452Y1118260D01*
X2968345Y1116228D01*
X2974695Y1115466D01*
X2987497Y1115466D01*
X2987497Y1148537D01*
X2982620Y1149400D01*
X2979216Y1151839D01*
X2977083Y1155446D01*
X2976575Y1159611D01*
X2977337Y1168400D01*
X2976575Y1177188D01*
X2977083Y1181354D01*
X2979216Y1184960D01*
X2982620Y1187399D01*
X2987497Y1188262D01*
X2987497Y1221282D01*
X2974695Y1221282D01*
X2968345Y1220571D01*
X2962452Y1218539D01*
X2959100Y1217980D01*
X2955747Y1218539D01*
X2949854Y1220571D01*
X2939135Y1221638D01*
X2930804Y1223873D01*
X2921000Y1224737D01*
X2911195Y1223873D01*
X2902864Y1221638D01*
X2900222Y1221282D01*
X2865678Y1221282D01*
X2859328Y1220571D01*
X2853893Y1218692D01*
X2850489Y1216558D01*
X2846425Y1215085D01*
X2842158Y1215440D01*
X2838399Y1217472D01*
X2835808Y1220927D01*
X2834894Y1225143D01*
X2834894Y1450695D01*
X2835554Y1454200D01*
X2839618Y1465326D01*
X2842818Y1470406D01*
X2846933Y1479346D01*
X2849473Y1488795D01*
X2850337Y1498600D01*
X2849473Y1508404D01*
X2846933Y1517853D01*
X2842818Y1526794D01*
X2837180Y1534820D01*
X2830220Y1541780D01*
X2822194Y1547418D01*
X2813253Y1551533D01*
X2803804Y1554073D01*
X2794000Y1554937D01*
X2784195Y1554073D01*
X2774746Y1551533D01*
X2765806Y1547418D01*
X2757779Y1541780D01*
X2750820Y1534820D01*
X2745181Y1526794D01*
X2741066Y1517853D01*
X2738526Y1508404D01*
X2737662Y1498600D01*
X2738526Y1488795D01*
X2741066Y1479346D01*
X2745181Y1470406D01*
X2748381Y1465326D01*
X2752445Y1454200D01*
X2753106Y1450695D01*
X2753106Y756310D01*
X2752750Y753668D01*
X2747162Y732790D01*
X2745740Y729691D01*
X2743352Y727202D01*
X2740253Y725678D01*
X2723032Y720598D01*
X2719222Y720242D01*
X2715615Y721258D01*
X2700121Y728980D01*
X2697175Y731215D01*
X2695194Y734415D01*
X2694482Y738073D01*
X2694482Y741121D01*
X2693771Y747471D01*
X2691892Y752906D01*
X2688793Y757834D01*
X2684729Y761898D01*
X2679801Y764997D01*
X2674366Y766927D01*
X2668016Y767638D01*
X2615184Y767638D01*
X2608834Y766927D01*
X2603398Y764997D01*
X2598470Y761898D01*
X2594406Y758596D01*
X2565857Y744270D01*
X2561285Y743204D01*
X2533548Y743204D01*
X2530906Y743559D01*
X2517190Y747369D01*
X2508453Y751433D01*
X2499004Y753973D01*
X2489200Y754837D01*
X2479395Y753973D01*
X2469946Y751433D01*
X2461006Y747318D01*
X2452979Y741680D01*
X2446020Y734720D01*
X2440381Y726694D01*
X2436266Y717753D01*
X2433726Y708304D01*
X2432862Y698500D01*
X2433726Y688695D01*
X2436266Y679246D01*
X2440381Y670306D01*
X2446020Y662279D01*
X2452979Y655320D01*
X2461006Y649681D01*
X2469946Y645566D01*
X2479395Y643026D01*
X2489200Y642162D01*
X2499004Y643026D01*
X2508453Y645566D01*
X2517394Y649681D01*
X2527096Y656336D01*
X2535834Y660450D01*
X2540152Y661416D01*
X2560878Y661416D01*
X2565450Y660349D01*
X2584348Y650849D01*
X2587244Y648665D01*
X2589225Y645617D01*
X2589987Y642061D01*
X2588717Y632104D01*
X2588717Y619302D01*
X2621737Y619302D01*
X2621737Y626618D01*
X2622499Y630529D01*
X2624734Y633831D01*
X2628036Y636016D01*
X2631897Y636778D01*
X2651302Y636778D01*
X2655163Y636016D01*
X2658465Y633831D01*
X2660700Y630529D01*
X2661462Y626618D01*
X2661462Y619302D01*
X2694381Y619302D01*
X2698343Y618490D01*
X2701696Y616204D01*
X2703880Y612800D01*
X2704541Y608787D01*
X2700426Y594004D01*
X2699562Y584200D01*
X2700070Y578154D01*
X2699562Y573989D01*
X2697429Y570382D01*
X2694076Y567944D01*
X2689961Y567080D01*
X2661462Y567080D01*
X2661462Y537311D01*
X2660700Y533450D01*
X2658465Y530148D01*
X2655163Y527964D01*
X2651302Y527151D01*
X2631897Y527151D01*
X2628036Y527964D01*
X2624734Y530148D01*
X2622499Y533450D01*
X2621737Y537311D01*
X2621737Y567080D01*
X2588717Y567080D01*
X2588717Y554278D01*
X2589428Y547928D01*
X2592628Y538429D01*
X2592222Y534212D01*
X2590088Y530555D01*
X2586685Y528066D01*
X2582570Y527151D01*
X2498394Y527151D01*
X2490419Y526338D01*
X2483256Y524001D01*
X2476652Y520192D01*
X2472182Y516382D01*
X2337155Y381355D01*
X2333904Y379171D01*
X2329992Y378409D01*
X2293162Y378409D01*
X2293162Y376682D01*
X2292400Y372770D01*
X2290165Y369468D01*
X2286863Y367284D01*
X2283002Y366522D01*
X2263597Y366522D01*
X2259736Y367284D01*
X2256434Y369468D01*
X2254199Y372770D01*
X2253437Y376682D01*
X2253437Y378409D01*
X2220417Y378409D01*
X2220417Y371144D01*
X2220671Y368808D01*
X2220264Y364591D01*
X2218131Y360883D01*
X2214727Y358394D01*
X2210562Y357479D01*
X2209038Y357479D01*
X2204872Y358394D01*
X2201468Y360883D01*
X2199335Y364591D01*
X2198928Y368808D01*
X2199182Y371144D01*
X2199182Y426618D01*
X2198471Y432917D01*
X2196592Y438353D01*
X2193493Y443280D01*
X2189429Y447344D01*
X2184501Y450443D01*
X2179066Y452374D01*
X2172716Y453085D01*
X2119884Y453085D01*
X2113127Y452323D01*
X2071624Y440080D01*
X2068728Y439674D01*
X2050288Y439674D01*
X2041804Y438861D01*
X2034133Y436524D01*
X2027072Y432765D01*
X2020519Y427329D01*
X1960778Y367639D01*
X1957832Y365556D01*
X1947722Y360883D01*
X1936546Y357733D01*
X1927606Y353618D01*
X1919579Y347980D01*
X1912620Y341020D01*
X1906981Y332994D01*
X1902866Y324053D01*
X1899716Y312877D01*
X1895043Y302768D01*
X1892960Y299821D01*
X1887220Y294081D01*
X1883918Y291846D01*
X1880057Y291084D01*
X1871421Y291084D01*
X1866849Y292150D01*
X1847951Y301650D01*
X1845056Y303834D01*
X1843074Y306882D01*
X1842312Y310438D01*
X1843582Y320395D01*
X1843582Y333197D01*
X1810562Y333197D01*
X1810562Y325882D01*
X1809800Y321970D01*
X1807565Y318668D01*
X1804263Y316484D01*
X1800402Y315722D01*
X1780997Y315722D01*
X1777136Y316484D01*
X1773834Y318668D01*
X1771599Y321970D01*
X1770837Y325882D01*
X1770837Y333197D01*
X1737817Y333197D01*
X1737817Y320395D01*
X1739087Y310388D01*
X1738325Y306832D01*
X1736394Y303733D01*
X1733499Y301548D01*
X1714703Y292150D01*
X1710182Y291084D01*
X1662785Y291084D01*
X1659026Y291846D01*
X1655775Y293928D01*
X1362151Y575310D01*
X1356207Y580085D01*
X1349095Y583844D01*
X1341424Y586181D01*
X1332941Y586994D01*
X932535Y586486D01*
X928471Y587298D01*
X925068Y589686D01*
X922934Y593242D01*
X922375Y597357D01*
X923544Y601370D01*
X926185Y604570D01*
X929894Y606450D01*
X933653Y607466D01*
X942594Y611581D01*
X950620Y617220D01*
X957580Y624179D01*
X963218Y632206D01*
X967333Y641146D01*
X969873Y650595D01*
X970737Y660400D01*
X969873Y670204D01*
X967333Y679653D01*
X963218Y688594D01*
X957580Y696620D01*
X950620Y703580D01*
X946200Y706678D01*
X905662Y747268D01*
X904189Y749147D01*
X903224Y751332D01*
X889914Y792429D01*
X888390Y796594D01*
X887780Y799998D01*
X888339Y803452D01*
X890371Y809345D01*
X891133Y815644D01*
X891133Y822909D01*
X858062Y822909D01*
X858062Y821182D01*
X857300Y817270D01*
X855065Y813968D01*
X851763Y811784D01*
X847902Y811022D01*
X828497Y811022D01*
X824636Y811784D01*
X821334Y813968D01*
X819099Y817270D01*
X818337Y821182D01*
X818337Y822909D01*
X787654Y822909D01*
X783793Y823671D01*
X780491Y825855D01*
X778306Y829157D01*
X777494Y833069D01*
X777494Y853694D01*
X778306Y857605D01*
X780491Y860907D01*
X783793Y863092D01*
X787654Y863853D01*
X818337Y863853D01*
X818337Y897585D01*
X811784Y897585D01*
X805434Y896874D01*
X799998Y894943D01*
X791565Y889457D01*
X787654Y888644D01*
X783793Y889457D01*
X780491Y891641D01*
X778306Y894943D01*
X777494Y898804D01*
X777494Y941069D01*
X778408Y945184D01*
X780897Y948639D01*
X784606Y950721D01*
X788822Y951128D01*
X795578Y950366D01*
X808380Y950366D01*
X808380Y983437D01*
X787654Y983437D01*
X783793Y984199D01*
X780491Y986434D01*
X778306Y989736D01*
X777494Y993597D01*
X777494Y1013002D01*
X778306Y1016863D01*
X780491Y1020165D01*
X783793Y1022400D01*
X787654Y1023162D01*
X808380Y1023162D01*
X808380Y1056182D01*
X795578Y1056182D01*
X789228Y1055471D01*
X783793Y1053592D01*
X781456Y1052118D01*
X778052Y1050798D01*
X774446Y1050696D01*
X770991Y1051915D01*
X768197Y1054303D01*
X765149Y1057960D01*
X755904Y1067409D01*
X725017Y1110030D01*
X723392Y1113383D01*
X714349Y1147368D01*
X713994Y1150010D01*
X713994Y1485392D01*
X713181Y1493875D01*
X710844Y1501546D01*
X707085Y1508607D01*
X701649Y1515160D01*
X648817Y1568043D01*
X646582Y1571345D01*
X645820Y1575206D01*
X646582Y1579118D01*
X648817Y1582420D01*
X652119Y1584604D01*
X655980Y1585366D01*
X667918Y1585366D01*
X674217Y1586128D01*
X679653Y1588008D01*
X684580Y1591106D01*
X688644Y1595170D01*
X690219Y1597660D01*
X692454Y1600200D01*
X695452Y1601825D01*
X698804Y1602384D01*
X841298Y1602384D01*
X845210Y1601622D01*
X848512Y1599438D01*
X852779Y1595120D01*
X860806Y1589481D01*
X869746Y1585366D01*
X880922Y1582216D01*
X891032Y1577543D01*
X893978Y1575460D01*
X974039Y1495450D01*
X980592Y1490014D01*
X987653Y1486255D01*
X995324Y1483918D01*
X1003808Y1483106D01*
X1210767Y1483106D01*
X1214628Y1482293D01*
X1217930Y1480108D01*
X1264208Y1433830D01*
X1266444Y1430528D01*
X1267206Y1426667D01*
X1267206Y1372108D01*
X1268018Y1363624D01*
X1270355Y1355953D01*
X1274114Y1348892D01*
X1279550Y1342339D01*
X1321765Y1300124D01*
X1328318Y1294688D01*
X1335379Y1290929D01*
X1343050Y1288592D01*
X1351534Y1287780D01*
X1376172Y1287780D01*
X1379677Y1287119D01*
X1391056Y1282954D01*
X1396136Y1279804D01*
X1405026Y1275638D01*
X1414526Y1273098D01*
X1424330Y1272235D01*
X1434084Y1273098D01*
X1443583Y1275638D01*
X1452473Y1279804D01*
X1460550Y1285443D01*
X1464411Y1289354D01*
X1467561Y1291488D01*
X1471218Y1292301D01*
X1474978Y1291742D01*
X1478534Y1290472D01*
X1484884Y1289761D01*
X1491437Y1289761D01*
X1491437Y1329080D01*
X1486255Y1329791D01*
X1483055Y1331772D01*
X1480820Y1334770D01*
X1477264Y1347876D01*
X1473098Y1356766D01*
X1467104Y1365300D01*
X1465427Y1369364D01*
X1465630Y1373784D01*
X1467662Y1377645D01*
X1471168Y1380337D01*
X1475435Y1381302D01*
X1491437Y1381302D01*
X1491437Y1388618D01*
X1492199Y1392529D01*
X1494434Y1395831D01*
X1497736Y1398016D01*
X1501597Y1398778D01*
X1521002Y1398778D01*
X1524863Y1398016D01*
X1528165Y1395831D01*
X1530400Y1392529D01*
X1531162Y1388618D01*
X1531162Y1381302D01*
X1564182Y1381302D01*
X1564182Y1394104D01*
X1563471Y1400454D01*
X1561439Y1406347D01*
X1560880Y1409700D01*
X1561439Y1413052D01*
X1563471Y1418945D01*
X1564182Y1425295D01*
X1564182Y1503121D01*
X1563471Y1509471D01*
X1561592Y1514906D01*
X1558493Y1519834D01*
X1554429Y1523898D01*
X1549501Y1526997D01*
X1544066Y1528927D01*
X1537716Y1529638D01*
X1484884Y1529638D01*
X1478534Y1528927D01*
X1473098Y1526997D01*
X1468170Y1523898D01*
X1464106Y1520596D01*
X1435557Y1506270D01*
X1430985Y1505204D01*
X1414322Y1505204D01*
X1410462Y1505966D01*
X1407160Y1508201D01*
X1402791Y1512570D01*
X1400556Y1515872D01*
X1399794Y1519732D01*
X1399794Y1584248D01*
X1400302Y1587449D01*
X1401826Y1590294D01*
X1404162Y1592580D01*
X1407820Y1595120D01*
X1414780Y1602079D01*
X1420418Y1610106D01*
X1424533Y1619046D01*
X1427073Y1628495D01*
X1427937Y1638300D01*
X1427073Y1648104D01*
X1424533Y1657553D01*
X1420418Y1666493D01*
X1414780Y1674520D01*
X1407820Y1681480D01*
X1399794Y1687118D01*
X1390853Y1691233D01*
X1381404Y1693773D01*
X1371600Y1694637D01*
X1357426Y1693316D01*
X1353870Y1694383D01*
X1350924Y1696618D01*
X1348994Y1699768D01*
X1348282Y1703425D01*
X1348282Y1711655D01*
X1347571Y1717954D01*
X1345539Y1723847D01*
X1344980Y1727200D01*
X1345539Y1730552D01*
X1347571Y1736445D01*
X1348282Y1742744D01*
X1348282Y1750009D01*
X1315262Y1750009D01*
X1315262Y1748282D01*
X1314500Y1744370D01*
X1312265Y1741068D01*
X1308963Y1738884D01*
X1305102Y1738122D01*
X1285697Y1738122D01*
X1281836Y1738884D01*
X1278534Y1741068D01*
X1276299Y1744370D01*
X1275537Y1748282D01*
X1275537Y1750009D01*
X1248156Y1750009D01*
X1244295Y1750771D01*
X1240993Y1752955D01*
X1238808Y1756257D01*
X1237996Y1760169D01*
X1238808Y1764030D01*
X1240993Y1767332D01*
X1261668Y1788007D01*
X1264970Y1790192D01*
X1268831Y1790954D01*
X1275537Y1790954D01*
X1275537Y1797710D01*
X1276299Y1801571D01*
X1278534Y1804873D01*
X1295704Y1822043D01*
X1298752Y1824177D01*
X1302359Y1825040D01*
X1304544Y1825142D01*
X1308608Y1824532D01*
X1312062Y1822399D01*
X1314399Y1818995D01*
X1315262Y1814982D01*
X1315262Y1790954D01*
X1348282Y1790954D01*
X1348282Y1798218D01*
X1347571Y1804517D01*
X1345692Y1809953D01*
X1342440Y1815134D01*
X1340967Y1819148D01*
X1341272Y1823415D01*
X1343355Y1827174D01*
X1346758Y1829765D01*
X1348994Y1830781D01*
X1354074Y1833981D01*
X1365199Y1838045D01*
X1368704Y1838706D01*
X1650492Y1838706D01*
X1658975Y1839518D01*
X1666646Y1841855D01*
X1673707Y1845614D01*
X1680260Y1851050D01*
X1793849Y1964639D01*
X1799285Y1971192D01*
X1803044Y1978253D01*
X1805381Y1985924D01*
X1806193Y1994407D01*
X1806193Y2034895D01*
X1806854Y2038400D01*
X1810918Y2049525D01*
X1814118Y2054606D01*
X1818233Y2063546D01*
X1820773Y2072995D01*
X1821637Y2082800D01*
X1821332Y2086660D01*
X1821891Y2091080D01*
X1824380Y2094839D01*
X1828190Y2097176D01*
X1832660Y2097633D01*
X1836877Y2096109D01*
X1840026Y2092960D01*
X1841601Y2090470D01*
X1845665Y2086406D01*
X1850593Y2083307D01*
X1856028Y2081428D01*
X1862378Y2080666D01*
X1877263Y2080615D01*
X1882952Y2079853D01*
X1886407Y2078736D01*
X1889252Y2076500D01*
X1891131Y2073351D01*
X1891792Y2069795D01*
X1891792Y2056231D01*
X1890826Y2051862D01*
X1885289Y2040280D01*
X1881581Y2034793D01*
X1877466Y2025853D01*
X1874926Y2016404D01*
X1874062Y2006600D01*
X1874926Y1996795D01*
X1877466Y1987346D01*
X1881581Y1978406D01*
X1887220Y1970379D01*
X1894179Y1963420D01*
X1902206Y1957781D01*
X1911146Y1953666D01*
X1920595Y1951126D01*
X1930400Y1950262D01*
X1940204Y1951126D01*
X1949653Y1953666D01*
X1958593Y1957781D01*
X1966620Y1963420D01*
X1973580Y1970379D01*
X1979218Y1978406D01*
X1983333Y1987346D01*
X1985873Y1996795D01*
X1986737Y2006600D01*
X1985873Y2016404D01*
X1983333Y2025853D01*
X1979218Y2034793D01*
X1975510Y2040280D01*
X1969973Y2051862D01*
X1969007Y2056231D01*
X1969007Y2070506D01*
X1969770Y2074418D01*
X1972005Y2077720D01*
X1975256Y2079904D01*
X1979168Y2080666D01*
X1984197Y2080666D01*
X1984197Y2113737D01*
X1976882Y2113737D01*
X1972970Y2114499D01*
X1969668Y2116734D01*
X1967484Y2120036D01*
X1966722Y2123897D01*
X1966722Y2143302D01*
X1967484Y2147163D01*
X1969668Y2150465D01*
X1972970Y2152700D01*
X1976882Y2153462D01*
X1984197Y2153462D01*
X1984197Y2186482D01*
X1971395Y2186482D01*
X1965045Y2185771D01*
X1959152Y2183739D01*
X1955800Y2183180D01*
X1952447Y2183739D01*
X1946554Y2185771D01*
X1940204Y2186482D01*
X1862378Y2186482D01*
X1856028Y2185771D01*
X1850593Y2183892D01*
X1845665Y2180793D01*
X1841601Y2176729D01*
X1838502Y2171801D01*
X1836572Y2166366D01*
X1835861Y2160016D01*
X1835861Y2110079D01*
X1835150Y2106269D01*
X1833016Y2103018D01*
X1829765Y2100783D01*
X1825955Y2099919D01*
X1822145Y2100580D01*
X1818792Y2102662D01*
X1816506Y2105812D01*
X1814118Y2110994D01*
X1808480Y2119020D01*
X1801520Y2125980D01*
X1793493Y2131618D01*
X1784553Y2135733D01*
X1775104Y2138273D01*
X1765300Y2139137D01*
X1755495Y2138273D01*
X1746046Y2135733D01*
X1737106Y2131618D01*
X1729079Y2125980D01*
X1722120Y2119020D01*
X1716481Y2110994D01*
X1712366Y2102053D01*
X1709826Y2092604D01*
X1708962Y2082800D01*
X1709826Y2072995D01*
X1712366Y2063546D01*
X1716481Y2054606D01*
X1719681Y2049525D01*
X1723745Y2038400D01*
X1724406Y2034895D01*
X1724406Y2015032D01*
X1723643Y2011172D01*
X1721408Y2007870D01*
X1637030Y1923491D01*
X1633728Y1921256D01*
X1629867Y1920493D01*
X1386535Y1920493D01*
X1382369Y1921408D01*
X1378966Y1923897D01*
X1376832Y1927555D01*
X1376426Y1931822D01*
X1376730Y1934260D01*
X1376730Y1963115D01*
X1376019Y1969414D01*
X1374089Y1974900D01*
X1372158Y1979320D01*
X1372158Y1983079D01*
X1374089Y1987448D01*
X1376019Y1992934D01*
X1376730Y1999843D01*
X1342136Y1999843D01*
X1341374Y1995881D01*
X1339189Y1992579D01*
X1335887Y1990343D01*
X1331976Y1989582D01*
X1309624Y1989582D01*
X1305712Y1990343D01*
X1302410Y1992579D01*
X1300226Y1995881D01*
X1299464Y1999843D01*
X1215136Y1999843D01*
X1214374Y1995881D01*
X1212189Y1992579D01*
X1208887Y1990343D01*
X1204976Y1989582D01*
X1182624Y1989582D01*
X1178712Y1990343D01*
X1175410Y1992579D01*
X1173226Y1995881D01*
X1172464Y1999843D01*
X1137869Y1999843D01*
X1138580Y1992934D01*
X1140510Y1987448D01*
X1142441Y1983079D01*
X1142441Y1979320D01*
X1140510Y1974900D01*
X1138580Y1969414D01*
X1137869Y1963115D01*
X1137869Y1934260D01*
X1138580Y1927910D01*
X1140510Y1922475D01*
X1145997Y1914296D01*
X1146911Y1910892D01*
X1146606Y1907387D01*
X1140866Y1895093D01*
X1138326Y1885594D01*
X1137462Y1875789D01*
X1138326Y1866036D01*
X1140866Y1856536D01*
X1144981Y1847646D01*
X1151026Y1839010D01*
X1152702Y1835200D01*
X1152702Y1831086D01*
X1151026Y1827326D01*
X1148029Y1824532D01*
X1144168Y1823110D01*
X1140104Y1823364D01*
X1138021Y1823923D01*
X1131316Y1824685D01*
X1078484Y1824685D01*
X1072134Y1823974D01*
X1066698Y1822043D01*
X1061770Y1818944D01*
X1057706Y1814880D01*
X1054608Y1809953D01*
X1052728Y1804517D01*
X1052017Y1798218D01*
X1052017Y1742744D01*
X1052728Y1736445D01*
X1054760Y1730552D01*
X1055319Y1727200D01*
X1054760Y1723847D01*
X1052728Y1717954D01*
X1052017Y1711655D01*
X1052017Y1668983D01*
X1051204Y1665122D01*
X1043381Y1653793D01*
X1039266Y1644853D01*
X1036726Y1635404D01*
X1035862Y1625600D01*
X1036726Y1615795D01*
X1039266Y1606346D01*
X1043381Y1597406D01*
X1049020Y1589379D01*
X1056182Y1582267D01*
X1058367Y1578965D01*
X1059129Y1575054D01*
X1058367Y1571193D01*
X1056182Y1567891D01*
X1052880Y1565656D01*
X1048969Y1564894D01*
X1024432Y1564894D01*
X1020571Y1565656D01*
X1017269Y1567891D01*
X972769Y1612392D01*
X970737Y1615440D01*
X967689Y1617421D01*
X951839Y1633321D01*
X949756Y1636268D01*
X946302Y1643837D01*
X945337Y1648104D01*
X945337Y1663446D01*
X942035Y1663954D01*
X939139Y1665427D01*
X936904Y1667764D01*
X932180Y1674520D01*
X925220Y1681480D01*
X918870Y1685950D01*
X915974Y1689049D01*
X914603Y1693062D01*
X915009Y1697329D01*
X917092Y1700987D01*
X920496Y1703527D01*
X924661Y1704390D01*
X945337Y1704390D01*
X945337Y1706118D01*
X946099Y1710029D01*
X948334Y1713331D01*
X951636Y1715516D01*
X955497Y1716278D01*
X974902Y1716278D01*
X978763Y1715516D01*
X982065Y1713331D01*
X984300Y1710029D01*
X985062Y1706118D01*
X985062Y1704390D01*
X1018133Y1704390D01*
X1018133Y1711655D01*
X1017371Y1717954D01*
X1015339Y1723847D01*
X1014780Y1727200D01*
X1015339Y1730552D01*
X1017371Y1736445D01*
X1018133Y1742744D01*
X1018133Y1798218D01*
X1017371Y1804517D01*
X1015492Y1809953D01*
X1012393Y1814880D01*
X1008329Y1818944D01*
X1003401Y1822043D01*
X997966Y1823974D01*
X991616Y1824685D01*
X938784Y1824685D01*
X932434Y1823974D01*
X926998Y1822043D01*
X922070Y1818944D01*
X917651Y1814575D01*
X915060Y1812696D01*
X903884Y1807006D01*
X899363Y1805939D01*
X846023Y1805635D01*
X841451Y1806702D01*
X838962Y1807921D01*
X836015Y1810105D01*
X834034Y1813204D01*
X833323Y1816811D01*
X833170Y1823923D01*
X831900Y1829765D01*
X823823Y1853996D01*
X823315Y1857197D01*
X823315Y1878888D01*
X823671Y1881581D01*
X824788Y1884121D01*
X832662Y1897176D01*
X836218Y1902206D01*
X840333Y1911146D01*
X842873Y1920595D01*
X843737Y1930400D01*
X842873Y1940204D01*
X840333Y1949653D01*
X836218Y1958593D01*
X830580Y1966620D01*
X823620Y1973580D01*
X815594Y1979218D01*
X806653Y1983333D01*
X797204Y1985873D01*
X787400Y1986737D01*
X777595Y1985873D01*
X768146Y1983333D01*
X759206Y1979218D01*
X754278Y1975764D01*
X750214Y1974088D01*
X745845Y1974240D01*
X741934Y1976272D01*
X739241Y1979777D01*
X738327Y1984095D01*
X738327Y1992782D01*
X739140Y1996795D01*
X748182Y2017928D01*
X750366Y2021179D01*
X753668Y2023364D01*
X757529Y2024125D01*
X811428Y2024125D01*
X814324Y2023719D01*
X855827Y2011476D01*
X862584Y2010714D01*
X915416Y2010714D01*
X921766Y2011425D01*
X927201Y2013356D01*
X932129Y2016455D01*
X936193Y2020519D01*
X939292Y2025446D01*
X941171Y2030882D01*
X941933Y2037181D01*
X941933Y2092655D01*
X941171Y2098954D01*
X939139Y2104847D01*
X938580Y2108200D01*
X939139Y2111552D01*
X941171Y2117445D01*
X941933Y2123744D01*
X941933Y2179218D01*
X941171Y2185517D01*
X939292Y2190953D01*
X936193Y2195880D01*
X932129Y2199944D01*
X927201Y2203043D01*
X921766Y2204974D01*
X915416Y2205685D01*
X893927Y2205685D01*
X891438Y2205990D01*
X889152Y2206853D01*
X884326Y2209444D01*
X876655Y2211781D01*
X868171Y2212594D01*
X657504Y2212594D01*
X653999Y2213254D01*
X642874Y2217318D01*
X637794Y2220518D01*
X628853Y2224633D01*
X619404Y2227173D01*
X612597Y2227783D01*
X609193Y2228697D01*
X606298Y2230729D01*
X598474Y2238349D01*
X596950Y2242413D01*
X597204Y2246731D01*
X599287Y2250541D01*
X602742Y2253183D01*
X606958Y2254097D01*
X3354578Y2254097D01*
X3358438Y2253335D01*
X3361740Y2251151D01*
X3363925Y2247849D01*
X3364737Y2243937D01*
X3363976Y2240076D01*
X3361791Y2236774D01*
X3358489Y2234590D01*
X3349650Y2230831D01*
X3329127Y2220112D01*
X3309620Y2207768D01*
X3291230Y2193798D01*
X3274060Y2178304D01*
X3258261Y2161489D01*
X3243884Y2143353D01*
X3231083Y2124100D01*
X3219958Y2103882D01*
X3210560Y2082749D01*
X3202990Y2060956D01*
X3197250Y2038553D01*
X3193389Y2015794D01*
X3191459Y1992731D01*
X3191459Y1969668D01*
X3193389Y1946605D01*
X3197250Y1923846D01*
X3202990Y1901443D01*
X3210560Y1879650D01*
X3219958Y1858518D01*
X3231083Y1838299D01*
X3243884Y1819046D01*
X3258261Y1800910D01*
X3274060Y1784096D01*
X3291230Y1768602D01*
X3309620Y1754632D01*
X3329127Y1742287D01*
X3349650Y1731568D01*
X3370935Y1722628D01*
X3392881Y1715465D01*
X3415385Y1710182D01*
X3438245Y1706829D01*
X3461308Y1705356D01*
X3484422Y1705864D01*
X3507384Y1708251D01*
X3530092Y1712569D01*
X3552342Y1718818D01*
X3574034Y1726844D01*
X3594912Y1736699D01*
X3614928Y1748231D01*
X3633927Y1761439D01*
X3651707Y1776171D01*
X3668217Y1792325D01*
X3683304Y1809800D01*
X3696919Y1828495D01*
X3708857Y1848307D01*
X3714445Y1859483D01*
X3717290Y1862988D01*
X3721354Y1864868D01*
X3725824Y1864868D01*
X3729888Y1862886D01*
X3732682Y1859330D01*
X3733698Y1854962D01*
X3733698Y101244D01*
X3732733Y88747D01*
X3730396Y78486D01*
X3726586Y68630D01*
X3721455Y59385D01*
X3715054Y51003D01*
X3707485Y43637D01*
X3699001Y37388D01*
X3689654Y32410D01*
X3679748Y28803D01*
X3669385Y26670D01*
X3658362Y25908D01*
G37*

%LPC*%
G36*
X2036419Y2153462D02*
G01*
X2075738Y2153462D01*
X2075738Y2160016D01*
X2075027Y2166366D01*
X2073097Y2171801D01*
X2069998Y2176729D01*
X2065934Y2180793D01*
X2061006Y2183892D01*
X2055571Y2185771D01*
X2049221Y2186482D01*
X2036419Y2186482D01*
G37*
G36*
X817219Y124866D02*
G01*
X830021Y124866D01*
X836371Y125628D01*
X841806Y127508D01*
X846734Y130606D01*
X850798Y134670D01*
X853897Y139598D01*
X855827Y145034D01*
X856538Y151384D01*
X856538Y157937D01*
X817219Y157937D01*
G37*
G36*
X2343861Y159562D02*
G01*
X2383180Y159562D01*
X2383180Y192582D01*
X2370378Y192582D01*
X2364028Y191871D01*
X2358593Y189992D01*
X2353665Y186893D01*
X2349601Y182829D01*
X2346502Y177901D01*
X2344572Y172466D01*
X2343861Y166116D01*
G37*
G36*
X1138986Y231394D02*
G01*
X1147064Y231394D01*
X1147064Y258470D01*
X1112469Y258470D01*
X1113180Y251561D01*
X1115110Y246075D01*
X1118209Y241198D01*
X1122273Y237083D01*
X1127201Y234035D01*
X1132636Y232105D01*
G37*
G36*
X1316736Y231394D02*
G01*
X1324813Y231394D01*
X1331163Y232105D01*
X1336598Y234035D01*
X1341526Y237083D01*
X1345590Y241198D01*
X1348689Y246075D01*
X1350619Y251561D01*
X1351330Y258470D01*
X1316736Y258470D01*
G37*
G36*
X1189736Y231394D02*
G01*
X1197813Y231394D01*
X1204163Y232105D01*
X1209598Y234035D01*
X1214526Y237083D01*
X1218590Y241198D01*
X1221689Y246075D01*
X1222298Y247904D01*
X1224432Y251460D01*
X1227836Y253847D01*
X1231900Y254711D01*
X1235964Y253847D01*
X1239367Y251460D01*
X1241501Y247904D01*
X1242110Y246075D01*
X1245209Y241198D01*
X1249273Y237083D01*
X1254201Y234035D01*
X1259636Y232105D01*
X1265986Y231394D01*
X1274064Y231394D01*
X1274064Y258470D01*
X1189736Y258470D01*
G37*
G36*
X3378200Y273862D02*
G01*
X3388004Y274726D01*
X3401669Y278587D01*
X3405022Y278384D01*
X3408375Y276910D01*
X3413810Y274980D01*
X3420160Y274269D01*
X3449015Y274269D01*
X3455314Y274980D01*
X3460800Y276910D01*
X3465220Y278841D01*
X3468979Y278841D01*
X3473348Y276910D01*
X3478834Y274980D01*
X3485743Y274269D01*
X3485743Y308864D01*
X3481781Y309626D01*
X3478479Y311810D01*
X3476244Y315112D01*
X3475482Y319024D01*
X3475482Y341376D01*
X3476244Y345287D01*
X3478479Y348589D01*
X3481781Y350774D01*
X3485743Y351536D01*
X3485743Y435864D01*
X3481781Y436626D01*
X3478479Y438810D01*
X3476244Y442112D01*
X3475482Y446024D01*
X3475482Y468376D01*
X3476244Y472287D01*
X3478479Y475589D01*
X3481781Y477774D01*
X3485743Y478535D01*
X3485743Y513130D01*
X3478834Y512419D01*
X3473348Y510489D01*
X3468979Y508558D01*
X3465220Y508558D01*
X3460800Y510489D01*
X3455314Y512419D01*
X3449015Y513130D01*
X3420160Y513130D01*
X3413810Y512419D01*
X3405022Y509016D01*
X3401669Y508812D01*
X3388004Y512673D01*
X3378200Y513537D01*
X3368395Y512673D01*
X3358946Y510133D01*
X3350006Y506018D01*
X3344418Y502107D01*
X3331921Y494588D01*
X3329381Y493471D01*
X3326688Y493115D01*
X3246526Y493115D01*
X3240633Y492658D01*
X3236264Y491490D01*
X3233674Y491185D01*
X3199384Y491185D01*
X3193034Y490474D01*
X3187598Y488543D01*
X3182670Y485444D01*
X3178606Y481380D01*
X3175508Y476453D01*
X3173628Y471017D01*
X3172917Y464718D01*
X3172917Y409244D01*
X3173628Y402945D01*
X3175660Y397052D01*
X3176219Y393700D01*
X3175660Y390347D01*
X3173628Y384454D01*
X3172917Y378155D01*
X3172917Y322681D01*
X3173628Y316382D01*
X3175508Y310946D01*
X3178606Y306019D01*
X3182670Y301955D01*
X3187598Y298856D01*
X3193034Y296926D01*
X3199384Y296214D01*
X3233674Y296214D01*
X3236264Y295910D01*
X3240633Y294741D01*
X3246526Y294284D01*
X3326688Y294284D01*
X3329381Y293928D01*
X3331921Y292811D01*
X3344976Y284937D01*
X3350006Y281381D01*
X3358946Y277266D01*
X3368395Y274726D01*
G37*
G36*
X3513429Y274269D02*
G01*
X3520338Y274980D01*
X3525824Y276910D01*
X3530701Y280009D01*
X3534816Y284073D01*
X3537864Y289001D01*
X3539794Y294436D01*
X3540506Y300786D01*
X3540506Y308864D01*
X3513429Y308864D01*
G37*
G36*
X1112469Y286156D02*
G01*
X1147064Y286156D01*
X1147826Y290118D01*
X1150010Y293420D01*
X1153312Y295656D01*
X1157224Y296418D01*
X1179576Y296418D01*
X1183487Y295656D01*
X1186789Y293420D01*
X1188974Y290118D01*
X1189736Y286156D01*
X1274064Y286156D01*
X1274826Y290118D01*
X1277010Y293420D01*
X1280312Y295656D01*
X1284224Y296418D01*
X1306576Y296418D01*
X1310487Y295656D01*
X1313789Y293420D01*
X1315974Y290118D01*
X1316736Y286156D01*
X1351330Y286156D01*
X1350619Y293065D01*
X1348689Y298551D01*
X1346758Y302920D01*
X1346758Y306679D01*
X1348689Y311099D01*
X1350619Y316585D01*
X1351330Y322884D01*
X1351330Y351739D01*
X1350822Y357784D01*
X1351737Y368300D01*
X1350873Y378104D01*
X1348333Y387553D01*
X1344218Y396494D01*
X1338580Y404520D01*
X1331620Y411480D01*
X1323594Y417118D01*
X1314653Y421233D01*
X1305204Y423773D01*
X1295400Y424637D01*
X1285595Y423773D01*
X1276146Y421233D01*
X1267206Y417118D01*
X1259179Y411480D01*
X1252220Y404520D01*
X1246632Y396494D01*
X1242009Y386588D01*
X1239570Y383235D01*
X1236014Y381203D01*
X1231950Y380695D01*
X1227988Y381863D01*
X1224838Y384505D01*
X1218641Y397916D01*
X1213002Y405942D01*
X1206042Y412902D01*
X1198016Y418541D01*
X1189075Y422656D01*
X1179626Y425196D01*
X1169822Y426059D01*
X1160018Y425196D01*
X1150569Y422656D01*
X1141628Y418541D01*
X1133602Y412902D01*
X1126642Y405942D01*
X1121003Y397916D01*
X1116888Y388975D01*
X1114348Y379526D01*
X1113485Y369722D01*
X1114044Y363169D01*
X1113180Y358089D01*
X1112469Y351739D01*
X1112469Y322884D01*
X1113180Y316585D01*
X1115110Y311099D01*
X1117041Y306679D01*
X1117041Y302920D01*
X1115110Y298551D01*
X1113180Y293065D01*
G37*
G36*
X3027019Y302666D02*
G01*
X3039821Y302666D01*
X3046171Y303428D01*
X3051606Y305308D01*
X3056534Y308406D01*
X3060598Y312470D01*
X3063697Y317398D01*
X3065627Y322834D01*
X3066338Y329184D01*
X3066338Y335737D01*
X3027019Y335737D01*
G37*
G36*
X3513429Y351536D02*
G01*
X3540506Y351536D01*
X3540506Y359613D01*
X3539794Y365963D01*
X3537864Y371398D01*
X3534816Y376326D01*
X3530701Y380390D01*
X3525824Y383489D01*
X3523996Y384098D01*
X3520440Y386232D01*
X3518052Y389636D01*
X3517188Y393700D01*
X3518052Y397764D01*
X3520440Y401167D01*
X3523996Y403301D01*
X3525824Y403910D01*
X3530701Y407009D01*
X3534816Y411073D01*
X3537864Y416001D01*
X3539794Y421436D01*
X3540506Y427786D01*
X3540506Y435864D01*
X3513429Y435864D01*
G37*
G36*
X3027019Y375462D02*
G01*
X3066338Y375462D01*
X3066338Y382016D01*
X3065627Y388366D01*
X3063697Y393801D01*
X3060598Y398729D01*
X3056534Y402793D01*
X3051606Y405892D01*
X3046171Y407771D01*
X3039821Y408482D01*
X3027019Y408482D01*
G37*
G36*
X1663700Y375462D02*
G01*
X1673504Y376326D01*
X1682953Y378866D01*
X1691893Y382981D01*
X1699920Y388620D01*
X1706880Y395579D01*
X1712518Y403606D01*
X1716633Y412546D01*
X1719173Y421995D01*
X1720037Y431800D01*
X1719173Y441604D01*
X1716633Y451053D01*
X1712518Y459993D01*
X1708607Y465582D01*
X1701088Y478078D01*
X1699971Y480618D01*
X1699615Y483311D01*
X1699615Y570788D01*
X1699971Y573481D01*
X1701088Y576021D01*
X1708962Y589076D01*
X1712518Y594106D01*
X1716633Y603046D01*
X1719173Y612495D01*
X1720037Y622300D01*
X1719173Y632104D01*
X1716633Y641553D01*
X1712518Y650494D01*
X1706880Y658520D01*
X1699920Y665480D01*
X1691893Y671118D01*
X1682953Y675233D01*
X1673504Y677773D01*
X1663700Y678637D01*
X1653895Y677773D01*
X1644446Y675233D01*
X1635506Y671118D01*
X1627479Y665480D01*
X1620520Y658520D01*
X1614881Y650494D01*
X1610766Y641553D01*
X1608226Y632104D01*
X1607362Y622300D01*
X1608226Y612495D01*
X1610766Y603046D01*
X1614881Y594106D01*
X1618792Y588518D01*
X1626311Y576021D01*
X1627428Y573481D01*
X1627784Y570788D01*
X1627784Y483311D01*
X1627428Y480618D01*
X1626311Y478078D01*
X1618437Y465023D01*
X1614881Y459993D01*
X1610766Y451053D01*
X1608226Y441604D01*
X1607362Y431800D01*
X1608226Y421995D01*
X1610766Y412546D01*
X1614881Y403606D01*
X1620520Y395579D01*
X1627479Y388620D01*
X1635506Y382981D01*
X1644446Y378866D01*
X1653895Y376326D01*
G37*
G36*
X1737817Y385419D02*
G01*
X1770837Y385419D01*
X1770837Y424738D01*
X1764284Y424738D01*
X1757934Y424027D01*
X1752498Y422097D01*
X1747570Y418998D01*
X1743506Y414934D01*
X1740407Y410006D01*
X1738528Y404571D01*
X1737817Y398221D01*
G37*
G36*
X1810562Y385419D02*
G01*
X1843582Y385419D01*
X1843582Y398221D01*
X1842871Y404571D01*
X1840992Y410006D01*
X1837893Y414934D01*
X1833829Y418998D01*
X1828901Y422097D01*
X1823466Y424027D01*
X1817116Y424738D01*
X1810562Y424738D01*
G37*
G36*
X2036419Y2080666D02*
G01*
X2049221Y2080666D01*
X2055571Y2081428D01*
X2061006Y2083307D01*
X2065934Y2086406D01*
X2069998Y2090470D01*
X2073097Y2095398D01*
X2075027Y2100834D01*
X2075738Y2107184D01*
X2075738Y2113737D01*
X2036419Y2113737D01*
G37*
G36*
X2293162Y419354D02*
G01*
X2326182Y419354D01*
X2326182Y426618D01*
X2325471Y432917D01*
X2323592Y438353D01*
X2320493Y443280D01*
X2316429Y447344D01*
X2311501Y450443D01*
X2306066Y452374D01*
X2299716Y453085D01*
X2293162Y453085D01*
G37*
G36*
X2220417Y419354D02*
G01*
X2253437Y419354D01*
X2253437Y453085D01*
X2246884Y453085D01*
X2240534Y452374D01*
X2235098Y450443D01*
X2230170Y447344D01*
X2226106Y443280D01*
X2223008Y438353D01*
X2221128Y432917D01*
X2220417Y426618D01*
G37*
G36*
X3513429Y478535D02*
G01*
X3540506Y478535D01*
X3540506Y486613D01*
X3539794Y492963D01*
X3537864Y498398D01*
X3534816Y503326D01*
X3530701Y507390D01*
X3525824Y510489D01*
X3520338Y512419D01*
X3513429Y513130D01*
G37*
G36*
X2978962Y540461D02*
G01*
X2985516Y540461D01*
X2991866Y541172D01*
X2997301Y543102D01*
X3002229Y546201D01*
X3006293Y550265D01*
X3009392Y555193D01*
X3011271Y560628D01*
X3011982Y566978D01*
X3011982Y579780D01*
X2978962Y579780D01*
G37*
G36*
X2932684Y540461D02*
G01*
X2939237Y540461D01*
X2939237Y579780D01*
X2906217Y579780D01*
X2906217Y566978D01*
X2906928Y560628D01*
X2908808Y555193D01*
X2911906Y550265D01*
X2915970Y546201D01*
X2920898Y543102D01*
X2926334Y541172D01*
G37*
G36*
X1930400Y819962D02*
G01*
X1940204Y820826D01*
X1949653Y823366D01*
X1958593Y827481D01*
X1966620Y833119D01*
X1973580Y840079D01*
X1979218Y848106D01*
X1983333Y857046D01*
X1985873Y866495D01*
X1986737Y876300D01*
X1985873Y886104D01*
X1983333Y895553D01*
X1979218Y904494D01*
X1976018Y909015D01*
X1974342Y913028D01*
X1974545Y917397D01*
X1976526Y921308D01*
X1979930Y924001D01*
X1984197Y924966D01*
X1984197Y958037D01*
X1976882Y958037D01*
X1972970Y958799D01*
X1969668Y961034D01*
X1967484Y964336D01*
X1966722Y968197D01*
X1966722Y987602D01*
X1967484Y991463D01*
X1969668Y994765D01*
X1972970Y997000D01*
X1976882Y997762D01*
X1984197Y997762D01*
X1984197Y1030782D01*
X1971395Y1030782D01*
X1965045Y1030071D01*
X1959152Y1028039D01*
X1955800Y1027480D01*
X1952447Y1028039D01*
X1946554Y1030071D01*
X1940204Y1030782D01*
X1862378Y1030782D01*
X1856028Y1030071D01*
X1850593Y1028192D01*
X1845665Y1025093D01*
X1841601Y1021029D01*
X1838502Y1016101D01*
X1836572Y1010666D01*
X1835861Y1004316D01*
X1835861Y951484D01*
X1836572Y945134D01*
X1838502Y939698D01*
X1841601Y934770D01*
X1844903Y930706D01*
X1860194Y900074D01*
X1863445Y889863D01*
X1868779Y880364D01*
X1874875Y866698D01*
X1877466Y857046D01*
X1881581Y848106D01*
X1887220Y840079D01*
X1894179Y833119D01*
X1902206Y827481D01*
X1911146Y823366D01*
X1920595Y820826D01*
G37*
G36*
X858062Y863853D02*
G01*
X891133Y863853D01*
X891133Y871118D01*
X890371Y877417D01*
X888492Y882853D01*
X885393Y887780D01*
X881329Y891844D01*
X876401Y894943D01*
X870966Y896874D01*
X864616Y897585D01*
X858062Y897585D01*
G37*
G36*
X965200Y870762D02*
G01*
X975004Y871626D01*
X984453Y874166D01*
X993394Y878281D01*
X1001420Y883919D01*
X1008380Y890879D01*
X1014018Y898906D01*
X1018133Y907846D01*
X1019556Y913079D01*
X1021283Y916584D01*
X1024128Y919175D01*
X1027785Y920496D01*
X1031646Y920394D01*
X1035202Y918819D01*
X1038606Y916381D01*
X1047546Y912266D01*
X1056995Y909726D01*
X1066800Y908862D01*
X1076604Y909726D01*
X1086053Y912266D01*
X1094994Y916381D01*
X1103020Y922019D01*
X1109980Y928979D01*
X1115618Y937006D01*
X1119124Y944575D01*
X1121054Y947369D01*
X1123899Y949401D01*
X1127201Y950366D01*
X1133754Y951128D01*
X1139647Y953160D01*
X1143000Y953719D01*
X1146352Y953160D01*
X1152245Y951128D01*
X1158595Y950366D01*
X1171397Y950366D01*
X1171397Y983437D01*
X1164082Y983437D01*
X1160170Y984199D01*
X1156868Y986434D01*
X1154684Y989736D01*
X1153922Y993597D01*
X1153922Y1013002D01*
X1154684Y1016863D01*
X1156868Y1020165D01*
X1160170Y1022400D01*
X1164082Y1023162D01*
X1171397Y1023162D01*
X1171397Y1063396D01*
X1172159Y1067308D01*
X1174394Y1070610D01*
X1177696Y1072794D01*
X1189024Y1074267D01*
X1194511Y1076198D01*
X1199388Y1079296D01*
X1203502Y1083360D01*
X1206601Y1088288D01*
X1208481Y1093724D01*
X1209192Y1100074D01*
X1209192Y1218895D01*
X1208481Y1225245D01*
X1206601Y1230680D01*
X1203502Y1235608D01*
X1201674Y1237386D01*
X1199489Y1240688D01*
X1198727Y1244600D01*
X1199489Y1248460D01*
X1201674Y1251762D01*
X1203502Y1253591D01*
X1206601Y1258468D01*
X1208481Y1263954D01*
X1209192Y1270254D01*
X1209192Y1293317D01*
X1154633Y1293317D01*
X1154633Y1255572D01*
X1153871Y1251661D01*
X1151686Y1248359D01*
X1148384Y1246174D01*
X1144473Y1245412D01*
X1082090Y1245412D01*
X1078230Y1246174D01*
X1074928Y1248359D01*
X1072743Y1251661D01*
X1071930Y1255572D01*
X1071930Y1293317D01*
X1008989Y1293317D01*
X1004824Y1294231D01*
X1001420Y1296720D01*
X999337Y1300378D01*
X989685Y1330452D01*
X989228Y1333550D01*
X989228Y1389126D01*
X988517Y1395425D01*
X986586Y1400911D01*
X983487Y1405788D01*
X979424Y1409903D01*
X974496Y1412951D01*
X969060Y1414881D01*
X962710Y1415592D01*
X823874Y1415592D01*
X817575Y1414881D01*
X812088Y1412951D01*
X807212Y1409903D01*
X803097Y1405788D01*
X799998Y1400911D01*
X798118Y1395425D01*
X797407Y1389126D01*
X797407Y1270254D01*
X798118Y1263954D01*
X799998Y1258468D01*
X803097Y1253591D01*
X804875Y1251762D01*
X807110Y1248460D01*
X807872Y1244600D01*
X807110Y1240688D01*
X804875Y1237386D01*
X803097Y1235608D01*
X799998Y1230680D01*
X798118Y1225245D01*
X797407Y1218946D01*
X797407Y1195832D01*
X851966Y1195832D01*
X851966Y1233627D01*
X852728Y1237488D01*
X854913Y1240790D01*
X858215Y1243025D01*
X862126Y1243787D01*
X909624Y1243787D01*
X913130Y1243177D01*
X928014Y1237691D01*
X931468Y1235557D01*
X933805Y1232204D01*
X934669Y1228191D01*
X934669Y1195832D01*
X952246Y1195832D01*
X956106Y1195070D01*
X959408Y1192885D01*
X961644Y1189583D01*
X962406Y1185672D01*
X962406Y1133297D01*
X961644Y1129436D01*
X959408Y1126134D01*
X956106Y1123899D01*
X952246Y1123137D01*
X934669Y1123137D01*
X934669Y1075537D01*
X933907Y1071676D01*
X931722Y1068374D01*
X928471Y1066190D01*
X906678Y1056894D01*
X903833Y1056132D01*
X898245Y1055471D01*
X892352Y1053439D01*
X889253Y1052880D01*
X886155Y1053287D01*
X862126Y1053287D01*
X860602Y1053592D01*
X860602Y1023162D01*
X867918Y1023162D01*
X871829Y1022400D01*
X875131Y1020165D01*
X877316Y1016863D01*
X878078Y1013002D01*
X878078Y993597D01*
X877316Y989736D01*
X875131Y986434D01*
X871829Y984199D01*
X867918Y983437D01*
X860602Y983437D01*
X860602Y950366D01*
X873404Y950366D01*
X879754Y951128D01*
X885647Y953160D01*
X889000Y953719D01*
X892352Y953160D01*
X898245Y951128D01*
X901344Y950772D01*
X905459Y949350D01*
X908608Y946403D01*
X910234Y942340D01*
X908862Y927100D01*
X909726Y917295D01*
X912266Y907846D01*
X916381Y898906D01*
X922019Y890879D01*
X928979Y883919D01*
X937006Y878281D01*
X945946Y874166D01*
X955395Y871626D01*
G37*
G36*
X1511300Y921562D02*
G01*
X1521104Y922426D01*
X1530553Y924966D01*
X1539494Y929081D01*
X1547520Y934719D01*
X1554480Y941679D01*
X1560118Y949706D01*
X1565198Y960526D01*
X1568043Y965047D01*
X1569974Y970534D01*
X1570685Y976884D01*
X1570685Y1029716D01*
X1569974Y1036066D01*
X1568043Y1041501D01*
X1564944Y1046429D01*
X1560880Y1050493D01*
X1555953Y1053592D01*
X1551838Y1055573D01*
X1549603Y1057859D01*
X1548231Y1060704D01*
X1547114Y1064717D01*
X1543354Y1071727D01*
X1538224Y1077925D01*
X1517294Y1098905D01*
X1515059Y1102207D01*
X1514297Y1106119D01*
X1514297Y1110437D01*
X1509928Y1110437D01*
X1506067Y1111199D01*
X1502765Y1113434D01*
X1499768Y1116431D01*
X1497584Y1119682D01*
X1496822Y1123594D01*
X1496822Y1140002D01*
X1497584Y1143863D01*
X1499768Y1147165D01*
X1503070Y1149400D01*
X1506982Y1150162D01*
X1514297Y1150162D01*
X1514297Y1183182D01*
X1501495Y1183182D01*
X1495145Y1182471D01*
X1489252Y1180439D01*
X1485900Y1179880D01*
X1482547Y1180439D01*
X1476654Y1182471D01*
X1470304Y1183182D01*
X1392478Y1183182D01*
X1386128Y1182471D01*
X1380693Y1180592D01*
X1375765Y1177493D01*
X1371701Y1173429D01*
X1368602Y1168501D01*
X1366926Y1163675D01*
X1364894Y1160272D01*
X1361694Y1157884D01*
X1357833Y1156919D01*
X1353870Y1157478D01*
X1350467Y1159560D01*
X1348130Y1162761D01*
X1344218Y1171194D01*
X1338580Y1179220D01*
X1331620Y1186180D01*
X1323594Y1191818D01*
X1314653Y1195933D01*
X1305204Y1198473D01*
X1295400Y1199337D01*
X1285595Y1198473D01*
X1276146Y1195933D01*
X1267206Y1191818D01*
X1259179Y1186180D01*
X1252220Y1179220D01*
X1246581Y1171194D01*
X1242466Y1162253D01*
X1239926Y1152804D01*
X1239062Y1143000D01*
X1239926Y1133195D01*
X1242466Y1123746D01*
X1246581Y1114806D01*
X1250289Y1109319D01*
X1255826Y1097737D01*
X1256792Y1093368D01*
X1256792Y1064920D01*
X1256080Y1061110D01*
X1253998Y1057859D01*
X1250848Y1055674D01*
X1247089Y1054760D01*
X1242771Y1055471D01*
X1236421Y1056182D01*
X1223619Y1056182D01*
X1223619Y1023162D01*
X1267561Y1023162D01*
X1271422Y1022400D01*
X1274724Y1020165D01*
X1293164Y1001776D01*
X1299362Y996645D01*
X1306068Y993089D01*
X1313281Y990904D01*
X1321308Y990092D01*
X1365554Y990092D01*
X1369466Y989330D01*
X1372768Y987094D01*
X1374952Y983843D01*
X1375714Y979932D01*
X1375714Y976884D01*
X1376426Y970534D01*
X1378356Y965098D01*
X1381455Y960170D01*
X1385519Y956106D01*
X1390446Y953008D01*
X1395882Y951128D01*
X1402181Y950366D01*
X1456740Y950366D01*
X1459941Y949858D01*
X1462836Y948385D01*
X1465072Y946048D01*
X1468120Y941679D01*
X1475079Y934719D01*
X1483106Y929081D01*
X1492046Y924966D01*
X1501495Y922426D01*
G37*
G36*
X2036419Y924966D02*
G01*
X2049221Y924966D01*
X2055571Y925728D01*
X2061006Y927608D01*
X2065934Y930706D01*
X2069998Y934770D01*
X2073097Y939698D01*
X2075027Y945134D01*
X2075738Y951484D01*
X2075738Y958037D01*
X2036419Y958037D01*
G37*
G36*
X1223619Y950366D02*
G01*
X1236421Y950366D01*
X1242771Y951128D01*
X1248206Y953008D01*
X1253134Y956106D01*
X1257198Y960170D01*
X1260297Y965098D01*
X1262227Y970534D01*
X1262938Y976884D01*
X1262938Y983437D01*
X1223619Y983437D01*
G37*
G36*
X2036419Y997762D02*
G01*
X2075738Y997762D01*
X2075738Y1004316D01*
X2075027Y1010666D01*
X2073097Y1016101D01*
X2069998Y1021029D01*
X2065934Y1025093D01*
X2061006Y1028192D01*
X2055571Y1030071D01*
X2049221Y1030782D01*
X2036419Y1030782D01*
G37*
G36*
X1215136Y2027529D02*
G01*
X1299464Y2027529D01*
X1299464Y2054606D01*
X1291386Y2054606D01*
X1285036Y2053894D01*
X1279601Y2051964D01*
X1274673Y2048916D01*
X1270609Y2044801D01*
X1267510Y2039924D01*
X1266901Y2038096D01*
X1264767Y2034539D01*
X1261364Y2032152D01*
X1257300Y2031288D01*
X1253236Y2032152D01*
X1249832Y2034539D01*
X1247698Y2038096D01*
X1247089Y2039924D01*
X1243990Y2044801D01*
X1239926Y2048916D01*
X1234998Y2051964D01*
X1229563Y2053894D01*
X1223213Y2054606D01*
X1215136Y2054606D01*
G37*
G36*
X813968Y1075283D02*
G01*
X814679Y1075740D01*
X818540Y1076502D01*
X850442Y1076502D01*
X851966Y1076248D01*
X851966Y1123137D01*
X797407Y1123137D01*
X797407Y1100074D01*
X798118Y1093724D01*
X799998Y1088288D01*
X803097Y1083360D01*
X807212Y1079296D01*
G37*
G36*
X1566519Y1077366D02*
G01*
X1579321Y1077366D01*
X1585671Y1078128D01*
X1591106Y1080008D01*
X1596034Y1083106D01*
X1600098Y1087170D01*
X1603197Y1092098D01*
X1605127Y1097534D01*
X1605838Y1103884D01*
X1605838Y1110437D01*
X1566519Y1110437D01*
G37*
G36*
X3378200Y1086662D02*
G01*
X3388004Y1087526D01*
X3401669Y1091387D01*
X3405022Y1091184D01*
X3408375Y1089710D01*
X3413810Y1087780D01*
X3420160Y1087069D01*
X3449015Y1087069D01*
X3455314Y1087780D01*
X3460800Y1089710D01*
X3465220Y1091641D01*
X3468979Y1091641D01*
X3473348Y1089710D01*
X3478834Y1087780D01*
X3485743Y1087069D01*
X3485743Y1121664D01*
X3481781Y1122426D01*
X3478479Y1124610D01*
X3476244Y1127912D01*
X3475482Y1131824D01*
X3475482Y1154176D01*
X3476244Y1158087D01*
X3478479Y1161389D01*
X3481781Y1163574D01*
X3485743Y1164336D01*
X3485743Y1248664D01*
X3481781Y1249426D01*
X3478479Y1251610D01*
X3476244Y1254912D01*
X3475482Y1258824D01*
X3475482Y1281176D01*
X3476244Y1285087D01*
X3478479Y1288389D01*
X3481781Y1290574D01*
X3485743Y1291336D01*
X3485743Y1325930D01*
X3478834Y1325219D01*
X3473348Y1323289D01*
X3468979Y1321358D01*
X3465220Y1321358D01*
X3460800Y1323289D01*
X3455314Y1325219D01*
X3449015Y1325930D01*
X3420160Y1325930D01*
X3413810Y1325219D01*
X3405022Y1321816D01*
X3401669Y1321612D01*
X3388004Y1325473D01*
X3378200Y1326337D01*
X3368395Y1325473D01*
X3358946Y1322933D01*
X3350006Y1318818D01*
X3344418Y1314907D01*
X3331921Y1307388D01*
X3329381Y1306271D01*
X3326688Y1305915D01*
X3246526Y1305915D01*
X3240633Y1305458D01*
X3236264Y1304290D01*
X3233674Y1303985D01*
X3199384Y1303985D01*
X3193034Y1303274D01*
X3187598Y1301343D01*
X3182670Y1298244D01*
X3178606Y1294180D01*
X3175508Y1289253D01*
X3173628Y1283817D01*
X3172917Y1277518D01*
X3172917Y1222044D01*
X3173628Y1215745D01*
X3175660Y1209852D01*
X3176219Y1206500D01*
X3175660Y1203147D01*
X3173628Y1197254D01*
X3172917Y1190955D01*
X3172917Y1135481D01*
X3173628Y1129182D01*
X3175508Y1123746D01*
X3178606Y1118819D01*
X3182670Y1114755D01*
X3187598Y1111656D01*
X3193034Y1109726D01*
X3199384Y1109014D01*
X3233674Y1109014D01*
X3236264Y1108710D01*
X3240633Y1107541D01*
X3246526Y1107084D01*
X3326688Y1107084D01*
X3329381Y1106728D01*
X3331921Y1105611D01*
X3344976Y1097737D01*
X3350006Y1094181D01*
X3358946Y1090066D01*
X3368395Y1087526D01*
G37*
G36*
X3513429Y1087069D02*
G01*
X3520338Y1087780D01*
X3525824Y1089710D01*
X3530701Y1092809D01*
X3534816Y1096873D01*
X3537864Y1101801D01*
X3539794Y1107236D01*
X3540506Y1113586D01*
X3540506Y1121664D01*
X3513429Y1121664D01*
G37*
G36*
X3039719Y1115466D02*
G01*
X3052521Y1115466D01*
X3058871Y1116228D01*
X3064306Y1118108D01*
X3069234Y1121206D01*
X3073298Y1125270D01*
X3076397Y1130198D01*
X3078327Y1135634D01*
X3079038Y1141984D01*
X3079038Y1148537D01*
X3039719Y1148537D01*
G37*
G36*
X1342136Y2027529D02*
G01*
X1376730Y2027529D01*
X1376019Y2034438D01*
X1374089Y2039924D01*
X1370990Y2044801D01*
X1366926Y2048916D01*
X1361998Y2051964D01*
X1356563Y2053894D01*
X1350213Y2054606D01*
X1342136Y2054606D01*
G37*
G36*
X2435402Y86766D02*
G01*
X2448204Y86766D01*
X2454554Y87528D01*
X2460447Y89560D01*
X2463800Y90119D01*
X2467152Y89560D01*
X2473045Y87528D01*
X2479395Y86766D01*
X2557221Y86766D01*
X2563571Y87528D01*
X2569006Y89408D01*
X2573934Y92506D01*
X2577998Y96570D01*
X2581097Y101498D01*
X2583027Y106933D01*
X2583738Y113283D01*
X2583738Y166116D01*
X2583027Y172466D01*
X2581097Y177901D01*
X2577998Y182829D01*
X2573934Y186893D01*
X2569006Y189992D01*
X2566009Y191058D01*
X2562453Y193192D01*
X2560066Y196545D01*
X2559202Y200609D01*
X2559202Y229362D01*
X2559710Y232410D01*
X2561031Y235153D01*
X2563418Y238506D01*
X2566568Y245313D01*
X2568803Y248412D01*
X2572004Y250494D01*
X2575763Y251206D01*
X2691892Y251206D01*
X2700375Y252018D01*
X2708046Y254355D01*
X2715107Y258114D01*
X2721660Y263550D01*
X2769870Y311708D01*
X2773172Y313893D01*
X2777032Y314706D01*
X2825750Y314706D01*
X2829661Y313893D01*
X2832963Y311708D01*
X2836265Y308406D01*
X2841193Y305308D01*
X2846628Y303428D01*
X2852978Y302666D01*
X2930804Y302666D01*
X2937154Y303428D01*
X2943047Y305460D01*
X2946400Y306019D01*
X2949752Y305460D01*
X2955645Y303428D01*
X2961995Y302666D01*
X2974797Y302666D01*
X2974797Y335737D01*
X2967482Y335737D01*
X2963570Y336499D01*
X2960268Y338734D01*
X2958084Y342036D01*
X2957322Y345897D01*
X2957322Y365302D01*
X2958084Y369163D01*
X2960268Y372465D01*
X2963570Y374700D01*
X2967482Y375462D01*
X2974797Y375462D01*
X2974797Y408482D01*
X2961995Y408482D01*
X2955645Y407771D01*
X2949752Y405739D01*
X2946400Y405180D01*
X2943047Y405739D01*
X2937154Y407771D01*
X2930804Y408482D01*
X2852978Y408482D01*
X2846628Y407771D01*
X2841193Y405892D01*
X2836265Y402793D01*
X2832963Y399491D01*
X2829661Y397256D01*
X2825750Y396494D01*
X2756408Y396494D01*
X2747924Y395681D01*
X2740253Y393344D01*
X2733192Y389585D01*
X2726639Y384149D01*
X2678430Y335991D01*
X2675128Y333756D01*
X2671267Y332994D01*
X2540508Y332994D01*
X2532024Y332181D01*
X2524353Y329844D01*
X2517292Y326085D01*
X2513330Y323392D01*
X2510383Y322681D01*
X2504795Y322173D01*
X2495346Y319633D01*
X2486406Y315518D01*
X2478379Y309880D01*
X2471420Y302920D01*
X2465781Y294894D01*
X2461666Y285953D01*
X2459126Y276504D01*
X2458262Y266700D01*
X2459126Y256895D01*
X2461666Y247446D01*
X2465781Y238506D01*
X2471420Y230479D01*
X2474417Y227482D01*
X2476652Y224180D01*
X2477414Y220319D01*
X2477414Y200609D01*
X2476550Y196545D01*
X2474163Y193192D01*
X2470607Y191058D01*
X2467152Y189839D01*
X2463800Y189280D01*
X2460447Y189839D01*
X2454554Y191871D01*
X2448204Y192582D01*
X2435402Y192582D01*
X2435402Y159562D01*
X2442718Y159562D01*
X2446629Y158800D01*
X2449931Y156565D01*
X2452116Y153263D01*
X2452878Y149402D01*
X2452878Y129997D01*
X2452116Y126136D01*
X2449931Y122834D01*
X2446629Y120599D01*
X2442718Y119837D01*
X2435402Y119837D01*
G37*
G36*
X3513429Y1164336D02*
G01*
X3540506Y1164336D01*
X3540506Y1172413D01*
X3539794Y1178763D01*
X3537864Y1184198D01*
X3534816Y1189126D01*
X3530701Y1193190D01*
X3525824Y1196289D01*
X3523996Y1196898D01*
X3520440Y1199032D01*
X3518052Y1202436D01*
X3517188Y1206500D01*
X3518052Y1210564D01*
X3520440Y1213967D01*
X3523996Y1216101D01*
X3525824Y1216710D01*
X3530701Y1219809D01*
X3534816Y1223873D01*
X3537864Y1228801D01*
X3539794Y1234236D01*
X3540506Y1240586D01*
X3540506Y1248664D01*
X3513429Y1248664D01*
G37*
G36*
X2370378Y86766D02*
G01*
X2383180Y86766D01*
X2383180Y119837D01*
X2343861Y119837D01*
X2343861Y113283D01*
X2344572Y106933D01*
X2346502Y101498D01*
X2349601Y96570D01*
X2353665Y92506D01*
X2358593Y89408D01*
X2364028Y87528D01*
G37*
G36*
X3039719Y1188262D02*
G01*
X3079038Y1188262D01*
X3079038Y1194816D01*
X3078327Y1201166D01*
X3076397Y1206601D01*
X3073298Y1211529D01*
X3069234Y1215593D01*
X3064306Y1218692D01*
X3058871Y1220571D01*
X3052521Y1221282D01*
X3039719Y1221282D01*
G37*
G36*
X2370378Y1229766D02*
G01*
X2383180Y1229766D01*
X2383180Y1262837D01*
X2343861Y1262837D01*
X2343861Y1256284D01*
X2344572Y1249934D01*
X2346502Y1244498D01*
X2349601Y1239570D01*
X2353665Y1235506D01*
X2358593Y1232408D01*
X2364028Y1230528D01*
G37*
G36*
X2435402Y1229766D02*
G01*
X2448204Y1229766D01*
X2454554Y1230528D01*
X2460447Y1232560D01*
X2463800Y1233119D01*
X2467152Y1232560D01*
X2473045Y1230528D01*
X2479395Y1229766D01*
X2557221Y1229766D01*
X2563571Y1230528D01*
X2569006Y1232408D01*
X2573934Y1235506D01*
X2577998Y1239570D01*
X2581097Y1244498D01*
X2583027Y1249934D01*
X2583738Y1256284D01*
X2583738Y1309116D01*
X2583027Y1315466D01*
X2581097Y1320901D01*
X2577998Y1325829D01*
X2573934Y1329893D01*
X2569006Y1332992D01*
X2563571Y1334871D01*
X2558542Y1335989D01*
X2555798Y1337919D01*
X2553766Y1340612D01*
X2548788Y1350619D01*
X2547823Y1353566D01*
X2547823Y1356614D01*
X2548686Y1359560D01*
X2553665Y1369974D01*
X2557322Y1375460D01*
X2561488Y1384350D01*
X2564028Y1393850D01*
X2564892Y1403604D01*
X2564028Y1413408D01*
X2561488Y1422908D01*
X2557322Y1431798D01*
X2551684Y1439875D01*
X2544775Y1446784D01*
X2536698Y1452422D01*
X2527808Y1456588D01*
X2518308Y1459128D01*
X2508554Y1459992D01*
X2498750Y1459128D01*
X2489250Y1456588D01*
X2480360Y1452422D01*
X2472283Y1446784D01*
X2465374Y1439875D01*
X2459736Y1431798D01*
X2455570Y1422908D01*
X2453030Y1413408D01*
X2452166Y1403604D01*
X2453030Y1393850D01*
X2455570Y1384350D01*
X2459736Y1375460D01*
X2463444Y1369923D01*
X2468575Y1359103D01*
X2469591Y1354836D01*
X2468676Y1350568D01*
X2464358Y1340916D01*
X2461869Y1337462D01*
X2458212Y1335379D01*
X2453944Y1334973D01*
X2448204Y1335582D01*
X2435402Y1335582D01*
X2435402Y1302562D01*
X2442718Y1302562D01*
X2446629Y1301800D01*
X2449931Y1299565D01*
X2452116Y1296263D01*
X2452878Y1292402D01*
X2452878Y1272997D01*
X2452116Y1269136D01*
X2449931Y1265834D01*
X2446629Y1263599D01*
X2442718Y1262837D01*
X2435402Y1262837D01*
G37*
G36*
X1531162Y1289761D02*
G01*
X1537716Y1289761D01*
X1544066Y1290472D01*
X1549501Y1292402D01*
X1554429Y1295501D01*
X1558493Y1299565D01*
X1561592Y1304493D01*
X1563471Y1309928D01*
X1564182Y1316278D01*
X1564182Y1329080D01*
X1531162Y1329080D01*
G37*
G36*
X3513429Y1291336D02*
G01*
X3540506Y1291336D01*
X3540506Y1299413D01*
X3539794Y1305763D01*
X3537864Y1311198D01*
X3534816Y1316126D01*
X3530701Y1320190D01*
X3525824Y1323289D01*
X3520338Y1325219D01*
X3513429Y1325930D01*
G37*
G36*
X2343861Y1302562D02*
G01*
X2383180Y1302562D01*
X2383180Y1335582D01*
X2370378Y1335582D01*
X2364028Y1334871D01*
X2358593Y1332992D01*
X2353665Y1329893D01*
X2349601Y1325829D01*
X2346502Y1320901D01*
X2344572Y1315466D01*
X2343861Y1309116D01*
G37*
G36*
X1764284Y1340561D02*
G01*
X1817116Y1340561D01*
X1823466Y1341272D01*
X1828901Y1343202D01*
X1833829Y1346301D01*
X1837893Y1350365D01*
X1840992Y1355293D01*
X1842871Y1360728D01*
X1843582Y1367078D01*
X1843684Y1381963D01*
X1844446Y1387652D01*
X1845564Y1391107D01*
X1847799Y1393952D01*
X1850948Y1395831D01*
X1854504Y1396492D01*
X1880768Y1396492D01*
X1885137Y1395526D01*
X1896719Y1389989D01*
X1902206Y1386281D01*
X1911146Y1382166D01*
X1920595Y1379626D01*
X1930400Y1378762D01*
X1940204Y1379626D01*
X1949653Y1382166D01*
X1958593Y1386281D01*
X1966620Y1391920D01*
X1973580Y1398879D01*
X1979218Y1406906D01*
X1983333Y1415846D01*
X1986432Y1427937D01*
X1990394Y1439113D01*
X1992782Y1442923D01*
X2050084Y1500174D01*
X2053386Y1502410D01*
X2057298Y1503172D01*
X2074367Y1503172D01*
X2078228Y1502410D01*
X2087676Y1498549D01*
X2091283Y1496060D01*
X2093518Y1492300D01*
X2093975Y1487982D01*
X2093417Y1483055D01*
X2093417Y1427581D01*
X2094128Y1421282D01*
X2096007Y1415846D01*
X2099106Y1410919D01*
X2103170Y1406855D01*
X2108098Y1403756D01*
X2113534Y1401826D01*
X2119884Y1401114D01*
X2172716Y1401114D01*
X2179066Y1401826D01*
X2184501Y1403756D01*
X2189429Y1406855D01*
X2193391Y1410817D01*
X2196033Y1412748D01*
X2205278Y1417320D01*
X2208225Y1418285D01*
X2211374Y1418285D01*
X2214321Y1417320D01*
X2223566Y1412697D01*
X2227122Y1409903D01*
X2229510Y1406194D01*
X2230069Y1401826D01*
X2229662Y1397000D01*
X2230526Y1387195D01*
X2233066Y1377746D01*
X2237181Y1368806D01*
X2242820Y1360779D01*
X2249779Y1353820D01*
X2257806Y1348181D01*
X2266746Y1344066D01*
X2276195Y1341526D01*
X2286000Y1340662D01*
X2295804Y1341526D01*
X2305253Y1344066D01*
X2314194Y1348181D01*
X2322220Y1353820D01*
X2329180Y1360779D01*
X2334818Y1368806D01*
X2338933Y1377746D01*
X2341473Y1387195D01*
X2342337Y1397000D01*
X2341473Y1406804D01*
X2338933Y1416253D01*
X2334818Y1425194D01*
X2330907Y1430782D01*
X2327656Y1436166D01*
X2326589Y1438656D01*
X2326182Y1441399D01*
X2326182Y1483055D01*
X2325471Y1489354D01*
X2323439Y1495247D01*
X2322880Y1498600D01*
X2323439Y1501952D01*
X2325471Y1507845D01*
X2326182Y1514144D01*
X2326182Y1521409D01*
X2293162Y1521409D01*
X2293162Y1519682D01*
X2292400Y1515770D01*
X2290165Y1512468D01*
X2286863Y1510284D01*
X2283002Y1509522D01*
X2263597Y1509522D01*
X2259736Y1510284D01*
X2256434Y1512468D01*
X2254199Y1515770D01*
X2253437Y1519682D01*
X2253437Y1521409D01*
X2220417Y1521409D01*
X2220417Y1514144D01*
X2221128Y1507845D01*
X2222042Y1503172D01*
X2221280Y1499616D01*
X2219350Y1496517D01*
X2216404Y1494332D01*
X2211374Y1492351D01*
X2208225Y1492351D01*
X2203196Y1494332D01*
X2200249Y1496517D01*
X2198319Y1499616D01*
X2197557Y1503172D01*
X2198471Y1507845D01*
X2199182Y1514144D01*
X2199182Y1569618D01*
X2198471Y1575917D01*
X2196592Y1581353D01*
X2193493Y1586280D01*
X2189429Y1590344D01*
X2184501Y1593443D01*
X2179066Y1595374D01*
X2172716Y1596085D01*
X2119884Y1596085D01*
X2113381Y1595323D01*
X2109114Y1594002D01*
X2077720Y1581150D01*
X2073859Y1580388D01*
X2037588Y1580388D01*
X2029561Y1579575D01*
X2022348Y1577390D01*
X2015642Y1573834D01*
X2009444Y1568704D01*
X1938223Y1497482D01*
X1934413Y1495094D01*
X1923237Y1491132D01*
X1911146Y1488033D01*
X1902206Y1483918D01*
X1896719Y1480210D01*
X1885137Y1474673D01*
X1880768Y1473708D01*
X1853793Y1473708D01*
X1849882Y1474470D01*
X1846580Y1476705D01*
X1844395Y1479956D01*
X1843582Y1483868D01*
X1843582Y1488897D01*
X1810562Y1488897D01*
X1810562Y1481582D01*
X1809800Y1477670D01*
X1807565Y1474368D01*
X1804263Y1472184D01*
X1800402Y1471422D01*
X1780997Y1471422D01*
X1777136Y1472184D01*
X1773834Y1474368D01*
X1771599Y1477670D01*
X1770837Y1481582D01*
X1770837Y1488897D01*
X1737817Y1488897D01*
X1737817Y1476095D01*
X1738528Y1469745D01*
X1740560Y1463852D01*
X1741119Y1460500D01*
X1740560Y1457147D01*
X1738528Y1451254D01*
X1737817Y1444904D01*
X1737817Y1367078D01*
X1738528Y1360728D01*
X1740407Y1355293D01*
X1743506Y1350365D01*
X1747570Y1346301D01*
X1752498Y1343202D01*
X1757934Y1341272D01*
G37*
G36*
X1017371Y1366012D02*
G01*
X1071930Y1366012D01*
X1071930Y1415592D01*
X1043889Y1415592D01*
X1037539Y1414881D01*
X1032103Y1412951D01*
X1027176Y1409903D01*
X1023112Y1405788D01*
X1020013Y1400911D01*
X1018082Y1395425D01*
X1017371Y1389126D01*
G37*
G36*
X1154633Y1366012D02*
G01*
X1209192Y1366012D01*
X1209192Y1389126D01*
X1208481Y1395425D01*
X1206601Y1400911D01*
X1203502Y1405788D01*
X1199388Y1409903D01*
X1194511Y1412951D01*
X1189024Y1414881D01*
X1182725Y1415592D01*
X1154633Y1415592D01*
G37*
G36*
X1137869Y2027529D02*
G01*
X1172464Y2027529D01*
X1172464Y2054606D01*
X1164386Y2054606D01*
X1158036Y2053894D01*
X1152601Y2051964D01*
X1147673Y2048916D01*
X1143609Y2044801D01*
X1140510Y2039924D01*
X1138580Y2034438D01*
G37*
G36*
X1737817Y1541119D02*
G01*
X1770837Y1541119D01*
X1770837Y1580438D01*
X1764284Y1580438D01*
X1757934Y1579727D01*
X1752498Y1577797D01*
X1747570Y1574698D01*
X1743506Y1570634D01*
X1740407Y1565706D01*
X1738528Y1560271D01*
X1737817Y1553921D01*
G37*
G36*
X1810562Y1541119D02*
G01*
X1843582Y1541119D01*
X1843582Y1553921D01*
X1842871Y1560271D01*
X1840992Y1565706D01*
X1837893Y1570634D01*
X1833829Y1574698D01*
X1828901Y1577797D01*
X1823466Y1579727D01*
X1817116Y1580438D01*
X1810562Y1580438D01*
G37*
G36*
X2902762Y1848561D02*
G01*
X2909316Y1848561D01*
X2915666Y1849272D01*
X2921101Y1851202D01*
X2926029Y1854301D01*
X2930093Y1858365D01*
X2933192Y1863293D01*
X2935071Y1868728D01*
X2935782Y1875078D01*
X2935782Y1887880D01*
X2902762Y1887880D01*
G37*
G36*
X2293162Y1562354D02*
G01*
X2326182Y1562354D01*
X2326182Y1569618D01*
X2325471Y1575917D01*
X2323592Y1581353D01*
X2320493Y1586280D01*
X2316429Y1590344D01*
X2311501Y1593443D01*
X2306066Y1595374D01*
X2299716Y1596085D01*
X2293162Y1596085D01*
G37*
G36*
X2220417Y1562354D02*
G01*
X2253437Y1562354D01*
X2253437Y1596085D01*
X2246884Y1596085D01*
X2240534Y1595374D01*
X2235098Y1593443D01*
X2230170Y1590344D01*
X2226106Y1586280D01*
X2223008Y1581353D01*
X2221128Y1575917D01*
X2220417Y1569618D01*
G37*
G36*
X2953562Y1581861D02*
G01*
X2960116Y1581861D01*
X2966466Y1582572D01*
X2971901Y1584502D01*
X2976829Y1587601D01*
X2980893Y1591665D01*
X2983992Y1596593D01*
X2985871Y1602028D01*
X2986582Y1608378D01*
X2986582Y1621180D01*
X2953562Y1621180D01*
G37*
G36*
X2907284Y1581861D02*
G01*
X2913837Y1581861D01*
X2913837Y1621180D01*
X2880817Y1621180D01*
X2880817Y1608378D01*
X2881528Y1602028D01*
X2883408Y1596593D01*
X2886506Y1591665D01*
X2890570Y1587601D01*
X2895498Y1584502D01*
X2900934Y1582572D01*
G37*
G36*
X2780284Y1604314D02*
G01*
X2833116Y1604314D01*
X2839466Y1605026D01*
X2844901Y1606956D01*
X2849829Y1610055D01*
X2853893Y1614119D01*
X2856992Y1619046D01*
X2858871Y1624482D01*
X2859582Y1630781D01*
X2859582Y1686255D01*
X2858871Y1692554D01*
X2857957Y1697228D01*
X2858719Y1700784D01*
X2860649Y1703882D01*
X2863596Y1706067D01*
X2868625Y1708048D01*
X2871774Y1708048D01*
X2876804Y1706067D01*
X2879750Y1703882D01*
X2881680Y1700784D01*
X2882442Y1697228D01*
X2881528Y1692554D01*
X2880817Y1686204D01*
X2880817Y1673402D01*
X2913837Y1673402D01*
X2913837Y1680718D01*
X2914599Y1684629D01*
X2916834Y1687931D01*
X2920136Y1690116D01*
X2923997Y1690878D01*
X2943402Y1690878D01*
X2947263Y1690116D01*
X2950565Y1687931D01*
X2952800Y1684629D01*
X2953562Y1680718D01*
X2953562Y1673402D01*
X2986582Y1673402D01*
X2986582Y1686204D01*
X2985871Y1692554D01*
X2983839Y1698447D01*
X2983280Y1701800D01*
X2983839Y1705152D01*
X2985871Y1711045D01*
X2986582Y1717395D01*
X2986582Y1795221D01*
X2985871Y1801571D01*
X2983992Y1807006D01*
X2980893Y1811934D01*
X2976829Y1815998D01*
X2971901Y1819097D01*
X2966466Y1821027D01*
X2960116Y1821738D01*
X2907284Y1821738D01*
X2900934Y1821027D01*
X2895498Y1819097D01*
X2890570Y1815998D01*
X2886506Y1811934D01*
X2883408Y1807006D01*
X2881528Y1801571D01*
X2880817Y1795221D01*
X2880817Y1792376D01*
X2880106Y1788718D01*
X2878124Y1785518D01*
X2874721Y1783080D01*
X2871774Y1782114D01*
X2868625Y1782114D01*
X2865678Y1783080D01*
X2856433Y1787702D01*
X2853791Y1789582D01*
X2849829Y1793544D01*
X2844901Y1796643D01*
X2839466Y1798574D01*
X2833116Y1799285D01*
X2817571Y1799285D01*
X2813710Y1800047D01*
X2810408Y1802231D01*
X2808224Y1805533D01*
X2807411Y1809445D01*
X2808224Y1813306D01*
X2810408Y1816607D01*
X2811780Y1817979D01*
X2817418Y1826006D01*
X2821533Y1834946D01*
X2824073Y1844395D01*
X2824276Y1846529D01*
X2825445Y1850491D01*
X2828137Y1853641D01*
X2831846Y1855470D01*
X2835960Y1855724D01*
X2839821Y1854250D01*
X2844698Y1851202D01*
X2850134Y1849272D01*
X2856484Y1848561D01*
X2863037Y1848561D01*
X2863037Y1887880D01*
X2821178Y1887880D01*
X2817164Y1888693D01*
X2813812Y1891080D01*
X2811627Y1894535D01*
X2810154Y1898599D01*
X2809494Y1902104D01*
X2809494Y1924812D01*
X2808782Y1932432D01*
X2808782Y1965655D01*
X2807309Y1976170D01*
X2808071Y1979777D01*
X2810052Y1982876D01*
X2814574Y1985822D01*
X2818028Y1986788D01*
X2821584Y1986483D01*
X2824835Y1985010D01*
X2828848Y1981606D01*
X2830322Y1978812D01*
X2832760Y1971852D01*
X2833319Y1968500D01*
X2832760Y1965147D01*
X2830728Y1959254D01*
X2830017Y1952904D01*
X2830017Y1940102D01*
X2863037Y1940102D01*
X2863037Y1947418D01*
X2863799Y1951329D01*
X2866034Y1954631D01*
X2869336Y1956816D01*
X2873197Y1957578D01*
X2892602Y1957578D01*
X2896463Y1956816D01*
X2899765Y1954631D01*
X2902000Y1951329D01*
X2902762Y1947418D01*
X2902762Y1940102D01*
X2935782Y1940102D01*
X2935782Y1953514D01*
X2936443Y1956968D01*
X2938221Y1960067D01*
X2940964Y1962353D01*
X2945841Y1963775D01*
X2948432Y1963877D01*
X2959100Y1962962D01*
X2968904Y1963826D01*
X2978353Y1966366D01*
X2987294Y1970481D01*
X2995320Y1976120D01*
X3002280Y1983079D01*
X3007918Y1991106D01*
X3012033Y2000046D01*
X3014573Y2009495D01*
X3015437Y2019300D01*
X3014573Y2029104D01*
X3012033Y2038553D01*
X3007918Y2047493D01*
X3002280Y2055520D01*
X2995320Y2062480D01*
X2987294Y2068118D01*
X2978353Y2072233D01*
X2968904Y2074773D01*
X2959100Y2075637D01*
X2949295Y2074773D01*
X2942183Y2072893D01*
X2937916Y2072690D01*
X2933954Y2074214D01*
X2930956Y2077313D01*
X2930093Y2078634D01*
X2926029Y2082698D01*
X2921101Y2085797D01*
X2915666Y2087727D01*
X2909316Y2088438D01*
X2856484Y2088438D01*
X2850134Y2087727D01*
X2844698Y2085797D01*
X2839770Y2082698D01*
X2835706Y2078634D01*
X2832608Y2073706D01*
X2830626Y2068068D01*
X2828645Y2064715D01*
X2824226Y2061667D01*
X2821228Y2060752D01*
X2818130Y2060803D01*
X2815132Y2061768D01*
X2806446Y2066239D01*
X2803906Y2068068D01*
X2799029Y2072944D01*
X2794101Y2076043D01*
X2788666Y2077974D01*
X2782316Y2078685D01*
X2729484Y2078685D01*
X2723134Y2077974D01*
X2717698Y2076043D01*
X2712770Y2072944D01*
X2708706Y2068880D01*
X2705608Y2063953D01*
X2703728Y2058517D01*
X2703017Y2052218D01*
X2703017Y1996744D01*
X2703728Y1990445D01*
X2705760Y1984552D01*
X2706319Y1981200D01*
X2705760Y1977847D01*
X2703728Y1971954D01*
X2703017Y1965655D01*
X2703017Y1910181D01*
X2703728Y1903882D01*
X2705608Y1898446D01*
X2708706Y1893519D01*
X2715869Y1886712D01*
X2717495Y1883460D01*
X2717901Y1879854D01*
X2716987Y1876298D01*
X2715666Y1873453D01*
X2714904Y1870760D01*
X2713075Y1867103D01*
X2709926Y1864461D01*
X2706014Y1863293D01*
X2701899Y1863750D01*
X2698343Y1865833D01*
X2695905Y1869084D01*
X2682748Y1897329D01*
X2681782Y1901596D01*
X2681782Y1909521D01*
X2681071Y1915871D01*
X2679192Y1921306D01*
X2676093Y1926234D01*
X2672029Y1930298D01*
X2667101Y1933397D01*
X2661666Y1935327D01*
X2655316Y1936038D01*
X2602484Y1936038D01*
X2596134Y1935327D01*
X2590698Y1933397D01*
X2585770Y1930298D01*
X2581706Y1926234D01*
X2578608Y1921357D01*
X2576830Y1919224D01*
X2574544Y1917649D01*
X2560015Y1910384D01*
X2555494Y1909318D01*
X2495550Y1909318D01*
X2487523Y1908505D01*
X2480310Y1906320D01*
X2473604Y1902764D01*
X2467406Y1897634D01*
X2458923Y1889201D01*
X2455164Y1886813D01*
X2443937Y1882851D01*
X2431846Y1879752D01*
X2422906Y1875586D01*
X2414879Y1869948D01*
X2407920Y1863039D01*
X2402281Y1854962D01*
X2398166Y1846072D01*
X2395626Y1836572D01*
X2394762Y1826768D01*
X2395626Y1817014D01*
X2398166Y1807514D01*
X2402281Y1798624D01*
X2407920Y1790547D01*
X2414879Y1783638D01*
X2422906Y1778000D01*
X2431846Y1773834D01*
X2441295Y1771294D01*
X2451100Y1770430D01*
X2460904Y1771294D01*
X2470353Y1773834D01*
X2479294Y1778000D01*
X2487320Y1783638D01*
X2494280Y1790547D01*
X2499918Y1798624D01*
X2504033Y1807514D01*
X2507132Y1819656D01*
X2509164Y1825345D01*
X2511298Y1828850D01*
X2514701Y1831238D01*
X2518765Y1832102D01*
X2555087Y1832102D01*
X2559608Y1831035D01*
X2573375Y1824177D01*
X2576271Y1821992D01*
X2578252Y1818893D01*
X2578963Y1815338D01*
X2578404Y1811731D01*
X2576728Y1806854D01*
X2576017Y1800504D01*
X2576017Y1787702D01*
X2609037Y1787702D01*
X2609037Y1795018D01*
X2609799Y1798929D01*
X2612034Y1802231D01*
X2615336Y1804416D01*
X2619197Y1805178D01*
X2631694Y1805178D01*
X2635148Y1804568D01*
X2638196Y1802841D01*
X2645054Y1797151D01*
X2647797Y1793646D01*
X2648762Y1789328D01*
X2648762Y1786331D01*
X2651455Y1784045D01*
X2653182Y1780997D01*
X2653792Y1777542D01*
X2653792Y1745640D01*
X2653182Y1742186D01*
X2651455Y1739138D01*
X2648762Y1736852D01*
X2648762Y1694992D01*
X2651353Y1692960D01*
X2653182Y1690217D01*
X2654046Y1687017D01*
X2654604Y1681581D01*
X2656789Y1674368D01*
X2660345Y1667662D01*
X2665476Y1661464D01*
X2695244Y1631696D01*
X2701442Y1626565D01*
X2708148Y1623009D01*
X2715361Y1620824D01*
X2723388Y1620012D01*
X2734259Y1620012D01*
X2738120Y1619250D01*
X2769514Y1606397D01*
X2773781Y1605076D01*
G37*
G36*
X985062Y1629714D02*
G01*
X991616Y1629714D01*
X997966Y1630426D01*
X1003401Y1632356D01*
X1008329Y1635455D01*
X1012393Y1639519D01*
X1015492Y1644446D01*
X1017371Y1649882D01*
X1018133Y1656181D01*
X1018133Y1663446D01*
X985062Y1663446D01*
G37*
G36*
X2602484Y1696161D02*
G01*
X2609037Y1696161D01*
X2609037Y1735480D01*
X2576017Y1735480D01*
X2576017Y1722678D01*
X2576728Y1716328D01*
X2578608Y1710893D01*
X2581706Y1705965D01*
X2585770Y1701901D01*
X2590698Y1698802D01*
X2596134Y1696872D01*
G37*
G36*
X1566519Y1150162D02*
G01*
X1605838Y1150162D01*
X1605838Y1156716D01*
X1605127Y1163066D01*
X1603197Y1168501D01*
X1600098Y1173429D01*
X1596034Y1177493D01*
X1591106Y1180592D01*
X1585671Y1182471D01*
X1579321Y1183182D01*
X1566519Y1183182D01*
G37*

%LPD*%
G36*
X242214Y1220317D02*
G01*
X236880Y1176121D01*
X251053Y1161999D01*
X295249Y1167282D01*
G37*
G36*
X259029Y1129690D02*
G01*
X224028Y1102207D01*
X224028Y1082192D01*
X259029Y1054709D01*
G37*
G36*
X2776067Y607060D02*
G01*
X2776067Y561340D01*
X2786481Y571500D01*
X2786481Y596900D01*
G37*
G36*
X2938932Y2042160D02*
G01*
X2917596Y2029307D01*
X2917596Y2009292D01*
X2938932Y1996439D01*
G37*
G36*
X2275992Y1438503D02*
G01*
X2263140Y1417167D01*
X2308860Y1417167D01*
X2296007Y1438503D01*
G37*
G36*
X2788767Y1762760D02*
G01*
X2788767Y1717039D01*
X2801518Y1729892D01*
X2801518Y1749907D01*
G37*
G36*
X660400Y308203D02*
G01*
X650240Y286867D01*
X695960Y286867D01*
X685800Y308203D01*
G37*
G36*
X650240Y246532D02*
G01*
X660400Y225196D01*
X685800Y225196D01*
X695960Y246532D01*
G37*
G36*
X1272540Y1122832D02*
G01*
X1282700Y1101496D01*
X1308100Y1101496D01*
X1318260Y1122832D01*
G37*
G36*
X2471470Y1865122D02*
G01*
X2449169Y1857197D01*
X2481529Y1824888D01*
X2489403Y1847138D01*
G37*
G36*
X2485694Y1383487D02*
G01*
X2495854Y1362151D01*
X2521254Y1362151D01*
X2531414Y1383487D01*
G37*
G36*
X1950770Y1473403D02*
G01*
X1928469Y1465529D01*
X1960829Y1433169D01*
X1968703Y1455470D01*
G37*
G36*
X1910232Y1457960D02*
G01*
X1888896Y1447800D01*
X1888896Y1422400D01*
X1910232Y1412240D01*
G37*
G36*
X1917700Y2048103D02*
G01*
X1907539Y2026767D01*
X1953260Y2026767D01*
X1943100Y2048103D01*
G37*
G36*
X2753614Y1895703D02*
G01*
X2745740Y1874367D01*
X2791460Y1874367D01*
X2783586Y1895703D01*
G37*
G36*
X2771140Y1478432D02*
G01*
X2779014Y1457096D01*
X2808986Y1457096D01*
X2816860Y1478432D01*
G37*
G36*
X2271014Y295503D02*
G01*
X2263140Y274167D01*
X2308860Y274167D01*
X2300986Y295503D01*
G37*
G36*
X2507234Y723087D02*
G01*
X2511298Y677519D01*
X2531872Y687222D01*
X2529179Y717194D01*
G37*
G36*
X1911908Y916025D02*
G01*
X1890674Y894791D01*
X1899970Y874369D01*
X1932330Y906729D01*
G37*
G36*
X1974545Y344728D02*
G01*
X1953869Y335229D01*
X1986229Y302869D01*
X1995728Y323545D01*
G37*
G36*
X1925370Y306730D02*
G01*
X1915871Y286054D01*
X1937054Y264871D01*
X1957730Y274370D01*
G37*
G36*
X629767Y2194560D02*
G01*
X629767Y2148840D01*
X651103Y2156714D01*
X651103Y2186686D01*
G37*
G36*
X589432Y2194560D02*
G01*
X568096Y2186686D01*
X568096Y2156714D01*
X589432Y2148840D01*
G37*
G36*
X424332Y2181860D02*
G01*
X402996Y2173986D01*
X402996Y2144014D01*
X424332Y2136140D01*
G37*
G36*
X919429Y1640230D02*
G01*
X887069Y1607870D01*
X907745Y1598371D01*
X928928Y1619554D01*
G37*
G36*
X1404162Y1351432D02*
G01*
X1382826Y1343609D01*
X1382826Y1313586D01*
X1404162Y1305712D01*
G37*
G36*
X1409801Y1364335D02*
G01*
X1388567Y1343101D01*
X1393901Y1326692D01*
X1426210Y1359001D01*
G37*
G36*
X1280414Y1654403D02*
G01*
X1272540Y1633067D01*
X1318260Y1633067D01*
X1310386Y1654403D01*
G37*
G36*
X911453Y704748D02*
G01*
X882446Y691337D01*
X885190Y669086D01*
X926693Y688289D01*
G37*
G36*
X1742439Y2062632D02*
G01*
X1750314Y2041296D01*
X1780286Y2041296D01*
X1788160Y2062632D01*
G37*
G36*
X193040Y1745132D02*
G01*
X190906Y1723796D01*
X240893Y1723796D01*
X238760Y1745132D01*
G37*
G36*
X454406Y1005332D02*
G01*
X442722Y992022D01*
X485648Y976172D01*
X485393Y993851D01*
G37*
G36*
X444906Y1008837D02*
G01*
X442722Y992022D01*
X485648Y976172D01*
X494893Y990346D01*
G37*
G36*
X3398367Y1165860D02*
G01*
X3398367Y1120140D01*
X3419703Y1132992D01*
X3419703Y1153007D01*
G37*
G36*
X3358032Y1165860D02*
G01*
X3336696Y1153007D01*
X3336696Y1132992D01*
X3358032Y1120140D01*
G37*
G36*
X3398367Y1292860D02*
G01*
X3398367Y1247140D01*
X3419703Y1259992D01*
X3419703Y1280007D01*
G37*
G36*
X3358032Y1292860D02*
G01*
X3336696Y1280007D01*
X3336696Y1259992D01*
X3358032Y1247140D01*
G37*
G36*
X3398367Y353060D02*
G01*
X3398367Y307340D01*
X3419703Y320192D01*
X3419703Y340207D01*
G37*
G36*
X3358032Y353060D02*
G01*
X3336696Y340207D01*
X3336696Y320192D01*
X3358032Y307340D01*
G37*
G36*
X3398367Y480059D02*
G01*
X3398367Y434340D01*
X3419703Y447192D01*
X3419703Y467207D01*
G37*
G36*
X3358032Y480059D02*
G01*
X3336696Y467207D01*
X3336696Y447192D01*
X3358032Y434340D01*
G37*
G36*
X1305814Y1921103D02*
G01*
X1297940Y1899767D01*
X1343660Y1899767D01*
X1335786Y1921103D01*
G37*
G36*
X1294180Y1894484D02*
G01*
X1276146Y1881530D01*
X1287170Y1850136D01*
X1309370Y1851355D01*
G37*
G36*
X1340967Y1902460D02*
G01*
X1340967Y1856739D01*
X1362303Y1864614D01*
X1362303Y1894586D01*
G37*
G36*
X1310792Y1921103D02*
G01*
X1297940Y1899767D01*
X1343660Y1899767D01*
X1330807Y1921103D01*
G37*
G36*
X1183792Y1917293D02*
G01*
X1170940Y1895957D01*
X1216660Y1895957D01*
X1203807Y1917293D01*
G37*
G36*
X764540Y1910232D02*
G01*
X777392Y1888896D01*
X797407Y1888896D01*
X810260Y1910232D01*
G37*
G36*
X704545Y2059228D02*
G01*
X683869Y2049729D01*
X716229Y2017369D01*
X725728Y2038045D01*
G37*
G36*
X1272540Y348132D02*
G01*
X1285392Y337312D01*
X1305407Y337312D01*
X1318260Y348132D01*
G37*
G36*
X1146098Y350570D02*
G01*
X1158392Y337718D01*
X1178407Y336854D01*
X1191768Y348589D01*
G37*
G36*
X1653692Y473303D02*
G01*
X1640839Y451967D01*
X1686560Y451967D01*
X1673707Y473303D01*
G37*
G36*
X1640839Y602132D02*
G01*
X1653692Y580796D01*
X1673707Y580796D01*
X1686560Y602132D01*
G37*
G36*
X950214Y968603D02*
G01*
X942340Y947267D01*
X988060Y947267D01*
X980186Y968603D01*
G37*
G36*
X3419601Y482193D02*
G01*
X3389579Y467207D01*
X3389579Y447192D01*
X3419601Y432206D01*
G37*
G36*
X3419601Y1294993D02*
G01*
X3389579Y1280007D01*
X3389579Y1259992D01*
X3419601Y1245006D01*
G37*
G36*
X3419601Y355193D02*
G01*
X3389579Y340207D01*
X3389579Y320192D01*
X3419601Y305206D01*
G37*
G36*
X3419601Y1167993D02*
G01*
X3389579Y1153007D01*
X3389579Y1132992D01*
X3419601Y1118006D01*
G37*
G36*
X1290777Y1933702D02*
G01*
X1305814Y1888693D01*
X1335786Y1888693D01*
X1350822Y1933702D01*
G37*
G36*
X1295806Y1933702D02*
G01*
X1310792Y1903679D01*
X1330807Y1903679D01*
X1345793Y1933702D01*
G37*
G36*
X1159814Y369722D02*
G01*
X1144066Y352298D01*
X1194054Y352298D01*
X1179830Y369265D01*
G37*
G36*
X1285392Y368300D02*
G01*
X1270406Y352298D01*
X1320393Y352298D01*
X1305407Y368300D01*
G37*
G36*
X1168806Y1933702D02*
G01*
X1183792Y1903679D01*
X1203807Y1903679D01*
X1218793Y1933702D01*
G37*
G36*
X210718Y1166876D02*
G01*
X210718Y1144524D01*
X230632Y1145692D01*
X230632Y1165707D01*
G37*
G36*
X152196Y1166876D02*
G01*
X122224Y1165707D01*
X122224Y1145692D01*
X152196Y1144524D01*
G37*
G36*
X167640Y1104493D02*
G01*
X190804Y1092200D01*
X212039Y1099261D01*
X210718Y1104493D01*
G37*
G36*
X152196Y1126896D02*
G01*
X122224Y1125677D01*
X122224Y1105712D01*
X152196Y1104493D01*
G37*
G36*
X127203Y1126896D02*
G01*
X127203Y1104493D01*
X157175Y1105712D01*
X157175Y1125677D01*
G37*
G36*
X127203Y1166876D02*
G01*
X127203Y1144524D01*
X157175Y1145692D01*
X157175Y1165707D01*
G37*
G36*
X68681Y1206906D02*
G01*
X52679Y1205687D01*
X52679Y1185722D01*
X68681Y1184503D01*
G37*
G36*
X376021Y1059078D02*
G01*
X326390Y1017219D01*
X342087Y917194D01*
X398475Y1010818D01*
G37*
G36*
X242112Y992225D02*
G01*
X239267Y977188D01*
X239267Y957224D01*
X242112Y942187D01*
G37*
G36*
X1484325Y1501698D02*
G01*
X1439316Y1479194D01*
X1439316Y1449222D01*
X1484325Y1426718D01*
G37*
G36*
X978255Y1059230D02*
G01*
X910386Y1030274D01*
X983030Y1011529D01*
X1011936Y1050544D01*
G37*
G36*
X927709Y976325D02*
G01*
X950214Y931316D01*
X980186Y931316D01*
X983030Y976325D01*
G37*
G36*
X799744Y1059230D02*
G01*
X766064Y1050544D01*
X794969Y1011529D01*
X867613Y1030274D01*
G37*
G36*
X2261006Y1427022D02*
G01*
X2275992Y1397050D01*
X2296007Y1397050D01*
X2300274Y1427022D01*
G37*
G36*
X2246325Y1480312D02*
G01*
X2216302Y1465326D01*
X2216302Y1445310D01*
X2246325Y1430324D01*
G37*
G36*
X2246325Y340614D02*
G01*
X2201316Y327304D01*
X2201316Y297332D01*
X2246325Y284022D01*
G37*
G36*
X172669Y1585925D02*
G01*
X187198Y1510893D01*
X237185Y1510893D01*
X251714Y1585925D01*
G37*
G36*
X190906Y1714906D02*
G01*
X172669Y1639874D01*
X251714Y1639874D01*
X240893Y1714906D01*
G37*
G36*
X212801Y2005025D02*
G01*
X235305Y1960016D01*
X265277Y1960016D01*
X287782Y2005025D01*
G37*
G36*
X234442Y2103983D02*
G01*
X212496Y2058974D01*
X287477Y2058974D01*
X264464Y2103983D01*
G37*
G36*
X2909874Y2044293D02*
G01*
X2909874Y1994306D01*
X2939897Y2009292D01*
X2939897Y2029307D01*
G37*
G36*
X2855925Y2048306D02*
G01*
X2825902Y2033676D01*
X2825902Y2013661D01*
X2855925Y1998319D01*
G37*
G36*
X598474Y1010412D02*
G01*
X598474Y960424D01*
X628497Y975410D01*
X628497Y995426D01*
G37*
G36*
X2906725Y1770075D02*
G01*
X2876702Y1755089D01*
X2876702Y1735074D01*
X2906725Y1720088D01*
G37*
G36*
X1940814Y2117801D02*
G01*
X1878279Y2106625D01*
X1915160Y2101748D01*
X1939391Y2113483D01*
G37*
G36*
X1806498Y1445514D02*
G01*
X1817674Y1382979D01*
X1822551Y1419860D01*
X1810816Y1444091D01*
G37*
G36*
X2495854Y1347774D02*
G01*
X2478786Y1309674D01*
X2540304Y1309674D01*
X2521254Y1347774D01*
G37*
G36*
X2655874Y1893620D02*
G01*
X2644698Y1831086D01*
X2678430Y1803146D01*
X2683865Y1833625D01*
G37*
G36*
X2601925Y1902358D02*
G01*
X2563825Y1883308D01*
X2563825Y1857908D01*
X2601925Y1838858D01*
G37*
G36*
X585774Y2209190D02*
G01*
X585774Y2135886D01*
X609600Y2156714D01*
X609600Y2186686D01*
G37*
G36*
X536752Y2240381D02*
G01*
X508660Y2226056D01*
X531825Y2187346D01*
X585774Y2214930D01*
G37*
G36*
X660400Y242874D02*
G01*
X642569Y204774D01*
X704850Y204774D01*
X685800Y242874D01*
G37*
G36*
X2932125Y737920D02*
G01*
X2904134Y677926D01*
X2909570Y647446D01*
X2943301Y675386D01*
G37*
G36*
X1863801Y950925D02*
G01*
X1886305Y905916D01*
X1916277Y905916D01*
X1938782Y950925D01*
G37*
G36*
X1763725Y287680D02*
G01*
X1718716Y265176D01*
X1718716Y235204D01*
X1763725Y212699D01*
G37*
G36*
X1817674Y287782D02*
G01*
X1817674Y212801D01*
X1862683Y235305D01*
X1862683Y265277D01*
G37*
G36*
X2668574Y715772D02*
G01*
X2668574Y662686D01*
X2713583Y663295D01*
X2713583Y693267D01*
G37*
G36*
X2614625Y739698D02*
G01*
X2569616Y717194D01*
X2569616Y687222D01*
X2614625Y664718D01*
G37*
G36*
X1215034Y1042060D02*
G01*
X1164386Y1030274D01*
X1237030Y1011529D01*
X1242517Y1027074D01*
G37*
G36*
X1073505Y1075283D02*
G01*
X1051001Y1030274D01*
X1125982Y1030274D01*
X1103477Y1075283D01*
G37*
G36*
X653084Y264820D02*
G01*
X660400Y226720D01*
X685800Y226720D01*
X704850Y264820D01*
G37*
G36*
X801319Y582879D02*
G01*
X801319Y507898D01*
X846277Y530453D01*
X846277Y560425D01*
G37*
G36*
X759714Y635000D02*
G01*
X748080Y598830D01*
X801319Y598830D01*
X789686Y635000D01*
G37*
G36*
X2782874Y2049170D02*
G01*
X2782874Y1999183D01*
X2812897Y2013813D01*
X2812897Y2033828D01*
G37*
G36*
X700074Y1100277D02*
G01*
X700074Y1043686D01*
X725982Y1018082D01*
X736600Y1049934D01*
G37*
G36*
X658114Y1145286D02*
G01*
X646125Y1100277D01*
X700074Y1100277D01*
X688086Y1145286D01*
G37*
G36*
X646125Y1010412D02*
G01*
X616102Y995426D01*
X616102Y975410D01*
X646125Y960424D01*
G37*
G36*
X2779725Y1686814D02*
G01*
X2741625Y1671218D01*
X2741625Y1645818D01*
X2779725Y1630222D01*
G37*
G36*
X2779725Y1764893D02*
G01*
X2768600Y1749907D01*
X2768600Y1729892D01*
X2779725Y1716786D01*
G37*
G36*
X2833674Y1770075D02*
G01*
X2833674Y1720088D01*
X2863697Y1735074D01*
X2863697Y1755089D01*
G37*
G36*
X2119325Y1570177D02*
G01*
X2081225Y1554581D01*
X2081225Y1529181D01*
X2119325Y1513586D01*
G37*
G36*
X2173274Y1480312D02*
G01*
X2173274Y1430324D01*
X2203297Y1445310D01*
X2203297Y1465326D01*
G37*
G36*
X233832Y2191918D02*
G01*
X220522Y2185974D01*
X277114Y2185974D01*
X263804Y2191918D01*
G37*
G36*
X220522Y2132025D02*
G01*
X234645Y2087016D01*
X264668Y2087016D01*
X277114Y2132025D01*
G37*
G36*
X363677Y2185974D02*
G01*
X363677Y2132025D01*
X408686Y2144014D01*
X408686Y2173986D01*
G37*
G36*
X862025Y2093214D02*
G01*
X817016Y2079904D01*
X817016Y2049932D01*
X862025Y2036622D01*
G37*
G36*
X2779014Y751586D02*
G01*
X2767025Y706577D01*
X2820974Y706577D01*
X2808986Y751586D01*
G37*
G36*
X2767025Y706577D02*
G01*
X2722016Y693267D01*
X2722016Y663295D01*
X2767025Y649986D01*
G37*
G36*
X2767025Y615950D02*
G01*
X2755900Y596900D01*
X2755900Y571500D01*
X2767025Y563422D01*
G37*
G36*
X2820974Y620014D02*
G01*
X2820974Y563422D01*
X2835910Y579018D01*
X2835910Y604418D01*
G37*
G36*
X2119325Y427177D02*
G01*
X2074316Y413867D01*
X2074316Y383895D01*
X2119325Y370586D01*
G37*
G36*
X2173274Y340614D02*
G01*
X2173274Y284022D01*
X2218283Y297332D01*
X2218283Y327304D01*
G37*
G36*
X938225Y1795322D02*
G01*
X908202Y1780184D01*
X908202Y1760169D01*
X938225Y1745335D01*
G37*
G36*
X865174Y784656D02*
G01*
X815441Y728522D01*
X861314Y712470D01*
X881278Y734974D01*
G37*
G36*
X1131874Y1798777D02*
G01*
X1131874Y1742186D01*
X1176883Y1755495D01*
X1176883Y1785467D01*
G37*
G36*
X1268425Y1655622D02*
G01*
X1280414Y1612900D01*
X1310386Y1612900D01*
X1322374Y1655622D01*
G37*
G36*
X1411274Y1382014D02*
G01*
X1401267Y1325422D01*
X1413713Y1318006D01*
X1427530Y1346606D01*
G37*
G36*
X963320Y1327912D02*
G01*
X916025Y1269695D01*
X960678Y1253337D01*
X979678Y1276705D01*
G37*
G36*
X1183284Y1368653D02*
G01*
X1183284Y1293622D01*
X1228293Y1317091D01*
X1228293Y1347063D01*
G37*
G36*
X1051001Y1099515D02*
G01*
X1073505Y1054506D01*
X1103477Y1054506D01*
X1125982Y1099515D01*
G37*
G36*
X823315Y1197152D02*
G01*
X778306Y1174800D01*
X778306Y1144778D01*
X823315Y1122172D01*
G37*
G36*
X807415Y1794611D02*
G01*
X807415Y1744624D01*
X837387Y1759762D01*
X837387Y1779778D01*
G37*
G36*
X777392Y1851355D02*
G01*
X762406Y1821332D01*
X807415Y1821332D01*
X797407Y1851355D01*
G37*
G36*
X706831Y2061514D02*
G01*
X659180Y2041601D01*
X712419Y2000148D01*
X730656Y2042972D01*
G37*
G36*
X542188Y921207D02*
G01*
X527202Y891184D01*
X577189Y891184D01*
X562203Y921207D01*
G37*
G36*
X859688Y374904D02*
G01*
X844702Y371805D01*
X894689Y371805D01*
X879703Y374904D01*
G37*
G36*
X622503Y565200D02*
G01*
X637692Y535228D01*
X657707Y535228D01*
X672490Y565200D01*
G37*
G36*
X342087Y1005586D02*
G01*
X253695Y917194D01*
X333248Y890676D01*
X368604Y926033D01*
G37*
G36*
X432206Y685800D02*
G01*
X424688Y671220D01*
X489712Y671220D01*
X482193Y685800D01*
G37*
D11*
X673100Y1071879D02*
G01*
X693420Y1071879D01*
X736600Y1028700D01*
X736600Y673100D01*
X774700Y635000D01*
X774700Y545337D01*
X834389Y1003300D02*
G01*
X774700Y1062989D01*
X774700Y1397000D01*
X825500Y1447800D01*
X1193800Y1447800D01*
X1231900Y1409700D01*
X1231900Y1037589D01*
X1197610Y1003300D01*
D12*
X1092200Y1625600D02*
G01*
X1104900Y1638300D01*
X1104900Y1683918D01*
D11*
X1088392Y1003300D02*
G01*
X1066800Y981707D01*
X1066800Y965200D01*
X943610Y1003300D02*
G01*
X965200Y981710D01*
X965200Y927100D01*
X893318Y1159510D02*
G01*
X774700Y1159763D01*
D12*
X1663700Y622300D02*
G01*
X1663700Y431800D01*
X1295400Y368300D02*
G01*
X1295400Y337312D01*
X1169923Y369823D02*
G01*
X1168400Y337312D01*
X780795Y1769363D02*
G01*
X787400Y1775968D01*
X787400Y1930400D01*
X1193800Y1875789D02*
G01*
X1193800Y1948687D01*
X1320800Y1948687D02*
G01*
X1320800Y1879600D01*
X3225800Y436879D02*
G01*
X3246120Y457200D01*
X3378200Y457200D01*
X3378200Y457200D02*
G01*
X3434588Y457200D01*
X3225800Y350520D02*
G01*
X3246120Y330200D01*
X3378200Y330200D01*
X3378200Y330200D02*
G01*
X3434588Y330200D01*
X3225800Y1249679D02*
G01*
X3246120Y1270000D01*
X3378200Y1270000D01*
X3225800Y1163320D02*
G01*
X3246120Y1143000D01*
X3378200Y1143000D01*
X3378200Y1270000D02*
G01*
X3434588Y1270000D01*
X3378200Y1143000D02*
G01*
X3434588Y1143000D01*
D13*
X469900Y999591D02*
G01*
X469900Y977900D01*
X457200Y965200D01*
D12*
X98044Y1115821D02*
G01*
X181355Y1115821D01*
X181355Y1115821D02*
G01*
X204978Y1092200D01*
X292100Y1092200D01*
X98044Y1155700D02*
G01*
X181355Y1155700D01*
X181355Y1155700D02*
G01*
X230631Y1155700D01*
X292100Y1217168D01*
D13*
X212089Y1612900D02*
G01*
X215900Y1616710D01*
X215900Y1765300D01*
D10*
X1092200Y1625600D02*
G01*
X1092200Y1671320D01*
X1104900Y1684020D01*
D11*
X1320800Y1879600D02*
G01*
X1651000Y1879600D01*
X1765300Y1993900D01*
X1765300Y2082800D01*
X838200Y756920D02*
G01*
X914400Y680720D01*
X914400Y660400D01*
X1295400Y1612900D02*
G01*
X1295400Y1684020D01*
X1424431Y1328673D02*
G01*
X1399286Y1353820D01*
X1384300Y1353820D01*
X1371600Y1638300D02*
G01*
X1358900Y1625600D01*
X1358900Y1498600D01*
X1384300Y1473200D01*
X1384300Y1440179D01*
X1384300Y1440179D02*
G01*
X1384300Y1460500D01*
X1388109Y1464310D01*
X1511300Y1464310D01*
X889000Y1638300D02*
G01*
X1003300Y1524000D01*
X1231900Y1524000D01*
X1308100Y1447800D01*
X1308100Y1371600D01*
X1351025Y1328673D01*
X1424431Y1328673D01*
X1113281Y1159510D02*
G01*
X1088389Y1134618D01*
X1088389Y1003300D01*
X250189Y2032000D02*
G01*
X248920Y2159000D01*
X335279Y2159000D02*
G01*
X444500Y2159000D01*
X248920Y2159000D02*
G01*
X248920Y2192020D01*
X292100Y2235200D01*
X520700Y2235200D01*
X558800Y2197100D01*
X558800Y2175510D01*
X558800Y2175510D02*
G01*
X562610Y2171700D01*
X609600Y2171700D01*
X685800Y2019300D02*
G01*
X731520Y2065020D01*
X889000Y2065020D01*
X889000Y2151379D02*
G01*
X868679Y2171700D01*
X609600Y2171700D01*
X1790700Y250189D02*
G01*
X1901190Y250189D01*
X1955800Y304800D01*
X1930400Y876300D02*
G01*
X1901190Y905510D01*
X1901190Y977900D01*
X2514600Y266700D02*
G01*
X2518308Y262991D01*
X2518308Y139700D01*
X2489200Y698500D02*
G01*
X2493009Y702310D01*
X2641600Y702310D01*
X2641600Y702310D02*
G01*
X2665475Y678179D01*
X2794000Y678179D01*
X1955800Y304800D02*
G01*
X2049779Y398779D01*
X2146300Y398779D01*
X2146300Y312420D02*
G01*
X2273300Y312420D01*
X2273300Y312420D02*
G01*
X2286000Y299720D01*
X2286000Y254000D01*
X2755900Y1938020D02*
G01*
X2768600Y1925320D01*
X2768600Y1854200D01*
X469900Y999591D02*
G01*
X457200Y986891D01*
X457200Y965200D01*
D12*
X98044Y1195578D02*
G01*
X52578Y1195578D01*
X38100Y1181100D01*
X38100Y1079500D01*
X88900Y1028700D01*
X177800Y1028700D01*
X239268Y967231D01*
X292100Y967231D01*
D11*
X1104900Y1770379D02*
G01*
X1186179Y1770379D01*
X1295400Y1879600D01*
X1320800Y1879600D01*
X1320800Y1879600D02*
G01*
X1320800Y1948687D01*
D13*
X292100Y967231D02*
G01*
X368300Y891031D01*
X368300Y774700D01*
X457200Y685800D01*
X457200Y618236D01*
X292100Y967231D02*
G01*
X319531Y967231D01*
X393700Y1041400D01*
X393700Y1422400D01*
X330200Y1485900D01*
X228600Y1485900D01*
X212089Y1502410D01*
X212089Y1612900D01*
D11*
X774700Y545337D02*
G01*
X1333500Y546100D01*
X1638300Y254000D01*
X1647190Y250189D01*
X1790700Y250189D01*
X2514600Y266700D02*
G01*
X2540000Y292100D01*
X2692400Y292100D01*
X2755900Y355600D01*
X2891891Y355600D01*
D10*
X1901190Y2133600D02*
G01*
X1930400Y2104389D01*
X1930400Y2006600D01*
X1790700Y1405889D02*
G01*
X1819909Y1435100D01*
X1930400Y1435100D01*
X1930400Y1435100D02*
G01*
X2037079Y1541779D01*
X2146300Y1541779D01*
X2518409Y1282700D02*
G01*
X2508504Y1292605D01*
X2508504Y1403604D01*
X2451100Y1826768D02*
G01*
X2495041Y1870710D01*
X2628900Y1870710D01*
X1431292Y1130300D02*
G01*
X1511300Y1050292D01*
X1511300Y977900D01*
X1511300Y977900D02*
G01*
X1511300Y975362D01*
X1516385Y970279D01*
X1516385Y1003300D01*
X673100Y266700D02*
G01*
X673100Y186689D01*
X681989Y177800D01*
X679704Y318262D02*
G01*
X673100Y311657D01*
X673100Y266700D01*
D12*
X571500Y999489D02*
G01*
X585723Y985520D01*
X673100Y985520D01*
X571500Y999489D02*
G01*
X552195Y980186D01*
X552195Y838200D01*
X647192Y618236D02*
G01*
X647700Y533400D01*
X762000Y419100D01*
X825500Y419100D01*
X869695Y374904D01*
X869695Y318262D01*
X780795Y1769363D02*
G01*
X965200Y1770379D01*
X2933700Y1756410D02*
G01*
X2922524Y1744979D01*
X2806700Y1744979D01*
D10*
X2628900Y1870710D02*
G01*
X2692400Y1807210D01*
X2692400Y1689100D01*
X2722879Y1658620D01*
X2806700Y1658620D01*
D12*
X2806700Y1744979D02*
G01*
X2801620Y1739900D01*
X2768600Y1739900D01*
X2146300Y1455420D02*
G01*
X2273300Y1455420D01*
X2273300Y1455420D02*
G01*
X2286000Y1442720D01*
X2286000Y1397000D01*
X2755900Y2024379D02*
G01*
X2882900Y2023110D01*
X2882900Y2023110D02*
G01*
X2886709Y2019300D01*
X2959100Y2019300D01*
D10*
X2959100Y715010D02*
G01*
X2835909Y591820D01*
X2794000Y591820D01*
X2794000Y591820D02*
G01*
X2786379Y584200D01*
X2755900Y584200D01*
D11*
X2794000Y678179D02*
G01*
X2794000Y1498600D01*
D12*
X2362200Y292100D02*
G01*
X2362200Y355605D01*
X2497856Y491263D01*
X2779118Y491263D01*
D11*
X893318Y1329689D02*
G01*
X905510Y1329689D01*
X1003300Y1231900D01*
X1003300Y1062989D01*
X943610Y1003300D01*
X250189Y2032000D02*
G01*
X250189Y1908810D01*
X673100Y1485900D01*
X673100Y1071879D01*
D12*
X640181Y1638300D02*
G01*
X889000Y1638300D01*
D10*
X1430020Y1003300D02*
G01*
X1404620Y1028700D01*
X1320800Y1028700D01*
X1295400Y1054100D01*
X1295400Y1143000D01*
D11*
X1113281Y1329689D02*
G01*
X1231900Y1332229D01*
D30*
G01*
X181457Y1195704D03*
G01*
X181457Y1155700D03*
G01*
X181457Y1115695D03*
G36*
X68699Y1126898D02*
G01*
X127200Y1126898D01*
X127200Y1104501D01*
X68699Y1104501D01*
G37*
G36*
X68699Y1166898D02*
G01*
X127200Y1166898D01*
X127200Y1144501D01*
X68699Y1144501D01*
G37*
G36*
X68699Y1206898D02*
G01*
X127200Y1206898D01*
X127200Y1184501D01*
X68699Y1184501D01*
G37*
D31*
G01*
X2273300Y1455318D03*
G36*
X2300300Y1513601D02*
G01*
X2246299Y1513601D01*
X2246299Y1570164D01*
X2300300Y1570164D01*
G37*
G01*
X2273300Y312318D03*
G36*
X2300300Y370601D02*
G01*
X2246299Y370601D01*
X2246299Y427164D01*
X2300300Y427164D01*
G37*
G01*
X2755900Y1937918D03*
G36*
X2782900Y1996201D02*
G01*
X2728899Y1996201D01*
X2728899Y2052764D01*
X2782900Y2052764D01*
G37*
G01*
X673100Y1071981D03*
G36*
X646099Y1013698D02*
G01*
X700100Y1013698D01*
X700100Y957135D01*
X646099Y957135D01*
G37*
G01*
X2806700Y1658518D03*
G36*
X2833700Y1716801D02*
G01*
X2779699Y1716801D01*
X2779699Y1773364D01*
X2833700Y1773364D01*
G37*
G01*
X2146300Y1541881D03*
G36*
X2119299Y1483598D02*
G01*
X2173300Y1483598D01*
X2173300Y1427035D01*
X2119299Y1427035D01*
G37*
G36*
X277098Y2131999D02*
G01*
X277098Y2186000D01*
X220535Y2186000D01*
X220535Y2131999D01*
G37*
G36*
X307101Y2131999D02*
G01*
X307101Y2186000D01*
X363664Y2186000D01*
X363664Y2131999D01*
G37*
G01*
X3225800Y436981D03*
G36*
X3198799Y378698D02*
G01*
X3252800Y378698D01*
X3252800Y322135D01*
X3198799Y322135D01*
G37*
G01*
X3225800Y1249781D03*
G36*
X3198799Y1191498D02*
G01*
X3252800Y1191498D01*
X3252800Y1134935D01*
X3198799Y1134935D01*
G37*
G01*
X889000Y2064918D03*
G36*
X916000Y2123201D02*
G01*
X861999Y2123201D01*
X861999Y2179764D01*
X916000Y2179764D01*
G37*
G01*
X2794000Y678281D03*
G36*
X2766999Y619998D02*
G01*
X2821000Y619998D01*
X2821000Y563435D01*
X2766999Y563435D01*
G37*
G01*
X2146300Y398881D03*
G36*
X2119299Y340598D02*
G01*
X2173300Y340598D01*
X2173300Y284035D01*
X2119299Y284035D01*
G37*
G01*
X965200Y1770481D03*
G36*
X938199Y1712198D02*
G01*
X992200Y1712198D01*
X992200Y1655635D01*
X938199Y1655635D01*
G37*
G01*
X838200Y756818D03*
G36*
X865200Y815101D02*
G01*
X811199Y815101D01*
X811199Y871664D01*
X865200Y871664D01*
G37*
G01*
X1104900Y1683918D03*
G36*
X1131900Y1742201D02*
G01*
X1077899Y1742201D01*
X1077899Y1798764D01*
X1131900Y1798764D01*
G37*
G36*
X1458198Y976299D02*
G01*
X1458198Y1030300D01*
X1401635Y1030300D01*
X1401635Y976299D01*
G37*
G36*
X1488201Y976299D02*
G01*
X1488201Y1030300D01*
X1544764Y1030300D01*
X1544764Y976299D01*
G37*
G01*
X1295400Y1770481D03*
G36*
X1268399Y1712198D02*
G01*
X1322400Y1712198D01*
X1322400Y1655635D01*
X1268399Y1655635D01*
G37*
G01*
X1384300Y1353718D03*
G36*
X1411300Y1412001D02*
G01*
X1357299Y1412001D01*
X1357299Y1468564D01*
X1411300Y1468564D01*
G37*
G36*
X424700Y891199D02*
G01*
X424700Y785200D01*
X489699Y785200D01*
X489699Y891199D01*
G37*
G36*
X519696Y891199D02*
G01*
X519696Y785200D01*
X584697Y785200D01*
X584697Y891199D01*
G37*
G36*
X614692Y891199D02*
G01*
X614692Y785200D01*
X679693Y785200D01*
X679693Y891199D01*
G37*
G36*
X614692Y671210D02*
G01*
X614692Y565210D01*
X679693Y565210D01*
X679693Y671210D01*
G37*
G36*
X424700Y671210D02*
G01*
X424700Y565210D01*
X489699Y565210D01*
X489699Y671210D01*
G37*
G36*
X823300Y1269705D02*
G01*
X963300Y1269705D01*
X963300Y1389705D01*
X823300Y1389705D01*
G37*
G36*
X1043299Y1269705D02*
G01*
X1183299Y1269705D01*
X1183299Y1389705D01*
X1043299Y1389705D01*
G37*
G36*
X1043299Y1099494D02*
G01*
X1183299Y1099494D01*
X1183299Y1219494D01*
X1043299Y1219494D01*
G37*
G36*
X823300Y1099499D02*
G01*
X963300Y1099499D01*
X963300Y1219499D01*
X823300Y1219499D01*
G37*
G36*
X712398Y1937849D02*
G01*
X659201Y1937849D01*
X659201Y2041601D01*
X712398Y2041601D01*
G37*
G36*
X807399Y1717598D02*
G01*
X754199Y1717598D01*
X754199Y1821350D01*
X807399Y1821350D01*
G37*
G36*
X617400Y1717598D02*
G01*
X564200Y1717598D01*
X564200Y1821350D01*
X617400Y1821350D01*
G37*
G36*
X896299Y264812D02*
G01*
X843099Y264812D01*
X843099Y371812D01*
X896299Y371812D01*
G37*
G36*
X706300Y264812D02*
G01*
X653100Y264812D01*
X653100Y371812D01*
X706300Y371812D01*
G37*
G36*
X801298Y491812D02*
G01*
X748101Y491812D01*
X748101Y598812D01*
X801298Y598812D01*
G37*
G36*
X1223799Y1998685D02*
G01*
X1223799Y2028687D01*
X1163800Y2028687D01*
X1163800Y1998685D01*
G37*
G36*
X1223799Y1933686D02*
G01*
X1223799Y1963689D01*
X1163800Y1963689D01*
X1163800Y1933686D01*
G37*
G36*
X1265400Y287314D02*
G01*
X1265400Y257312D01*
X1325399Y257312D01*
X1325399Y287314D01*
G37*
G36*
X1265400Y352313D02*
G01*
X1265400Y322310D01*
X1325399Y322310D01*
X1325399Y352313D01*
G37*
G36*
X1138400Y287314D02*
G01*
X1138400Y257312D01*
X1198399Y257312D01*
X1198399Y287314D01*
G37*
G36*
X1138400Y352313D02*
G01*
X1138400Y322310D01*
X1198399Y322310D01*
X1198399Y352313D01*
G37*
G36*
X1350799Y1998685D02*
G01*
X1350799Y2028687D01*
X1290800Y2028687D01*
X1290800Y1998685D01*
G37*
G36*
X1350799Y1933686D02*
G01*
X1350799Y1963689D01*
X1290800Y1963689D01*
X1290800Y1933686D01*
G37*
G36*
X3484585Y1113000D02*
G01*
X3514587Y1113000D01*
X3514587Y1172999D01*
X3484585Y1172999D01*
G37*
G36*
X3419586Y1113000D02*
G01*
X3449589Y1113000D01*
X3449589Y1172999D01*
X3419586Y1172999D01*
G37*
G36*
X3484585Y300200D02*
G01*
X3514587Y300200D01*
X3514587Y360199D01*
X3484585Y360199D01*
G37*
G36*
X3419586Y300200D02*
G01*
X3449589Y300200D01*
X3449589Y360199D01*
X3419586Y360199D01*
G37*
G36*
X3484585Y1240000D02*
G01*
X3514587Y1240000D01*
X3514587Y1299999D01*
X3484585Y1299999D01*
G37*
G36*
X3419586Y1240000D02*
G01*
X3449589Y1240000D01*
X3449589Y1299999D01*
X3419586Y1299999D01*
G37*
G36*
X3484585Y427200D02*
G01*
X3514587Y427200D01*
X3514587Y487199D01*
X3484585Y487199D01*
G37*
G36*
X3419586Y427200D02*
G01*
X3449589Y427200D01*
X3449589Y487199D01*
X3419586Y487199D01*
G37*
G36*
X1470898Y1103299D02*
G01*
X1470898Y1157300D01*
X1391889Y1157300D01*
X1391889Y1103299D01*
G37*
G36*
X1500901Y1103299D02*
G01*
X1500901Y1157300D01*
X1579910Y1157300D01*
X1579910Y1103299D01*
G37*
G36*
X904001Y1030300D02*
G01*
X904001Y976299D01*
X983010Y976299D01*
X983010Y1030300D01*
G37*
G36*
X873998Y1030300D02*
G01*
X873998Y976299D01*
X794989Y976299D01*
X794989Y1030300D01*
G37*
D40*
G01*
X1511300Y1464208D03*
G36*
X1484299Y1394698D02*
G01*
X1538300Y1394698D01*
X1538300Y1315689D01*
X1484299Y1315689D01*
G37*
G01*
X469900Y999591D03*
G36*
X496900Y1069101D02*
G01*
X442899Y1069101D01*
X442899Y1148110D01*
X496900Y1148110D01*
G37*
G36*
X1158001Y1030300D02*
G01*
X1158001Y976299D01*
X1237010Y976299D01*
X1237010Y1030300D01*
G37*
G36*
X1127998Y1030300D02*
G01*
X1127998Y976299D01*
X1048989Y976299D01*
X1048989Y1030300D01*
G37*
G01*
X2641600Y593191D03*
G36*
X2668600Y662701D02*
G01*
X2614599Y662701D01*
X2614599Y741710D01*
X2668600Y741710D01*
G37*
G36*
X2448798Y112699D02*
G01*
X2448798Y166700D01*
X2369789Y166700D01*
X2369789Y112699D01*
G37*
G36*
X2478801Y112699D02*
G01*
X2478801Y166700D01*
X2557810Y166700D01*
X2557810Y112699D01*
G37*
G01*
X1790700Y359308D03*
G36*
X1763699Y289798D02*
G01*
X1817700Y289798D01*
X1817700Y210789D01*
X1763699Y210789D01*
G37*
G36*
X1970801Y1004900D02*
G01*
X1970801Y950899D01*
X2049810Y950899D01*
X2049810Y1004900D01*
G37*
G36*
X1940798Y1004900D02*
G01*
X1940798Y950899D01*
X1861789Y950899D01*
X1861789Y1004900D01*
G37*
G01*
X2959100Y714908D03*
G36*
X2932099Y645398D02*
G01*
X2986100Y645398D01*
X2986100Y566389D01*
X2932099Y566389D01*
G37*
G36*
X721598Y150799D02*
G01*
X721598Y204800D01*
X642589Y204800D01*
X642589Y150799D01*
G37*
G36*
X751601Y150799D02*
G01*
X751601Y204800D01*
X830610Y204800D01*
X830610Y150799D01*
G37*
G01*
X558800Y2175408D03*
G36*
X531799Y2105898D02*
G01*
X585800Y2105898D01*
X585800Y2026889D01*
X531799Y2026889D01*
G37*
G01*
X2628900Y1761591D03*
G36*
X2655900Y1831101D02*
G01*
X2601899Y1831101D01*
X2601899Y1910110D01*
X2655900Y1910110D01*
G37*
G36*
X2944098Y1141399D02*
G01*
X2944098Y1195400D01*
X2865089Y1195400D01*
X2865089Y1141399D01*
G37*
G36*
X2974101Y1141399D02*
G01*
X2974101Y1195400D01*
X3053110Y1195400D01*
X3053110Y1141399D01*
G37*
G36*
X2931398Y328599D02*
G01*
X2931398Y382600D01*
X2852389Y382600D01*
X2852389Y328599D01*
G37*
G36*
X2961401Y328599D02*
G01*
X2961401Y382600D01*
X3040410Y382600D01*
X3040410Y328599D01*
G37*
G36*
X2448798Y1255699D02*
G01*
X2448798Y1309700D01*
X2369789Y1309700D01*
X2369789Y1255699D01*
G37*
G36*
X2478801Y1255699D02*
G01*
X2478801Y1309700D01*
X2557810Y1309700D01*
X2557810Y1255699D01*
G37*
G01*
X1790700Y1515008D03*
G36*
X1763699Y1445498D02*
G01*
X1817700Y1445498D01*
X1817700Y1366489D01*
X1763699Y1366489D01*
G37*
G36*
X1970801Y2160600D02*
G01*
X1970801Y2106599D01*
X2049810Y2106599D01*
X2049810Y2160600D01*
G37*
G36*
X1940798Y2160600D02*
G01*
X1940798Y2106599D01*
X1861789Y2106599D01*
X1861789Y2160600D01*
G37*
G01*
X2933700Y1756308D03*
G36*
X2906699Y1686798D02*
G01*
X2960700Y1686798D01*
X2960700Y1607789D01*
X2906699Y1607789D01*
G37*
G01*
X571500Y999591D03*
G36*
X598500Y1069101D02*
G01*
X544499Y1069101D01*
X544499Y1148110D01*
X598500Y1148110D01*
G37*
G01*
X2882900Y2023008D03*
G36*
X2855899Y1953498D02*
G01*
X2909900Y1953498D01*
X2909900Y1874489D01*
X2855899Y1874489D01*
G37*
G36*
X289798Y2004999D02*
G01*
X289798Y2059000D01*
X210789Y2059000D01*
X210789Y2004999D01*
G37*
G36*
X319801Y2004999D02*
G01*
X319801Y2059000D01*
X398810Y2059000D01*
X398810Y2004999D01*
G37*
G36*
X251698Y1585899D02*
G01*
X251698Y1639900D01*
X172689Y1639900D01*
X172689Y1585899D01*
G37*
G36*
X281701Y1585899D02*
G01*
X281701Y1639900D01*
X360710Y1639900D01*
X360710Y1585899D01*
G37*
G36*
X611901Y1665300D02*
G01*
X611901Y1611299D01*
X668464Y1611299D01*
X668464Y1665300D01*
G37*
G36*
X581898Y1665300D02*
G01*
X581898Y1611299D01*
X525335Y1611299D01*
X525335Y1665300D01*
G37*
D27*
G01*
X292100Y1342212D03*
G01*
X292100Y1217193D03*
G01*
X292100Y1092200D03*
D28*
G01*
X292100Y967206D03*
D29*
G01*
X292100Y292100D03*
G01*
X3467100Y1981200D03*
D17*
G01*
X1663700Y431800D03*
G01*
X1663700Y622300D03*
G01*
X965200Y927100D03*
G01*
X1066800Y965200D03*
G01*
X2362200Y292100D03*
G01*
X2779115Y491261D03*
G01*
X1169822Y369722D03*
G01*
X1295400Y368300D03*
G01*
X685800Y2019300D03*
G01*
X787400Y1930400D03*
G01*
X1193800Y1875815D03*
G01*
X1320800Y1879600D03*
G01*
X3378200Y457200D03*
G01*
X3378200Y330200D03*
G01*
X3378200Y1270000D03*
G01*
X3378200Y1143000D03*
G01*
X457200Y965200D03*
G01*
X215900Y1765300D03*
G01*
X1092200Y1625600D03*
G01*
X1765300Y2082800D03*
G01*
X914400Y660400D03*
G01*
X1511300Y977900D03*
G01*
X1295400Y1612900D03*
G01*
X1424304Y1328597D03*
G01*
X1371600Y1638300D03*
G01*
X889000Y1638300D03*
G01*
X215900Y2032000D03*
G01*
X444500Y2159000D03*
G01*
X609600Y2171700D03*
G01*
X1955800Y304800D03*
G01*
X1930400Y876300D03*
G01*
X2514600Y266700D03*
G01*
X2489200Y698500D03*
G01*
X2286000Y254000D03*
G01*
X2794000Y1498600D03*
G01*
X2768600Y1854200D03*
G01*
X1930400Y2006600D03*
G01*
X1930400Y1435100D03*
G01*
X2508529Y1403629D03*
G01*
X2451100Y1826793D03*
G01*
X2921000Y1168400D03*
G01*
X1295400Y1143000D03*
G01*
X673100Y266700D03*
G01*
X2768600Y1739900D03*
G01*
X2286000Y1397000D03*
G01*
X2959100Y2019300D03*
G01*
X2755900Y584200D03*
G01*
X1676400Y1168400D03*
G01*
X127000Y723900D03*
G01*
X88900Y1612900D03*
G01*
X88900Y1422400D03*
G01*
X88900Y1790700D03*
G01*
X88900Y1968500D03*
G01*
X88900Y2120900D03*
G01*
X1155700Y2171700D03*
G01*
X1295400Y2171700D03*
G01*
X1435100Y2171700D03*
G01*
X1155700Y2095500D03*
G01*
X1295400Y2095500D03*
G01*
X1435100Y2095500D03*
G01*
X1549400Y1765300D03*
G01*
X1651000Y1765300D03*
G01*
X1549400Y1651000D03*
G01*
X1778000Y1168400D03*
G01*
X1866900Y1168400D03*
G01*
X1676400Y1079500D03*
G01*
X1778000Y1079500D03*
G01*
X1866900Y1079500D03*
G01*
X1676400Y977900D03*
G01*
X1778000Y977900D03*
G01*
X1676400Y1257300D03*
G01*
X1778000Y1257300D03*
G01*
X1866900Y1257300D03*
G01*
X1612900Y889000D03*
G01*
X1612900Y787400D03*
G01*
X1143000Y139700D03*
G01*
X1244600Y139700D03*
G01*
X1346200Y139700D03*
G01*
X1447800Y139700D03*
G01*
X2044700Y749300D03*
G01*
X2286000Y749300D03*
G01*
X2044700Y546100D03*
G01*
X2286000Y546100D03*
G01*
X2159000Y1866900D03*
G01*
X2273300Y1866900D03*
G01*
X2159000Y1752600D03*
G01*
X2273300Y1752600D03*
G01*
X2159000Y1651000D03*
G01*
X2286000Y1651000D03*
G01*
X2946400Y977900D03*
G01*
X3073400Y977900D03*
G01*
X3213100Y977900D03*
G01*
X2946400Y850900D03*
G01*
X3073400Y850900D03*
G01*
X3213100Y838200D03*
G01*
X3073400Y723900D03*
G01*
X3213100Y723900D03*
G01*
X2870200Y177800D03*
G01*
X3009900Y177800D03*
G01*
X3149600Y177800D03*
G01*
X3581400Y1092200D03*
G01*
X3568700Y1270000D03*
G01*
X3556000Y457200D03*
G01*
X3556000Y292100D03*
G01*
X2692400Y1206500D03*
G01*
X1917700Y1524000D03*
G01*
X508000Y1765300D03*
G01*
X508000Y1905000D03*
G01*
X2514600Y1765300D03*
G01*
X3111500Y1816100D03*
G01*
X2044700Y2006600D03*
G01*
X495300Y1447800D03*
D18*
G01*
X2605531Y2113000D03*
G01*
X3621531Y1191793D03*
G01*
X106806Y648792D03*
D17*
G01*
X558800Y469900D03*
G01*
X546100Y711200D03*
G01*
X1028700Y635000D03*
M02*
