%FSTAX23Y23*%
%MOIN*%
%SFA1B1*%

%IPPOS*%
%ADD10C,0.015000*%
%ADD11C,0.008000*%
%ADD12C,0.010000*%
%ADD13C,0.007870*%
%ADD14C,0.007000*%
%ADD15C,0.005000*%
%LNusb2uart-1*%
%LPD*%
G54D10*
X0015Y00716D02*
D01*
X0015Y00716*
X0015Y00715*
X00151Y00715*
X00151Y00714*
X00151Y00714*
X00151Y00713*
X00151Y00713*
X00151Y00713*
X00152Y00712*
X00152Y00712*
X00152Y00712*
X00152Y00711*
X00153Y00711*
X00153Y00711*
X00153Y00711*
X00154Y0071*
X00154Y0071*
X00155Y0071*
X00155Y0071*
X00155Y0071*
X00156Y0071*
X00156Y0071*
X00157*
X00157Y0071*
X00158Y0071*
X00158Y0071*
X00158Y0071*
X00159Y0071*
X00159Y0071*
X00159Y00711*
X0016Y00711*
X0016Y00711*
X00161Y00711*
X00161Y00712*
X00161Y00712*
X00161Y00712*
X00162Y00713*
X00162Y00713*
X00162Y00713*
X00162Y00714*
X00162Y00714*
X00162Y00715*
X00162Y00715*
X00163Y00716*
X00163Y00716*
X00163Y00716*
X00162Y00717*
X00162Y00717*
X00162Y00718*
X00162Y00718*
X00162Y00718*
X00162Y00719*
X00162Y00719*
X00161Y0072*
X00161Y0072*
X00161Y0072*
X00161Y0072*
X0016Y00721*
X0016Y00721*
X00159Y00721*
X00159Y00721*
X00159Y00722*
X00158Y00722*
X00158Y00722*
X00158Y00722*
X00157Y00722*
X00157Y00722*
X00156*
X00156Y00722*
X00155Y00722*
X00155Y00722*
X00155Y00722*
X00154Y00722*
X00154Y00721*
X00153Y00721*
X00153Y00721*
X00153Y00721*
X00152Y0072*
X00152Y0072*
X00152Y0072*
X00152Y0072*
X00151Y00719*
X00151Y00719*
X00151Y00718*
X00151Y00718*
X00151Y00718*
X00151Y00717*
X0015Y00717*
X0015Y00716*
X0015Y00716*
X00725Y00706D02*
D01*
X00725Y00706*
X00725Y00705*
X00726Y00705*
X00726Y00704*
X00726Y00704*
X00726Y00703*
X00726Y00703*
X00726Y00703*
X00727Y00702*
X00727Y00702*
X00727Y00702*
X00727Y00701*
X00728Y00701*
X00728Y00701*
X00728Y00701*
X00729Y007*
X00729Y007*
X0073Y007*
X0073Y007*
X0073Y007*
X00731Y007*
X00731Y007*
X00732*
X00732Y007*
X00733Y007*
X00733Y007*
X00733Y007*
X00734Y007*
X00734Y007*
X00734Y00701*
X00735Y00701*
X00735Y00701*
X00736Y00701*
X00736Y00702*
X00736Y00702*
X00736Y00702*
X00737Y00703*
X00737Y00703*
X00737Y00703*
X00737Y00704*
X00737Y00704*
X00737Y00705*
X00737Y00705*
X00738Y00706*
X00738Y00706*
X00738Y00706*
X00737Y00707*
X00737Y00707*
X00737Y00708*
X00737Y00708*
X00737Y00708*
X00737Y00709*
X00737Y00709*
X00736Y0071*
X00736Y0071*
X00736Y0071*
X00736Y0071*
X00735Y00711*
X00735Y00711*
X00734Y00711*
X00734Y00711*
X00734Y00712*
X00733Y00712*
X00733Y00712*
X00733Y00712*
X00732Y00712*
X00732Y00712*
X00731*
X00731Y00712*
X0073Y00712*
X0073Y00712*
X0073Y00712*
X00729Y00712*
X00729Y00711*
X00728Y00711*
X00728Y00711*
X00728Y00711*
X00727Y0071*
X00727Y0071*
X00727Y0071*
X00727Y0071*
X00726Y00709*
X00726Y00709*
X00726Y00708*
X00726Y00708*
X00726Y00708*
X00726Y00707*
X00725Y00707*
X00725Y00706*
X00725Y00706*
X00303Y00737D02*
D01*
X00303Y00737*
X00303Y00736*
X00303Y00736*
X00303Y00736*
X00304Y00735*
X00304Y00735*
X00304Y00735*
X00304Y00734*
X00304Y00734*
X00304Y00734*
X00305Y00734*
X00305Y00733*
X00305Y00733*
X00305Y00733*
X00306Y00733*
X00306Y00732*
X00306Y00732*
X00307Y00732*
X00307Y00732*
X00307Y00732*
X00308Y00732*
X00308Y00732*
X00308*
X00309Y00732*
X00309Y00732*
X00309Y00732*
X0031Y00732*
X0031Y00732*
X0031Y00732*
X00311Y00733*
X00311Y00733*
X00311Y00733*
X00312Y00733*
X00312Y00734*
X00312Y00734*
X00312Y00734*
X00312Y00734*
X00313Y00735*
X00313Y00735*
X00313Y00735*
X00313Y00736*
X00313Y00736*
X00313Y00736*
X00313Y00737*
X00313Y00737*
X00313Y00737*
X00313Y00738*
X00313Y00738*
X00313Y00738*
X00313Y00739*
X00313Y00739*
X00313Y00739*
X00312Y0074*
X00312Y0074*
X00312Y0074*
X00312Y0074*
X00312Y00741*
X00311Y00741*
X00311Y00741*
X00311Y00741*
X0031Y00741*
X0031Y00742*
X0031Y00742*
X00309Y00742*
X00309Y00742*
X00309Y00742*
X00308Y00742*
X00308*
X00308Y00742*
X00307Y00742*
X00307Y00742*
X00307Y00742*
X00306Y00742*
X00306Y00741*
X00306Y00741*
X00305Y00741*
X00305Y00741*
X00305Y00741*
X00305Y0074*
X00304Y0074*
X00304Y0074*
X00304Y0074*
X00304Y00739*
X00304Y00739*
X00304Y00739*
X00303Y00738*
X00303Y00738*
X00303Y00738*
X00303Y00737*
X00303Y00737*
G54D11*
X00201Y00617D02*
D01*
X00201Y00619*
X00201Y0062*
X002Y00621*
X002Y00623*
X002Y00624*
X00199Y00625*
X00198Y00627*
X00198Y00628*
X00197Y00629*
X00196Y0063*
X00195Y00631*
X00194Y00632*
X00193Y00633*
X00192Y00634*
X00191Y00635*
X00189Y00635*
X00188Y00636*
X00187Y00636*
X00186Y00637*
X00184Y00637*
X00183Y00637*
X00181Y00637*
X00181Y00637*
Y00598D02*
D01*
X00182Y00598*
X00184Y00598*
X00185Y00598*
X00186Y00599*
X00188Y00599*
X00189Y006*
X0019Y006*
X00191Y00601*
X00192Y00602*
X00194Y00603*
X00195Y00603*
X00196Y00604*
X00196Y00606*
X00197Y00607*
X00198Y00608*
X00199Y00609*
X00199Y0061*
X002Y00612*
X002Y00613*
X002Y00614*
X00201Y00616*
X00201Y00617*
X00201Y00618*
X00776Y00607D02*
D01*
X00776Y00609*
X00776Y0061*
X00775Y00611*
X00775Y00613*
X00775Y00614*
X00774Y00615*
X00773Y00617*
X00773Y00618*
X00772Y00619*
X00771Y0062*
X0077Y00621*
X00769Y00622*
X00768Y00623*
X00767Y00624*
X00766Y00625*
X00764Y00625*
X00763Y00626*
X00762Y00626*
X00761Y00627*
X00759Y00627*
X00758Y00627*
X00756Y00627*
X00756Y00627*
Y00588D02*
D01*
X00757Y00588*
X00759Y00588*
X0076Y00588*
X00761Y00589*
X00763Y00589*
X00764Y0059*
X00765Y0059*
X00766Y00591*
X00767Y00592*
X00769Y00593*
X0077Y00593*
X00771Y00594*
X00771Y00596*
X00772Y00597*
X00773Y00598*
X00774Y00599*
X00774Y006*
X00775Y00602*
X00775Y00603*
X00775Y00604*
X00776Y00606*
X00776Y00607*
X00776Y00608*
X00317Y0056D02*
D01*
X00318Y0056*
X0032Y0056*
X00321Y0056*
X00322Y0056*
X00324Y00561*
X00325Y00561*
X00326Y00562*
X00327Y00563*
X00329Y00563*
X0033Y00564*
X00331Y00565*
X00332Y00566*
X00333Y00567*
X00333Y00568*
X00334Y0057*
X00335Y00571*
X00335Y00572*
X00336Y00573*
X00336Y00575*
X00337Y00576*
X00337Y00577*
X00337Y00579*
Y0058*
X00337Y00582*
X00337Y00583*
X00336Y00584*
X00336Y00586*
X00335Y00587*
X00335Y00588*
X00334Y0059*
X00333Y00591*
X00333Y00592*
X00332Y00593*
X00331Y00594*
X0033Y00595*
X00329Y00596*
X00327Y00596*
X00326Y00597*
X00325Y00598*
X00324Y00598*
X00322Y00599*
X00321Y00599*
X0032Y00599*
X00318Y00599*
X00317Y006*
X00181Y00638D02*
Y00671D01*
Y00568D02*
Y00598D01*
X00756Y00628D02*
Y00661D01*
Y00558D02*
Y00588D01*
X00317Y0048D02*
Y0056D01*
Y006D02*
Y00678D01*
X00714Y0048D02*
X00317D01*
X00714D02*
Y00678D01*
X00317*
X00669Y00366D02*
Y00376D01*
X00725D02*
X00669D01*
X00725Y00366D02*
Y00376D01*
X00669Y00312D02*
Y00365D01*
X00723Y00366D02*
X00669D01*
X00725Y00312D02*
Y00366D01*
X00669Y00224D02*
Y00278D01*
X00671Y00224D02*
X00669D01*
X00725D02*
X00671D01*
X00725D02*
Y00225D01*
Y00278*
G54D12*
X00743Y00387D02*
D01*
X00743Y00386*
X00743Y00386*
X00743Y00386*
X00743Y00386*
X00743Y00385*
X00743Y00385*
X00743Y00385*
X00743Y00385*
X00743Y00385*
X00744Y00385*
X00744Y00384*
X00744Y00384*
X00744Y00384*
X00744Y00384*
X00744Y00384*
X00745Y00384*
X00745Y00384*
X00745Y00384*
X00745Y00384*
X00745Y00384*
X00746Y00384*
X00746Y00384*
X00746*
X00746Y00384*
X00746Y00384*
X00747Y00384*
X00747Y00384*
X00747Y00384*
X00747Y00384*
X00747Y00384*
X00748Y00384*
X00748Y00384*
X00748Y00384*
X00748Y00384*
X00748Y00385*
X00748Y00385*
X00748Y00385*
X00749Y00385*
X00749Y00385*
X00749Y00385*
X00749Y00386*
X00749Y00386*
X00749Y00386*
X00749Y00386*
X00749Y00387*
X00749Y00387*
X00749Y00387*
X00749Y00387*
X00749Y00387*
X00749Y00388*
X00749Y00388*
X00749Y00388*
X00748Y00388*
X00748Y00388*
X00748Y00388*
X00748Y00389*
X00748Y00389*
X00748Y00389*
X00748Y00389*
X00747Y00389*
X00747Y00389*
X00747Y00389*
X00747Y00389*
X00747Y00389*
X00746Y00389*
X00746Y00389*
X00746Y00389*
X00746*
X00746Y00389*
X00745Y00389*
X00745Y00389*
X00745Y00389*
X00745Y00389*
X00745Y00389*
X00744Y00389*
X00744Y00389*
X00744Y00389*
X00744Y00389*
X00744Y00389*
X00744Y00388*
X00743Y00388*
X00743Y00388*
X00743Y00388*
X00743Y00388*
X00743Y00388*
X00743Y00387*
X00743Y00387*
X00743Y00387*
X00743Y00387*
X00743Y00387*
X00767Y00331D02*
D01*
X00767Y0033*
X00767Y0033*
X00767Y0033*
X00767Y0033*
X00767Y0033*
X00767Y0033*
X00767Y0033*
X00767Y0033*
X00767Y0033*
X00767Y0033*
X00767Y0033*
X00767Y0033*
X00767Y0033*
X00767Y0033*
X00767Y0033*
X00767Y0033*
X00767Y0033*
X00767Y0033*
X00767Y0033*
X00767Y0033*
X00767Y0033*
X00767Y0033*
X00768*
X00768Y0033*
X00768Y0033*
X00768Y0033*
X00768Y0033*
X00768Y0033*
X00768Y0033*
X00768Y0033*
X00768Y0033*
X00768Y0033*
X00768Y0033*
X00768Y0033*
X00768Y0033*
X00768Y0033*
X00768Y0033*
X00768Y0033*
X00768Y0033*
X00768Y0033*
X00768Y0033*
X00768Y0033*
X00768Y0033*
X00768Y0033*
X00769Y00331*
X00768Y00331*
X00768Y00331*
X00768Y00331*
X00768Y00331*
X00768Y00331*
X00768Y00331*
X00768Y00331*
X00768Y00331*
X00768Y00331*
X00768Y00331*
X00768Y00331*
X00768Y00331*
X00768Y00331*
X00768Y00331*
X00768Y00331*
X00768Y00331*
X00768Y00331*
X00768Y00331*
X00768Y00331*
X00768Y00331*
X00768Y00331*
X00768Y00331*
X00767*
X00767Y00331*
X00767Y00331*
X00767Y00331*
X00767Y00331*
X00767Y00331*
X00767Y00331*
X00767Y00331*
X00767Y00331*
X00767Y00331*
X00767Y00331*
X00767Y00331*
X00767Y00331*
X00767Y00331*
X00767Y00331*
X00767Y00331*
X00767Y00331*
X00767Y00331*
X00767Y00331*
X00767Y00331*
X00767Y00331*
X00767Y00331*
X00767Y00331*
X0055Y00265D02*
D01*
X0055Y00265*
X0055Y00265*
X0055Y00265*
X0055Y00265*
X0055Y00265*
X0055Y00265*
X0055Y00265*
X0055Y00265*
X0055Y00265*
X0055Y00264*
X0055Y00264*
X0055Y00264*
X0055Y00264*
X0055Y00264*
X0055Y00264*
X0055Y00264*
X00551Y00264*
X00551Y00264*
X00551Y00264*
X00551Y00264*
X00551Y00264*
X00551Y00264*
X00551*
X00551Y00264*
X00551Y00264*
X00551Y00264*
X00551Y00264*
X00551Y00264*
X00551Y00264*
X00551Y00264*
X00551Y00264*
X00552Y00264*
X00552Y00264*
X00552Y00264*
X00552Y00264*
X00552Y00265*
X00552Y00265*
X00552Y00265*
X00552Y00265*
X00552Y00265*
X00552Y00265*
X00552Y00265*
X00552Y00265*
X00552Y00265*
X00552Y00265*
X00552Y00265*
X00552Y00265*
X00552Y00265*
X00552Y00265*
X00552Y00265*
X00552Y00266*
X00552Y00266*
X00552Y00266*
X00552Y00266*
X00552Y00266*
X00552Y00266*
X00552Y00266*
X00552Y00266*
X00551Y00266*
X00551Y00266*
X00551Y00266*
X00551Y00266*
X00551Y00266*
X00551Y00266*
X00551Y00266*
X00551Y00266*
X00551Y00266*
X00551*
X00551Y00266*
X00551Y00266*
X00551Y00266*
X00551Y00266*
X00551Y00266*
X0055Y00266*
X0055Y00266*
X0055Y00266*
X0055Y00266*
X0055Y00266*
X0055Y00266*
X0055Y00266*
X0055Y00266*
X0055Y00266*
X0055Y00266*
X0055Y00266*
X0055Y00265*
X0055Y00265*
X0055Y00265*
X0055Y00265*
X0055Y00265*
X0055Y00265*
X00492Y00244D02*
D01*
X00492Y00243*
X00492Y00243*
X00492Y00243*
X00492Y00243*
X00492Y00242*
X00492Y00242*
X00492Y00242*
X00492Y00242*
X00492Y00242*
X00493Y00242*
X00493Y00241*
X00493Y00241*
X00493Y00241*
X00493Y00241*
X00493Y00241*
X00494Y00241*
X00494Y00241*
X00494Y00241*
X00494Y00241*
X00494Y00241*
X00495Y00241*
X00495Y00241*
X00495*
X00495Y00241*
X00495Y00241*
X00496Y00241*
X00496Y00241*
X00496Y00241*
X00496Y00241*
X00496Y00241*
X00497Y00241*
X00497Y00241*
X00497Y00241*
X00497Y00241*
X00497Y00242*
X00497Y00242*
X00497Y00242*
X00498Y00242*
X00498Y00242*
X00498Y00242*
X00498Y00243*
X00498Y00243*
X00498Y00243*
X00498Y00243*
X00498Y00244*
X00498Y00244*
X00498Y00244*
X00498Y00244*
X00498Y00244*
X00498Y00245*
X00498Y00245*
X00498Y00245*
X00497Y00245*
X00497Y00245*
X00497Y00245*
X00497Y00246*
X00497Y00246*
X00497Y00246*
X00497Y00246*
X00496Y00246*
X00496Y00246*
X00496Y00246*
X00496Y00246*
X00496Y00246*
X00495Y00246*
X00495Y00246*
X00495Y00246*
X00495*
X00495Y00246*
X00494Y00246*
X00494Y00246*
X00494Y00246*
X00494Y00246*
X00494Y00246*
X00493Y00246*
X00493Y00246*
X00493Y00246*
X00493Y00246*
X00493Y00246*
X00493Y00245*
X00492Y00245*
X00492Y00245*
X00492Y00245*
X00492Y00245*
X00492Y00245*
X00492Y00244*
X00492Y00244*
X00492Y00244*
X00492Y00244*
X00492Y00244*
G54D13*
X00283Y00671D02*
X00181D01*
X00283Y00568D02*
X00181D01*
X00283D02*
Y00671D01*
X00143Y00839D02*
Y0102D01*
X00326Y01003D02*
Y01053D01*
X00257*
X00326Y00806D02*
X00257D01*
X00326D02*
Y00856D01*
X00876Y00834D02*
Y01015D01*
X00693Y00801D02*
Y00851D01*
X00762Y00801D02*
X00693D01*
X00762Y01048D02*
X00693D01*
Y00998D02*
Y01048D01*
X00858Y00661D02*
X00756D01*
X00858Y00558D02*
X00756D01*
X00858D02*
Y00661D01*
X00593Y00075D02*
Y0014D01*
Y00075D02*
X00533D01*
Y0014*
X00593D02*
X00533D01*
X00648Y00213D02*
X00373D01*
Y00015D02*
Y00213D01*
X00648Y00015D02*
X00373D01*
X00648D02*
Y00213D01*
Y00035D02*
X00373D01*
X00488Y0014D02*
X00428D01*
X00488Y00075D02*
Y0014D01*
Y00075D02*
X00428D01*
Y0014*
X00449Y00274D02*
Y00241D01*
X00443Y00235*
X0043*
X00423Y00241*
Y00274*
X00384Y00268D02*
X0039Y00274D01*
X00403*
X0041Y00268*
Y00261*
X00403Y00255*
X0039*
X00384Y00248*
Y00241*
X0039Y00235*
X00403*
X0041Y00241*
X00371Y00274D02*
Y00235D01*
X00351*
X00344Y00241*
Y00248*
X00351Y00255*
X00371*
X00351*
X00344Y00261*
Y00268*
X00351Y00274*
X00371*
X0077Y00789D02*
Y00756D01*
X00763Y0075*
X0075*
X00743Y00756*
Y00789*
X00704D02*
X0073D01*
Y0077*
X00717Y00776*
X00711*
X00704Y0077*
Y00756*
X00711Y0075*
X00724*
X0073Y00756*
X0033Y00794D02*
Y00761D01*
X00323Y00755*
X0031*
X00303Y00761*
Y00794*
X00271Y00755D02*
Y00794D01*
X0029Y00775*
X00264*
X0058Y00854D02*
Y00821D01*
X00573Y00815*
X0056*
X00553Y00821*
Y00854*
X0054Y00848D02*
X00534Y00854D01*
X00521*
X00514Y00848*
Y00841*
X00521Y00835*
X00527*
X00521*
X00514Y00828*
Y00821*
X00521Y00815*
X00534*
X0054Y00821*
X00885Y00454D02*
Y00421D01*
X00878Y00415*
X00865*
X00858Y00421*
Y00454*
X00819Y00415D02*
X00845D01*
X00819Y00441*
Y00448*
X00826Y00454*
X00839*
X00845Y00448*
X00468Y00364D02*
Y00331D01*
X00462Y00325*
X00448*
X00442Y00331*
Y00364*
X00429Y00325D02*
X00416D01*
X00422*
Y00364*
X00429Y00358*
X00622Y01101D02*
Y01114D01*
Y01108*
X00655*
X00662Y01114*
Y01121*
X00655Y01127*
X00662Y01062D02*
Y01088D01*
X00635Y01062*
X00629*
X00622Y01068*
Y01081*
X00629Y01088*
X00367Y0109D02*
Y01076D01*
Y01083*
X00334*
X00327Y01076*
Y0107*
X00334Y01063*
X00327Y01103D02*
Y01116D01*
Y01109*
X00367*
X0036Y01103*
X00775Y00464D02*
Y00425D01*
X00755*
X00748Y00431*
Y00458*
X00755Y00464*
X00775*
X00709Y00425D02*
X00735D01*
X00709Y00451*
Y00458*
X00716Y00464*
X00729*
X00735Y00458*
G54D14*
X00748Y00298D02*
Y00343D01*
X00866Y00298D02*
Y00343D01*
Y00298D02*
X00748D01*
X00866Y00343D02*
X00748D01*
X00539Y00245D02*
Y00364D01*
X00584Y00245D02*
Y00364D01*
X00539*
X00584Y00245D02*
X00539D01*
G54D15*
X00618Y01017D02*
X00615Y01019D01*
X00612Y01022*
X0061Y01025*
Y01031*
X00612Y01034*
X00615Y01037*
X00618Y01038*
X00622Y0104*
X0063*
X00634Y01038*
X00637Y01037*
X0064Y01034*
X00642Y01031*
Y01025*
X0064Y01022*
X00637Y01019*
X00634Y01017*
X0063*
Y01025D02*
Y01017D01*
X0061Y0101D02*
X00642D01*
X0061D02*
X00642Y00989D01*
X0061D02*
X00642D01*
X0061Y0098D02*
X00642D01*
X0061D02*
Y0097D01*
X00612Y00965*
X00615Y00962*
X00618Y00961*
X00622Y00959*
X0063*
X00634Y00961*
X00637Y00962*
X0064Y00965*
X00642Y0097*
Y0098*
X00589Y00935D02*
X0055D01*
X00589D02*
Y00948D01*
X00588Y00953*
X00584Y00957*
X0058Y00959*
X00574Y00961*
X00565*
X00559Y00959*
X00556Y00957*
X00552Y00953*
X0055Y00948*
Y00935*
X00576Y00971D02*
X0055Y00983D01*
X00576Y00994D02*
X0055Y00983D01*
X00543Y00979*
X00539Y00975*
X00537Y00971*
Y0097*
X00576Y01D02*
X0055D01*
X00569D02*
X00574Y01006D01*
X00576Y0101*
Y01015*
X00574Y01019*
X00569Y01021*
X0055*
X00576Y01054D02*
X0055D01*
X00571D02*
X00574Y0105D01*
X00576Y01046*
Y01041*
X00574Y01037*
X00571Y01033*
X00565Y01031*
X00561*
X00556Y01033*
X00552Y01037*
X0055Y01041*
Y01046*
X00552Y0105*
X00556Y01054*
X00576Y01064D02*
X0055D01*
X00569D02*
X00574Y0107D01*
X00576Y01074*
Y01079*
X00574Y01083*
X00569Y01085*
X0055*
X00569D02*
X00574Y01091D01*
X00576Y01094*
Y011*
X00574Y01104*
X00569Y01106*
X0055*
X00589Y01122D02*
X00588Y01124D01*
X00589Y01126*
X00591Y01124*
X00589Y01122*
X00576Y01124D02*
X0055D01*
X00571Y01155D02*
X00574Y01151D01*
X00576Y01147*
Y01142*
X00574Y01138*
X00571Y01134*
X00565Y01132*
X00561*
X00556Y01134*
X00552Y01138*
X0055Y01142*
Y01147*
X00552Y01151*
X00556Y01155*
X00537Y01163D02*
Y01193D01*
X00589Y01198D02*
X0055Y01225D01*
X00589D02*
X0055Y01198D01*
X00398Y00932D02*
Y00918D01*
X00385Y00916*
X00386Y00918*
X00388Y00922*
Y00927*
X00386Y00931*
X00383Y00934*
X00379Y00935*
X00376*
X00371Y00934*
X00368Y00931*
X00367Y00927*
Y00922*
X00368Y00918*
X0037Y00916*
X00373Y00915*
X00398Y00943D02*
X00367Y00955D01*
X00398Y00967D02*
X00367Y00955D01*
X00516Y0093D02*
X00488D01*
X00483Y00931*
X00479Y00935*
X00477Y00941*
Y00944*
X00479Y0095*
X00483Y00954*
X00488Y00956*
X00516*
X00511Y00993D02*
X00514Y00989D01*
X00516Y00983*
Y00976*
X00514Y0097*
X00511Y00967*
X00507*
X00503Y00968*
X00501Y0097*
X00499Y00974*
X00496Y00985*
X00494Y00989*
X00492Y00991*
X00488Y00993*
X00483*
X00479Y00989*
X00477Y00983*
Y00976*
X00479Y0097*
X00483Y00967*
X00516Y01002D02*
X00477D01*
X00516D02*
Y01019D01*
X00514Y01024*
X00513Y01026*
X00509Y01028*
X00505*
X00501Y01026*
X00499Y01024*
X00498Y01019*
Y01002D02*
Y01019D01*
X00496Y01024*
X00494Y01026*
X0049Y01028*
X00484*
X00481Y01026*
X00479Y01024*
X00477Y01019*
Y01002*
X00507Y01039D02*
X00509D01*
X00513Y0104*
X00514Y01042*
X00516Y01046*
Y01054*
X00514Y01057*
X00513Y01059*
X00509Y01061*
X00505*
X00501Y01059*
X00496Y01055*
X00477Y01037*
Y01063*
X00516Y01072D02*
X00488D01*
X00483Y01074*
X00479Y01077*
X00477Y01083*
Y01087*
X00479Y01092*
X00483Y01096*
X00488Y01098*
X00516*
X00477Y01139D02*
X00516Y01124D01*
X00477Y01109*
X0049Y01115D02*
Y01133D01*
X00516Y01148D02*
X00477D01*
X00516D02*
Y01165D01*
X00514Y01171*
X00513Y01172*
X00509Y01174*
X00505*
X00501Y01172*
X00499Y01171*
X00498Y01165*
Y01148*
Y01161D02*
X00477Y01174D01*
X00516Y01196D02*
X00477D01*
X00516Y01183D02*
Y01209D01*
X0061Y00929D02*
X00642D01*
X0061Y0094D02*
Y00919D01*
Y00915D02*
X00642Y00894D01*
X0061D02*
X00642Y00915D01*
X00391Y00992D02*
X00394Y0099D01*
X00397Y00987*
X00398Y00985*
Y00979*
X00397Y00976*
X00394Y00973*
X00391Y00971*
X00386Y0097*
X00379*
X00374Y00971*
X00371Y00973*
X00368Y00976*
X00367Y00979*
Y00985*
X00368Y00987*
X00371Y0099*
X00374Y00992*
X00379*
Y00985D02*
Y00992D01*
X00398Y00999D02*
X00367D01*
X00398D02*
X00367Y0102D01*
X00398D02*
X00367D01*
X00398Y01029D02*
X00367D01*
X00398D02*
Y01039D01*
X00397Y01044*
X00394Y01047*
X00391Y01048*
X00386Y0105*
X00379*
X00374Y01048*
X00371Y01047*
X00368Y01044*
X00367Y01039*
Y01029*
X0061Y00875D02*
X00642D01*
X0061D02*
Y00861D01*
X00612Y00857*
X00613Y00855*
X00616Y00854*
X00619*
X00622Y00855*
X00624Y00857*
X00625Y00861*
Y00875*
Y00864D02*
X00642Y00854D01*
X0061Y00846D02*
X00642Y00825D01*
X0061D02*
X00642Y00846D01*
X00398Y00855D02*
X00367D01*
X00398D02*
Y00868D01*
X00397Y00872*
X00395Y00874*
X00392Y00875*
X00389*
X00386Y00874*
X00385Y00872*
X00383Y00868*
Y00855*
Y00865D02*
X00367Y00875D01*
X00398Y00883D02*
X00367Y00904D01*
X00398D02*
X00367Y00883D01*
X00464Y0093D02*
X00425D01*
X00464D02*
Y00946D01*
X00463Y00952*
X00461Y00954*
X00457Y00956*
X00453*
X00449Y00954*
X00448Y00952*
X00446Y00946*
Y0093D02*
Y00946D01*
X00444Y00952*
X00442Y00954*
X00438Y00956*
X00433*
X00429Y00954*
X00427Y00952*
X00425Y00946*
Y0093*
X00451Y00966D02*
X00425Y00978D01*
X00451Y00989D02*
X00425Y00978D01*
X00418Y00974*
X00414Y0097*
X00412Y00966*
Y00965*
X00451Y01047D02*
X00425Y01026D01*
X00451D02*
Y01047D01*
X00425Y01026D02*
Y01047D01*
X00464Y01055D02*
X00425D01*
X00444D02*
X00449Y01061D01*
X00451Y01065*
Y0107*
X00449Y01074*
X00444Y01076*
X00425*
X00451Y01086D02*
X00433D01*
X00427Y01088*
X00425Y01092*
Y01097*
X00427Y01101*
X00433Y01107*
X00451D02*
X00425D01*
X00451Y01127D02*
X00449Y01123D01*
X00446Y01119*
X0044Y01117*
X00436*
X00431Y01119*
X00427Y01123*
X00425Y01127*
Y01132*
X00427Y01136*
X00431Y0114*
X00436Y01141*
X0044*
X00446Y0114*
X00449Y01136*
X00451Y01132*
Y01127*
M02*