%FSTAX23Y23*%
%MOIN*%
%SFA1B1*%

%IPPOS*%
%ADD57C,0.003940*%
%ADD62C,0.005910*%
%ADD64C,0.003000*%
%LNusb2uart-1*%
%LPD*%
G54D57*
X00758Y00331D02*
D01*
X00758Y0033*
X00758Y0033*
X00758Y00329*
X00758Y00328*
X00758Y00328*
X00759Y00327*
X00759Y00326*
X00759Y00326*
X0076Y00325*
X0076Y00325*
X00761Y00324*
X00761Y00324*
X00762Y00323*
X00762Y00323*
X00763Y00322*
X00763Y00322*
X00764Y00322*
X00765Y00321*
X00765Y00321*
X00766Y00321*
X00767Y00321*
X00768Y00321*
X00768*
X00769Y00321*
X0077Y00321*
X0077Y00321*
X00771Y00321*
X00772Y00322*
X00772Y00322*
X00773Y00322*
X00773Y00323*
X00774Y00323*
X00775Y00324*
X00775Y00324*
X00776Y00325*
X00776Y00325*
X00776Y00326*
X00777Y00326*
X00777Y00327*
X00777Y00328*
X00777Y00328*
X00778Y00329*
X00778Y0033*
X00778Y0033*
X00778Y00331*
X00778Y00332*
X00778Y00332*
X00778Y00333*
X00777Y00334*
X00777Y00334*
X00777Y00335*
X00777Y00336*
X00776Y00336*
X00776Y00337*
X00776Y00337*
X00775Y00338*
X00775Y00338*
X00774Y00339*
X00773Y00339*
X00773Y0034*
X00772Y0034*
X00772Y0034*
X00771Y00341*
X0077Y00341*
X0077Y00341*
X00769Y00341*
X00768Y00341*
X00768*
X00767Y00341*
X00766Y00341*
X00765Y00341*
X00765Y00341*
X00764Y0034*
X00763Y0034*
X00763Y0034*
X00762Y00339*
X00762Y00339*
X00761Y00338*
X00761Y00338*
X0076Y00337*
X0076Y00337*
X00759Y00336*
X00759Y00336*
X00759Y00335*
X00758Y00334*
X00758Y00334*
X00758Y00333*
X00758Y00332*
X00758Y00332*
X00758Y00331*
X0054Y00265D02*
D01*
X0054Y00265*
X0054Y00264*
X00541Y00263*
X00541Y00263*
X00541Y00262*
X00541Y00261*
X00542Y00261*
X00542Y0026*
X00542Y0026*
X00543Y00259*
X00543Y00258*
X00544Y00258*
X00544Y00258*
X00545Y00257*
X00545Y00257*
X00546Y00256*
X00547Y00256*
X00547Y00256*
X00548Y00256*
X00549Y00256*
X00549Y00255*
X0055Y00255*
X00551*
X00551Y00255*
X00552Y00256*
X00553Y00256*
X00553Y00256*
X00554Y00256*
X00555Y00256*
X00555Y00257*
X00556Y00257*
X00557Y00258*
X00557Y00258*
X00558Y00258*
X00558Y00259*
X00558Y0026*
X00559Y0026*
X00559Y00261*
X0056Y00261*
X0056Y00262*
X0056Y00263*
X0056Y00263*
X0056Y00264*
X0056Y00265*
X0056Y00265*
X0056Y00266*
X0056Y00267*
X0056Y00268*
X0056Y00268*
X0056Y00269*
X0056Y0027*
X00559Y0027*
X00559Y00271*
X00558Y00271*
X00558Y00272*
X00558Y00272*
X00557Y00273*
X00557Y00273*
X00556Y00274*
X00555Y00274*
X00555Y00274*
X00554Y00275*
X00553Y00275*
X00553Y00275*
X00552Y00275*
X00551Y00275*
X00551Y00275*
X0055*
X00549Y00275*
X00549Y00275*
X00548Y00275*
X00547Y00275*
X00547Y00275*
X00546Y00274*
X00545Y00274*
X00545Y00274*
X00544Y00273*
X00544Y00273*
X00543Y00272*
X00543Y00272*
X00542Y00271*
X00542Y00271*
X00542Y0027*
X00541Y0027*
X00541Y00269*
X00541Y00268*
X00541Y00268*
X0054Y00267*
X0054Y00266*
X0054Y00265*
X00745Y00364D02*
Y00415D01*
X00864Y00364D02*
Y00415D01*
Y00364D02*
X00745D01*
X00864Y00415D02*
X00745D01*
X00178Y00519D02*
Y0057D01*
X00296Y00519D02*
Y0057D01*
Y00519D02*
X00178D01*
X00296Y0057D02*
X00178D01*
X00748Y00288D02*
Y00351D01*
X00866D02*
X00748D01*
X00866Y00288D02*
Y00351D01*
Y00288D02*
X00748D01*
X00593Y00245D02*
Y00364D01*
X0053*
Y00245D02*
Y00364D01*
X00593Y00245D02*
X0053D01*
G54D62*
X0033Y00655D02*
D01*
X0033Y00653*
X0033Y00651*
X0033Y0065*
X0033Y00648*
X00331Y00647*
X00331Y00645*
X00332Y00644*
X00333Y00643*
X00334Y00641*
X00335Y0064*
X00336Y00639*
X00337Y00638*
X00338Y00637*
X00339Y00636*
X00341Y00635*
X00342Y00634*
X00344Y00634*
X00345Y00633*
X00346Y00633*
X00348Y00632*
X0035Y00632*
X00351Y00632*
X00353*
X00354Y00632*
X00356Y00632*
X00357Y00633*
X00359Y00633*
X0036Y00634*
X00362Y00634*
X00363Y00635*
X00364Y00636*
X00366Y00637*
X00367Y00638*
X00368Y00639*
X00369Y0064*
X0037Y00641*
X00371Y00643*
X00372Y00644*
X00372Y00645*
X00373Y00647*
X00373Y00648*
X00374Y0065*
X00374Y00651*
X00374Y00653*
X00374Y00655*
X00374Y00656*
X00374Y00658*
X00374Y00659*
X00373Y00661*
X00373Y00662*
X00372Y00664*
X00372Y00665*
X00371Y00666*
X0037Y00668*
X00369Y00669*
X00368Y0067*
X00367Y00671*
X00366Y00672*
X00364Y00673*
X00363Y00674*
X00362Y00675*
X0036Y00675*
X00359Y00676*
X00357Y00676*
X00356Y00677*
X00354Y00677*
X00353Y00677*
X00351*
X0035Y00677*
X00348Y00677*
X00346Y00676*
X00345Y00676*
X00344Y00675*
X00342Y00675*
X00341Y00674*
X00339Y00673*
X00338Y00672*
X00337Y00671*
X00336Y0067*
X00335Y00669*
X00334Y00668*
X00333Y00666*
X00332Y00665*
X00331Y00664*
X00331Y00662*
X0033Y00661*
X0033Y00659*
X0033Y00658*
X0033Y00656*
X0033Y00655*
X00718Y00692D02*
X00316D01*
X00718Y00467D02*
Y00692D01*
Y00467D02*
X00316D01*
Y00692*
G54D64*
X00189Y00655D02*
D01*
X00189Y00654*
X00189Y00654*
X00189Y00653*
X0019Y00653*
X0019Y00652*
X0019Y00651*
X0019Y00651*
X00191Y0065*
X00191Y0065*
X00191Y00649*
X00192Y00649*
X00192Y00649*
X00192Y00648*
X00193Y00648*
X00193Y00648*
X00194Y00647*
X00195Y00647*
X00195Y00647*
X00196Y00647*
X00196Y00647*
X00197Y00646*
X00197Y00646*
X00198*
X00199Y00646*
X00199Y00647*
X002Y00647*
X002Y00647*
X00201Y00647*
X00202Y00647*
X00202Y00648*
X00203Y00648*
X00203Y00648*
X00203Y00649*
X00204Y00649*
X00204Y00649*
X00205Y0065*
X00205Y0065*
X00205Y00651*
X00206Y00651*
X00206Y00652*
X00206Y00653*
X00206Y00653*
X00206Y00654*
X00206Y00654*
X00206Y00655*
X00206Y00656*
X00206Y00656*
X00206Y00657*
X00206Y00657*
X00206Y00658*
X00206Y00658*
X00205Y00659*
X00205Y00659*
X00205Y0066*
X00204Y0066*
X00204Y00661*
X00203Y00661*
X00203Y00662*
X00203Y00662*
X00202Y00662*
X00202Y00663*
X00201Y00663*
X002Y00663*
X002Y00663*
X00199Y00663*
X00199Y00663*
X00198Y00663*
X00197*
X00197Y00663*
X00196Y00663*
X00196Y00663*
X00195Y00663*
X00195Y00663*
X00194Y00663*
X00193Y00662*
X00193Y00662*
X00192Y00662*
X00192Y00661*
X00192Y00661*
X00191Y0066*
X00191Y0066*
X00191Y00659*
X0019Y00659*
X0019Y00658*
X0019Y00658*
X0019Y00657*
X00189Y00657*
X00189Y00656*
X00189Y00656*
X00189Y00655*
X00764Y00645D02*
D01*
X00764Y00644*
X00764Y00644*
X00764Y00643*
X00765Y00643*
X00765Y00642*
X00765Y00641*
X00765Y00641*
X00766Y0064*
X00766Y0064*
X00766Y00639*
X00767Y00639*
X00767Y00639*
X00767Y00638*
X00768Y00638*
X00768Y00638*
X00769Y00637*
X0077Y00637*
X0077Y00637*
X00771Y00637*
X00771Y00637*
X00772Y00636*
X00772Y00636*
X00773*
X00774Y00636*
X00774Y00637*
X00775Y00637*
X00775Y00637*
X00776Y00637*
X00777Y00637*
X00777Y00638*
X00778Y00638*
X00778Y00638*
X00778Y00639*
X00779Y00639*
X00779Y00639*
X0078Y0064*
X0078Y0064*
X0078Y00641*
X00781Y00641*
X00781Y00642*
X00781Y00643*
X00781Y00643*
X00781Y00644*
X00781Y00644*
X00781Y00645*
X00781Y00646*
X00781Y00646*
X00781Y00647*
X00781Y00647*
X00781Y00648*
X00781Y00648*
X0078Y00649*
X0078Y00649*
X0078Y0065*
X00779Y0065*
X00779Y00651*
X00778Y00651*
X00778Y00652*
X00778Y00652*
X00777Y00652*
X00777Y00653*
X00776Y00653*
X00775Y00653*
X00775Y00653*
X00774Y00653*
X00774Y00653*
X00773Y00653*
X00772*
X00772Y00653*
X00771Y00653*
X00771Y00653*
X0077Y00653*
X0077Y00653*
X00769Y00653*
X00768Y00652*
X00768Y00652*
X00767Y00652*
X00767Y00651*
X00767Y00651*
X00766Y0065*
X00766Y0065*
X00766Y00649*
X00765Y00649*
X00765Y00648*
X00765Y00648*
X00765Y00647*
X00764Y00647*
X00764Y00646*
X00764Y00646*
X00764Y00645*
X00291Y00679D02*
X00173D01*
Y0056D02*
Y00679D01*
X00291Y0056D02*
X00173D01*
X00291D02*
Y00679D01*
X00866Y00669D02*
X00748D01*
Y0055D02*
Y00669D01*
X00866Y0055D02*
X00748D01*
X00866D02*
Y00669D01*
M02*