%FSTAX23Y23*%
%MOIN*%
%SFA1B1*%

%IPPOS*%
%AMD34*
4,1,8,-0.021500,0.018200,-0.021500,-0.018200,-0.010700,-0.029000,0.010700,-0.029000,0.021500,-0.018200,0.021500,0.018200,0.010700,0.029000,-0.010700,0.029000,-0.021500,0.018200,0.0*
%
%ADD26R,0.018240X0.059180*%
%ADD27O,0.018240X0.059180*%
%ADD28R,0.118110X0.047240*%
%ADD29R,0.074800X0.031500*%
%ADD30R,0.027690X0.055240*%
%ADD31R,0.021780X0.074930*%
%ADD32O,0.021780X0.074930*%
%ADD33R,0.043000X0.058000*%
G04~CAMADD=34~4~0.0~0.0~580.0~430.0~0.0~107.5~0~0.0~0.0~0.0~0.0~0~0.0~0.0~0.0~0.0~0~0.0~0.0~0.0~90.0~430.0~580.0*
%ADD34D34*%
%ADD35R,0.055240X0.027690*%
%ADD36C,0.204850*%
%ADD37R,0.047370X0.047370*%
%ADD38C,0.047370*%
%ADD39C,0.208000*%
%LNusb2uart-1*%
%LPD*%
G54D26*
X00193Y00716D03*
X00768Y00706D03*
G54D27*
X00212Y00716D03*
X00232D03*
X00252D03*
X00271D03*
Y00523D03*
X00252D03*
X00232D03*
X00212D03*
X00193D03*
X00787Y00706D03*
X00807D03*
X00827D03*
X00846D03*
Y00513D03*
X00827D03*
X00807D03*
X00787D03*
X00768D03*
G54D28*
X00191Y01052D03*
Y00807D03*
X00828Y00802D03*
Y01047D03*
G54D29*
X00323Y0093D03*
Y00979D03*
Y0088D03*
X00696Y00925D03*
Y00875D03*
Y00974D03*
G54D30*
X00844Y00264D03*
X0077D03*
X00807Y00375D03*
X0077D03*
X00844D03*
G54D31*
X00351Y00733D03*
G54D32*
X00376Y00733D03*
X00402D03*
X00427D03*
X00453D03*
X00479D03*
X00504D03*
X0053D03*
X00555D03*
X00581D03*
X00606D03*
X00632D03*
X00658D03*
X00683D03*
Y00426D03*
X00658D03*
X00632D03*
X00606D03*
X00581D03*
X00555D03*
X0053D03*
X00504D03*
X00479D03*
X00453D03*
X00427D03*
X00402D03*
X00376D03*
X00351D03*
G54D33*
X00697Y0026D03*
G54D34*
X00697Y0033D03*
G54D35*
X00507Y00342D03*
Y00267D03*
Y00305D03*
X00617Y00267D03*
Y00342D03*
G54D36*
X00782Y00115D03*
G54D37*
X00585Y0018D03*
G54D38*
X00535Y0018D03*
X00486D03*
X00437D03*
G54D39*
X00237Y012D03*
X00783D03*
X00237Y0012D03*
M02*