%FSTAX23Y23*%
%MOIN*%
%SFA1B1*%

%IPPOS*%
%ADD30R,0.027690X0.055240*%
%ADD36C,0.204850*%
%ADD37R,0.047370X0.047370*%
%ADD38C,0.047370*%
%ADD39C,0.208000*%
%ADD52R,0.019810X0.031620*%
%ADD53R,0.023750X0.027690*%
%ADD54R,0.027690X0.023750*%
%ADD55R,0.059180X0.055240*%
%ADD56R,0.016820X0.031030*%
%LNusb2uart-1*%
%LPD*%
G54D30*
X00805Y00345D03*
X00767Y00435D03*
X00842D03*
X00237Y005D03*
X002Y0059D03*
X00274D03*
G54D36*
X00782Y00115D03*
G54D37*
X00585Y0018D03*
G54D38*
X00535Y0018D03*
X00486D03*
X00437D03*
G54D39*
X00237Y012D03*
X00783D03*
X00237Y0012D03*
G54D52*
X00241Y0093D03*
X00267D03*
X00267Y0088D03*
X00242D03*
X00642Y00925D03*
X00616D03*
X00642Y00875D03*
X00617D03*
G54D53*
X00799Y00495D03*
X00835D03*
X00273Y00645D03*
X00239D03*
X00183Y0044D03*
X00217D03*
X00259Y0042D03*
X00295D03*
X00643Y0082D03*
X00609D03*
X00725D03*
X00689D03*
X00436D03*
X00472D03*
X0055D03*
X00514D03*
X00516Y00505D03*
X0055D03*
X00455D03*
X00419D03*
X00627D03*
X0066D03*
X00591Y0054D03*
X00627D03*
G54D54*
X00817Y0028D03*
Y00245D03*
X00772D03*
Y00278D03*
X00372Y0087D03*
Y00903D03*
X00532Y00301D03*
Y00335D03*
X00697Y00283D03*
Y0025D03*
X00477Y00305D03*
X00477Y0027D03*
X00642Y00302D03*
Y00267D03*
G54D55*
X00451Y00953D03*
X00533D03*
Y00886D03*
X00451D03*
G54D56*
X00486Y0011D03*
X00502D03*
X00518D03*
Y00077D03*
X00502D03*
X00486D03*
M02*