M48
METRIC,LZ,000.000
;FILE_FORMAT=3:3
;TYPE=PLATED
;Layer: Drill PTH
;EasyEDA v6.4.20.6, 2021-08-10T23:17:12+08:00
;038dca5a8d274e5a88e6f2799ec95489,d221c9f3c2774e99b69775551637dae4,10
;Gerber Generator version 0.2
;Holesize 1 = 0.305 mm
T01C0.305
;Holesize 2 = 0.306 mm
T02C0.306
;Holesize 3 = 0.501 mm
T03C0.501
;Holesize 4 = 2.501 mm
T04C2.501
%
G05
G90
T01
X016637Y004318
X016637Y006223
X009652Y009271
X010668Y009652
X023622Y002921
X027791Y004913
X011698Y003697
X012954Y003683
X006858Y020193
X007874Y019304
X011938Y018758
X013208Y018796
X033782Y004572
X033782Y003302
X033782Y012700
X033782Y011430
X004572Y009652
X002159Y017653
X010922Y016256
X017653Y020828
X009144Y006604
X015113Y009779
X012954Y016129
X014243Y013286
X013716Y016383
X008890Y016383
X002159Y020320
X004445Y021590
X006096Y021717
X019558Y003048
X019304Y008763
X025146Y002667
X024892Y006985
X022860Y002540
X027940Y014986
X027686Y018542
X019304Y020066
X019304Y014351
X025085Y014036
X024511Y018268
X029210Y011684
X012954Y011430
X006731Y002667
X027686Y017399
X022860Y013970
X029591Y020193
X027559Y005842
X016764Y011684
X001270Y007239
X000889Y016129
X000889Y014224
X000889Y017907
X000889Y019685
X000889Y021209
X011557Y021717
X012954Y021717
X014351Y021717
X011557Y020955
X012954Y020955
X014351Y020955
X015494Y017653
X016510Y017653
X015494Y016510
X017780Y011684
X018669Y011684
X016764Y010795
X017780Y010795
X018669Y010795
X016764Y009779
X017780Y009779
X016764Y012573
X017780Y012573
X018669Y012573
X016129Y008890
X016129Y007874
X011430Y001397
X012446Y001397
X013462Y001397
X014478Y001397
X020447Y007493
X022860Y007493
X020447Y005461
X022860Y005461
X021590Y018669
X022733Y018669
X021590Y017526
X022733Y017526
X021590Y016510
X022860Y016510
X029464Y009779
X030734Y009779
X032131Y009779
X029464Y008509
X030734Y008509
X032131Y008382
X030734Y007239
X032131Y007239
X028702Y001778
X030099Y001778
X031496Y001778
X035814Y010922
X035687Y012700
X035560Y004572
X035560Y002921
X026924Y012065
X019177Y015240
X005080Y017653
X005080Y019050
X025146Y017653
X031115Y018161
X020447Y020066
X004953Y014478
X005588Y004699
X005461Y007112
X010287Y006350
T02
X026055Y021130
X036215Y011918
X001068Y006488
T03
X002924Y013422G85X002918Y013422
X002924Y012172G85X002918Y012172
X002924Y010922G85X002918Y010922
X002924Y009672G85X002918Y009672
T04
X002921Y002921
X034671Y019812
M30
