M48
;Layer_Color=9474304
;FILE_FORMAT=4:4
METRIC,TZ
;TYPE=PLATED
T1F00S00C0.3200
T2F00S00C0.4000
%
T01
X425250Y19750
X410250Y69750
X411500Y118000
X369500Y124250
X316250Y125000
X330250Y105000
X345250Y45000
X364500Y61000
X255750Y74750
X241750Y40000
X239500Y27500
X172250Y20250
X172750Y52500
X171000Y90250
X152750Y90000
X172250Y110000
X162500Y138500
X148250Y132750
X117000Y120250
X104500Y84000
X64750Y110500
X82750Y139000
X6500Y127750
X15250Y88000
X40250Y61500
X69000Y50750
X83750Y19750
X37500Y18500
X226500Y100750
X249250Y118750
X205500Y139500
X196750Y200750
X191250Y233750
X155000
X152000Y202500
X142500Y157000
X122750Y170000
X100000Y183750
X99750Y211250
X104000Y241250
X71000Y240250
X74000Y297000
X124250Y280750
X197250Y274250
X221750Y273500
X227250Y290750
X281000Y275500
X284250Y249000
X254500Y240500
X254000Y192000
X292000Y198250
X305500Y217500
X343750Y197250
X363000Y276500
X303000Y300000
X21000Y272750
X20500Y204250
X19500Y165750
X40250Y160000
X78500Y171750
X391000Y260000
X390750Y300250
X449250Y284750
X458500Y254750
T02
X106500Y97500
Y125250
X223759Y121490
X240193Y91962
X330250Y125750
X337015Y161000
X359500Y210000
X350250Y262500
X322750Y275000
Y240000
X239500Y265000
X190428Y216000
X173500Y199072
X415250Y265500
X440750Y250250
M30
