G04*
G04 #@! TF.GenerationSoftware,Altium Limited,Altium Designer,20.0.13 (296)*
G04*
G04 Layer_Color=2752767*
%FSLAX44Y44*%
%MOMM*%
G71*
G01*
G75*
%ADD128C,0.0508*%
%ADD129C,0.0677*%
D128*
X392843Y139768D02*
Y143832D01*
X396907D01*
Y139768D01*
X392843D01*
X392843Y226168D02*
Y230232D01*
X396907D01*
Y226168D01*
X392843D01*
X399874Y154068D02*
X397842Y158132D01*
X401906D01*
X399874Y154068D01*
Y211869D02*
X397842Y215933D01*
X401906D01*
X399874Y211869D01*
X221750Y271468D02*
X222766Y272484D01*
X223782D01*
X222766Y273500D01*
X223782Y274516D01*
X222766D01*
X221750Y275532D01*
X220734Y274516D01*
X219718D01*
X220734Y273500D01*
X219718Y272484D01*
X220734D01*
X221750Y271468D01*
X227250Y288718D02*
X228266Y289734D01*
X229282D01*
X228266Y290750D01*
X229282Y291766D01*
X228266D01*
X227250Y292782D01*
X226234Y291766D01*
X225218D01*
X226234Y290750D01*
X225218Y289734D01*
X226234D01*
X227250Y288718D01*
X171000Y88218D02*
X172016Y89234D01*
X173032D01*
X172016Y90250D01*
X173032Y91266D01*
X172016D01*
X171000Y92282D01*
X169984Y91266D01*
X168968D01*
X169984Y90250D01*
X168968Y89234D01*
X169984D01*
X171000Y88218D01*
X172750Y50468D02*
X173766Y51484D01*
X174782D01*
X173766Y52500D01*
X174782Y53516D01*
X173766D01*
X172750Y54532D01*
X171734Y53516D01*
X170718D01*
X171734Y52500D01*
X170718Y51484D01*
X171734D01*
X172750Y50468D01*
X425250Y17718D02*
X426266Y18734D01*
X427282D01*
X426266Y19750D01*
X427282Y20766D01*
X426266D01*
X425250Y21782D01*
X424234Y20766D01*
X423218D01*
X424234Y19750D01*
X423218Y18734D01*
X424234D01*
X425250Y17718D01*
X330250Y102968D02*
X331266Y103984D01*
X332282D01*
X331266Y105000D01*
X332282Y106016D01*
X331266D01*
X330250Y107032D01*
X329234Y106016D01*
X328218D01*
X329234Y105000D01*
X328218Y103984D01*
X329234D01*
X330250Y102968D01*
X328218Y123718D02*
X329234Y125750D01*
X328218Y127782D01*
X330250Y126766D01*
X332282Y127782D01*
X331266Y125750D01*
X332282Y123718D01*
X330250Y124734D01*
X328218Y123718D01*
X364500Y58968D02*
X365516Y59984D01*
X366532D01*
X365516Y61000D01*
X366532Y62016D01*
X365516D01*
X364500Y63032D01*
X363484Y62016D01*
X362468D01*
X363484Y61000D01*
X362468Y59984D01*
X363484D01*
X364500Y58968D01*
X410250Y67718D02*
X411266Y68734D01*
X412282D01*
X411266Y69750D01*
X412282Y70766D01*
X411266D01*
X410250Y71782D01*
X409234Y70766D01*
X408218D01*
X409234Y69750D01*
X408218Y68734D01*
X409234D01*
X410250Y67718D01*
X345250Y42968D02*
X346266Y43984D01*
X347282D01*
X346266Y45000D01*
X347282Y46016D01*
X346266D01*
X345250Y47032D01*
X344234Y46016D01*
X343218D01*
X344234Y45000D01*
X343218Y43984D01*
X344234D01*
X345250Y42968D01*
X74000Y294968D02*
X75016Y295984D01*
X76032D01*
X75016Y297000D01*
X76032Y298016D01*
X75016D01*
X74000Y299032D01*
X72984Y298016D01*
X71968D01*
X72984Y297000D01*
X71968Y295984D01*
X72984D01*
X74000Y294968D01*
X71000Y238218D02*
X72016Y239234D01*
X73032D01*
X72016Y240250D01*
X73032Y241266D01*
X72016D01*
X71000Y242282D01*
X69984Y241266D01*
X68968D01*
X69984Y240250D01*
X68968Y239234D01*
X69984D01*
X71000Y238218D01*
X369500Y122218D02*
X370516Y123234D01*
X371532D01*
X370516Y124250D01*
X371532Y125266D01*
X370516D01*
X369500Y126282D01*
X368484Y125266D01*
X367468D01*
X368484Y124250D01*
X367468Y123234D01*
X368484D01*
X369500Y122218D01*
X411500Y115968D02*
X412516Y116984D01*
X413532D01*
X412516Y118000D01*
X413532Y119016D01*
X412516D01*
X411500Y120032D01*
X410484Y119016D01*
X409468D01*
X410484Y118000D01*
X409468Y116984D01*
X410484D01*
X411500Y115968D01*
X316250Y122968D02*
X317266Y123984D01*
X318282D01*
X317266Y125000D01*
X318282Y126016D01*
X317266D01*
X316250Y127032D01*
X315234Y126016D01*
X314218D01*
X315234Y125000D01*
X314218Y123984D01*
X315234D01*
X316250Y122968D01*
X239500Y25468D02*
X240516Y26484D01*
X241532D01*
X240516Y27500D01*
X241532Y28516D01*
X240516D01*
X239500Y29532D01*
X238484Y28516D01*
X237468D01*
X238484Y27500D01*
X237468Y26484D01*
X238484D01*
X239500Y25468D01*
X172250Y18218D02*
X173266Y19234D01*
X174282D01*
X173266Y20250D01*
X174282Y21266D01*
X173266D01*
X172250Y22282D01*
X171234Y21266D01*
X170218D01*
X171234Y20250D01*
X170218Y19234D01*
X171234D01*
X172250Y18218D01*
X99750Y209218D02*
X100766Y210234D01*
X101782D01*
X100766Y211250D01*
X101782Y212266D01*
X100766D01*
X99750Y213282D01*
X98734Y212266D01*
X97718D01*
X98734Y211250D01*
X97718Y210234D01*
X98734D01*
X99750Y209218D01*
X122750Y167968D02*
X123766Y168984D01*
X124782D01*
X123766Y170000D01*
X124782Y171016D01*
X123766D01*
X122750Y172032D01*
X121734Y171016D01*
X120718D01*
X121734Y170000D01*
X120718Y168984D01*
X121734D01*
X122750Y167968D01*
X142500Y154968D02*
X143516Y155984D01*
X144532D01*
X143516Y157000D01*
X144532Y158016D01*
X143516D01*
X142500Y159032D01*
X141484Y158016D01*
X140468D01*
X141484Y157000D01*
X140468Y155984D01*
X141484D01*
X142500Y154968D01*
X162500Y136468D02*
X163516Y137484D01*
X164532D01*
X163516Y138500D01*
X164532Y139516D01*
X163516D01*
X162500Y140532D01*
X161484Y139516D01*
X160468D01*
X161484Y138500D01*
X160468Y137484D01*
X161484D01*
X162500Y136468D01*
X148250Y130718D02*
X149266Y131734D01*
X150282D01*
X149266Y132750D01*
X150282Y133766D01*
X149266D01*
X148250Y134782D01*
X147234Y133766D01*
X146218D01*
X147234Y132750D01*
X146218Y131734D01*
X147234D01*
X148250Y130718D01*
X152750Y87968D02*
X153766Y88984D01*
X154782D01*
X153766Y90000D01*
X154782Y91016D01*
X153766D01*
X152750Y92032D01*
X151734Y91016D01*
X150718D01*
X151734Y90000D01*
X150718Y88984D01*
X151734D01*
X152750Y87968D01*
X303000Y297968D02*
X304016Y298984D01*
X305032D01*
X304016Y300000D01*
X305032Y301016D01*
X304016D01*
X303000Y302032D01*
X301984Y301016D01*
X300968D01*
X301984Y300000D01*
X300968Y298984D01*
X301984D01*
X303000Y297968D01*
X281000Y273468D02*
X282016Y274484D01*
X283032D01*
X282016Y275500D01*
X283032Y276516D01*
X282016D01*
X281000Y277532D01*
X279984Y276516D01*
X278968D01*
X279984Y275500D01*
X278968Y274484D01*
X279984D01*
X281000Y273468D01*
X284250Y246968D02*
X285266Y247984D01*
X286282D01*
X285266Y249000D01*
X286282Y250016D01*
X285266D01*
X284250Y251032D01*
X283234Y250016D01*
X282218D01*
X283234Y249000D01*
X282218Y247984D01*
X283234D01*
X284250Y246968D01*
X254000Y189968D02*
X255016Y190984D01*
X256032D01*
X255016Y192000D01*
X256032Y193016D01*
X255016D01*
X254000Y194032D01*
X252984Y193016D01*
X251968D01*
X252984Y192000D01*
X251968Y190984D01*
X252984D01*
X254000Y189968D01*
X197250Y272218D02*
X198266Y273234D01*
X199282D01*
X198266Y274250D01*
X199282Y275266D01*
X198266D01*
X197250Y276282D01*
X196234Y275266D01*
X195218D01*
X196234Y274250D01*
X195218Y273234D01*
X196234D01*
X197250Y272218D01*
X254500Y238468D02*
X255516Y239484D01*
X256532D01*
X255516Y240500D01*
X256532Y241516D01*
X255516D01*
X254500Y242532D01*
X253484Y241516D01*
X252468D01*
X253484Y240500D01*
X252468Y239484D01*
X253484D01*
X254500Y238468D01*
X292000Y196218D02*
X293016Y197234D01*
X294032D01*
X293016Y198250D01*
X294032Y199266D01*
X293016D01*
X292000Y200282D01*
X290984Y199266D01*
X289968D01*
X290984Y198250D01*
X289968Y197234D01*
X290984D01*
X292000Y196218D01*
X343750Y195218D02*
X344766Y196234D01*
X345782D01*
X344766Y197250D01*
X345782Y198266D01*
X344766D01*
X343750Y199282D01*
X342734Y198266D01*
X341718D01*
X342734Y197250D01*
X341718Y196234D01*
X342734D01*
X343750Y195218D01*
X390750Y298218D02*
X391766Y299234D01*
X392782D01*
X391766Y300250D01*
X392782Y301266D01*
X391766D01*
X390750Y302282D01*
X389734Y301266D01*
X388718D01*
X389734Y300250D01*
X388718Y299234D01*
X389734D01*
X390750Y298218D01*
X391000Y257968D02*
X392016Y258984D01*
X393032D01*
X392016Y260000D01*
X393032Y261016D01*
X392016D01*
X391000Y262032D01*
X389984Y261016D01*
X388968D01*
X389984Y260000D01*
X388968Y258984D01*
X389984D01*
X391000Y257968D01*
X458500Y252718D02*
X459516Y253734D01*
X460532D01*
X459516Y254750D01*
X460532Y255766D01*
X459516D01*
X458500Y256782D01*
X457484Y255766D01*
X456468D01*
X457484Y254750D01*
X456468Y253734D01*
X457484D01*
X458500Y252718D01*
X449250Y282718D02*
X450266Y283734D01*
X451282D01*
X450266Y284750D01*
X451282Y285766D01*
X450266D01*
X449250Y286782D01*
X448234Y285766D01*
X447218D01*
X448234Y284750D01*
X447218Y283734D01*
X448234D01*
X449250Y282718D01*
X21000Y270718D02*
X22016Y271734D01*
X23032D01*
X22016Y272750D01*
X23032Y273766D01*
X22016D01*
X21000Y274782D01*
X19984Y273766D01*
X18968D01*
X19984Y272750D01*
X18968Y271734D01*
X19984D01*
X21000Y270718D01*
X20500Y202218D02*
X21516Y203234D01*
X22532D01*
X21516Y204250D01*
X22532Y205266D01*
X21516D01*
X20500Y206282D01*
X19484Y205266D01*
X18468D01*
X19484Y204250D01*
X18468Y203234D01*
X19484D01*
X20500Y202218D01*
X19500Y163718D02*
X20516Y164734D01*
X21532D01*
X20516Y165750D01*
X21532Y166766D01*
X20516D01*
X19500Y167782D01*
X18484Y166766D01*
X17468D01*
X18484Y165750D01*
X17468Y164734D01*
X18484D01*
X19500Y163718D01*
X6500Y125718D02*
X7516Y126734D01*
X8532D01*
X7516Y127750D01*
X8532Y128766D01*
X7516D01*
X6500Y129782D01*
X5484Y128766D01*
X4468D01*
X5484Y127750D01*
X4468Y126734D01*
X5484D01*
X6500Y125718D01*
X15250Y85968D02*
X16266Y86984D01*
X17282D01*
X16266Y88000D01*
X17282Y89016D01*
X16266D01*
X15250Y90032D01*
X14234Y89016D01*
X13218D01*
X14234Y88000D01*
X13218Y86984D01*
X14234D01*
X15250Y85968D01*
X37500Y16468D02*
X38516Y17484D01*
X39532D01*
X38516Y18500D01*
X39532Y19516D01*
X38516D01*
X37500Y20532D01*
X36484Y19516D01*
X35468D01*
X36484Y18500D01*
X35468Y17484D01*
X36484D01*
X37500Y16468D01*
X83750Y17718D02*
X84766Y18734D01*
X85782D01*
X84766Y19750D01*
X85782Y20766D01*
X84766D01*
X83750Y21782D01*
X82734Y20766D01*
X81718D01*
X82734Y19750D01*
X81718Y18734D01*
X82734D01*
X83750Y17718D01*
X69000Y48718D02*
X70016Y49734D01*
X71032D01*
X70016Y50750D01*
X71032Y51766D01*
X70016D01*
X69000Y52782D01*
X67984Y51766D01*
X66968D01*
X67984Y50750D01*
X66968Y49734D01*
X67984D01*
X69000Y48718D01*
X104500Y81968D02*
X105516Y82984D01*
X106532D01*
X105516Y84000D01*
X106532Y85016D01*
X105516D01*
X104500Y86032D01*
X103484Y85016D01*
X102468D01*
X103484Y84000D01*
X102468Y82984D01*
X103484D01*
X104500Y81968D01*
X117000Y118218D02*
X118016Y119234D01*
X119032D01*
X118016Y120250D01*
X119032Y121266D01*
X118016D01*
X117000Y122282D01*
X115984Y121266D01*
X114968D01*
X115984Y120250D01*
X114968Y119234D01*
X115984D01*
X117000Y118218D01*
X64750Y108468D02*
X65766Y109484D01*
X66782D01*
X65766Y110500D01*
X66782Y111516D01*
X65766D01*
X64750Y112532D01*
X63734Y111516D01*
X62718D01*
X63734Y110500D01*
X62718Y109484D01*
X63734D01*
X64750Y108468D01*
X255750Y72718D02*
X256766Y73734D01*
X257782D01*
X256766Y74750D01*
X257782Y75766D01*
X256766D01*
X255750Y76782D01*
X254734Y75766D01*
X253718D01*
X254734Y74750D01*
X253718Y73734D01*
X254734D01*
X255750Y72718D01*
X226500Y98718D02*
X227516Y99734D01*
X228532D01*
X227516Y100750D01*
X228532Y101766D01*
X227516D01*
X226500Y102782D01*
X225484Y101766D01*
X224468D01*
X225484Y100750D01*
X224468Y99734D01*
X225484D01*
X226500Y98718D01*
X249250Y116718D02*
X250266Y117734D01*
X251282D01*
X250266Y118750D01*
X251282Y119766D01*
X250266D01*
X249250Y120782D01*
X248234Y119766D01*
X247218D01*
X248234Y118750D01*
X247218Y117734D01*
X248234D01*
X249250Y116718D01*
X205500Y137468D02*
X206516Y138484D01*
X207532D01*
X206516Y139500D01*
X207532Y140516D01*
X206516D01*
X205500Y141532D01*
X204484Y140516D01*
X203468D01*
X204484Y139500D01*
X203468Y138484D01*
X204484D01*
X205500Y137468D01*
X196750Y198718D02*
X197766Y199734D01*
X198782D01*
X197766Y200750D01*
X198782Y201766D01*
X197766D01*
X196750Y202782D01*
X195734Y201766D01*
X194718D01*
X195734Y200750D01*
X194718Y199734D01*
X195734D01*
X196750Y198718D01*
X191250Y231718D02*
X192266Y232734D01*
X193282D01*
X192266Y233750D01*
X193282Y234766D01*
X192266D01*
X191250Y235782D01*
X190234Y234766D01*
X189218D01*
X190234Y233750D01*
X189218Y232734D01*
X190234D01*
X191250Y231718D01*
X155000D02*
X156016Y232734D01*
X157032D01*
X156016Y233750D01*
X157032Y234766D01*
X156016D01*
X155000Y235782D01*
X153984Y234766D01*
X152968D01*
X153984Y233750D01*
X152968Y232734D01*
X153984D01*
X155000Y231718D01*
X152000Y200468D02*
X153016Y201484D01*
X154032D01*
X153016Y202500D01*
X154032Y203516D01*
X153016D01*
X152000Y204532D01*
X150984Y203516D01*
X149968D01*
X150984Y202500D01*
X149968Y201484D01*
X150984D01*
X152000Y200468D01*
X104000Y239218D02*
X105016Y240234D01*
X106032D01*
X105016Y241250D01*
X106032Y242266D01*
X105016D01*
X104000Y243282D01*
X102984Y242266D01*
X101968D01*
X102984Y241250D01*
X101968Y240234D01*
X102984D01*
X104000Y239218D01*
X124250Y278718D02*
X125266Y279734D01*
X126282D01*
X125266Y280750D01*
X126282Y281766D01*
X125266D01*
X124250Y282782D01*
X123234Y281766D01*
X122218D01*
X123234Y280750D01*
X122218Y279734D01*
X123234D01*
X124250Y278718D01*
X320718Y237968D02*
X321734Y240000D01*
X320718Y242032D01*
X322750Y241016D01*
X324782Y242032D01*
X323766Y240000D01*
X324782Y237968D01*
X322750Y238984D01*
X320718Y237968D01*
Y272968D02*
X321734Y275000D01*
X320718Y277032D01*
X322750Y276016D01*
X324782Y277032D01*
X323766Y275000D01*
X324782Y272968D01*
X322750Y273984D01*
X320718Y272968D01*
X104468Y95468D02*
X105484Y97500D01*
X104468Y99532D01*
X106500Y98516D01*
X108532Y99532D01*
X107516Y97500D01*
X108532Y95468D01*
X106500Y96484D01*
X104468Y95468D01*
Y123218D02*
X105484Y125250D01*
X104468Y127282D01*
X106500Y126266D01*
X108532Y127282D01*
X107516Y125250D01*
X108532Y123218D01*
X106500Y124234D01*
X104468Y123218D01*
X40250Y157968D02*
X41266Y158984D01*
X42282D01*
X41266Y160000D01*
X42282Y161016D01*
X41266D01*
X40250Y162032D01*
X39234Y161016D01*
X38218D01*
X39234Y160000D01*
X38218Y158984D01*
X39234D01*
X40250Y157968D01*
X82750Y136968D02*
X83766Y137984D01*
X84782D01*
X83766Y139000D01*
X84782Y140016D01*
X83766D01*
X82750Y141032D01*
X81734Y140016D01*
X80718D01*
X81734Y139000D01*
X80718Y137984D01*
X81734D01*
X82750Y136968D01*
X100000Y181718D02*
X101016Y182734D01*
X102032D01*
X101016Y183750D01*
X102032Y184766D01*
X101016D01*
X100000Y185782D01*
X98984Y184766D01*
X97968D01*
X98984Y183750D01*
X97968Y182734D01*
X98984D01*
X100000Y181718D01*
X305500Y215468D02*
X306516Y216484D01*
X307532D01*
X306516Y217500D01*
X307532Y218516D01*
X306516D01*
X305500Y219532D01*
X304484Y218516D01*
X303468D01*
X304484Y217500D01*
X303468Y216484D01*
X304484D01*
X305500Y215468D01*
X172250Y107968D02*
X173266Y108984D01*
X174282D01*
X173266Y110000D01*
X174282Y111016D01*
X173266D01*
X172250Y112032D01*
X171234Y111016D01*
X170218D01*
X171234Y110000D01*
X170218Y108984D01*
X171234D01*
X172250Y107968D01*
X221728Y119459D02*
X222743Y121490D01*
X221728Y123523D01*
X223759Y122507D01*
X225791Y123523D01*
X224776Y121490D01*
X225791Y119459D01*
X223759Y120475D01*
X221728Y119459D01*
X238161Y89930D02*
X239177Y91962D01*
X238161Y93994D01*
X240193Y92978D01*
X242225Y93994D01*
X241209Y91962D01*
X242225Y89930D01*
X240193Y90946D01*
X238161Y89930D01*
X171468Y197040D02*
X172484Y199072D01*
X171468Y201104D01*
X173500Y200088D01*
X175532Y201104D01*
X174516Y199072D01*
X175532Y197040D01*
X173500Y198056D01*
X171468Y197040D01*
X188396Y213968D02*
X189412Y216000D01*
X188396Y218032D01*
X190428Y217016D01*
X192460Y218032D01*
X191444Y216000D01*
X192460Y213968D01*
X190428Y214984D01*
X188396Y213968D01*
X237468Y262968D02*
X238484Y265000D01*
X237468Y267032D01*
X239500Y266016D01*
X241532Y267032D01*
X240516Y265000D01*
X241532Y262968D01*
X239500Y263984D01*
X237468Y262968D01*
X348218Y260468D02*
X349234Y262500D01*
X348218Y264532D01*
X350250Y263516D01*
X352282Y264532D01*
X351266Y262500D01*
X352282Y260468D01*
X350250Y261484D01*
X348218Y260468D01*
X413218Y263468D02*
X414234Y265500D01*
X413218Y267532D01*
X415250Y266516D01*
X417282Y267532D01*
X416266Y265500D01*
X417282Y263468D01*
X415250Y264484D01*
X413218Y263468D01*
X40250Y59468D02*
X41266Y60484D01*
X42282D01*
X41266Y61500D01*
X42282Y62516D01*
X41266D01*
X40250Y63532D01*
X39234Y62516D01*
X38218D01*
X39234Y61500D01*
X38218Y60484D01*
X39234D01*
X40250Y59468D01*
X241750Y37968D02*
X242766Y38984D01*
X243782D01*
X242766Y40000D01*
X243782Y41016D01*
X242766D01*
X241750Y42032D01*
X240734Y41016D01*
X239718D01*
X240734Y40000D01*
X239718Y38984D01*
X240734D01*
X241750Y37968D01*
X334983Y158968D02*
X335999Y161000D01*
X334983Y163032D01*
X337015Y162016D01*
X339047Y163032D01*
X338031Y161000D01*
X339047Y158968D01*
X337015Y159984D01*
X334983Y158968D01*
X357468Y207968D02*
X358484Y210000D01*
X357468Y212032D01*
X359500Y211016D01*
X361532Y212032D01*
X360516Y210000D01*
X361532Y207968D01*
X359500Y208984D01*
X357468Y207968D01*
X363000Y274468D02*
X364016Y275484D01*
X365032D01*
X364016Y276500D01*
X365032Y277516D01*
X364016D01*
X363000Y278532D01*
X361984Y277516D01*
X360968D01*
X361984Y276500D01*
X360968Y275484D01*
X361984D01*
X363000Y274468D01*
X78500Y169718D02*
X79516Y170734D01*
X80532D01*
X79516Y171750D01*
X80532Y172766D01*
X79516D01*
X78500Y173782D01*
X77484Y172766D01*
X76468D01*
X77484Y171750D01*
X76468Y170734D01*
X77484D01*
X78500Y169718D01*
X438718Y248218D02*
X439734Y250250D01*
X438718Y252282D01*
X440750Y251266D01*
X442782Y252282D01*
X441766Y250250D01*
X442782Y248218D01*
X440750Y249234D01*
X438718Y248218D01*
D129*
X438407Y141800D02*
G03*
X438407Y141800I-2032J0D01*
G01*
Y228200D02*
G03*
X438407Y228200I-2032J0D01*
G01*
M02*
