G04*
G04 #@! TF.GenerationSoftware,Altium Limited,Altium Designer,20.0.13 (296)*
G04*
G04 Layer_Color=128*
%FSLAX44Y44*%
%MOMM*%
G71*
G01*
G75*
%ADD128C,0.0508*%
D128*
X391827Y141800D02*
X397923D01*
X394875Y138752D02*
Y144848D01*
X391827Y228200D02*
X397923D01*
X394875Y225152D02*
Y231248D01*
X433327Y141800D02*
X439423D01*
X436375Y138752D02*
Y144848D01*
X433327Y228200D02*
X439423D01*
X436375Y225152D02*
Y231248D01*
X396124Y156100D02*
X403624D01*
X399874Y152350D02*
Y159851D01*
X396124Y213901D02*
X403624D01*
X399874Y210151D02*
Y217651D01*
X220150Y273500D02*
X223350D01*
X221750Y271900D02*
Y275100D01*
X225650Y290750D02*
X228850D01*
X227250Y289150D02*
Y292350D01*
X169400Y90250D02*
X172600D01*
X171000Y88650D02*
Y91850D01*
X171150Y52500D02*
X174350D01*
X172750Y50900D02*
Y54100D01*
X423650Y19750D02*
X426850D01*
X425250Y18150D02*
Y21350D01*
X328650Y105000D02*
X331850D01*
X330250Y103400D02*
Y106600D01*
X328250Y125750D02*
X332250D01*
X330250Y123750D02*
Y127750D01*
X362900Y61000D02*
X366100D01*
X364500Y59400D02*
Y62600D01*
X408650Y69750D02*
X411850D01*
X410250Y68150D02*
Y71350D01*
X343650Y45000D02*
X346850D01*
X345250Y43400D02*
Y46600D01*
X72400Y297000D02*
X75600D01*
X74000Y295400D02*
Y298600D01*
X69400Y240250D02*
X72600D01*
X71000Y238650D02*
Y241850D01*
X367900Y124250D02*
X371100D01*
X369500Y122650D02*
Y125850D01*
X409900Y118000D02*
X413100D01*
X411500Y116400D02*
Y119600D01*
X314650Y125000D02*
X317850D01*
X316250Y123400D02*
Y126600D01*
X237900Y27500D02*
X241100D01*
X239500Y25900D02*
Y29100D01*
X170650Y20250D02*
X173850D01*
X172250Y18650D02*
Y21850D01*
X98150Y211250D02*
X101350D01*
X99750Y209650D02*
Y212850D01*
X121150Y170000D02*
X124350D01*
X122750Y168400D02*
Y171600D01*
X140900Y157000D02*
X144100D01*
X142500Y155400D02*
Y158600D01*
X160900Y138500D02*
X164100D01*
X162500Y136900D02*
Y140100D01*
X146650Y132750D02*
X149850D01*
X148250Y131150D02*
Y134350D01*
X151150Y90000D02*
X154350D01*
X152750Y88400D02*
Y91600D01*
X301400Y300000D02*
X304600D01*
X303000Y298400D02*
Y301600D01*
X279400Y275500D02*
X282600D01*
X281000Y273900D02*
Y277100D01*
X282650Y249000D02*
X285850D01*
X284250Y247400D02*
Y250600D01*
X252400Y192000D02*
X255600D01*
X254000Y190400D02*
Y193600D01*
X195650Y274250D02*
X198850D01*
X197250Y272650D02*
Y275850D01*
X252900Y240500D02*
X256100D01*
X254500Y238900D02*
Y242100D01*
X290400Y198250D02*
X293600D01*
X292000Y196650D02*
Y199850D01*
X342150Y197250D02*
X345350D01*
X343750Y195650D02*
Y198850D01*
X389150Y300250D02*
X392350D01*
X390750Y298650D02*
Y301850D01*
X389400Y260000D02*
X392600D01*
X391000Y258400D02*
Y261600D01*
X456900Y254750D02*
X460100D01*
X458500Y253150D02*
Y256350D01*
X447650Y284750D02*
X450850D01*
X449250Y283150D02*
Y286350D01*
X19400Y272750D02*
X22600D01*
X21000Y271150D02*
Y274350D01*
X18900Y204250D02*
X22100D01*
X20500Y202650D02*
Y205850D01*
X17900Y165750D02*
X21100D01*
X19500Y164150D02*
Y167350D01*
X4900Y127750D02*
X8100D01*
X6500Y126150D02*
Y129350D01*
X13650Y88000D02*
X16850D01*
X15250Y86400D02*
Y89600D01*
X35900Y18500D02*
X39100D01*
X37500Y16900D02*
Y20100D01*
X82150Y19750D02*
X85350D01*
X83750Y18150D02*
Y21350D01*
X67400Y50750D02*
X70600D01*
X69000Y49150D02*
Y52350D01*
X102900Y84000D02*
X106100D01*
X104500Y82400D02*
Y85600D01*
X115400Y120250D02*
X118600D01*
X117000Y118650D02*
Y121850D01*
X63150Y110500D02*
X66350D01*
X64750Y108900D02*
Y112100D01*
X254150Y74750D02*
X257350D01*
X255750Y73150D02*
Y76350D01*
X224900Y100750D02*
X228100D01*
X226500Y99150D02*
Y102350D01*
X247650Y118750D02*
X250850D01*
X249250Y117150D02*
Y120350D01*
X203900Y139500D02*
X207100D01*
X205500Y137900D02*
Y141100D01*
X195150Y200750D02*
X198350D01*
X196750Y199150D02*
Y202350D01*
X189650Y233750D02*
X192850D01*
X191250Y232150D02*
Y235350D01*
X153400Y233750D02*
X156600D01*
X155000Y232150D02*
Y235350D01*
X150400Y202500D02*
X153600D01*
X152000Y200900D02*
Y204100D01*
X102400Y241250D02*
X105600D01*
X104000Y239650D02*
Y242850D01*
X122650Y280750D02*
X125850D01*
X124250Y279150D02*
Y282350D01*
X320750Y240000D02*
X324750D01*
X322750Y238000D02*
Y242000D01*
X320750Y275000D02*
X324750D01*
X322750Y273000D02*
Y277000D01*
X104500Y97500D02*
X108500D01*
X106500Y95500D02*
Y99500D01*
X104500Y125250D02*
X108500D01*
X106500Y123250D02*
Y127250D01*
X38650Y160000D02*
X41850D01*
X40250Y158400D02*
Y161600D01*
X81150Y139000D02*
X84350D01*
X82750Y137400D02*
Y140600D01*
X98400Y183750D02*
X101600D01*
X100000Y182150D02*
Y185350D01*
X303900Y217500D02*
X307100D01*
X305500Y215900D02*
Y219100D01*
X170650Y110000D02*
X173850D01*
X172250Y108400D02*
Y111600D01*
X221759Y121490D02*
X225760D01*
X223759Y119490D02*
Y123490D01*
X238193Y91962D02*
X242193D01*
X240193Y89962D02*
Y93962D01*
X171500Y199072D02*
X175500D01*
X173500Y197072D02*
Y201072D01*
X188428Y216000D02*
X192428D01*
X190428Y214000D02*
Y218000D01*
X237500Y265000D02*
X241500D01*
X239500Y263000D02*
Y267000D01*
X348250Y262500D02*
X352250D01*
X350250Y260500D02*
Y264500D01*
X413250Y265500D02*
X417250D01*
X415250Y263500D02*
Y267500D01*
X38650Y61500D02*
X41850D01*
X40250Y59900D02*
Y63100D01*
X240150Y40000D02*
X243350D01*
X241750Y38400D02*
Y41600D01*
X335015Y161000D02*
X339015D01*
X337015Y159000D02*
Y163000D01*
X357500Y210000D02*
X361500D01*
X359500Y208000D02*
Y212000D01*
X361400Y276500D02*
X364600D01*
X363000Y274900D02*
Y278100D01*
X76900Y171750D02*
X80100D01*
X78500Y170150D02*
Y173350D01*
X438750Y250250D02*
X442750D01*
X440750Y248250D02*
Y252250D01*
M02*
