G04*
G04 #@! TF.GenerationSoftware,Altium Limited,Altium Designer,20.0.13 (296)*
G04*
G04 Layer_Physical_Order=1*
G04 Layer_Color=255*
%FSLAX44Y44*%
%MOMM*%
G71*
G01*
G75*
%ADD13C,0.2540*%
G04:AMPARAMS|DCode=87|XSize=0.4mm|YSize=0.55mm|CornerRadius=0mm|HoleSize=0mm|Usage=FLASHONLY|Rotation=45.000|XOffset=0mm|YOffset=0mm|HoleType=Round|Shape=Rectangle|*
%AMROTATEDRECTD87*
4,1,4,0.0530,-0.3359,-0.3359,0.0530,-0.0530,0.3359,0.3359,-0.0530,0.0530,-0.3359,0.0*
%
%ADD87ROTATEDRECTD87*%

G04:AMPARAMS|DCode=88|XSize=0.4mm|YSize=0.55mm|CornerRadius=0mm|HoleSize=0mm|Usage=FLASHONLY|Rotation=135.000|XOffset=0mm|YOffset=0mm|HoleType=Round|Shape=Rectangle|*
%AMROTATEDRECTD88*
4,1,4,0.3359,0.0530,-0.0530,-0.3359,-0.3359,-0.0530,0.0530,0.3359,0.3359,0.0530,0.0*
%
%ADD88ROTATEDRECTD88*%

G04:AMPARAMS|DCode=89|XSize=1.3mm|YSize=1.2mm|CornerRadius=0mm|HoleSize=0mm|Usage=FLASHONLY|Rotation=135.000|XOffset=0mm|YOffset=0mm|HoleType=Round|Shape=Rectangle|*
%AMROTATEDRECTD89*
4,1,4,0.8839,-0.0354,0.0354,-0.8839,-0.8839,0.0354,-0.0354,0.8839,0.8839,-0.0354,0.0*
%
%ADD89ROTATEDRECTD89*%

%ADD90R,2.8000X1.0000*%
%ADD91R,1.7000X0.6000*%
%ADD92R,0.4000X0.5500*%
G04:AMPARAMS|DCode=93|XSize=0.45mm|YSize=0.5mm|CornerRadius=0mm|HoleSize=0mm|Usage=FLASHONLY|Rotation=45.000|XOffset=0mm|YOffset=0mm|HoleType=Round|Shape=Rectangle|*
%AMROTATEDRECTD93*
4,1,4,0.0177,-0.3359,-0.3359,0.0177,-0.0177,0.3359,0.3359,-0.0177,0.0177,-0.3359,0.0*
%
%ADD93ROTATEDRECTD93*%

G04:AMPARAMS|DCode=94|XSize=0.75mm|YSize=0.85mm|CornerRadius=0mm|HoleSize=0mm|Usage=FLASHONLY|Rotation=225.000|XOffset=0mm|YOffset=0mm|HoleType=Round|Shape=Rectangle|*
%AMROTATEDRECTD94*
4,1,4,-0.0354,0.5657,0.5657,-0.0354,0.0354,-0.5657,-0.5657,0.0354,-0.0354,0.5657,0.0*
%
%ADD94ROTATEDRECTD94*%

%ADD95R,0.7500X0.8500*%
%ADD96R,0.5500X0.4000*%
%ADD97R,0.5000X0.4500*%
%ADD98R,0.4500X0.5000*%
%ADD99R,0.8500X0.7500*%
%ADD100R,0.9100X0.9100*%
G04:AMPARAMS|DCode=101|XSize=0.45mm|YSize=0.5mm|CornerRadius=0mm|HoleSize=0mm|Usage=FLASHONLY|Rotation=315.000|XOffset=0mm|YOffset=0mm|HoleType=Round|Shape=Rectangle|*
%AMROTATEDRECTD101*
4,1,4,-0.3359,-0.0177,0.0177,0.3359,0.3359,0.0177,-0.0177,-0.3359,-0.3359,-0.0177,0.0*
%
%ADD101ROTATEDRECTD101*%

G04:AMPARAMS|DCode=102|XSize=1mm|YSize=0.6mm|CornerRadius=0.075mm|HoleSize=0mm|Usage=FLASHONLY|Rotation=180.000|XOffset=0mm|YOffset=0mm|HoleType=Round|Shape=RoundedRectangle|*
%AMROUNDEDRECTD102*
21,1,1.0000,0.4500,0,0,180.0*
21,1,0.8500,0.6000,0,0,180.0*
1,1,0.1500,-0.4250,0.2250*
1,1,0.1500,0.4250,0.2250*
1,1,0.1500,0.4250,-0.2250*
1,1,0.1500,-0.4250,-0.2250*
%
%ADD102ROUNDEDRECTD102*%
G04:AMPARAMS|DCode=103|XSize=0.99mm|YSize=0.6mm|CornerRadius=0.075mm|HoleSize=0mm|Usage=FLASHONLY|Rotation=180.000|XOffset=0mm|YOffset=0mm|HoleType=Round|Shape=RoundedRectangle|*
%AMROUNDEDRECTD103*
21,1,0.9900,0.4500,0,0,180.0*
21,1,0.8400,0.6000,0,0,180.0*
1,1,0.1500,-0.4200,0.2250*
1,1,0.1500,0.4200,0.2250*
1,1,0.1500,0.4200,-0.2250*
1,1,0.1500,-0.4200,-0.2250*
%
%ADD103ROUNDEDRECTD103*%
%ADD104R,0.6500X0.4000*%
%ADD105R,0.4000X0.6500*%
%ADD106R,0.8000X0.8000*%
%ADD107R,1.4750X0.3000*%
%ADD108R,0.3000X1.4750*%
G04:AMPARAMS|DCode=109|XSize=1.475mm|YSize=0.3mm|CornerRadius=0mm|HoleSize=0mm|Usage=FLASHONLY|Rotation=315.000|XOffset=0mm|YOffset=0mm|HoleType=Round|Shape=Rectangle|*
%AMROTATEDRECTD109*
4,1,4,-0.6276,0.4154,-0.4154,0.6276,0.6276,-0.4154,0.4154,-0.6276,-0.6276,0.4154,0.0*
%
%ADD109ROTATEDRECTD109*%

G04:AMPARAMS|DCode=110|XSize=1.475mm|YSize=0.3mm|CornerRadius=0mm|HoleSize=0mm|Usage=FLASHONLY|Rotation=45.000|XOffset=0mm|YOffset=0mm|HoleType=Round|Shape=Rectangle|*
%AMROTATEDRECTD110*
4,1,4,-0.4154,-0.6276,-0.6276,-0.4154,0.4154,0.6276,0.6276,0.4154,-0.4154,-0.6276,0.0*
%
%ADD110ROTATEDRECTD110*%

G04:AMPARAMS|DCode=111|XSize=1.5mm|YSize=0.9mm|CornerRadius=0.225mm|HoleSize=0mm|Usage=FLASHONLY|Rotation=180.000|XOffset=0mm|YOffset=0mm|HoleType=Round|Shape=RoundedRectangle|*
%AMROUNDEDRECTD111*
21,1,1.5000,0.4500,0,0,180.0*
21,1,1.0500,0.9000,0,0,180.0*
1,1,0.4500,-0.5250,0.2250*
1,1,0.4500,0.5250,0.2250*
1,1,0.4500,0.5250,-0.2250*
1,1,0.4500,-0.5250,-0.2250*
%
%ADD111ROUNDEDRECTD111*%
G04:AMPARAMS|DCode=112|XSize=1.2mm|YSize=0.3mm|CornerRadius=0.075mm|HoleSize=0mm|Usage=FLASHONLY|Rotation=0.000|XOffset=0mm|YOffset=0mm|HoleType=Round|Shape=RoundedRectangle|*
%AMROUNDEDRECTD112*
21,1,1.2000,0.1500,0,0,0.0*
21,1,1.0500,0.3000,0,0,0.0*
1,1,0.1500,0.5250,-0.0750*
1,1,0.1500,-0.5250,-0.0750*
1,1,0.1500,-0.5250,0.0750*
1,1,0.1500,0.5250,0.0750*
%
%ADD112ROUNDEDRECTD112*%
G04:AMPARAMS|DCode=113|XSize=1.7mm|YSize=0.4mm|CornerRadius=0.1mm|HoleSize=0mm|Usage=FLASHONLY|Rotation=0.000|XOffset=0mm|YOffset=0mm|HoleType=Round|Shape=RoundedRectangle|*
%AMROUNDEDRECTD113*
21,1,1.7000,0.2000,0,0,0.0*
21,1,1.5000,0.4000,0,0,0.0*
1,1,0.2000,0.7500,-0.1000*
1,1,0.2000,-0.7500,-0.1000*
1,1,0.2000,-0.7500,0.1000*
1,1,0.2000,0.7500,0.1000*
%
%ADD113ROUNDEDRECTD113*%
G04:AMPARAMS|DCode=114|XSize=1.7mm|YSize=0.4mm|CornerRadius=0.1mm|HoleSize=0mm|Usage=FLASHONLY|Rotation=315.000|XOffset=0mm|YOffset=0mm|HoleType=Round|Shape=RoundedRectangle|*
%AMROUNDEDRECTD114*
21,1,1.7000,0.2000,0,0,315.0*
21,1,1.5000,0.4000,0,0,315.0*
1,1,0.2000,0.4596,-0.6010*
1,1,0.2000,-0.6010,0.4596*
1,1,0.2000,-0.4596,0.6010*
1,1,0.2000,0.6010,-0.4596*
%
%ADD114ROUNDEDRECTD114*%
%ADD115R,1.0000X2.8000*%
%ADD116R,0.6000X1.7000*%
G04:AMPARAMS|DCode=117|XSize=1.1mm|YSize=0.45mm|CornerRadius=0.0563mm|HoleSize=0mm|Usage=FLASHONLY|Rotation=45.000|XOffset=0mm|YOffset=0mm|HoleType=Round|Shape=RoundedRectangle|*
%AMROUNDEDRECTD117*
21,1,1.1000,0.3375,0,0,45.0*
21,1,0.9875,0.4500,0,0,45.0*
1,1,0.1125,0.4685,0.2298*
1,1,0.1125,-0.2298,-0.4685*
1,1,0.1125,-0.4685,-0.2298*
1,1,0.1125,0.2298,0.4685*
%
%ADD117ROUNDEDRECTD117*%
%ADD118R,1.1500X0.3000*%
%ADD119R,1.1500X0.6000*%
G04:AMPARAMS|DCode=120|XSize=1.8mm|YSize=0.45mm|CornerRadius=0mm|HoleSize=0mm|Usage=FLASHONLY|Rotation=45.000|XOffset=0mm|YOffset=0mm|HoleType=Round|Shape=Rectangle|*
%AMROTATEDRECTD120*
4,1,4,-0.4773,-0.7955,-0.7955,-0.4773,0.4773,0.7955,0.7955,0.4773,-0.4773,-0.7955,0.0*
%
%ADD120ROTATEDRECTD120*%

%ADD121C,0.3810*%
%ADD122C,0.1524*%
%ADD123O,2.0987X1.0000*%
%ADD124O,1.7987X1.0000*%
%ADD125C,0.7500*%
%ADD126C,0.6400*%
%ADD127C,0.8000*%
G36*
X60250Y278302D02*
X60232Y278275D01*
X60217Y278230D01*
X60204Y278168D01*
X60193Y278087D01*
X60176Y277873D01*
X60167Y277417D01*
X58643D01*
X58642Y277587D01*
X58607Y278168D01*
X58593Y278230D01*
X58578Y278275D01*
X58561Y278302D01*
X58541Y278311D01*
X60269D01*
X60250Y278302D01*
D02*
G37*
G36*
X144693Y277599D02*
X144567Y277530D01*
X144456Y277415D01*
X144360Y277253D01*
X144279Y277046D01*
X144212Y276792D01*
X144160Y276492D01*
X144123Y276146D01*
X144094Y275315D01*
X142570D01*
X142562Y275753D01*
X142503Y276492D01*
X142451Y276792D01*
X142384Y277046D01*
X142303Y277253D01*
X142207Y277415D01*
X142096Y277530D01*
X141970Y277599D01*
X141829Y277623D01*
X144834D01*
X144693Y277599D01*
D02*
G37*
G36*
X60168Y272413D02*
X60204Y271832D01*
X60217Y271770D01*
X60232Y271725D01*
X60250Y271698D01*
X60269Y271689D01*
X58541D01*
X58561Y271698D01*
X58578Y271725D01*
X58593Y271770D01*
X58607Y271832D01*
X58618Y271913D01*
X58634Y272127D01*
X58643Y272583D01*
X60167D01*
X60168Y272413D01*
D02*
G37*
G36*
X353698Y275442D02*
X353374Y275328D01*
X353088Y275138D01*
X352841Y274871D01*
X352631Y274528D01*
X352460Y274109D01*
X352326Y273614D01*
X352231Y273042D01*
X352174Y272394D01*
X352155Y271670D01*
X348345D01*
X348326Y272394D01*
X348269Y273042D01*
X348173Y273614D01*
X348040Y274109D01*
X347869Y274528D01*
X347659Y274871D01*
X347411Y275138D01*
X347126Y275328D01*
X346802Y275442D01*
X346440Y275480D01*
X354060D01*
X353698Y275442D01*
D02*
G37*
G36*
X460250Y307936D02*
Y307905D01*
X461362Y307684D01*
X462304Y307054D01*
X462934Y306112D01*
X463155Y305000D01*
X463186D01*
Y260049D01*
X461916Y259371D01*
X460740Y260157D01*
X460452Y260214D01*
X460405Y260266D01*
X459970Y261605D01*
X460142Y261863D01*
X460318Y262750D01*
Y267250D01*
X460142Y268137D01*
X459639Y268890D01*
X458887Y269392D01*
X458000Y269569D01*
X449500D01*
X448613Y269392D01*
X448115Y269060D01*
X447815Y268935D01*
X447794Y268886D01*
X447783Y268878D01*
X447742Y268857D01*
X447738Y268853D01*
X447729Y268849D01*
X447580Y268796D01*
X447337Y268734D01*
X447043Y268681D01*
X445541Y268562D01*
X444935Y268554D01*
X444799Y268496D01*
X443500D01*
X442162Y268230D01*
X441028Y267472D01*
X438278Y264722D01*
X437520Y263588D01*
X437254Y262250D01*
Y256334D01*
X437196Y256202D01*
X437188Y255816D01*
X437166Y255500D01*
X437133Y255221D01*
X437089Y254979D01*
X437037Y254776D01*
X436982Y254611D01*
X436926Y254483D01*
X436875Y254391D01*
X436830Y254328D01*
X436725Y254212D01*
X436693Y254122D01*
X435546Y252405D01*
X435118Y250250D01*
X435546Y248095D01*
X436767Y246267D01*
X438595Y245047D01*
X440750Y244618D01*
X441158Y244699D01*
X442114Y243856D01*
X442399Y243574D01*
X442672Y243463D01*
X443567Y242865D01*
X444688Y242642D01*
X444916Y242541D01*
X445647Y242523D01*
X446235Y242475D01*
X446711Y242402D01*
X447068Y242312D01*
X447285Y242229D01*
X447358Y241863D01*
X447689Y241368D01*
X447754Y241188D01*
X447834Y241151D01*
X447860Y241110D01*
X447863Y241109D01*
X447889Y241057D01*
X447993Y241022D01*
X448613Y240608D01*
X449500Y240431D01*
X458000D01*
X458887Y240608D01*
X459639Y241110D01*
X460142Y241863D01*
X460318Y242750D01*
Y247250D01*
X460142Y248137D01*
X460712Y249288D01*
X460825Y249400D01*
X461916Y250129D01*
X463186Y249450D01*
Y5000D01*
X463155D01*
X462934Y3888D01*
X462304Y2946D01*
X461362Y2316D01*
X460250Y2095D01*
Y2064D01*
X460250Y2064D01*
X78790D01*
Y14730D01*
X80060Y15312D01*
X81510Y14343D01*
X82480Y14150D01*
Y19750D01*
Y25350D01*
X81510Y25157D01*
X80060Y24188D01*
X78790Y24770D01*
Y33477D01*
X87553D01*
X87734Y33397D01*
X87746Y33397D01*
Y25946D01*
X99894D01*
Y38094D01*
X95161D01*
X95161Y38106D01*
X95081Y38286D01*
Y45783D01*
X95161Y45963D01*
X95161Y45976D01*
X96524D01*
Y54024D01*
X88976D01*
Y45976D01*
X90339D01*
X90339Y45963D01*
X90419Y45783D01*
Y39357D01*
X90210Y38699D01*
X89580Y38332D01*
X89188Y38192D01*
X87809Y38219D01*
X87793Y38213D01*
X87776Y38220D01*
X87581Y38139D01*
X35907D01*
X32367Y41679D01*
X32400Y41757D01*
X32396Y41765D01*
X32399Y41774D01*
X32385Y43161D01*
X32367Y43201D01*
X32382Y43242D01*
X32377Y43318D01*
X32357Y43360D01*
X32370Y43405D01*
X32364Y43451D01*
X32319Y43533D01*
Y49512D01*
X32274Y49737D01*
Y61774D01*
X23226D01*
Y41726D01*
X27577D01*
X27577Y41714D01*
X27657Y41533D01*
Y40762D01*
X27835Y39870D01*
X28340Y39114D01*
X33294Y34160D01*
X34050Y33655D01*
X34942Y33477D01*
X63710D01*
Y19520D01*
X71250D01*
Y16980D01*
X63710D01*
Y2064D01*
X16790D01*
Y16980D01*
X9250D01*
Y18250D01*
X7980D01*
Y34790D01*
X2314D01*
Y122116D01*
X3584Y122795D01*
X4260Y122343D01*
X5230Y122150D01*
Y127750D01*
Y133350D01*
X4260Y133157D01*
X3584Y132705D01*
X2314Y133384D01*
Y172710D01*
X18558D01*
X18683Y171440D01*
X17260Y171157D01*
X15362Y169888D01*
X14093Y167990D01*
X13900Y167020D01*
X19500D01*
Y165750D01*
X20770D01*
Y160150D01*
X21740Y160343D01*
X23638Y161612D01*
X24190Y162437D01*
X25460Y162052D01*
Y159960D01*
X25670D01*
X26476Y159024D01*
X26476Y158690D01*
Y152894D01*
X26397Y152760D01*
X26427Y152643D01*
X26381Y152530D01*
X26476Y152301D01*
Y150976D01*
X27267D01*
X27322Y150380D01*
X27331Y149958D01*
X27401Y149797D01*
Y142500D01*
X27401Y142500D01*
X27618Y141410D01*
X28236Y140486D01*
X33236Y135486D01*
X34160Y134868D01*
X35250Y134651D01*
X35250Y134651D01*
X37792D01*
X37953Y134581D01*
X38971Y134561D01*
Y121694D01*
X37798Y121208D01*
X32856Y126149D01*
Y130725D01*
X32678Y131617D01*
X32173Y132373D01*
X26091Y138456D01*
X26023Y138636D01*
X25497Y139201D01*
X25348Y139385D01*
X25323Y139420D01*
Y139584D01*
X25358Y139667D01*
X25323Y139749D01*
Y139881D01*
X25336Y139934D01*
X25323Y139954D01*
Y140500D01*
X25128Y141485D01*
X24570Y142320D01*
X23735Y142878D01*
X22750Y143074D01*
X7750D01*
X6765Y142878D01*
X5930Y142320D01*
X5372Y141485D01*
X5177Y140500D01*
Y138500D01*
X5372Y137515D01*
X5930Y136680D01*
X6765Y136122D01*
X7750Y135927D01*
X21296D01*
X21316Y135914D01*
X21369Y135927D01*
X21501D01*
X21583Y135892D01*
X21666Y135927D01*
X21830D01*
X21847Y135914D01*
X22314Y135517D01*
X22592Y135248D01*
X22780Y135174D01*
X25519Y132435D01*
X24710Y131448D01*
X24131Y131835D01*
X22750Y132109D01*
X16520D01*
Y128770D01*
X26306D01*
X26085Y129881D01*
X25698Y130460D01*
X26685Y131269D01*
X28194Y129760D01*
Y125184D01*
X28372Y124292D01*
X28877Y123536D01*
X36019Y116393D01*
X35805Y115428D01*
X35628Y115114D01*
X34688Y115091D01*
X32631Y117148D01*
X31874Y117653D01*
X30982Y117831D01*
X25482D01*
X25300Y117911D01*
X25017Y117918D01*
X24829Y117932D01*
X24772Y118018D01*
X24707Y118174D01*
X24652Y118196D01*
X24570Y118320D01*
X23735Y118878D01*
X22750Y119073D01*
X7750D01*
X6765Y118878D01*
X5930Y118320D01*
X5372Y117485D01*
X5177Y116500D01*
Y114500D01*
X5372Y113515D01*
X5930Y112680D01*
X6765Y112122D01*
X7750Y111926D01*
X22750D01*
X23735Y112122D01*
X24570Y112680D01*
X24652Y112804D01*
X24707Y112826D01*
X24772Y112982D01*
X24829Y113068D01*
X25017Y113082D01*
X25300Y113089D01*
X25482Y113169D01*
X30017D01*
X32334Y110852D01*
X33091Y110347D01*
X33983Y110169D01*
X34739D01*
X34949Y109876D01*
X35220Y108899D01*
X28651Y102331D01*
X27216D01*
X27036Y102411D01*
X27024Y102411D01*
Y103524D01*
X18476D01*
Y96810D01*
X18476Y96476D01*
X17670Y95540D01*
X17460D01*
Y94414D01*
X16520Y93642D01*
Y88000D01*
X15250D01*
Y86730D01*
X9650D01*
X9843Y85760D01*
X10077Y85410D01*
X9478Y84290D01*
X5960D01*
Y78770D01*
X12250D01*
X18540D01*
Y83295D01*
X19388Y83862D01*
X20657Y85760D01*
X20796Y86460D01*
X21480D01*
Y91000D01*
X22750D01*
Y92270D01*
X28040D01*
Y95540D01*
X27830D01*
X27134Y96348D01*
X27114Y96597D01*
X27938Y97669D01*
X29616D01*
X30508Y97847D01*
X31265Y98352D01*
X36782Y103869D01*
X37021Y103770D01*
X57785D01*
Y106540D01*
X56769D01*
Y114476D01*
Y124476D01*
Y134543D01*
X57328Y134579D01*
X57761Y134580D01*
X57930Y134651D01*
X59500D01*
X59500Y134651D01*
X60590Y134868D01*
X61514Y135486D01*
X61739Y135710D01*
X61746Y135711D01*
X61771Y135742D01*
X61908Y135879D01*
X62057Y135932D01*
X62342Y136188D01*
X62519Y136312D01*
X62642Y136373D01*
X62713Y136394D01*
X62750Y136398D01*
X62787Y136394D01*
X62858Y136373D01*
X62981Y136312D01*
X63158Y136188D01*
X63443Y135932D01*
X63593Y135879D01*
X63729Y135742D01*
X63755Y135711D01*
X63761Y135710D01*
X76236Y123236D01*
X77160Y122618D01*
X78250Y122401D01*
X78250Y122401D01*
X100088D01*
X100238Y122332D01*
X100531Y122319D01*
X100747Y122292D01*
X100956Y122246D01*
X101164Y122181D01*
X101372Y122096D01*
X101582Y121989D01*
X101796Y121858D01*
X102015Y121699D01*
X102238Y121512D01*
X102502Y121259D01*
X102569Y121233D01*
X104345Y120047D01*
X106500Y119618D01*
X108655Y120047D01*
X109990Y120938D01*
X111148Y120250D01*
X111593Y118010D01*
X112862Y116112D01*
X114760Y114843D01*
X115730Y114650D01*
Y120250D01*
X118270D01*
Y114650D01*
X119240Y114843D01*
X121138Y116112D01*
X122407Y118010D01*
X122461Y118282D01*
X123731Y118157D01*
Y109476D01*
Y99476D01*
Y89476D01*
Y79476D01*
X141529D01*
Y79476D01*
X142651Y79119D01*
Y49000D01*
X142651Y49000D01*
X142868Y47910D01*
X143486Y46986D01*
X152413Y38058D01*
Y34279D01*
X152409Y34274D01*
X152413Y34234D01*
Y34062D01*
X152374Y34024D01*
X152079Y33903D01*
X151642Y34004D01*
X151418Y34141D01*
X150819Y34859D01*
Y35750D01*
X150642Y36637D01*
X150139Y37390D01*
X149387Y37892D01*
X148500Y38069D01*
X138000D01*
X137113Y37892D01*
X136361Y37390D01*
X135858Y36637D01*
X135681Y35750D01*
Y34250D01*
X135858Y33363D01*
X136303Y32500D01*
X135858Y31637D01*
X135681Y30750D01*
Y29250D01*
X135858Y28363D01*
X136361Y27611D01*
Y27389D01*
X135858Y26637D01*
X135681Y25750D01*
Y24250D01*
X135794Y23683D01*
X135775Y23374D01*
X135492Y22912D01*
X135020Y22331D01*
X131774D01*
Y26274D01*
X123726D01*
X122754Y26993D01*
Y28574D01*
X110606D01*
Y16426D01*
X122519D01*
X122802Y16390D01*
X123726Y15707D01*
Y8726D01*
X129855D01*
X129990Y8647D01*
X130107Y8677D01*
X130219Y8631D01*
X130449Y8726D01*
X131774D01*
Y9517D01*
X132370Y9572D01*
X132792Y9581D01*
X132953Y9651D01*
X136250D01*
X136250Y9651D01*
X137340Y9868D01*
X138229Y10462D01*
X138413Y10535D01*
X139172Y11269D01*
X139747Y11775D01*
X139936Y11924D01*
X139948Y11931D01*
X148500D01*
X148675Y11966D01*
X148781Y11923D01*
X148899Y11972D01*
X148946Y11956D01*
X151124Y12080D01*
X151564Y12082D01*
X151730Y12151D01*
X156000D01*
X156000Y12151D01*
X157090Y12368D01*
X158014Y12986D01*
X161764Y16736D01*
X162382Y17660D01*
X162599Y18750D01*
X162599Y18750D01*
Y25512D01*
X162382Y26602D01*
X161764Y27527D01*
X161764Y27527D01*
X159594Y29697D01*
X159536Y29854D01*
X159236Y30175D01*
X159010Y30459D01*
X158814Y30747D01*
X158647Y31041D01*
X158506Y31344D01*
X158392Y31657D01*
X158302Y31984D01*
X158236Y32325D01*
X158196Y32686D01*
X158181Y33125D01*
X158111Y33278D01*
Y39238D01*
X157894Y40328D01*
X157276Y41252D01*
X157276Y41252D01*
X148349Y50180D01*
Y72581D01*
X149522Y73067D01*
X155536Y67053D01*
X155100Y66442D01*
X154902Y66233D01*
X154844Y66083D01*
X154826Y66058D01*
X153766Y64998D01*
X153148Y64073D01*
X152932Y62983D01*
X152932Y62983D01*
Y59799D01*
X152862Y59647D01*
X152813Y58336D01*
X152763Y57879D01*
X152696Y57511D01*
X152666Y57400D01*
X152303Y57037D01*
X152074Y56942D01*
X152022Y56817D01*
X151906Y56746D01*
X151873Y56606D01*
X149736Y54470D01*
X154720Y49486D01*
X154811Y48254D01*
X154663Y48106D01*
X156975Y45793D01*
X160716Y49534D01*
X161614Y48636D01*
X162512Y49534D01*
X165722Y46324D01*
X167836Y48438D01*
X168612Y48362D01*
X170510Y47093D01*
X171480Y46900D01*
Y52500D01*
X174020D01*
Y46900D01*
X174213Y46939D01*
X174518Y46634D01*
X174974Y47090D01*
X174990Y47093D01*
X176888Y48362D01*
X178157Y50260D01*
X178160Y50276D01*
X179658Y51775D01*
X173266Y58167D01*
X175062Y59963D01*
X181455Y53571D01*
X186158Y58274D01*
X187528Y57897D01*
X187618Y57442D01*
X188035Y56819D01*
X187337Y55812D01*
X187209Y55708D01*
X186004Y55439D01*
X185856Y55587D01*
X183543Y53275D01*
X187284Y49534D01*
X191025Y45793D01*
X193337Y48106D01*
X193189Y48254D01*
X193280Y49486D01*
X193517Y49722D01*
X196198Y52404D01*
X197371Y51918D01*
Y25093D01*
X197124Y24867D01*
X195922Y25398D01*
X195854Y25499D01*
Y25750D01*
X195599Y27034D01*
X194872Y28122D01*
X194662Y28262D01*
X194642Y28363D01*
X194818Y29250D01*
Y30750D01*
X194642Y31637D01*
X194196Y32500D01*
X194642Y33363D01*
X194818Y34250D01*
Y35750D01*
X194642Y36637D01*
X194139Y37390D01*
X193387Y37892D01*
X192500Y38069D01*
X182000D01*
X181113Y37892D01*
X180361Y37390D01*
X179858Y36637D01*
X179681Y35750D01*
Y34250D01*
X179858Y33363D01*
X180303Y32500D01*
X179858Y31637D01*
X179681Y30750D01*
Y29250D01*
X179858Y28363D01*
X179838Y28262D01*
X179628Y28122D01*
X178901Y27034D01*
X178749Y26270D01*
X187250D01*
Y23730D01*
X178749D01*
X178901Y22966D01*
X179628Y21878D01*
X179838Y21738D01*
X179858Y21637D01*
X179681Y20750D01*
Y19250D01*
X179858Y18363D01*
X180361Y17611D01*
Y17389D01*
X179858Y16637D01*
X179681Y15750D01*
Y14250D01*
X179858Y13363D01*
X180361Y12610D01*
X181113Y12108D01*
X182000Y11931D01*
X192500D01*
X193387Y12108D01*
X194139Y12610D01*
X194642Y13363D01*
X194698Y13645D01*
X196798D01*
X197690Y13823D01*
X198447Y14328D01*
X204398Y20279D01*
X204903Y21036D01*
X205081Y21927D01*
Y65187D01*
X210028Y70134D01*
X218365Y61797D01*
X210804Y54236D01*
X210299Y53480D01*
X210121Y52588D01*
Y28238D01*
X210299Y27346D01*
X210804Y26589D01*
X218947Y18447D01*
X218947Y18447D01*
X221197Y16197D01*
X221953Y15691D01*
X222845Y15514D01*
X246583D01*
X247475Y15691D01*
X248231Y16197D01*
X258179Y26145D01*
X258957Y25892D01*
X259396Y25565D01*
Y24250D01*
X259651Y22966D01*
X260378Y21878D01*
X260588Y21738D01*
X260608Y21637D01*
X260431Y20750D01*
Y19250D01*
X260608Y18363D01*
X261054Y17500D01*
X260608Y16637D01*
X260431Y15750D01*
Y14250D01*
X260608Y13363D01*
X261111Y12610D01*
X261863Y12108D01*
X262750Y11931D01*
X273250D01*
X274137Y12108D01*
X274890Y12610D01*
X275392Y13363D01*
X275569Y14250D01*
Y15750D01*
X275392Y16637D01*
X274947Y17500D01*
X275392Y18363D01*
X275569Y19250D01*
Y20750D01*
X275392Y21637D01*
X275412Y21738D01*
X275622Y21878D01*
X276349Y22966D01*
X276501Y23730D01*
X268000D01*
Y26270D01*
X276501D01*
X276349Y27034D01*
X275622Y28122D01*
X275412Y28262D01*
X275392Y28363D01*
X275569Y29250D01*
Y30750D01*
X275392Y31637D01*
X274890Y32389D01*
Y32611D01*
X275392Y33363D01*
X275569Y34250D01*
Y35750D01*
X275392Y36637D01*
X274890Y37390D01*
X274137Y37892D01*
X273250Y38069D01*
X262750D01*
X261863Y37892D01*
X261111Y37390D01*
X260608Y36637D01*
X260552Y36355D01*
X258451D01*
X257560Y36177D01*
X256803Y35672D01*
X246155Y25023D01*
X244984Y25649D01*
X245100Y26230D01*
X239500D01*
Y28770D01*
X245100D01*
X244907Y29740D01*
X243638Y31638D01*
X241740Y32907D01*
X241290Y32996D01*
Y34806D01*
X241750Y35183D01*
X243593Y35550D01*
X245156Y36594D01*
X246200Y38157D01*
X246567Y40000D01*
X246200Y41843D01*
X245156Y43406D01*
X243593Y44450D01*
X241750Y44816D01*
X239907Y44450D01*
X239269Y44024D01*
X236158D01*
X235632Y45294D01*
X250133Y59795D01*
X244796Y65133D01*
X240200Y69729D01*
X235604Y74325D01*
X231189Y78739D01*
X231571Y79200D01*
X231864Y79504D01*
X231928Y79668D01*
X237673Y85414D01*
X237828Y85470D01*
X238044Y85669D01*
X238216Y85802D01*
X238397Y85918D01*
X238590Y86019D01*
X238796Y86106D01*
X239021Y86179D01*
X239265Y86237D01*
X239532Y86280D01*
X239822Y86305D01*
X240188Y86313D01*
X240253Y86342D01*
X242348Y86758D01*
X244124Y87945D01*
X244191Y87971D01*
X244455Y88224D01*
X244678Y88411D01*
X244897Y88570D01*
X245111Y88701D01*
X245321Y88808D01*
X245529Y88893D01*
X245736Y88958D01*
X245946Y89004D01*
X246162Y89031D01*
X246455Y89044D01*
X246604Y89113D01*
X267770D01*
X267770Y89113D01*
X268860Y89330D01*
X269784Y89947D01*
X278608Y98771D01*
X280336Y98799D01*
X281170Y97965D01*
X289329Y106125D01*
X297587Y114382D01*
X297629Y114730D01*
X298030Y115541D01*
X298810Y115696D01*
X299734Y116313D01*
X300630Y117209D01*
X300683Y117246D01*
X300820Y117299D01*
X300976Y117450D01*
X301645Y117914D01*
X302144Y117415D01*
X303081Y118352D01*
X303311Y118447D01*
X303357Y118559D01*
X303462Y118621D01*
X303501Y118771D01*
X307835Y123106D01*
X302498Y128443D01*
X298164Y124109D01*
X298013Y124070D01*
X297951Y123965D01*
X297839Y123919D01*
X297744Y123689D01*
X296807Y122752D01*
X297306Y122253D01*
X296843Y121585D01*
X296692Y121428D01*
X296637Y121289D01*
X296603Y121239D01*
X296540Y121177D01*
X295243D01*
X295243Y121177D01*
X294153Y120960D01*
X293229Y120342D01*
X293228Y120342D01*
X292451Y119565D01*
X292290Y119503D01*
X291973Y119202D01*
X291725Y118994D01*
X291525Y118850D01*
X291501Y118837D01*
X289840Y120497D01*
X289849Y120506D01*
X289920Y120690D01*
X293520Y124291D01*
X295073Y124486D01*
X295073D01*
X300764Y130177D01*
X300585Y130356D01*
X300618Y132072D01*
X300685Y132139D01*
X305939D01*
X306114Y132059D01*
X306886Y132032D01*
X307121Y132007D01*
X307215Y131990D01*
X307249Y131957D01*
X307313Y131801D01*
X307444Y131747D01*
X307518Y131627D01*
X307597Y131609D01*
X309484Y129722D01*
X309720Y129486D01*
X309811Y128254D01*
X309663Y128106D01*
X310791Y126978D01*
X310650Y126270D01*
X316250D01*
Y125000D01*
X317520D01*
Y118469D01*
X317696Y118140D01*
X295528Y95972D01*
X294770Y94838D01*
X294504Y93500D01*
Y35500D01*
Y20248D01*
X294452Y20149D01*
X294499Y20000D01*
X294452Y19851D01*
X294504Y19752D01*
Y14000D01*
X294770Y12662D01*
X295528Y11528D01*
X301278Y5778D01*
X302412Y5020D01*
X303750Y4754D01*
X303750Y4754D01*
X383000D01*
X384338Y5020D01*
X385472Y5778D01*
X420798Y41104D01*
X441259D01*
X441390Y41046D01*
X442197Y41028D01*
X442860Y40978D01*
X443409Y40901D01*
X443835Y40804D01*
X444041Y40733D01*
X444667Y39796D01*
X444732Y39641D01*
X444811Y39608D01*
X444837Y39591D01*
X444885Y39505D01*
X445020Y39468D01*
X445791Y38953D01*
X445905Y38353D01*
Y38147D01*
X445791Y37547D01*
X444779Y36871D01*
X443945Y35623D01*
X443652Y34150D01*
Y29650D01*
X443945Y28177D01*
X444779Y26929D01*
X446027Y26095D01*
X447500Y25802D01*
X458000D01*
X459473Y26095D01*
X460721Y26929D01*
X461555Y28177D01*
X461848Y29650D01*
Y34150D01*
X461555Y35623D01*
X460721Y36871D01*
X459709Y37547D01*
X459595Y38147D01*
Y38353D01*
X459709Y38953D01*
X460721Y39629D01*
X461555Y40877D01*
X461848Y42350D01*
Y46850D01*
X461555Y48323D01*
X460721Y49571D01*
X459709Y50247D01*
X459595Y50847D01*
Y51053D01*
X459709Y51653D01*
X460721Y52329D01*
X461555Y53577D01*
X461848Y55050D01*
Y59550D01*
X461555Y61023D01*
X460721Y62271D01*
X459709Y62947D01*
X459595Y63547D01*
Y63753D01*
X459709Y64353D01*
X460721Y65029D01*
X461555Y66277D01*
X461848Y67750D01*
Y72250D01*
X461555Y73723D01*
X460721Y74971D01*
X459709Y75647D01*
X459595Y76247D01*
Y76453D01*
X459709Y77053D01*
X460721Y77729D01*
X461555Y78977D01*
X461848Y80450D01*
Y84950D01*
X461555Y86423D01*
X460721Y87671D01*
X459709Y88347D01*
X459595Y88947D01*
Y89153D01*
X459709Y89753D01*
X460721Y90429D01*
X461555Y91678D01*
X461848Y93150D01*
Y97650D01*
X461555Y99123D01*
X460721Y100371D01*
X459709Y101047D01*
X459595Y101647D01*
Y101853D01*
X459709Y102453D01*
X460721Y103129D01*
X461555Y104377D01*
X461848Y105850D01*
Y110350D01*
X461555Y111823D01*
X460721Y113071D01*
X459473Y113905D01*
X458000Y114198D01*
X447500D01*
X446027Y113905D01*
X444779Y113071D01*
X443945Y111823D01*
X443652Y110350D01*
Y105850D01*
X443945Y104377D01*
X444779Y103129D01*
X445791Y102453D01*
X445905Y101853D01*
Y101647D01*
X445791Y101047D01*
X444779Y100371D01*
X443945Y99123D01*
X443652Y97650D01*
Y93150D01*
X443945Y91678D01*
X444779Y90429D01*
X445791Y89753D01*
X445905Y89153D01*
Y88947D01*
X445791Y88347D01*
X444779Y87671D01*
X443945Y86423D01*
X443684Y85111D01*
X443671Y85111D01*
X443490Y85031D01*
X433700D01*
X432808Y84853D01*
X432052Y84348D01*
X417260Y69556D01*
X416029Y70121D01*
X415657Y71990D01*
X414388Y73888D01*
X412490Y75157D01*
X411520Y75350D01*
Y69750D01*
X410250D01*
Y68480D01*
X404650D01*
X404843Y67510D01*
X406112Y65612D01*
X408010Y64343D01*
X409879Y63971D01*
X410443Y62740D01*
X373785Y26081D01*
X346565D01*
X346562Y26084D01*
X346003Y27351D01*
X346555Y28177D01*
X346848Y29650D01*
Y34150D01*
X346555Y35623D01*
X345721Y36871D01*
X345714Y36875D01*
Y38403D01*
X346453Y38897D01*
X346831Y39462D01*
X347490Y39593D01*
X349388Y40862D01*
X350657Y42760D01*
X350850Y43730D01*
X345250D01*
Y46270D01*
X350850D01*
X350657Y47240D01*
X349388Y49138D01*
X347490Y50407D01*
X345793Y50744D01*
X345714Y50797D01*
Y52325D01*
X345721Y52329D01*
X346555Y53577D01*
X346848Y55050D01*
Y59550D01*
X346555Y61023D01*
X345721Y62271D01*
X344709Y62947D01*
X344595Y63547D01*
Y63753D01*
X344709Y64353D01*
X345721Y65029D01*
X346555Y66277D01*
X346848Y67750D01*
Y72250D01*
X346555Y73723D01*
X345721Y74971D01*
X344709Y75647D01*
X344595Y76247D01*
Y76453D01*
X344709Y77053D01*
X345721Y77729D01*
X346555Y78977D01*
X346848Y80450D01*
Y84950D01*
X346555Y86423D01*
X345721Y87671D01*
X344709Y88347D01*
X344595Y88947D01*
Y89153D01*
X344709Y89753D01*
X345721Y90429D01*
X346555Y91678D01*
X346848Y93150D01*
Y97650D01*
X346555Y99123D01*
X345721Y100371D01*
X345714Y100375D01*
Y101903D01*
X346453Y102397D01*
X347512Y103981D01*
X347884Y105850D01*
Y106830D01*
X337750D01*
Y108100D01*
X336480D01*
Y115234D01*
X332500D01*
X330631Y114862D01*
X329047Y113803D01*
X327988Y112219D01*
X327616Y110350D01*
Y110143D01*
X326112Y109138D01*
X324843Y107240D01*
X324650Y106270D01*
X330250D01*
Y103730D01*
X324650D01*
X324843Y102760D01*
X326112Y100862D01*
X328010Y99593D01*
X328752Y98151D01*
X328652Y97650D01*
Y93150D01*
X328945Y91678D01*
X329779Y90429D01*
X330791Y89753D01*
X330905Y89153D01*
Y88947D01*
X330791Y88347D01*
X329779Y87671D01*
X328945Y86423D01*
X328652Y84950D01*
Y80450D01*
X328945Y78977D01*
X329779Y77729D01*
X330791Y77053D01*
X330905Y76453D01*
Y76247D01*
X330791Y75647D01*
X329779Y74971D01*
X328945Y73723D01*
X328652Y72250D01*
Y67750D01*
X328945Y66277D01*
X329779Y65029D01*
X330791Y64353D01*
X330905Y63753D01*
Y63547D01*
X330791Y62947D01*
X329779Y62271D01*
X328945Y61023D01*
X328652Y59550D01*
Y55050D01*
X328945Y53577D01*
X329779Y52329D01*
X329786Y52325D01*
Y50797D01*
X329047Y50303D01*
X327988Y48719D01*
X327616Y46850D01*
Y45870D01*
X337750D01*
Y43330D01*
X327616D01*
Y42350D01*
X327988Y40481D01*
X329047Y38897D01*
X329786Y38403D01*
Y36875D01*
X329779Y36871D01*
X328945Y35623D01*
X328652Y34150D01*
Y29940D01*
X327955Y29502D01*
X327410Y29387D01*
X325148Y31648D01*
X324392Y32153D01*
X323500Y32331D01*
X320230D01*
X319741Y32933D01*
X319487Y33344D01*
X319456Y33686D01*
X319569Y34250D01*
Y35750D01*
X319392Y36637D01*
X318890Y37390D01*
X318137Y37892D01*
X317250Y38069D01*
X306750D01*
X306575Y38034D01*
X306469Y38077D01*
X306351Y38028D01*
X306304Y38044D01*
X304126Y37920D01*
X303686Y37918D01*
X303519Y37849D01*
X301496D01*
Y92052D01*
X328420Y118976D01*
X328554Y119028D01*
X328833Y119295D01*
X329071Y119503D01*
X329293Y119677D01*
X329495Y119817D01*
X329675Y119925D01*
X329831Y120002D01*
X329960Y120053D01*
X330062Y120082D01*
X330138Y120095D01*
X330295Y120103D01*
X330381Y120144D01*
X332405Y120547D01*
X334233Y121767D01*
X335453Y123595D01*
X335882Y125750D01*
X335453Y127905D01*
X334233Y129733D01*
X332405Y130954D01*
X330250Y131382D01*
X328095Y130954D01*
X326267Y129733D01*
X325047Y127905D01*
X324644Y125881D01*
X324603Y125795D01*
X324595Y125638D01*
X324582Y125562D01*
X324553Y125460D01*
X324502Y125331D01*
X324425Y125175D01*
X324317Y124995D01*
X324190Y124811D01*
X323780Y124318D01*
X323528Y124054D01*
X323206Y124037D01*
X322102Y125000D01*
X321657Y127240D01*
X321649Y127251D01*
X323565Y129166D01*
X321253Y131479D01*
X317512Y127738D01*
X315716Y129534D01*
X319457Y133275D01*
X317144Y135587D01*
X316996Y135439D01*
X315764Y135530D01*
X315528Y135766D01*
X310780Y140514D01*
X307597Y137331D01*
X307518Y137312D01*
X307444Y137192D01*
X307313Y137139D01*
X307249Y136983D01*
X307215Y136949D01*
X307143Y136937D01*
X306531Y136888D01*
X306145Y136881D01*
X305959Y136800D01*
X299720D01*
X298828Y136623D01*
X298072Y136118D01*
X297322Y135368D01*
X295606Y135335D01*
X295427Y135514D01*
X295262Y136716D01*
X308178Y149632D01*
X309894Y149665D01*
X310073Y149486D01*
X315764Y155177D01*
X310427Y160514D01*
X304736Y154823D01*
X304915Y154644D01*
X304882Y152928D01*
X281262Y129308D01*
X281098Y129240D01*
X272582Y137756D01*
X272525Y139299D01*
X272614Y139472D01*
X273406Y140264D01*
X273911Y141020D01*
X274089Y141912D01*
Y146400D01*
X275988Y148299D01*
X276172Y148370D01*
X276181Y148378D01*
X277144Y147415D01*
X282835Y153106D01*
X277498Y158443D01*
X271807Y152752D01*
X272771Y151789D01*
X272762Y151780D01*
X272691Y151595D01*
X270110Y149014D01*
X269604Y148258D01*
X269427Y147366D01*
Y142877D01*
X269318Y142768D01*
X267602Y142736D01*
X263491Y146847D01*
X264540Y148048D01*
X265013Y148525D01*
X265070Y148664D01*
X266502Y150097D01*
X267260Y151231D01*
X267467Y152273D01*
X268178Y152984D01*
X268318Y153041D01*
X268818Y153537D01*
X269951Y154609D01*
X270073Y154486D01*
X270864Y155276D01*
X270960Y155293D01*
X271067Y155447D01*
X271240Y155518D01*
X271335Y155747D01*
X274503Y158915D01*
X274732Y159010D01*
X274827Y159240D01*
X275764Y160177D01*
X275565Y160375D01*
X276614Y161581D01*
X277087Y162060D01*
X277143Y162199D01*
X278198Y163254D01*
X329817D01*
X330241Y162830D01*
X330293Y162696D01*
X330560Y162417D01*
X330768Y162179D01*
X330942Y161957D01*
X331082Y161755D01*
X331189Y161575D01*
X331267Y161419D01*
X331318Y161290D01*
X331347Y161188D01*
X331360Y161112D01*
X331368Y160955D01*
X331409Y160869D01*
X331811Y158845D01*
X333032Y157017D01*
X334860Y155797D01*
X337015Y155368D01*
X339170Y155797D01*
X340886Y156943D01*
X340976Y156975D01*
X341093Y157080D01*
X341156Y157125D01*
X341248Y157177D01*
X341376Y157232D01*
X341540Y157288D01*
X341744Y157339D01*
X341964Y157379D01*
X342602Y157438D01*
X342967Y157446D01*
X343099Y157504D01*
X379417D01*
X379544Y157446D01*
X380835Y157406D01*
Y154270D01*
X389125D01*
Y151730D01*
X380835D01*
Y147460D01*
X382620D01*
X383247Y146190D01*
X382795Y145602D01*
X382036Y143768D01*
X381944Y143069D01*
X394875D01*
X407807D01*
X407715Y143768D01*
X406955Y145602D01*
X405746Y147177D01*
X404171Y148386D01*
X402337Y149145D01*
X400369Y149405D01*
X398741D01*
X398651Y149671D01*
X399619Y150774D01*
X399874Y150723D01*
X401932Y151132D01*
X403677Y152298D01*
X404842Y154043D01*
X405252Y156100D01*
X404842Y158158D01*
X403677Y159903D01*
X401932Y161068D01*
X399874Y161478D01*
X397816Y161068D01*
X397519Y160870D01*
X396399Y161469D01*
Y176192D01*
X396994Y176590D01*
X398809Y178405D01*
X399314Y179161D01*
X399492Y180053D01*
Y184947D01*
X399314Y185839D01*
X398809Y186595D01*
X396994Y188410D01*
X396399Y188808D01*
Y194476D01*
Y204476D01*
X396399D01*
Y208533D01*
X397519Y209131D01*
X397816Y208933D01*
X399874Y208523D01*
X401932Y208933D01*
X403677Y210098D01*
X404842Y211843D01*
X405252Y213901D01*
X404842Y215958D01*
X403677Y217703D01*
X401932Y218869D01*
X399874Y219278D01*
X399622Y219228D01*
X398655Y220330D01*
X398744Y220595D01*
X400369D01*
X402338Y220854D01*
X404172Y221614D01*
X405747Y222822D01*
X406956Y224397D01*
X407715Y226231D01*
X407807Y226930D01*
X394876D01*
X381944D01*
X382036Y226231D01*
X382796Y224397D01*
X383246Y223810D01*
X382620Y222540D01*
X380835D01*
Y218270D01*
X389125D01*
Y215730D01*
X380835D01*
Y213096D01*
X380261Y213060D01*
X379582Y213055D01*
X379445Y212996D01*
X373453D01*
X373323Y213054D01*
X372650Y213072D01*
X372116Y213119D01*
X371687Y213190D01*
X371370Y213276D01*
X371169Y213358D01*
X371120Y213388D01*
X371110Y213483D01*
X371024Y213641D01*
Y215274D01*
X361301D01*
X359500Y215632D01*
X357345Y215203D01*
X355628Y214057D01*
X355538Y214025D01*
X355422Y213920D01*
X355359Y213875D01*
X355267Y213824D01*
X355139Y213768D01*
X354974Y213713D01*
X354771Y213661D01*
X354551Y213621D01*
X353913Y213562D01*
X353548Y213554D01*
X353416Y213496D01*
X345371D01*
X345274Y214726D01*
X345274Y214766D01*
Y224274D01*
X344161D01*
X344161Y224286D01*
X344081Y224466D01*
Y237695D01*
X344176Y238926D01*
X345351Y238926D01*
X356324D01*
Y251074D01*
X354336D01*
X354234Y251129D01*
X354142Y251139D01*
X354110Y251192D01*
X354027Y251397D01*
X353941Y251719D01*
X353869Y252153D01*
X353822Y252694D01*
X353804Y253373D01*
X353746Y253503D01*
Y256416D01*
X353804Y256548D01*
X353812Y256934D01*
X353834Y257250D01*
X353867Y257529D01*
X353911Y257771D01*
X353963Y257974D01*
X354018Y258139D01*
X354074Y258267D01*
X354125Y258359D01*
X354170Y258422D01*
X354275Y258538D01*
X354307Y258628D01*
X355453Y260345D01*
X355882Y262500D01*
X355453Y264655D01*
X354307Y266372D01*
X354275Y266462D01*
X354170Y266578D01*
X354125Y266641D01*
X354074Y266733D01*
X354018Y266861D01*
X353963Y267026D01*
X353911Y267229D01*
X353871Y267449D01*
X353812Y268087D01*
X353804Y268452D01*
X353746Y268584D01*
Y271497D01*
X353804Y271627D01*
X353822Y272300D01*
X353869Y272834D01*
X353940Y273263D01*
X354026Y273580D01*
X354108Y273781D01*
X354138Y273830D01*
X354233Y273840D01*
X354391Y273926D01*
X356324D01*
Y286074D01*
X344176D01*
Y273926D01*
X346109D01*
X346267Y273840D01*
X346362Y273830D01*
X346392Y273781D01*
X346474Y273580D01*
X346560Y273263D01*
X346631Y272834D01*
X346678Y272300D01*
X346696Y271627D01*
X346754Y271497D01*
Y268584D01*
X346696Y268452D01*
X346688Y268066D01*
X346666Y267750D01*
X346633Y267471D01*
X346589Y267229D01*
X346537Y267026D01*
X346482Y266861D01*
X346426Y266733D01*
X346375Y266641D01*
X346330Y266578D01*
X346225Y266462D01*
X346193Y266372D01*
X345047Y264655D01*
X344618Y262500D01*
X345047Y260345D01*
X346193Y258628D01*
X346225Y258538D01*
X346330Y258422D01*
X346375Y258359D01*
X346426Y258267D01*
X346482Y258139D01*
X346537Y257974D01*
X346589Y257771D01*
X346629Y257551D01*
X346688Y256913D01*
X346696Y256548D01*
X346754Y256416D01*
Y253503D01*
X346696Y253373D01*
X346678Y252694D01*
X346631Y252154D01*
X346559Y251719D01*
X346473Y251397D01*
X346390Y251192D01*
X346358Y251139D01*
X346266Y251129D01*
X346164Y251074D01*
X344176D01*
Y242826D01*
X342906Y242300D01*
X334263Y250944D01*
X334196Y251123D01*
X333677Y251682D01*
X333534Y251861D01*
X333473Y251948D01*
X333559Y252156D01*
X333507Y252281D01*
X333539Y252413D01*
X333464Y252535D01*
Y260594D01*
X321316D01*
Y248446D01*
X329375D01*
X329497Y248371D01*
X329629Y248403D01*
X329754Y248351D01*
X329962Y248437D01*
X330031Y248389D01*
X330490Y248000D01*
X330764Y247736D01*
X330952Y247662D01*
X339419Y239195D01*
Y224466D01*
X339339Y224286D01*
X339339Y224274D01*
X338226D01*
Y215514D01*
X336956Y214988D01*
X334654Y217290D01*
X334601Y217425D01*
X333906Y218146D01*
X333338Y218788D01*
X332878Y219365D01*
X332528Y219870D01*
X332288Y220289D01*
X332274Y220321D01*
Y221744D01*
X332318Y221928D01*
X332274Y222000D01*
Y224274D01*
X325226D01*
Y216609D01*
X325140Y216448D01*
X325203Y216236D01*
X325151Y216021D01*
X325226Y215900D01*
Y214726D01*
X326452D01*
X326613Y214639D01*
X326738Y214627D01*
X326796Y214611D01*
X326946Y214548D01*
X327172Y214426D01*
X327458Y214243D01*
X327770Y214017D01*
X329078Y212884D01*
X329567Y212406D01*
X329219Y211178D01*
X329179Y211081D01*
X326965D01*
X323136Y214910D01*
X322380Y215415D01*
X321891Y215513D01*
X321531Y215673D01*
X321524Y215673D01*
Y219024D01*
X313976D01*
Y213737D01*
X313931Y213512D01*
Y212690D01*
X313882Y212580D01*
X313877Y212423D01*
X312794Y211340D01*
X311524Y211866D01*
Y219024D01*
X310013D01*
X309950Y219343D01*
X308906Y220906D01*
X307343Y221950D01*
X305500Y222316D01*
X303657Y221950D01*
X302094Y220906D01*
X301050Y219343D01*
X300683Y217500D01*
X301050Y215657D01*
X302094Y214094D01*
X303657Y213050D01*
X303976Y212987D01*
Y210976D01*
X310014D01*
X310700Y209734D01*
X310347Y209006D01*
X309788Y208487D01*
X309609Y208344D01*
X309522Y208283D01*
X309314Y208369D01*
X309189Y208317D01*
X309057Y208349D01*
X308935Y208274D01*
X302476D01*
Y196726D01*
X313024D01*
Y204185D01*
X313099Y204307D01*
X313067Y204439D01*
X313119Y204564D01*
X313033Y204772D01*
X313081Y204841D01*
X313470Y205300D01*
X313734Y205574D01*
X313808Y205762D01*
X317910Y209864D01*
X318415Y210620D01*
X319238Y210931D01*
X319822D01*
X319936Y210881D01*
X320586Y210868D01*
X324352Y207102D01*
X325108Y206597D01*
X325373Y206544D01*
X325247Y205274D01*
X325226D01*
Y195726D01*
X337210D01*
Y194710D01*
X338544D01*
X339612Y193112D01*
X341510Y191843D01*
X342480Y191650D01*
Y197250D01*
X343750D01*
Y198520D01*
X349350D01*
X349157Y199490D01*
X347888Y201388D01*
X346290Y202456D01*
Y206290D01*
X347471Y206504D01*
X353416D01*
X353548Y206446D01*
X353934Y206438D01*
X354250Y206416D01*
X354529Y206383D01*
X354771Y206339D01*
X354974Y206287D01*
X355139Y206232D01*
X355267Y206176D01*
X355359Y206125D01*
X355422Y206080D01*
X355538Y205975D01*
X355628Y205943D01*
X357345Y204797D01*
X359500Y204368D01*
X361301Y204726D01*
X369095D01*
X369221Y204650D01*
X369348Y204681D01*
X369469Y204631D01*
X369699Y204726D01*
X371024D01*
Y205722D01*
X371217Y205777D01*
X371558Y205840D01*
X372642Y205934D01*
X373310Y205946D01*
X373443Y206004D01*
X379428D01*
X379560Y205946D01*
X380242Y205931D01*
X380735Y205895D01*
X381851Y205524D01*
Y193808D01*
X381256Y193410D01*
X379352Y191506D01*
X378847Y190750D01*
X378669Y189858D01*
Y184271D01*
X378590Y184093D01*
X268087D01*
X267195Y183915D01*
X266439Y183410D01*
X246683Y163654D01*
X239846Y170492D01*
X235250Y175088D01*
X220367Y160205D01*
Y160205D01*
X219884Y158892D01*
X219743Y158864D01*
X217891Y160715D01*
Y162595D01*
X222738Y167442D01*
X223243Y168198D01*
X223421Y169090D01*
Y185457D01*
X223243Y186349D01*
X222738Y187106D01*
X221942Y187902D01*
Y189172D01*
X224563Y191793D01*
X225281Y191075D01*
X227240Y193034D01*
X220229Y200045D01*
X213218Y207056D01*
X211259Y205097D01*
X211978Y204379D01*
X205625Y198026D01*
X198554Y190955D01*
X191483Y183884D01*
X184412Y176813D01*
X177341Y169742D01*
X189926Y157157D01*
X193461Y160692D01*
X200533Y167763D01*
X207604Y174834D01*
X214441Y181672D01*
X215711Y181342D01*
Y171318D01*
X210864Y166471D01*
X210359Y165715D01*
X210182Y164823D01*
Y158488D01*
X210359Y157596D01*
X210864Y156839D01*
X216623Y151081D01*
X217379Y150575D01*
X218271Y150398D01*
X224980D01*
X225872Y150575D01*
X226628Y151081D01*
X228059Y152512D01*
X239251Y141321D01*
X238787Y140653D01*
X238636Y140496D01*
X238582Y140357D01*
X238547Y140307D01*
X226279Y128039D01*
X226124Y127982D01*
X225908Y127783D01*
X225736Y127650D01*
X225555Y127534D01*
X225362Y127433D01*
X225156Y127347D01*
X224931Y127274D01*
X224687Y127215D01*
X224420Y127173D01*
X224130Y127147D01*
X223764Y127140D01*
X223699Y127111D01*
X221604Y126694D01*
X219777Y125473D01*
X218556Y123646D01*
X218139Y121551D01*
X218111Y121486D01*
X218103Y121120D01*
X218077Y120830D01*
X218035Y120563D01*
X217976Y120319D01*
X217903Y120094D01*
X217817Y119888D01*
X217716Y119695D01*
X217600Y119514D01*
X217467Y119342D01*
X217268Y119126D01*
X217211Y118971D01*
X204944Y106704D01*
X204892Y106668D01*
X204754Y106614D01*
X204598Y106464D01*
X203929Y105999D01*
X197334Y112594D01*
X202013Y117273D01*
X202518Y118029D01*
X202695Y118921D01*
Y125196D01*
X202518Y126088D01*
X202013Y126844D01*
X194411Y134446D01*
X193654Y134951D01*
X192763Y135129D01*
X178487D01*
X177596Y134951D01*
X176839Y134446D01*
X166248Y123855D01*
X141529D01*
Y128460D01*
X142545D01*
Y128671D01*
X143815Y129056D01*
X144112Y128612D01*
X146010Y127343D01*
X146980Y127150D01*
Y132750D01*
Y138350D01*
X146010Y138157D01*
X144112Y136888D01*
X143815Y136444D01*
X142545Y136540D01*
X141529Y137224D01*
Y140524D01*
X125515D01*
X125286Y140619D01*
X125131Y140555D01*
X124966Y140588D01*
X124881Y140531D01*
X124769Y140524D01*
X123731D01*
Y140457D01*
X123172Y140421D01*
X122739Y140420D01*
X122570Y140349D01*
X118750D01*
X118750Y140349D01*
X117660Y140132D01*
X116736Y139514D01*
X116736Y139514D01*
X109019Y131798D01*
X108865Y131742D01*
X108649Y131543D01*
X108476Y131410D01*
X108296Y131294D01*
X108103Y131193D01*
X107896Y131106D01*
X107672Y131033D01*
X107428Y130975D01*
X107161Y130932D01*
X106870Y130907D01*
X106505Y130899D01*
X106439Y130870D01*
X104345Y130454D01*
X102569Y129267D01*
X102502Y129241D01*
X102238Y128988D01*
X102015Y128801D01*
X101796Y128642D01*
X101582Y128511D01*
X101372Y128404D01*
X101164Y128319D01*
X100957Y128254D01*
X100747Y128208D01*
X100531Y128180D01*
X100238Y128168D01*
X100088Y128099D01*
X79430D01*
X67082Y140447D01*
X67024Y140604D01*
X66724Y140925D01*
X66508Y141195D01*
X66515Y141256D01*
X66816Y142064D01*
X67123Y142404D01*
X67222Y142465D01*
X71790D01*
Y143481D01*
X78518D01*
X78520Y143481D01*
X78537Y143473D01*
X78620Y143428D01*
X78662Y143399D01*
X78709Y143357D01*
X78728Y143336D01*
X78861Y143124D01*
X79165Y142454D01*
X79214Y142211D01*
X78300Y140843D01*
X77933Y139000D01*
X78300Y137157D01*
X79344Y135594D01*
X80907Y134550D01*
X82750Y134184D01*
X84593Y134550D01*
X86156Y135594D01*
X87200Y137157D01*
X87567Y139000D01*
X87200Y140843D01*
X86286Y142211D01*
X86335Y142454D01*
X86640Y143125D01*
X86771Y143336D01*
X86791Y143357D01*
X86839Y143399D01*
X86880Y143428D01*
X86963Y143473D01*
X86980Y143481D01*
X86982Y143481D01*
X120774D01*
Y161279D01*
X83169D01*
X82683Y162452D01*
X87678Y167447D01*
X89150Y167724D01*
X89840Y167263D01*
X90654Y167101D01*
X91468Y167263D01*
X92158Y167724D01*
X99141Y174707D01*
X99602Y175397D01*
X99764Y176211D01*
X99659Y176738D01*
X100155Y177687D01*
X100451Y178041D01*
X100608Y178047D01*
X100905Y177901D01*
X106726Y172080D01*
Y165726D01*
X113440D01*
X113774Y165726D01*
X114710Y164920D01*
Y164710D01*
X117980D01*
Y170000D01*
Y175290D01*
X114710D01*
Y175290D01*
X113535Y174881D01*
X113440Y174898D01*
X112722Y175972D01*
X105756Y182939D01*
X105700Y183077D01*
X105467Y183314D01*
X105097Y183718D01*
X104849Y184025D01*
X104795Y184102D01*
X104781Y184125D01*
X104781Y184127D01*
X104778Y184130D01*
X104771Y184142D01*
X104738Y184210D01*
X104722Y184225D01*
X104450Y185593D01*
X103406Y187156D01*
X101843Y188200D01*
X100000Y188567D01*
X98157Y188200D01*
X96997Y187425D01*
X96975Y187426D01*
X96904Y187401D01*
X96890Y187397D01*
X96887Y187397D01*
X96884Y187396D01*
X96858Y187389D01*
X96794Y187378D01*
X95803Y187307D01*
X95493Y187304D01*
X95356Y187246D01*
X94084D01*
X94084Y187246D01*
X92746Y186980D01*
X92599Y186882D01*
X91367Y186614D01*
X90681Y187641D01*
X90386Y187936D01*
X84657Y182208D01*
X82861Y184004D01*
X88590Y189732D01*
X88294Y190027D01*
X87268Y190713D01*
X86058Y190954D01*
X85760Y190894D01*
X85352Y191504D01*
X82966Y193891D01*
X82275Y194352D01*
X81461Y194514D01*
X80647Y194352D01*
X79957Y193891D01*
X72975Y186908D01*
X72513Y186218D01*
X72351Y185404D01*
X72513Y184590D01*
X72562Y184516D01*
X72452Y184401D01*
X72381Y184216D01*
X71102Y182937D01*
X70597Y182181D01*
X70419Y181289D01*
Y162295D01*
X69020D01*
Y152380D01*
X66480D01*
Y162295D01*
X63710D01*
Y161279D01*
X59726D01*
Y145265D01*
X59631Y145035D01*
X59695Y144881D01*
X59662Y144716D01*
X59700Y144659D01*
X59726Y143481D01*
X59572Y142275D01*
X59506Y142094D01*
X59365Y141791D01*
X59198Y141497D01*
X59002Y141209D01*
X58776Y140925D01*
X58477Y140604D01*
X58039Y140487D01*
X56769Y140524D01*
D01*
X55534Y140588D01*
X55370Y140555D01*
X55215Y140619D01*
X54985Y140524D01*
X40755D01*
X40525Y140619D01*
X40370Y140555D01*
X40206Y140588D01*
X40121Y140531D01*
X40009Y140524D01*
X38971D01*
Y140457D01*
X38412Y140421D01*
X37979Y140420D01*
X37810Y140349D01*
X36430D01*
X33099Y143680D01*
Y149797D01*
X33169Y149958D01*
X33178Y150402D01*
X33201Y150748D01*
X33229Y150976D01*
X34024D01*
Y152301D01*
X34119Y152530D01*
X34073Y152643D01*
X34103Y152760D01*
X34024Y152894D01*
Y157819D01*
X35119Y158941D01*
X35294Y158982D01*
X35638Y158951D01*
X35644Y158940D01*
X35800Y158157D01*
X36401Y157257D01*
X36397Y157240D01*
X36476Y157106D01*
Y150976D01*
X44024D01*
Y157106D01*
X44103Y157240D01*
X44099Y157257D01*
X44700Y158157D01*
X45067Y160000D01*
X44700Y161843D01*
X44099Y162743D01*
X44103Y162759D01*
X44024Y162894D01*
Y169024D01*
X36476D01*
Y163883D01*
X36310Y163760D01*
X35040Y164399D01*
Y170040D01*
X31520D01*
Y165000D01*
X28980D01*
Y170040D01*
X25460D01*
Y169448D01*
X24190Y169063D01*
X23638Y169888D01*
X21740Y171157D01*
X20317Y171440D01*
X20442Y172710D01*
X35040D01*
Y178980D01*
X18500D01*
Y180250D01*
X17230D01*
Y187790D01*
X2314D01*
Y222210D01*
X17230D01*
Y229750D01*
Y237290D01*
X2314D01*
Y242710D01*
X17230D01*
Y250250D01*
Y257790D01*
X2314D01*
Y292210D01*
X17230D01*
Y299750D01*
X18500D01*
Y301020D01*
X35040D01*
Y307290D01*
X36042Y307936D01*
X112910D01*
X113263Y306666D01*
X112814Y306366D01*
X85302Y278855D01*
X74274D01*
Y283774D01*
X66226D01*
Y278855D01*
X62024D01*
Y285774D01*
X41976D01*
Y276726D01*
X57212D01*
X57252Y276525D01*
X57757Y275769D01*
X58526Y275000D01*
X57757Y274231D01*
X57252Y273475D01*
X57212Y273274D01*
X41976D01*
Y264226D01*
X62024D01*
Y271145D01*
X66226D01*
Y266226D01*
X74274D01*
Y271145D01*
X87530D01*
X88422Y271323D01*
X89179Y271828D01*
X116690Y299339D01*
X229816D01*
X230201Y298069D01*
X230109Y298008D01*
X228520Y296419D01*
Y291355D01*
X229150Y291985D01*
X230946Y290189D01*
X225218Y284461D01*
X225513Y284165D01*
X226539Y283480D01*
X227750Y283239D01*
X228048Y283298D01*
X228455Y282688D01*
X230842Y280302D01*
X231532Y279841D01*
X232364Y279614D01*
X232591Y278782D01*
X233052Y278092D01*
X235438Y275706D01*
X236128Y275244D01*
X236960Y275018D01*
X237187Y274186D01*
X237648Y273496D01*
X238990Y272154D01*
X238610Y270877D01*
X237652Y270658D01*
X237588Y270722D01*
X236454Y271480D01*
X235116Y271746D01*
X228255D01*
X227857Y272230D01*
X221750D01*
Y273500D01*
X220480D01*
Y279100D01*
X219510Y278907D01*
X217612Y277638D01*
X216798Y277558D01*
X215466Y278891D01*
X214776Y279352D01*
X213961Y279514D01*
X213147Y279352D01*
X212457Y278891D01*
X205474Y271908D01*
X205013Y271218D01*
X204851Y270404D01*
X205013Y269590D01*
X205062Y269516D01*
X204952Y269401D01*
X204881Y269216D01*
X203420Y267754D01*
X200925D01*
X200033Y267577D01*
X199277Y267072D01*
X198206Y266001D01*
X196944Y267262D01*
X197546Y268456D01*
X199490Y268843D01*
X201388Y270112D01*
X202657Y272010D01*
X202850Y272980D01*
X191650D01*
X191666Y272899D01*
X190496Y272274D01*
X189926Y272843D01*
X178602Y261520D01*
X178373Y261425D01*
X178309Y261270D01*
X178169Y261177D01*
X178156Y261111D01*
X177341Y260258D01*
X176427Y259399D01*
X176209Y259276D01*
X175906Y259135D01*
X175593Y259020D01*
X175266Y258930D01*
X174925Y258865D01*
X174564Y258825D01*
X174352Y258818D01*
X173869Y259301D01*
X173805Y259465D01*
X173099Y260198D01*
X173159Y260258D01*
X172354Y261064D01*
X172331Y261177D01*
X172191Y261270D01*
X172127Y261425D01*
X171898Y261520D01*
X160574Y272843D01*
X152762Y265031D01*
X146932Y259202D01*
X145662Y259728D01*
Y275082D01*
X145742Y275256D01*
X145770Y276029D01*
X145795Y276263D01*
X145802Y276306D01*
X145918Y276422D01*
X146000Y276456D01*
X146034Y276539D01*
X146128Y276632D01*
X146174Y276660D01*
X146179Y276683D01*
X146565Y277069D01*
X147123Y277904D01*
X147319Y278889D01*
X147123Y279874D01*
X146565Y280709D01*
X135959Y291315D01*
X135124Y291873D01*
X134139Y292069D01*
X133154Y291873D01*
X132319Y291315D01*
X130905Y289901D01*
X130347Y289066D01*
X130151Y288081D01*
X130347Y287097D01*
X130905Y286262D01*
X140484Y276683D01*
X140489Y276660D01*
X140535Y276632D01*
X140628Y276539D01*
X140663Y276456D01*
X140745Y276422D01*
X140861Y276306D01*
X140864Y276285D01*
X140914Y275674D01*
X140920Y275287D01*
X141001Y275101D01*
Y271228D01*
X139731Y271103D01*
X139595Y271785D01*
X138813Y272956D01*
X134407Y277361D01*
X132046Y275000D01*
X138966Y268081D01*
X139595Y269023D01*
X139731Y269705D01*
X141001Y269580D01*
Y257877D01*
X140119Y257378D01*
X139763Y257318D01*
X133515Y263567D01*
X132759Y264072D01*
X131867Y264249D01*
X130169D01*
X129994Y264329D01*
X129221Y264357D01*
X128987Y264382D01*
X128944Y264389D01*
X128828Y264505D01*
X128794Y264587D01*
X128712Y264622D01*
X128618Y264715D01*
X128590Y264761D01*
X128567Y264766D01*
X118988Y274345D01*
X118153Y274903D01*
X117169Y275099D01*
X116184Y274903D01*
X115349Y274345D01*
X113935Y272931D01*
X113377Y272096D01*
X113181Y271111D01*
X113377Y270126D01*
X113935Y269291D01*
X124541Y258685D01*
X125376Y258127D01*
X126361Y257931D01*
X127346Y258127D01*
X128181Y258685D01*
X128567Y259071D01*
X128590Y259076D01*
X128618Y259122D01*
X128712Y259216D01*
X128794Y259250D01*
X128828Y259332D01*
X128944Y259448D01*
X128965Y259452D01*
X129577Y259501D01*
X129963Y259507D01*
X130148Y259588D01*
X130901D01*
X136921Y253568D01*
X136862Y253213D01*
X136362Y252331D01*
X115562D01*
X115429Y252304D01*
X112220Y255514D01*
X107472Y250767D01*
X107236Y250530D01*
X106004Y250439D01*
X105856Y250587D01*
X103544Y248275D01*
X107284Y244534D01*
X111025Y240793D01*
X113337Y243106D01*
X113189Y243254D01*
X113280Y244486D01*
X113517Y244722D01*
X116463Y247669D01*
X132304D01*
X132790Y246496D01*
X130112Y243818D01*
X130830Y243100D01*
X124478Y236747D01*
X117407Y229676D01*
X129992Y217091D01*
X133527Y220627D01*
X140645Y227745D01*
X141066Y227375D01*
X141374Y227070D01*
X141543Y227000D01*
X166952Y201592D01*
X167008Y201437D01*
X167207Y201221D01*
X167340Y201049D01*
X167456Y200868D01*
X167557Y200675D01*
X167644Y200469D01*
X167717Y200244D01*
X167775Y200000D01*
X167818Y199733D01*
X167843Y199443D01*
X167851Y199077D01*
X167880Y199012D01*
X168297Y196917D01*
X169483Y195141D01*
X169509Y195074D01*
X169762Y194810D01*
X169949Y194587D01*
X170108Y194368D01*
X170240Y194154D01*
X170346Y193944D01*
X170431Y193736D01*
X170496Y193529D01*
X170542Y193319D01*
X170570Y193103D01*
X170582Y192810D01*
X170651Y192661D01*
Y175539D01*
X169840Y174728D01*
X169676Y174664D01*
X169675Y174663D01*
X169102Y175236D01*
X162091Y168225D01*
X155080Y161214D01*
X157038Y159255D01*
X157757Y159974D01*
X160574Y157157D01*
X163456Y160039D01*
X163493Y160017D01*
X163690Y159877D01*
X163934Y159672D01*
X164247Y159375D01*
X164408Y159313D01*
X168302Y155420D01*
X168318Y155397D01*
X168376Y155246D01*
X168577Y155035D01*
X169011Y154426D01*
X167438Y152853D01*
X175604Y144688D01*
X183062Y152147D01*
X174896Y160312D01*
X173324Y158740D01*
X172715Y159174D01*
X172504Y159374D01*
X172353Y159432D01*
X172330Y159448D01*
X168437Y163342D01*
X168375Y163503D01*
X168078Y163816D01*
X167873Y164060D01*
X167733Y164257D01*
X167712Y164294D01*
X171898Y168480D01*
X172127Y168575D01*
X172191Y168730D01*
X172331Y168823D01*
X172351Y168923D01*
X172425Y169008D01*
X173159Y169742D01*
X173112Y169789D01*
X173482Y170210D01*
X173787Y170517D01*
X173856Y170687D01*
X175514Y172345D01*
X175514Y172345D01*
X176132Y173269D01*
X176349Y174359D01*
X176349Y174359D01*
Y192661D01*
X176418Y192810D01*
X176430Y193103D01*
X176458Y193319D01*
X176504Y193529D01*
X176569Y193736D01*
X176654Y193944D01*
X176761Y194154D01*
X176892Y194368D01*
X177051Y194587D01*
X177238Y194810D01*
X177491Y195074D01*
X177517Y195141D01*
X178703Y196917D01*
X179132Y199072D01*
X178703Y201228D01*
X177483Y203055D01*
X175655Y204276D01*
X173561Y204692D01*
X173495Y204721D01*
X173130Y204729D01*
X172839Y204755D01*
X172572Y204797D01*
X172328Y204855D01*
X172104Y204928D01*
X171897Y205015D01*
X171704Y205116D01*
X171524Y205232D01*
X171351Y205365D01*
X171135Y205564D01*
X170981Y205620D01*
X145585Y231016D01*
X145520Y231180D01*
X145519Y231182D01*
X146092Y231755D01*
X139081Y238766D01*
X140878Y240562D01*
X147888Y233551D01*
X147917Y233580D01*
X149270Y233136D01*
X149593Y231510D01*
X150862Y229612D01*
X152760Y228343D01*
X153730Y228150D01*
Y233750D01*
Y240168D01*
X153500Y240599D01*
X161811Y248911D01*
X168930Y256029D01*
X169351Y255659D01*
X169658Y255354D01*
X169828Y255285D01*
X171236Y253877D01*
X171236Y253876D01*
X172160Y253259D01*
X172879Y253116D01*
X172976Y253038D01*
X173168Y253058D01*
X173181Y253056D01*
X173353Y252974D01*
X173735Y252953D01*
X173948Y252916D01*
X174079Y252872D01*
X174144Y252837D01*
X174173Y252814D01*
X174196Y252785D01*
X174231Y252720D01*
X174275Y252589D01*
X174313Y252376D01*
X174333Y251994D01*
X174401Y251851D01*
Y251657D01*
X174397Y251617D01*
X174401Y251612D01*
Y229178D01*
X174401Y229178D01*
X174618Y228088D01*
X175236Y227163D01*
X183880Y218519D01*
X183936Y218365D01*
X184135Y218149D01*
X184268Y217976D01*
X184384Y217796D01*
X184485Y217603D01*
X184572Y217397D01*
X184645Y217172D01*
X184703Y216928D01*
X184746Y216660D01*
X184771Y216371D01*
X184779Y216005D01*
X184807Y215939D01*
X185224Y213845D01*
X186445Y212017D01*
X188272Y210797D01*
X190428Y210368D01*
X192583Y210797D01*
X194359Y211983D01*
X194426Y212009D01*
X194690Y212262D01*
X194913Y212449D01*
X195132Y212608D01*
X195346Y212740D01*
X195556Y212846D01*
X195764Y212931D01*
X195971Y212996D01*
X196181Y213042D01*
X196397Y213070D01*
X196690Y213082D01*
X196839Y213151D01*
X211961D01*
X214760Y210352D01*
X214780Y209086D01*
X222025Y201841D01*
X229036Y194830D01*
X230995Y196789D01*
X230276Y197507D01*
X233093Y200324D01*
X224610Y208808D01*
X224623Y208832D01*
X224767Y209032D01*
X224975Y209280D01*
X225275Y209597D01*
X225337Y209758D01*
X232994Y217415D01*
X232994Y217415D01*
X233612Y218339D01*
X233829Y219429D01*
Y220408D01*
X240656Y227235D01*
X240820Y227299D01*
X241141Y227608D01*
X241401Y227836D01*
X241582Y227977D01*
X242144Y227415D01*
X243081Y228352D01*
X243311Y228447D01*
X243357Y228559D01*
X243462Y228621D01*
X243501Y228771D01*
X247835Y233106D01*
X242498Y238443D01*
X238164Y234109D01*
X238013Y234070D01*
X237951Y233965D01*
X237839Y233919D01*
X237744Y233689D01*
X236807Y232752D01*
X237366Y232193D01*
X236984Y231732D01*
X236692Y231428D01*
X236628Y231264D01*
X228965Y223602D01*
X228348Y222678D01*
X228131Y221588D01*
X228131Y221588D01*
Y220609D01*
X221287Y213766D01*
X221116Y213695D01*
X220266Y213430D01*
X219428Y213742D01*
X215155Y218014D01*
X214231Y218632D01*
X213141Y218849D01*
X213141Y218849D01*
X196839D01*
X196690Y218918D01*
X196397Y218930D01*
X196181Y218958D01*
X195971Y219004D01*
X195763Y219069D01*
X195556Y219154D01*
X195346Y219261D01*
X195132Y219392D01*
X194913Y219551D01*
X194690Y219738D01*
X194426Y219991D01*
X194359Y220017D01*
X192583Y221203D01*
X190488Y221620D01*
X190423Y221649D01*
X190057Y221657D01*
X189767Y221682D01*
X189500Y221725D01*
X189256Y221783D01*
X189031Y221856D01*
X188825Y221943D01*
X188632Y222044D01*
X188451Y222160D01*
X188279Y222293D01*
X188063Y222492D01*
X187908Y222548D01*
X180099Y230358D01*
Y252613D01*
X180168Y252766D01*
X180184Y253205D01*
X180224Y253565D01*
X180289Y253907D01*
X180326Y254040D01*
X180902Y254338D01*
X180990Y254356D01*
X188409Y261775D01*
X190205Y259979D01*
X183194Y252968D01*
X185153Y251009D01*
X185872Y251728D01*
X191483Y246116D01*
X198554Y239045D01*
X205625Y231974D01*
X212696Y224903D01*
X220508Y217091D01*
X233093Y229676D01*
X226370Y236399D01*
X226896Y237669D01*
X230763D01*
X230939Y237589D01*
X231740Y237562D01*
X231985Y237536D01*
X231992Y237535D01*
X232008Y237475D01*
X232136Y237404D01*
X232200Y237271D01*
X232336Y237223D01*
X235073Y234486D01*
X240764Y240177D01*
X239800Y241140D01*
X239809Y241150D01*
X239880Y241334D01*
X243916Y245370D01*
X244100Y245441D01*
X244110Y245450D01*
X245073Y244486D01*
X250764Y250177D01*
X245427Y255514D01*
X239736Y249823D01*
X240700Y248860D01*
X240691Y248850D01*
X240620Y248666D01*
X236584Y244630D01*
X236400Y244559D01*
X236390Y244550D01*
X235427Y245514D01*
X232740Y242827D01*
X232635Y242797D01*
X232539Y242626D01*
X232468Y242555D01*
X232452Y242551D01*
X232281Y242517D01*
X231076Y242418D01*
X230566Y242411D01*
X230378Y242331D01*
X230347D01*
X230160Y242355D01*
X230128Y242331D01*
X226215D01*
X216647Y251899D01*
X217173Y253169D01*
X219934D01*
X220826Y253347D01*
X220947Y253427D01*
X221649Y252724D01*
X222340Y252263D01*
X223154Y252101D01*
X223968Y252263D01*
X224658Y252724D01*
X231641Y259707D01*
X232102Y260397D01*
X232264Y261211D01*
X232102Y262026D01*
X231641Y262716D01*
X230776Y263580D01*
X231262Y264754D01*
X233668D01*
X233979Y264443D01*
X234296Y262845D01*
X235517Y261017D01*
X237345Y259797D01*
X239500Y259368D01*
X241655Y259797D01*
X242976Y260679D01*
X244226Y260726D01*
X244226Y260726D01*
X245551D01*
X245781Y260631D01*
X245971Y260710D01*
X246175Y260679D01*
X246239Y260726D01*
X250940D01*
X251274Y260726D01*
X252210Y259920D01*
Y259710D01*
X255480D01*
Y265000D01*
Y270290D01*
X252210D01*
Y270080D01*
X251274Y269274D01*
X250940Y269274D01*
X246239D01*
X246175Y269321D01*
X245971Y269290D01*
X245781Y269369D01*
X245551Y269274D01*
X244226D01*
Y269274D01*
X243850Y269288D01*
X243337Y269864D01*
X243043Y271109D01*
X250026Y278092D01*
X250487Y278782D01*
X250649Y279596D01*
X250487Y280410D01*
X250026Y281101D01*
X247639Y283487D01*
X246949Y283948D01*
X246117Y284175D01*
X245891Y285007D01*
X245429Y285697D01*
X244664Y286462D01*
X246873Y288672D01*
X247379Y289428D01*
X247556Y290320D01*
Y295268D01*
X247379Y296160D01*
X246873Y296917D01*
X237424Y306366D01*
X236975Y306666D01*
X237327Y307936D01*
X460250D01*
X460250Y307936D01*
D02*
G37*
G36*
X208864Y267747D02*
X208751Y267839D01*
X208626Y267897D01*
X208490Y267923D01*
X208343Y267916D01*
X208185Y267877D01*
X208016Y267804D01*
X207835Y267699D01*
X207643Y267561D01*
X207440Y267390D01*
X207226Y267187D01*
X206148Y268265D01*
X206352Y268479D01*
X206523Y268682D01*
X206660Y268874D01*
X206766Y269054D01*
X206838Y269224D01*
X206878Y269382D01*
X206885Y269529D01*
X206859Y269665D01*
X206800Y269789D01*
X206709Y269903D01*
X208864Y267747D01*
D02*
G37*
G36*
X352164Y267994D02*
X352235Y267225D01*
X352298Y266880D01*
X352379Y266560D01*
X352477Y266267D01*
X352594Y266000D01*
X352728Y265760D01*
X352880Y265545D01*
X353050Y265357D01*
X347450D01*
X347620Y265545D01*
X347772Y265760D01*
X347906Y266000D01*
X348023Y266267D01*
X348121Y266560D01*
X348202Y266880D01*
X348265Y267225D01*
X348309Y267596D01*
X348336Y267994D01*
X348345Y268417D01*
X352155D01*
X352164Y267994D01*
D02*
G37*
G36*
X199653Y263074D02*
X199453Y262864D01*
X199285Y262666D01*
X199148Y262479D01*
X199043Y262304D01*
X198969Y262140D01*
X198927Y261988D01*
X198917Y261848D01*
X198938Y261719D01*
X198991Y261602D01*
X199075Y261496D01*
X196997Y263574D01*
X197103Y263490D01*
X197220Y263437D01*
X197349Y263416D01*
X197490Y263426D01*
X197642Y263468D01*
X197805Y263542D01*
X197980Y263647D01*
X198167Y263783D01*
X198365Y263952D01*
X198575Y264151D01*
X199653Y263074D01*
D02*
G37*
G36*
X242545Y267630D02*
X242760Y267478D01*
X243001Y267344D01*
X243267Y267227D01*
X243560Y267129D01*
X243880Y267048D01*
X244080Y267012D01*
X244409Y267035D01*
X244828Y267109D01*
X245171Y267198D01*
X245438Y267304D01*
X245628Y267426D01*
X245742Y267565D01*
X245781Y267719D01*
Y262281D01*
X245742Y262435D01*
X245628Y262574D01*
X245438Y262696D01*
X245171Y262802D01*
X244828Y262891D01*
X244409Y262965D01*
X244128Y262997D01*
X243880Y262952D01*
X243560Y262871D01*
X243267Y262773D01*
X243001Y262656D01*
X242760Y262522D01*
X242545Y262370D01*
X242357Y262200D01*
Y263091D01*
X241971Y263095D01*
Y266905D01*
X242357Y266909D01*
Y267800D01*
X242545Y267630D01*
D02*
G37*
G36*
X448981Y262231D02*
X448837Y262395D01*
X448636Y262542D01*
X448377Y262672D01*
X448060Y262784D01*
X447687Y262879D01*
X447255Y262957D01*
X446767Y263017D01*
X445617Y263086D01*
X444956Y263095D01*
Y266905D01*
X445617Y266914D01*
X447255Y267043D01*
X447687Y267121D01*
X448060Y267216D01*
X448377Y267328D01*
X448636Y267458D01*
X448837Y267605D01*
X448981Y267769D01*
Y262231D01*
D02*
G37*
G36*
X127651Y263280D02*
X127720Y263154D01*
X127835Y263043D01*
X127997Y262947D01*
X128204Y262866D01*
X128458Y262799D01*
X128758Y262747D01*
X129104Y262710D01*
X129935Y262681D01*
Y261157D01*
X129497Y261149D01*
X128758Y261090D01*
X128458Y261038D01*
X128204Y260971D01*
X127997Y260890D01*
X127835Y260794D01*
X127720Y260683D01*
X127651Y260557D01*
X127627Y260416D01*
Y263421D01*
X127651Y263280D01*
D02*
G37*
G36*
X203710Y259016D02*
X202611Y257960D01*
X200994Y259534D01*
X201109Y259443D01*
X201235Y259386D01*
X201371Y259361D01*
X201519Y259368D01*
X201677Y259408D01*
X201846Y259480D01*
X202026Y259585D01*
X202217Y259722D01*
X202419Y259892D01*
X202632Y260094D01*
X203710Y259016D01*
D02*
G37*
G36*
X181618Y258180D02*
X181573Y258189D01*
X181495Y258159D01*
X181384Y258090D01*
X181240Y257983D01*
X180852Y257652D01*
X180099Y256928D01*
X179975Y256794D01*
X179669Y256413D01*
X179400Y256016D01*
X179167Y255605D01*
X178969Y255179D01*
X178807Y254738D01*
X178682Y254282D01*
X178592Y253811D01*
X178538Y253325D01*
X178520Y252825D01*
X175980Y252081D01*
X175955Y252563D01*
X175878Y252995D01*
X175751Y253376D01*
X175574Y253706D01*
X175345Y253986D01*
X175066Y254214D01*
X174735Y254392D01*
X174354Y254519D01*
X173923Y254596D01*
X173440Y254621D01*
X174184Y257161D01*
X174685Y257179D01*
X175170Y257233D01*
X175641Y257323D01*
X176097Y257448D01*
X176538Y257610D01*
X176964Y257808D01*
X177375Y258041D01*
X177772Y258310D01*
X178153Y258616D01*
X178310Y258761D01*
X179518Y260136D01*
X179548Y260214D01*
X179539Y260258D01*
X181618Y258180D01*
D02*
G37*
G36*
X352880Y259455D02*
X352728Y259240D01*
X352594Y259000D01*
X352477Y258733D01*
X352379Y258440D01*
X352298Y258120D01*
X352235Y257775D01*
X352191Y257404D01*
X352164Y257006D01*
X352155Y256583D01*
X348345D01*
X348336Y257006D01*
X348265Y257775D01*
X348202Y258120D01*
X348121Y258440D01*
X348023Y258733D01*
X347906Y259000D01*
X347772Y259240D01*
X347620Y259455D01*
X347450Y259643D01*
X353050D01*
X352880Y259455D01*
D02*
G37*
G36*
X170952Y260214D02*
X170982Y260136D01*
X171050Y260025D01*
X171158Y259881D01*
X171489Y259493D01*
X172616Y258321D01*
X170820Y256525D01*
X170477Y256865D01*
X169005Y258159D01*
X168927Y258189D01*
X168883Y258180D01*
X170961Y260258D01*
X170952Y260214D01*
D02*
G37*
G36*
X207226Y255461D02*
X206146Y254425D01*
X204550Y255978D01*
X204660Y255892D01*
X204782Y255837D01*
X204914Y255814D01*
X205058Y255822D01*
X205212Y255863D01*
X205378Y255934D01*
X205554Y256038D01*
X205741Y256173D01*
X205939Y256340D01*
X206148Y256539D01*
X207226Y255461D01*
D02*
G37*
G36*
X145064Y256880D02*
X145262Y256712D01*
X145449Y256576D01*
X145624Y256471D01*
X145787Y256397D01*
X145939Y256355D01*
X146080Y256345D01*
X146209Y256366D01*
X146326Y256419D01*
X146432Y256503D01*
X144354Y254425D01*
X144438Y254531D01*
X144491Y254648D01*
X144512Y254777D01*
X144501Y254917D01*
X144459Y255069D01*
X144386Y255233D01*
X144281Y255408D01*
X144144Y255595D01*
X143976Y255793D01*
X143776Y256003D01*
X144854Y257080D01*
X145064Y256880D01*
D02*
G37*
G36*
X442664Y255744D02*
X442735Y254975D01*
X442798Y254629D01*
X442879Y254310D01*
X442977Y254017D01*
X443094Y253750D01*
X443228Y253510D01*
X443380Y253295D01*
X443550Y253107D01*
X437950D01*
X438120Y253295D01*
X438272Y253510D01*
X438406Y253750D01*
X438523Y254017D01*
X438621Y254310D01*
X438702Y254629D01*
X438764Y254975D01*
X438809Y255346D01*
X438836Y255744D01*
X438845Y256167D01*
X442655D01*
X442664Y255744D01*
D02*
G37*
G36*
X141528Y253345D02*
X141726Y253177D01*
X141913Y253040D01*
X142088Y252935D01*
X142252Y252862D01*
X142404Y252820D01*
X142544Y252809D01*
X142673Y252830D01*
X142790Y252883D01*
X142896Y252967D01*
X140818Y250889D01*
X140902Y250995D01*
X140955Y251112D01*
X140976Y251241D01*
X140966Y251382D01*
X140924Y251534D01*
X140850Y251697D01*
X140745Y251873D01*
X140609Y252059D01*
X140441Y252257D01*
X140241Y252467D01*
X141318Y253545D01*
X141528Y253345D01*
D02*
G37*
G36*
X352174Y252600D02*
X352231Y251947D01*
X352326Y251371D01*
X352460Y250872D01*
X352631Y250449D01*
X352841Y250103D01*
X353088Y249835D01*
X353374Y249643D01*
X353698Y249527D01*
X354060Y249489D01*
X346440D01*
X346802Y249527D01*
X347126Y249643D01*
X347411Y249835D01*
X347659Y250103D01*
X347869Y250449D01*
X348040Y250872D01*
X348173Y251371D01*
X348269Y251947D01*
X348326Y252600D01*
X348345Y253330D01*
X352155D01*
X352174Y252600D01*
D02*
G37*
G36*
X331823Y252037D02*
X331780Y251897D01*
Y251735D01*
X331823Y251552D01*
X331909Y251348D01*
X332039Y251121D01*
X332211Y250873D01*
X332427Y250604D01*
X332987Y250000D01*
X331909Y248923D01*
X331597Y249225D01*
X331037Y249699D01*
X330789Y249871D01*
X330563Y250000D01*
X330358Y250087D01*
X330174Y250130D01*
X330013D01*
X329873Y250087D01*
X329754Y250000D01*
X331909Y252156D01*
X331823Y252037D01*
D02*
G37*
G36*
X137993Y249809D02*
X138191Y249641D01*
X138378Y249505D01*
X138553Y249400D01*
X138716Y249326D01*
X138868Y249284D01*
X139009Y249274D01*
X139138Y249295D01*
X139255Y249348D01*
X139361Y249432D01*
X137283Y247354D01*
X137367Y247460D01*
X137420Y247577D01*
X137441Y247706D01*
X137430Y247846D01*
X137388Y247998D01*
X137315Y248162D01*
X137210Y248337D01*
X137073Y248524D01*
X136905Y248722D01*
X136705Y248932D01*
X137783Y250009D01*
X137993Y249809D01*
D02*
G37*
G36*
X244581Y247176D02*
X244468Y247268D01*
X244344Y247327D01*
X244210Y247354D01*
X244064Y247349D01*
X243908Y247311D01*
X243741Y247241D01*
X243563Y247138D01*
X243375Y247004D01*
X243175Y246837D01*
X242965Y246637D01*
X241887Y247715D01*
X242087Y247925D01*
X242254Y248125D01*
X242388Y248313D01*
X242491Y248491D01*
X242561Y248658D01*
X242599Y248814D01*
X242604Y248960D01*
X242577Y249094D01*
X242518Y249218D01*
X242426Y249331D01*
X244581Y247176D01*
D02*
G37*
G36*
X238613Y242285D02*
X238413Y242075D01*
X238246Y241875D01*
X238112Y241687D01*
X238009Y241509D01*
X237939Y241342D01*
X237901Y241186D01*
X237896Y241040D01*
X237923Y240906D01*
X237982Y240782D01*
X238074Y240669D01*
X235919Y242824D01*
X236032Y242732D01*
X236156Y242673D01*
X236290Y242646D01*
X236436Y242651D01*
X236592Y242689D01*
X236759Y242759D01*
X236937Y242862D01*
X237125Y242996D01*
X237325Y243163D01*
X237535Y243363D01*
X238613Y242285D01*
D02*
G37*
G36*
X444669Y249351D02*
X444706Y249244D01*
X444779Y249112D01*
X444886Y248953D01*
X445027Y248767D01*
X445414Y248317D01*
X445730Y247987D01*
X449219Y247928D01*
X448971Y242302D01*
X448946Y242661D01*
X448837Y242982D01*
X448644Y243265D01*
X448368Y243510D01*
X448009Y243718D01*
X447566Y243888D01*
X447039Y244020D01*
X446428Y244114D01*
X445734Y244171D01*
X444956Y244190D01*
Y246146D01*
X443558Y244748D01*
X443240Y245062D01*
X442047Y246114D01*
X441888Y246221D01*
X441755Y246294D01*
X441649Y246332D01*
X441570Y246335D01*
X444665Y249430D01*
X444669Y249351D01*
D02*
G37*
G36*
X233303Y238498D02*
X233296Y238638D01*
X233239Y238764D01*
X233132Y238875D01*
X232976Y238971D01*
X232770Y239053D01*
X232514Y239119D01*
X232209Y239171D01*
X231854Y239208D01*
X230996Y239238D01*
X230587Y240762D01*
X231155Y240769D01*
X232510Y240881D01*
X232846Y240947D01*
X233124Y241029D01*
X233344Y241125D01*
X233506Y241236D01*
X233610Y241362D01*
X233657Y241502D01*
X233303Y238498D01*
D02*
G37*
G36*
X242144Y229613D02*
X241999Y229723D01*
X241831Y229783D01*
X241640Y229794D01*
X241427Y229756D01*
X241192Y229668D01*
X240934Y229531D01*
X240653Y229344D01*
X240350Y229108D01*
X240025Y228823D01*
X239677Y228489D01*
X237881Y230285D01*
X238215Y230633D01*
X238736Y231261D01*
X238923Y231542D01*
X239060Y231800D01*
X239148Y232035D01*
X239186Y232248D01*
X239175Y232439D01*
X239115Y232607D01*
X239005Y232752D01*
X242144Y229613D01*
D02*
G37*
G36*
X142668Y231929D02*
X142697Y231852D01*
X142766Y231740D01*
X142873Y231597D01*
X143204Y231209D01*
X144331Y230037D01*
X142535Y228241D01*
X142193Y228581D01*
X140721Y229875D01*
X140643Y229905D01*
X140598Y229896D01*
X142676Y231974D01*
X142668Y231929D01*
D02*
G37*
G36*
X342520Y223948D02*
X342542Y223684D01*
X342581Y223451D01*
X342634Y223249D01*
X342702Y223078D01*
X342786Y222938D01*
X342885Y222829D01*
X343000Y222751D01*
X343129Y222705D01*
X343274Y222689D01*
X340226D01*
X340371Y222705D01*
X340500Y222751D01*
X340615Y222829D01*
X340714Y222938D01*
X340798Y223078D01*
X340866Y223249D01*
X340919Y223451D01*
X340957Y223684D01*
X340980Y223948D01*
X340988Y224244D01*
X342512D01*
X342520Y223948D01*
D02*
G37*
G36*
X187215Y221031D02*
X187500Y220811D01*
X187802Y220617D01*
X188121Y220449D01*
X188456Y220308D01*
X188809Y220194D01*
X189178Y220106D01*
X189564Y220044D01*
X189968Y220009D01*
X190388Y220000D01*
X186428Y216040D01*
X186419Y216460D01*
X186384Y216863D01*
X186322Y217250D01*
X186234Y217619D01*
X186119Y217971D01*
X185978Y218307D01*
X185811Y218626D01*
X185617Y218928D01*
X185397Y219213D01*
X185151Y219481D01*
X186947Y221277D01*
X187215Y221031D01*
D02*
G37*
G36*
X330515Y221337D02*
X330440Y220959D01*
X330464Y220535D01*
X330587Y220065D01*
X330810Y219550D01*
X331132Y218988D01*
X331554Y218380D01*
X332074Y217726D01*
X332694Y217026D01*
X333414Y216280D01*
X330719Y213586D01*
X330195Y214098D01*
X328796Y215311D01*
X328388Y215607D01*
X328008Y215849D01*
X327658Y216038D01*
X327336Y216173D01*
X327044Y216254D01*
X326781Y216280D01*
X330689Y221669D01*
X330515Y221337D01*
D02*
G37*
G36*
X193588Y218509D02*
X193898Y218249D01*
X194214Y218020D01*
X194538Y217821D01*
X194868Y217652D01*
X195205Y217515D01*
X195549Y217408D01*
X195900Y217331D01*
X196257Y217285D01*
X196621Y217270D01*
Y214730D01*
X196257Y214715D01*
X195900Y214669D01*
X195549Y214592D01*
X195205Y214485D01*
X194868Y214347D01*
X194538Y214179D01*
X194214Y213980D01*
X193898Y213751D01*
X193588Y213491D01*
X193284Y213200D01*
Y218800D01*
X193588Y218509D01*
D02*
G37*
G36*
X319956Y214637D02*
X320004Y214508D01*
X320083Y214395D01*
X320192Y214296D01*
X320331Y214213D01*
X320502Y214145D01*
X320702Y214092D01*
X320934Y214054D01*
X321195Y214032D01*
X321488Y214024D01*
Y212500D01*
X319970Y212530D01*
X319939Y214781D01*
X319956Y214637D01*
D02*
G37*
G36*
X317232Y212520D02*
X317188Y212490D01*
X317150Y212439D01*
X317116Y212367D01*
X317088Y212276D01*
X317065Y212164D01*
X317047Y212031D01*
X317027Y211705D01*
X317024Y211512D01*
X315500D01*
X315530Y212530D01*
X317281D01*
X317232Y212520D01*
D02*
G37*
G36*
X218914Y212026D02*
X220386Y210732D01*
X220464Y210702D01*
X220508Y210711D01*
X218430Y208633D01*
X218439Y208677D01*
X218409Y208755D01*
X218340Y208866D01*
X218233Y209010D01*
X217902Y209398D01*
X216775Y210570D01*
X218571Y212366D01*
X218914Y212026D01*
D02*
G37*
G36*
X224079Y210732D02*
X223744Y210379D01*
X223463Y210044D01*
X223236Y209727D01*
X223063Y209429D01*
X222944Y209148D01*
X222879Y208886D01*
X222868Y208641D01*
X222911Y208415D01*
X223008Y208207D01*
X223159Y208017D01*
X220508Y210711D01*
X220522Y210733D01*
X220572Y210790D01*
X221369Y211610D01*
X222283Y212528D01*
X224079Y210732D01*
D02*
G37*
G36*
X362977Y212016D02*
X363058Y211992D01*
X363182Y211972D01*
X363348Y211954D01*
X364106Y211917D01*
X365250Y211905D01*
Y208095D01*
X364826Y208094D01*
X362977Y207984D01*
X362940Y207958D01*
Y212042D01*
X362977Y212016D01*
D02*
G37*
G36*
X356643Y207200D02*
X356455Y207370D01*
X356240Y207522D01*
X355999Y207656D01*
X355733Y207773D01*
X355440Y207871D01*
X355121Y207952D01*
X354775Y208015D01*
X354404Y208059D01*
X354006Y208086D01*
X353583Y208095D01*
Y211905D01*
X354006Y211914D01*
X354775Y211986D01*
X355121Y212048D01*
X355440Y212129D01*
X355733Y212227D01*
X355999Y212344D01*
X356240Y212478D01*
X356455Y212630D01*
X356643Y212800D01*
Y207200D01*
D02*
G37*
G36*
X312547Y206719D02*
X312245Y206407D01*
X311771Y205847D01*
X311599Y205599D01*
X311469Y205373D01*
X311383Y205168D01*
X311340Y204984D01*
Y204823D01*
X311383Y204683D01*
X311469Y204564D01*
X309314Y206719D01*
X309433Y206633D01*
X309573Y206590D01*
X309734D01*
X309918Y206633D01*
X310123Y206719D01*
X310349Y206849D01*
X310597Y207021D01*
X310866Y207237D01*
X311469Y207797D01*
X312547Y206719D01*
D02*
G37*
G36*
X369508Y212948D02*
X369622Y212624D01*
X369812Y212339D01*
X370079Y212091D01*
X370422Y211881D01*
X370841Y211710D01*
X371336Y211576D01*
X371908Y211481D01*
X372556Y211424D01*
X373279Y211405D01*
Y207595D01*
X372556Y207582D01*
X371336Y207477D01*
X370841Y207385D01*
X370422Y207266D01*
X370079Y207122D01*
X369812Y206951D01*
X369622Y206754D01*
X369508Y206530D01*
X369469Y206280D01*
Y213310D01*
X369508Y212948D01*
D02*
G37*
G36*
X383405Y206031D02*
X383367Y206328D01*
X383253Y206594D01*
X383063Y206828D01*
X382796Y207032D01*
X382453Y207204D01*
X382034Y207345D01*
X381539Y207454D01*
X380967Y207532D01*
X380319Y207579D01*
X379595Y207595D01*
Y211405D01*
X380319Y211411D01*
X382453Y211546D01*
X382796Y211608D01*
X383063Y211682D01*
X383253Y211766D01*
X383367Y211862D01*
X383405Y211970D01*
Y206031D01*
D02*
G37*
G36*
X334779Y204743D02*
X334820Y204329D01*
X334855Y204160D01*
X334901Y204018D01*
X334956Y203901D01*
X335022Y203809D01*
X335098Y203743D01*
X335184Y203703D01*
X335280Y203689D01*
X333280Y203720D01*
X333250Y204988D01*
X334774D01*
X334779Y204743D01*
D02*
G37*
G36*
X170287Y204103D02*
X170572Y203883D01*
X170874Y203689D01*
X171193Y203522D01*
X171529Y203381D01*
X171881Y203266D01*
X172250Y203178D01*
X172637Y203116D01*
X173040Y203081D01*
X173460Y203072D01*
X169500Y199112D01*
X169491Y199532D01*
X169456Y199935D01*
X169394Y200322D01*
X169306Y200691D01*
X169192Y201044D01*
X169051Y201379D01*
X168883Y201698D01*
X168690Y202000D01*
X168469Y202285D01*
X168223Y202553D01*
X170019Y204349D01*
X170287Y204103D01*
D02*
G37*
G36*
X176009Y195912D02*
X175749Y195602D01*
X175520Y195286D01*
X175321Y194962D01*
X175152Y194632D01*
X175015Y194295D01*
X174908Y193951D01*
X174831Y193601D01*
X174785Y193243D01*
X174770Y192879D01*
X172230D01*
X172215Y193243D01*
X172169Y193601D01*
X172092Y193951D01*
X171985Y194295D01*
X171847Y194632D01*
X171679Y194962D01*
X171480Y195286D01*
X171251Y195602D01*
X170991Y195912D01*
X170700Y196216D01*
X176300D01*
X176009Y195912D01*
D02*
G37*
G36*
X95431Y182403D02*
X95098Y182072D01*
X93646Y180796D01*
X93616Y180808D01*
X90839Y183660D01*
X90899Y183633D01*
X90988Y183643D01*
X91105Y183691D01*
X91252Y183778D01*
X91427Y183903D01*
X91632Y184065D01*
X92127Y184505D01*
X92737Y185097D01*
X95431Y182403D01*
D02*
G37*
G36*
X76364Y182747D02*
X76251Y182839D01*
X76126Y182897D01*
X75990Y182923D01*
X75843Y182916D01*
X75685Y182877D01*
X75516Y182804D01*
X75335Y182699D01*
X75143Y182561D01*
X74940Y182390D01*
X74726Y182187D01*
X73648Y183265D01*
X73852Y183479D01*
X74022Y183682D01*
X74160Y183874D01*
X74266Y184054D01*
X74338Y184224D01*
X74378Y184382D01*
X74385Y184529D01*
X74359Y184665D01*
X74300Y184789D01*
X74209Y184903D01*
X76364Y182747D01*
D02*
G37*
G36*
X97715Y181510D02*
X97634Y181574D01*
X97521Y181631D01*
X97378Y181681D01*
X97204Y181724D01*
X96999Y181761D01*
X96496Y181815D01*
X95869Y181842D01*
X95509Y181845D01*
Y185655D01*
X95869Y185658D01*
X96999Y185739D01*
X97204Y185776D01*
X97378Y185819D01*
X97521Y185869D01*
X97634Y185926D01*
X97715Y185990D01*
Y181510D01*
D02*
G37*
G36*
X381770Y183758D02*
X381792Y183499D01*
X381831Y183271D01*
X381884Y183072D01*
X381953Y182905D01*
X382036Y182768D01*
X382135Y182661D01*
X382250Y182585D01*
X382356Y182547D01*
X382438Y182554D01*
X382670Y182592D01*
X382871Y182646D01*
X383042Y182714D01*
X383182Y182798D01*
X383292Y182897D01*
X383370Y183011D01*
X383418Y183141D01*
X383436Y183286D01*
X383405Y181030D01*
X383390Y181024D01*
X383344Y181019D01*
X383268Y181015D01*
X381881Y181000D01*
Y181881D01*
X381000Y181000D01*
X379476Y182524D01*
X379621Y182539D01*
X379750Y182585D01*
X379865Y182661D01*
X379964Y182768D01*
X380047Y182905D01*
X380116Y183072D01*
X380169Y183271D01*
X380207Y183499D01*
X380230Y183758D01*
X380238Y184048D01*
X381762D01*
X381770Y183758D01*
D02*
G37*
G36*
X103212Y183616D02*
X103251Y183496D01*
X103317Y183359D01*
X103409Y183205D01*
X103528Y183034D01*
X103846Y182641D01*
X104271Y182178D01*
X104523Y181921D01*
X101829Y179227D01*
X101572Y179479D01*
X100716Y180222D01*
X100545Y180341D01*
X100391Y180433D01*
X100254Y180499D01*
X100134Y180538D01*
X100032Y180550D01*
X103200Y183718D01*
X103212Y183616D01*
D02*
G37*
G36*
X80900Y175786D02*
X80902Y175422D01*
X81007Y173817D01*
X81035Y173722D01*
X81067Y173661D01*
X76641Y174355D01*
X76726Y174434D01*
X76803Y174545D01*
X76870Y174686D01*
X76929Y174859D01*
X76978Y175062D01*
X77019Y175296D01*
X77050Y175562D01*
X77086Y176185D01*
X77091Y176543D01*
X80900Y175786D01*
D02*
G37*
G36*
X172616Y171679D02*
X172276Y171336D01*
X170982Y169864D01*
X170952Y169786D01*
X170961Y169742D01*
X168883Y171820D01*
X168927Y171811D01*
X169005Y171841D01*
X169116Y171910D01*
X169260Y172017D01*
X169648Y172348D01*
X170820Y173475D01*
X172616Y171679D01*
D02*
G37*
G36*
X89100Y170011D02*
X89010Y170125D01*
X88903Y170202D01*
X88780Y170240D01*
X88641Y170241D01*
X88485Y170204D01*
X88313Y170129D01*
X88125Y170016D01*
X87921Y169866D01*
X87700Y169677D01*
X87462Y169450D01*
X86769Y170913D01*
X87860Y172022D01*
X89100Y170011D01*
D02*
G37*
G36*
X381851Y164726D02*
X381727Y164697D01*
X381358Y164642D01*
X380250Y164564D01*
X379571Y164555D01*
X379436Y164496D01*
X343099D01*
X342967Y164554D01*
X342581Y164562D01*
X342265Y164584D01*
X341986Y164617D01*
X341744Y164661D01*
X341541Y164713D01*
X341376Y164768D01*
X341248Y164824D01*
X341156Y164875D01*
X341093Y164920D01*
X340976Y165025D01*
X340886Y165057D01*
X339170Y166204D01*
X337146Y166606D01*
X337060Y166647D01*
X336903Y166655D01*
X336827Y166668D01*
X336725Y166697D01*
X336596Y166748D01*
X336440Y166825D01*
X336260Y166933D01*
X336076Y167060D01*
X335582Y167470D01*
X335319Y167722D01*
X335185Y167774D01*
X333737Y169222D01*
X332603Y169980D01*
X331265Y170246D01*
X276750D01*
X275412Y169980D01*
X274278Y169222D01*
X274278Y169222D01*
X272203Y167148D01*
X272066Y167093D01*
X270438Y165503D01*
X270427Y165514D01*
X269564Y164701D01*
X269557Y164690D01*
X269536Y164674D01*
X269496Y164600D01*
X269476Y164571D01*
X269260Y164482D01*
X269200Y164336D01*
X269067Y164250D01*
X269041Y164129D01*
X265998Y161085D01*
X265768Y160990D01*
X265697Y160817D01*
X265543Y160710D01*
X265526Y160614D01*
X264736Y159823D01*
X264813Y159746D01*
X263764Y158545D01*
X263291Y158068D01*
X263234Y157928D01*
X261558Y156252D01*
X260800Y155118D01*
X260593Y154076D01*
X260126Y153609D01*
X259986Y153552D01*
X259486Y153056D01*
X258354Y151984D01*
X252135Y158203D01*
X270315Y176383D01*
X381851D01*
Y164726D01*
D02*
G37*
G36*
X334484Y166238D02*
X335078Y165745D01*
X335366Y165545D01*
X335649Y165376D01*
X335926Y165239D01*
X336197Y165132D01*
X336462Y165057D01*
X336721Y165013D01*
X336975Y165000D01*
X333015Y161040D01*
X333002Y161294D01*
X332958Y161553D01*
X332882Y161818D01*
X332776Y162089D01*
X332639Y162366D01*
X332470Y162649D01*
X332270Y162937D01*
X332039Y163231D01*
X331777Y163531D01*
X331484Y163837D01*
X334178Y166531D01*
X334484Y166238D01*
D02*
G37*
G36*
X166128Y164873D02*
X166029Y164666D01*
X165984Y164442D01*
X165993Y164199D01*
X166056Y163939D01*
X166173Y163661D01*
X166343Y163364D01*
X166568Y163050D01*
X166846Y162718D01*
X167179Y162367D01*
X165383Y160571D01*
X165032Y160904D01*
X164700Y161182D01*
X164386Y161407D01*
X164089Y161577D01*
X163811Y161694D01*
X163551Y161757D01*
X163308Y161766D01*
X163084Y161721D01*
X162877Y161622D01*
X162689Y161469D01*
X166281Y165061D01*
X166128Y164873D01*
D02*
G37*
G36*
X275912Y163218D02*
X275404Y162703D01*
X273774Y160830D01*
X273631Y160596D01*
X273548Y160410D01*
X273527Y160270D01*
X273566Y160177D01*
X270427Y163316D01*
X270472Y163324D01*
X270570Y163388D01*
X270719Y163508D01*
X271173Y163916D01*
X273218Y165912D01*
X275912Y163218D01*
D02*
G37*
G36*
X73519Y160959D02*
X73540Y160700D01*
X73576Y160471D01*
X73625Y160273D01*
X73689Y160105D01*
X73767Y159968D01*
X73859Y159862D01*
X73965Y159785D01*
X74085Y159740D01*
X74219Y159725D01*
X71280D01*
X71415Y159740D01*
X71535Y159785D01*
X71641Y159862D01*
X71733Y159968D01*
X71811Y160105D01*
X71875Y160273D01*
X71924Y160471D01*
X71960Y160700D01*
X71981Y160959D01*
X71988Y161248D01*
X73512D01*
X73519Y160959D01*
D02*
G37*
G36*
X78515Y160603D02*
X78542Y160244D01*
X78565Y160098D01*
X78594Y159974D01*
X78631Y159874D01*
X78673Y159795D01*
X78723Y159739D01*
X78779Y159705D01*
X78841Y159694D01*
X76659D01*
X76721Y159705D01*
X76777Y159739D01*
X76827Y159795D01*
X76870Y159874D01*
X76906Y159974D01*
X76935Y160098D01*
X76958Y160244D01*
X76975Y160412D01*
X76988Y160816D01*
X78512D01*
X78515Y160603D01*
D02*
G37*
G36*
X340060Y163630D02*
X340275Y163478D01*
X340515Y163344D01*
X340782Y163227D01*
X341075Y163129D01*
X341394Y163048D01*
X341740Y162986D01*
X342111Y162941D01*
X342509Y162914D01*
X342932Y162905D01*
Y159095D01*
X342509Y159086D01*
X341740Y159015D01*
X341394Y158952D01*
X341075Y158871D01*
X340782Y158773D01*
X340515Y158657D01*
X340275Y158522D01*
X340060Y158370D01*
X339871Y158200D01*
Y163800D01*
X340060Y163630D01*
D02*
G37*
G36*
X383405Y158031D02*
X383367Y158233D01*
X383253Y158414D01*
X383063Y158574D01*
X382796Y158712D01*
X382453Y158829D01*
X382034Y158925D01*
X381539Y158999D01*
X380967Y159052D01*
X379595Y159095D01*
Y162905D01*
X380319Y162916D01*
X381539Y163001D01*
X382034Y163075D01*
X382453Y163171D01*
X382796Y163288D01*
X383063Y163427D01*
X383253Y163586D01*
X383367Y163767D01*
X383405Y163970D01*
Y158031D01*
D02*
G37*
G36*
X270073Y156684D02*
X270004Y156700D01*
X269885Y156657D01*
X269717Y156555D01*
X269500Y156396D01*
X268917Y155901D01*
X267671Y154722D01*
X267157Y154213D01*
X264463Y156907D01*
X264972Y157421D01*
X266907Y159635D01*
X266950Y159754D01*
X266934Y159823D01*
X270073Y156684D01*
D02*
G37*
G36*
X41528Y164523D02*
X41553Y164209D01*
X41595Y163915D01*
X41653Y163640D01*
X41727Y163386D01*
X41819Y163152D01*
X41927Y162938D01*
X42051Y162743D01*
X42192Y162569D01*
X42232Y162530D01*
X42470D01*
X42289Y162505D01*
X42268Y162495D01*
X42350Y162415D01*
X42111D01*
X41985Y162303D01*
X41862Y162126D01*
X41757Y161898D01*
X41672Y161619D01*
X41606Y161291D01*
X41558Y160911D01*
X41529Y160481D01*
X41520Y160000D01*
X41529Y159519D01*
X41606Y158709D01*
X41672Y158380D01*
X41757Y158102D01*
X41862Y157874D01*
X41985Y157697D01*
X42111Y157585D01*
X42350D01*
X42268Y157505D01*
X42289Y157495D01*
X42470Y157470D01*
X42232D01*
X42192Y157431D01*
X42051Y157257D01*
X41927Y157062D01*
X41819Y156848D01*
X41727Y156614D01*
X41653Y156360D01*
X41595Y156085D01*
X41553Y155791D01*
X41528Y155477D01*
X41520Y155143D01*
X38980D01*
X38972Y155477D01*
X38947Y155791D01*
X38905Y156085D01*
X38847Y156360D01*
X38772Y156614D01*
X38681Y156848D01*
X38573Y157062D01*
X38449Y157257D01*
X38308Y157431D01*
X38268Y157470D01*
X38031D01*
X38211Y157495D01*
X38232Y157505D01*
X38150Y157585D01*
X38389D01*
X38515Y157697D01*
X38638Y157874D01*
X38743Y158102D01*
X38828Y158380D01*
X38895Y158709D01*
X38942Y159089D01*
X38970Y159519D01*
X38980Y160000D01*
X38970Y160481D01*
X38895Y161291D01*
X38828Y161619D01*
X38743Y161898D01*
X38638Y162126D01*
X38515Y162303D01*
X38389Y162415D01*
X38150D01*
X38232Y162495D01*
X38211Y162505D01*
X38031Y162530D01*
X38268D01*
X38308Y162569D01*
X38449Y162743D01*
X38573Y162938D01*
X38681Y163152D01*
X38772Y163386D01*
X38847Y163640D01*
X38905Y163915D01*
X38947Y164209D01*
X38972Y164523D01*
X38980Y164857D01*
X41520D01*
X41528Y164523D01*
D02*
G37*
G36*
X171719Y157845D02*
X172051Y157567D01*
X172365Y157343D01*
X172661Y157172D01*
X172940Y157055D01*
X173200Y156992D01*
X173443Y156983D01*
X173667Y157028D01*
X173874Y157127D01*
X174062Y157280D01*
X170470Y153688D01*
X170623Y153876D01*
X170722Y154083D01*
X170767Y154307D01*
X170758Y154550D01*
X170695Y154810D01*
X170578Y155089D01*
X170407Y155385D01*
X170183Y155699D01*
X169904Y156032D01*
X169572Y156382D01*
X171368Y158178D01*
X171719Y157845D01*
D02*
G37*
G36*
X309581Y152176D02*
X309468Y152268D01*
X309344Y152327D01*
X309210Y152354D01*
X309064Y152349D01*
X308908Y152311D01*
X308741Y152241D01*
X308563Y152138D01*
X308375Y152004D01*
X308175Y151837D01*
X307965Y151637D01*
X306887Y152715D01*
X307087Y152925D01*
X307254Y153125D01*
X307388Y153313D01*
X307491Y153491D01*
X307561Y153658D01*
X307599Y153814D01*
X307604Y153960D01*
X307577Y154094D01*
X307518Y154218D01*
X307426Y154331D01*
X309581Y152176D01*
D02*
G37*
G36*
X276674Y150127D02*
X276561Y150218D01*
X276436Y150277D01*
X276300Y150302D01*
X276153Y150296D01*
X275995Y150256D01*
X275826Y150183D01*
X275645Y150078D01*
X275453Y149940D01*
X275250Y149770D01*
X275036Y149566D01*
X273958Y150644D01*
X274162Y150858D01*
X274333Y151061D01*
X274471Y151253D01*
X274576Y151434D01*
X274648Y151603D01*
X274688Y151761D01*
X274695Y151908D01*
X274669Y152044D01*
X274610Y152169D01*
X274519Y152282D01*
X276674Y150127D01*
D02*
G37*
G36*
X32289Y152505D02*
X32128Y152429D01*
X31985Y152302D01*
X31862Y152124D01*
X31757Y151896D01*
X31672Y151616D01*
X31605Y151286D01*
X31558Y150905D01*
X31530Y150473D01*
X31520Y149991D01*
X28980D01*
X28970Y150473D01*
X28895Y151286D01*
X28828Y151616D01*
X28743Y151896D01*
X28638Y152124D01*
X28515Y152302D01*
X28372Y152429D01*
X28211Y152505D01*
X28031Y152530D01*
X32469D01*
X32289Y152505D01*
D02*
G37*
G36*
X263841Y149686D02*
X263332Y149172D01*
X261397Y146957D01*
X261355Y146839D01*
X261370Y146770D01*
X258231Y149908D01*
X258300Y149893D01*
X258419Y149936D01*
X258587Y150037D01*
X258804Y150197D01*
X259388Y150691D01*
X260633Y151870D01*
X261147Y152380D01*
X263841Y149686D01*
D02*
G37*
G36*
X84182Y145010D02*
X84148Y144934D01*
X84118Y144807D01*
X84092Y144629D01*
X84052Y144121D01*
X84039Y143446D01*
X84059Y143236D01*
X84107Y142945D01*
X84175Y142668D01*
X84263Y142404D01*
X84369Y142153D01*
X84495Y141916D01*
X84641Y141692D01*
X84806Y141482D01*
X84990Y141285D01*
X80510D01*
X80694Y141482D01*
X80859Y141692D01*
X81005Y141916D01*
X81131Y142153D01*
X81237Y142404D01*
X81325Y142668D01*
X81393Y142945D01*
X81441Y143236D01*
X81453Y143362D01*
X81352Y144934D01*
X81318Y145010D01*
X81280Y145035D01*
X84220D01*
X84182Y145010D01*
D02*
G37*
G36*
X270609Y139685D02*
X270406Y139471D01*
X270235Y139268D01*
X270097Y139076D01*
X269992Y138896D01*
X269920Y138726D01*
X269880Y138568D01*
X269873Y138421D01*
X269899Y138285D01*
X269958Y138161D01*
X270049Y138047D01*
X267894Y140203D01*
X268007Y140111D01*
X268132Y140053D01*
X268267Y140027D01*
X268414Y140034D01*
X268573Y140073D01*
X268742Y140146D01*
X268923Y140251D01*
X269114Y140389D01*
X269317Y140560D01*
X269532Y140763D01*
X270609Y139685D01*
D02*
G37*
G36*
X244089Y138681D02*
X243943Y138791D01*
X243775Y138851D01*
X243585Y138862D01*
X243372Y138823D01*
X243136Y138736D01*
X242878Y138598D01*
X242598Y138412D01*
X242295Y138176D01*
X241969Y137891D01*
X241621Y137556D01*
X239825Y139352D01*
X240160Y139700D01*
X240681Y140329D01*
X240867Y140609D01*
X241005Y140867D01*
X241092Y141103D01*
X241131Y141316D01*
X241120Y141506D01*
X241060Y141674D01*
X240950Y141820D01*
X244089Y138681D01*
D02*
G37*
G36*
X64182Y145010D02*
X64148Y144934D01*
X64118Y144807D01*
X64092Y144629D01*
X64052Y144121D01*
X64037Y143349D01*
X64038Y143315D01*
X64092Y142830D01*
X64182Y142359D01*
X64307Y141903D01*
X64469Y141462D01*
X64667Y141036D01*
X64900Y140625D01*
X65170Y140228D01*
X65475Y139847D01*
X65816Y139480D01*
X64546Y137158D01*
X64187Y137481D01*
X63828Y137733D01*
X63468Y137912D01*
X63109Y138020D01*
X62750Y138056D01*
X62391Y138020D01*
X62032Y137912D01*
X61672Y137733D01*
X61313Y137481D01*
X60954Y137158D01*
X59684Y139480D01*
X60025Y139847D01*
X60331Y140228D01*
X60600Y140625D01*
X60833Y141036D01*
X61031Y141462D01*
X61193Y141903D01*
X61318Y142359D01*
X61408Y142830D01*
X61458Y143283D01*
X61352Y144934D01*
X61318Y145010D01*
X61280Y145035D01*
X64219D01*
X64182Y145010D01*
D02*
G37*
G36*
X23625Y139551D02*
X23585Y139413D01*
X23588Y139253D01*
X23634Y139071D01*
X23723Y138866D01*
X23856Y138639D01*
X24031Y138391D01*
X24250Y138120D01*
X24816Y137512D01*
X23739Y136434D01*
X23423Y136739D01*
X22859Y137219D01*
X22610Y137394D01*
X22384Y137527D01*
X22179Y137616D01*
X21997Y137662D01*
X21837Y137665D01*
X21699Y137625D01*
X21583Y137542D01*
X23708Y139667D01*
X23625Y139551D01*
D02*
G37*
G36*
X125286Y136031D02*
X125260Y136068D01*
X125184Y136102D01*
X125057Y136132D01*
X124879Y136158D01*
X124371Y136198D01*
X122746Y136230D01*
Y138770D01*
X123228Y138772D01*
X125184Y138898D01*
X125260Y138932D01*
X125286Y138969D01*
Y136031D01*
D02*
G37*
G36*
X55240Y138932D02*
X55316Y138898D01*
X55443Y138868D01*
X55621Y138842D01*
X56129Y138802D01*
X57755Y138770D01*
Y136230D01*
X57272Y136228D01*
X55316Y136102D01*
X55240Y136068D01*
X55215Y136031D01*
Y138969D01*
X55240Y138932D01*
D02*
G37*
G36*
X40525Y136031D02*
X40500Y136068D01*
X40424Y136102D01*
X40297Y136132D01*
X40119Y136158D01*
X39611Y136198D01*
X37985Y136230D01*
Y138770D01*
X38468Y138772D01*
X40424Y138898D01*
X40500Y138932D01*
X40525Y138969D01*
Y136031D01*
D02*
G37*
G36*
X308480Y132967D02*
X308457Y133108D01*
X308388Y133234D01*
X308272Y133345D01*
X308111Y133441D01*
X307903Y133523D01*
X307649Y133589D01*
X307349Y133641D01*
X307003Y133678D01*
X306172Y133708D01*
Y135232D01*
X306611Y135239D01*
X307349Y135298D01*
X307649Y135350D01*
X307903Y135417D01*
X308111Y135498D01*
X308272Y135595D01*
X308388Y135706D01*
X308457Y135831D01*
X308480Y135972D01*
Y132967D01*
D02*
G37*
G36*
X298613Y132285D02*
X298413Y132075D01*
X298246Y131875D01*
X298112Y131687D01*
X298009Y131509D01*
X297939Y131342D01*
X297901Y131186D01*
X297896Y131040D01*
X297923Y130906D01*
X297982Y130782D01*
X298074Y130669D01*
X295919Y132824D01*
X296032Y132732D01*
X296156Y132673D01*
X296290Y132646D01*
X296436Y132651D01*
X296592Y132689D01*
X296759Y132759D01*
X296937Y132862D01*
X297125Y132996D01*
X297325Y133163D01*
X297535Y133363D01*
X298613Y132285D01*
D02*
G37*
G36*
X140000Y133955D02*
X140076Y133943D01*
X140203Y133932D01*
X141219Y133902D01*
X142514Y133895D01*
Y131355D01*
X142032Y131352D01*
X140381Y131238D01*
X140203Y131196D01*
X140076Y131147D01*
X140000Y131092D01*
X139974Y131031D01*
Y133969D01*
X140000Y133955D01*
D02*
G37*
G36*
X146054Y130422D02*
X145850Y130600D01*
X145633Y130758D01*
X145405Y130898D01*
X145163Y131019D01*
X144909Y131122D01*
X144642Y131206D01*
X144363Y131271D01*
X144071Y131318D01*
X143767Y131346D01*
X143450Y131355D01*
X143342Y133895D01*
X143660Y133905D01*
X143964Y133935D01*
X144254Y133985D01*
X144529Y134056D01*
X144790Y134146D01*
X145036Y134256D01*
X145268Y134387D01*
X145486Y134538D01*
X145690Y134708D01*
X145879Y134899D01*
X146054Y130422D01*
D02*
G37*
G36*
X294944Y126856D02*
X294831Y126948D01*
X294706Y127006D01*
X294571Y127032D01*
X294424Y127025D01*
X294265Y126986D01*
X294096Y126913D01*
X293916Y126808D01*
X293724Y126670D01*
X293521Y126499D01*
X293306Y126296D01*
X292229Y127374D01*
X292432Y127588D01*
X292603Y127791D01*
X292741Y127983D01*
X292846Y128163D01*
X292918Y128333D01*
X292958Y128491D01*
X292965Y128638D01*
X292939Y128774D01*
X292880Y128898D01*
X292789Y129011D01*
X294944Y126856D01*
D02*
G37*
G36*
X283311Y126983D02*
X283109Y126771D01*
X282939Y126569D01*
X282802Y126377D01*
X282698Y126197D01*
X282625Y126028D01*
X282585Y125870D01*
X282578Y125722D01*
X282603Y125586D01*
X282661Y125460D01*
X282751Y125345D01*
X281212Y126927D01*
X281212Y126949D01*
X281235Y126991D01*
X281280Y127053D01*
X281348Y127136D01*
X281689Y127507D01*
X282234Y128061D01*
X283311Y126983D01*
D02*
G37*
G36*
X111777Y128731D02*
X111531Y128463D01*
X111310Y128178D01*
X111117Y127876D01*
X110949Y127557D01*
X110808Y127221D01*
X110694Y126869D01*
X110606Y126500D01*
X110544Y126113D01*
X110509Y125710D01*
X110500Y125290D01*
X106540Y129250D01*
X106960Y129259D01*
X107363Y129294D01*
X107750Y129356D01*
X108119Y129444D01*
X108471Y129558D01*
X108807Y129699D01*
X109126Y129867D01*
X109428Y130060D01*
X109713Y130281D01*
X109981Y130527D01*
X111777Y128731D01*
D02*
G37*
G36*
X103643Y122450D02*
X103340Y122741D01*
X103030Y123001D01*
X102713Y123230D01*
X102390Y123429D01*
X102059Y123597D01*
X101722Y123735D01*
X101379Y123842D01*
X101028Y123919D01*
X100671Y123965D01*
X100307Y123980D01*
Y126520D01*
X100671Y126535D01*
X101028Y126581D01*
X101379Y126658D01*
X101722Y126765D01*
X102059Y126903D01*
X102390Y127071D01*
X102713Y127270D01*
X103030Y127499D01*
X103340Y127759D01*
X103643Y128050D01*
Y122450D01*
D02*
G37*
G36*
X288653Y121642D02*
X288449Y121428D01*
X288278Y121225D01*
X288141Y121033D01*
X288035Y120852D01*
X287963Y120683D01*
X287923Y120525D01*
X287916Y120378D01*
X287942Y120242D01*
X288001Y120117D01*
X288092Y120004D01*
X285937Y122159D01*
X286050Y122068D01*
X286175Y122009D01*
X286311Y121983D01*
X286458Y121990D01*
X286616Y122030D01*
X286785Y122102D01*
X286966Y122208D01*
X287158Y122346D01*
X287361Y122516D01*
X287575Y122720D01*
X288653Y121642D01*
D02*
G37*
G36*
X119009Y124661D02*
X119016Y124347D01*
X119071Y123747D01*
X119120Y123462D01*
X119183Y123187D01*
X119260Y122921D01*
X119351Y122665D01*
X119455Y122419D01*
X119574Y122183D01*
X119707Y121957D01*
X115348Y122991D01*
X115561Y123135D01*
X115751Y123300D01*
X115919Y123484D01*
X116065Y123688D01*
X116188Y123912D01*
X116289Y124155D01*
X116368Y124418D01*
X116424Y124701D01*
X116457Y125003D01*
X116469Y125326D01*
X119009Y124661D01*
D02*
G37*
G36*
X229037Y124972D02*
X228790Y124703D01*
X228570Y124418D01*
X228376Y124116D01*
X228209Y123798D01*
X228068Y123462D01*
X227953Y123109D01*
X227865Y122740D01*
X227804Y122354D01*
X227768Y121951D01*
X227759Y121531D01*
X223799Y125490D01*
X224219Y125499D01*
X224623Y125534D01*
X225009Y125596D01*
X225378Y125684D01*
X225731Y125799D01*
X226067Y125940D01*
X226385Y126107D01*
X226687Y126301D01*
X226972Y126521D01*
X227241Y126768D01*
X229037Y124972D01*
D02*
G37*
G36*
X330210Y121750D02*
X329956Y121737D01*
X329697Y121693D01*
X329432Y121618D01*
X329161Y121511D01*
X328884Y121374D01*
X328601Y121205D01*
X328313Y121005D01*
X328019Y120774D01*
X327719Y120512D01*
X327413Y120219D01*
X324719Y122913D01*
X325012Y123219D01*
X325505Y123813D01*
X325705Y124101D01*
X325874Y124384D01*
X326011Y124661D01*
X326118Y124932D01*
X326193Y125197D01*
X326237Y125456D01*
X326250Y125710D01*
X330210Y121750D01*
D02*
G37*
G36*
X302144Y119613D02*
X301999Y119723D01*
X301831Y119783D01*
X301640Y119794D01*
X301427Y119756D01*
X301192Y119668D01*
X300934Y119531D01*
X300653Y119344D01*
X300350Y119108D01*
X300025Y118823D01*
X299677Y118489D01*
X297881Y120285D01*
X298215Y120633D01*
X298736Y121261D01*
X298923Y121542D01*
X299060Y121800D01*
X299148Y122035D01*
X299186Y122248D01*
X299175Y122439D01*
X299115Y122607D01*
X299005Y122752D01*
X302144Y119613D01*
D02*
G37*
G36*
X194986Y122968D02*
Y121149D01*
X192518Y118681D01*
X191248Y118681D01*
X185045Y124883D01*
X174404Y114242D01*
X174093Y114450D01*
X172250Y114817D01*
X170407Y114450D01*
X168984Y113499D01*
X168837Y113444D01*
X168693Y113309D01*
X168597Y113234D01*
X168495Y113168D01*
X168385Y113109D01*
X168263Y113057D01*
X168127Y113012D01*
X167973Y112974D01*
X167800Y112945D01*
X167606Y112927D01*
X167342Y112919D01*
X167187Y112849D01*
X157000D01*
X157000Y112849D01*
X155910Y112632D01*
X154986Y112014D01*
X154986Y112014D01*
X143486Y100514D01*
X142868Y99590D01*
X142799Y99243D01*
X141529Y99368D01*
Y104476D01*
Y116145D01*
X168476D01*
X169368Y116323D01*
X170124Y116828D01*
X180715Y127419D01*
X190535D01*
X194986Y122968D01*
D02*
G37*
G36*
X295221Y116510D02*
X294881Y116168D01*
X293539Y114637D01*
X293543Y114596D01*
X290710Y117387D01*
X290900Y117235D01*
X291108Y117138D01*
X291334Y117095D01*
X291579Y117106D01*
X291841Y117171D01*
X292122Y117290D01*
X292420Y117463D01*
X292737Y117690D01*
X293072Y117971D01*
X293425Y118306D01*
X295221Y116510D01*
D02*
G37*
G36*
X223720Y117491D02*
X223300Y117482D01*
X222896Y117446D01*
X222510Y117385D01*
X222141Y117297D01*
X221788Y117182D01*
X221452Y117041D01*
X221134Y116874D01*
X220832Y116680D01*
X220547Y116460D01*
X220278Y116213D01*
X218482Y118009D01*
X218729Y118278D01*
X218949Y118563D01*
X219143Y118865D01*
X219310Y119183D01*
X219451Y119519D01*
X219566Y119872D01*
X219654Y120241D01*
X219715Y120627D01*
X219751Y121031D01*
X219760Y121451D01*
X223720Y117491D01*
D02*
G37*
G36*
X40525Y116031D02*
X40510Y116165D01*
X40465Y116285D01*
X40388Y116391D01*
X40282Y116483D01*
X40145Y116561D01*
X39977Y116625D01*
X39779Y116674D01*
X39550Y116710D01*
X39291Y116731D01*
X39002Y116738D01*
Y118262D01*
X39291Y118269D01*
X39550Y118290D01*
X39779Y118326D01*
X39977Y118375D01*
X40145Y118439D01*
X40282Y118517D01*
X40388Y118609D01*
X40465Y118715D01*
X40510Y118835D01*
X40525Y118969D01*
Y116031D01*
D02*
G37*
G36*
X23558Y116866D02*
X23609Y116739D01*
X23695Y116627D01*
X23816Y116530D01*
X23971Y116448D01*
X24160Y116381D01*
X24384Y116329D01*
X24643Y116292D01*
X24935Y116269D01*
X25262Y116262D01*
Y114738D01*
X24935Y114731D01*
X24643Y114708D01*
X24384Y114671D01*
X24160Y114619D01*
X23971Y114552D01*
X23816Y114470D01*
X23695Y114373D01*
X23609Y114261D01*
X23558Y114135D01*
X23541Y113993D01*
Y117007D01*
X23558Y116866D01*
D02*
G37*
G36*
X40525Y111031D02*
X40510Y111165D01*
X40465Y111285D01*
X40388Y111391D01*
X40282Y111483D01*
X40145Y111561D01*
X39977Y111625D01*
X39779Y111674D01*
X39550Y111710D01*
X39291Y111731D01*
X39002Y111738D01*
Y113262D01*
X39291Y113269D01*
X39550Y113290D01*
X39779Y113326D01*
X39977Y113375D01*
X40145Y113439D01*
X40282Y113517D01*
X40388Y113609D01*
X40465Y113715D01*
X40510Y113835D01*
X40525Y113969D01*
Y111031D01*
D02*
G37*
G36*
X169965Y107760D02*
X169768Y107944D01*
X169558Y108109D01*
X169334Y108255D01*
X169097Y108381D01*
X168846Y108488D01*
X168582Y108575D01*
X168305Y108643D01*
X168014Y108691D01*
X167710Y108720D01*
X167393Y108730D01*
Y111270D01*
X167710Y111280D01*
X168014Y111309D01*
X168305Y111357D01*
X168582Y111425D01*
X168846Y111512D01*
X169097Y111619D01*
X169334Y111745D01*
X169558Y111891D01*
X169768Y112056D01*
X169965Y112240D01*
Y107760D01*
D02*
G37*
G36*
X40525Y106031D02*
X40510Y106165D01*
X40465Y106285D01*
X40388Y106391D01*
X40282Y106483D01*
X40145Y106561D01*
X39977Y106625D01*
X39779Y106674D01*
X39550Y106710D01*
X39291Y106731D01*
X39002Y106738D01*
Y108262D01*
X39291Y108269D01*
X39550Y108290D01*
X39779Y108326D01*
X39977Y108375D01*
X40145Y108439D01*
X40282Y108517D01*
X40388Y108609D01*
X40465Y108715D01*
X40510Y108835D01*
X40525Y108969D01*
Y106031D01*
D02*
G37*
G36*
X207694Y103629D02*
X207359Y103281D01*
X206838Y102652D01*
X206652Y102372D01*
X206514Y102114D01*
X206427Y101878D01*
X206388Y101665D01*
X206399Y101475D01*
X206459Y101307D01*
X206569Y101161D01*
X203430Y104300D01*
X203576Y104190D01*
X203744Y104130D01*
X203934Y104119D01*
X204147Y104158D01*
X204383Y104246D01*
X204641Y104383D01*
X204921Y104569D01*
X205224Y104805D01*
X205550Y105090D01*
X205898Y105425D01*
X207694Y103629D01*
D02*
G37*
G36*
X280858Y101911D02*
X280713Y102021D01*
X280545Y102081D01*
X280354Y102092D01*
X280141Y102054D01*
X279906Y101966D01*
X279648Y101829D01*
X279367Y101642D01*
X279064Y101406D01*
X278739Y101121D01*
X278391Y100787D01*
X276595Y102583D01*
X276929Y102931D01*
X277450Y103559D01*
X277637Y103840D01*
X277774Y104098D01*
X277862Y104333D01*
X277900Y104546D01*
X277889Y104737D01*
X277829Y104905D01*
X277719Y105050D01*
X280858Y101911D01*
D02*
G37*
G36*
X161882Y101362D02*
X161964Y101236D01*
X162088Y101125D01*
X162254Y101029D01*
X162464Y100947D01*
X162716Y100880D01*
X163011Y100829D01*
X163348Y100792D01*
X164151Y100762D01*
X164504Y99238D01*
X164050Y99231D01*
X163291Y99171D01*
X162986Y99120D01*
X162730Y99053D01*
X162524Y98971D01*
X162368Y98875D01*
X162261Y98764D01*
X162204Y98638D01*
X162197Y98498D01*
X161843Y101502D01*
X161882Y101362D01*
D02*
G37*
G36*
X25455Y101379D02*
X25501Y101250D01*
X25579Y101135D01*
X25688Y101036D01*
X25828Y100953D01*
X25999Y100884D01*
X26201Y100831D01*
X26434Y100793D01*
X26698Y100770D01*
X26994Y100762D01*
Y99238D01*
X26698Y99230D01*
X26434Y99207D01*
X26201Y99169D01*
X25999Y99116D01*
X25828Y99047D01*
X25688Y98964D01*
X25579Y98865D01*
X25501Y98750D01*
X25455Y98621D01*
X25439Y98476D01*
Y101524D01*
X25455Y101379D01*
D02*
G37*
G36*
X167342Y107081D02*
X167606Y107073D01*
X167800Y107055D01*
X167973Y107026D01*
X168127Y106988D01*
X168263Y106943D01*
X168385Y106891D01*
X168495Y106832D01*
X168597Y106766D01*
X168693Y106691D01*
X168837Y106556D01*
X168984Y106501D01*
X170407Y105550D01*
X172250Y105183D01*
X173500Y105432D01*
X174758Y105404D01*
X180096Y100067D01*
X183811Y96351D01*
X183732Y95840D01*
X183285Y95081D01*
X181215D01*
X174648Y101648D01*
X173892Y102153D01*
X173000Y102331D01*
X164386D01*
X164212Y102410D01*
X163468Y102438D01*
X163244Y102463D01*
X163099Y102488D01*
X162961Y102626D01*
X162865Y102797D01*
X162760Y102827D01*
X162684Y102903D01*
X162658Y102937D01*
X162649Y102938D01*
X160073Y105514D01*
X154736Y100177D01*
X160427Y94486D01*
X163164Y97223D01*
X163300Y97271D01*
X163363Y97404D01*
X163492Y97475D01*
X163508Y97534D01*
X164128Y97582D01*
X164531Y97589D01*
X164698Y97661D01*
X164877Y97631D01*
X164931Y97669D01*
X168626D01*
X169112Y96496D01*
X167292Y94676D01*
X166862Y94388D01*
X166574Y93958D01*
X165842Y93225D01*
X172234Y86833D01*
X170438Y85037D01*
X164046Y91429D01*
X158905Y86289D01*
X159053Y86140D01*
X158725Y84672D01*
X149522Y75469D01*
X148349Y75955D01*
Y84510D01*
X149619Y85189D01*
X150510Y84593D01*
X151480Y84400D01*
Y90000D01*
X152750D01*
Y91270D01*
X158648D01*
X160130Y92752D01*
X157464Y95418D01*
X154077Y92031D01*
X152281Y93827D01*
X155668Y97214D01*
X153002Y99880D01*
X150441Y97319D01*
X149063Y97737D01*
X149014Y97985D01*
X158180Y107151D01*
X167187D01*
X167342Y107081D01*
D02*
G37*
G36*
X247944Y132627D02*
X253281Y127290D01*
X261733Y118839D01*
X267070Y113502D01*
X276020Y104551D01*
X275557Y103883D01*
X275406Y103726D01*
X275351Y103587D01*
X275317Y103537D01*
X266590Y94810D01*
X246604D01*
X246455Y94880D01*
X246162Y94892D01*
X245946Y94920D01*
X245736Y94966D01*
X245529Y95030D01*
X245321Y95115D01*
X245111Y95222D01*
X244897Y95354D01*
X244678Y95513D01*
X244455Y95700D01*
X244191Y95953D01*
X244124Y95979D01*
X242348Y97165D01*
X240193Y97594D01*
X238037Y97165D01*
X236210Y95944D01*
X234989Y94117D01*
X234573Y92022D01*
X234544Y91957D01*
X234536Y91591D01*
X234510Y91301D01*
X234468Y91034D01*
X234410Y90790D01*
X234337Y90565D01*
X234250Y90359D01*
X234149Y90166D01*
X234033Y89985D01*
X233900Y89813D01*
X233701Y89597D01*
X233645Y89442D01*
X227899Y83697D01*
X227735Y83633D01*
X227415Y83325D01*
X227154Y83096D01*
X226973Y82955D01*
X221815Y88114D01*
X217219Y92710D01*
X208268Y101660D01*
X208732Y102328D01*
X208883Y102485D01*
X208937Y102624D01*
X208972Y102674D01*
X221240Y114942D01*
X221395Y114999D01*
X221611Y115198D01*
X221783Y115330D01*
X221964Y115447D01*
X222157Y115548D01*
X222363Y115634D01*
X222588Y115707D01*
X222832Y115766D01*
X223099Y115808D01*
X223389Y115834D01*
X223755Y115842D01*
X223820Y115870D01*
X225915Y116287D01*
X227742Y117508D01*
X228963Y119335D01*
X229380Y121430D01*
X229408Y121496D01*
X229416Y121861D01*
X229442Y122151D01*
X229484Y122418D01*
X229543Y122662D01*
X229616Y122887D01*
X229702Y123094D01*
X229803Y123286D01*
X229919Y123467D01*
X230053Y123639D01*
X230251Y123855D01*
X230308Y124010D01*
X242575Y136277D01*
X242627Y136313D01*
X242765Y136367D01*
X242921Y136517D01*
X243590Y136982D01*
X247944Y132627D01*
D02*
G37*
G36*
X188818Y93586D02*
X188704Y93677D01*
X188580Y93736D01*
X188444Y93762D01*
X188297Y93755D01*
X188139Y93715D01*
X187969Y93643D01*
X187789Y93538D01*
X187597Y93400D01*
X187394Y93229D01*
X187180Y93026D01*
X186102Y94103D01*
X186306Y94317D01*
X186476Y94521D01*
X186614Y94712D01*
X186719Y94893D01*
X186792Y95062D01*
X186831Y95220D01*
X186838Y95367D01*
X186812Y95503D01*
X186754Y95628D01*
X186663Y95741D01*
X188818Y93586D01*
D02*
G37*
G36*
X243353Y94471D02*
X243663Y94211D01*
X243979Y93981D01*
X244303Y93783D01*
X244633Y93614D01*
X244970Y93476D01*
X245314Y93369D01*
X245665Y93293D01*
X246022Y93247D01*
X246386Y93232D01*
Y90692D01*
X246022Y90676D01*
X245665Y90631D01*
X245314Y90554D01*
X244970Y90447D01*
X244633Y90309D01*
X244303Y90141D01*
X243979Y89942D01*
X243663Y89712D01*
X243353Y89452D01*
X243049Y89162D01*
Y94762D01*
X243353Y94471D01*
D02*
G37*
G36*
X240153Y87962D02*
X239733Y87953D01*
X239329Y87918D01*
X238943Y87856D01*
X238574Y87768D01*
X238221Y87653D01*
X237886Y87512D01*
X237567Y87345D01*
X237265Y87151D01*
X236980Y86931D01*
X236712Y86685D01*
X234916Y88481D01*
X235162Y88749D01*
X235382Y89034D01*
X235576Y89336D01*
X235743Y89655D01*
X235884Y89990D01*
X235999Y90343D01*
X236087Y90712D01*
X236149Y91098D01*
X236184Y91502D01*
X236193Y91922D01*
X240153Y87962D01*
D02*
G37*
G36*
X198480Y83880D02*
X198335Y83990D01*
X198167Y84050D01*
X197976Y84061D01*
X197763Y84023D01*
X197528Y83935D01*
X197270Y83798D01*
X196989Y83611D01*
X196686Y83375D01*
X196361Y83090D01*
X196013Y82756D01*
X194217Y84552D01*
X194552Y84900D01*
X195072Y85528D01*
X195259Y85808D01*
X195396Y86067D01*
X195484Y86302D01*
X195522Y86515D01*
X195511Y86706D01*
X195451Y86874D01*
X195342Y87019D01*
X198480Y83880D01*
D02*
G37*
G36*
X445267Y81176D02*
X445252Y81321D01*
X445205Y81450D01*
X445128Y81565D01*
X445019Y81664D01*
X444879Y81748D01*
X444708Y81816D01*
X444506Y81869D01*
X444273Y81908D01*
X444008Y81930D01*
X443713Y81938D01*
Y83462D01*
X444008Y83470D01*
X444273Y83492D01*
X444506Y83531D01*
X444708Y83584D01*
X444879Y83652D01*
X445019Y83736D01*
X445128Y83835D01*
X445205Y83950D01*
X445252Y84079D01*
X445267Y84224D01*
Y81176D01*
D02*
G37*
G36*
X230675Y80648D02*
X230340Y80300D01*
X229819Y79671D01*
X229633Y79391D01*
X229496Y79133D01*
X229408Y78897D01*
X229369Y78684D01*
X229380Y78494D01*
X229440Y78326D01*
X229550Y78180D01*
X226411Y81319D01*
X226557Y81209D01*
X226725Y81149D01*
X226915Y81138D01*
X227128Y81177D01*
X227364Y81264D01*
X227622Y81402D01*
X227902Y81588D01*
X228205Y81824D01*
X228531Y82109D01*
X228879Y82444D01*
X230675Y80648D01*
D02*
G37*
G36*
X203077Y79284D02*
X202931Y79394D01*
X202763Y79454D01*
X202573Y79465D01*
X202360Y79426D01*
X202124Y79338D01*
X201866Y79201D01*
X201586Y79015D01*
X201283Y78779D01*
X200957Y78494D01*
X200609Y78159D01*
X198813Y79955D01*
X199148Y80303D01*
X199669Y80932D01*
X199855Y81212D01*
X199992Y81470D01*
X200080Y81706D01*
X200119Y81919D01*
X200108Y82109D01*
X200047Y82277D01*
X199938Y82423D01*
X203077Y79284D01*
D02*
G37*
G36*
X195877Y73428D02*
X195545Y73077D01*
X195267Y72745D01*
X195042Y72431D01*
X194872Y72134D01*
X194755Y71856D01*
X194692Y71595D01*
X194684Y71353D01*
X194729Y71128D01*
X194828Y70921D01*
X194981Y70732D01*
X191387Y74326D01*
X191576Y74173D01*
X191782Y74074D01*
X192007Y74029D01*
X192249Y74038D01*
X192510Y74101D01*
X192788Y74218D01*
X193085Y74388D01*
X193399Y74613D01*
X193731Y74891D01*
X194081Y75224D01*
X195877Y73428D01*
D02*
G37*
G36*
X165609Y75859D02*
X165723Y75644D01*
X165914Y75453D01*
X166180Y75288D01*
X166523Y75148D01*
X166942Y75034D01*
X167438Y74945D01*
X168009Y74882D01*
X169381Y74831D01*
Y72291D01*
X168657Y72278D01*
X167438Y72176D01*
X166942Y72087D01*
X166523Y71973D01*
X166180Y71834D01*
X165914Y71668D01*
X165723Y71478D01*
X165609Y71262D01*
X165571Y71021D01*
Y76101D01*
X165609Y75859D01*
D02*
G37*
G36*
X445267Y68476D02*
X445252Y68621D01*
X445205Y68750D01*
X445128Y68865D01*
X445019Y68964D01*
X444879Y69047D01*
X444708Y69116D01*
X444506Y69169D01*
X444273Y69208D01*
X444008Y69230D01*
X443713Y69238D01*
Y70762D01*
X444008Y70770D01*
X444273Y70792D01*
X444506Y70831D01*
X444708Y70884D01*
X444879Y70953D01*
X445019Y71036D01*
X445128Y71135D01*
X445205Y71250D01*
X445252Y71379D01*
X445267Y71524D01*
Y68476D01*
D02*
G37*
G36*
X159669Y65118D02*
X159655Y65097D01*
X159604Y65039D01*
X158808Y64219D01*
X157894Y63301D01*
X156098Y65097D01*
X156433Y65450D01*
X156714Y65785D01*
X156941Y66102D01*
X157114Y66400D01*
X157233Y66681D01*
X157298Y66943D01*
X157309Y67188D01*
X157266Y67414D01*
X157169Y67622D01*
X157018Y67813D01*
X159669Y65118D01*
D02*
G37*
G36*
X189038Y64794D02*
X188941Y64586D01*
X188898Y64359D01*
X188909Y64115D01*
X188974Y63853D01*
X189093Y63572D01*
X189266Y63273D01*
X189493Y62956D01*
X189774Y62621D01*
X190109Y62269D01*
X188313Y60472D01*
X186539Y62290D01*
X189189Y64984D01*
X189038Y64794D01*
D02*
G37*
G36*
X192220Y58316D02*
X190272Y56324D01*
X190297Y56373D01*
X190296Y56440D01*
X190270Y56525D01*
X190217Y56629D01*
X190138Y56751D01*
X190033Y56891D01*
X189745Y57226D01*
X189352Y57634D01*
X191148Y59430D01*
X192220Y58316D01*
D02*
G37*
G36*
X157063Y58862D02*
X157165Y57643D01*
X157254Y57147D01*
X157368Y56728D01*
X157507Y56385D01*
X157673Y56119D01*
X157863Y55928D01*
X158079Y55814D01*
X158320Y55776D01*
X153240D01*
X153482Y55814D01*
X153698Y55928D01*
X153888Y56119D01*
X154053Y56385D01*
X154193Y56728D01*
X154307Y57147D01*
X154396Y57643D01*
X154459Y58214D01*
X154510Y59586D01*
X157050D01*
X157063Y58862D01*
D02*
G37*
G36*
X230184Y52220D02*
X230070Y52312D01*
X229946Y52370D01*
X229810Y52396D01*
X229663Y52389D01*
X229505Y52350D01*
X229335Y52277D01*
X229155Y52172D01*
X228963Y52034D01*
X228760Y51863D01*
X228546Y51660D01*
X227468Y52737D01*
X227671Y52952D01*
X227842Y53155D01*
X227980Y53347D01*
X228085Y53527D01*
X228158Y53696D01*
X228197Y53855D01*
X228204Y54002D01*
X228178Y54138D01*
X228120Y54262D01*
X228028Y54375D01*
X230184Y52220D01*
D02*
G37*
G36*
X94129Y47515D02*
X94000Y47470D01*
X93885Y47393D01*
X93786Y47287D01*
X93702Y47150D01*
X93634Y46982D01*
X93581Y46784D01*
X93542Y46555D01*
X93520Y46296D01*
X93512Y46006D01*
X91988D01*
X91980Y46296D01*
X91958Y46555D01*
X91919Y46784D01*
X91866Y46982D01*
X91798Y47150D01*
X91714Y47287D01*
X91615Y47393D01*
X91500Y47470D01*
X91371Y47515D01*
X91226Y47530D01*
X94274D01*
X94129Y47515D01*
D02*
G37*
G36*
X228520Y43704D02*
X228542Y43445D01*
X228581Y43216D01*
X228634Y43018D01*
X228703Y42850D01*
X228786Y42713D01*
X228885Y42607D01*
X229000Y42530D01*
X229129Y42485D01*
X229274Y42470D01*
X226226D01*
X226371Y42485D01*
X226500Y42530D01*
X226615Y42607D01*
X226714Y42713D01*
X226798Y42850D01*
X226866Y43018D01*
X226919Y43216D01*
X226957Y43445D01*
X226980Y43704D01*
X226988Y43994D01*
X228512D01*
X228520Y43704D01*
D02*
G37*
G36*
X30719Y43281D02*
X30725Y43265D01*
X30731Y43219D01*
X30735Y43143D01*
X30750Y41757D01*
X29226D01*
X29218Y42050D01*
X29195Y42313D01*
X29157Y42545D01*
X29104Y42746D01*
X29035Y42917D01*
X28952Y43057D01*
X28853Y43167D01*
X28738Y43246D01*
X28609Y43293D01*
X28464Y43311D01*
X30719Y43281D01*
D02*
G37*
G36*
X445898Y40807D02*
X445854Y41166D01*
X445719Y41487D01*
X445496Y41770D01*
X445183Y42015D01*
X444781Y42223D01*
X444289Y42393D01*
X443707Y42525D01*
X443037Y42620D01*
X442277Y42676D01*
X441427Y42695D01*
Y46505D01*
X442277Y46524D01*
X443707Y46675D01*
X444289Y46807D01*
X444781Y46977D01*
X445183Y47185D01*
X445496Y47430D01*
X445719Y47713D01*
X445854Y48034D01*
X445898Y48393D01*
Y40807D01*
D02*
G37*
G36*
X93520Y37768D02*
X93542Y37504D01*
X93581Y37271D01*
X93634Y37069D01*
X93702Y36898D01*
X93786Y36758D01*
X93885Y36649D01*
X94000Y36571D01*
X94129Y36525D01*
X94274Y36509D01*
X91226D01*
X91371Y36525D01*
X91500Y36571D01*
X91615Y36649D01*
X91714Y36758D01*
X91798Y36898D01*
X91866Y37069D01*
X91919Y37271D01*
X91958Y37504D01*
X91980Y37768D01*
X91988Y38063D01*
X93512D01*
X93520Y37768D01*
D02*
G37*
G36*
X229129Y37545D02*
X229000Y37499D01*
X228885Y37421D01*
X228786Y37312D01*
X228703Y37172D01*
X228634Y37001D01*
X228581Y36799D01*
X228542Y36566D01*
X228520Y36302D01*
X228512Y36007D01*
X226988D01*
X226980Y36302D01*
X226957Y36566D01*
X226919Y36799D01*
X226866Y37001D01*
X226798Y37172D01*
X226714Y37312D01*
X226615Y37421D01*
X226500Y37499D01*
X226371Y37545D01*
X226226Y37561D01*
X229274D01*
X229129Y37545D01*
D02*
G37*
G36*
X89300Y36539D02*
X89331Y34284D01*
X89314Y34429D01*
X89265Y34558D01*
X89187Y34673D01*
X89077Y34772D01*
X88937Y34855D01*
X88766Y34924D01*
X88565Y34977D01*
X88333Y35015D01*
X88070Y35038D01*
X87776Y35046D01*
Y36570D01*
X89300Y36539D01*
D02*
G37*
G36*
X306469Y33572D02*
X306399Y33602D01*
X306282Y33630D01*
X306119Y33653D01*
X305656Y33691D01*
X304176Y33730D01*
X303691Y33731D01*
Y36269D01*
X304176Y36270D01*
X306399Y36398D01*
X306469Y36428D01*
Y33572D01*
D02*
G37*
G36*
X228520Y33954D02*
X228542Y33695D01*
X228581Y33466D01*
X228634Y33268D01*
X228703Y33101D01*
X228786Y32963D01*
X228885Y32857D01*
X229000Y32780D01*
X229129Y32735D01*
X229274Y32720D01*
X226226D01*
X226371Y32735D01*
X226500Y32780D01*
X226615Y32857D01*
X226714Y32963D01*
X226798Y33101D01*
X226866Y33268D01*
X226919Y33466D01*
X226957Y33695D01*
X226980Y33954D01*
X226988Y34244D01*
X228512D01*
X228520Y33954D01*
D02*
G37*
G36*
X156532Y33066D02*
X156550Y32566D01*
X156604Y32080D01*
X156694Y31609D01*
X156819Y31153D01*
X156981Y30712D01*
X157179Y30286D01*
X157412Y29875D01*
X157682Y29478D01*
X157987Y29097D01*
X158328Y28730D01*
X156532Y26934D01*
X156165Y27275D01*
X155784Y27580D01*
X155387Y27850D01*
X154976Y28083D01*
X154550Y28281D01*
X154109Y28443D01*
X153653Y28568D01*
X153182Y28658D01*
X152697Y28712D01*
X152196Y28730D01*
X151559Y30906D01*
Y28731D01*
X151074Y28730D01*
X148851Y28602D01*
X148781Y28572D01*
Y31428D01*
X148851Y31398D01*
X148968Y31370D01*
X149131Y31347D01*
X149594Y31309D01*
X151074Y31270D01*
X151452Y31269D01*
X151452Y31270D01*
X151935Y31295D01*
X152367Y31372D01*
X152747Y31499D01*
X153078Y31676D01*
X153357Y31905D01*
X153586Y32184D01*
X153764Y32515D01*
X153890Y32896D01*
X153967Y33327D01*
X153992Y33810D01*
X156532Y33066D01*
D02*
G37*
G36*
X317847Y31172D02*
X317946Y31086D01*
X318067Y31010D01*
X318209Y30944D01*
X318372Y30889D01*
X318556Y30843D01*
X318762Y30808D01*
X318988Y30782D01*
X319505Y30762D01*
Y29238D01*
X319236Y29233D01*
X318762Y29192D01*
X318556Y29157D01*
X318372Y29111D01*
X318209Y29056D01*
X318067Y28990D01*
X317946Y28914D01*
X317847Y28828D01*
X317769Y28731D01*
Y31269D01*
X317847Y31172D01*
D02*
G37*
G36*
X226280Y53882D02*
X226272Y53873D01*
X226201Y53689D01*
X226102Y53590D01*
X225597Y52834D01*
X225419Y51942D01*
Y44217D01*
X225339Y44037D01*
X225339Y44024D01*
X223976D01*
Y35976D01*
X225339D01*
X225339Y35964D01*
X225419Y35784D01*
Y34467D01*
X225339Y34287D01*
X225339Y34274D01*
X224226D01*
Y25866D01*
X223229Y25067D01*
X217831Y30465D01*
Y50360D01*
X223817Y56346D01*
X226280Y53882D01*
D02*
G37*
G36*
X317847Y26172D02*
X317946Y26086D01*
X318067Y26010D01*
X318209Y25944D01*
X318372Y25889D01*
X318556Y25843D01*
X318762Y25808D01*
X318988Y25782D01*
X319505Y25762D01*
Y24238D01*
X319236Y24233D01*
X318762Y24192D01*
X318556Y24157D01*
X318372Y24111D01*
X318209Y24056D01*
X318067Y23990D01*
X317946Y23914D01*
X317847Y23828D01*
X317769Y23731D01*
Y26269D01*
X317847Y26172D01*
D02*
G37*
G36*
X125311Y20976D02*
X125295Y21121D01*
X125249Y21250D01*
X125171Y21365D01*
X125062Y21464D01*
X124922Y21548D01*
X124751Y21616D01*
X124549Y21669D01*
X124316Y21707D01*
X124052Y21730D01*
X123757Y21738D01*
Y23262D01*
X124052Y23270D01*
X124316Y23293D01*
X124549Y23331D01*
X124751Y23384D01*
X124922Y23452D01*
X125062Y23536D01*
X125171Y23635D01*
X125249Y23750D01*
X125295Y23879D01*
X125311Y24024D01*
Y20976D01*
D02*
G37*
G36*
X121185Y23879D02*
X121231Y23750D01*
X121309Y23635D01*
X121418Y23536D01*
X121558Y23452D01*
X121729Y23384D01*
X121931Y23331D01*
X122164Y23293D01*
X122428Y23270D01*
X122724Y23262D01*
Y21738D01*
X122428Y21730D01*
X122164Y21707D01*
X121931Y21669D01*
X121729Y21616D01*
X121558Y21548D01*
X121418Y21464D01*
X121309Y21365D01*
X121231Y21250D01*
X121185Y21121D01*
X121169Y20976D01*
Y24024D01*
X121185Y23879D01*
D02*
G37*
G36*
X137481Y18731D02*
X137403Y18828D01*
X137303Y18914D01*
X137183Y18990D01*
X137041Y19056D01*
X136878Y19111D01*
X136694Y19157D01*
X136488Y19192D01*
X136262Y19218D01*
X135745Y19238D01*
Y20762D01*
X136014Y20767D01*
X136488Y20808D01*
X136694Y20843D01*
X136878Y20889D01*
X137041Y20944D01*
X137183Y21010D01*
X137303Y21086D01*
X137403Y21172D01*
X137481Y21269D01*
Y18731D01*
D02*
G37*
G36*
X306469Y18572D02*
X306399Y18602D01*
X306282Y18629D01*
X306119Y18653D01*
X305656Y18692D01*
X304176Y18730D01*
X303691Y18731D01*
Y21269D01*
X304176Y21270D01*
X306399Y21398D01*
X306469Y21428D01*
Y18572D01*
D02*
G37*
G36*
X443671Y67589D02*
X443684Y67589D01*
X443945Y66277D01*
X444779Y65029D01*
X445791Y64353D01*
X445905Y63753D01*
Y63547D01*
X445791Y62947D01*
X444779Y62271D01*
X443945Y61023D01*
X443652Y59550D01*
Y55050D01*
X443945Y53577D01*
X444779Y52329D01*
X445791Y51653D01*
X445905Y51053D01*
Y50847D01*
X445791Y50247D01*
X445020Y49732D01*
X444885Y49695D01*
X444837Y49609D01*
X444811Y49592D01*
X444732Y49559D01*
X444667Y49404D01*
X444041Y48467D01*
X443835Y48396D01*
X443437Y48305D01*
X442172Y48172D01*
X441390Y48154D01*
X441259Y48096D01*
X419350D01*
X418012Y47830D01*
X416878Y47072D01*
X381552Y11746D01*
X319723D01*
X319695Y11775D01*
X319160Y13016D01*
X319392Y13363D01*
X319569Y14250D01*
Y15750D01*
X319392Y16637D01*
X318947Y17500D01*
X319392Y18363D01*
X319569Y19250D01*
Y20750D01*
X319478Y21202D01*
X320210Y22301D01*
X321358Y22346D01*
X326102Y17602D01*
X326858Y17097D01*
X327750Y16919D01*
X376250D01*
X377142Y17097D01*
X377898Y17602D01*
X427965Y67669D01*
X443490D01*
X443671Y67589D01*
D02*
G37*
G36*
X299930Y22813D02*
X300007Y22489D01*
X300134Y22204D01*
X300311Y21956D01*
X300540Y21746D01*
X300819Y21575D01*
X301150Y21442D01*
X301531Y21346D01*
X301962Y21289D01*
X302445Y21270D01*
Y18730D01*
X301962Y18711D01*
X301531Y18654D01*
X301150Y18559D01*
X300819Y18425D01*
X300540Y18254D01*
X300311Y18044D01*
X300134Y17797D01*
X300007Y17511D01*
X299930Y17187D01*
X299905Y16825D01*
X296095Y20000D01*
X299905Y23175D01*
X299930Y22813D01*
D02*
G37*
G36*
X148851Y16398D02*
X148968Y16371D01*
X149131Y16347D01*
X149594Y16308D01*
X151074Y16270D01*
X151559Y16269D01*
Y13731D01*
X151074Y13730D01*
X148851Y13602D01*
X148781Y13572D01*
Y16428D01*
X148851Y16398D01*
D02*
G37*
G36*
X139729Y13547D02*
X139648Y13587D01*
X139530Y13577D01*
X139376Y13518D01*
X139185Y13410D01*
X138957Y13252D01*
X138692Y13044D01*
X138053Y12481D01*
X137266Y11720D01*
X135470Y13516D01*
X135793Y13845D01*
X136777Y14989D01*
X136947Y15231D01*
X137086Y15457D01*
X137196Y15666D01*
X137274Y15857D01*
X137322Y16031D01*
X139729Y13547D01*
D02*
G37*
G36*
X130245Y14539D02*
X130321Y14378D01*
X130448Y14235D01*
X130626Y14112D01*
X130855Y14007D01*
X131134Y13922D01*
X131464Y13855D01*
X131845Y13808D01*
X132277Y13779D01*
X132760Y13770D01*
Y11230D01*
X132277Y11221D01*
X131464Y11145D01*
X131134Y11078D01*
X130855Y10993D01*
X130626Y10888D01*
X130448Y10765D01*
X130321Y10622D01*
X130245Y10461D01*
X130219Y10280D01*
Y14720D01*
X130245Y14539D01*
D02*
G37*
%LPC*%
G36*
X392020Y305850D02*
Y301520D01*
X396350D01*
X396157Y302490D01*
X394888Y304388D01*
X392990Y305657D01*
X392020Y305850D01*
D02*
G37*
G36*
X389480D02*
X388510Y305657D01*
X386612Y304388D01*
X385343Y302490D01*
X385150Y301520D01*
X389480D01*
Y305850D01*
D02*
G37*
G36*
X304270Y305600D02*
Y301270D01*
X308600D01*
X308407Y302240D01*
X307138Y304138D01*
X305240Y305407D01*
X304270Y305600D01*
D02*
G37*
G36*
X301730D02*
X300760Y305407D01*
X298862Y304138D01*
X297593Y302240D01*
X297400Y301270D01*
X301730D01*
Y305600D01*
D02*
G37*
G36*
X75270Y302600D02*
Y298270D01*
X79600D01*
X79407Y299240D01*
X78138Y301138D01*
X76240Y302407D01*
X75270Y302600D01*
D02*
G37*
G36*
X72730D02*
X71760Y302407D01*
X69862Y301138D01*
X68593Y299240D01*
X68400Y298270D01*
X72730D01*
Y302600D01*
D02*
G37*
G36*
X308600Y298730D02*
X304270D01*
Y294400D01*
X305240Y294593D01*
X307138Y295862D01*
X308407Y297760D01*
X308600Y298730D01*
D02*
G37*
G36*
X301730D02*
X297400D01*
X297593Y297760D01*
X298862Y295862D01*
X300760Y294593D01*
X301730Y294400D01*
Y298730D01*
D02*
G37*
G36*
X396350Y298980D02*
X385150D01*
X385343Y298010D01*
X385811Y297310D01*
X385132Y296040D01*
X378960D01*
Y292770D01*
X390540D01*
Y294225D01*
X390750Y294398D01*
X392990Y294843D01*
X394888Y296112D01*
X396157Y298010D01*
X396350Y298980D01*
D02*
G37*
G36*
X35040Y298480D02*
X19770D01*
Y292210D01*
X35040D01*
Y298480D01*
D02*
G37*
G36*
X225980Y296350D02*
X225010Y296157D01*
X223112Y294888D01*
X221843Y292990D01*
X221650Y292020D01*
X225980D01*
Y296350D01*
D02*
G37*
G36*
X79600Y295730D02*
X75270D01*
Y291400D01*
X76240Y291593D01*
X78138Y292862D01*
X79407Y294760D01*
X79600Y295730D01*
D02*
G37*
G36*
X72730D02*
X68400D01*
X68593Y294760D01*
X69862Y292862D01*
X71760Y291593D01*
X72730Y291400D01*
Y295730D01*
D02*
G37*
G36*
X227915Y290750D02*
X227250D01*
Y290085D01*
X227915Y290750D01*
D02*
G37*
G36*
X333464Y295594D02*
X321316D01*
Y283446D01*
X333464D01*
Y289089D01*
X333476Y289089D01*
X333657Y289169D01*
X360784D01*
X360964Y289089D01*
X360976Y289089D01*
Y287976D01*
X370524D01*
Y295024D01*
X360976D01*
Y293911D01*
X360964Y293911D01*
X360784Y293831D01*
X333657D01*
X333476Y293911D01*
X333464Y293911D01*
Y295594D01*
D02*
G37*
G36*
X435774Y290524D02*
X424726D01*
Y287411D01*
X424714Y287411D01*
X424534Y287331D01*
X419467D01*
X419287Y287411D01*
X419274Y287411D01*
Y288774D01*
X411226D01*
Y281226D01*
X419274D01*
Y282589D01*
X419287Y282589D01*
X419467Y282669D01*
X424534D01*
X424714Y282589D01*
X424726Y282589D01*
Y279476D01*
X435774D01*
Y290524D01*
D02*
G37*
G36*
X443980Y291540D02*
X438710D01*
Y286270D01*
X443980D01*
Y291540D01*
D02*
G37*
G36*
X226645Y289480D02*
X221650D01*
X221843Y288510D01*
X222430Y287631D01*
X222441Y287578D01*
X223127Y286552D01*
X223422Y286257D01*
X226645Y289480D01*
D02*
G37*
G36*
X122980Y286350D02*
X122010Y286157D01*
X120112Y284888D01*
X118843Y282990D01*
X118650Y282020D01*
X122980D01*
Y286350D01*
D02*
G37*
G36*
X390540Y290230D02*
X378960D01*
Y287331D01*
X378500D01*
X377608Y287153D01*
X376852Y286648D01*
X373352Y283148D01*
X372847Y282392D01*
X372669Y281500D01*
Y271715D01*
X367525Y266572D01*
X367345Y266504D01*
X366780Y265978D01*
X366596Y265830D01*
X366517Y265774D01*
X366470D01*
X366314Y265839D01*
X366184Y265785D01*
X366047Y265817D01*
X365978Y265774D01*
X359476D01*
Y254226D01*
X370024D01*
Y261728D01*
X370067Y261797D01*
X370035Y261934D01*
X370089Y262064D01*
X370024Y262220D01*
Y262267D01*
X370067Y262328D01*
X370465Y262795D01*
X370733Y263073D01*
X370807Y263261D01*
X372787Y265240D01*
X373960Y264754D01*
Y261270D01*
X378980D01*
Y266790D01*
X375996D01*
X375509Y267963D01*
X376648Y269102D01*
X377153Y269858D01*
X377331Y270750D01*
Y280535D01*
X378706Y281910D01*
X379800Y281536D01*
X379976Y281384D01*
Y274976D01*
X389524D01*
Y282589D01*
X389536Y282589D01*
X389716Y282669D01*
X396034D01*
X396214Y282589D01*
X396226Y282589D01*
Y281226D01*
X404274D01*
Y288774D01*
X396226D01*
Y287411D01*
X396214Y287411D01*
X396034Y287331D01*
X390540D01*
Y290230D01*
D02*
G37*
G36*
X412780Y278869D02*
X412608Y278798D01*
X412424Y278830D01*
X412344Y278774D01*
X411226D01*
Y278665D01*
X409635Y278557D01*
X408963Y278555D01*
X408824Y278496D01*
X406676D01*
X406537Y278555D01*
X405832Y278558D01*
X404274Y278601D01*
Y278774D01*
X403156D01*
X403076Y278830D01*
X402892Y278798D01*
X402719Y278869D01*
X402490Y278774D01*
X396226D01*
Y271226D01*
X402490D01*
X402719Y271131D01*
X402892Y271202D01*
X403076Y271170D01*
X403156Y271226D01*
X404274D01*
Y271335D01*
X405865Y271443D01*
X406537Y271446D01*
X406676Y271504D01*
X408824D01*
X408963Y271446D01*
X409668Y271442D01*
X410804Y271411D01*
X410960Y271235D01*
X411389Y270598D01*
X411537Y270026D01*
X411482Y269861D01*
X411426Y269733D01*
X411375Y269641D01*
X411330Y269578D01*
X411225Y269462D01*
X411193Y269372D01*
X410047Y267655D01*
X409672Y265774D01*
X404976D01*
Y254226D01*
X408249D01*
X408320Y254182D01*
X408454Y254214D01*
X408581Y254161D01*
X408737Y254226D01*
X410014D01*
X410274Y254076D01*
X410773Y253728D01*
X412078Y252620D01*
X412823Y251900D01*
X412959Y251847D01*
X417816Y246989D01*
X417864Y246860D01*
X419241Y245380D01*
X419717Y244789D01*
X420083Y244267D01*
X420182Y244097D01*
Y242750D01*
X420209Y242611D01*
X420185Y242552D01*
X420239Y242425D01*
X420208Y242289D01*
X420303Y242137D01*
X420358Y241863D01*
X420861Y241110D01*
X421613Y240608D01*
X422500Y240431D01*
X431000D01*
X431887Y240608D01*
X432639Y241110D01*
X433142Y241863D01*
X433318Y242750D01*
Y247250D01*
X433142Y248137D01*
X432639Y248889D01*
X431887Y249392D01*
X431000Y249569D01*
X427430D01*
X427406Y249583D01*
X427345Y249569D01*
X427228D01*
X427144Y249603D01*
X427063Y249569D01*
X425666D01*
X425466Y249683D01*
X424967Y250033D01*
X423660Y251142D01*
X422912Y251864D01*
X422777Y251918D01*
X417920Y256775D01*
X417872Y256904D01*
X416506Y258373D01*
X416194Y258761D01*
X416293Y259399D01*
X416742Y260164D01*
X416743Y260165D01*
X417405Y260296D01*
X419194Y261492D01*
X419265Y261514D01*
X420674Y261389D01*
X420861Y261111D01*
X421613Y260608D01*
X422500Y260431D01*
X431000D01*
X431887Y260608D01*
X432639Y261111D01*
X433142Y261863D01*
X433318Y262750D01*
Y267250D01*
X433142Y268137D01*
X432639Y268890D01*
X431887Y269392D01*
X431000Y269569D01*
X422500D01*
X421613Y269392D01*
X421065Y269026D01*
X420524Y268943D01*
X419714Y269073D01*
X419009Y270205D01*
X419274Y271226D01*
X419274D01*
Y272551D01*
X419369Y272780D01*
X419274Y273010D01*
Y278774D01*
X413010D01*
X412780Y278869D01*
D02*
G37*
G36*
X451790Y291540D02*
X446520D01*
Y285000D01*
Y278460D01*
X451790D01*
Y279544D01*
X453388Y280612D01*
X454657Y282510D01*
X454850Y283480D01*
X449250D01*
Y286020D01*
X454850D01*
X454657Y286990D01*
X453388Y288888D01*
X451790Y289956D01*
Y291540D01*
D02*
G37*
G36*
X443980Y283730D02*
X438710D01*
Y278460D01*
X443980D01*
Y283730D01*
D02*
G37*
G36*
X282270Y281100D02*
Y276770D01*
X286600D01*
X286407Y277740D01*
X285138Y279638D01*
X283240Y280907D01*
X282270Y281100D01*
D02*
G37*
G36*
X279730D02*
X278760Y280907D01*
X276862Y279638D01*
X275593Y277740D01*
X275400Y276770D01*
X279730D01*
Y281100D01*
D02*
G37*
G36*
X198520Y279850D02*
Y275520D01*
X202850D01*
X202657Y276490D01*
X201388Y278388D01*
X199490Y279657D01*
X198520Y279850D01*
D02*
G37*
G36*
X195980D02*
X195010Y279657D01*
X193112Y278388D01*
X191843Y276490D01*
X191650Y275520D01*
X195980D01*
Y279850D01*
D02*
G37*
G36*
X223020Y279100D02*
Y274770D01*
X227350D01*
X227157Y275740D01*
X225888Y277638D01*
X223990Y278907D01*
X223020Y279100D01*
D02*
G37*
G36*
X22270Y278350D02*
Y274020D01*
X26600D01*
X26407Y274990D01*
X25138Y276888D01*
X23240Y278157D01*
X22270Y278350D01*
D02*
G37*
G36*
X19730D02*
X18760Y278157D01*
X16862Y276888D01*
X15593Y274990D01*
X15400Y274020D01*
X19730D01*
Y278350D01*
D02*
G37*
G36*
X125520Y286350D02*
Y280750D01*
X124250D01*
Y279480D01*
X118650D01*
X118843Y278510D01*
X120112Y276612D01*
X122010Y275343D01*
X123730Y275001D01*
X126093Y272639D01*
X129352Y275898D01*
X132611Y279157D01*
X129875Y281894D01*
X129657Y282990D01*
X128388Y284888D01*
X126490Y286157D01*
X125520Y286350D01*
D02*
G37*
G36*
X370524Y282024D02*
X360976D01*
Y280829D01*
X359594Y279906D01*
X358550Y278343D01*
X358184Y276500D01*
X358550Y274657D01*
X359594Y273094D01*
X361157Y272050D01*
X363000Y271684D01*
X364843Y272050D01*
X366406Y273094D01*
X367450Y274657D01*
X367513Y274976D01*
X370524D01*
Y282024D01*
D02*
G37*
G36*
X286600Y274230D02*
X282270D01*
Y269900D01*
X283240Y270093D01*
X285138Y271362D01*
X286407Y273260D01*
X286600Y274230D01*
D02*
G37*
G36*
X279730D02*
X275400D01*
X275593Y273260D01*
X276862Y271362D01*
X278760Y270093D01*
X279730Y269900D01*
Y274230D01*
D02*
G37*
G36*
X26600Y271480D02*
X22270D01*
Y267150D01*
X23240Y267343D01*
X25138Y268612D01*
X26407Y270510D01*
X26600Y271480D01*
D02*
G37*
G36*
X19730D02*
X15400D01*
X15593Y270510D01*
X16862Y268612D01*
X18760Y267343D01*
X19730Y267150D01*
Y271480D01*
D02*
G37*
G36*
X261290Y270290D02*
X258020D01*
Y266270D01*
X261290D01*
Y270290D01*
D02*
G37*
G36*
X393480Y266790D02*
X388460D01*
Y265830D01*
X387796Y265417D01*
X386540Y266105D01*
Y266790D01*
X381520D01*
Y260000D01*
Y253210D01*
X386540D01*
Y253895D01*
X387796Y254583D01*
X388460Y254171D01*
Y253210D01*
X393480D01*
Y260000D01*
X394750D01*
D01*
X393480D01*
Y266790D01*
D02*
G37*
G36*
X130250Y273204D02*
X127889Y270843D01*
X132294Y266437D01*
X133465Y265655D01*
X134846Y265380D01*
X136227Y265655D01*
X137170Y266285D01*
X130250Y273204D01*
D02*
G37*
G36*
X322750Y280632D02*
X320595Y280203D01*
X318767Y278983D01*
X317547Y277155D01*
X317118Y275000D01*
X317547Y272845D01*
X318767Y271017D01*
X320595Y269797D01*
X321316Y269653D01*
Y264406D01*
X333464D01*
Y276554D01*
X328073D01*
X327953Y277155D01*
X326733Y278983D01*
X324905Y280203D01*
X322750Y280632D01*
D02*
G37*
G36*
X401040Y266790D02*
X396020D01*
Y261270D01*
X401040D01*
Y266790D01*
D02*
G37*
G36*
X261290Y263730D02*
X258020D01*
Y259710D01*
X261290D01*
Y263730D01*
D02*
G37*
G36*
X401040Y258730D02*
X396020D01*
Y253210D01*
X401040D01*
Y258730D01*
D02*
G37*
G36*
X378980D02*
X373960D01*
Y253210D01*
X378980D01*
Y258730D01*
D02*
G37*
G36*
X35040Y257790D02*
X19770D01*
Y251520D01*
X35040D01*
Y257790D01*
D02*
G37*
G36*
X285520Y254600D02*
Y250270D01*
X289850D01*
X289657Y251240D01*
X288388Y253138D01*
X286490Y254407D01*
X285520Y254600D01*
D02*
G37*
G36*
X282980D02*
X282010Y254407D01*
X280112Y253138D01*
X278843Y251240D01*
X278650Y250270D01*
X282980D01*
Y254600D01*
D02*
G37*
G36*
X252498Y249880D02*
X249832Y247214D01*
X252321Y244725D01*
X254987Y247391D01*
X252498Y249880D01*
D02*
G37*
G36*
X289850Y247730D02*
X285520D01*
Y243400D01*
X286490Y243593D01*
X288388Y244862D01*
X289657Y246760D01*
X289850Y247730D01*
D02*
G37*
G36*
X282980D02*
X278650D01*
X278843Y246760D01*
X280112Y244862D01*
X282010Y243593D01*
X282980Y243400D01*
Y247730D01*
D02*
G37*
G36*
X35040Y248980D02*
X19770D01*
Y242710D01*
X35040D01*
Y248980D01*
D02*
G37*
G36*
X72270Y245850D02*
Y241520D01*
X76600D01*
X76407Y242490D01*
X75138Y244388D01*
X73240Y245657D01*
X72270Y245850D01*
D02*
G37*
G36*
X69730D02*
X68760Y245657D01*
X66862Y244388D01*
X65593Y242490D01*
X65400Y241520D01*
X69730D01*
Y245850D01*
D02*
G37*
G36*
X248036Y245418D02*
X245370Y242752D01*
X247859Y240263D01*
X250525Y242929D01*
X248036Y245418D01*
D02*
G37*
G36*
X101646Y246580D02*
X99862Y245388D01*
X98593Y243490D01*
X98400Y242520D01*
X104000D01*
Y241250D01*
X105270D01*
Y235650D01*
X106240Y235843D01*
X108138Y237112D01*
X109330Y238896D01*
X105488Y242738D01*
X101646Y246580D01*
D02*
G37*
G36*
X102730Y239980D02*
X98400D01*
X98593Y239010D01*
X99862Y237112D01*
X101760Y235843D01*
X102730Y235650D01*
Y239980D01*
D02*
G37*
G36*
X192520Y239350D02*
Y235020D01*
X196850D01*
X196657Y235990D01*
X195388Y237888D01*
X193490Y239157D01*
X192520Y239350D01*
D02*
G37*
G36*
X189980D02*
X189010Y239157D01*
X187112Y237888D01*
X185843Y235990D01*
X185650Y235020D01*
X189980D01*
Y239350D01*
D02*
G37*
G36*
X156270D02*
Y235020D01*
X160600D01*
X160407Y235990D01*
X159138Y237888D01*
X157240Y239157D01*
X156270Y239350D01*
D02*
G37*
G36*
X260100Y239230D02*
X255770D01*
Y234900D01*
X256740Y235093D01*
X258638Y236362D01*
X259907Y238260D01*
X260100Y239230D01*
D02*
G37*
G36*
X256953Y245765D02*
X253219Y242031D01*
X249235Y238047D01*
X250362Y236362D01*
X252260Y235093D01*
X253230Y234900D01*
Y240500D01*
X254500D01*
Y241770D01*
X260100D01*
X259907Y242740D01*
X258638Y244638D01*
X256953Y245765D01*
D02*
G37*
G36*
X76600Y238980D02*
X72270D01*
Y234650D01*
X73240Y234843D01*
X75138Y236112D01*
X76407Y238010D01*
X76600Y238980D01*
D02*
G37*
G36*
X69730D02*
X65400D01*
X65593Y238010D01*
X66862Y236112D01*
X68760Y234843D01*
X69730Y234650D01*
Y238980D01*
D02*
G37*
G36*
X35040Y237290D02*
X19770D01*
Y231020D01*
X35040D01*
Y237290D01*
D02*
G37*
G36*
X440369Y235806D02*
X437646D01*
Y229471D01*
X447807D01*
X447715Y230170D01*
X446955Y232004D01*
X445747Y233579D01*
X444172Y234787D01*
X442338Y235547D01*
X440369Y235806D01*
D02*
G37*
G36*
X435106D02*
X432382D01*
X430414Y235547D01*
X428580Y234787D01*
X427005Y233579D01*
X425796Y232004D01*
X425036Y230170D01*
X424944Y229471D01*
X435106D01*
Y235806D01*
D02*
G37*
G36*
X400369Y235805D02*
X396146D01*
Y229470D01*
X407807D01*
X407715Y230168D01*
X406956Y232002D01*
X405747Y233577D01*
X404172Y234786D01*
X402338Y235546D01*
X400369Y235805D01*
D02*
G37*
G36*
X393606D02*
X389382D01*
X387414Y235546D01*
X385579Y234786D01*
X384005Y233577D01*
X382796Y232002D01*
X382036Y230168D01*
X381944Y229470D01*
X393606D01*
Y235805D01*
D02*
G37*
G36*
X322750Y245632D02*
X320595Y245203D01*
X318767Y243983D01*
X317547Y242155D01*
X317118Y240000D01*
X317547Y237845D01*
X318767Y236017D01*
X320595Y234797D01*
X321316Y234653D01*
Y229406D01*
X333464D01*
Y241554D01*
X328073D01*
X327953Y242155D01*
X326733Y243983D01*
X324905Y245203D01*
X322750Y245632D01*
D02*
G37*
G36*
X196850Y232480D02*
X192520D01*
Y228150D01*
X193490Y228343D01*
X195388Y229612D01*
X196657Y231510D01*
X196850Y232480D01*
D02*
G37*
G36*
X189980D02*
X185650D01*
X185843Y231510D01*
X187112Y229612D01*
X189010Y228343D01*
X189980Y228150D01*
Y232480D01*
D02*
G37*
G36*
X160600D02*
X156270D01*
Y228150D01*
X157240Y228343D01*
X159138Y229612D01*
X160407Y231510D01*
X160600Y232480D01*
D02*
G37*
G36*
X372040Y231790D02*
X366520D01*
Y226770D01*
X372040D01*
Y231790D01*
D02*
G37*
G36*
X363980D02*
X358460D01*
Y226770D01*
X363980D01*
Y231790D01*
D02*
G37*
G36*
X35040Y228480D02*
X19770D01*
Y222210D01*
X35040D01*
Y228480D01*
D02*
G37*
G36*
X447807Y226931D02*
X437646D01*
Y220596D01*
X440369D01*
X442338Y220855D01*
X444172Y221615D01*
X445747Y222824D01*
X446955Y224399D01*
X447715Y226233D01*
X447807Y226931D01*
D02*
G37*
G36*
X435106D02*
X424944D01*
X425036Y226233D01*
X425796Y224399D01*
X427005Y222824D01*
X428580Y221615D01*
X430414Y220855D01*
X432382Y220596D01*
X435106D01*
Y226931D01*
D02*
G37*
G36*
X372040Y224230D02*
X366520D01*
Y219210D01*
X372040D01*
Y224230D01*
D02*
G37*
G36*
X363980D02*
X358460D01*
Y219210D01*
X363980D01*
Y224230D01*
D02*
G37*
G36*
X21770Y209850D02*
Y205520D01*
X26100D01*
X25907Y206490D01*
X24638Y208388D01*
X22740Y209657D01*
X21770Y209850D01*
D02*
G37*
G36*
X19230D02*
X18260Y209657D01*
X16362Y208388D01*
X15093Y206490D01*
X14900Y205520D01*
X19230D01*
Y209850D01*
D02*
G37*
G36*
X298540Y209290D02*
X293520D01*
Y203770D01*
X298540D01*
Y209290D01*
D02*
G37*
G36*
X153270Y208100D02*
Y203770D01*
X157600D01*
X157407Y204740D01*
X156138Y206638D01*
X154240Y207907D01*
X153270Y208100D01*
D02*
G37*
G36*
X150730D02*
X149760Y207907D01*
X147862Y206638D01*
X146593Y204740D01*
X146400Y203770D01*
X150730D01*
Y208100D01*
D02*
G37*
G36*
X290980Y209290D02*
X285960D01*
Y203770D01*
X290980D01*
Y209290D01*
D02*
G37*
G36*
X198020Y206350D02*
Y202020D01*
X202350D01*
X202157Y202990D01*
X200888Y204888D01*
X198990Y206157D01*
X198020Y206350D01*
D02*
G37*
G36*
X195480D02*
X194510Y206157D01*
X192612Y204888D01*
X191343Y202990D01*
X191150Y202020D01*
X195480D01*
Y206350D01*
D02*
G37*
G36*
X26100Y202980D02*
X21770D01*
Y198650D01*
X22740Y198843D01*
X24638Y200112D01*
X25907Y202010D01*
X26100Y202980D01*
D02*
G37*
G36*
X19230D02*
X14900D01*
X15093Y202010D01*
X16362Y200112D01*
X18260Y198843D01*
X19230Y198650D01*
Y202980D01*
D02*
G37*
G36*
X157600Y201230D02*
X153270D01*
Y196900D01*
X154240Y197093D01*
X156138Y198362D01*
X157407Y200260D01*
X157600Y201230D01*
D02*
G37*
G36*
X150730D02*
X146400D01*
X146593Y200260D01*
X147862Y198362D01*
X149760Y197093D01*
X150730Y196900D01*
Y201230D01*
D02*
G37*
G36*
X202350Y199480D02*
X198020D01*
Y195150D01*
X198990Y195343D01*
X200888Y196612D01*
X202157Y198510D01*
X202350Y199480D01*
D02*
G37*
G36*
X195480D02*
X191150D01*
X191343Y198510D01*
X192612Y196612D01*
X194510Y195343D01*
X195480Y195150D01*
Y199480D01*
D02*
G37*
G36*
X255270Y197600D02*
Y193270D01*
X259600D01*
X259407Y194240D01*
X258138Y196138D01*
X256240Y197407D01*
X255270Y197600D01*
D02*
G37*
G36*
X252730D02*
X251760Y197407D01*
X249862Y196138D01*
X248593Y194240D01*
X248400Y193270D01*
X252730D01*
Y197600D01*
D02*
G37*
G36*
X298540Y201230D02*
X292250D01*
X285960D01*
Y195710D01*
X286794D01*
X287862Y194112D01*
X289760Y192843D01*
X290730Y192650D01*
Y198250D01*
X293270D01*
Y192650D01*
X294240Y192843D01*
X296138Y194112D01*
X297206Y195710D01*
X298540D01*
Y201230D01*
D02*
G37*
G36*
X349350Y195980D02*
X345020D01*
Y191650D01*
X345990Y191843D01*
X347888Y193112D01*
X349157Y195010D01*
X349350Y195980D01*
D02*
G37*
G36*
X259600Y190730D02*
X255270D01*
Y186400D01*
X256240Y186593D01*
X258138Y187862D01*
X259407Y189760D01*
X259600Y190730D01*
D02*
G37*
G36*
X252730D02*
X248400D01*
X248593Y189760D01*
X249862Y187862D01*
X251760Y186593D01*
X252730Y186400D01*
Y190730D01*
D02*
G37*
G36*
X107262Y224629D02*
X92298D01*
X91406Y224451D01*
X90650Y223946D01*
X75559Y208855D01*
X74274D01*
Y213774D01*
X66226D01*
Y208855D01*
X62024D01*
Y215774D01*
X41976D01*
Y206726D01*
X57212D01*
X57252Y206525D01*
X57757Y205769D01*
X58526Y205000D01*
X57757Y204231D01*
X57252Y203475D01*
X57212Y203274D01*
X41976D01*
Y194226D01*
X62024D01*
Y201145D01*
X63269D01*
X63270Y201145D01*
X66226D01*
Y196226D01*
X74274D01*
Y201145D01*
X77786D01*
X78678Y201323D01*
X79435Y201828D01*
X94428Y216822D01*
X95335Y216713D01*
X95716Y215458D01*
X95612Y215388D01*
X94343Y213490D01*
X94150Y212520D01*
X99750D01*
Y209980D01*
X94150D01*
X94222Y209620D01*
X90627Y206025D01*
X89941Y204999D01*
X89700Y203789D01*
X89941Y202578D01*
X90627Y201552D01*
X90922Y201257D01*
X96650Y206985D01*
X98446Y205189D01*
X92718Y199461D01*
X93013Y199165D01*
X94039Y198480D01*
X95250Y198239D01*
X95548Y198298D01*
X95955Y197688D01*
X98342Y195302D01*
X99032Y194841D01*
X99864Y194614D01*
X100091Y193782D01*
X100552Y193092D01*
X102938Y190706D01*
X103628Y190244D01*
X104460Y190018D01*
X104687Y189186D01*
X105148Y188496D01*
X107534Y186109D01*
X108224Y185648D01*
X109039Y185486D01*
X109853Y185648D01*
X110543Y186109D01*
X117526Y193092D01*
X117987Y193782D01*
X118149Y194596D01*
X117987Y195410D01*
X117526Y196101D01*
X115139Y198487D01*
X114449Y198948D01*
X113617Y199175D01*
X113391Y200007D01*
X112929Y200697D01*
X112164Y201462D01*
X114946Y204245D01*
X115451Y205001D01*
X115629Y205893D01*
Y216262D01*
X115451Y217155D01*
X114946Y217911D01*
X108911Y223946D01*
X108154Y224451D01*
X107262Y224629D01*
D02*
G37*
G36*
X35040Y187790D02*
X19770D01*
Y181520D01*
X35040D01*
Y187790D01*
D02*
G37*
G36*
X124020Y175600D02*
Y171270D01*
X128350D01*
X128157Y172240D01*
X126888Y174138D01*
X124990Y175407D01*
X124020Y175600D01*
D02*
G37*
G36*
X128350Y168730D02*
X124020D01*
Y164400D01*
X124990Y164593D01*
X126888Y165862D01*
X128157Y167760D01*
X128350Y168730D01*
D02*
G37*
G36*
X121480Y175600D02*
X120520Y175409D01*
Y170000D01*
Y164591D01*
X121480Y164400D01*
Y170000D01*
Y175600D01*
D02*
G37*
G36*
X129992Y212909D02*
X117407Y200324D01*
X120942Y196789D01*
X128013Y189717D01*
X135084Y182646D01*
X142896Y174834D01*
X152044Y165687D01*
X151325Y164969D01*
X153284Y163010D01*
X160295Y170021D01*
X167306Y177032D01*
X165347Y178991D01*
X164629Y178272D01*
X158276Y184625D01*
X151205Y191696D01*
X144134Y198767D01*
X137063Y205838D01*
X129992Y212909D01*
D02*
G37*
G36*
X18230Y164480D02*
X13900D01*
X14093Y163510D01*
X15362Y161612D01*
X17260Y160343D01*
X18230Y160150D01*
Y164480D01*
D02*
G37*
G36*
X143770Y162600D02*
Y158270D01*
X148100D01*
X147907Y159240D01*
X146638Y161138D01*
X144740Y162407D01*
X143770Y162600D01*
D02*
G37*
G36*
X141230D02*
X140260Y162407D01*
X138362Y161138D01*
X137093Y159240D01*
X136900Y158270D01*
X141230D01*
Y162600D01*
D02*
G37*
G36*
X148100Y155730D02*
X143770D01*
Y151400D01*
X144740Y151593D01*
X146638Y152862D01*
X147907Y154760D01*
X148100Y155730D01*
D02*
G37*
G36*
X141230D02*
X136900D01*
X137093Y154760D01*
X138362Y152862D01*
X140260Y151593D01*
X141230Y151400D01*
Y155730D01*
D02*
G37*
G36*
X317498Y154880D02*
X314832Y152214D01*
X317321Y149725D01*
X319987Y152391D01*
X317498Y154880D01*
D02*
G37*
G36*
X321783Y150595D02*
X319117Y147929D01*
X321606Y145440D01*
X324272Y148106D01*
X321783Y150595D01*
D02*
G37*
G36*
X313036Y150418D02*
X310370Y147752D01*
X312859Y145263D01*
X315525Y147929D01*
X313036Y150418D01*
D02*
G37*
G36*
X163936Y150789D02*
X160387Y147239D01*
X164290Y143336D01*
X167840Y146886D01*
X163936Y150789D01*
D02*
G37*
G36*
X440369Y149406D02*
X437645D01*
Y143071D01*
X447807D01*
X447715Y143769D01*
X446955Y145604D01*
X445746Y147179D01*
X444171Y148387D01*
X442337Y149147D01*
X440369Y149406D01*
D02*
G37*
G36*
X435105D02*
X432382D01*
X430413Y149147D01*
X428579Y148387D01*
X427004Y147179D01*
X425796Y145604D01*
X425036Y143769D01*
X424944Y143071D01*
X435105D01*
Y149406D01*
D02*
G37*
G36*
X317321Y146133D02*
X314655Y143467D01*
X317144Y140978D01*
X319810Y143644D01*
X317321Y146133D01*
D02*
G37*
G36*
X206770Y145100D02*
Y140770D01*
X211100D01*
X210907Y141740D01*
X209638Y143638D01*
X207740Y144907D01*
X206770Y145100D01*
D02*
G37*
G36*
X204230D02*
X203260Y144907D01*
X201362Y143638D01*
X200093Y141740D01*
X199900Y140770D01*
X204230D01*
Y145100D01*
D02*
G37*
G36*
X169636Y145090D02*
X166086Y141540D01*
X169989Y137637D01*
X173539Y141186D01*
X169636Y145090D01*
D02*
G37*
G36*
X447807Y140531D02*
X437645D01*
Y134196D01*
X440369D01*
X442337Y134455D01*
X444171Y135215D01*
X445746Y136423D01*
X446955Y137999D01*
X447715Y139833D01*
X447807Y140531D01*
D02*
G37*
G36*
X435105D02*
X424944D01*
X425036Y139833D01*
X425796Y137999D01*
X427004Y136423D01*
X428579Y135215D01*
X430413Y134455D01*
X432382Y134196D01*
X435105D01*
Y140531D01*
D02*
G37*
G36*
X407807Y140529D02*
X396145D01*
Y134194D01*
X400369D01*
X402337Y134454D01*
X404171Y135213D01*
X405746Y136422D01*
X406955Y137997D01*
X407715Y139831D01*
X407807Y140529D01*
D02*
G37*
G36*
X393605D02*
X381944D01*
X382036Y139831D01*
X382795Y137997D01*
X384004Y136422D01*
X385579Y135213D01*
X387413Y134454D01*
X389381Y134194D01*
X393605D01*
Y140529D01*
D02*
G37*
G36*
X149520Y138350D02*
Y134020D01*
X153850D01*
X153657Y134990D01*
X152388Y136888D01*
X150490Y138157D01*
X149520Y138350D01*
D02*
G37*
G36*
X211100Y138230D02*
X206770D01*
Y133900D01*
X207740Y134093D01*
X209638Y135362D01*
X210907Y137260D01*
X211100Y138230D01*
D02*
G37*
G36*
X204230D02*
X199900D01*
X200093Y137260D01*
X201362Y135362D01*
X203260Y134093D01*
X204230Y133900D01*
Y138230D01*
D02*
G37*
G36*
X161230Y137230D02*
X156900D01*
X157093Y136260D01*
X158362Y134362D01*
X160260Y133093D01*
X161230Y132900D01*
Y137230D01*
D02*
G37*
G36*
X158591Y145443D02*
X155041Y141893D01*
X156944Y139990D01*
X156900Y139770D01*
X162500D01*
Y138500D01*
X163770D01*
Y132900D01*
X163990Y132944D01*
X164643Y132291D01*
X168193Y135841D01*
X163392Y140642D01*
X158591Y145443D01*
D02*
G37*
G36*
X153850Y131480D02*
X149520D01*
Y127150D01*
X150490Y127343D01*
X152388Y128612D01*
X153657Y130510D01*
X153850Y131480D01*
D02*
G37*
G36*
X370770Y129850D02*
Y125520D01*
X375100D01*
X374907Y126490D01*
X373638Y128388D01*
X371740Y129657D01*
X370770Y129850D01*
D02*
G37*
G36*
X368230D02*
X367260Y129657D01*
X365362Y128388D01*
X364093Y126490D01*
X363900Y125520D01*
X368230D01*
Y129850D01*
D02*
G37*
G36*
X26306Y126230D02*
X16520D01*
Y122891D01*
X22750D01*
X24131Y123165D01*
X25302Y123948D01*
X26085Y125119D01*
X26306Y126230D01*
D02*
G37*
G36*
X7770Y133350D02*
Y127750D01*
Y122150D01*
X8740Y122343D01*
X9559Y122891D01*
X13980D01*
Y127500D01*
Y132109D01*
X10308D01*
X8740Y133157D01*
X7770Y133350D01*
D02*
G37*
G36*
X314980Y123730D02*
X310650D01*
X310843Y122760D01*
X312112Y120862D01*
X314010Y119593D01*
X314980Y119400D01*
Y123730D01*
D02*
G37*
G36*
X412770Y123600D02*
Y119270D01*
X417100D01*
X416907Y120240D01*
X415638Y122138D01*
X413740Y123407D01*
X412770Y123600D01*
D02*
G37*
G36*
X410230D02*
X409260Y123407D01*
X407362Y122138D01*
X406093Y120240D01*
X405900Y119270D01*
X410230D01*
Y123600D01*
D02*
G37*
G36*
X375100Y122980D02*
X370770D01*
Y118650D01*
X371740Y118843D01*
X373638Y120112D01*
X374907Y122010D01*
X375100Y122980D01*
D02*
G37*
G36*
X368230D02*
X363900D01*
X364093Y122010D01*
X365362Y120112D01*
X367260Y118843D01*
X368230Y118650D01*
Y122980D01*
D02*
G37*
G36*
X417100Y116730D02*
X412770D01*
Y112400D01*
X413740Y112593D01*
X415638Y113862D01*
X416907Y115760D01*
X417100Y116730D01*
D02*
G37*
G36*
X410230D02*
X405900D01*
X406093Y115760D01*
X407362Y113862D01*
X409260Y112593D01*
X410230Y112400D01*
Y116730D01*
D02*
G37*
G36*
X66020Y116100D02*
Y111770D01*
X70350D01*
X70157Y112740D01*
X68888Y114638D01*
X66990Y115907D01*
X66020Y116100D01*
D02*
G37*
G36*
X63480D02*
X62510Y115907D01*
X60612Y114638D01*
X59343Y112740D01*
X59150Y111770D01*
X63480D01*
Y116100D01*
D02*
G37*
G36*
X343000Y115234D02*
X339020D01*
Y109370D01*
X347884D01*
Y110350D01*
X347512Y112219D01*
X346453Y113803D01*
X344869Y114862D01*
X343000Y115234D01*
D02*
G37*
G36*
X70350Y109230D02*
X66020D01*
Y104900D01*
X66990Y105093D01*
X68888Y106362D01*
X70157Y108260D01*
X70350Y109230D01*
D02*
G37*
G36*
X63480D02*
X59150D01*
X59343Y108260D01*
X60612Y106362D01*
X62510Y105093D01*
X63480Y104900D01*
Y109230D01*
D02*
G37*
G36*
X299286Y112489D02*
X292024Y105227D01*
X294513Y102738D01*
X301775Y110000D01*
X299286Y112489D01*
D02*
G37*
G36*
X106500Y103132D02*
X104345Y102704D01*
X102569Y101517D01*
X102502Y101491D01*
X102238Y101238D01*
X102015Y101051D01*
X101796Y100892D01*
X101582Y100760D01*
X101372Y100654D01*
X101164Y100569D01*
X100957Y100504D01*
X100747Y100458D01*
X100531Y100430D01*
X100238Y100418D01*
X100088Y100349D01*
X57948D01*
X57787Y100419D01*
X57785Y100419D01*
Y101230D01*
X37955D01*
Y100183D01*
X37804Y100119D01*
X36770D01*
X36770Y100119D01*
X35680Y99902D01*
X34756Y99284D01*
X34756Y99284D01*
X31736Y96264D01*
X31118Y95340D01*
X30901Y94250D01*
X30901Y94250D01*
Y85180D01*
X30504Y84783D01*
X30347Y84724D01*
X29386Y83832D01*
X29028Y83545D01*
X28719Y83331D01*
X28620Y83274D01*
X28107D01*
X27877Y83369D01*
X27752Y83317D01*
X27620Y83349D01*
X27498Y83274D01*
X22476D01*
Y71726D01*
X33024D01*
Y77748D01*
X33099Y77870D01*
X33067Y78002D01*
X33119Y78127D01*
X33024Y78357D01*
Y78870D01*
X33081Y78970D01*
X33282Y79259D01*
X33987Y80092D01*
X34452Y80574D01*
X34517Y80738D01*
X35764Y81986D01*
X35764Y81986D01*
X36382Y82910D01*
X36599Y84000D01*
X36599Y84000D01*
Y93070D01*
X37701Y94172D01*
X38418Y94005D01*
X38971Y93459D01*
Y79476D01*
X56769D01*
Y84476D01*
Y94543D01*
X57328Y94579D01*
X57761Y94580D01*
X57930Y94651D01*
X100088D01*
X100238Y94582D01*
X100531Y94570D01*
X100747Y94542D01*
X100956Y94496D01*
X101164Y94431D01*
X101372Y94346D01*
X101582Y94240D01*
X101796Y94108D01*
X102015Y93949D01*
X102238Y93762D01*
X102502Y93509D01*
X102569Y93483D01*
X104345Y92296D01*
X106439Y91880D01*
X106505Y91851D01*
X106870Y91843D01*
X107161Y91818D01*
X107428Y91775D01*
X107672Y91717D01*
X107896Y91644D01*
X108103Y91557D01*
X108296Y91456D01*
X108476Y91340D01*
X108649Y91207D01*
X108865Y91008D01*
X109019Y90952D01*
X114901Y85070D01*
Y77698D01*
X114831Y77537D01*
X114831Y77535D01*
X114020D01*
Y67620D01*
Y57705D01*
X116790D01*
Y58721D01*
X120774D01*
Y74735D01*
X120869Y74964D01*
X120805Y75120D01*
X120838Y75284D01*
X120781Y75369D01*
X120774Y75481D01*
Y76519D01*
X120707D01*
X120671Y77078D01*
X120670Y77511D01*
X120599Y77680D01*
Y86250D01*
X120599Y86250D01*
X120382Y87340D01*
X119764Y88264D01*
X113048Y94981D01*
X112992Y95135D01*
X112793Y95351D01*
X112660Y95524D01*
X112544Y95704D01*
X112443Y95897D01*
X112356Y96103D01*
X112283Y96328D01*
X112225Y96572D01*
X112182Y96840D01*
X112157Y97129D01*
X112149Y97495D01*
X112120Y97561D01*
X111704Y99655D01*
X110483Y101483D01*
X108655Y102704D01*
X106500Y103132D01*
D02*
G37*
G36*
X290228Y103431D02*
X282966Y96169D01*
X285455Y93680D01*
X292717Y100942D01*
X290228Y103431D01*
D02*
G37*
G36*
X13980Y93600D02*
X13010Y93407D01*
X11112Y92138D01*
X9843Y90240D01*
X9650Y89270D01*
X13980D01*
Y93600D01*
D02*
G37*
G36*
X28040Y89730D02*
X24020D01*
Y86460D01*
X28040D01*
Y89730D01*
D02*
G37*
G36*
X105770Y89600D02*
Y85270D01*
X110100D01*
X109907Y86240D01*
X108638Y88138D01*
X106740Y89407D01*
X105770Y89600D01*
D02*
G37*
G36*
X103230D02*
X102260Y89407D01*
X100362Y88138D01*
X99093Y86240D01*
X98900Y85270D01*
X103230D01*
Y89600D01*
D02*
G37*
G36*
X110100Y82730D02*
X105770D01*
Y78400D01*
X106740Y78593D01*
X108638Y79862D01*
X109907Y81760D01*
X110100Y82730D01*
D02*
G37*
G36*
X103230D02*
X98900D01*
X99093Y81760D01*
X100362Y79862D01*
X102260Y78593D01*
X103230Y78400D01*
Y82730D01*
D02*
G37*
G36*
X257020Y80350D02*
Y76020D01*
X261350D01*
X261157Y76990D01*
X259888Y78888D01*
X257990Y80157D01*
X257020Y80350D01*
D02*
G37*
G36*
X254480D02*
X253510Y80157D01*
X251612Y78888D01*
X250343Y76990D01*
X250150Y76020D01*
X254480D01*
Y80350D01*
D02*
G37*
G36*
X408980Y75350D02*
X408010Y75157D01*
X406112Y73888D01*
X404843Y71990D01*
X404650Y71020D01*
X408980D01*
Y75350D01*
D02*
G37*
G36*
X18540Y76230D02*
X13520D01*
Y70710D01*
X18540D01*
Y76230D01*
D02*
G37*
G36*
X10980D02*
X5960D01*
Y70710D01*
X10980D01*
Y76230D01*
D02*
G37*
G36*
X261350Y73480D02*
X257020D01*
Y69150D01*
X257990Y69343D01*
X259888Y70612D01*
X261157Y72510D01*
X261350Y73480D01*
D02*
G37*
G36*
X254480D02*
X250150D01*
X250343Y72510D01*
X251612Y70612D01*
X253510Y69343D01*
X254480Y69150D01*
Y73480D01*
D02*
G37*
G36*
X365770Y66600D02*
Y62270D01*
X370100D01*
X369907Y63240D01*
X368638Y65138D01*
X366740Y66407D01*
X365770Y66600D01*
D02*
G37*
G36*
X363230D02*
X362260Y66407D01*
X360362Y65138D01*
X359093Y63240D01*
X358900Y62270D01*
X363230D01*
Y66600D01*
D02*
G37*
G36*
X111480Y77535D02*
X108710D01*
Y76519D01*
X59726D01*
Y58721D01*
X108710D01*
Y57705D01*
X111480D01*
Y67620D01*
Y77535D01*
D02*
G37*
G36*
X370100Y59730D02*
X365770D01*
Y55400D01*
X366740Y55593D01*
X368638Y56862D01*
X369907Y58760D01*
X370100Y59730D01*
D02*
G37*
G36*
X363230D02*
X358900D01*
X359093Y58760D01*
X360362Y56862D01*
X362260Y55593D01*
X363230Y55400D01*
Y59730D01*
D02*
G37*
G36*
X58290Y62790D02*
X54020D01*
Y53020D01*
X58290D01*
Y62790D01*
D02*
G37*
G36*
X51480D02*
X47210D01*
Y53020D01*
X51480D01*
Y62790D01*
D02*
G37*
G36*
X70270Y56350D02*
Y52020D01*
X74600D01*
X74407Y52990D01*
X73138Y54888D01*
X71240Y56157D01*
X70270Y56350D01*
D02*
G37*
G36*
X67730D02*
X66760Y56157D01*
X64862Y54888D01*
X63593Y52990D01*
X63400Y52020D01*
X67730D01*
Y56350D01*
D02*
G37*
G36*
X87540Y55040D02*
X84020D01*
Y51270D01*
X87540D01*
Y55040D01*
D02*
G37*
G36*
X81480D02*
X77960D01*
Y51270D01*
X81480D01*
Y55040D01*
D02*
G37*
G36*
X181747Y51479D02*
X179435Y49166D01*
X182278Y46324D01*
X184590Y48636D01*
X181747Y51479D01*
D02*
G37*
G36*
X74600Y49480D02*
X70270D01*
Y45150D01*
X71240Y45343D01*
X73138Y46612D01*
X74407Y48510D01*
X74600Y49480D01*
D02*
G37*
G36*
X67730D02*
X63400D01*
X63593Y48510D01*
X64862Y46612D01*
X66760Y45343D01*
X67730Y45150D01*
Y49480D01*
D02*
G37*
G36*
X87540Y48730D02*
X84020D01*
Y44960D01*
X87540D01*
Y48730D01*
D02*
G37*
G36*
X81480D02*
X77960D01*
Y44960D01*
X81480D01*
Y48730D01*
D02*
G37*
G36*
X40250Y66317D02*
X38407Y65950D01*
X36844Y64906D01*
X35800Y63343D01*
X35433Y61500D01*
X35726Y60030D01*
Y41726D01*
X44774D01*
Y60029D01*
X45067Y61500D01*
X44700Y63343D01*
X43656Y64906D01*
X42093Y65950D01*
X40250Y66317D01*
D02*
G37*
G36*
X186386Y46840D02*
X184074Y44528D01*
X186916Y41685D01*
X189229Y43997D01*
X186386Y46840D01*
D02*
G37*
G36*
X161614Y46840D02*
X158771Y43997D01*
X161084Y41685D01*
X163926Y44528D01*
X161614Y46840D01*
D02*
G37*
G36*
X58290Y50480D02*
X54020D01*
Y40710D01*
X58290D01*
Y50480D01*
D02*
G37*
G36*
X51480D02*
X47210D01*
Y40710D01*
X51480D01*
Y50480D01*
D02*
G37*
G36*
X173520Y25850D02*
Y21520D01*
X177850D01*
X177657Y22490D01*
X176388Y24388D01*
X174490Y25657D01*
X173520Y25850D01*
D02*
G37*
G36*
X170980D02*
X170010Y25657D01*
X168112Y24388D01*
X166843Y22490D01*
X166650Y21520D01*
X170980D01*
Y25850D01*
D02*
G37*
G36*
X426520Y25350D02*
Y21020D01*
X430850D01*
X430657Y21990D01*
X429388Y23888D01*
X427490Y25157D01*
X426520Y25350D01*
D02*
G37*
G36*
X423980D02*
X423010Y25157D01*
X421112Y23888D01*
X419843Y21990D01*
X419650Y21020D01*
X423980D01*
Y25350D01*
D02*
G37*
G36*
X38770Y24100D02*
Y19770D01*
X43100D01*
X42907Y20740D01*
X41638Y22638D01*
X39740Y23907D01*
X38770Y24100D01*
D02*
G37*
G36*
X36230D02*
X35260Y23907D01*
X33362Y22638D01*
X32093Y20740D01*
X31900Y19770D01*
X36230D01*
Y24100D01*
D02*
G37*
G36*
X16790Y34790D02*
X10520D01*
Y19520D01*
X16790D01*
Y34790D01*
D02*
G37*
G36*
X177850Y18980D02*
X173520D01*
Y14650D01*
X174490Y14843D01*
X176388Y16112D01*
X177657Y18010D01*
X177850Y18980D01*
D02*
G37*
G36*
X170980D02*
X166650D01*
X166843Y18010D01*
X168112Y16112D01*
X170010Y14843D01*
X170980Y14650D01*
Y18980D01*
D02*
G37*
G36*
X100910Y20070D02*
X95090D01*
Y14250D01*
X100910D01*
Y20070D01*
D02*
G37*
G36*
X430850Y18480D02*
X426520D01*
Y14150D01*
X427490Y14343D01*
X429388Y15612D01*
X430657Y17510D01*
X430850Y18480D01*
D02*
G37*
G36*
X423980D02*
X419650D01*
X419843Y17510D01*
X421112Y15612D01*
X423010Y14343D01*
X423980Y14150D01*
Y18480D01*
D02*
G37*
G36*
X43100Y17230D02*
X38770D01*
Y12900D01*
X39740Y13093D01*
X41638Y14362D01*
X42907Y16260D01*
X43100Y17230D01*
D02*
G37*
G36*
X36230D02*
X31900D01*
X32093Y16260D01*
X33362Y14362D01*
X35260Y13093D01*
X36230Y12900D01*
Y17230D01*
D02*
G37*
G36*
X100910Y11710D02*
X95090D01*
Y5890D01*
X100910D01*
Y11710D01*
D02*
G37*
G36*
X85020Y25350D02*
Y19750D01*
Y14150D01*
X85460Y14238D01*
X86730Y13427D01*
Y5890D01*
X92550D01*
Y12980D01*
Y20070D01*
X89539D01*
X89157Y21990D01*
X87888Y23888D01*
X85990Y25157D01*
X85020Y25350D01*
D02*
G37*
%LPD*%
G36*
X362561Y289976D02*
X362545Y290121D01*
X362499Y290250D01*
X362421Y290365D01*
X362312Y290464D01*
X362172Y290548D01*
X362001Y290616D01*
X361799Y290669D01*
X361566Y290707D01*
X361302Y290730D01*
X361007Y290738D01*
Y292262D01*
X361302Y292270D01*
X361566Y292292D01*
X361799Y292331D01*
X362001Y292384D01*
X362172Y292453D01*
X362312Y292536D01*
X362421Y292635D01*
X362499Y292750D01*
X362545Y292879D01*
X362561Y293024D01*
Y289976D01*
D02*
G37*
G36*
X331895Y292879D02*
X331941Y292750D01*
X332019Y292635D01*
X332128Y292536D01*
X332268Y292453D01*
X332439Y292384D01*
X332641Y292331D01*
X332874Y292292D01*
X333138Y292270D01*
X333433Y292262D01*
Y290738D01*
X333138Y290730D01*
X332874Y290707D01*
X332641Y290669D01*
X332439Y290616D01*
X332268Y290548D01*
X332128Y290464D01*
X332019Y290365D01*
X331941Y290250D01*
X331895Y290121D01*
X331879Y289976D01*
Y293024D01*
X331895Y292879D01*
D02*
G37*
G36*
X426311Y283476D02*
X426295Y283621D01*
X426249Y283750D01*
X426171Y283865D01*
X426062Y283964D01*
X425922Y284048D01*
X425751Y284116D01*
X425549Y284169D01*
X425316Y284207D01*
X425052Y284230D01*
X424757Y284238D01*
Y285762D01*
X425052Y285770D01*
X425316Y285793D01*
X425549Y285831D01*
X425751Y285884D01*
X425922Y285952D01*
X426062Y286036D01*
X426171Y286135D01*
X426249Y286250D01*
X426295Y286379D01*
X426311Y286524D01*
Y283476D01*
D02*
G37*
G36*
X417735Y286379D02*
X417780Y286250D01*
X417857Y286135D01*
X417963Y286036D01*
X418101Y285952D01*
X418268Y285884D01*
X418466Y285831D01*
X418695Y285793D01*
X418954Y285770D01*
X419244Y285762D01*
Y284238D01*
X418954Y284230D01*
X418695Y284207D01*
X418466Y284169D01*
X418268Y284116D01*
X418101Y284048D01*
X417963Y283964D01*
X417857Y283865D01*
X417780Y283750D01*
X417735Y283621D01*
X417719Y283476D01*
Y286524D01*
X417735Y286379D01*
D02*
G37*
G36*
X397811Y283476D02*
X397795Y283621D01*
X397749Y283750D01*
X397671Y283865D01*
X397562Y283964D01*
X397422Y284048D01*
X397251Y284116D01*
X397049Y284169D01*
X396816Y284207D01*
X396552Y284230D01*
X396256Y284238D01*
Y285762D01*
X396552Y285770D01*
X396816Y285793D01*
X397049Y285831D01*
X397251Y285884D01*
X397422Y285952D01*
X397562Y286036D01*
X397671Y286135D01*
X397749Y286250D01*
X397795Y286379D01*
X397811Y286524D01*
Y283476D01*
D02*
G37*
G36*
X387955Y286379D02*
X388001Y286250D01*
X388079Y286135D01*
X388188Y286036D01*
X388328Y285952D01*
X388499Y285884D01*
X388701Y285831D01*
X388934Y285793D01*
X389198Y285770D01*
X389493Y285762D01*
Y284238D01*
X389198Y284230D01*
X388934Y284207D01*
X388701Y284169D01*
X388499Y284116D01*
X388328Y284048D01*
X388188Y283964D01*
X388079Y283865D01*
X388001Y283750D01*
X387955Y283621D01*
X387939Y283476D01*
Y286524D01*
X387955Y286379D01*
D02*
G37*
G36*
X381561Y283476D02*
X381545Y283621D01*
X381499Y283750D01*
X381421Y283865D01*
X381312Y283964D01*
X381172Y284048D01*
X381001Y284116D01*
X380799Y284169D01*
X380566Y284207D01*
X380302Y284230D01*
X380006Y284238D01*
Y285762D01*
X380302Y285770D01*
X380566Y285793D01*
X380799Y285831D01*
X381001Y285884D01*
X381172Y285952D01*
X381312Y286036D01*
X381421Y286135D01*
X381499Y286250D01*
X381545Y286379D01*
X381561Y286524D01*
Y283476D01*
D02*
G37*
G36*
X369547Y264219D02*
X369242Y263904D01*
X368762Y263340D01*
X368587Y263092D01*
X368454Y262865D01*
X368365Y262660D01*
X368319Y262478D01*
X368316Y262318D01*
X368356Y262180D01*
X368439Y262064D01*
X366314Y264189D01*
X366430Y264106D01*
X366568Y264066D01*
X366728Y264069D01*
X366910Y264115D01*
X367115Y264204D01*
X367341Y264337D01*
X367590Y264512D01*
X367861Y264731D01*
X368470Y265297D01*
X369547Y264219D01*
D02*
G37*
G36*
X402758Y277160D02*
X402872Y277106D01*
X403062Y277059D01*
X403329Y277018D01*
X404091Y276955D01*
X405806Y276908D01*
X406530Y276905D01*
Y273095D01*
X405806Y273092D01*
X402872Y272894D01*
X402758Y272840D01*
X402719Y272780D01*
Y277220D01*
X402758Y277160D01*
D02*
G37*
G36*
X412780Y272780D02*
X417719D01*
X417612Y272742D01*
X417516Y272628D01*
X417432Y272438D01*
X417358Y272171D01*
X417296Y271828D01*
X417245Y271409D01*
X417197Y270642D01*
X417235Y270225D01*
X417298Y269879D01*
X417379Y269560D01*
X417477Y269267D01*
X417594Y269000D01*
X417728Y268760D01*
X417880Y268545D01*
X418050Y268357D01*
X412450D01*
X412620Y268545D01*
X412772Y268760D01*
X412906Y269000D01*
X413023Y269267D01*
X413121Y269560D01*
X413202Y269879D01*
X413265Y270225D01*
X413292Y270449D01*
X413204Y271828D01*
X413142Y272171D01*
X413068Y272438D01*
X412984Y272628D01*
X412888Y272742D01*
X412780Y272780D01*
X412742Y272840D01*
X412628Y272894D01*
X412438Y272941D01*
X412171Y272982D01*
X411409Y273045D01*
X409694Y273092D01*
X408970Y273095D01*
Y276905D01*
X409694Y276908D01*
X412628Y277106D01*
X412742Y277160D01*
X412780Y277220D01*
Y272780D01*
D02*
G37*
G36*
X415210Y261500D02*
X414956Y261487D01*
X414697Y261443D01*
X414432Y261368D01*
X414161Y261261D01*
X413919Y261141D01*
X413727Y260875D01*
X413622Y260527D01*
X413625Y260124D01*
X413736Y259667D01*
X413954Y259156D01*
X414281Y258590D01*
X414715Y257969D01*
X415257Y257294D01*
X416664Y255781D01*
X413969Y253086D01*
X413186Y253844D01*
X411781Y255035D01*
X411160Y255469D01*
X410594Y255796D01*
X410083Y256014D01*
X409626Y256125D01*
X409223Y256128D01*
X408875Y256023D01*
X408581Y255811D01*
X413904Y261133D01*
X413884Y261124D01*
X413601Y260955D01*
X413313Y260755D01*
X413019Y260524D01*
X412719Y260262D01*
X412413Y259969D01*
X409719Y262663D01*
X410012Y262969D01*
X410505Y263563D01*
X410705Y263852D01*
X410874Y264134D01*
X411011Y264411D01*
X411118Y264682D01*
X411193Y264947D01*
X411237Y265207D01*
X411250Y265460D01*
X415210Y261500D01*
D02*
G37*
G36*
X422552Y249919D02*
X423959Y248725D01*
X424580Y248291D01*
X425146Y247964D01*
X425657Y247746D01*
X426114Y247635D01*
X426516Y247633D01*
X426862Y247739D01*
X427155Y247953D01*
X421835Y242563D01*
X422045Y242858D01*
X422147Y243208D01*
X422141Y243613D01*
X422026Y244072D01*
X421804Y244587D01*
X421474Y245157D01*
X421036Y245781D01*
X420489Y246460D01*
X419072Y247984D01*
X421766Y250678D01*
X422552Y249919D01*
D02*
G37*
G36*
X60250Y208302D02*
X60232Y208275D01*
X60217Y208230D01*
X60204Y208168D01*
X60193Y208087D01*
X60176Y207873D01*
X60167Y207417D01*
X58643D01*
X58642Y207587D01*
X58607Y208168D01*
X58593Y208230D01*
X58578Y208275D01*
X58561Y208302D01*
X58541Y208311D01*
X60269D01*
X60250Y208302D01*
D02*
G37*
G36*
X60168Y202413D02*
X60204Y201832D01*
X60217Y201770D01*
X60232Y201725D01*
X60250Y201698D01*
X60269Y201689D01*
X58541D01*
X58561Y201698D01*
X58578Y201725D01*
X58593Y201770D01*
X58607Y201832D01*
X58618Y201913D01*
X58634Y202127D01*
X58643Y202583D01*
X60167D01*
X60168Y202413D01*
D02*
G37*
G36*
X55240Y98932D02*
X55316Y98898D01*
X55443Y98868D01*
X55621Y98842D01*
X56129Y98802D01*
X57755Y98770D01*
Y96230D01*
X57272Y96228D01*
X55316Y96102D01*
X55240Y96068D01*
X55215Y96031D01*
Y98969D01*
X55240Y98932D01*
D02*
G37*
G36*
X40525Y96031D02*
X37985Y96000D01*
Y98540D01*
X38468Y98544D01*
X39890Y98647D01*
X40119Y98695D01*
X40297Y98750D01*
X40424Y98815D01*
X40500Y98888D01*
X40525Y98969D01*
Y96031D01*
D02*
G37*
G36*
X103643Y94700D02*
X103340Y94991D01*
X103030Y95251D01*
X102713Y95480D01*
X102390Y95679D01*
X102059Y95848D01*
X101722Y95985D01*
X101379Y96092D01*
X101028Y96169D01*
X100671Y96215D01*
X100307Y96230D01*
Y98770D01*
X100671Y98785D01*
X101028Y98831D01*
X101379Y98908D01*
X101722Y99015D01*
X102059Y99152D01*
X102390Y99321D01*
X102713Y99520D01*
X103030Y99749D01*
X103340Y100009D01*
X103643Y100300D01*
Y94700D01*
D02*
G37*
G36*
X110509Y97040D02*
X110544Y96637D01*
X110606Y96250D01*
X110694Y95881D01*
X110808Y95529D01*
X110949Y95193D01*
X111117Y94874D01*
X111310Y94572D01*
X111531Y94287D01*
X111777Y94019D01*
X109981Y92223D01*
X109713Y92469D01*
X109428Y92690D01*
X109126Y92883D01*
X108807Y93051D01*
X108471Y93192D01*
X108119Y93306D01*
X107750Y93394D01*
X107363Y93456D01*
X106960Y93491D01*
X106540Y93500D01*
X110500Y97460D01*
X110509Y97040D01*
D02*
G37*
G36*
X33266Y81720D02*
X32763Y81199D01*
X31972Y80265D01*
X31685Y79852D01*
X31470Y79475D01*
X31326Y79133D01*
X31254Y78828D01*
Y78559D01*
X31326Y78325D01*
X31470Y78127D01*
X27877Y81720D01*
X28075Y81576D01*
X28308Y81504D01*
X28578D01*
X28883Y81576D01*
X29225Y81720D01*
X29602Y81935D01*
X30015Y82222D01*
X30464Y82582D01*
X31470Y83516D01*
X33266Y81720D01*
D02*
G37*
G36*
X119022Y77022D02*
X119148Y75066D01*
X119182Y74990D01*
X119220Y74964D01*
X116280D01*
X116318Y74990D01*
X116352Y75066D01*
X116382Y75193D01*
X116408Y75371D01*
X116448Y75879D01*
X116480Y77505D01*
X119020D01*
X119022Y77022D01*
D02*
G37*
%LPC*%
G36*
X158350Y88730D02*
X154020D01*
Y84400D01*
X154990Y84593D01*
X156888Y85862D01*
X158157Y87760D01*
X158350Y88730D01*
D02*
G37*
G36*
X250520Y124350D02*
Y120020D01*
X254850D01*
X254657Y120990D01*
X253388Y122888D01*
X251490Y124157D01*
X250520Y124350D01*
D02*
G37*
G36*
X247980D02*
X247010Y124157D01*
X245112Y122888D01*
X243843Y120990D01*
X243650Y120020D01*
X247980D01*
Y124350D01*
D02*
G37*
G36*
X254850Y117480D02*
X250520D01*
Y113150D01*
X251490Y113343D01*
X253388Y114612D01*
X254657Y116510D01*
X254850Y117480D01*
D02*
G37*
G36*
X247980D02*
X243650D01*
X243843Y116510D01*
X245112Y114612D01*
X247010Y113343D01*
X247980Y113150D01*
Y117480D01*
D02*
G37*
G36*
X227770Y106350D02*
Y102020D01*
X232100D01*
X231907Y102990D01*
X230638Y104888D01*
X228740Y106157D01*
X227770Y106350D01*
D02*
G37*
G36*
X225230D02*
X224260Y106157D01*
X222362Y104888D01*
X221093Y102990D01*
X220900Y102020D01*
X225230D01*
Y106350D01*
D02*
G37*
G36*
X232100Y99480D02*
X227770D01*
Y95150D01*
X228740Y95343D01*
X230638Y96612D01*
X231907Y98510D01*
X232100Y99480D01*
D02*
G37*
G36*
X225230D02*
X220900D01*
X221093Y98510D01*
X222362Y96612D01*
X224260Y95343D01*
X225230Y95150D01*
Y99480D01*
D02*
G37*
%LPD*%
D13*
X186185Y64397D02*
X190250Y60332D01*
Y58532D02*
Y60332D01*
Y58532D02*
X192750Y56032D01*
Y55000D02*
Y56032D01*
X186185Y64397D02*
Y71086D01*
X159669Y73561D02*
X159669Y73561D01*
X155250Y55000D02*
X155780Y55530D01*
Y62983D01*
X159669Y66871D01*
Y73561D01*
X159315Y73914D02*
X159669Y73561D01*
X186185Y71086D02*
X191740D01*
X207850Y87196D01*
X203253Y91792D02*
X203253D01*
X194961Y83500D02*
X203253Y91792D01*
X183750Y83500D02*
X194961D01*
X159669Y73561D02*
X173811D01*
X183750Y83500D01*
X155262Y30000D02*
Y39238D01*
X145500Y49000D02*
X155262Y39238D01*
X145500Y49000D02*
Y98500D01*
X298000Y20000D02*
X312000D01*
X298000Y20000D02*
X298000Y20000D01*
X298500Y35000D02*
X312000D01*
X298000Y35500D02*
X298500Y35000D01*
X132400Y132270D02*
X132630Y132500D01*
X124574Y132270D02*
X132400D01*
X117739Y125435D02*
X124574Y132270D01*
X117739Y120989D02*
Y125435D01*
X117000Y120250D02*
X117739Y120989D01*
X132630Y132500D02*
X132755Y132625D01*
X148125D01*
X148250Y132750D01*
X40250Y160000D02*
Y165000D01*
Y155000D02*
Y160000D01*
X82750Y139000D02*
Y152380D01*
X62750Y140750D02*
Y152380D01*
X59500Y137500D02*
X62750Y140750D01*
X78250Y125250D01*
X35250Y137500D02*
X47870D01*
X30250Y142500D02*
X35250Y137500D01*
X30250Y142500D02*
Y155000D01*
X223759Y121490D02*
X248862Y146593D01*
X198657Y96388D02*
X223759Y121490D01*
X157000Y110000D02*
X172250D01*
X145500Y98500D02*
X157000Y110000D01*
X220508Y208633D02*
X224663Y204478D01*
X213141Y216000D02*
X220508Y208633D01*
Y208958D01*
X230980Y219429D01*
Y221588D01*
X242321Y232929D01*
X159750Y18750D02*
Y25512D01*
X143250Y30000D02*
X155262D01*
X159750Y25512D01*
X156000Y15000D02*
X159750Y18750D01*
X143250Y15000D02*
X156000D01*
X127750Y12500D02*
X136250D01*
X138750Y15000D01*
X143250D01*
X36770Y97270D02*
X47640D01*
X33750Y94250D02*
X36770Y97270D01*
X33750Y84000D02*
Y94250D01*
X27750Y78000D02*
X33750Y84000D01*
X27750Y77500D02*
Y78000D01*
X47640Y97270D02*
X47870Y97500D01*
Y137500D02*
X59500D01*
X78250Y125250D02*
X106500D01*
X118750Y137500D02*
X132630D01*
X106500Y125250D02*
X118750Y137500D01*
X117750Y67620D02*
Y86250D01*
X106500Y97500D02*
X117750Y86250D01*
X47870Y97500D02*
X106500D01*
X285631Y109823D02*
X286738D01*
X295243Y118328D01*
X297720D01*
X302321Y122929D01*
X221638Y73407D02*
X240193Y91962D01*
X267770D01*
X285631Y109823D01*
X164728Y264413D02*
X173250Y255891D01*
X177250D01*
X185772Y264413D01*
X177250Y229178D02*
Y255891D01*
Y229178D02*
X190428Y216000D01*
X213141D01*
X164728Y165587D02*
X173500Y174359D01*
X163608Y164467D02*
X164728Y165587D01*
X136444Y236128D02*
X173500Y199072D01*
Y174359D02*
Y199072D01*
X175250Y152500D02*
Y152500D01*
X163608Y164142D02*
X175250Y152500D01*
X163608Y164142D02*
Y164467D01*
D87*
X192750Y55000D02*
D03*
X186386Y48636D02*
D03*
X106386Y243636D02*
D03*
X112750Y250000D02*
D03*
D88*
X155250Y55000D02*
D03*
X161614Y48636D02*
D03*
X310250Y135000D02*
D03*
X316614Y128636D02*
D03*
D89*
X159315Y73914D02*
D03*
X174164Y59065D02*
D03*
X186185Y71086D02*
D03*
X171336Y85935D02*
D03*
D90*
X18500Y299750D02*
D03*
Y250250D02*
D03*
Y229750D02*
D03*
Y180250D02*
D03*
D91*
X52000Y281250D02*
D03*
Y268750D02*
D03*
Y211250D02*
D03*
Y198750D02*
D03*
D92*
X119250Y170000D02*
D03*
X110250D02*
D03*
X256750Y265000D02*
D03*
X247750D02*
D03*
X227750Y30000D02*
D03*
X236750D02*
D03*
D93*
X160250Y100000D02*
D03*
X153179Y92929D02*
D03*
D94*
X164290Y141540D02*
D03*
X175250Y152500D02*
D03*
D95*
X12250Y77500D02*
D03*
X27750D02*
D03*
X394750Y260000D02*
D03*
X410250D02*
D03*
X380250D02*
D03*
X364750D02*
D03*
X292250Y202500D02*
D03*
X307750D02*
D03*
D96*
X22750Y91000D02*
D03*
Y100000D02*
D03*
D97*
X127750Y22500D02*
D03*
Y12500D02*
D03*
X415250Y285000D02*
D03*
Y275000D02*
D03*
X400250Y285000D02*
D03*
Y275000D02*
D03*
X70250Y200000D02*
D03*
Y210000D02*
D03*
Y270000D02*
D03*
Y280000D02*
D03*
D98*
X92750Y50000D02*
D03*
X82750D02*
D03*
X40250Y155000D02*
D03*
X30250D02*
D03*
Y165000D02*
D03*
X40250D02*
D03*
X227750Y40000D02*
D03*
X237750D02*
D03*
X317750Y215000D02*
D03*
X307750D02*
D03*
D99*
X365250Y225500D02*
D03*
Y210000D02*
D03*
D100*
X327390Y289520D02*
D03*
Y270480D02*
D03*
X350250Y280000D02*
D03*
X327390Y254520D02*
D03*
Y235480D02*
D03*
X350250Y245000D02*
D03*
X93820Y32020D02*
D03*
Y12980D02*
D03*
X116680Y22500D02*
D03*
D101*
X252321Y242929D02*
D03*
X245250Y250000D02*
D03*
X235250Y240000D02*
D03*
X242321Y232929D02*
D03*
X295250Y130000D02*
D03*
X302321Y122929D02*
D03*
X270250Y160000D02*
D03*
X277321Y152929D02*
D03*
X317321Y147929D02*
D03*
X310250Y155000D02*
D03*
D102*
X453750Y265000D02*
D03*
Y245000D02*
D03*
X426750Y265000D02*
D03*
Y245000D02*
D03*
D103*
X453750Y255000D02*
D03*
D104*
X384750Y291500D02*
D03*
Y278500D02*
D03*
Y285000D02*
D03*
X365750Y278500D02*
D03*
Y291500D02*
D03*
D105*
X341750Y200500D02*
D03*
X328750D02*
D03*
X335250D02*
D03*
X328750Y219500D02*
D03*
X341750D02*
D03*
D106*
X445250Y285000D02*
D03*
X430250D02*
D03*
D107*
X47870Y137500D02*
D03*
Y132500D02*
D03*
Y127500D02*
D03*
Y122500D02*
D03*
Y117500D02*
D03*
Y112500D02*
D03*
Y107500D02*
D03*
Y102500D02*
D03*
Y97500D02*
D03*
Y92500D02*
D03*
Y87500D02*
D03*
Y82500D02*
D03*
X132630D02*
D03*
Y87500D02*
D03*
Y92500D02*
D03*
Y97500D02*
D03*
Y102500D02*
D03*
Y107500D02*
D03*
Y112500D02*
D03*
Y117500D02*
D03*
Y122500D02*
D03*
Y127500D02*
D03*
Y132500D02*
D03*
Y137500D02*
D03*
D108*
X62750Y67620D02*
D03*
X67750D02*
D03*
X72750D02*
D03*
X77750D02*
D03*
X82750D02*
D03*
X87750D02*
D03*
X92750D02*
D03*
X97750D02*
D03*
X102750D02*
D03*
X107750D02*
D03*
X112750D02*
D03*
X117750D02*
D03*
Y152380D02*
D03*
X112750D02*
D03*
X107750D02*
D03*
X102750D02*
D03*
X97750D02*
D03*
X92750D02*
D03*
X87750D02*
D03*
X82750D02*
D03*
X77750D02*
D03*
X72750D02*
D03*
X67750D02*
D03*
X62750D02*
D03*
D109*
X164728Y264413D02*
D03*
X161193Y260877D02*
D03*
X157657Y257341D02*
D03*
X154122Y253806D02*
D03*
X150586Y250271D02*
D03*
X147051Y246735D02*
D03*
X143515Y243199D02*
D03*
X139979Y239664D02*
D03*
X136444Y236128D02*
D03*
X132908Y232593D02*
D03*
X129373Y229057D02*
D03*
X125837Y225522D02*
D03*
X185772Y165587D02*
D03*
X189307Y169123D02*
D03*
X192843Y172659D02*
D03*
X196378Y176194D02*
D03*
X199914Y179729D02*
D03*
X203449Y183265D02*
D03*
X206985Y186801D02*
D03*
X210520Y190336D02*
D03*
X214056Y193872D02*
D03*
X217591Y197407D02*
D03*
X221127Y200943D02*
D03*
X224663Y204478D02*
D03*
D110*
X125837D02*
D03*
X129373Y200943D02*
D03*
X132908Y197407D02*
D03*
X136444Y193872D02*
D03*
X139979Y190336D02*
D03*
X143515Y186801D02*
D03*
X147051Y183265D02*
D03*
X150586Y179729D02*
D03*
X154122Y176194D02*
D03*
X157657Y172659D02*
D03*
X161193Y169123D02*
D03*
X164728Y165587D02*
D03*
X224663Y225522D02*
D03*
X221127Y229057D02*
D03*
X217591Y232593D02*
D03*
X214056Y236128D02*
D03*
X210520Y239664D02*
D03*
X206985Y243199D02*
D03*
X203449Y246735D02*
D03*
X199914Y250271D02*
D03*
X196378Y253806D02*
D03*
X192843Y257341D02*
D03*
X189307Y260877D02*
D03*
X185772Y264413D02*
D03*
D111*
X337750Y70000D02*
D03*
Y57300D02*
D03*
Y44600D02*
D03*
Y31900D02*
D03*
Y82700D02*
D03*
Y95400D02*
D03*
Y108100D02*
D03*
X452750Y70000D02*
D03*
Y57300D02*
D03*
Y44600D02*
D03*
Y31900D02*
D03*
Y82700D02*
D03*
Y95400D02*
D03*
Y108100D02*
D03*
D112*
X312000Y15000D02*
D03*
X268000Y35000D02*
D03*
Y30000D02*
D03*
Y25000D02*
D03*
Y20000D02*
D03*
X312000D02*
D03*
Y25000D02*
D03*
Y30000D02*
D03*
Y35000D02*
D03*
X268000Y15000D02*
D03*
X143250Y35000D02*
D03*
X187250Y15000D02*
D03*
Y20000D02*
D03*
Y25000D02*
D03*
Y30000D02*
D03*
X143250D02*
D03*
Y25000D02*
D03*
Y20000D02*
D03*
Y15000D02*
D03*
X187250Y35000D02*
D03*
D113*
X15250Y139500D02*
D03*
Y127500D02*
D03*
Y115500D02*
D03*
D114*
X138735Y283485D02*
D03*
X130250Y275000D02*
D03*
X121765Y266515D02*
D03*
D115*
X9250Y18250D02*
D03*
X71250D02*
D03*
D116*
X27750Y51750D02*
D03*
X52750D02*
D03*
X40250Y51750D02*
D03*
D117*
X97548Y206087D02*
D03*
X102144Y201490D02*
D03*
X106741Y196894D02*
D03*
X92952Y173913D02*
D03*
X79163Y187702D02*
D03*
X83759Y183106D02*
D03*
X88356Y178510D02*
D03*
X111337Y192298D02*
D03*
X230048Y291087D02*
D03*
X234644Y286490D02*
D03*
X239240Y281894D02*
D03*
X225452Y258913D02*
D03*
X211663Y272702D02*
D03*
X216259Y268106D02*
D03*
X220856Y263510D02*
D03*
X243837Y277298D02*
D03*
D118*
X389125Y167500D02*
D03*
Y172500D02*
D03*
Y177500D02*
D03*
Y182500D02*
D03*
Y187500D02*
D03*
Y192500D02*
D03*
Y197500D02*
D03*
Y202500D02*
D03*
D119*
X389125Y209000D02*
D03*
X389125Y217000D02*
D03*
Y161000D02*
D03*
Y153000D02*
D03*
D120*
X180272Y114773D02*
D03*
X184869Y110177D02*
D03*
X189465Y105581D02*
D03*
X194061Y100984D02*
D03*
X198657Y96388D02*
D03*
X203253Y91792D02*
D03*
X207850Y87196D02*
D03*
X212446Y82600D02*
D03*
X217042Y78003D02*
D03*
X221638Y73407D02*
D03*
X226234Y68811D02*
D03*
X230831Y64215D02*
D03*
X235427Y59619D02*
D03*
X240023Y55022D02*
D03*
X290228Y105227D02*
D03*
X285631Y109823D02*
D03*
X281035Y114419D02*
D03*
X276439Y119016D02*
D03*
X271843Y123612D02*
D03*
X267247Y128208D02*
D03*
X262650Y132804D02*
D03*
X258054Y137400D02*
D03*
X253458Y141997D02*
D03*
X248862Y146593D02*
D03*
X244266Y151189D02*
D03*
X239669Y155785D02*
D03*
X235073Y160381D02*
D03*
X230477Y164978D02*
D03*
D121*
X238366Y265000D02*
X239500D01*
X235116Y268250D02*
X238366Y265000D01*
X226084Y268250D02*
X235116D01*
X220856Y263510D02*
X221344D01*
X226084Y268250D01*
X298000Y20000D02*
Y35500D01*
Y14000D02*
Y20000D01*
Y35500D02*
Y93500D01*
X419350Y44600D02*
X452750D01*
X383000Y8250D02*
X419350Y44600D01*
X303750Y8250D02*
X383000D01*
X298000Y14000D02*
X303750Y8250D01*
X298000Y93500D02*
X330250Y125750D01*
X83759Y182618D02*
Y183106D01*
X78995Y177854D02*
X83759Y182618D01*
X78995Y172246D02*
Y177854D01*
X78500Y171750D02*
X78995Y172246D01*
X270000Y160000D02*
X276750Y166750D01*
X350250Y262500D02*
Y280000D01*
Y245000D02*
Y262500D01*
X359500Y210000D02*
X365250D01*
X337000D02*
X359500D01*
X264030Y153780D02*
X270250Y160000D01*
X264030Y152569D02*
Y153780D01*
X253458Y141997D02*
X264030Y152569D01*
X270000Y160000D02*
X270250D01*
X337015Y161000D02*
X389125D01*
X331265Y166750D02*
X337015Y161000D01*
X276750Y166750D02*
X331265D01*
X328750Y218250D02*
X337000Y210000D01*
X328750Y218250D02*
Y219500D01*
X239500Y265000D02*
X247750D01*
X400250Y275000D02*
X415250D01*
X410250Y260000D02*
Y260500D01*
X415250Y265500D01*
Y275000D01*
X110250Y170000D02*
Y173500D01*
X100000Y183750D02*
X110250Y173500D01*
X94084Y183750D02*
X100000D01*
X88844Y178510D02*
X94084Y183750D01*
X88356Y178510D02*
X88844D01*
X443500Y265000D02*
X453750D01*
X440750Y262250D02*
X443500Y265000D01*
X440750Y250250D02*
Y262250D01*
Y250250D02*
X444905Y246095D01*
X452655D02*
X453750Y245000D01*
X444905Y246095D02*
X452655D01*
X424750Y245000D02*
X426750D01*
X412095Y257655D02*
X424750Y245000D01*
X412095Y257655D02*
Y258155D01*
X410250Y260000D02*
X412095Y258155D01*
X388625Y209500D02*
X389125Y209000D01*
X365750Y209500D02*
X388625D01*
X365250Y210000D02*
X365750Y209500D01*
D122*
X70250Y280000D02*
X70500D01*
X70000D02*
X70250D01*
X70500D02*
X71988Y278512D01*
X86268Y276524D02*
X114462Y304718D01*
X72881Y276524D02*
X86268D01*
X71988Y277417D02*
Y278512D01*
Y277417D02*
X72881Y276524D01*
X68512Y278512D02*
X70000Y280000D01*
X57167Y281250D02*
X59405Y279012D01*
X52000Y281250D02*
X57167D01*
X68512Y277417D02*
Y278512D01*
X67619Y276524D02*
X68512Y277417D01*
X60298Y276524D02*
X67619D01*
X59405Y277417D02*
Y279012D01*
Y277417D02*
X60298Y276524D01*
X115724Y301670D02*
X234513D01*
X87530Y273476D02*
X115724Y301670D01*
X72881Y273476D02*
X87530D01*
X71988Y271488D02*
Y272583D01*
X72881Y273476D01*
X70500Y270000D02*
X71988Y271488D01*
X70000Y270000D02*
X70250D01*
X70500D01*
X67619Y273476D02*
X68512Y272583D01*
X60298Y273476D02*
X67619D01*
X68512Y271488D02*
Y272583D01*
X59405Y270988D02*
Y272583D01*
X60298Y273476D01*
X68512Y271488D02*
X70000Y270000D01*
X57167Y268750D02*
X59405Y270988D01*
X52000Y268750D02*
X57167D01*
X234513Y301670D02*
X242177Y294006D01*
X239846Y289251D02*
X242177Y291583D01*
X245225Y290320D02*
Y295268D01*
X239240Y281894D02*
Y283999D01*
X242001Y286760D02*
Y287096D01*
X239240Y283999D02*
X242001Y286760D01*
X236749Y286490D02*
X239510Y289251D01*
X234644Y286490D02*
X236749D01*
X114462Y304718D02*
X235776D01*
X245225Y295268D01*
X242001Y287096D02*
X245225Y290320D01*
X242177Y291583D02*
Y294006D01*
X239510Y289251D02*
X239846D01*
X223347Y258913D02*
X225452D01*
X219934Y255500D02*
X223347Y258913D01*
X216000Y255500D02*
X219934D01*
X203616Y260000D02*
X211500D01*
X216000Y255500D01*
X196378Y253806D02*
X197422D01*
X203616Y260000D01*
X200958Y250271D02*
X206687Y256000D01*
X209250D01*
X225250Y240000D01*
X235073Y239823D02*
X235250Y240000D01*
X232969Y239823D02*
X235073D01*
X232792Y240000D02*
X232969Y239823D01*
X225250Y240000D02*
X232792D01*
X199914Y250271D02*
X200958D01*
X192843Y257341D02*
X200925Y265424D01*
X204385D01*
X211663Y272702D01*
X70000Y210000D02*
X70250D01*
X68512Y208512D02*
X70000Y210000D01*
X68512Y207417D02*
Y208512D01*
X67619Y206524D02*
X68512Y207417D01*
X57167Y211250D02*
X59405Y209012D01*
X52000Y211250D02*
X57167D01*
X59405Y207417D02*
Y209012D01*
X62007Y206524D02*
X62007Y206524D01*
X67619D01*
X59405Y207417D02*
X60298Y206524D01*
X62007D01*
X67619Y203476D02*
X68512Y202583D01*
Y201488D02*
Y202583D01*
Y201488D02*
X70000Y200000D01*
X70250D01*
X63270Y203476D02*
X67619D01*
X63269Y203476D02*
X63270Y203476D01*
X60298Y203476D02*
X63269D01*
X59405Y202583D02*
X60298Y203476D01*
X59405Y200988D02*
Y202583D01*
X57167Y198750D02*
X59405Y200988D01*
X52000Y198750D02*
X57167D01*
X109502Y201760D02*
Y202096D01*
X113298Y205893D01*
X107346Y204251D02*
X110250Y207155D01*
X107010Y204251D02*
X107346D01*
X104249Y201490D02*
X107010Y204251D01*
X106741Y196894D02*
Y198999D01*
X109502Y201760D01*
X102144Y201490D02*
X104249D01*
X107262Y222298D02*
X113298Y216262D01*
Y205893D02*
Y216262D01*
X106000Y219250D02*
X110250Y215000D01*
Y207155D02*
Y215000D01*
X93560Y219250D02*
X106000D01*
X92298Y222298D02*
X107262D01*
X76524Y206524D02*
X92298Y222298D01*
X77786Y203476D02*
X93560Y219250D01*
X71988Y207417D02*
Y208512D01*
X70500Y210000D02*
X71988Y208512D01*
X70250Y210000D02*
X70500D01*
X72881Y206524D02*
X76524D01*
X71988Y207417D02*
X72881Y206524D01*
X71988Y201488D02*
Y202583D01*
X72881Y203476D01*
X77786D01*
X70250Y200000D02*
X70500D01*
X71988Y201488D01*
X180250Y92750D02*
X185827D01*
X173000Y100000D02*
X180250Y92750D01*
X160250Y100000D02*
X173000D01*
X427000Y70000D02*
X452750D01*
X376250Y19250D02*
X427000Y70000D01*
X329750Y23750D02*
X374750D01*
X433700Y82700D01*
X327750Y19250D02*
X376250D01*
X312000Y25000D02*
X322000D01*
X327750Y19250D01*
X433700Y82700D02*
X452750D01*
X312000Y30000D02*
X323500D01*
X329750Y23750D01*
X334012Y201738D02*
Y204988D01*
X330250Y208750D02*
X334012Y204988D01*
X326000Y208750D02*
X330250D01*
X334012Y201738D02*
X335250Y200500D01*
X37116Y107500D02*
X47870D01*
X22750Y100000D02*
X29616D01*
X37116Y107500D01*
X327390Y289520D02*
X329370Y291500D01*
X365750D01*
X341750Y219500D02*
Y240160D01*
X327390Y254520D02*
X341750Y240160D01*
X415250Y285000D02*
X430250D01*
X321488Y213262D02*
X326000Y208750D01*
X319238Y213262D02*
X321488D01*
X317750Y214750D02*
Y215000D01*
Y214750D02*
X319238Y213262D01*
X307750Y202500D02*
Y203000D01*
X316262Y211512D01*
Y213512D01*
X317750Y215000D01*
X364750Y260000D02*
Y260500D01*
X375000Y270750D01*
Y281500D01*
X378500Y285000D02*
X384750D01*
X375000Y281500D02*
X378500Y285000D01*
X384750D02*
X400250D01*
X227750Y30000D02*
Y40000D01*
X235427Y59619D02*
Y59619D01*
X227750Y51942D02*
X235427Y59619D01*
X227750Y40000D02*
Y51942D01*
X295250Y130000D02*
X299720Y134470D01*
X309720D01*
X310250Y135000D01*
X281212Y125962D02*
X310250Y155000D01*
X281212Y123789D02*
Y125962D01*
X276439Y119016D02*
X281212Y123789D01*
X281035Y114419D02*
Y115102D01*
X295250Y129317D01*
Y130000D01*
X262650Y132804D02*
X271758Y141912D01*
Y147366D01*
X277321Y152929D01*
X139898Y121762D02*
X140136Y121524D01*
X133368Y118238D02*
X139898D01*
X133368Y121762D02*
X139898D01*
Y118238D02*
X140136Y118476D01*
Y121524D02*
X167213D01*
X140136Y118476D02*
X168476D01*
X132630Y117500D02*
X133368Y118238D01*
X132630Y122500D02*
X133368Y121762D01*
X191500Y129750D02*
X197316Y123934D01*
X167213Y121524D02*
X178487Y132798D01*
X192763D01*
X168476Y118476D02*
X179750Y129750D01*
X191500D01*
X192763Y132798D02*
X200364Y125196D01*
X192546Y115413D02*
X197316Y120184D01*
X200364Y118921D02*
Y125196D01*
X194701Y113258D02*
X200364Y118921D01*
X197316Y120184D02*
Y123934D01*
X186973Y110177D02*
X192209Y115413D01*
X189465Y107685D02*
X194701Y112921D01*
Y113258D01*
X184869Y110177D02*
X186973D01*
X192209Y115413D02*
X192546D01*
X189465Y105581D02*
Y107685D01*
X185827Y92750D02*
X194061Y100984D01*
X218673Y187874D02*
Y188211D01*
X218042Y170352D02*
Y184195D01*
X212512Y164823D02*
X218042Y170352D01*
X215560Y163561D02*
X221090Y169090D01*
X214056Y192828D02*
X218673Y188211D01*
X216518Y185719D02*
X218042Y184195D01*
X210520Y190336D02*
X211564D01*
X214056Y192828D02*
Y193872D01*
X216181Y185719D02*
X216518D01*
X211564Y190336D02*
X216181Y185719D01*
X221090Y169090D02*
Y185457D01*
X218673Y187874D02*
X221090Y185457D01*
X215560Y159750D02*
X219534Y155777D01*
X215560Y159750D02*
Y163561D01*
X212512Y158488D02*
Y164823D01*
X225241Y157637D02*
X230477Y162873D01*
X224980Y152729D02*
X227396Y155146D01*
X227733D01*
X232969Y160381D01*
X223717Y155777D02*
X225241Y157301D01*
X230477Y162873D02*
Y164978D01*
X212512Y158488D02*
X218271Y152729D01*
X224980D01*
X219534Y155777D02*
X223717D01*
X225241Y157301D02*
Y157637D01*
X232969Y160381D02*
X235073D01*
X143515Y243199D02*
X143515D01*
X136714Y250000D02*
X143515Y243199D01*
X115562Y250000D02*
X136714D01*
X115031Y249470D02*
X115562Y250000D01*
X113280Y249470D02*
X115031D01*
X112750Y250000D02*
X113280Y249470D01*
X235250Y240000D02*
X245250Y250000D01*
X138735Y283485D02*
X143331Y278889D01*
Y257525D02*
Y278889D01*
Y257525D02*
X150586Y250271D01*
X121765Y266515D02*
X126361Y261919D01*
X131867D01*
X147051Y246735D01*
X72750Y152380D02*
Y181289D01*
X79163Y187702D01*
X77750Y152380D02*
Y160816D01*
X90848Y173913D01*
X92952D01*
X38209Y117500D02*
X47870D01*
X30525Y125184D02*
X38209Y117500D01*
X30525Y125184D02*
Y130725D01*
X21750Y139500D02*
X30525Y130725D01*
X15250Y139500D02*
X21750D01*
X15250Y115500D02*
X30982D01*
X33983Y112500D01*
X47870D01*
X92750Y33090D02*
X93820Y32020D01*
X90032Y35808D02*
X92750Y33090D01*
X34942Y35808D02*
X90032D01*
X27750Y51750D02*
X29988Y49512D01*
Y40762D02*
Y49512D01*
Y40762D02*
X34942Y35808D01*
X92750Y33090D02*
Y50000D01*
X116680Y22500D02*
X127750D01*
X130500Y20000D02*
X143250D01*
X128000Y22500D02*
X130500Y20000D01*
X127750Y22500D02*
X128000D01*
X195536Y19024D02*
X199702Y23190D01*
X187988Y19262D02*
X193143D01*
X193381Y15976D02*
X196798D01*
X187250Y20000D02*
X187988Y19262D01*
X196798Y15976D02*
X202750Y21927D01*
X187988Y15738D02*
X193143D01*
X193381Y19024D02*
X195536D01*
X193143Y19262D02*
X193381Y19024D01*
X193143Y15738D02*
X193381Y15976D01*
X187250Y15000D02*
X187988Y15738D01*
X199702Y23190D02*
Y67415D01*
X209365Y72768D02*
X209702D01*
X214938Y78003D01*
X217042D01*
X199702Y67415D02*
X207210Y74923D01*
Y75259D01*
X212446Y80495D01*
Y82600D01*
X202750Y21927D02*
Y66152D01*
X209365Y72768D01*
X383762Y178238D02*
X388387D01*
X383286Y178714D02*
X383762Y178238D01*
X269349Y178714D02*
X383286D01*
X381000Y189858D02*
X382904Y191762D01*
X381000Y181762D02*
Y189858D01*
Y181762D02*
X388387D01*
X268087D02*
X381000D01*
X388387Y191762D02*
X389125Y192500D01*
X388387Y183238D02*
X389125Y182500D01*
X382904Y191762D02*
X388387D01*
X392911Y186762D02*
X395346D01*
X397161Y184947D01*
X392173Y187500D02*
X392911Y186762D01*
X397161Y180053D02*
Y184947D01*
X395346Y178238D02*
X397161Y180053D01*
X389863Y178238D02*
X395346D01*
X389125Y177500D02*
X389863Y178238D01*
X388387D02*
X389125Y177500D01*
X249501Y158866D02*
X269349Y178714D01*
X247346Y161021D02*
X268087Y181762D01*
X247010Y161021D02*
X247346D01*
X241774Y155785D02*
X247010Y161021D01*
X239669Y155785D02*
X241774D01*
X244266Y151189D02*
Y153293D01*
X388387Y181762D02*
X389125Y182500D01*
X244266Y153293D02*
X249501Y158529D01*
Y158866D01*
X224107Y20893D02*
X245320D01*
X262107Y34262D02*
X267262D01*
X259714Y30976D02*
X261869D01*
Y34024D02*
X262107Y34262D01*
X246583Y17845D02*
X259714Y30976D01*
X267262Y30738D02*
X268000Y30000D01*
X258451Y34024D02*
X261869D01*
X222845Y17845D02*
X246583D01*
X262107Y30738D02*
X267262D01*
X245320Y20893D02*
X258451Y34024D01*
X267262Y34262D02*
X268000Y35000D01*
X261869Y30976D02*
X262107Y30738D01*
X220595Y20095D02*
X222845Y17845D01*
X215500Y29500D02*
X224107Y20893D01*
X212452Y28238D02*
X220595Y20095D01*
X228726Y64215D02*
X230831D01*
X212452Y28238D02*
Y52588D01*
X215500Y51325D02*
X223154Y58979D01*
X223490D01*
X228726Y64215D01*
X226234Y66707D02*
Y68811D01*
X212452Y52588D02*
X220998Y61134D01*
Y61471D01*
X226234Y66707D01*
X215500Y29500D02*
Y51325D01*
D123*
X394875Y141799D02*
D03*
X394876Y228200D02*
D03*
D124*
X436375Y141801D02*
D03*
X436376Y228201D02*
D03*
D125*
X399874Y156100D02*
D03*
Y213901D02*
D03*
D126*
X221750Y273500D02*
D03*
X227250Y290750D02*
D03*
X171000Y90250D02*
D03*
X172750Y52500D02*
D03*
X425250Y19750D02*
D03*
X330250Y105000D02*
D03*
X364500Y61000D02*
D03*
X410250Y69750D02*
D03*
X345250Y45000D02*
D03*
X74000Y297000D02*
D03*
X71000Y240250D02*
D03*
X369500Y124250D02*
D03*
X411500Y118000D02*
D03*
X316250Y125000D02*
D03*
X239500Y27500D02*
D03*
X172250Y20250D02*
D03*
X99750Y211250D02*
D03*
X122750Y170000D02*
D03*
X142500Y157000D02*
D03*
X162500Y138500D02*
D03*
X148250Y132750D02*
D03*
X152750Y90000D02*
D03*
X303000Y300000D02*
D03*
X281000Y275500D02*
D03*
X284250Y249000D02*
D03*
X254000Y192000D02*
D03*
X197250Y274250D02*
D03*
X254500Y240500D02*
D03*
X292000Y198250D02*
D03*
X343750Y197250D02*
D03*
X390750Y300250D02*
D03*
X391000Y260000D02*
D03*
X458500Y254750D02*
D03*
X449250Y284750D02*
D03*
X21000Y272750D02*
D03*
X20500Y204250D02*
D03*
X19500Y165750D02*
D03*
X6500Y127750D02*
D03*
X15250Y88000D02*
D03*
X37500Y18500D02*
D03*
X83750Y19750D02*
D03*
X69000Y50750D02*
D03*
X104500Y84000D02*
D03*
X117000Y120250D02*
D03*
X64750Y110500D02*
D03*
X255750Y74750D02*
D03*
X226500Y100750D02*
D03*
X249250Y118750D02*
D03*
X205500Y139500D02*
D03*
X196750Y200750D02*
D03*
X191250Y233750D02*
D03*
X155000D02*
D03*
X152000Y202500D02*
D03*
X104000Y241250D02*
D03*
X124250Y280750D02*
D03*
X40250Y160000D02*
D03*
X82750Y139000D02*
D03*
X100000Y183750D02*
D03*
X305500Y217500D02*
D03*
X172250Y110000D02*
D03*
X40250Y61500D02*
D03*
X241750Y40000D02*
D03*
X363000Y276500D02*
D03*
X78500Y171750D02*
D03*
D127*
X330250Y125750D02*
D03*
X322750Y240000D02*
D03*
Y275000D02*
D03*
X106500Y97500D02*
D03*
Y125250D02*
D03*
X223759Y121490D02*
D03*
X240193Y91962D02*
D03*
X173500Y199072D02*
D03*
X190428Y216000D02*
D03*
X239500Y265000D02*
D03*
X350250Y262500D02*
D03*
X415250Y265500D02*
D03*
X337015Y161000D02*
D03*
X359500Y210000D02*
D03*
X440750Y250250D02*
D03*
M02*
