G04*
G04 #@! TF.GenerationSoftware,Altium Limited,Altium Designer,20.0.13 (296)*
G04*
G04 Layer_Color=32896*
%FSLAX44Y44*%
%MOMM*%
G71*
G01*
G75*
G36*
X22670Y31834D02*
X22786Y31824D01*
X22892Y31803D01*
X22976Y31782D01*
X23040Y31771D01*
X23082Y31750D01*
X23092D01*
X23209Y31708D01*
X23314Y31655D01*
X23409Y31602D01*
X23483Y31549D01*
X23547Y31507D01*
X23600Y31465D01*
X23631Y31444D01*
X23642Y31433D01*
X23726Y31348D01*
X23811Y31264D01*
X23885Y31169D01*
X23948Y31084D01*
X24001Y31000D01*
X24043Y30936D01*
X24065Y30894D01*
X24075Y30884D01*
X24117Y30810D01*
X24149Y30735D01*
X24234Y30545D01*
X24318Y30345D01*
X24392Y30144D01*
X24455Y29954D01*
X24487Y29869D01*
X24519Y29806D01*
X24529Y29742D01*
X24550Y29700D01*
X24561Y29668D01*
Y29658D01*
X24603Y29520D01*
X24646Y29394D01*
X24688Y29277D01*
X24730Y29161D01*
X24804Y28981D01*
X24867Y28834D01*
X24910Y28728D01*
X24952Y28654D01*
X24973Y28601D01*
X24984Y28591D01*
X25058Y28485D01*
X25132Y28400D01*
X25216Y28316D01*
X25280Y28263D01*
X25343Y28210D01*
X25396Y28179D01*
X25427Y28157D01*
X25438Y28147D01*
X25544Y28105D01*
X25649Y28073D01*
X25766Y28041D01*
X25871Y28031D01*
X25966Y28020D01*
X26040Y28009D01*
X26083D01*
X26104D01*
X26336Y28031D01*
X26526Y28073D01*
X26695Y28126D01*
X26833Y28200D01*
X26949Y28263D01*
X27023Y28326D01*
X27076Y28369D01*
X27087Y28379D01*
X27203Y28527D01*
X27287Y28696D01*
X27340Y28876D01*
X27382Y29045D01*
X27404Y29203D01*
X27425Y29320D01*
Y29436D01*
X27414Y29668D01*
X27382Y29880D01*
X27329Y30059D01*
X27277Y30218D01*
X27224Y30334D01*
X27171Y30419D01*
X27139Y30471D01*
X27129Y30492D01*
X27002Y30630D01*
X26865Y30746D01*
X26717Y30831D01*
X26569Y30905D01*
X26431Y30968D01*
X26326Y31000D01*
X26283Y31010D01*
X26252Y31021D01*
X26231Y31031D01*
X26220D01*
X26379Y31708D01*
X26674Y31613D01*
X26917Y31496D01*
X27129Y31370D01*
X27308Y31243D01*
X27435Y31126D01*
X27530Y31031D01*
X27583Y30957D01*
X27604Y30947D01*
Y30936D01*
X27742Y30714D01*
X27837Y30471D01*
X27911Y30218D01*
X27953Y29985D01*
X27985Y29763D01*
X27995Y29668D01*
Y29594D01*
X28006Y29531D01*
Y29436D01*
X27995Y29256D01*
X27985Y29087D01*
X27964Y28929D01*
X27932Y28770D01*
X27889Y28633D01*
X27847Y28506D01*
X27805Y28390D01*
X27752Y28284D01*
X27710Y28189D01*
X27657Y28115D01*
X27615Y28041D01*
X27583Y27988D01*
X27541Y27946D01*
X27520Y27904D01*
X27509Y27893D01*
X27499Y27883D01*
X27404Y27787D01*
X27287Y27703D01*
X27182Y27618D01*
X27065Y27555D01*
X26833Y27460D01*
X26600Y27397D01*
X26400Y27354D01*
X26305Y27344D01*
X26231Y27333D01*
X26167Y27323D01*
X26125D01*
X26093D01*
X26083D01*
X25882Y27333D01*
X25702Y27354D01*
X25533Y27386D01*
X25396Y27428D01*
X25290Y27460D01*
X25206Y27492D01*
X25153Y27513D01*
X25132Y27523D01*
X24994Y27608D01*
X24867Y27692D01*
X24762Y27787D01*
X24667Y27883D01*
X24593Y27967D01*
X24540Y28031D01*
X24498Y28073D01*
X24487Y28094D01*
X24445Y28168D01*
X24392Y28252D01*
X24297Y28432D01*
X24212Y28633D01*
X24138Y28834D01*
X24075Y29013D01*
X24043Y29087D01*
X24022Y29151D01*
X24001Y29214D01*
X23990Y29256D01*
X23980Y29277D01*
Y29288D01*
X23938Y29436D01*
X23895Y29563D01*
X23853Y29690D01*
X23821Y29795D01*
X23790Y29890D01*
X23769Y29954D01*
X23758Y30006D01*
X23747Y30017D01*
X23705Y30144D01*
X23663Y30250D01*
X23610Y30355D01*
X23568Y30440D01*
X23526Y30514D01*
X23494Y30566D01*
X23473Y30598D01*
X23462Y30609D01*
X23399Y30704D01*
X23325Y30778D01*
X23251Y30852D01*
X23187Y30905D01*
X23124Y30947D01*
X23071Y30979D01*
X23040Y31000D01*
X23029Y31010D01*
X22923Y31063D01*
X22807Y31095D01*
X22691Y31126D01*
X22585Y31137D01*
X22490Y31148D01*
X22416Y31158D01*
X22363D01*
X22342D01*
X22089Y31137D01*
X21856Y31095D01*
X21666Y31021D01*
X21507Y30947D01*
X21381Y30862D01*
X21296Y30788D01*
X21243Y30746D01*
X21222Y30725D01*
X21095Y30556D01*
X21000Y30355D01*
X20937Y30154D01*
X20894Y29954D01*
X20863Y29774D01*
X20852Y29700D01*
Y29637D01*
X20842Y29573D01*
Y29499D01*
X20852Y29246D01*
X20894Y29013D01*
X20947Y28823D01*
X21011Y28654D01*
X21064Y28527D01*
X21116Y28432D01*
X21159Y28369D01*
X21169Y28347D01*
X21307Y28200D01*
X21476Y28083D01*
X21655Y27978D01*
X21835Y27904D01*
X21994Y27851D01*
X22067Y27819D01*
X22120Y27809D01*
X22173Y27798D01*
X22215Y27787D01*
X22236Y27777D01*
X22247D01*
X22099Y27111D01*
X21930Y27153D01*
X21772Y27196D01*
X21486Y27312D01*
X21243Y27460D01*
X21032Y27629D01*
X20852Y27819D01*
X20704Y28020D01*
X20578Y28231D01*
X20482Y28432D01*
X20408Y28643D01*
X20345Y28834D01*
X20303Y29013D01*
X20282Y29172D01*
X20261Y29309D01*
X20250Y29415D01*
Y29499D01*
X20261Y29700D01*
X20271Y29901D01*
X20303Y30080D01*
X20334Y30239D01*
X20377Y30397D01*
X20419Y30545D01*
X20472Y30672D01*
X20525Y30788D01*
X20578Y30894D01*
X20630Y30979D01*
X20673Y31052D01*
X20715Y31116D01*
X20747Y31169D01*
X20778Y31200D01*
X20789Y31222D01*
X20800Y31232D01*
X20905Y31338D01*
X21032Y31444D01*
X21159Y31517D01*
X21286Y31591D01*
X21412Y31655D01*
X21550Y31708D01*
X21803Y31782D01*
X21920Y31803D01*
X22036Y31824D01*
X22131Y31834D01*
X22215Y31845D01*
X22289Y31856D01*
X22342D01*
X22374D01*
X22384D01*
X22532D01*
X22670Y31834D01*
D02*
G37*
G36*
X27889Y25072D02*
X23114D01*
X22913Y25061D01*
X22733Y25051D01*
X22554Y25019D01*
X22395Y24987D01*
X22247Y24945D01*
X22099Y24903D01*
X21983Y24850D01*
X21867Y24797D01*
X21761Y24744D01*
X21676Y24692D01*
X21602Y24649D01*
X21539Y24607D01*
X21497Y24575D01*
X21465Y24544D01*
X21444Y24533D01*
X21433Y24523D01*
X21328Y24417D01*
X21243Y24301D01*
X21169Y24174D01*
X21095Y24047D01*
X20990Y23793D01*
X20926Y23540D01*
X20905Y23424D01*
X20884Y23307D01*
X20873Y23212D01*
X20863Y23128D01*
X20852Y23054D01*
Y22959D01*
X20863Y22790D01*
X20873Y22620D01*
X20905Y22473D01*
X20937Y22325D01*
X20990Y22198D01*
X21032Y22082D01*
X21085Y21965D01*
X21138Y21870D01*
X21190Y21775D01*
X21243Y21701D01*
X21296Y21638D01*
X21338Y21585D01*
X21370Y21543D01*
X21402Y21511D01*
X21412Y21500D01*
X21423Y21490D01*
X21539Y21405D01*
X21655Y21321D01*
X21920Y21194D01*
X22184Y21109D01*
X22448Y21046D01*
X22575Y21025D01*
X22691Y21014D01*
X22786Y20993D01*
X22881D01*
X22944Y20983D01*
X23008D01*
X23040D01*
X23050D01*
X27889D01*
Y20264D01*
X22976D01*
X22744Y20275D01*
X22522Y20296D01*
X22310Y20328D01*
X22110Y20380D01*
X21930Y20433D01*
X21772Y20486D01*
X21613Y20549D01*
X21476Y20624D01*
X21360Y20687D01*
X21254Y20750D01*
X21169Y20803D01*
X21095Y20866D01*
X21032Y20909D01*
X20990Y20940D01*
X20968Y20962D01*
X20958Y20972D01*
X20831Y21109D01*
X20726Y21258D01*
X20630Y21416D01*
X20546Y21585D01*
X20482Y21744D01*
X20419Y21913D01*
X20334Y22230D01*
X20313Y22378D01*
X20292Y22515D01*
X20271Y22631D01*
X20261Y22737D01*
X20250Y22832D01*
Y22948D01*
X20261Y23191D01*
X20282Y23424D01*
X20324Y23635D01*
X20366Y23846D01*
X20419Y24026D01*
X20482Y24195D01*
X20556Y24353D01*
X20630Y24501D01*
X20694Y24628D01*
X20768Y24734D01*
X20831Y24829D01*
X20884Y24903D01*
X20926Y24966D01*
X20968Y25008D01*
X20990Y25030D01*
X21000Y25040D01*
X21148Y25178D01*
X21307Y25283D01*
X21476Y25389D01*
X21645Y25473D01*
X21814Y25547D01*
X21994Y25611D01*
X22162Y25653D01*
X22321Y25695D01*
X22480Y25727D01*
X22617Y25748D01*
X22754Y25769D01*
X22860Y25780D01*
X22955Y25790D01*
X23018D01*
X23071D01*
X23082D01*
X27889D01*
Y25072D01*
D02*
G37*
G36*
X22606Y19007D02*
X22744Y18996D01*
X22997Y18943D01*
X23209Y18859D01*
X23388Y18764D01*
X23536Y18669D01*
X23652Y18595D01*
X23684Y18553D01*
X23716Y18531D01*
X23726Y18521D01*
X23737Y18510D01*
X23906Y18309D01*
X24043Y18088D01*
X24149Y17855D01*
X24223Y17644D01*
X24276Y17443D01*
X24297Y17358D01*
X24318Y17284D01*
X24329Y17232D01*
X24339Y17189D01*
Y17147D01*
X24413Y17390D01*
X24498Y17601D01*
X24593Y17781D01*
X24699Y17929D01*
X24794Y18045D01*
X24867Y18130D01*
X24920Y18183D01*
X24941Y18204D01*
X25121Y18331D01*
X25311Y18426D01*
X25501Y18489D01*
X25681Y18542D01*
X25840Y18563D01*
X25903Y18574D01*
X25956D01*
X26009Y18584D01*
X26040D01*
X26061D01*
X26072D01*
X26241Y18574D01*
X26389Y18553D01*
X26537Y18521D01*
X26674Y18478D01*
X26801Y18415D01*
X26917Y18341D01*
X27118Y18183D01*
X27298Y17982D01*
X27446Y17771D01*
X27562Y17528D01*
X27668Y17295D01*
X27742Y17052D01*
X27794Y16820D01*
X27837Y16598D01*
X27858Y16397D01*
X27879Y16238D01*
Y16164D01*
X27889Y16112D01*
Y14252D01*
X20366D01*
Y16312D01*
X20377Y16545D01*
X20387Y16767D01*
X20419Y16968D01*
X20451Y17158D01*
X20493Y17337D01*
X20535Y17506D01*
X20588Y17654D01*
X20641Y17781D01*
X20694Y17908D01*
X20747Y18003D01*
X20789Y18098D01*
X20831Y18172D01*
X20863Y18225D01*
X20894Y18267D01*
X20905Y18288D01*
X20916Y18299D01*
X21021Y18426D01*
X21138Y18531D01*
X21264Y18637D01*
X21391Y18711D01*
X21518Y18785D01*
X21645Y18838D01*
X21898Y18933D01*
X22015Y18954D01*
X22120Y18975D01*
X22215Y18996D01*
X22300Y19007D01*
X22374Y19017D01*
X22427D01*
X22458D01*
X22469D01*
X22606Y19007D01*
D02*
G37*
G36*
X20556Y12413D02*
X20747Y12403D01*
X20937Y12392D01*
X21116D01*
X21275Y12382D01*
X21338D01*
X21391D01*
X21444D01*
X21476D01*
X21497D01*
X21507D01*
X28133D01*
Y11695D01*
X25375D01*
X25195D01*
X25110Y11705D01*
X25037D01*
X24973D01*
X24920Y11716D01*
X24889D01*
X24878D01*
Y11684D01*
X25068Y11568D01*
X25227Y11452D01*
X25364Y11325D01*
X25470Y11209D01*
X25554Y11114D01*
X25618Y11029D01*
X25649Y10976D01*
X25660Y10955D01*
X25745Y10786D01*
X25808Y10596D01*
X25850Y10416D01*
X25882Y10247D01*
X25903Y10099D01*
X25914Y9983D01*
Y9877D01*
X25903Y9677D01*
X25882Y9476D01*
X25840Y9296D01*
X25797Y9127D01*
X25734Y8969D01*
X25671Y8821D01*
X25597Y8694D01*
X25533Y8578D01*
X25459Y8472D01*
X25385Y8377D01*
X25322Y8303D01*
X25259Y8240D01*
X25216Y8187D01*
X25174Y8155D01*
X25153Y8134D01*
X25142Y8123D01*
X24994Y8018D01*
X24836Y7923D01*
X24667Y7838D01*
X24498Y7764D01*
X24318Y7701D01*
X24149Y7648D01*
X23821Y7574D01*
X23663Y7553D01*
X23515Y7532D01*
X23388Y7521D01*
X23283Y7511D01*
X23187Y7500D01*
X23124D01*
X23071D01*
X23061D01*
X22818Y7511D01*
X22585Y7521D01*
X22374Y7553D01*
X22173Y7595D01*
X21983Y7637D01*
X21814Y7690D01*
X21655Y7743D01*
X21518Y7806D01*
X21391Y7859D01*
X21286Y7912D01*
X21190Y7965D01*
X21116Y8007D01*
X21053Y8049D01*
X21011Y8081D01*
X20990Y8092D01*
X20979Y8102D01*
X20852Y8219D01*
X20736Y8356D01*
X20641Y8493D01*
X20556Y8631D01*
X20482Y8778D01*
X20430Y8916D01*
X20377Y9053D01*
X20345Y9191D01*
X20313Y9317D01*
X20292Y9444D01*
X20271Y9550D01*
X20261Y9645D01*
X20250Y9719D01*
Y9825D01*
X20261Y10057D01*
X20292Y10258D01*
X20334Y10448D01*
X20387Y10606D01*
X20430Y10733D01*
X20472Y10828D01*
X20504Y10881D01*
X20514Y10902D01*
X20620Y11071D01*
X20757Y11219D01*
X20894Y11346D01*
X21032Y11462D01*
X21159Y11558D01*
X21264Y11631D01*
X21307Y11653D01*
X21338Y11674D01*
X21349Y11684D01*
X21360D01*
Y11716D01*
X21233D01*
X21074Y11727D01*
X20916Y11737D01*
X20747Y11748D01*
X20599D01*
X20482Y11758D01*
X20430Y11769D01*
X20398D01*
X20377D01*
X20366D01*
Y12424D01*
X20556Y12413D01*
D02*
G37*
G36*
X377800Y113222D02*
X378153Y113198D01*
X378834Y113057D01*
X379422Y112869D01*
X379656Y112775D01*
X379891Y112658D01*
X380103Y112541D01*
X380291Y112446D01*
X380455Y112353D01*
X380596Y112259D01*
X380690Y112188D01*
X380761Y112118D01*
X380808Y112094D01*
X380831Y112071D01*
X381066Y111859D01*
X381278Y111601D01*
X381466Y111366D01*
X381607Y111107D01*
X381889Y110614D01*
X382053Y110144D01*
X382194Y109721D01*
X382241Y109533D01*
X382264Y109369D01*
X382288Y109251D01*
X382311Y109157D01*
Y109087D01*
Y109063D01*
X380808Y108875D01*
X380714Y109369D01*
X380573Y109815D01*
X380408Y110191D01*
X380220Y110520D01*
X380032Y110778D01*
X379891Y110966D01*
X379798Y111060D01*
X379751Y111107D01*
X379398Y111389D01*
X379022Y111601D01*
X378623Y111742D01*
X378270Y111859D01*
X377941Y111906D01*
X377683Y111930D01*
X377589Y111953D01*
X377448D01*
X376908Y111906D01*
X376414Y111812D01*
X375991Y111695D01*
X375662Y111530D01*
X375380Y111366D01*
X375192Y111248D01*
X375075Y111154D01*
X375028Y111107D01*
X374746Y110755D01*
X374535Y110379D01*
X374370Y109979D01*
X374276Y109604D01*
X374206Y109251D01*
X374182Y108993D01*
X374159Y108875D01*
Y108805D01*
Y108758D01*
Y108734D01*
X374206Y108241D01*
X374300Y107747D01*
X374417Y107325D01*
X374582Y106925D01*
X374746Y106620D01*
X374864Y106361D01*
X374934Y106267D01*
X374958Y106197D01*
X375005Y106173D01*
Y106150D01*
X375169Y105915D01*
X375357Y105680D01*
X375803Y105163D01*
X376273Y104670D01*
X376767Y104200D01*
X377189Y103800D01*
X377378Y103612D01*
X377565Y103471D01*
X377706Y103330D01*
X377800Y103237D01*
X377871Y103189D01*
X377894Y103166D01*
X378599Y102532D01*
X379234Y101944D01*
X379492Y101662D01*
X379751Y101404D01*
X379985Y101169D01*
X380173Y100934D01*
X380361Y100746D01*
X380526Y100558D01*
X380643Y100417D01*
X380761Y100276D01*
X380831Y100182D01*
X380902Y100112D01*
X380925Y100065D01*
X380949Y100041D01*
X381301Y99548D01*
X381630Y99054D01*
X381912Y98584D01*
X382123Y98185D01*
X382288Y97833D01*
X382358Y97668D01*
X382429Y97551D01*
X382476Y97457D01*
X382499Y97386D01*
X382523Y97339D01*
Y97316D01*
Y96258D01*
X372350D01*
Y97598D01*
X380784D01*
X380596Y97974D01*
X380385Y98350D01*
X380103Y98749D01*
X379798Y99172D01*
X379140Y99971D01*
X378458Y100723D01*
X378129Y101075D01*
X377800Y101380D01*
X377518Y101662D01*
X377260Y101921D01*
X377048Y102109D01*
X376884Y102273D01*
X376790Y102367D01*
X376743Y102391D01*
X376414Y102696D01*
X376109Y102955D01*
X375827Y103237D01*
X375568Y103471D01*
X375122Y103918D01*
X374770Y104270D01*
X374488Y104552D01*
X374300Y104764D01*
X374182Y104881D01*
X374159Y104928D01*
X373877Y105281D01*
X373642Y105610D01*
X373454Y105938D01*
X373289Y106220D01*
X373172Y106455D01*
X373078Y106643D01*
X373031Y106761D01*
X373007Y106808D01*
X372866Y107160D01*
X372772Y107513D01*
X372702Y107865D01*
X372655Y108170D01*
X372631Y108429D01*
X372608Y108640D01*
Y108781D01*
Y108828D01*
X372631Y109204D01*
X372655Y109557D01*
X372819Y110215D01*
X373007Y110755D01*
X373125Y111013D01*
X373242Y111225D01*
X373383Y111413D01*
X373501Y111601D01*
X373595Y111742D01*
X373689Y111859D01*
X373783Y111953D01*
X373853Y112024D01*
X373877Y112047D01*
X373900Y112071D01*
X374159Y112282D01*
X374417Y112470D01*
X374699Y112611D01*
X374981Y112752D01*
X375568Y112963D01*
X376132Y113104D01*
X376391Y113151D01*
X376649Y113175D01*
X376861Y113222D01*
X377048D01*
X377213Y113245D01*
X377425D01*
X377800Y113222D01*
D02*
G37*
G36*
X364902Y105046D02*
X370869Y96258D01*
X369131D01*
X364009Y103918D01*
X358910Y96258D01*
X357125D01*
X362999Y105046D01*
X357618Y112987D01*
X359380D01*
X363962Y106056D01*
X368637Y112987D01*
X370400D01*
X364902Y105046D01*
D02*
G37*
G36*
X350875Y105046D02*
X356843Y96258D01*
X355104D01*
X349982Y103918D01*
X344884Y96258D01*
X343098D01*
X348972Y105046D01*
X343592Y112987D01*
X345354D01*
X349935Y106056D01*
X354611Y112987D01*
X356373D01*
X350875Y105046D01*
D02*
G37*
G36*
X336849D02*
X342816Y96258D01*
X341078D01*
X335956Y103918D01*
X330857Y96258D01*
X329072D01*
X334945Y105046D01*
X329565Y112987D01*
X331327D01*
X335909Y106056D01*
X340584Y112987D01*
X342346D01*
X336849Y105046D01*
D02*
G37*
G36*
X424250Y102062D02*
X424226Y101545D01*
X424179Y101051D01*
X424109Y100582D01*
X423992Y100135D01*
X423874Y99736D01*
X423757Y99383D01*
X423616Y99031D01*
X423451Y98725D01*
X423310Y98467D01*
X423169Y98232D01*
X423052Y98044D01*
X422911Y97880D01*
X422817Y97739D01*
X422746Y97645D01*
X422699Y97598D01*
X422676Y97574D01*
X422370Y97292D01*
X422042Y97057D01*
X421689Y96846D01*
X421313Y96658D01*
X420961Y96517D01*
X420585Y96376D01*
X419880Y96188D01*
X419551Y96141D01*
X419246Y96094D01*
X418987Y96047D01*
X418752Y96024D01*
X418541Y96000D01*
X418282D01*
X417742Y96024D01*
X417225Y96070D01*
X416755Y96165D01*
X416285Y96258D01*
X415886Y96376D01*
X415510Y96517D01*
X415157Y96681D01*
X414828Y96846D01*
X414547Y96987D01*
X414312Y97151D01*
X414100Y97292D01*
X413936Y97410D01*
X413795Y97504D01*
X413701Y97598D01*
X413654Y97645D01*
X413630Y97668D01*
X413325Y97997D01*
X413090Y98350D01*
X412855Y98725D01*
X412667Y99101D01*
X412503Y99477D01*
X412361Y99877D01*
X412268Y100253D01*
X412174Y100605D01*
X412103Y100957D01*
X412056Y101263D01*
X412009Y101568D01*
X411986Y101803D01*
X411962Y102015D01*
Y102156D01*
Y102273D01*
Y102297D01*
Y112987D01*
X413560D01*
Y102367D01*
X413583Y101921D01*
X413607Y101521D01*
X413677Y101122D01*
X413748Y100770D01*
X413842Y100441D01*
X413936Y100112D01*
X414053Y99853D01*
X414171Y99595D01*
X414288Y99360D01*
X414406Y99172D01*
X414500Y99007D01*
X414594Y98866D01*
X414664Y98772D01*
X414734Y98702D01*
X414758Y98655D01*
X414781Y98631D01*
X415017Y98397D01*
X415275Y98209D01*
X415557Y98044D01*
X415839Y97880D01*
X416403Y97645D01*
X416967Y97504D01*
X417225Y97457D01*
X417483Y97410D01*
X417695Y97386D01*
X417883Y97363D01*
X418047Y97339D01*
X418259D01*
X418635Y97363D01*
X419011Y97386D01*
X419339Y97457D01*
X419669Y97527D01*
X419950Y97645D01*
X420209Y97739D01*
X420467Y97856D01*
X420679Y97974D01*
X420890Y98091D01*
X421055Y98209D01*
X421196Y98326D01*
X421313Y98420D01*
X421407Y98490D01*
X421478Y98561D01*
X421501Y98584D01*
X421525Y98608D01*
X421712Y98866D01*
X421900Y99125D01*
X422182Y99712D01*
X422370Y100300D01*
X422511Y100887D01*
X422558Y101169D01*
X422582Y101427D01*
X422629Y101639D01*
Y101850D01*
X422652Y101991D01*
Y102132D01*
Y102203D01*
Y102226D01*
Y112987D01*
X424250D01*
Y102062D01*
D02*
G37*
G36*
X395234Y96258D02*
X390652D01*
X390135Y96282D01*
X389642Y96305D01*
X389196Y96376D01*
X388773Y96446D01*
X388373Y96540D01*
X387997Y96634D01*
X387668Y96752D01*
X387386Y96869D01*
X387104Y96987D01*
X386893Y97104D01*
X386682Y97198D01*
X386517Y97292D01*
X386400Y97363D01*
X386306Y97433D01*
X386259Y97457D01*
X386235Y97480D01*
X385953Y97715D01*
X385718Y97974D01*
X385483Y98256D01*
X385319Y98538D01*
X385154Y98819D01*
X385037Y99101D01*
X384825Y99665D01*
X384778Y99924D01*
X384731Y100159D01*
X384684Y100370D01*
X384661Y100558D01*
X384637Y100723D01*
Y100840D01*
Y100911D01*
Y100934D01*
X384661Y101239D01*
X384684Y101545D01*
X384802Y102109D01*
X384990Y102579D01*
X385201Y102978D01*
X385413Y103307D01*
X385577Y103565D01*
X385671Y103636D01*
X385718Y103706D01*
X385742Y103730D01*
X385765Y103753D01*
X386212Y104129D01*
X386705Y104435D01*
X387222Y104670D01*
X387692Y104834D01*
X388138Y104952D01*
X388326Y104999D01*
X388491Y105046D01*
X388608Y105069D01*
X388702Y105093D01*
X388796D01*
X388256Y105257D01*
X387786Y105445D01*
X387386Y105656D01*
X387057Y105891D01*
X386799Y106103D01*
X386611Y106267D01*
X386493Y106385D01*
X386446Y106432D01*
X386165Y106831D01*
X385953Y107254D01*
X385812Y107677D01*
X385695Y108076D01*
X385648Y108429D01*
X385624Y108570D01*
Y108687D01*
X385601Y108805D01*
Y108875D01*
Y108922D01*
Y108946D01*
X385624Y109322D01*
X385671Y109651D01*
X385742Y109979D01*
X385836Y110285D01*
X385977Y110567D01*
X386141Y110825D01*
X386493Y111272D01*
X386940Y111671D01*
X387410Y112000D01*
X387950Y112259D01*
X388467Y112493D01*
X389007Y112658D01*
X389524Y112775D01*
X390018Y112869D01*
X390464Y112916D01*
X390817Y112963D01*
X390981D01*
X391099Y112987D01*
X395234D01*
Y96258D01*
D02*
G37*
G36*
X404256Y113222D02*
X404632Y113198D01*
X404984Y113151D01*
X405336Y113081D01*
X405642Y112987D01*
X405924Y112893D01*
X406182Y112799D01*
X406417Y112682D01*
X406629Y112587D01*
X406793Y112470D01*
X406958Y112376D01*
X407075Y112305D01*
X407169Y112212D01*
X407263Y112165D01*
X407287Y112141D01*
X407310Y112118D01*
X407522Y111906D01*
X407710Y111648D01*
X407897Y111413D01*
X408038Y111154D01*
X408250Y110637D01*
X408391Y110120D01*
X408485Y109674D01*
X408508Y109463D01*
X408532Y109298D01*
X408555Y109157D01*
Y109063D01*
Y108993D01*
Y108969D01*
X408532Y108523D01*
X408485Y108123D01*
X408414Y107747D01*
X408320Y107442D01*
X408250Y107207D01*
X408179Y107019D01*
X408132Y106902D01*
X408109Y106855D01*
X407921Y106549D01*
X407733Y106267D01*
X407522Y106032D01*
X407310Y105821D01*
X407122Y105656D01*
X406981Y105539D01*
X406887Y105445D01*
X406840Y105421D01*
X406676Y105328D01*
X406488Y105210D01*
X406088Y104999D01*
X405642Y104811D01*
X405196Y104646D01*
X404796Y104505D01*
X404632Y104435D01*
X404491Y104388D01*
X404350Y104341D01*
X404256Y104317D01*
X404209Y104294D01*
X404185D01*
X403856Y104200D01*
X403574Y104106D01*
X403293Y104012D01*
X403058Y103941D01*
X402846Y103871D01*
X402705Y103824D01*
X402588Y103800D01*
X402564Y103777D01*
X402282Y103683D01*
X402047Y103589D01*
X401812Y103471D01*
X401624Y103377D01*
X401460Y103284D01*
X401342Y103213D01*
X401272Y103166D01*
X401248Y103142D01*
X401037Y103001D01*
X400872Y102837D01*
X400708Y102673D01*
X400591Y102532D01*
X400497Y102391D01*
X400426Y102273D01*
X400379Y102203D01*
X400356Y102179D01*
X400238Y101944D01*
X400168Y101686D01*
X400097Y101427D01*
X400074Y101192D01*
X400050Y100981D01*
X400027Y100816D01*
Y100699D01*
Y100652D01*
X400074Y100088D01*
X400168Y99571D01*
X400332Y99148D01*
X400497Y98796D01*
X400685Y98514D01*
X400849Y98326D01*
X400943Y98209D01*
X400990Y98162D01*
X401366Y97880D01*
X401812Y97668D01*
X402259Y97527D01*
X402705Y97433D01*
X403105Y97363D01*
X403269Y97339D01*
X403410D01*
X403551Y97316D01*
X403715D01*
X404279Y97339D01*
X404796Y97433D01*
X405219Y97551D01*
X405595Y97692D01*
X405877Y97809D01*
X406088Y97927D01*
X406229Y98021D01*
X406276Y98044D01*
X406605Y98350D01*
X406864Y98725D01*
X407099Y99125D01*
X407263Y99524D01*
X407381Y99877D01*
X407451Y100041D01*
X407475Y100159D01*
X407498Y100276D01*
X407522Y100370D01*
X407545Y100417D01*
Y100441D01*
X409025Y100112D01*
X408931Y99736D01*
X408837Y99383D01*
X408579Y98749D01*
X408250Y98209D01*
X407874Y97739D01*
X407451Y97339D01*
X407005Y97010D01*
X406535Y96728D01*
X406088Y96517D01*
X405619Y96352D01*
X405196Y96212D01*
X404796Y96117D01*
X404444Y96070D01*
X404138Y96024D01*
X403903Y96000D01*
X403715D01*
X403269Y96024D01*
X402823Y96047D01*
X402423Y96117D01*
X402071Y96188D01*
X401718Y96282D01*
X401389Y96376D01*
X401107Y96493D01*
X400849Y96611D01*
X400614Y96728D01*
X400426Y96846D01*
X400262Y96940D01*
X400121Y97034D01*
X400003Y97104D01*
X399933Y97175D01*
X399886Y97198D01*
X399862Y97222D01*
X399627Y97457D01*
X399392Y97739D01*
X399228Y98021D01*
X399063Y98302D01*
X398922Y98584D01*
X398805Y98890D01*
X398641Y99454D01*
X398593Y99712D01*
X398546Y99971D01*
X398523Y100182D01*
X398499Y100370D01*
X398476Y100534D01*
Y100652D01*
Y100723D01*
Y100746D01*
Y101075D01*
X398523Y101380D01*
X398546Y101639D01*
X398593Y101874D01*
X398641Y102062D01*
X398664Y102203D01*
X398711Y102297D01*
Y102320D01*
X398805Y102579D01*
X398922Y102814D01*
X399040Y103025D01*
X399157Y103189D01*
X399251Y103330D01*
X399345Y103448D01*
X399392Y103518D01*
X399416Y103542D01*
X399604Y103730D01*
X399792Y103918D01*
X400003Y104082D01*
X400191Y104223D01*
X400379Y104341D01*
X400520Y104435D01*
X400614Y104482D01*
X400638Y104505D01*
X400802Y104599D01*
X400966Y104670D01*
X401389Y104858D01*
X401836Y105046D01*
X402282Y105210D01*
X402705Y105351D01*
X402893Y105421D01*
X403034Y105492D01*
X403175Y105515D01*
X403269Y105562D01*
X403340Y105586D01*
X403363D01*
X403668Y105680D01*
X403950Y105774D01*
X404209Y105868D01*
X404467Y105962D01*
X404867Y106126D01*
X405196Y106267D01*
X405430Y106361D01*
X405595Y106455D01*
X405712Y106502D01*
X405736Y106526D01*
X405971Y106690D01*
X406159Y106855D01*
X406347Y107043D01*
X406464Y107184D01*
X406582Y107325D01*
X406652Y107442D01*
X406699Y107513D01*
X406723Y107536D01*
X406817Y107771D01*
X406887Y108006D01*
X406958Y108264D01*
X406981Y108499D01*
X407005Y108711D01*
X407028Y108875D01*
Y108969D01*
Y109016D01*
X406981Y109533D01*
X406887Y109956D01*
X406770Y110332D01*
X406605Y110637D01*
X406464Y110896D01*
X406323Y111060D01*
X406229Y111178D01*
X406206Y111201D01*
X405877Y111460D01*
X405501Y111648D01*
X405102Y111765D01*
X404726Y111859D01*
X404373Y111906D01*
X404115Y111953D01*
X403856D01*
X403340Y111930D01*
X402870Y111859D01*
X402470Y111742D01*
X402118Y111624D01*
X401859Y111507D01*
X401671Y111389D01*
X401554Y111319D01*
X401507Y111295D01*
X401201Y111013D01*
X400943Y110708D01*
X400755Y110379D01*
X400591Y110050D01*
X400450Y109745D01*
X400379Y109510D01*
X400356Y109416D01*
X400332Y109345D01*
X400309Y109298D01*
Y109275D01*
X398805Y109627D01*
X399016Y110285D01*
X399275Y110825D01*
X399557Y111295D01*
X399839Y111695D01*
X400097Y111977D01*
X400309Y112188D01*
X400473Y112305D01*
X400497Y112353D01*
X400520D01*
X401013Y112658D01*
X401554Y112869D01*
X402118Y113034D01*
X402635Y113128D01*
X403128Y113198D01*
X403340Y113222D01*
X403504D01*
X403645Y113245D01*
X403856D01*
X404256Y113222D01*
D02*
G37*
G36*
X291077Y105234D02*
Y104417D01*
X288779Y105939D01*
Y97594D01*
X291345D01*
Y96833D01*
X285692D01*
Y97594D01*
X287891D01*
Y106870D01*
X288694D01*
X291077Y105234D01*
D02*
G37*
G36*
X280180D02*
Y104417D01*
X277882Y105939D01*
Y97594D01*
X280448D01*
Y96833D01*
X274795D01*
Y97594D01*
X276994D01*
Y106870D01*
X277797D01*
X280180Y105234D01*
D02*
G37*
G36*
X315986Y96833D02*
X314886D01*
X311123Y106870D01*
X312152D01*
X314915Y99229D01*
X315013Y98933D01*
X315056Y98792D01*
X315098Y98665D01*
X315140Y98567D01*
X315154Y98482D01*
X315183Y98426D01*
Y98412D01*
X315281Y98116D01*
X315324Y97989D01*
X315352Y97862D01*
X315394Y97763D01*
X315408Y97678D01*
X315436Y97622D01*
Y97608D01*
X315493Y97833D01*
X315577Y98087D01*
X315662Y98355D01*
X315746Y98623D01*
X315831Y98863D01*
X315859Y98975D01*
X315902Y99060D01*
X315916Y99144D01*
X315944Y99201D01*
X315958Y99229D01*
Y99243D01*
X318721Y106870D01*
X319750D01*
X315986Y96833D01*
D02*
G37*
G36*
X307415Y104220D02*
X307739Y104163D01*
X308021Y104093D01*
X308261Y104022D01*
X308458Y103938D01*
X308613Y103867D01*
X308670Y103839D01*
X308712Y103811D01*
X308726Y103797D01*
X308740D01*
X308994Y103627D01*
X309219Y103416D01*
X309403Y103204D01*
X309572Y103007D01*
X309685Y102824D01*
X309783Y102669D01*
X309812Y102612D01*
X309840Y102570D01*
X309854Y102542D01*
Y102528D01*
X309981Y102204D01*
X310079Y101865D01*
X310136Y101527D01*
X310192Y101203D01*
X310206Y101062D01*
X310220Y100935D01*
Y100808D01*
X310235Y100709D01*
Y100625D01*
Y100568D01*
Y100526D01*
Y100512D01*
X310220Y100174D01*
X310192Y99849D01*
X310164Y99553D01*
X310108Y99271D01*
X310051Y99018D01*
X309981Y98778D01*
X309896Y98567D01*
X309826Y98383D01*
X309755Y98214D01*
X309671Y98059D01*
X309600Y97932D01*
X309544Y97833D01*
X309487Y97749D01*
X309445Y97692D01*
X309431Y97664D01*
X309417Y97650D01*
X309248Y97481D01*
X309079Y97326D01*
X308895Y97199D01*
X308698Y97086D01*
X308501Y96988D01*
X308303Y96917D01*
X308106Y96847D01*
X307923Y96804D01*
X307739Y96762D01*
X307584Y96734D01*
X307429Y96706D01*
X307302Y96692D01*
X307190Y96678D01*
X307049D01*
X306696Y96692D01*
X306372Y96734D01*
X306090Y96804D01*
X305850Y96875D01*
X305653Y96931D01*
X305512Y97002D01*
X305456Y97030D01*
X305413Y97044D01*
X305399Y97058D01*
X305385D01*
X305131Y97213D01*
X304892Y97411D01*
X304694Y97622D01*
X304511Y97833D01*
X304370Y98017D01*
X304257Y98186D01*
X304229Y98242D01*
X304201Y98285D01*
X304173Y98313D01*
Y98327D01*
X304892Y98722D01*
X305033Y98482D01*
X305188Y98271D01*
X305343Y98101D01*
X305484Y97960D01*
X305611Y97848D01*
X305709Y97777D01*
X305766Y97735D01*
X305794Y97721D01*
X305991Y97622D01*
X306203Y97552D01*
X306400Y97495D01*
X306597Y97467D01*
X306767Y97439D01*
X306894Y97425D01*
X307020D01*
X307218Y97439D01*
X307401Y97453D01*
X307739Y97537D01*
X308021Y97664D01*
X308261Y97805D01*
X308444Y97946D01*
X308585Y98073D01*
X308670Y98158D01*
X308684Y98172D01*
X308698Y98186D01*
X308797Y98341D01*
X308895Y98496D01*
X309036Y98834D01*
X309149Y99201D01*
X309219Y99539D01*
X309234Y99694D01*
X309262Y99835D01*
X309276Y99976D01*
Y100089D01*
X309290Y100188D01*
Y100258D01*
Y100301D01*
Y100315D01*
X304018D01*
Y100554D01*
X304032Y100878D01*
X304046Y101189D01*
X304088Y101470D01*
X304145Y101724D01*
X304201Y101978D01*
X304272Y102190D01*
X304342Y102401D01*
X304412Y102584D01*
X304483Y102739D01*
X304553Y102880D01*
X304624Y103007D01*
X304680Y103106D01*
X304737Y103176D01*
X304779Y103233D01*
X304793Y103261D01*
X304807Y103275D01*
X304962Y103444D01*
X305131Y103585D01*
X305315Y103726D01*
X305498Y103825D01*
X305681Y103923D01*
X305879Y103994D01*
X306231Y104121D01*
X306414Y104149D01*
X306569Y104177D01*
X306710Y104205D01*
X306837Y104220D01*
X306936Y104234D01*
X307077D01*
X307415Y104220D01*
D02*
G37*
G36*
X299591D02*
X299831Y104163D01*
X300056Y104107D01*
X300240Y104022D01*
X300381Y103952D01*
X300494Y103881D01*
X300550Y103825D01*
X300578Y103811D01*
X300747Y103642D01*
X300916Y103430D01*
X301043Y103204D01*
X301170Y102979D01*
X301255Y102767D01*
X301325Y102598D01*
X301353Y102528D01*
X301367Y102486D01*
X301382Y102457D01*
Y102443D01*
X301410D01*
Y102767D01*
X301424Y103063D01*
X301438Y103345D01*
Y103585D01*
X301452Y103797D01*
X301466Y103881D01*
Y103952D01*
X301480Y104008D01*
Y104064D01*
Y104079D01*
Y104093D01*
X302326D01*
X302312Y103867D01*
X302298Y103670D01*
Y103472D01*
X302284Y103289D01*
Y103134D01*
X302270Y102979D01*
Y102852D01*
Y102725D01*
X302256Y102626D01*
Y102542D01*
Y102457D01*
Y102401D01*
Y102316D01*
Y102288D01*
Y96833D01*
X301339D01*
Y100512D01*
X301311Y100991D01*
X301297Y101203D01*
X301255Y101400D01*
X301227Y101597D01*
X301184Y101767D01*
X301142Y101922D01*
X301086Y102063D01*
X301043Y102190D01*
X301001Y102302D01*
X300959Y102401D01*
X300916Y102471D01*
X300888Y102528D01*
X300860Y102584D01*
X300846Y102598D01*
Y102612D01*
X300747Y102753D01*
X300634Y102866D01*
X300522Y102979D01*
X300409Y103063D01*
X300183Y103204D01*
X299944Y103289D01*
X299746Y103345D01*
X299591Y103374D01*
X299521Y103388D01*
X299295D01*
X299154Y103374D01*
X299042Y103359D01*
X298943D01*
X298858Y103345D01*
X298802Y103331D01*
X298760Y103317D01*
X298745D01*
Y104163D01*
X298943Y104205D01*
X299126Y104220D01*
X299197Y104234D01*
X299309D01*
X299591Y104220D01*
D02*
G37*
G36*
X283662Y96833D02*
X282633D01*
Y98073D01*
X283662D01*
Y96833D01*
D02*
G37*
G36*
X298647Y95000D02*
X292303D01*
Y95564D01*
X298647D01*
Y95000D01*
D02*
G37*
G36*
X408673Y83331D02*
X407771D01*
Y84431D01*
X408673D01*
Y83331D01*
D02*
G37*
G36*
X381621Y80032D02*
X380592D01*
Y81217D01*
X381621D01*
Y80032D01*
D02*
G37*
G36*
X396761Y75592D02*
Y75310D01*
X396775Y75028D01*
Y74774D01*
X396789Y74535D01*
X396803Y74351D01*
Y74196D01*
X396817Y74140D01*
Y74098D01*
Y74083D01*
Y74069D01*
X395957D01*
X395929Y74394D01*
X395915Y74661D01*
X395901Y74887D01*
Y75056D01*
X395887Y75197D01*
Y75282D01*
Y75338D01*
Y75352D01*
X395859D01*
X395704Y75099D01*
X395549Y74873D01*
X395393Y74690D01*
X395238Y74535D01*
X395097Y74422D01*
X394999Y74337D01*
X394928Y74281D01*
X394900Y74267D01*
X394660Y74154D01*
X394421Y74069D01*
X394181Y73999D01*
X393955Y73957D01*
X393744Y73928D01*
X393589Y73914D01*
X393448D01*
X393166Y73928D01*
X392912Y73957D01*
X392673Y74013D01*
X392447Y74069D01*
X392236Y74140D01*
X392038Y74225D01*
X391869Y74323D01*
X391714Y74422D01*
X391573Y74506D01*
X391446Y74605D01*
X391348Y74690D01*
X391263Y74760D01*
X391193Y74816D01*
X391150Y74873D01*
X391122Y74901D01*
X391108Y74915D01*
X390953Y75113D01*
X390826Y75324D01*
X390713Y75550D01*
X390615Y75775D01*
X390530Y76015D01*
X390474Y76240D01*
X390361Y76691D01*
X390333Y76903D01*
X390304Y77100D01*
X390290Y77269D01*
X390276Y77425D01*
X390262Y77551D01*
Y77636D01*
Y77706D01*
Y77720D01*
X390276Y78045D01*
X390290Y78341D01*
X390333Y78623D01*
X390389Y78891D01*
X390445Y79144D01*
X390516Y79370D01*
X390586Y79567D01*
X390657Y79750D01*
X390741Y79920D01*
X390812Y80061D01*
X390882Y80188D01*
X390939Y80286D01*
X390995Y80371D01*
X391037Y80427D01*
X391052Y80455D01*
X391066Y80469D01*
X391221Y80653D01*
X391390Y80794D01*
X391559Y80935D01*
X391742Y81047D01*
X391940Y81146D01*
X392123Y81231D01*
X392306Y81287D01*
X392475Y81343D01*
X392645Y81386D01*
X392800Y81414D01*
X392941Y81442D01*
X393067Y81456D01*
X393166Y81470D01*
X393307D01*
X393617Y81456D01*
X393913Y81414D01*
X394153Y81372D01*
X394379Y81315D01*
X394548Y81245D01*
X394674Y81202D01*
X394759Y81160D01*
X394773Y81146D01*
X394787D01*
X395013Y81005D01*
X395210Y80836D01*
X395393Y80639D01*
X395549Y80455D01*
X395675Y80286D01*
X395774Y80131D01*
X395816Y80089D01*
X395830Y80047D01*
X395859Y80018D01*
Y80004D01*
X395887D01*
X395873Y80173D01*
Y80314D01*
Y80371D01*
Y80413D01*
Y80441D01*
Y80455D01*
X395859Y80625D01*
Y80780D01*
Y80836D01*
Y80878D01*
Y80906D01*
Y80920D01*
Y84431D01*
X396761D01*
Y75592D01*
D02*
G37*
G36*
X386639Y74013D02*
X386766Y73703D01*
X386949Y73407D01*
X387034Y73280D01*
X387118Y73153D01*
X387175Y73054D01*
X387231Y72970D01*
X387259Y72913D01*
X387274Y72899D01*
X387372Y72758D01*
X387471Y72632D01*
X387556Y72519D01*
X387640Y72434D01*
X387711Y72364D01*
X387767Y72321D01*
X387809Y72293D01*
X387823Y72279D01*
X387936Y72209D01*
X388063Y72152D01*
X388176Y72124D01*
X388289Y72096D01*
X388387Y72082D01*
X388472Y72068D01*
X388542D01*
X388740Y72082D01*
X388909Y72110D01*
X388979Y72124D01*
X389036Y72138D01*
X389064Y72152D01*
X389078D01*
Y71335D01*
X388838Y71292D01*
X388740Y71264D01*
X388641D01*
X388556Y71250D01*
X388429D01*
X388274Y71264D01*
X388119Y71278D01*
X387837Y71349D01*
X387598Y71447D01*
X387386Y71560D01*
X387217Y71673D01*
X387090Y71772D01*
X387020Y71842D01*
X386992Y71870D01*
X386780Y72110D01*
X386569Y72378D01*
X386385Y72646D01*
X386216Y72899D01*
X386089Y73125D01*
X386033Y73224D01*
X385977Y73308D01*
X385948Y73379D01*
X385920Y73435D01*
X385892Y73463D01*
Y73477D01*
X382791Y81329D01*
X383763D01*
X385469Y76804D01*
X385596Y76452D01*
X385667Y76297D01*
X385709Y76142D01*
X385751Y76029D01*
X385793Y75930D01*
X385807Y75874D01*
X385822Y75846D01*
X385948Y75493D01*
X386005Y75338D01*
X386047Y75197D01*
X386104Y75070D01*
X386132Y74972D01*
X386146Y74915D01*
X386160Y74887D01*
X386202Y75028D01*
X386259Y75183D01*
X386371Y75521D01*
X386498Y75888D01*
X386625Y76240D01*
X386682Y76395D01*
X386738Y76550D01*
X386794Y76691D01*
X386837Y76804D01*
X386865Y76903D01*
X386893Y76988D01*
X386921Y77030D01*
Y77044D01*
X388542Y81329D01*
X389501D01*
X386639Y74013D01*
D02*
G37*
G36*
X405163Y81329D02*
X406248D01*
Y80582D01*
X405177D01*
Y75606D01*
X405163Y75310D01*
X405106Y75056D01*
X405050Y74845D01*
X404965Y74676D01*
X404895Y74535D01*
X404824Y74436D01*
X404782Y74380D01*
X404768Y74365D01*
X404599Y74225D01*
X404401Y74126D01*
X404204Y74041D01*
X404021Y73999D01*
X403838Y73971D01*
X403697Y73957D01*
X403640Y73942D01*
X403570D01*
X403316Y73957D01*
X403076Y73971D01*
X402851Y73999D01*
X402653Y74027D01*
X402484Y74055D01*
X402357Y74083D01*
X402273Y74112D01*
X402245D01*
Y74816D01*
X402470Y74774D01*
X402668Y74746D01*
X402851Y74718D01*
X403006Y74704D01*
X403133D01*
X403231Y74690D01*
X403316D01*
X403499Y74704D01*
X403654Y74732D01*
X403781Y74774D01*
X403894Y74831D01*
X403964Y74887D01*
X404021Y74929D01*
X404049Y74957D01*
X404063Y74972D01*
X404134Y75084D01*
X404176Y75211D01*
X404232Y75479D01*
X404246Y75592D01*
X404260Y75691D01*
Y75747D01*
Y75775D01*
Y80582D01*
X402343D01*
Y81329D01*
X404260D01*
Y83007D01*
X404923D01*
X405163Y81329D01*
D02*
G37*
G36*
X424250Y74069D02*
X418738D01*
Y74873D01*
X423291D01*
Y78834D01*
X419471D01*
Y79624D01*
X423291D01*
Y83303D01*
X419034D01*
Y84107D01*
X424250D01*
Y74069D01*
D02*
G37*
G36*
X408673D02*
X407771D01*
Y81329D01*
X408673D01*
Y74069D01*
D02*
G37*
G36*
X381621D02*
X380592D01*
Y75254D01*
X381621D01*
Y74069D01*
D02*
G37*
G36*
X411929Y80751D02*
Y80512D01*
X411915Y80399D01*
Y80300D01*
Y80216D01*
X411901Y80145D01*
Y80103D01*
Y80089D01*
X411943D01*
X412098Y80343D01*
X412253Y80554D01*
X412423Y80737D01*
X412578Y80878D01*
X412705Y80991D01*
X412817Y81076D01*
X412888Y81118D01*
X412916Y81132D01*
X413142Y81245D01*
X413395Y81329D01*
X413635Y81386D01*
X413861Y81428D01*
X414058Y81456D01*
X414213Y81470D01*
X414354D01*
X414622Y81456D01*
X414890Y81428D01*
X415129Y81372D01*
X415355Y81315D01*
X415566Y81231D01*
X415764Y81146D01*
X415933Y81047D01*
X416088Y80963D01*
X416229Y80864D01*
X416356Y80765D01*
X416454Y80681D01*
X416539Y80596D01*
X416609Y80540D01*
X416652Y80484D01*
X416680Y80455D01*
X416694Y80441D01*
X416835Y80244D01*
X416962Y80032D01*
X417075Y79807D01*
X417173Y79581D01*
X417258Y79342D01*
X417328Y79116D01*
X417427Y78679D01*
X417455Y78468D01*
X417483Y78270D01*
X417497Y78101D01*
X417512Y77960D01*
X417526Y77833D01*
Y77749D01*
Y77678D01*
Y77664D01*
X417512Y77340D01*
X417497Y77030D01*
X417455Y76748D01*
X417399Y76480D01*
X417342Y76226D01*
X417272Y76001D01*
X417201Y75789D01*
X417117Y75606D01*
X417046Y75437D01*
X416976Y75296D01*
X416906Y75169D01*
X416849Y75070D01*
X416793Y74986D01*
X416750Y74929D01*
X416736Y74901D01*
X416722Y74887D01*
X416567Y74718D01*
X416384Y74563D01*
X416201Y74436D01*
X416017Y74323D01*
X415820Y74225D01*
X415637Y74154D01*
X415453Y74083D01*
X415270Y74041D01*
X415101Y73999D01*
X414932Y73971D01*
X414791Y73942D01*
X414664Y73928D01*
X414565Y73914D01*
X414424D01*
X414114Y73928D01*
X413846Y73971D01*
X413593Y74027D01*
X413381Y74098D01*
X413212Y74154D01*
X413085Y74210D01*
X413015Y74253D01*
X412986Y74267D01*
X412761Y74408D01*
X412564Y74591D01*
X412394Y74774D01*
X412239Y74957D01*
X412113Y75127D01*
X412014Y75268D01*
X411986Y75324D01*
X411957Y75366D01*
X411943Y75380D01*
Y75395D01*
X411901D01*
Y75225D01*
X411887Y75014D01*
X411873Y74802D01*
X411859Y74577D01*
Y74380D01*
X411845Y74225D01*
X411830Y74154D01*
Y74112D01*
Y74083D01*
Y74069D01*
X410956D01*
X410971Y74323D01*
X410985Y74577D01*
X410999Y74831D01*
Y75070D01*
X411013Y75282D01*
Y75366D01*
Y75437D01*
Y75507D01*
Y75550D01*
Y75578D01*
Y75592D01*
Y84431D01*
X411929D01*
Y80751D01*
D02*
G37*
G36*
X10364Y261374D02*
X9646D01*
Y264998D01*
X5461D01*
Y261374D01*
X4753D01*
Y268897D01*
X5461D01*
Y265621D01*
X9646D01*
Y268897D01*
X10364D01*
Y261374D01*
D02*
G37*
G36*
X28654D02*
X27978D01*
Y266667D01*
Y266879D01*
X27989Y267101D01*
X27999Y267333D01*
Y267555D01*
X28010Y267756D01*
X28020Y267840D01*
Y267904D01*
X28031Y267967D01*
Y268009D01*
Y268041D01*
Y268052D01*
X23540Y261374D01*
X22663D01*
Y268897D01*
X23350D01*
Y263656D01*
Y263381D01*
X23340Y263106D01*
X23329Y262853D01*
X23318Y262631D01*
X23308Y262525D01*
Y262441D01*
X23297Y262356D01*
Y262282D01*
Y262229D01*
X23287Y262187D01*
Y262166D01*
Y262156D01*
X27820Y268897D01*
X28654D01*
Y261374D01*
D02*
G37*
G36*
X39844Y269003D02*
X40098Y268971D01*
X40341Y268918D01*
X40573Y268855D01*
X40774Y268781D01*
X40975Y268696D01*
X41144Y268601D01*
X41302Y268506D01*
X41450Y268411D01*
X41567Y268316D01*
X41672Y268231D01*
X41757Y268157D01*
X41831Y268094D01*
X41873Y268041D01*
X41905Y268009D01*
X41915Y267999D01*
X42063Y267798D01*
X42190Y267587D01*
X42306Y267365D01*
X42401Y267132D01*
X42475Y266889D01*
X42549Y266657D01*
X42602Y266424D01*
X42644Y266203D01*
X42676Y265991D01*
X42708Y265801D01*
X42729Y265621D01*
X42739Y265463D01*
Y265347D01*
X42750Y265252D01*
Y265188D01*
Y265177D01*
Y265167D01*
X42739Y264829D01*
X42718Y264522D01*
X42676Y264227D01*
X42623Y263952D01*
X42560Y263688D01*
X42486Y263455D01*
X42412Y263244D01*
X42338Y263043D01*
X42264Y262874D01*
X42190Y262716D01*
X42116Y262589D01*
X42053Y262483D01*
X42000Y262399D01*
X41958Y262346D01*
X41936Y262304D01*
X41926Y262293D01*
X41767Y262113D01*
X41588Y261955D01*
X41408Y261817D01*
X41218Y261691D01*
X41028Y261595D01*
X40837Y261511D01*
X40658Y261437D01*
X40478Y261384D01*
X40309Y261342D01*
X40151Y261310D01*
X40003Y261289D01*
X39887Y261278D01*
X39781Y261268D01*
X39707Y261257D01*
X39643D01*
X39284Y261278D01*
X38957Y261331D01*
X38650Y261416D01*
X38375Y261532D01*
X38133Y261659D01*
X37900Y261807D01*
X37710Y261965D01*
X37530Y262134D01*
X37382Y262293D01*
X37245Y262451D01*
X37139Y262599D01*
X37055Y262726D01*
X36991Y262842D01*
X36939Y262927D01*
X36917Y262980D01*
X36907Y263001D01*
X37541Y263297D01*
X37646Y263064D01*
X37763Y262853D01*
X37900Y262673D01*
X38016Y262515D01*
X38133Y262399D01*
X38228Y262314D01*
X38291Y262261D01*
X38301Y262240D01*
X38312D01*
X38513Y262113D01*
X38724Y262018D01*
X38946Y261955D01*
X39147Y261912D01*
X39337Y261881D01*
X39411Y261870D01*
X39474D01*
X39538Y261860D01*
X39612D01*
X39813Y261870D01*
X40013Y261902D01*
X40193Y261944D01*
X40362Y261997D01*
X40521Y262061D01*
X40668Y262134D01*
X40806Y262219D01*
X40922Y262304D01*
X41028Y262377D01*
X41123Y262462D01*
X41207Y262536D01*
X41271Y262599D01*
X41323Y262652D01*
X41355Y262694D01*
X41376Y262726D01*
X41387Y262737D01*
X41503Y262906D01*
X41598Y263096D01*
X41683Y263286D01*
X41757Y263487D01*
X41810Y263688D01*
X41862Y263888D01*
X41936Y264279D01*
X41968Y264459D01*
X41989Y264628D01*
X42000Y264776D01*
X42010Y264903D01*
X42021Y265009D01*
Y265093D01*
Y265135D01*
Y265156D01*
X42010Y265431D01*
X41989Y265695D01*
X41958Y265938D01*
X41926Y266171D01*
X41873Y266382D01*
X41820Y266583D01*
X41767Y266752D01*
X41704Y266921D01*
X41641Y267058D01*
X41588Y267185D01*
X41535Y267291D01*
X41482Y267375D01*
X41450Y267449D01*
X41419Y267492D01*
X41398Y267523D01*
X41387Y267534D01*
X41260Y267682D01*
X41123Y267819D01*
X40975Y267935D01*
X40827Y268030D01*
X40679Y268115D01*
X40531Y268189D01*
X40383Y268242D01*
X40235Y268295D01*
X40098Y268326D01*
X39971Y268358D01*
X39865Y268379D01*
X39760Y268390D01*
X39686D01*
X39622Y268400D01*
X39569D01*
X39316Y268390D01*
X39083Y268358D01*
X38872Y268305D01*
X38703Y268252D01*
X38555Y268189D01*
X38449Y268147D01*
X38418Y268126D01*
X38386Y268104D01*
X38375Y268094D01*
X38365D01*
X38185Y267967D01*
X38037Y267819D01*
X37900Y267661D01*
X37794Y267502D01*
X37710Y267354D01*
X37646Y267227D01*
X37625Y267185D01*
X37604Y267153D01*
X37594Y267132D01*
Y267122D01*
X36939Y267397D01*
X37012Y267555D01*
X37086Y267692D01*
X37160Y267819D01*
X37245Y267946D01*
X37414Y268157D01*
X37583Y268326D01*
X37731Y268453D01*
X37847Y268548D01*
X37889Y268580D01*
X37921Y268601D01*
X37942Y268622D01*
X37953D01*
X38207Y268749D01*
X38481Y268844D01*
X38756Y268918D01*
X39009Y268960D01*
X39126Y268981D01*
X39231Y268992D01*
X39327Y269003D01*
X39411D01*
X39474Y269013D01*
X39569D01*
X39844Y269003D01*
D02*
G37*
G36*
X36484Y261374D02*
X35734D01*
X34825Y263719D01*
X31423D01*
X30525Y261374D01*
X29764D01*
X32691Y268897D01*
X33547D01*
X36484Y261374D01*
D02*
G37*
G36*
X18965Y269003D02*
X19176Y268971D01*
X19367Y268929D01*
X19546Y268865D01*
X19715Y268791D01*
X19863Y268707D01*
X20001Y268622D01*
X20127Y268538D01*
X20233Y268443D01*
X20317Y268358D01*
X20402Y268274D01*
X20466Y268200D01*
X20508Y268136D01*
X20539Y268094D01*
X20561Y268062D01*
X20571Y268052D01*
X20677Y267861D01*
X20761Y267650D01*
X20835Y267428D01*
X20909Y267196D01*
X21015Y266710D01*
X21047Y266467D01*
X21078Y266234D01*
X21099Y266012D01*
X21121Y265801D01*
X21131Y265621D01*
X21142Y265452D01*
X21152Y265326D01*
Y265220D01*
Y265156D01*
Y265146D01*
Y265135D01*
X21142Y264787D01*
X21131Y264459D01*
X21099Y264153D01*
X21057Y263867D01*
X21015Y263603D01*
X20962Y263371D01*
X20909Y263149D01*
X20856Y262959D01*
X20804Y262789D01*
X20751Y262642D01*
X20698Y262515D01*
X20656Y262409D01*
X20613Y262335D01*
X20582Y262272D01*
X20571Y262240D01*
X20561Y262229D01*
X20444Y262061D01*
X20307Y261912D01*
X20170Y261775D01*
X20032Y261670D01*
X19884Y261574D01*
X19726Y261490D01*
X19589Y261427D01*
X19440Y261384D01*
X19303Y261342D01*
X19176Y261310D01*
X19071Y261289D01*
X18965Y261268D01*
X18891D01*
X18828Y261257D01*
X18775D01*
X18553Y261268D01*
X18352Y261300D01*
X18162Y261353D01*
X17993Y261416D01*
X17824Y261490D01*
X17676Y261574D01*
X17539Y261659D01*
X17422Y261754D01*
X17317Y261849D01*
X17222Y261934D01*
X17148Y262018D01*
X17084Y262092D01*
X17031Y262156D01*
X17000Y262208D01*
X16979Y262240D01*
X16968Y262251D01*
X16862Y262451D01*
X16767Y262663D01*
X16683Y262885D01*
X16609Y263117D01*
X16556Y263360D01*
X16503Y263603D01*
X16461Y263836D01*
X16429Y264068D01*
X16408Y264279D01*
X16387Y264480D01*
X16376Y264670D01*
X16366Y264829D01*
X16355Y264956D01*
Y265051D01*
Y265114D01*
Y265135D01*
X16366Y265484D01*
X16376Y265822D01*
X16408Y266129D01*
X16450Y266414D01*
X16493Y266667D01*
X16545Y266910D01*
X16598Y267122D01*
X16651Y267323D01*
X16704Y267492D01*
X16757Y267640D01*
X16810Y267756D01*
X16852Y267861D01*
X16894Y267935D01*
X16926Y267999D01*
X16936Y268030D01*
X16947Y268041D01*
X17063Y268210D01*
X17190Y268358D01*
X17327Y268495D01*
X17475Y268601D01*
X17623Y268696D01*
X17771Y268781D01*
X17919Y268844D01*
X18056Y268897D01*
X18194Y268929D01*
X18320Y268960D01*
X18437Y268981D01*
X18532Y269003D01*
X18616D01*
X18680Y269013D01*
X18733D01*
X18965Y269003D01*
D02*
G37*
G36*
X16006Y260000D02*
X11252D01*
Y260423D01*
X16006D01*
Y260000D01*
D02*
G37*
G36*
X28654Y283874D02*
X27978D01*
Y289167D01*
Y289379D01*
X27989Y289601D01*
X27999Y289833D01*
Y290055D01*
X28010Y290256D01*
X28020Y290340D01*
Y290404D01*
X28031Y290467D01*
Y290509D01*
Y290541D01*
Y290552D01*
X23540Y283874D01*
X22663D01*
Y291397D01*
X23350D01*
Y286156D01*
Y285881D01*
X23340Y285606D01*
X23329Y285353D01*
X23318Y285131D01*
X23308Y285025D01*
Y284941D01*
X23297Y284856D01*
Y284782D01*
Y284729D01*
X23287Y284687D01*
Y284666D01*
Y284655D01*
X27820Y291397D01*
X28654D01*
Y283874D01*
D02*
G37*
G36*
X39844Y291503D02*
X40098Y291471D01*
X40341Y291418D01*
X40573Y291355D01*
X40774Y291281D01*
X40975Y291196D01*
X41144Y291101D01*
X41302Y291006D01*
X41450Y290911D01*
X41567Y290816D01*
X41672Y290731D01*
X41757Y290657D01*
X41831Y290594D01*
X41873Y290541D01*
X41905Y290509D01*
X41915Y290499D01*
X42063Y290298D01*
X42190Y290087D01*
X42306Y289865D01*
X42401Y289632D01*
X42475Y289389D01*
X42549Y289157D01*
X42602Y288924D01*
X42644Y288703D01*
X42676Y288491D01*
X42708Y288301D01*
X42729Y288121D01*
X42739Y287963D01*
Y287847D01*
X42750Y287752D01*
Y287688D01*
Y287677D01*
Y287667D01*
X42739Y287329D01*
X42718Y287022D01*
X42676Y286727D01*
X42623Y286452D01*
X42560Y286188D01*
X42486Y285955D01*
X42412Y285744D01*
X42338Y285543D01*
X42264Y285374D01*
X42190Y285216D01*
X42116Y285089D01*
X42053Y284983D01*
X42000Y284899D01*
X41958Y284846D01*
X41936Y284804D01*
X41926Y284793D01*
X41767Y284613D01*
X41588Y284455D01*
X41408Y284317D01*
X41218Y284191D01*
X41028Y284095D01*
X40837Y284011D01*
X40658Y283937D01*
X40478Y283884D01*
X40309Y283842D01*
X40151Y283810D01*
X40003Y283789D01*
X39887Y283778D01*
X39781Y283768D01*
X39707Y283757D01*
X39643D01*
X39284Y283778D01*
X38957Y283831D01*
X38650Y283916D01*
X38375Y284032D01*
X38133Y284159D01*
X37900Y284307D01*
X37710Y284465D01*
X37530Y284634D01*
X37382Y284793D01*
X37245Y284951D01*
X37139Y285099D01*
X37055Y285226D01*
X36991Y285342D01*
X36939Y285427D01*
X36917Y285480D01*
X36907Y285501D01*
X37541Y285797D01*
X37646Y285564D01*
X37763Y285353D01*
X37900Y285173D01*
X38016Y285015D01*
X38133Y284899D01*
X38228Y284814D01*
X38291Y284761D01*
X38301Y284740D01*
X38312D01*
X38513Y284613D01*
X38724Y284518D01*
X38946Y284455D01*
X39147Y284412D01*
X39337Y284381D01*
X39411Y284370D01*
X39474D01*
X39538Y284360D01*
X39612D01*
X39813Y284370D01*
X40013Y284402D01*
X40193Y284444D01*
X40362Y284497D01*
X40521Y284560D01*
X40668Y284634D01*
X40806Y284719D01*
X40922Y284804D01*
X41028Y284877D01*
X41123Y284962D01*
X41207Y285036D01*
X41271Y285099D01*
X41323Y285152D01*
X41355Y285194D01*
X41376Y285226D01*
X41387Y285237D01*
X41503Y285406D01*
X41598Y285596D01*
X41683Y285786D01*
X41757Y285987D01*
X41810Y286188D01*
X41862Y286388D01*
X41936Y286779D01*
X41968Y286959D01*
X41989Y287128D01*
X42000Y287276D01*
X42010Y287403D01*
X42021Y287509D01*
Y287593D01*
Y287635D01*
Y287656D01*
X42010Y287931D01*
X41989Y288195D01*
X41958Y288438D01*
X41926Y288671D01*
X41873Y288882D01*
X41820Y289083D01*
X41767Y289252D01*
X41704Y289421D01*
X41641Y289558D01*
X41588Y289685D01*
X41535Y289791D01*
X41482Y289875D01*
X41450Y289949D01*
X41419Y289992D01*
X41398Y290023D01*
X41387Y290034D01*
X41260Y290182D01*
X41123Y290319D01*
X40975Y290435D01*
X40827Y290530D01*
X40679Y290615D01*
X40531Y290689D01*
X40383Y290742D01*
X40235Y290795D01*
X40098Y290826D01*
X39971Y290858D01*
X39865Y290879D01*
X39760Y290890D01*
X39686D01*
X39622Y290900D01*
X39569D01*
X39316Y290890D01*
X39083Y290858D01*
X38872Y290805D01*
X38703Y290752D01*
X38555Y290689D01*
X38449Y290647D01*
X38418Y290626D01*
X38386Y290604D01*
X38375Y290594D01*
X38365D01*
X38185Y290467D01*
X38037Y290319D01*
X37900Y290161D01*
X37794Y290002D01*
X37710Y289854D01*
X37646Y289727D01*
X37625Y289685D01*
X37604Y289653D01*
X37594Y289632D01*
Y289622D01*
X36939Y289897D01*
X37012Y290055D01*
X37086Y290192D01*
X37160Y290319D01*
X37245Y290446D01*
X37414Y290657D01*
X37583Y290826D01*
X37731Y290953D01*
X37847Y291048D01*
X37889Y291080D01*
X37921Y291101D01*
X37942Y291122D01*
X37953D01*
X38207Y291249D01*
X38481Y291344D01*
X38756Y291418D01*
X39009Y291460D01*
X39126Y291481D01*
X39231Y291492D01*
X39327Y291503D01*
X39411D01*
X39474Y291513D01*
X39569D01*
X39844Y291503D01*
D02*
G37*
G36*
X36484Y283874D02*
X35734D01*
X34825Y286219D01*
X31423D01*
X30525Y283874D01*
X29764D01*
X32691Y291397D01*
X33547D01*
X36484Y283874D01*
D02*
G37*
G36*
X10322D02*
X6476D01*
Y284476D01*
X9603D01*
Y291397D01*
X10322D01*
Y283874D01*
D02*
G37*
G36*
X18965Y291503D02*
X19176Y291471D01*
X19367Y291429D01*
X19546Y291365D01*
X19715Y291291D01*
X19863Y291207D01*
X20001Y291122D01*
X20127Y291038D01*
X20233Y290942D01*
X20317Y290858D01*
X20402Y290774D01*
X20466Y290700D01*
X20508Y290636D01*
X20539Y290594D01*
X20561Y290562D01*
X20571Y290552D01*
X20677Y290361D01*
X20761Y290150D01*
X20835Y289928D01*
X20909Y289696D01*
X21015Y289210D01*
X21047Y288967D01*
X21078Y288734D01*
X21099Y288512D01*
X21121Y288301D01*
X21131Y288121D01*
X21142Y287952D01*
X21152Y287826D01*
Y287720D01*
Y287656D01*
Y287646D01*
Y287635D01*
X21142Y287287D01*
X21131Y286959D01*
X21099Y286653D01*
X21057Y286367D01*
X21015Y286103D01*
X20962Y285871D01*
X20909Y285649D01*
X20856Y285459D01*
X20804Y285289D01*
X20751Y285142D01*
X20698Y285015D01*
X20656Y284909D01*
X20613Y284835D01*
X20582Y284772D01*
X20571Y284740D01*
X20561Y284729D01*
X20444Y284560D01*
X20307Y284412D01*
X20170Y284275D01*
X20032Y284170D01*
X19884Y284074D01*
X19726Y283990D01*
X19589Y283927D01*
X19440Y283884D01*
X19303Y283842D01*
X19176Y283810D01*
X19071Y283789D01*
X18965Y283768D01*
X18891D01*
X18828Y283757D01*
X18775D01*
X18553Y283768D01*
X18352Y283800D01*
X18162Y283853D01*
X17993Y283916D01*
X17824Y283990D01*
X17676Y284074D01*
X17539Y284159D01*
X17422Y284254D01*
X17317Y284349D01*
X17222Y284434D01*
X17148Y284518D01*
X17084Y284592D01*
X17031Y284655D01*
X17000Y284708D01*
X16979Y284740D01*
X16968Y284751D01*
X16862Y284951D01*
X16767Y285163D01*
X16683Y285385D01*
X16609Y285617D01*
X16556Y285860D01*
X16503Y286103D01*
X16461Y286336D01*
X16429Y286568D01*
X16408Y286779D01*
X16387Y286980D01*
X16376Y287170D01*
X16366Y287329D01*
X16355Y287456D01*
Y287551D01*
Y287614D01*
Y287635D01*
X16366Y287984D01*
X16376Y288322D01*
X16408Y288629D01*
X16450Y288914D01*
X16493Y289167D01*
X16545Y289410D01*
X16598Y289622D01*
X16651Y289823D01*
X16704Y289992D01*
X16757Y290140D01*
X16810Y290256D01*
X16852Y290361D01*
X16894Y290435D01*
X16926Y290499D01*
X16936Y290530D01*
X16947Y290541D01*
X17063Y290710D01*
X17190Y290858D01*
X17327Y290995D01*
X17475Y291101D01*
X17623Y291196D01*
X17771Y291281D01*
X17919Y291344D01*
X18056Y291397D01*
X18194Y291429D01*
X18320Y291460D01*
X18437Y291481D01*
X18532Y291503D01*
X18616D01*
X18680Y291513D01*
X18733D01*
X18965Y291503D01*
D02*
G37*
G36*
X16006Y282500D02*
X11252D01*
Y282923D01*
X16006D01*
Y282500D01*
D02*
G37*
G36*
X59529Y29172D02*
X59836Y29140D01*
X60132Y29087D01*
X60396Y29034D01*
X60639Y28950D01*
X60861Y28876D01*
X61072Y28781D01*
X61252Y28696D01*
X61421Y28601D01*
X61558Y28506D01*
X61674Y28432D01*
X61769Y28358D01*
X61854Y28295D01*
X61907Y28242D01*
X61939Y28210D01*
X61949Y28200D01*
X62118Y28009D01*
X62256Y27798D01*
X62382Y27576D01*
X62488Y27344D01*
X62583Y27101D01*
X62657Y26868D01*
X62720Y26636D01*
X62773Y26403D01*
X62815Y26192D01*
X62837Y25991D01*
X62858Y25812D01*
X62879Y25653D01*
Y25526D01*
X62889Y25431D01*
Y23265D01*
X55366D01*
Y25600D01*
X55377Y25801D01*
X55387Y25991D01*
X55440Y26340D01*
X55472Y26509D01*
X55514Y26667D01*
X55556Y26805D01*
X55599Y26942D01*
X55641Y27058D01*
X55673Y27164D01*
X55715Y27259D01*
X55747Y27333D01*
X55778Y27397D01*
X55799Y27449D01*
X55821Y27471D01*
Y27481D01*
X56011Y27766D01*
X56222Y28020D01*
X56444Y28242D01*
X56655Y28411D01*
X56856Y28559D01*
X56930Y28612D01*
X57004Y28654D01*
X57067Y28696D01*
X57110Y28717D01*
X57141Y28739D01*
X57152D01*
X57490Y28886D01*
X57839Y28992D01*
X58187Y29077D01*
X58505Y29129D01*
X58652Y29151D01*
X58790Y29161D01*
X58906Y29172D01*
X59001D01*
X59086Y29182D01*
X59149D01*
X59191D01*
X59202D01*
X59529Y29172D01*
D02*
G37*
G36*
X62889Y20592D02*
X57649D01*
X57374D01*
X57099Y20602D01*
X56845Y20613D01*
X56624Y20624D01*
X56518Y20634D01*
X56433D01*
X56349Y20645D01*
X56275D01*
X56222D01*
X56180Y20655D01*
X56159D01*
X56148D01*
X62889Y16122D01*
Y15287D01*
X55366D01*
Y15964D01*
X60660D01*
X60871D01*
X61093Y15953D01*
X61326Y15943D01*
X61548D01*
X61748Y15932D01*
X61833Y15921D01*
X61896D01*
X61960Y15911D01*
X62002D01*
X62034D01*
X62044D01*
X55366Y20402D01*
Y21279D01*
X62889D01*
Y20592D01*
D02*
G37*
G36*
X59012Y10871D02*
X58420D01*
Y12878D01*
X56666D01*
X56518Y12720D01*
X56402Y12561D01*
X56286Y12392D01*
X56201Y12223D01*
X56116Y12054D01*
X56053Y11875D01*
X56000Y11716D01*
X55958Y11547D01*
X55916Y11399D01*
X55895Y11262D01*
X55873Y11135D01*
X55863Y11029D01*
Y10945D01*
X55852Y10871D01*
Y10818D01*
X55863Y10596D01*
X55895Y10385D01*
X55937Y10184D01*
X55990Y10004D01*
X56053Y9835D01*
X56127Y9677D01*
X56212Y9529D01*
X56296Y9402D01*
X56370Y9286D01*
X56455Y9191D01*
X56529Y9106D01*
X56592Y9032D01*
X56645Y8979D01*
X56687Y8937D01*
X56719Y8916D01*
X56729Y8905D01*
X56898Y8789D01*
X57089Y8683D01*
X57279Y8588D01*
X57480Y8514D01*
X57680Y8451D01*
X57881Y8398D01*
X58272Y8314D01*
X58452Y8282D01*
X58621Y8261D01*
X58769Y8250D01*
X58906Y8240D01*
X59012Y8229D01*
X59096D01*
X59138D01*
X59160D01*
X59445Y8240D01*
X59709Y8261D01*
X59963Y8292D01*
X60195Y8324D01*
X60406Y8377D01*
X60607Y8430D01*
X60787Y8483D01*
X60945Y8546D01*
X61093Y8609D01*
X61210Y8662D01*
X61315Y8715D01*
X61400Y8768D01*
X61474Y8800D01*
X61516Y8831D01*
X61548Y8852D01*
X61558Y8863D01*
X61706Y8990D01*
X61833Y9127D01*
X61949Y9275D01*
X62044Y9423D01*
X62118Y9582D01*
X62192Y9740D01*
X62245Y9888D01*
X62287Y10036D01*
X62319Y10184D01*
X62351Y10311D01*
X62372Y10427D01*
X62382Y10533D01*
X62393Y10617D01*
Y10733D01*
X62382Y11008D01*
X62340Y11262D01*
X62277Y11494D01*
X62192Y11705D01*
X62097Y11896D01*
X61981Y12065D01*
X61865Y12213D01*
X61748Y12339D01*
X61632Y12456D01*
X61516Y12551D01*
X61400Y12625D01*
X61305Y12688D01*
X61220Y12741D01*
X61157Y12773D01*
X61114Y12783D01*
X61104Y12794D01*
X61347Y13491D01*
X61643Y13343D01*
X61896Y13174D01*
X62118Y12984D01*
X62308Y12773D01*
X62467Y12551D01*
X62604Y12318D01*
X62710Y12086D01*
X62794Y11864D01*
X62868Y11642D01*
X62921Y11431D01*
X62953Y11241D01*
X62985Y11082D01*
X62995Y10934D01*
X63006Y10839D01*
Y10744D01*
X62995Y10459D01*
X62964Y10194D01*
X62911Y9941D01*
X62847Y9708D01*
X62773Y9497D01*
X62689Y9296D01*
X62594Y9117D01*
X62509Y8958D01*
X62414Y8810D01*
X62319Y8683D01*
X62234Y8578D01*
X62160Y8493D01*
X62097Y8419D01*
X62044Y8377D01*
X62013Y8345D01*
X62002Y8335D01*
X61801Y8187D01*
X61590Y8060D01*
X61368Y7944D01*
X61136Y7849D01*
X60903Y7775D01*
X60660Y7701D01*
X60427Y7648D01*
X60206Y7606D01*
X59994Y7574D01*
X59794Y7542D01*
X59614Y7521D01*
X59466Y7511D01*
X59339D01*
X59244Y7500D01*
X59181D01*
X59170D01*
X59160D01*
X58821Y7511D01*
X58505Y7542D01*
X58209Y7584D01*
X57934Y7637D01*
X57680Y7701D01*
X57448Y7775D01*
X57226Y7849D01*
X57036Y7933D01*
X56856Y8007D01*
X56708Y8081D01*
X56581Y8155D01*
X56476Y8219D01*
X56391Y8282D01*
X56338Y8324D01*
X56296Y8345D01*
X56286Y8356D01*
X56106Y8525D01*
X55947Y8715D01*
X55810Y8905D01*
X55683Y9106D01*
X55588Y9307D01*
X55504Y9508D01*
X55430Y9708D01*
X55377Y9899D01*
X55335Y10089D01*
X55303Y10258D01*
X55282Y10406D01*
X55271Y10533D01*
X55261Y10649D01*
X55250Y10723D01*
Y10797D01*
X55261Y11103D01*
X55303Y11399D01*
X55356Y11674D01*
X55440Y11927D01*
X55525Y12181D01*
X55630Y12403D01*
X55736Y12614D01*
X55852Y12804D01*
X55958Y12973D01*
X56064Y13121D01*
X56169Y13248D01*
X56254Y13354D01*
X56338Y13438D01*
X56391Y13502D01*
X56433Y13544D01*
X56444Y13555D01*
X59012D01*
Y10871D01*
D02*
G37*
G36*
X45389Y18457D02*
X39662Y16386D01*
X39441Y16312D01*
X39335Y16281D01*
X39240Y16249D01*
X39166Y16217D01*
X39102Y16207D01*
X39060Y16186D01*
X39050D01*
X38828Y16112D01*
X38733Y16080D01*
X38638Y16059D01*
X38564Y16027D01*
X38500Y16016D01*
X38458Y15995D01*
X38447D01*
X38616Y15953D01*
X38807Y15890D01*
X39007Y15826D01*
X39208Y15763D01*
X39388Y15699D01*
X39472Y15678D01*
X39536Y15647D01*
X39599Y15636D01*
X39641Y15615D01*
X39662Y15604D01*
X39673D01*
X45389Y13533D01*
Y12762D01*
X37866Y15583D01*
Y16408D01*
X45389Y19229D01*
Y18457D01*
D02*
G37*
G36*
X40466Y12075D02*
X40656Y12065D01*
X40825Y12033D01*
X40983Y11991D01*
X41131Y11948D01*
X41269Y11896D01*
X41395Y11843D01*
X41512Y11790D01*
X41607Y11737D01*
X41691Y11684D01*
X41776Y11631D01*
X41829Y11589D01*
X41881Y11547D01*
X41913Y11515D01*
X41934Y11505D01*
X41945Y11494D01*
X42050Y11378D01*
X42156Y11251D01*
X42230Y11124D01*
X42304Y10998D01*
X42368Y10860D01*
X42420Y10733D01*
X42494Y10480D01*
X42515Y10353D01*
X42537Y10247D01*
X42547Y10152D01*
X42558Y10068D01*
X42568Y9994D01*
Y9751D01*
X42547Y9603D01*
X42537Y9476D01*
X42515Y9360D01*
X42494Y9265D01*
X42484Y9191D01*
X42463Y9148D01*
Y9127D01*
X42420Y8990D01*
X42357Y8863D01*
X42294Y8736D01*
X42230Y8631D01*
X42177Y8536D01*
X42125Y8462D01*
X42093Y8419D01*
X42082Y8398D01*
X44808Y8567D01*
Y11716D01*
X45389D01*
Y7965D01*
X41438Y7732D01*
Y8367D01*
X41543Y8493D01*
X41628Y8609D01*
X41702Y8726D01*
X41765Y8831D01*
X41807Y8916D01*
X41839Y8979D01*
X41850Y9022D01*
X41860Y9032D01*
X41903Y9159D01*
X41945Y9286D01*
X41966Y9413D01*
X41976Y9539D01*
X41987Y9634D01*
X41998Y9719D01*
Y9930D01*
X41976Y10057D01*
X41924Y10289D01*
X41850Y10490D01*
X41765Y10649D01*
X41670Y10786D01*
X41596Y10881D01*
X41543Y10934D01*
X41533Y10955D01*
X41522D01*
X41332Y11103D01*
X41121Y11209D01*
X40909Y11283D01*
X40709Y11336D01*
X40529Y11367D01*
X40455Y11378D01*
X40381D01*
X40328Y11388D01*
X40286D01*
X40265D01*
X40254D01*
X39927Y11367D01*
X39641Y11325D01*
X39504Y11293D01*
X39388Y11251D01*
X39282Y11209D01*
X39187Y11177D01*
X39102Y11135D01*
X39028Y11093D01*
X38965Y11061D01*
X38912Y11019D01*
X38870Y10998D01*
X38838Y10976D01*
X38828Y10955D01*
X38817D01*
X38733Y10871D01*
X38659Y10776D01*
X38532Y10575D01*
X38447Y10374D01*
X38384Y10173D01*
X38352Y9994D01*
X38331Y9920D01*
Y9856D01*
X38321Y9793D01*
Y9719D01*
X38331Y9487D01*
X38363Y9286D01*
X38405Y9117D01*
X38458Y8969D01*
X38511Y8852D01*
X38553Y8768D01*
X38585Y8726D01*
X38595Y8705D01*
X38722Y8578D01*
X38860Y8462D01*
X39018Y8377D01*
X39176Y8303D01*
X39324Y8250D01*
X39441Y8208D01*
X39483Y8197D01*
X39515Y8187D01*
X39536Y8176D01*
X39546D01*
X39430Y7500D01*
X39134Y7584D01*
X38881Y7690D01*
X38648Y7828D01*
X38458Y7986D01*
X38299Y8155D01*
X38162Y8345D01*
X38046Y8536D01*
X37961Y8715D01*
X37887Y8905D01*
X37834Y9085D01*
X37803Y9244D01*
X37782Y9381D01*
X37761Y9508D01*
X37750Y9603D01*
Y9677D01*
X37761Y9888D01*
X37782Y10078D01*
X37813Y10268D01*
X37856Y10438D01*
X37908Y10596D01*
X37961Y10744D01*
X38025Y10871D01*
X38088Y10998D01*
X38141Y11103D01*
X38204Y11188D01*
X38257Y11272D01*
X38310Y11336D01*
X38352Y11388D01*
X38384Y11420D01*
X38405Y11441D01*
X38416Y11452D01*
X38542Y11568D01*
X38690Y11663D01*
X38838Y11748D01*
X38986Y11822D01*
X39145Y11885D01*
X39293Y11927D01*
X39599Y12012D01*
X39736Y12033D01*
X39863Y12054D01*
X39980Y12065D01*
X40075Y12075D01*
X40159Y12086D01*
X40223D01*
X40265D01*
X40275D01*
X40466Y12075D01*
D02*
G37*
G36*
X211649Y274101D02*
X201712Y264164D01*
X200754Y263286D01*
X199876Y262488D01*
X199038Y261810D01*
X198319Y261251D01*
X197681Y260772D01*
X197242Y260413D01*
X197082Y260333D01*
X196922Y260253D01*
X196843Y260173D01*
X195925Y259655D01*
X195047Y259256D01*
X194289Y258896D01*
X193570Y258657D01*
X192971Y258457D01*
X192533Y258338D01*
X192253Y258298D01*
X192134Y258258D01*
X191255Y258098D01*
X190378D01*
X189539Y258058D01*
X188781Y258098D01*
X188103Y258138D01*
X187584Y258178D01*
X187225Y258218D01*
X187105Y258258D01*
X186067Y258497D01*
X184990Y258777D01*
X184032Y259096D01*
X183154Y259495D01*
X182356Y259814D01*
X181757Y260094D01*
X181558Y260213D01*
X181398Y260293D01*
X181278Y260333D01*
X181238Y260373D01*
X180041Y261091D01*
X178884Y261849D01*
X177846Y262648D01*
X176849Y263406D01*
X176050Y264124D01*
X175731Y264444D01*
X175412Y264683D01*
X175212Y264883D01*
X175013Y265082D01*
X174933Y265162D01*
X174893Y265202D01*
X173576Y266599D01*
X172459Y267955D01*
X171541Y269272D01*
X171102Y269871D01*
X170783Y270430D01*
X170463Y270989D01*
X170184Y271427D01*
X169944Y271827D01*
X169785Y272226D01*
X169585Y272505D01*
X169506Y272745D01*
X169466Y272864D01*
X169426Y272904D01*
X168827Y274381D01*
X168428Y275817D01*
X168188Y277174D01*
X168029Y278372D01*
X167949Y279409D01*
Y280207D01*
X167989Y280487D01*
Y280726D01*
Y280806D01*
Y280886D01*
X168109Y282043D01*
X168388Y283121D01*
X168707Y284158D01*
X169067Y285076D01*
X169426Y285834D01*
X169745Y286393D01*
X169825Y286633D01*
X169944Y286752D01*
X169984Y286872D01*
X170024Y286912D01*
X170583Y287710D01*
X171262Y288628D01*
X171980Y289506D01*
X172738Y290344D01*
X173417Y291102D01*
X184032Y301718D01*
X211649Y274101D01*
D02*
G37*
G36*
X178605Y241057D02*
X179123Y240858D01*
X179483Y240658D01*
X179722Y240578D01*
X179762Y240539D01*
X180680Y240100D01*
X181478Y239780D01*
X182117Y239461D01*
X182595Y239301D01*
X182915Y239142D01*
X183154Y239062D01*
X183314D01*
X183354Y239022D01*
X184112Y238902D01*
X184790Y238942D01*
X185070Y238982D01*
X185269Y239022D01*
X185429D01*
X185469Y239062D01*
X185868Y239222D01*
X186267Y239381D01*
X186985Y239860D01*
X187225Y240100D01*
X187464Y240259D01*
X187664Y240459D01*
X188262Y241137D01*
X188781Y241895D01*
X188941Y242215D01*
X189100Y242454D01*
X189220Y242654D01*
X189260Y242694D01*
X192054Y239182D01*
X191774Y238583D01*
X191455Y238104D01*
X191176Y237665D01*
X190936Y237266D01*
X190657Y236987D01*
X190497Y236747D01*
X190338Y236588D01*
X189699Y236029D01*
X189100Y235590D01*
X188502Y235231D01*
X187943Y234991D01*
X187424Y234792D01*
X187065Y234672D01*
X186826Y234592D01*
X186746D01*
X185988Y234473D01*
X185229Y234512D01*
X184471Y234552D01*
X183753Y234632D01*
X183154Y234752D01*
X182675Y234832D01*
X182356Y234911D01*
X182236Y234951D01*
X181837Y235111D01*
X181398Y235231D01*
X180401Y235590D01*
X179323Y236029D01*
X178285Y236508D01*
X177327Y236907D01*
X176889Y237106D01*
X176490Y237266D01*
X176210Y237386D01*
X175971Y237466D01*
X175811Y237545D01*
X175771Y237585D01*
X147795Y250316D01*
X151188Y253708D01*
X167191Y246325D01*
X168348Y245806D01*
X169386Y245248D01*
X170463Y244729D01*
X171341Y244250D01*
X172099Y243811D01*
X172419Y243651D01*
X172658Y243492D01*
X172858Y243372D01*
X173017Y243292D01*
X173137Y243252D01*
X173177Y243212D01*
X172499Y244370D01*
X171900Y245447D01*
X171341Y246485D01*
X170902Y247403D01*
X170543Y248161D01*
X170383Y248480D01*
X170264Y248760D01*
X170104Y248999D01*
X170024Y249159D01*
Y249238D01*
X169984Y249278D01*
X162561Y265082D01*
X166153Y268674D01*
X178605Y241057D01*
D02*
G37*
G36*
X164916Y227369D02*
X161524Y223977D01*
X150629Y234872D01*
X149950Y235550D01*
X149192Y236149D01*
X148554Y236628D01*
X147955Y237066D01*
X147356Y237426D01*
X146798Y237745D01*
X146239Y237984D01*
X145760Y238144D01*
X145361Y238304D01*
X144962Y238384D01*
X144643Y238463D01*
X144363Y238503D01*
X144004Y238543D01*
X143844D01*
X142767Y238423D01*
X141809Y238104D01*
X140931Y237705D01*
X140173Y237346D01*
X139574Y236907D01*
X139135Y236548D01*
X138936Y236428D01*
X138736Y236229D01*
X138297Y235710D01*
X137858Y235191D01*
X137579Y234672D01*
X137379Y234233D01*
X137220Y233834D01*
X137060Y233515D01*
X137020Y233315D01*
Y233235D01*
X136901Y232637D01*
X136861Y232038D01*
X136901Y231519D01*
X136940Y231080D01*
X137060Y230721D01*
X137140Y230402D01*
X137180Y230202D01*
X137220Y230162D01*
X137539Y229604D01*
X137898Y229005D01*
X138337Y228406D01*
X138816Y227848D01*
X139215Y227369D01*
X139574Y227010D01*
X139854Y226730D01*
X139894Y226690D01*
X139934Y226651D01*
X152066Y214518D01*
X148673Y211126D01*
X136382Y223418D01*
X135544Y224256D01*
X134905Y224974D01*
X134386Y225573D01*
X133907Y226052D01*
X133628Y226411D01*
X133428Y226690D01*
X133309Y226890D01*
X133269Y226930D01*
X132870Y227568D01*
X132590Y228247D01*
X132351Y228806D01*
X132112Y229364D01*
X132032Y229843D01*
X131952Y230162D01*
X131872Y230402D01*
Y230482D01*
X131792Y231200D01*
X131832Y231879D01*
X131872Y232557D01*
X132032Y233195D01*
X132151Y233714D01*
X132311Y234113D01*
X132391Y234353D01*
X132431Y234473D01*
X132750Y235271D01*
X133189Y236029D01*
X133628Y236707D01*
X134067Y237306D01*
X134466Y237785D01*
X134745Y238144D01*
X135065Y238463D01*
X135863Y239182D01*
X136701Y239780D01*
X137499Y240259D01*
X138337Y240698D01*
X139135Y241017D01*
X139934Y241257D01*
X140732Y241416D01*
X141410Y241536D01*
X142128Y241616D01*
X143805D01*
X144164Y241576D01*
X144443Y241536D01*
X144643Y241496D01*
X144722D01*
X141849Y244370D01*
X144882Y247403D01*
X164916Y227369D01*
D02*
G37*
G36*
X125686Y222540D02*
X126564Y222300D01*
X127362Y221981D01*
X128081Y221662D01*
X128759Y221303D01*
X129238Y221063D01*
X129438Y220944D01*
X129557Y220824D01*
X129637D01*
X129677Y220784D01*
X126804Y217033D01*
X125846Y217512D01*
X124968Y217911D01*
X124170Y218150D01*
X123531Y218310D01*
X122972Y218389D01*
X122573D01*
X122294Y218350D01*
X122214D01*
X121456Y218150D01*
X120698Y217791D01*
X119939Y217352D01*
X119301Y216873D01*
X118662Y216394D01*
X118223Y216035D01*
X117824Y215636D01*
X116946Y214678D01*
X116268Y213760D01*
X115829Y212922D01*
X115470Y212164D01*
X115310Y211525D01*
X115150Y211046D01*
X115111Y210687D01*
Y210607D01*
X115150Y209929D01*
X115350Y209251D01*
X115629Y208572D01*
X115989Y207973D01*
X116348Y207455D01*
X116707Y207016D01*
X116946Y206776D01*
X116986Y206736D01*
X117026Y206696D01*
X117106Y206616D01*
X117266Y206457D01*
X117545Y206178D01*
X117824Y205978D01*
X117904Y205898D01*
X117944Y205858D01*
X118463Y206138D01*
X119022Y206457D01*
X120179Y207135D01*
X121416Y207973D01*
X122573Y208732D01*
X123132Y209131D01*
X123611Y209530D01*
X124090Y209849D01*
X124449Y210128D01*
X124768Y210368D01*
X124968Y210567D01*
X125167Y210687D01*
X125207Y210727D01*
X126005Y211366D01*
X126724Y211845D01*
X127323Y212283D01*
X127801Y212603D01*
X128161Y212882D01*
X128480Y213042D01*
X128679Y213162D01*
X128719Y213201D01*
X129398Y213561D01*
X129996Y213840D01*
X130635Y214079D01*
X131154Y214279D01*
X131633Y214438D01*
X131992Y214478D01*
X132231Y214558D01*
X132311D01*
X132989Y214678D01*
X134267D01*
X134825Y214598D01*
X135304Y214518D01*
X135703Y214438D01*
X135943Y214359D01*
X136023D01*
X136661Y214119D01*
X137299Y213800D01*
X137858Y213481D01*
X138377Y213122D01*
X138776Y212802D01*
X139095Y212563D01*
X139255Y212403D01*
X139335Y212323D01*
X139774Y211805D01*
X140133Y211366D01*
X140772Y210328D01*
X141171Y209370D01*
X141450Y208452D01*
X141610Y207654D01*
X141690Y207016D01*
Y206616D01*
Y206457D01*
X141490Y205220D01*
X141091Y204023D01*
X140492Y202865D01*
X139894Y201867D01*
X139295Y201029D01*
X139016Y200670D01*
X138736Y200391D01*
X138537Y200112D01*
X138217Y199792D01*
X137459Y199114D01*
X136661Y198475D01*
X135943Y197917D01*
X135264Y197477D01*
X134705Y197158D01*
X134227Y196919D01*
X133947Y196719D01*
X133827Y196679D01*
X132870Y196280D01*
X131872Y196001D01*
X130874Y195801D01*
X129916Y195562D01*
X129078Y195442D01*
X128440Y195362D01*
X128001Y195322D01*
X127881Y195362D01*
X127841Y195322D01*
X128280Y194724D01*
X128679Y194165D01*
X129038Y193646D01*
X129278Y193167D01*
X129478Y192728D01*
X129597Y192449D01*
X129717Y192250D01*
Y192170D01*
X126165Y188618D01*
X125926Y189256D01*
X125686Y189895D01*
X125447Y190454D01*
X125167Y190893D01*
X124968Y191332D01*
X124768Y191611D01*
X124649Y191811D01*
X124609Y191850D01*
X124369Y192170D01*
X124050Y192569D01*
X123651Y192968D01*
X123252Y193447D01*
X122294Y194484D01*
X121296Y195482D01*
X120378Y196480D01*
X119939Y196919D01*
X119580Y197278D01*
X119261Y197597D01*
X119022Y197837D01*
X118862Y197996D01*
X118822Y198036D01*
X114272Y202586D01*
X113514Y203344D01*
X112876Y204062D01*
X112397Y204621D01*
X111958Y205060D01*
X111678Y205419D01*
X111479Y205699D01*
X111399Y205858D01*
X111359Y205898D01*
X110960Y206537D01*
X110681Y207135D01*
X110481Y207654D01*
X110322Y208213D01*
X110242Y208612D01*
X110162Y208931D01*
X110122Y209131D01*
Y209211D01*
Y209849D01*
X110162Y210527D01*
X110322Y211166D01*
X110481Y211805D01*
X110681Y212323D01*
X110840Y212722D01*
X110960Y213002D01*
X111000Y213122D01*
X111439Y213960D01*
X111958Y214798D01*
X112516Y215596D01*
X113115Y216354D01*
X113674Y216993D01*
X114073Y217472D01*
X114512Y217911D01*
X115510Y218828D01*
X116427Y219587D01*
X117345Y220265D01*
X118104Y220784D01*
X118782Y221223D01*
X119301Y221502D01*
X119500Y221622D01*
X119660Y221702D01*
X119740D01*
X119780Y221742D01*
X120738Y222141D01*
X121695Y222380D01*
X122534Y222580D01*
X123292Y222700D01*
X124808D01*
X125686Y222540D01*
D02*
G37*
G36*
X122015Y184467D02*
X118623Y181075D01*
X108246Y191451D01*
X107249Y192369D01*
X106371Y193167D01*
X105573Y193806D01*
X104854Y194285D01*
X104295Y194604D01*
X103896Y194844D01*
X103657Y195003D01*
X103537Y195043D01*
X102779Y195322D01*
X102061Y195482D01*
X101382Y195602D01*
X100784Y195642D01*
X100265Y195602D01*
X99906Y195562D01*
X99626Y195522D01*
X99546D01*
X98828Y195283D01*
X98189Y195043D01*
X97591Y194684D01*
X97072Y194405D01*
X96713Y194125D01*
X96394Y193886D01*
X96154Y193646D01*
X95516Y192928D01*
X95077Y192250D01*
X94797Y191571D01*
X94638Y191012D01*
X94598Y190494D01*
X94558Y190134D01*
X94598Y189855D01*
Y189775D01*
X94797Y189017D01*
X95117Y188299D01*
X95516Y187580D01*
X95995Y186942D01*
X96394Y186383D01*
X96793Y185904D01*
X96952Y185744D01*
X97032Y185665D01*
X97112Y185585D01*
X97152Y185545D01*
X110122Y172575D01*
X106730Y169183D01*
X95117Y180796D01*
X93959Y181794D01*
X92882Y182552D01*
X91924Y183111D01*
X91006Y183470D01*
X90288Y183709D01*
X89729Y183789D01*
X89370Y183829D01*
X89250Y183869D01*
X88212Y183789D01*
X87255Y183549D01*
X86417Y183190D01*
X85658Y182831D01*
X85100Y182432D01*
X84661Y182073D01*
X84461Y181953D01*
X84262Y181754D01*
X83862Y181275D01*
X83543Y180876D01*
X83264Y180437D01*
X83104Y180038D01*
X82944Y179639D01*
X82865Y179399D01*
X82785Y179239D01*
Y179160D01*
X82705Y178601D01*
Y178122D01*
X82745Y177683D01*
X82825Y177284D01*
X82905Y176965D01*
X82984Y176725D01*
X83024Y176526D01*
X83064Y176486D01*
X83304Y176007D01*
X83703Y175448D01*
X84142Y174929D01*
X84581Y174410D01*
X84980Y173932D01*
X85339Y173573D01*
X85578Y173333D01*
X85618Y173293D01*
X85658Y173253D01*
X98229Y160682D01*
X94837Y157290D01*
X81109Y171018D01*
X80470Y171657D01*
X79991Y172295D01*
X79512Y172934D01*
X79113Y173493D01*
X78754Y174091D01*
X78515Y174650D01*
X78275Y175129D01*
X78076Y175648D01*
X77956Y176087D01*
X77796Y176486D01*
X77716Y177124D01*
X77637Y177523D01*
Y177683D01*
X77716Y178880D01*
X78076Y180038D01*
X78515Y181115D01*
X79033Y182033D01*
X79592Y182831D01*
X79832Y183151D01*
X80111Y183430D01*
X80271Y183669D01*
X80550Y183949D01*
X81308Y184627D01*
X82066Y185146D01*
X82865Y185625D01*
X83703Y185984D01*
X84541Y186263D01*
X85339Y186503D01*
X86097Y186623D01*
X86855Y186742D01*
X87614Y186782D01*
X88811D01*
X89330Y186742D01*
X89769Y186702D01*
X90048Y186662D01*
X90248Y186623D01*
X90328D01*
X89968Y187461D01*
X89769Y188299D01*
X89689Y189097D01*
X89649Y189775D01*
Y190414D01*
X89689Y190853D01*
X89729Y191132D01*
X89769Y191252D01*
X90008Y192130D01*
X90367Y192968D01*
X90806Y193726D01*
X91285Y194445D01*
X91684Y195003D01*
X92084Y195482D01*
X92443Y195841D01*
X93201Y196520D01*
X93999Y197078D01*
X94717Y197557D01*
X95396Y197917D01*
X96034Y198156D01*
X96473Y198356D01*
X96793Y198435D01*
X96912Y198475D01*
X97830Y198675D01*
X98708Y198755D01*
X99546Y198794D01*
X100305Y198755D01*
X100903Y198715D01*
X101422Y198675D01*
X101701Y198635D01*
X101821Y198595D01*
X98948Y201468D01*
X101981Y204501D01*
X122015Y184467D01*
D02*
G37*
G36*
X66063Y176007D02*
X62671Y172615D01*
X58800Y176486D01*
X62192Y179878D01*
X66063Y176007D01*
D02*
G37*
G36*
X89809Y152261D02*
X86417Y148869D01*
X66383Y168903D01*
X69775Y172295D01*
X89809Y152261D01*
D02*
G37*
G36*
X62352Y159924D02*
X63429Y159804D01*
X64307Y159644D01*
X64986Y159445D01*
X65225Y159365D01*
X65425Y159325D01*
X65545Y159285D01*
X65584Y159245D01*
X66901Y158647D01*
X68099Y157928D01*
X69256Y157170D01*
X70254Y156412D01*
X70693Y156053D01*
X71092Y155733D01*
X71411Y155414D01*
X71730Y155175D01*
X71970Y154935D01*
X72129Y154776D01*
X72249Y154656D01*
X72289Y154616D01*
X73167Y153658D01*
X73925Y152740D01*
X74644Y151783D01*
X75202Y150905D01*
X75761Y150027D01*
X76120Y149188D01*
X76519Y148390D01*
X76799Y147632D01*
X76998Y146954D01*
X77198Y146355D01*
X77317Y145756D01*
X77437Y145317D01*
X77477Y144958D01*
X77517Y144679D01*
Y144519D01*
Y144439D01*
Y143482D01*
X77397Y142564D01*
X77238Y141686D01*
X76998Y140808D01*
X76679Y140010D01*
X76399Y139251D01*
X75641Y137855D01*
X75242Y137296D01*
X74883Y136777D01*
X74564Y136298D01*
X74244Y135899D01*
X74005Y135580D01*
X73606Y135181D01*
X72967Y134622D01*
X72329Y134063D01*
X71052Y133265D01*
X69815Y132587D01*
X68657Y132148D01*
X68138Y132028D01*
X67660Y131868D01*
X67221Y131749D01*
X66862Y131709D01*
X66582Y131669D01*
X66383Y131629D01*
X66263Y131589D01*
X65385D01*
X64627Y131629D01*
X63110Y131868D01*
X61673Y132267D01*
X60476Y132746D01*
X59399Y133265D01*
X59000Y133505D01*
X58601Y133744D01*
X58321Y133944D01*
X58122Y134063D01*
X57962Y134143D01*
X57922Y134183D01*
X60835Y137974D01*
X61873Y137256D01*
X62910Y136697D01*
X63868Y136378D01*
X64667Y136138D01*
X65385Y135979D01*
X65904Y135939D01*
X66223Y135859D01*
X66343Y135899D01*
X67260Y136019D01*
X68099Y136298D01*
X68897Y136617D01*
X69535Y137016D01*
X70054Y137376D01*
X70493Y137735D01*
X70773Y137934D01*
X70852Y138014D01*
X71251Y138493D01*
X71651Y138972D01*
X72249Y139970D01*
X72648Y140927D01*
X72888Y141885D01*
X73007Y142644D01*
X73087Y143282D01*
Y143681D01*
Y143841D01*
X73007Y144479D01*
X72808Y145158D01*
X72289Y146395D01*
X71571Y147672D01*
X70773Y148790D01*
X70014Y149787D01*
X69695Y150186D01*
X69336Y150545D01*
X69136Y150825D01*
X68897Y151064D01*
X68777Y151184D01*
X68737Y151224D01*
X68019Y151942D01*
X67260Y152541D01*
X66542Y153099D01*
X65904Y153578D01*
X65265Y153977D01*
X64627Y154297D01*
X64068Y154616D01*
X63509Y154855D01*
X63030Y155015D01*
X62631Y155175D01*
X62232Y155255D01*
X61913Y155334D01*
X61673Y155414D01*
X61474Y155454D01*
X61354Y155414D01*
X61314Y155454D01*
X60676D01*
X60077Y155414D01*
X58920Y155215D01*
X57882Y154816D01*
X57044Y154377D01*
X56286Y153938D01*
X55807Y153539D01*
X55567Y153379D01*
X55328Y153139D01*
X54769Y152501D01*
X54330Y151823D01*
X54011Y151184D01*
X53772Y150545D01*
X53652Y150027D01*
X53532Y149588D01*
X53492Y149308D01*
Y149228D01*
Y148430D01*
X53612Y147592D01*
X53811Y146754D01*
X54091Y146076D01*
X54330Y145437D01*
X54570Y144958D01*
X54769Y144679D01*
Y144599D01*
X54809Y144559D01*
X50978Y141766D01*
X50180Y143123D01*
X49661Y144439D01*
X49302Y145677D01*
X49102Y146754D01*
X49022Y147712D01*
Y148430D01*
Y148909D01*
X48983Y149029D01*
X49022Y149069D01*
X49302Y150466D01*
X49781Y151743D01*
X50339Y152940D01*
X50978Y153977D01*
X51617Y154855D01*
X51896Y155215D01*
X52135Y155454D01*
X52335Y155733D01*
X52654Y156053D01*
X53652Y156971D01*
X54689Y157689D01*
X55727Y158328D01*
X56605Y158806D01*
X57443Y159166D01*
X57802Y159285D01*
X58082Y159405D01*
X58321Y159485D01*
X58521Y159525D01*
X58640Y159565D01*
X58680Y159605D01*
X59917Y159884D01*
X61195Y159964D01*
X62352Y159924D01*
D02*
G37*
G36*
X39365Y130392D02*
X64307Y126760D01*
X59917Y122370D01*
X43355Y124964D01*
X42956Y125044D01*
X42477Y125124D01*
X41400Y125323D01*
X40881Y125443D01*
X40482Y125523D01*
X40203Y125563D01*
X40123D01*
X40322Y124565D01*
X40522Y123647D01*
X40562Y123288D01*
X40642Y123049D01*
X40682Y122849D01*
Y122769D01*
X43515Y105968D01*
X39005Y101458D01*
X34855Y126281D01*
X12147Y129833D01*
X16138Y133824D01*
X28988Y131988D01*
X30066Y131868D01*
X31024Y131709D01*
X31982Y131549D01*
X32740Y131429D01*
X33418Y131310D01*
X33937Y131190D01*
X34216Y131150D01*
X34336Y131110D01*
X34137Y131868D01*
X33937Y132706D01*
X33738Y133624D01*
X33538Y134542D01*
X33418Y135380D01*
X33259Y136019D01*
X33219Y136298D01*
X33179Y136498D01*
X33219Y136617D01*
X33179Y136657D01*
X31104Y148790D01*
X35454Y153139D01*
X39365Y130392D01*
D02*
G37*
G36*
X20645Y197671D02*
Y197058D01*
X18923Y198200D01*
Y191944D01*
X20846D01*
Y191374D01*
X16609D01*
Y191944D01*
X18257D01*
Y198897D01*
X18859D01*
X20645Y197671D01*
D02*
G37*
G36*
X10364Y191374D02*
X9646D01*
Y194998D01*
X5461D01*
Y191374D01*
X4753D01*
Y198897D01*
X5461D01*
Y195621D01*
X9646D01*
Y198897D01*
X10364D01*
Y191374D01*
D02*
G37*
G36*
X28654D02*
X27978D01*
Y196667D01*
Y196879D01*
X27989Y197101D01*
X27999Y197333D01*
Y197555D01*
X28010Y197756D01*
X28020Y197840D01*
Y197904D01*
X28031Y197967D01*
Y198009D01*
Y198041D01*
Y198052D01*
X23540Y191374D01*
X22663D01*
Y198897D01*
X23350D01*
Y193656D01*
Y193381D01*
X23340Y193106D01*
X23329Y192853D01*
X23318Y192631D01*
X23308Y192525D01*
Y192441D01*
X23297Y192356D01*
Y192282D01*
Y192229D01*
X23287Y192187D01*
Y192166D01*
Y192155D01*
X27820Y198897D01*
X28654D01*
Y191374D01*
D02*
G37*
G36*
X39844Y199003D02*
X40098Y198971D01*
X40341Y198918D01*
X40573Y198855D01*
X40774Y198781D01*
X40975Y198696D01*
X41144Y198601D01*
X41302Y198506D01*
X41450Y198411D01*
X41567Y198316D01*
X41672Y198231D01*
X41757Y198157D01*
X41831Y198094D01*
X41873Y198041D01*
X41905Y198009D01*
X41915Y197999D01*
X42063Y197798D01*
X42190Y197587D01*
X42306Y197365D01*
X42401Y197132D01*
X42475Y196889D01*
X42549Y196657D01*
X42602Y196424D01*
X42644Y196203D01*
X42676Y195991D01*
X42708Y195801D01*
X42729Y195621D01*
X42739Y195463D01*
Y195347D01*
X42750Y195252D01*
Y195188D01*
Y195177D01*
Y195167D01*
X42739Y194829D01*
X42718Y194522D01*
X42676Y194227D01*
X42623Y193952D01*
X42560Y193688D01*
X42486Y193455D01*
X42412Y193244D01*
X42338Y193043D01*
X42264Y192874D01*
X42190Y192716D01*
X42116Y192589D01*
X42053Y192483D01*
X42000Y192399D01*
X41958Y192346D01*
X41936Y192304D01*
X41926Y192293D01*
X41767Y192113D01*
X41588Y191955D01*
X41408Y191817D01*
X41218Y191691D01*
X41028Y191595D01*
X40837Y191511D01*
X40658Y191437D01*
X40478Y191384D01*
X40309Y191342D01*
X40151Y191310D01*
X40003Y191289D01*
X39887Y191278D01*
X39781Y191268D01*
X39707Y191257D01*
X39643D01*
X39284Y191278D01*
X38957Y191331D01*
X38650Y191416D01*
X38375Y191532D01*
X38133Y191659D01*
X37900Y191807D01*
X37710Y191965D01*
X37530Y192134D01*
X37382Y192293D01*
X37245Y192451D01*
X37139Y192599D01*
X37055Y192726D01*
X36991Y192842D01*
X36939Y192927D01*
X36917Y192980D01*
X36907Y193001D01*
X37541Y193297D01*
X37646Y193064D01*
X37763Y192853D01*
X37900Y192673D01*
X38016Y192515D01*
X38133Y192399D01*
X38228Y192314D01*
X38291Y192261D01*
X38301Y192240D01*
X38312D01*
X38513Y192113D01*
X38724Y192018D01*
X38946Y191955D01*
X39147Y191912D01*
X39337Y191881D01*
X39411Y191870D01*
X39474D01*
X39538Y191860D01*
X39612D01*
X39813Y191870D01*
X40013Y191902D01*
X40193Y191944D01*
X40362Y191997D01*
X40521Y192060D01*
X40668Y192134D01*
X40806Y192219D01*
X40922Y192304D01*
X41028Y192377D01*
X41123Y192462D01*
X41207Y192536D01*
X41271Y192599D01*
X41323Y192652D01*
X41355Y192694D01*
X41376Y192726D01*
X41387Y192737D01*
X41503Y192906D01*
X41598Y193096D01*
X41683Y193286D01*
X41757Y193487D01*
X41810Y193688D01*
X41862Y193888D01*
X41936Y194279D01*
X41968Y194459D01*
X41989Y194628D01*
X42000Y194776D01*
X42010Y194903D01*
X42021Y195009D01*
Y195093D01*
Y195135D01*
Y195156D01*
X42010Y195431D01*
X41989Y195695D01*
X41958Y195938D01*
X41926Y196171D01*
X41873Y196382D01*
X41820Y196583D01*
X41767Y196752D01*
X41704Y196921D01*
X41641Y197058D01*
X41588Y197185D01*
X41535Y197291D01*
X41482Y197375D01*
X41450Y197449D01*
X41419Y197492D01*
X41398Y197523D01*
X41387Y197534D01*
X41260Y197682D01*
X41123Y197819D01*
X40975Y197935D01*
X40827Y198030D01*
X40679Y198115D01*
X40531Y198189D01*
X40383Y198242D01*
X40235Y198295D01*
X40098Y198326D01*
X39971Y198358D01*
X39865Y198379D01*
X39760Y198390D01*
X39686D01*
X39622Y198400D01*
X39569D01*
X39316Y198390D01*
X39083Y198358D01*
X38872Y198305D01*
X38703Y198252D01*
X38555Y198189D01*
X38449Y198147D01*
X38418Y198126D01*
X38386Y198104D01*
X38375Y198094D01*
X38365D01*
X38185Y197967D01*
X38037Y197819D01*
X37900Y197661D01*
X37794Y197502D01*
X37710Y197354D01*
X37646Y197227D01*
X37625Y197185D01*
X37604Y197153D01*
X37594Y197132D01*
Y197122D01*
X36939Y197397D01*
X37012Y197555D01*
X37086Y197692D01*
X37160Y197819D01*
X37245Y197946D01*
X37414Y198157D01*
X37583Y198326D01*
X37731Y198453D01*
X37847Y198548D01*
X37889Y198580D01*
X37921Y198601D01*
X37942Y198622D01*
X37953D01*
X38207Y198749D01*
X38481Y198844D01*
X38756Y198918D01*
X39009Y198960D01*
X39126Y198981D01*
X39231Y198992D01*
X39327Y199003D01*
X39411D01*
X39474Y199013D01*
X39569D01*
X39844Y199003D01*
D02*
G37*
G36*
X36484Y191374D02*
X35734D01*
X34825Y193719D01*
X31423D01*
X30525Y191374D01*
X29764D01*
X32691Y198897D01*
X33547D01*
X36484Y191374D01*
D02*
G37*
G36*
X16006Y190000D02*
X11252D01*
Y190423D01*
X16006D01*
Y190000D01*
D02*
G37*
G36*
X20645Y220171D02*
Y219558D01*
X18923Y220700D01*
Y214444D01*
X20846D01*
Y213874D01*
X16609D01*
Y214444D01*
X18257D01*
Y221397D01*
X18859D01*
X20645Y220171D01*
D02*
G37*
G36*
X28654Y213874D02*
X27978D01*
Y219167D01*
Y219379D01*
X27989Y219601D01*
X27999Y219833D01*
Y220055D01*
X28010Y220256D01*
X28020Y220340D01*
Y220404D01*
X28031Y220467D01*
Y220509D01*
Y220541D01*
Y220552D01*
X23540Y213874D01*
X22663D01*
Y221397D01*
X23350D01*
Y216156D01*
Y215881D01*
X23340Y215606D01*
X23329Y215353D01*
X23318Y215131D01*
X23308Y215025D01*
Y214941D01*
X23297Y214856D01*
Y214782D01*
Y214729D01*
X23287Y214687D01*
Y214666D01*
Y214656D01*
X27820Y221397D01*
X28654D01*
Y213874D01*
D02*
G37*
G36*
X39844Y221503D02*
X40098Y221471D01*
X40341Y221418D01*
X40573Y221355D01*
X40774Y221281D01*
X40975Y221196D01*
X41144Y221101D01*
X41302Y221006D01*
X41450Y220911D01*
X41567Y220816D01*
X41672Y220731D01*
X41757Y220657D01*
X41831Y220594D01*
X41873Y220541D01*
X41905Y220509D01*
X41915Y220499D01*
X42063Y220298D01*
X42190Y220087D01*
X42306Y219865D01*
X42401Y219632D01*
X42475Y219389D01*
X42549Y219157D01*
X42602Y218924D01*
X42644Y218703D01*
X42676Y218491D01*
X42708Y218301D01*
X42729Y218121D01*
X42739Y217963D01*
Y217847D01*
X42750Y217752D01*
Y217688D01*
Y217677D01*
Y217667D01*
X42739Y217329D01*
X42718Y217022D01*
X42676Y216727D01*
X42623Y216452D01*
X42560Y216188D01*
X42486Y215955D01*
X42412Y215744D01*
X42338Y215543D01*
X42264Y215374D01*
X42190Y215216D01*
X42116Y215089D01*
X42053Y214983D01*
X42000Y214899D01*
X41958Y214846D01*
X41936Y214804D01*
X41926Y214793D01*
X41767Y214613D01*
X41588Y214455D01*
X41408Y214317D01*
X41218Y214191D01*
X41028Y214095D01*
X40837Y214011D01*
X40658Y213937D01*
X40478Y213884D01*
X40309Y213842D01*
X40151Y213810D01*
X40003Y213789D01*
X39887Y213778D01*
X39781Y213768D01*
X39707Y213757D01*
X39643D01*
X39284Y213778D01*
X38957Y213831D01*
X38650Y213916D01*
X38375Y214032D01*
X38133Y214159D01*
X37900Y214307D01*
X37710Y214465D01*
X37530Y214634D01*
X37382Y214793D01*
X37245Y214951D01*
X37139Y215099D01*
X37055Y215226D01*
X36991Y215342D01*
X36939Y215427D01*
X36917Y215480D01*
X36907Y215501D01*
X37541Y215797D01*
X37646Y215564D01*
X37763Y215353D01*
X37900Y215173D01*
X38016Y215015D01*
X38133Y214899D01*
X38228Y214814D01*
X38291Y214761D01*
X38301Y214740D01*
X38312D01*
X38513Y214613D01*
X38724Y214518D01*
X38946Y214455D01*
X39147Y214412D01*
X39337Y214381D01*
X39411Y214370D01*
X39474D01*
X39538Y214360D01*
X39612D01*
X39813Y214370D01*
X40013Y214402D01*
X40193Y214444D01*
X40362Y214497D01*
X40521Y214561D01*
X40668Y214634D01*
X40806Y214719D01*
X40922Y214804D01*
X41028Y214877D01*
X41123Y214962D01*
X41207Y215036D01*
X41271Y215099D01*
X41323Y215152D01*
X41355Y215194D01*
X41376Y215226D01*
X41387Y215237D01*
X41503Y215406D01*
X41598Y215596D01*
X41683Y215786D01*
X41757Y215987D01*
X41810Y216188D01*
X41862Y216388D01*
X41936Y216779D01*
X41968Y216959D01*
X41989Y217128D01*
X42000Y217276D01*
X42010Y217403D01*
X42021Y217509D01*
Y217593D01*
Y217635D01*
Y217656D01*
X42010Y217931D01*
X41989Y218195D01*
X41958Y218438D01*
X41926Y218671D01*
X41873Y218882D01*
X41820Y219083D01*
X41767Y219252D01*
X41704Y219421D01*
X41641Y219558D01*
X41588Y219685D01*
X41535Y219791D01*
X41482Y219875D01*
X41450Y219949D01*
X41419Y219992D01*
X41398Y220023D01*
X41387Y220034D01*
X41260Y220182D01*
X41123Y220319D01*
X40975Y220435D01*
X40827Y220530D01*
X40679Y220615D01*
X40531Y220689D01*
X40383Y220742D01*
X40235Y220795D01*
X40098Y220826D01*
X39971Y220858D01*
X39865Y220879D01*
X39760Y220890D01*
X39686D01*
X39622Y220900D01*
X39569D01*
X39316Y220890D01*
X39083Y220858D01*
X38872Y220805D01*
X38703Y220752D01*
X38555Y220689D01*
X38449Y220647D01*
X38418Y220626D01*
X38386Y220604D01*
X38375Y220594D01*
X38365D01*
X38185Y220467D01*
X38037Y220319D01*
X37900Y220161D01*
X37794Y220002D01*
X37710Y219854D01*
X37646Y219727D01*
X37625Y219685D01*
X37604Y219653D01*
X37594Y219632D01*
Y219622D01*
X36939Y219897D01*
X37012Y220055D01*
X37086Y220192D01*
X37160Y220319D01*
X37245Y220446D01*
X37414Y220657D01*
X37583Y220826D01*
X37731Y220953D01*
X37847Y221048D01*
X37889Y221080D01*
X37921Y221101D01*
X37942Y221122D01*
X37953D01*
X38207Y221249D01*
X38481Y221344D01*
X38756Y221418D01*
X39009Y221460D01*
X39126Y221481D01*
X39231Y221492D01*
X39327Y221503D01*
X39411D01*
X39474Y221513D01*
X39569D01*
X39844Y221503D01*
D02*
G37*
G36*
X36484Y213874D02*
X35734D01*
X34825Y216219D01*
X31423D01*
X30525Y213874D01*
X29764D01*
X32691Y221397D01*
X33547D01*
X36484Y213874D01*
D02*
G37*
G36*
X10322D02*
X6476D01*
Y214476D01*
X9603D01*
Y221397D01*
X10322D01*
Y213874D01*
D02*
G37*
G36*
X16006Y212500D02*
X11252D01*
Y212923D01*
X16006D01*
Y212500D01*
D02*
G37*
%LPC*%
G36*
X26061Y17855D02*
X26030D01*
X26009D01*
X25998D01*
X25871D01*
X25755Y17834D01*
X25544Y17781D01*
X25364Y17707D01*
X25216Y17623D01*
X25100Y17528D01*
X25015Y17454D01*
X24963Y17401D01*
X24941Y17390D01*
Y17380D01*
X24825Y17179D01*
X24730Y16957D01*
X24667Y16724D01*
X24625Y16503D01*
X24603Y16302D01*
X24593Y16217D01*
Y16133D01*
X24582Y16069D01*
Y14971D01*
X27308D01*
Y16143D01*
X27298Y16302D01*
X27277Y16450D01*
X27255Y16587D01*
X27234Y16714D01*
X27213Y16830D01*
X27182Y16936D01*
X27150Y17031D01*
X27118Y17115D01*
X27097Y17179D01*
X27065Y17242D01*
X27044Y17295D01*
X27023Y17327D01*
X27002Y17358D01*
X26991Y17380D01*
X26928Y17464D01*
X26854Y17538D01*
X26706Y17654D01*
X26537Y17739D01*
X26379Y17792D01*
X26231Y17834D01*
X26114Y17845D01*
X26061Y17855D01*
D02*
G37*
G36*
X22585Y18288D02*
X22543D01*
X22522D01*
X22511D01*
X22374Y18278D01*
X22236Y18267D01*
X22004Y18204D01*
X21803Y18119D01*
X21634Y18024D01*
X21507Y17929D01*
X21412Y17845D01*
X21360Y17781D01*
X21338Y17771D01*
Y17760D01*
X21264Y17654D01*
X21201Y17538D01*
X21106Y17295D01*
X21032Y17041D01*
X20990Y16788D01*
X20968Y16672D01*
X20958Y16555D01*
X20947Y16460D01*
Y16376D01*
X20937Y16302D01*
Y14971D01*
X24022D01*
Y16323D01*
X24001Y16503D01*
X23990Y16661D01*
X23959Y16820D01*
X23927Y16957D01*
X23895Y17094D01*
X23864Y17211D01*
X23832Y17316D01*
X23790Y17411D01*
X23758Y17496D01*
X23726Y17570D01*
X23695Y17623D01*
X23663Y17665D01*
X23652Y17707D01*
X23631Y17718D01*
Y17728D01*
X23557Y17823D01*
X23473Y17918D01*
X23388Y17992D01*
X23293Y18056D01*
X23114Y18151D01*
X22934Y18214D01*
X22765Y18257D01*
X22691Y18267D01*
X22638Y18278D01*
X22585Y18288D01*
D02*
G37*
G36*
X23187Y11705D02*
X23135D01*
X23092D01*
X23082D01*
X22881D01*
X22691Y11684D01*
X22511Y11663D01*
X22353Y11631D01*
X22194Y11600D01*
X22057Y11558D01*
X21930Y11526D01*
X21824Y11484D01*
X21719Y11441D01*
X21634Y11399D01*
X21560Y11357D01*
X21497Y11325D01*
X21455Y11293D01*
X21423Y11272D01*
X21402Y11262D01*
X21391Y11251D01*
X21286Y11156D01*
X21201Y11061D01*
X21127Y10955D01*
X21053Y10850D01*
X20947Y10617D01*
X20884Y10395D01*
X20842Y10194D01*
X20831Y10110D01*
X20821Y10025D01*
X20810Y9962D01*
Y9877D01*
X20821Y9729D01*
X20831Y9582D01*
X20905Y9328D01*
X21000Y9106D01*
X21106Y8927D01*
X21212Y8789D01*
X21307Y8694D01*
X21381Y8631D01*
X21391Y8620D01*
X21402Y8609D01*
X21518Y8536D01*
X21645Y8472D01*
X21920Y8367D01*
X22194Y8303D01*
X22469Y8250D01*
X22585Y8229D01*
X22701Y8219D01*
X22807Y8208D01*
X22902D01*
X22976Y8197D01*
X23029D01*
X23071D01*
X23082D01*
X23272D01*
X23462Y8219D01*
X23631Y8240D01*
X23790Y8261D01*
X23938Y8292D01*
X24075Y8335D01*
X24202Y8367D01*
X24318Y8409D01*
X24413Y8451D01*
X24508Y8483D01*
X24582Y8525D01*
X24646Y8557D01*
X24688Y8578D01*
X24720Y8599D01*
X24741Y8620D01*
X24751D01*
X24857Y8705D01*
X24952Y8800D01*
X25026Y8905D01*
X25100Y9011D01*
X25163Y9117D01*
X25206Y9222D01*
X25280Y9434D01*
X25322Y9634D01*
X25332Y9719D01*
X25343Y9782D01*
X25354Y9846D01*
Y9930D01*
X25343Y10089D01*
X25332Y10237D01*
X25259Y10511D01*
X25174Y10733D01*
X25068Y10924D01*
X24952Y11061D01*
X24867Y11167D01*
X24794Y11230D01*
X24783Y11251D01*
X24772D01*
X24656Y11336D01*
X24529Y11399D01*
X24265Y11515D01*
X23980Y11600D01*
X23705Y11653D01*
X23578Y11663D01*
X23462Y11684D01*
X23356Y11695D01*
X23261D01*
X23187Y11705D01*
D02*
G37*
G36*
X393636Y111695D02*
X391028D01*
X390676Y111671D01*
X390347Y111624D01*
X390041Y111577D01*
X389759Y111530D01*
X389501Y111483D01*
X389266Y111413D01*
X389054Y111342D01*
X388867Y111272D01*
X388726Y111225D01*
X388585Y111154D01*
X388467Y111107D01*
X388397Y111060D01*
X388326Y111013D01*
X388279Y110990D01*
X388091Y110849D01*
X387927Y110684D01*
X387668Y110356D01*
X387480Y109979D01*
X387363Y109627D01*
X387269Y109298D01*
X387245Y109040D01*
X387222Y108922D01*
Y108852D01*
Y108805D01*
Y108781D01*
Y108499D01*
X387269Y108241D01*
X387386Y107771D01*
X387551Y107372D01*
X387739Y107043D01*
X387950Y106784D01*
X388115Y106596D01*
X388232Y106479D01*
X388256Y106432D01*
X388279D01*
X388726Y106173D01*
X389219Y105962D01*
X389736Y105821D01*
X390229Y105727D01*
X390676Y105680D01*
X390864Y105656D01*
X391052D01*
X391193Y105633D01*
X393636D01*
Y111695D01*
D02*
G37*
G36*
Y104388D02*
X390629D01*
X390229Y104341D01*
X389877Y104317D01*
X389524Y104247D01*
X389219Y104176D01*
X388913Y104106D01*
X388655Y104035D01*
X388420Y103965D01*
X388209Y103871D01*
X388021Y103800D01*
X387856Y103730D01*
X387739Y103659D01*
X387645Y103589D01*
X387551Y103565D01*
X387527Y103518D01*
X387504D01*
X387292Y103354D01*
X387081Y103166D01*
X386916Y102978D01*
X386776Y102767D01*
X386564Y102367D01*
X386423Y101968D01*
X386329Y101592D01*
X386306Y101427D01*
X386282Y101310D01*
X386259Y101192D01*
Y101098D01*
Y101051D01*
Y101028D01*
X386282Y100723D01*
X386306Y100417D01*
X386446Y99900D01*
X386634Y99454D01*
X386846Y99078D01*
X387057Y98796D01*
X387245Y98584D01*
X387386Y98467D01*
X387410Y98420D01*
X387433D01*
X387668Y98256D01*
X387927Y98115D01*
X388467Y97903D01*
X389031Y97739D01*
X389595Y97645D01*
X389853Y97598D01*
X390112Y97574D01*
X390323Y97551D01*
X390511D01*
X390676Y97527D01*
X393636D01*
Y104388D01*
D02*
G37*
G36*
X307204Y103486D02*
X306922D01*
X306753Y103458D01*
X306442Y103388D01*
X306161Y103261D01*
X305921Y103106D01*
X305723Y102908D01*
X305540Y102711D01*
X305399Y102486D01*
X305287Y102260D01*
X305188Y102020D01*
X305117Y101795D01*
X305061Y101597D01*
X305019Y101400D01*
X304990Y101245D01*
X304976Y101132D01*
X304962Y101048D01*
Y101033D01*
Y101019D01*
X309276D01*
X309234Y101442D01*
X309163Y101823D01*
X309107Y101978D01*
X309065Y102133D01*
X309008Y102274D01*
X308952Y102387D01*
X308895Y102500D01*
X308853Y102598D01*
X308797Y102669D01*
X308754Y102739D01*
X308726Y102782D01*
X308698Y102824D01*
X308670Y102852D01*
X308557Y102965D01*
X308444Y103063D01*
X308190Y103219D01*
X307923Y103331D01*
X307669Y103402D01*
X307457Y103458D01*
X307359Y103472D01*
X307274D01*
X307204Y103486D01*
D02*
G37*
G36*
X393561Y80723D02*
X393448D01*
X393251Y80709D01*
X393053Y80695D01*
X392715Y80610D01*
X392433Y80484D01*
X392193Y80343D01*
X392010Y80202D01*
X391883Y80075D01*
X391799Y79990D01*
X391771Y79976D01*
Y79962D01*
X391672Y79807D01*
X391573Y79652D01*
X391432Y79285D01*
X391334Y78919D01*
X391263Y78552D01*
X391235Y78383D01*
X391221Y78228D01*
X391207Y78087D01*
Y77960D01*
X391193Y77861D01*
Y77791D01*
Y77735D01*
Y77720D01*
Y77453D01*
X391221Y77199D01*
X391249Y76959D01*
X391291Y76734D01*
X391334Y76522D01*
X391376Y76339D01*
X391432Y76170D01*
X391489Y76015D01*
X391545Y75888D01*
X391601Y75761D01*
X391644Y75662D01*
X391686Y75578D01*
X391728Y75521D01*
X391756Y75479D01*
X391771Y75451D01*
X391785Y75437D01*
X391897Y75296D01*
X392024Y75183D01*
X392151Y75084D01*
X392292Y74986D01*
X392588Y74845D01*
X392856Y74760D01*
X393110Y74704D01*
X393223Y74690D01*
X393321Y74676D01*
X393392Y74661D01*
X393504D01*
X393716Y74676D01*
X393913Y74690D01*
X394280Y74774D01*
X394576Y74901D01*
X394830Y75042D01*
X395027Y75183D01*
X395168Y75310D01*
X395252Y75395D01*
X395267Y75409D01*
X395281Y75423D01*
X395379Y75578D01*
X395478Y75733D01*
X395619Y76099D01*
X395732Y76466D01*
X395802Y76818D01*
X395816Y76988D01*
X395844Y77143D01*
X395859Y77284D01*
Y77410D01*
X395873Y77509D01*
Y77580D01*
Y77636D01*
Y77650D01*
X395859Y77918D01*
X395844Y78172D01*
X395816Y78411D01*
X395774Y78637D01*
X395732Y78848D01*
X395675Y79032D01*
X395619Y79201D01*
X395563Y79356D01*
X395506Y79483D01*
X395464Y79609D01*
X395407Y79708D01*
X395365Y79793D01*
X395323Y79849D01*
X395295Y79892D01*
X395267Y79920D01*
Y79934D01*
X395140Y80075D01*
X395013Y80202D01*
X394872Y80300D01*
X394731Y80385D01*
X394421Y80526D01*
X394125Y80625D01*
X393857Y80681D01*
X393744Y80695D01*
X393645Y80709D01*
X393561Y80723D01*
D02*
G37*
G36*
X414396D02*
X414283D01*
X414072Y80709D01*
X413875Y80695D01*
X413508Y80596D01*
X413212Y80484D01*
X412958Y80343D01*
X412775Y80188D01*
X412634Y80075D01*
X412550Y79976D01*
X412521Y79962D01*
Y79948D01*
X412408Y79793D01*
X412324Y79624D01*
X412169Y79271D01*
X412056Y78891D01*
X411986Y78524D01*
X411972Y78355D01*
X411943Y78200D01*
X411929Y78059D01*
Y77932D01*
X411915Y77833D01*
Y77763D01*
Y77706D01*
Y77692D01*
Y77425D01*
X411943Y77171D01*
X411972Y76931D01*
X412014Y76720D01*
X412056Y76508D01*
X412113Y76325D01*
X412155Y76156D01*
X412211Y76015D01*
X412268Y75874D01*
X412324Y75761D01*
X412380Y75662D01*
X412423Y75578D01*
X412465Y75521D01*
X412493Y75479D01*
X412507Y75451D01*
X412521Y75437D01*
X412648Y75296D01*
X412775Y75183D01*
X412916Y75084D01*
X413057Y74986D01*
X413367Y74845D01*
X413663Y74760D01*
X413931Y74704D01*
X414044Y74690D01*
X414157Y74676D01*
X414241Y74661D01*
X414354D01*
X414551Y74676D01*
X414749Y74690D01*
X415087Y74788D01*
X415383Y74915D01*
X415623Y75056D01*
X415806Y75197D01*
X415933Y75324D01*
X416017Y75423D01*
X416031Y75437D01*
X416045Y75451D01*
X416144Y75606D01*
X416229Y75775D01*
X416370Y76142D01*
X416454Y76508D01*
X416525Y76875D01*
X416553Y77030D01*
X416567Y77185D01*
X416581Y77326D01*
Y77453D01*
X416595Y77551D01*
Y77622D01*
Y77678D01*
Y77692D01*
Y77946D01*
X416567Y78200D01*
X416539Y78425D01*
X416511Y78637D01*
X416469Y78834D01*
X416412Y79017D01*
X416370Y79187D01*
X416313Y79342D01*
X416257Y79468D01*
X416215Y79595D01*
X416158Y79694D01*
X416116Y79779D01*
X416088Y79835D01*
X416060Y79877D01*
X416031Y79906D01*
Y79920D01*
X415919Y80061D01*
X415792Y80188D01*
X415651Y80286D01*
X415510Y80385D01*
X415369Y80469D01*
X415228Y80526D01*
X414946Y80625D01*
X414678Y80681D01*
X414565Y80695D01*
X414481Y80709D01*
X414396Y80723D01*
D02*
G37*
G36*
X33135Y268305D02*
X33113D01*
X33029Y268062D01*
X32997Y267946D01*
X32966Y267851D01*
X32934Y267766D01*
X32913Y267692D01*
X32892Y267650D01*
Y267640D01*
X32807Y267397D01*
X32765Y267291D01*
X32722Y267185D01*
X32691Y267101D01*
X32670Y267037D01*
X32659Y266995D01*
X32648Y266984D01*
X31634Y264311D01*
X34624D01*
X33600Y266984D01*
X33504Y267217D01*
X33462Y267333D01*
X33430Y267428D01*
X33399Y267513D01*
X33378Y267576D01*
X33356Y267618D01*
Y267629D01*
X33272Y267882D01*
X33230Y267988D01*
X33198Y268094D01*
X33177Y268178D01*
X33156Y268252D01*
X33135Y268295D01*
Y268305D01*
D02*
G37*
G36*
X18828Y268443D02*
X18743D01*
X18585Y268432D01*
X18426Y268411D01*
X18289Y268369D01*
X18162Y268316D01*
X18046Y268263D01*
X17940Y268189D01*
X17845Y268126D01*
X17760Y268052D01*
X17613Y267904D01*
X17517Y267777D01*
X17486Y267724D01*
X17465Y267682D01*
X17443Y267661D01*
Y267650D01*
X17370Y267492D01*
X17306Y267312D01*
X17253Y267122D01*
X17211Y266921D01*
X17137Y266498D01*
X17095Y266086D01*
X17074Y265896D01*
X17063Y265716D01*
X17053Y265547D01*
Y265410D01*
X17042Y265294D01*
Y265199D01*
Y265146D01*
Y265125D01*
Y264829D01*
X17063Y264544D01*
X17084Y264290D01*
X17105Y264047D01*
X17137Y263825D01*
X17179Y263624D01*
X17211Y263434D01*
X17253Y263276D01*
X17296Y263128D01*
X17327Y263001D01*
X17370Y262895D01*
X17401Y262811D01*
X17422Y262737D01*
X17443Y262694D01*
X17465Y262663D01*
Y262652D01*
X17549Y262504D01*
X17644Y262377D01*
X17739Y262272D01*
X17845Y262177D01*
X17951Y262092D01*
X18056Y262029D01*
X18173Y261976D01*
X18268Y261934D01*
X18468Y261870D01*
X18542Y261849D01*
X18616Y261839D01*
X18680D01*
X18722Y261828D01*
X18764D01*
X18923Y261839D01*
X19071Y261860D01*
X19219Y261902D01*
X19345Y261955D01*
X19462Y262018D01*
X19567Y262082D01*
X19662Y262156D01*
X19747Y262229D01*
X19884Y262377D01*
X19990Y262504D01*
X20022Y262557D01*
X20043Y262599D01*
X20064Y262621D01*
Y262631D01*
X20138Y262789D01*
X20201Y262969D01*
X20254Y263159D01*
X20307Y263360D01*
X20370Y263783D01*
X20423Y264184D01*
X20444Y264375D01*
X20455Y264554D01*
X20466Y264713D01*
Y264850D01*
X20476Y264966D01*
Y265051D01*
Y265104D01*
Y265125D01*
Y265442D01*
X20455Y265727D01*
X20434Y266002D01*
X20413Y266245D01*
X20381Y266467D01*
X20349Y266678D01*
X20317Y266868D01*
X20275Y267027D01*
X20233Y267175D01*
X20201Y267301D01*
X20170Y267407D01*
X20138Y267492D01*
X20106Y267555D01*
X20096Y267597D01*
X20075Y267629D01*
Y267640D01*
X19990Y267777D01*
X19905Y267904D01*
X19800Y268009D01*
X19694Y268104D01*
X19589Y268178D01*
X19472Y268242D01*
X19367Y268305D01*
X19261Y268347D01*
X19060Y268400D01*
X18976Y268421D01*
X18891Y268432D01*
X18828Y268443D01*
D02*
G37*
G36*
X33135Y290805D02*
X33113D01*
X33029Y290562D01*
X32997Y290446D01*
X32966Y290351D01*
X32934Y290266D01*
X32913Y290192D01*
X32892Y290150D01*
Y290140D01*
X32807Y289897D01*
X32765Y289791D01*
X32722Y289685D01*
X32691Y289601D01*
X32670Y289537D01*
X32659Y289495D01*
X32648Y289484D01*
X31634Y286811D01*
X34624D01*
X33600Y289484D01*
X33504Y289717D01*
X33462Y289833D01*
X33430Y289928D01*
X33399Y290013D01*
X33378Y290076D01*
X33356Y290118D01*
Y290129D01*
X33272Y290382D01*
X33230Y290488D01*
X33198Y290594D01*
X33177Y290678D01*
X33156Y290752D01*
X33135Y290795D01*
Y290805D01*
D02*
G37*
G36*
X18828Y290942D02*
X18743D01*
X18585Y290932D01*
X18426Y290911D01*
X18289Y290869D01*
X18162Y290816D01*
X18046Y290763D01*
X17940Y290689D01*
X17845Y290626D01*
X17760Y290552D01*
X17613Y290404D01*
X17517Y290277D01*
X17486Y290224D01*
X17465Y290182D01*
X17443Y290161D01*
Y290150D01*
X17370Y289992D01*
X17306Y289812D01*
X17253Y289622D01*
X17211Y289421D01*
X17137Y288998D01*
X17095Y288586D01*
X17074Y288396D01*
X17063Y288216D01*
X17053Y288047D01*
Y287910D01*
X17042Y287794D01*
Y287699D01*
Y287646D01*
Y287625D01*
Y287329D01*
X17063Y287043D01*
X17084Y286790D01*
X17105Y286547D01*
X17137Y286325D01*
X17179Y286124D01*
X17211Y285934D01*
X17253Y285776D01*
X17296Y285628D01*
X17327Y285501D01*
X17370Y285395D01*
X17401Y285311D01*
X17422Y285237D01*
X17443Y285194D01*
X17465Y285163D01*
Y285152D01*
X17549Y285004D01*
X17644Y284877D01*
X17739Y284772D01*
X17845Y284677D01*
X17951Y284592D01*
X18056Y284529D01*
X18173Y284476D01*
X18268Y284434D01*
X18468Y284370D01*
X18542Y284349D01*
X18616Y284338D01*
X18680D01*
X18722Y284328D01*
X18764D01*
X18923Y284338D01*
X19071Y284360D01*
X19219Y284402D01*
X19345Y284455D01*
X19462Y284518D01*
X19567Y284582D01*
X19662Y284655D01*
X19747Y284729D01*
X19884Y284877D01*
X19990Y285004D01*
X20022Y285057D01*
X20043Y285099D01*
X20064Y285121D01*
Y285131D01*
X20138Y285289D01*
X20201Y285469D01*
X20254Y285659D01*
X20307Y285860D01*
X20370Y286283D01*
X20423Y286684D01*
X20444Y286875D01*
X20455Y287054D01*
X20466Y287213D01*
Y287350D01*
X20476Y287466D01*
Y287551D01*
Y287604D01*
Y287625D01*
Y287942D01*
X20455Y288227D01*
X20434Y288502D01*
X20413Y288745D01*
X20381Y288967D01*
X20349Y289178D01*
X20317Y289368D01*
X20275Y289527D01*
X20233Y289675D01*
X20201Y289801D01*
X20170Y289907D01*
X20138Y289992D01*
X20106Y290055D01*
X20096Y290097D01*
X20075Y290129D01*
Y290140D01*
X19990Y290277D01*
X19905Y290404D01*
X19800Y290509D01*
X19694Y290604D01*
X19589Y290678D01*
X19472Y290742D01*
X19367Y290805D01*
X19261Y290847D01*
X19060Y290900D01*
X18976Y290921D01*
X18891Y290932D01*
X18828Y290942D01*
D02*
G37*
G36*
X59276Y28453D02*
X59233D01*
X59212D01*
X59202D01*
X58927Y28443D01*
X58663Y28421D01*
X58409Y28379D01*
X58187Y28326D01*
X57976Y28274D01*
X57775Y28210D01*
X57596Y28136D01*
X57437Y28062D01*
X57300Y27988D01*
X57173Y27914D01*
X57067Y27851D01*
X56983Y27798D01*
X56909Y27745D01*
X56867Y27703D01*
X56835Y27682D01*
X56824Y27671D01*
X56677Y27523D01*
X56550Y27354D01*
X56433Y27185D01*
X56338Y27006D01*
X56254Y26826D01*
X56190Y26646D01*
X56127Y26467D01*
X56085Y26298D01*
X56053Y26139D01*
X56021Y25981D01*
X56000Y25854D01*
X55990Y25738D01*
Y25642D01*
X55979Y25569D01*
Y23984D01*
X62277D01*
Y25315D01*
X62266Y25600D01*
X62245Y25864D01*
X62203Y26118D01*
X62150Y26351D01*
X62076Y26572D01*
X61991Y26773D01*
X61896Y26953D01*
X61801Y27132D01*
X61685Y27291D01*
X61569Y27439D01*
X61442Y27566D01*
X61305Y27692D01*
X61167Y27798D01*
X61030Y27893D01*
X60745Y28062D01*
X60449Y28189D01*
X60174Y28284D01*
X59920Y28358D01*
X59688Y28400D01*
X59582Y28421D01*
X59487Y28432D01*
X59403Y28443D01*
X59339D01*
X59276Y28453D01*
D02*
G37*
G36*
X183633Y294774D02*
X177248Y288389D01*
X176769Y287830D01*
X176250Y287311D01*
X175811Y286792D01*
X175133Y285874D01*
X174574Y285156D01*
X174175Y284517D01*
X173935Y284039D01*
X173776Y283799D01*
X173736Y283679D01*
X173377Y282602D01*
X173137Y281484D01*
X173057Y280367D01*
Y279329D01*
X173137Y278451D01*
X173217Y277733D01*
X173297Y277494D01*
X173337Y277294D01*
Y277134D01*
X173377Y277094D01*
X173576Y276416D01*
X173855Y275658D01*
X174534Y274261D01*
X175412Y272904D01*
X176290Y271627D01*
X176729Y271108D01*
X177168Y270590D01*
X177527Y270151D01*
X177886Y269791D01*
X178166Y269432D01*
X178365Y269233D01*
X178525Y269073D01*
X178565Y269033D01*
X179722Y267955D01*
X180839Y266998D01*
X181877Y266199D01*
X182795Y265521D01*
X183194Y265282D01*
X183553Y265082D01*
X183912Y264883D01*
X184152Y264723D01*
X184351Y264603D01*
X184511Y264523D01*
X184631Y264484D01*
X184671Y264444D01*
X185708Y263965D01*
X186706Y263605D01*
X187664Y263366D01*
X188502Y263167D01*
X189180Y263047D01*
X189699Y263007D01*
X190018D01*
X190138Y262967D01*
X190856Y263047D01*
X191535Y263167D01*
X192173Y263326D01*
X192812Y263486D01*
X193331Y263685D01*
X193730Y263845D01*
X193969Y264005D01*
X194089Y264044D01*
X194847Y264484D01*
X195685Y265082D01*
X196483Y265721D01*
X197202Y266359D01*
X197840Y266918D01*
X198160Y267157D01*
X204705Y273702D01*
X183633Y294774D01*
D02*
G37*
G36*
X132670Y210049D02*
X131872Y209889D01*
X131593Y209849D01*
X131353Y209769D01*
X131154Y209729D01*
X131114Y209689D01*
X130555Y209450D01*
X129996Y209131D01*
X129398Y208772D01*
X128839Y208372D01*
X128320Y208013D01*
X127841Y207694D01*
X127562Y207495D01*
X127482Y207415D01*
X126684Y206856D01*
X125966Y206297D01*
X125287Y205858D01*
X124609Y205419D01*
X123970Y205020D01*
X123412Y204701D01*
X122893Y204342D01*
X122414Y204102D01*
X122015Y203863D01*
X121656Y203663D01*
X121336Y203504D01*
X121057Y203384D01*
X120857Y203264D01*
X120698Y203184D01*
X120618D01*
X120578Y203144D01*
X121895Y201907D01*
X122733Y201149D01*
X123451Y200511D01*
X124090Y200032D01*
X124689Y199673D01*
X125167Y199433D01*
X125527Y199233D01*
X125726Y199114D01*
X125806D01*
X126644Y198914D01*
X127442Y198755D01*
X128240D01*
X128919Y198794D01*
X129517Y198834D01*
X129996Y198914D01*
X130276Y198954D01*
X130395Y198994D01*
X131273Y199313D01*
X132072Y199712D01*
X132790Y200112D01*
X133428Y200590D01*
X133947Y200949D01*
X134386Y201309D01*
X134705Y201628D01*
X135384Y202386D01*
X135903Y203065D01*
X136262Y203743D01*
X136541Y204342D01*
X136701Y204821D01*
X136781Y205220D01*
X136861Y205459D01*
Y205539D01*
X136821Y206217D01*
X136661Y206856D01*
X136501Y207415D01*
X136262Y207894D01*
X136023Y208293D01*
X135823Y208572D01*
X135623Y208772D01*
X135583Y208811D01*
X135224Y209091D01*
X134865Y209370D01*
X134546Y209530D01*
X134227Y209689D01*
X133947Y209809D01*
X133748Y209929D01*
X133588D01*
X133548Y209969D01*
X132670Y210049D01*
D02*
G37*
G36*
X33135Y198305D02*
X33113D01*
X33029Y198062D01*
X32997Y197946D01*
X32966Y197851D01*
X32934Y197766D01*
X32913Y197692D01*
X32892Y197650D01*
Y197640D01*
X32807Y197397D01*
X32765Y197291D01*
X32722Y197185D01*
X32691Y197101D01*
X32670Y197037D01*
X32659Y196995D01*
X32648Y196984D01*
X31634Y194311D01*
X34624D01*
X33600Y196984D01*
X33504Y197217D01*
X33462Y197333D01*
X33430Y197428D01*
X33399Y197513D01*
X33378Y197576D01*
X33356Y197618D01*
Y197629D01*
X33272Y197882D01*
X33230Y197988D01*
X33198Y198094D01*
X33177Y198178D01*
X33156Y198252D01*
X33135Y198295D01*
Y198305D01*
D02*
G37*
G36*
Y220805D02*
X33113D01*
X33029Y220562D01*
X32997Y220446D01*
X32966Y220351D01*
X32934Y220266D01*
X32913Y220192D01*
X32892Y220150D01*
Y220140D01*
X32807Y219897D01*
X32765Y219791D01*
X32722Y219685D01*
X32691Y219601D01*
X32670Y219537D01*
X32659Y219495D01*
X32648Y219484D01*
X31634Y216811D01*
X34624D01*
X33600Y219484D01*
X33504Y219717D01*
X33462Y219833D01*
X33430Y219928D01*
X33399Y220013D01*
X33378Y220076D01*
X33356Y220118D01*
Y220129D01*
X33272Y220382D01*
X33230Y220488D01*
X33198Y220594D01*
X33177Y220678D01*
X33156Y220752D01*
X33135Y220795D01*
Y220805D01*
D02*
G37*
%LPD*%
M02*
