%FSTAX23Y23*%
%MOIN*%
%SFA1B1*%

%IPPOS*%
%ADD20R,0.019680X0.047240*%
%ADD47R,0.039370X0.039370*%
%ADD48C,0.039370*%
%ADD49C,0.200000*%
%ADD51R,0.019680X0.015750*%
%ADD52R,0.015750X0.019680*%
%ADD53R,0.011810X0.023620*%
%ADD54R,0.051180X0.047240*%
%ADD55R,0.008820X0.023030*%
%LNusb2can-1*%
%LPD*%
G54D20*
X00626Y01725D03*
X00551D03*
X00588Y01635D03*
X00213Y0063D03*
X00138D03*
X00176Y0054D03*
X01041Y0064D03*
X00966D03*
X01003Y0055D03*
G54D47*
X00564Y0017D03*
G54D48*
X00515Y0017D03*
X00466D03*
X00417D03*
G54D49*
X00966Y00105D03*
X00219Y00104D03*
G54D51*
X00966Y0083D03*
Y00795D03*
X00961Y01275D03*
Y0124D03*
X00246Y00332D03*
Y00365D03*
X00181Y01419D03*
Y01455D03*
Y01336D03*
Y0137D03*
X00226Y01367D03*
Y014D03*
X00246Y01665D03*
Y01698D03*
X00491Y01665D03*
Y017D03*
X00696Y01697D03*
X00696Y01662D03*
X00941Y01692D03*
Y01659D03*
X00626Y01425D03*
X00626Y0146D03*
X00671Y0138D03*
Y01413D03*
X00626Y01346D03*
Y0138D03*
X00516Y01275D03*
Y0124D03*
X00151Y00895D03*
Y00929D03*
X00156Y0098D03*
Y01015D03*
X00201Y00931D03*
Y00965D03*
X00626Y00974D03*
Y0101D03*
Y00896D03*
Y0093D03*
X00671D03*
Y00963D03*
X00421Y00832D03*
Y00797D03*
X00941Y00378D03*
Y00345D03*
X00666Y00142D03*
Y00177D03*
X00786Y00142D03*
Y00107D03*
G54D52*
X0013Y00465D03*
X00166D03*
X00206D03*
X00239D03*
X00378Y01525D03*
X00411D03*
X00376Y0148D03*
X0034D03*
X00286Y01525D03*
X0025D03*
X00731D03*
X00696D03*
X00812D03*
X00846D03*
X00811Y0148D03*
X00775D03*
X00523Y01525D03*
X00558D03*
Y0157D03*
X00525D03*
X00286Y012D03*
X00251D03*
X00377Y0104D03*
X00411D03*
X00378Y01085D03*
X00413D03*
X00286Y0108D03*
X00251D03*
X00726Y01195D03*
X00691D03*
X00812Y0104D03*
X00846D03*
X0081Y01085D03*
X00846D03*
X00726Y01075D03*
X0069D03*
X00288Y0074D03*
X00253D03*
X00333Y00635D03*
X00298D03*
X00586Y00705D03*
X00621D03*
X00546D03*
X0051D03*
X00467Y0061D03*
X00501D03*
X00721Y0077D03*
X00685D03*
X00733Y00635D03*
X00768D03*
X00697Y0059D03*
X00731D03*
X00883Y0063D03*
X00848D03*
X01053Y00465D03*
X01018D03*
X00976D03*
X00942D03*
X00706Y0044D03*
X0067D03*
X00739Y00395D03*
X00706D03*
X00671Y00315D03*
X00637D03*
X00594D03*
X00561D03*
X0052Y0027D03*
X00556D03*
X00721Y00035D03*
X00754D03*
G54D53*
X00185Y0037D03*
X00211D03*
X00185Y00325D03*
X00211D03*
X00185Y01705D03*
X00211D03*
X00185Y0166D03*
X00211D03*
X01001Y01705D03*
X00975D03*
X01001Y01655D03*
X00976D03*
X01001Y0034D03*
X00976D03*
X01001Y00385D03*
X00976D03*
G54D54*
X00524Y00766D03*
X00607D03*
Y00833D03*
X00524D03*
G54D55*
X0047Y00115D03*
X00486D03*
X00501D03*
Y00082D03*
X00486D03*
X0047D03*
M02*