%FSTAX23Y23*%
%MOIN*%
%SFA1B1*%

%IPPOS*%
%ADD10C,0.010000*%
%ADD11C,0.009840*%
%ADD16C,0.007870*%
%ADD20R,0.019680X0.047240*%
%ADD45C,0.011810*%
%ADD46C,0.015750*%
%ADD47R,0.039370X0.039370*%
%ADD48C,0.039370*%
%ADD49C,0.200000*%
%ADD50C,0.023620*%
%ADD51R,0.019680X0.015750*%
%ADD52R,0.015750X0.019680*%
%ADD53R,0.011810X0.023620*%
%ADD54R,0.051180X0.047240*%
%ADD55R,0.008820X0.023030*%
%LNusb2can-1*%
%LPD*%
G36*
X00141Y01819D02*
X00133Y01816D01*
X00127Y01811*
X00122Y01804*
X00119Y01796*
X00117Y01788*
X00118Y01788*
Y00665*
X00123Y00661*
X00156*
Y00626*
X00156Y00625*
X00157Y00625*
X00161Y00623*
X00161Y00624*
X00168Y00628*
X00176Y0063*
X00183Y00628*
X00189Y00624*
X00195*
Y00661*
X00231*
Y00598*
X00209*
X00208Y00598*
X00197*
X00197Y00598*
X002Y00593*
X00251*
X00256Y00592*
X0026Y00589*
X00286Y00563*
X00304*
X00315Y00573*
Y0058*
X00315Y00581*
X00315Y00581*
X00315Y00582*
X00314Y00582*
X00314Y00583*
X00314Y00583*
X00314Y00584*
X00314Y00584*
X00314Y00585*
X00312Y00587*
X00311Y00595*
X00312Y00602*
X00316Y00609*
X00319Y00611*
X0032Y00611*
X0032Y00611*
X0032Y00612*
X0032Y00612*
Y00617*
X00318*
Y00625*
X00318Y00625*
X00318Y00625*
Y00652*
X00347*
X00351Y00659*
X00352Y00659*
Y00749*
X00327Y00775*
X00322Y00773*
Y00685*
X00321Y0068*
X00318Y00676*
X00281Y00639*
X00281Y00637*
X0028Y0063*
X00275Y00623*
X00269Y00619*
X00261Y00617*
X00254Y00619*
X00247Y00623*
X00243Y0063*
X00241Y00637*
X00243Y00645*
X00247Y00652*
X00254Y00656*
X00261Y00657*
X00262Y00657*
X00296Y00691*
Y0078*
X00282Y00795*
X00276Y00793*
X00275Y00788*
X00271Y00781*
X0027Y00781*
Y00743*
X00269Y00738*
X00269Y00738*
Y00722*
X00237*
Y00757*
X00244*
Y00781*
X00243Y00781*
X00238Y00788*
X00237Y00796*
X00238Y00803*
X00243Y0081*
X00249Y00814*
X00257Y00816*
X00262Y00815*
X00267Y00817*
X00267Y00818*
Y00883*
X00262Y00886*
X00256Y00884*
X00248Y00886*
X00241Y0089*
X00237Y00897*
X00236Y00905*
X00236Y00906*
X00225Y00916*
X00218*
Y00915*
X00211*
X0021Y00915*
X0021Y00915*
X0021Y00915*
X0021Y00915*
X00191*
X00191Y00915*
X00191Y00915*
X00191Y00915*
X0019Y00915*
X00183*
Y00916*
X00183Y00916*
X00169*
Y00913*
X00161*
X00161Y00913*
X00161Y00913*
X00134*
Y00944*
X00161*
X00161Y00945*
X00161Y00944*
X00169*
Y00942*
X00183*
X00183Y00947*
Y00949*
Y0098*
X0021*
X0021Y0098*
X00211Y0098*
X00218*
X00223Y00981*
X00226Y00983*
Y01002*
X00225Y01003*
X00224Y01004*
X00173*
Y00999*
X00166*
X00165Y00999*
X00165Y00999*
X00138*
Y01031*
X00165*
X00165Y01031*
X00166Y01031*
X00173*
Y0103*
X00224*
X00225Y01031*
X00231Y01035*
X00236Y01036*
X00237Y01038*
Y01062*
X00235*
Y01097*
X00266*
Y01062*
X00264*
Y01032*
X00263Y01027*
X0026Y01023*
X00258Y01021*
X00259Y01017*
X00257Y01009*
X00255Y01005*
X00255Y01004*
X00257Y01002*
X0026Y01001*
X00263Y01003*
X00271Y01005*
X00278Y01003*
X00285Y00999*
X00289Y00992*
X00291Y00985*
X00289Y00977*
X00285Y0097*
X00283Y00969*
X00283Y00968*
X00289Y00964*
X00291Y00965*
X00298Y00963*
X00299Y00963*
X00303Y00965*
Y01101*
X00301Y01103*
X00301Y01103*
X003Y01104*
X003Y01104*
X00299Y01104*
X00298Y01104*
X00297Y01105*
X00296Y01105*
X00295Y01105*
X00293Y01106*
X00286Y0111*
X00282Y01117*
X00281Y01125*
X00282Y01132*
X00286Y01139*
X00293Y01143*
X00301Y01145*
X00308Y01143*
X00315Y01139*
X00316Y01137*
X00321*
X00321Y01139*
X00328Y01143*
X00336Y01145*
X00343Y01143*
X0035Y01139*
X00354Y01132*
X00356Y01125*
X00354Y01117*
X0035Y0111*
X00343Y01106*
X00343Y01106*
Y00844*
X00398Y00789*
X00403Y00791*
Y00813*
X0043*
X0043Y00813*
X00431Y00813*
X00432*
X00436Y00819*
X00443Y00823*
X00451Y00825*
X00458Y00823*
X00465Y00819*
X00467Y00815*
X00472Y00816*
Y00835*
Y00869*
X00473Y00874*
X00476Y00878*
X00482Y00884*
X00486Y00887*
X00491Y00888*
X00645*
X0065Y00887*
X00654Y00884*
X0066Y00878*
X00663Y00874*
X00664Y00869*
Y00765*
Y00725*
X00669Y00721*
X00671Y00722*
X00716*
X00742Y00748*
Y00825*
X00737Y00827*
X0072Y00811*
X00721Y0081*
X00719Y00802*
X00715Y00795*
X00708Y00791*
X00705Y0079*
X00701Y00787*
Y00779*
X00701Y00779*
X00701Y00779*
Y00752*
X00669*
Y00779*
X00669Y00779*
X00669Y00779*
Y00787*
X00672*
Y00794*
X00673Y00799*
X00676Y00803*
X00681Y00808*
X00681Y0081*
X00682Y00817*
X00686Y00824*
X00693Y00828*
X00701Y0083*
X00702Y00829*
X00717Y00845*
Y00891*
X00712Y00894*
X00708Y00891*
X00701Y00889*
X00693Y00891*
X00686Y00895*
X00682Y00902*
X00681Y0091*
X00676Y00914*
X00661*
X00661Y00914*
X00661Y00914*
X00653*
Y00916*
X00643*
Y00914*
X00636*
X00635Y00914*
X00635Y00914*
X00608*
Y00945*
X00635*
X00635Y00945*
X00636Y00945*
X00643*
Y00943*
X00652*
X00653Y00947*
Y00979*
X00667*
Y0101*
X00667Y0101*
X00652*
X00643Y01001*
Y00994*
X00608*
Y01025*
X0063*
X00637Y01033*
X00642Y01035*
X00647Y01036*
X00665*
X00666Y01039*
X00673Y01043*
X00677Y01044*
Y01057*
X00674*
Y01065*
X00674Y01065*
X00674Y01065*
Y01092*
X00706*
Y01065*
X00706Y01065*
X00706Y01065*
Y01057*
X00703*
Y01038*
X00702Y01033*
X007Y01029*
X00701Y01025*
X00699Y01017*
X00695Y0101*
X00694Y0101*
Y00973*
X00695*
X007Y00972*
X00704Y00969*
X00737Y00937*
X00742Y00939*
Y01103*
X00734Y01111*
X00728Y01112*
X00721Y01116*
X00717Y01123*
X00716Y0113*
X00717Y01138*
X00721Y01145*
X00728Y01149*
X00736Y01151*
X00743Y01149*
X0075Y01145*
X00751Y01143*
X00756*
X00756Y01144*
X00763Y01148*
X00771Y0115*
X00778Y01148*
X00785Y01144*
X00789Y01137*
X00791Y0113*
X00789Y01122*
X00785Y01115*
X00784Y01115*
Y00735*
X00783Y00729*
X0078Y00725*
X00745Y0069*
X0073Y00675*
X00726Y00672*
X00724Y00668*
X00724Y00667*
X00726Y0066*
X00725Y00656*
X00728Y00652*
X00749*
Y00617*
X00744*
Y00607*
X00746*
Y00599*
X00746Y00599*
X00746Y00599*
Y0058*
X00746Y0058*
X00746Y0058*
Y00572*
X00744*
Y00564*
X00745Y00564*
X00749Y00557*
X00751Y0055*
X00753Y00549*
X00755Y00548*
X00776Y00569*
X00781Y00572*
X00786Y00573*
X00862*
X00865Y00578*
X00862Y00582*
X00861Y0059*
X00862Y00597*
X00866Y00604*
X00867Y00604*
X00867Y00604*
X00867Y00605*
X00867Y00605*
X00867Y00605*
X00867Y00606*
Y00627*
X00868Y00627*
Y00647*
X00891*
X00891Y00647*
X00891Y00647*
X00899*
Y00643*
X00948*
Y00663*
X00948Y00663*
X00948Y00663*
Y00671*
X00953*
Y00779*
X00948*
Y00781*
X00911*
X00906Y00782*
X00902Y00785*
X00901Y00784*
X00893Y00786*
X00886Y0079*
X00882Y00797*
X00881Y00805*
X00882Y00812*
X00886Y00819*
X00893Y00823*
X00901Y00825*
X00908Y00823*
X00915Y00819*
X00919Y00812*
X0092Y00808*
X00948*
Y0081*
X00956*
X00956Y0081*
X00956Y0081*
X00983*
Y00787*
X00983Y00787*
X00983Y00787*
Y00779*
X00979*
Y00671*
X00984*
Y00663*
X00984Y00663*
X00984Y00663*
Y00616*
X00989Y00614*
X00991Y00619*
X00998Y00623*
X01006Y00625*
X01013Y00623*
X01014Y00623*
X01019*
X01023Y00627*
Y00671*
X01058*
Y00608*
X01041*
X01034Y006*
X01029Y00597*
X01024Y00596*
X01024*
X0102Y0059*
X01013Y00586*
X01014Y00581*
X01021*
Y00518*
X01023Y00514*
X01024Y00513*
X01029Y00507*
X0103Y00499*
X01029Y00491*
X01029Y00489*
Y00482*
X01034*
Y00474*
X01034Y00474*
X01034Y00474*
Y00447*
X0101*
X0101Y00447*
X0101Y00447*
X01002*
Y00451*
X00991*
Y00447*
X00984*
X00983Y00447*
X00983Y00447*
X0096*
X00958*
X00955*
X00935*
X00934Y00447*
X00934Y00447*
X00926*
Y00451*
X00813*
X00755Y00394*
Y00389*
X00759Y00382*
X00761Y00375*
X00759Y00367*
X00755Y0036*
X00748Y00356*
X00741Y00354*
X00733Y00356*
X0073Y00358*
X00724Y00357*
X0072Y0035*
X00713Y00346*
X00706Y00344*
X00698Y00346*
X00691Y0035*
X00689Y00354*
X00684Y00353*
X00684Y00353*
Y00332*
X00686*
Y00324*
X00686Y00324*
X00686Y00324*
Y00297*
X00655*
Y00324*
X00655Y00324*
X00655Y00324*
Y00332*
X00658*
Y00346*
X00651Y0035*
X00647Y00357*
X00646Y00365*
X00647Y00372*
X00651Y00379*
X00658Y00383*
X00666Y00385*
X00673Y00383*
X0068Y00379*
X00682Y00376*
X00687Y00376*
X0069Y00379*
Y00385*
X0069Y00385*
X0069Y00385*
Y00404*
X0069Y00404*
X0069Y00404*
Y00412*
X00692*
Y00422*
X0069*
Y0043*
X0069Y0043*
X0069Y0043*
Y00457*
X00721*
Y0043*
X00721Y0043*
X00721Y0043*
Y00422*
X00719*
Y00413*
X00723Y00412*
X00736*
X00798Y00474*
X00802Y00477*
X00807Y00478*
X00926*
Y00482*
X00934*
X00934Y00482*
X00935Y00482*
X0094*
X00943Y00485*
X00946Y00489*
X00953Y00497*
X00957Y00499*
X00985Y00528*
Y00546*
X00791*
X0076Y00515*
X00756Y00512*
X00751Y00511*
X00651*
X0065Y0051*
X00643Y00506*
X00636Y00504*
X00634Y00505*
X00585Y00455*
X00581Y00452*
X00576Y00451*
X00255*
Y00447*
X00247*
X00247Y00447*
X00247Y00447*
X00223*
X00221*
X00218*
X0019*
Y00448*
X00182*
X00181*
X00181Y00448*
Y00447*
X00174*
X00173Y00447*
X00173Y00447*
X00173Y00447*
X00173Y00447*
X0015*
Y00463*
X0015Y00465*
Y00485*
X00151Y00491*
X00154Y00496*
X00156Y00498*
X00157Y00502*
X00159Y00505*
X00158Y00508*
Y00567*
X00156Y00567*
X00151Y0057*
X00134Y00588*
X00131Y00592*
X0013Y00597*
X00129Y00598*
X0012*
X00118Y00594*
Y00153*
X00122Y00152*
X00123Y00153*
X00132Y00168*
X00143Y00181*
X00156Y00192*
X0017Y00201*
X00186Y00207*
X00202Y00211*
X00219Y00212*
X00236Y00211*
X00253Y00207*
X00268Y00201*
X00283Y00192*
X00296Y00181*
X00307Y00168*
X00316Y00153*
X00322Y00138*
X00326Y00121*
X00327Y00104*
X00326Y00087*
X00322Y00071*
X00316Y00055*
X00307Y00041*
X00296Y00028*
X00283Y00017*
X00268Y00008*
X00267Y00007*
X00268Y00003*
X00917*
X00918Y00007*
X00916Y00008*
X00902Y00017*
X00889Y00028*
X00878Y00041*
X00869Y00055*
X00863Y00071*
X00859Y00088*
X00857Y00105*
X00859Y00121*
X00863Y00138*
X00869Y00154*
X00878Y00168*
X00889Y00181*
X00902Y00192*
X00916Y00201*
X00932Y00207*
X00949Y00211*
X00966Y00213*
X00983Y00211*
X00999Y00207*
X01015Y00201*
X01029Y00192*
X01042Y00181*
X01053Y00168*
X01062Y00154*
X01063Y00152*
X01068Y00153*
Y01783*
Y01788*
X01067Y01793*
X01067Y01796*
X01063Y01804*
X01058Y01811*
X01052Y01816*
X01044Y01819*
X01036Y0182*
X01036Y0182*
X0015*
X00149Y0182*
X00141Y01819*
G37*
G36*
X00298Y01113D02*
X00299Y01113D01*
X00301Y01112*
X00302Y01111*
X00303Y01111*
X00304Y0111*
X00305Y0111*
X00306Y01109*
X00307Y01109*
X00308Y01108*
X00315Y01112*
X00314Y01113*
X00313Y01114*
X00313Y01115*
X00312Y01115*
X00312Y01116*
X00312Y01117*
X00312Y01118*
X00312Y01119*
X00312Y0112*
X00312Y01122*
X00298Y01113*
G37*
G36*
X00683Y01065D02*
X00683Y01064D01*
X00684Y01064*
X00684Y01063*
X00684Y01062*
X00685Y01061*
X00685Y0106*
X00685Y01058*
X00685Y01055*
X00695*
X00695Y01057*
X00695Y0106*
X00696Y01061*
X00696Y01062*
X00696Y01063*
X00697Y01064*
X00697Y01064*
X00697Y01065*
X00698Y01065*
X00682*
X00683Y01065*
G37*
G36*
X00682Y01036D02*
X00691Y01031D01*
X00691Y01031*
X00691Y01031*
X00691Y01031*
X00691Y01031*
X00691Y01032*
X00692Y01033*
X00694Y01034*
X00687Y01041*
X00682Y01036*
G37*
G36*
X00165Y01007D02*
X00165Y01008D01*
X00166Y01009*
X00166Y0101*
X00167Y0101*
X00168Y01011*
X00169Y01011*
X0017Y01012*
X00172Y01012*
X00173Y01012*
X00175Y01012*
Y01022*
X00173Y01022*
X00165Y01023*
X00165Y01023*
Y01007*
G37*
G36*
X0026Y00979D02*
X0026Y00979D01*
X0026Y00978*
X00261Y00976*
X00261Y00975*
X00261Y00972*
X00261Y00971*
X00271Y00966*
X00271Y00967*
X00271Y00968*
X00271Y00969*
X00272Y0097*
X00272Y00971*
X00272Y00971*
X00273Y00972*
X00273Y00973*
X00274Y00973*
X00275Y00973*
X0026Y0098*
X0026Y00979*
G37*
G36*
X0021Y00957D02*
X0021Y00957D01*
X00211Y00958*
X00211Y00958*
X00212Y00959*
X00213Y00959*
X00214Y00959*
X00215Y00959*
X00217Y00959*
X0022Y0096*
Y0097*
X00218Y0097*
X00215Y0097*
X00214Y0097*
X00213Y0097*
X00212Y0097*
X00211Y00971*
X00211Y00971*
X0021Y00972*
X0021Y00972*
Y00957*
G37*
G36*
X0068Y00955D02*
X0068Y00955D01*
X00681Y00955*
X00685Y00955*
X0069Y00955*
Y00965*
X00688Y00965*
X00687Y00965*
X00685Y00966*
X00684Y00966*
X00683Y00966*
X00682Y00967*
X00681Y00968*
X00681Y00968*
X0068Y00969*
X0068Y0097*
Y00955*
G37*
G36*
X00191Y00938D02*
X00191Y00937D01*
X0019Y00936*
X00189Y00936*
X00188Y00935*
X00187Y00935*
X00186Y00934*
X00185Y00934*
X00183Y00934*
X00181Y00934*
Y00924*
X00191Y00923*
X00191Y00939*
X00191Y00938*
G37*
G36*
X0021Y00923D02*
X0021Y00924D01*
X00211Y00924*
X00211Y00924*
X00212Y00924*
X00213Y00924*
X00215Y00924*
X0022Y00925*
Y00935*
X00218Y00935*
X00217Y00935*
X00215Y00935*
X00214Y00935*
X00213Y00936*
X00212Y00936*
X00211Y00937*
X00211Y00937*
X0021Y00938*
X0021Y00939*
Y00923*
G37*
G36*
X00635Y00922D02*
X00635Y00922D01*
X00636Y00923*
X00636Y00923*
X00637Y00924*
X00638Y00924*
X00639Y00924*
X0064Y00924*
X00642Y00924*
X00645Y00925*
Y00935*
X00643Y00935*
X0064Y00935*
X00639Y00935*
X00638Y00935*
X00637Y00935*
X00636Y00936*
X00636Y00936*
X00635Y00937*
X00635Y00937*
Y00922*
G37*
G36*
X00661Y00937D02*
X0066Y00936D01*
X0066Y00936*
X00659Y00935*
X00658Y00935*
X00657Y00935*
X00656Y00935*
X00654Y00935*
X00651Y00935*
Y00925*
X00653Y00924*
X00656Y00924*
X00657Y00924*
X00658Y00924*
X00659Y00924*
X0066Y00923*
X0066Y00923*
X00661Y00922*
X00661Y00922*
Y00937*
X00661Y00937*
G37*
G36*
X0068Y00922D02*
X0068Y00922D01*
X00681Y00923*
X00681Y00923*
X00682Y00924*
X00683Y00924*
X00684Y00924*
X00685Y00924*
X00687Y00924*
X0069Y00925*
Y00935*
X00688Y00935*
X00685Y00935*
X00684Y00935*
X00683Y00935*
X00682Y00935*
X00681Y00936*
X00681Y00936*
X0068Y00937*
X0068Y00937*
Y00922*
G37*
G36*
X00161Y00921D02*
X00161Y00922D01*
X00161Y00922*
X00162Y00922*
X00163Y00923*
X00164Y00923*
X00165Y00923*
X00166Y00923*
X00167Y00924*
X00171Y00924*
Y00934*
X00169Y00934*
X00166Y00934*
X00165Y00934*
X00164Y00934*
X00163Y00935*
X00162Y00935*
X00161Y00935*
X00161Y00936*
X00161Y00936*
Y00921*
G37*
G36*
X00499Y00842D02*
X00499Y00841D01*
X00498Y0084*
X00497Y0084*
X00496Y00839*
X00495Y00839*
X00494Y00838*
X00492Y00838*
X00491Y00838*
X00489Y00838*
Y00828*
X00491Y00828*
X00492Y00828*
X00494Y00828*
X00495Y00827*
X00496Y00827*
X00497Y00826*
X00498Y00826*
X00499Y00825*
X00499Y00824*
X00499Y00823*
Y00843*
X00499Y00842*
G37*
G36*
X00582Y00823D02*
X00582Y00822D01*
Y00821*
X00582Y0082*
X00581Y00818*
X00581Y00817*
X00579Y00815*
X00578Y00813*
X00574Y00809*
X00581Y00802*
X00584Y00804*
X00587Y00807*
X00589Y00809*
X0059Y00809*
X00592Y0081*
X00593Y0081*
X00594*
X00595Y0081*
X00596Y00809*
X00581Y00824*
X00582Y00823*
G37*
G36*
X00592Y00801D02*
X00589Y00799D01*
X00582Y00791*
Y00743*
X00582Y00742*
X00585Y00742*
X00589Y00739*
X00595Y00733*
X00598Y00729*
X00599Y00724*
Y00722*
X00601*
Y00714*
X00601Y00714*
X00601Y00714*
Y00695*
X00601Y00695*
X00601Y00695*
Y00687*
X00599*
Y0068*
X00598Y00678*
X00599Y00677*
X00601Y0067*
X00599Y00662*
X00595Y00655*
X00588Y00651*
X00581Y00649*
X00573Y00651*
X00566Y00655*
X00563Y0066*
X00558*
X00555Y00655*
X00548Y00651*
X00541Y00649*
X00533Y00651*
X00526Y00655*
X00522Y00662*
X00521Y0067*
X00522Y00677*
X00526Y00684*
X00527Y00684*
X00527Y00684*
X00527Y00685*
X00527Y00685*
X00527Y00685*
X00527Y00686*
Y007*
X00528Y00705*
X0053Y00707*
Y00714*
X0053Y00714*
X0053Y00714*
Y00722*
X00532*
Y00735*
X00499*
Y00722*
X00507*
X00512Y00721*
X00517Y00719*
X00519Y00716*
X00522Y00712*
X00523Y00706*
Y00705*
X00522Y00699*
X00519Y00695*
X00515Y00692*
X0051Y00691*
X00506Y00692*
X00506Y00692*
X00506Y00692*
X00505Y00692*
X00503Y00691*
X00503Y00691*
X00503Y00691*
X00501Y00692*
X005Y00692*
X005Y00692*
X005Y00692*
X00499Y00693*
X00498Y00693*
X00497Y00693*
X00497Y00694*
X00496Y00695*
X00496Y00695*
X00495Y00696*
X00495Y00696*
X00495Y00696*
X00495Y00696*
X00491*
X00486Y00697*
X00482Y007*
X00476Y00706*
X00473Y0071*
X00472Y00715*
Y00793*
X00467Y00794*
X00465Y0079*
X00458Y00786*
X00451Y00784*
X00448Y00785*
X00448Y00785*
X00448Y00785*
X00443Y00784*
X00438*
Y00781*
X00431*
X0043Y00781*
X0043Y00781*
X00413*
X00411Y00776*
X0045Y00737*
X00452Y00733*
X00453Y00729*
Y00527*
X00491*
X00492Y00527*
X00492Y00532*
X00486Y00535*
X00482Y00542*
X00481Y0055*
X00482Y00557*
X00486Y00564*
X00487Y00564*
Y00592*
X00485*
Y006*
X00485Y006*
X00485Y006*
Y00627*
X00516*
Y006*
X00516Y006*
X00516Y006*
Y00592*
X00514*
Y00564*
X00515Y00564*
X00519Y00557*
X00521Y0055*
X00519Y00542*
X00515Y00535*
X00509Y00532*
X0051Y00527*
X0051Y00527*
X00536*
X00561Y00552*
X00561Y00555*
X00562Y00562*
X00566Y00569*
X00573Y00573*
X00581Y00575*
X00588Y00573*
X00595Y00569*
X00598Y00564*
X00603*
X00606Y00569*
X00613Y00573*
X00621Y00575*
X00628Y00573*
X00635Y00569*
X00639Y00562*
X00641Y00555*
X00639Y00547*
X0064Y00544*
X00643Y00543*
X0065Y00539*
X00651Y00538*
X00684*
Y00572*
X00681*
Y0058*
X00681Y0058*
X00681Y0058*
Y00607*
X00713*
X00717Y00608*
Y00617*
X00717*
Y00625*
X00717Y00625*
X00717Y00625*
Y00625*
X00717Y00625*
X00717Y00625*
Y00638*
X00712Y00641*
X00706Y00639*
X00698Y00641*
X00691Y00645*
X0069Y00647*
X00671*
X00666Y00648*
X00662Y00651*
X00647Y00666*
X00644Y0067*
X00644Y00675*
Y00695*
X00642Y00696*
X00637*
X00636Y00696*
X00636Y00696*
X00636Y00696*
X00636Y00695*
X00635Y00695*
X00634Y00694*
X00634Y00693*
X00634Y00693*
X00633Y00693*
X00632Y00692*
X00631Y00692*
X00631Y00692*
X0063Y00692*
X00629Y00691*
X00628Y00691*
X00628Y00691*
X00627Y00692*
X00626Y00692*
X00625Y00692*
X00625*
X00621Y00691*
X00616Y00692*
X00612Y00695*
X00609Y00699*
X00608Y00705*
Y00706*
X00609Y00711*
X00612Y00716*
X00615Y00719*
X00619Y00721*
X00624Y00722*
X00637*
Y00744*
X00637Y00744*
X00637Y00745*
X00635Y00747*
X00632Y00748*
X00632Y00748*
X00632Y00748*
X00631Y00748*
X0063Y00748*
X00629Y00749*
X00629Y00749*
X00628Y00749*
X00628Y0075*
X00627Y0075*
X00626Y00751*
X00626Y00751*
X00626Y00752*
X00625Y00753*
X00607*
X00602Y00754*
X00598Y00757*
X00595Y00761*
X00594Y00766*
X00595Y00771*
X00598Y00775*
X00602Y00778*
X00607Y00779*
X00625*
X00626Y0078*
X00626Y00781*
X00626Y00781*
X00627Y00782*
X00628Y00782*
X00628Y00783*
X00629Y00783*
X00629Y00783*
X0063Y00784*
X00631Y00784*
X00632Y00784*
X00632Y00784*
X00632Y00784*
X00635Y00786*
X00637Y00787*
X00637Y00788*
X00637Y00788*
Y00801*
X00596*
X00596Y00801*
X00595Y00801*
X00593*
X00592Y00801*
G37*
G36*
X00499Y00856D02*
X005Y00851D01*
X00501Y00851*
X00502Y0085*
X00502Y0085*
X00503Y0085*
X00504Y00849*
X00505Y00849*
X00505Y00848*
X00505Y00848*
X00506Y00847*
X00506Y00846*
X00524*
X00529Y00845*
X00534Y00842*
X00536Y00838*
X00537Y00833*
X00536Y00828*
X00534Y00824*
X00529Y00821*
X00524Y0082*
X00506*
X00506Y00819*
X00505Y00818*
X00505Y00818*
X00505Y00817*
X00504Y00817*
X00503Y00816*
X00502Y00816*
X00502Y00816*
X00501Y00815*
X005Y00815*
X00499Y0081*
Y00798*
X00556*
X00556Y00801*
X00559Y00806*
X0057Y00817*
X00572Y00819*
X00573Y0082*
X00573Y00821*
Y00823*
X00573Y00824*
X00573Y00824*
Y00861*
X00499*
Y00856*
G37*
G36*
X00439Y00805D02*
X00438Y00804D01*
X00438Y00803*
X00438Y00803*
X00437Y00803*
X00436Y00802*
X00435Y00802*
X00435Y00802*
X00434Y00802*
X00433Y00802*
X00432Y00803*
X00431Y00803*
X00431Y00804*
X0043Y00804*
X0043Y00805*
Y00789*
X0043Y0079*
X00431Y0079*
X00431Y0079*
X00432Y00791*
X00433Y00791*
X00434Y00791*
X00435Y00792*
X00437Y00792*
X0044Y00792*
Y00792*
X00448Y00793*
X00439Y00805*
X00439Y00805*
G37*
G36*
X0068Y00787D02*
X0068Y00784D01*
X0068Y00783*
X00679Y00782*
X00679Y00781*
X00679Y0078*
X00678Y0078*
X00678Y00779*
X00677Y00779*
X00693*
X00692Y00779*
X00692Y0078*
X00692Y0078*
X00691Y00781*
X00691Y00782*
X00691Y00783*
X0069Y00784*
X0069Y00786*
X0069Y00789*
X0068*
X0068Y00787*
G37*
G36*
X00956Y00802D02*
X00955Y00801D01*
X00955Y00801*
X00954Y008*
X00953Y008*
X00952Y008*
X00951Y008*
X00949Y008*
X00946Y008*
Y0079*
X00948Y00789*
X00951Y00789*
X00952Y00789*
X00953Y00789*
X00954Y00789*
X00955Y00788*
X00955Y00788*
X00956Y00787*
X00956Y00787*
X00957Y00787*
X00958Y00786*
X00958Y00786*
X00959Y00785*
X00959Y00784*
X0096Y00783*
X0096Y00782*
X00961Y0078*
X00961Y00779*
X00961Y00777*
X00971*
X00971Y00779*
X00971Y0078*
X00971Y00782*
X00971Y00783*
X00972Y00784*
X00972Y00785*
X00973Y00786*
X00974Y00786*
X00974Y00787*
X00975Y00787*
X00956*
Y00802*
X00956Y00802*
G37*
G36*
X00632Y00756D02*
X00632Y00757D01*
X00633Y00758*
X00633Y00759*
X00634Y00759*
X00635Y0076*
X00636Y0076*
X00637Y00761*
X00639Y00761*
X0064Y00761*
X00642Y00761*
Y00771*
X0064Y00771*
X00639Y00771*
X00637Y00771*
X00636Y00772*
X00635Y00772*
X00634Y00773*
X00633Y00773*
X00633Y00774*
X00632Y00775*
X00632Y00776*
Y00756*
G37*
G36*
X00252Y00757D02*
X00252Y00756D01*
X00251Y00754*
X00251Y00753*
X0025Y00752*
X0025Y00751*
X00249Y0075*
X00249Y0075*
X00248Y00749*
X00247Y00749*
X00261*
X00261Y00749*
X00261Y0075*
X00261Y0075*
X00261Y00751*
X00261Y00752*
X00262Y00754*
X00262Y00759*
X00252*
X00252Y00757*
G37*
G36*
X00537Y00742D02*
X00537Y00742D01*
X00538Y00742*
X00539Y00741*
X00539Y0074*
X0054Y00739*
X0054Y00738*
X0054Y00736*
X00541Y00734*
X00541Y00733*
X00551*
X00551Y00734*
X0055Y00742*
X0055Y00742*
X0055Y00742*
X0055Y00743*
X00536*
X00537Y00742*
G37*
G36*
X00541Y00722D02*
X0054Y00719D01*
X0054Y00718*
X0054Y00717*
X0054Y00716*
X00539Y00715*
X00539Y00715*
X00538Y00714*
X00538Y00714*
X00553*
X00553Y00714*
X00552Y00715*
X00552Y00715*
X00552Y00716*
X00551Y00717*
X00551Y00718*
X00551Y00719*
X00551Y00721*
X00551Y00724*
X00541*
X00541Y00722*
G37*
G36*
X00581Y00722D02*
X0058Y00719D01*
X0058Y00718*
X0058Y00717*
X0058Y00716*
X00579Y00715*
X00579Y00715*
X00578Y00714*
X00578Y00714*
X00593*
X00593Y00714*
X00592Y00715*
X00592Y00715*
X00592Y00716*
X00591Y00717*
X00591Y00718*
X00591Y00719*
X00591Y0072*
X00591Y00724*
X00581*
X00581Y00722*
G37*
G36*
X00492Y00704D02*
X00494Y00704D01*
X00496Y00704*
X00498Y00704*
X00499Y00704*
X005Y00703*
X00501Y00703*
X00502Y00702*
X00502Y00701*
X00502Y007*
X00503Y00699*
X00502Y00714*
X00492Y00714*
Y00704*
G37*
G36*
X00629Y00714D02*
X00629Y00699D01*
X00629Y007*
X00629Y00701*
X0063Y00702*
X0063Y00703*
X00631Y00703*
X00632Y00704*
X00634Y00704*
X00635Y00704*
X00637Y00704*
X00639Y00704*
Y00714*
X00629Y00714*
G37*
G36*
X00578Y00695D02*
X00579Y00694D01*
X00579Y00694*
X0058Y00693*
X0058Y00692*
X0058Y00691*
X0058Y0069*
X0058Y00688*
X00581Y00685*
X00591*
X00591Y00687*
X00591Y0069*
X00591Y00691*
X00591Y00692*
X00592Y00693*
X00592Y00694*
X00592Y00694*
X00593Y00695*
X00593Y00695*
X00578*
X00578Y00695*
G37*
G36*
X00538Y00695D02*
X00537Y00695D01*
X00537Y00694*
X00537Y00694*
X00536Y00693*
X00536Y00692*
X00536Y00691*
X00536Y0069*
X00536Y00687*
X00536*
X00536Y00686*
X00535Y00685*
X00535Y00684*
X00535Y00683*
X00535Y00682*
X00534Y00681*
X00534Y0068*
X00534Y00679*
X00533Y00679*
X00532Y00678*
X00549*
X00548Y00679*
X00548Y00679*
X00547Y0068*
X00547Y00681*
X00546Y00682*
X00546Y00683*
X00546Y00684*
X00546Y00685*
X00546Y00686*
X00546Y00687*
X00546Y00688*
X00546Y0069*
X00546Y00691*
X00547Y00692*
X00547Y00693*
X00548Y00694*
X00549Y00694*
X0055Y00695*
X00551Y00695*
X00538Y00695*
G37*
G36*
X00689Y00676D02*
X0069Y00677D01*
X0069Y00677*
X00691Y00678*
X00692Y00678*
X00693Y00679*
X00694Y00679*
X00695Y00679*
X00696Y00679*
X00697Y00679*
X00698Y0068*
Y0069*
X00697Y0069*
X00696Y0069*
X00695Y0069*
X00694Y0069*
X00693Y0069*
X00692Y00691*
X00691Y00691*
X0069Y00692*
X0069Y00692*
X00689Y00693*
Y00676*
G37*
G36*
X00961Y00671D02*
X00961Y00669D01*
X0096Y00668*
X0096Y00667*
X0096Y00666*
X00959Y00665*
X00958Y00664*
X00958Y00663*
X00957Y00663*
X00956Y00663*
X00976*
X00975Y00663*
X00974Y00663*
X00973Y00664*
X00972Y00665*
X00972Y00666*
X00971Y00667*
X00971Y00668*
X00971Y00669*
X00971Y00671*
X00971Y00673*
X00961*
X00961Y00671*
G37*
G36*
X00891Y0062D02*
X00891Y00621D01*
X00891Y00621*
X00892Y00622*
X00893Y00623*
X00894Y00623*
X00895Y00624*
X00896Y00624*
X00897Y00624*
X00899Y00624*
X00901Y00625*
Y00635*
X00899Y00635*
X00897Y00635*
X00896Y00635*
X00895Y00635*
X00894Y00636*
X00893Y00636*
X00892Y00637*
X00891Y00638*
X00891Y00638*
X00891Y00639*
Y0062*
G37*
G36*
X00956Y00639D02*
X00956Y00638D01*
X00955Y00637*
X00955Y00636*
X00954Y00636*
X00953Y00635*
X00951Y00635*
X0095Y00635*
X00948Y00635*
X00946Y00635*
Y00625*
X00948Y00624*
X0095Y00624*
X00951Y00624*
X00953Y00624*
X00954Y00623*
X00955Y00623*
X00955Y00622*
X00956Y00621*
X00956Y0062*
X00956Y0062*
Y0064*
X00956Y00639*
G37*
G36*
X00725Y00625D02*
X00725Y00624D01*
X00725Y00624*
X00725Y00623*
X00726Y00618*
X00726Y00615*
X00736*
X00736Y00617*
X00736Y00618*
X00736Y0062*
X00736Y00621*
X00737Y00622*
X00737Y00623*
X00738Y00624*
X00739Y00624*
X0074Y00625*
X00741Y00625*
X00725*
X00725Y00625*
G37*
G36*
X00326Y00625D02*
X00327Y00624D01*
X00327Y00624*
X00327Y00623*
X00328Y00622*
X00328Y00621*
X00328Y0062*
X00328Y00618*
X00328Y00615*
X00338*
X00338Y00617*
X00339Y0062*
X00339Y00621*
X00339Y00622*
X00339Y00623*
X0034Y00624*
X0034Y00624*
X00341Y00625*
X00341Y00625*
X00326*
X00326Y00625*
G37*
G36*
X00876Y0062D02*
X00876Y0062D01*
X00876Y00619*
X00876Y0061*
X00886*
X00886Y00612*
X00886Y00613*
X00886Y00615*
X00886Y00616*
X00887Y00617*
X00887Y00618*
X00888Y00619*
X00889Y00619*
X0089Y0062*
X00891Y0062*
X00876Y0062*
G37*
G36*
X00203Y0062D02*
X00203Y00619D01*
X00202Y00618*
X00202Y00618*
X00201Y00617*
X002Y00617*
X00198Y00616*
X00197Y00616*
X00195Y00616*
X00193Y00616*
Y00606*
X00203Y00606*
X00203Y00621*
X00203Y0062*
G37*
G36*
X00328Y00612D02*
X00328Y00611D01*
X00328Y0061*
X00328Y00609*
X00327Y00608*
X00327Y00607*
X00326Y00606*
X00326Y00606*
X00325Y00605*
X00324Y00605*
X00341Y00601*
X0034Y00602*
X0034Y00602*
X00339Y00603*
X00339Y00604*
X00339Y00605*
X00339Y00606*
X00338Y00608*
X00338Y00609*
X00338Y00611*
X00328Y00613*
X00328Y00612*
G37*
G36*
X00726Y00607D02*
X00725Y00604D01*
X00725Y00603*
X00725Y00602*
X00725Y00601*
X00724Y006*
X00724Y006*
X00723Y00599*
X00723Y00599*
X00738*
X00738Y00599*
X00737Y006*
X00737Y006*
X00737Y00601*
X00736Y00602*
X00736Y00603*
X00736Y00604*
X00736Y00606*
X00736Y00609*
X00726*
X00726Y00607*
G37*
G36*
X00876Y00606D02*
X00875Y00605D01*
X00875Y00604*
X00875Y00603*
X00875Y00602*
X00874Y00601*
X00874Y006*
X00874Y00599*
X00873Y00599*
X00872Y00598*
X00889*
X00888Y00599*
X00888Y00599*
X00887Y006*
X00887Y00601*
X00886Y00602*
X00886Y00603*
X00886Y00604*
X00886Y00605*
X00886Y00606*
X00886Y00607*
X00876*
X00876Y00606*
G37*
G36*
X00135Y00606D02*
X00136Y00606D01*
X00136Y00605*
X00137Y00605*
X00137Y00604*
X00137Y00603*
X00138Y00602*
X00138Y006*
X00138Y00599*
X00138Y00597*
X00148*
X00148Y00606*
X00134Y00606*
X00135Y00606*
G37*
G36*
X00493Y006D02*
X00494Y00599D01*
X00494Y00599*
X00495Y00598*
X00495Y00597*
X00495Y00596*
X00495Y00595*
X00495Y00593*
X00496Y0059*
X00506*
X00506Y00592*
X00506Y00595*
X00506Y00596*
X00506Y00597*
X00507Y00598*
X00507Y00599*
X00507Y00599*
X00508Y006*
X00508Y006*
X00493*
X00493Y006*
G37*
G36*
X00321Y00587D02*
X00322Y00587D01*
X00322Y00586*
X00322Y00585*
X00322Y00584*
X00323Y00583*
X00323Y00582*
X00323Y0058*
X00323Y00578*
X00333Y00576*
X00333Y00577*
X00333Y00578*
X00333Y00579*
X00334Y0058*
X00334Y00581*
X00334Y00582*
X00335Y00583*
X00335Y00583*
X00336Y00584*
X00337Y00584*
X00321Y00588*
X00321Y00587*
G37*
G36*
X0069Y0058D02*
X0069Y00579D01*
X00691Y00579*
X00691Y00578*
X00691Y00577*
X00692Y00576*
X00692Y00575*
X00692Y00573*
X00692Y0057*
X00702*
X00702Y00572*
X00702Y00575*
X00703Y00576*
X00703Y00577*
X00703Y00578*
X00703Y00579*
X00704Y00579*
X00704Y0058*
X00705Y0058*
X00689*
X0069Y0058*
G37*
G36*
X00723D02*
X00724Y00579D01*
X00724Y00579*
X00725Y00578*
X00725Y00577*
X00725Y00576*
X00725Y00575*
X00725Y00573*
X00726Y0057*
X00736*
X00736Y00572*
X00736Y00575*
X00736Y00576*
X00736Y00577*
X00737Y00578*
X00737Y00579*
X00737Y00579*
X00738Y0058*
X00738Y0058*
X00723*
X00723Y0058*
G37*
G36*
X00994Y00569D02*
X00993Y00568D01*
X00993Y00567*
X00992Y00566*
X00991Y00566*
X0099Y00565*
X00989Y00565*
X00987Y00565*
X00985Y00565*
X00983Y00565*
Y00555*
X00985Y00554*
X00987Y00554*
X00989Y00554*
X0099Y00554*
X00991Y00553*
X00992Y00553*
X00993Y00552*
X00993Y00551*
X00994Y0055*
X00994Y0055*
Y0057*
X00994Y00569*
G37*
G36*
X00609Y00553D02*
X00609Y00552D01*
X00608Y00551*
X00608Y0055*
X00608Y00549*
X00607Y00548*
X00607Y00547*
X00606Y00546*
X00606Y00545*
X00605Y00544*
X00611Y00539*
X00611Y0054*
X00612Y0054*
X00613Y00541*
X00614Y00541*
X00615Y00542*
X00616Y00542*
X00617Y00542*
X00618Y00543*
X00619Y00543*
X0062Y00543*
X00609Y00554*
X00609Y00553*
G37*
G36*
X00694Y0053D02*
X00694Y0053D01*
X00693Y0053*
X00686Y0053*
X00684Y0053*
X00706Y0052*
X00719Y0053*
X00717Y0053*
X00715Y0053*
X00713Y0053*
X00711Y00531*
X00709Y00531*
X00708Y00532*
X00706Y00533*
X00704Y00534*
X00703Y00535*
X00701Y00537*
X00694Y0053*
G37*
G36*
X00176Y00516D02*
X00176Y00517D01*
X00177Y00517*
X00178Y00517*
X00179Y00517*
X00181Y00517*
X00182Y00516*
X00184Y00515*
X00186Y00513*
X0019Y00509*
X00196Y00517*
X00193Y0052*
X00188Y00526*
X00187Y00528*
X00186Y0053*
X00185Y00531*
X00185Y00533*
X00185Y00534*
X00185Y00535*
X00176Y00516*
G37*
G36*
X01011Y00482D02*
X01011Y00475D01*
X0101Y00475*
X0101Y00474*
X0101Y00474*
X01026*
X01025Y00474*
X01024Y00475*
X01023Y00475*
X01023Y00476*
X01022Y00477*
X01022Y00478*
X01021Y00479*
X01021Y00481*
X01021Y00482*
X01021Y00484*
X01011*
X01011Y00482*
G37*
G36*
X00224Y00475D02*
X00226Y00473D01*
X00229Y00469*
X00231Y00467*
X00231Y00466*
X00232Y00464*
X00232Y00463*
Y00462*
X00232Y00461*
X00231Y00461*
X00246Y00474*
X00245Y00474*
X00244Y00473*
X00243Y00473*
X00242Y00474*
X00241Y00474*
X00239Y00475*
X00238Y00476*
X00236Y00478*
X00232Y00481*
X00224Y00475*
G37*
G36*
X00173Y00455D02*
X00174Y00455D01*
X00174Y00455*
X00175Y00456*
X00176Y00456*
X00177Y00456*
X00181Y00456*
X00189Y00457*
Y00472*
X00186Y00472*
X00176Y00473*
X00175Y00473*
X00174Y00474*
X00174Y00474*
X00173Y00474*
Y00455*
G37*
G36*
X00247D02*
X00247Y00456D01*
X00247Y00456*
X00248Y00457*
X00248Y00458*
X00249Y00458*
X0025Y00459*
X00252Y00459*
X00253Y00459*
X00255Y00459*
X00257Y0046*
Y0047*
X00255Y0047*
X00253Y0047*
X00252Y0047*
X0025Y0047*
X00249Y00471*
X00248Y00471*
X00248Y00472*
X00247Y00473*
X00247Y00473*
X00247Y00474*
Y00455*
G37*
G36*
X00934Y00473D02*
X00934Y00473D01*
X00933Y00472*
X00933Y00471*
X00932Y00471*
X00931Y0047*
X00929Y0047*
X00928Y0047*
X00926Y0047*
X00924Y0047*
Y0046*
X00926Y00459*
X00928Y00459*
X00929Y00459*
X00931Y00459*
X00932Y00458*
X00933Y00458*
X00933Y00457*
X00934Y00456*
X00934Y00456*
X00934Y00455*
Y00474*
X00934Y00473*
G37*
G36*
X00983Y00455D02*
X00983Y00456D01*
X00984Y00456*
X00984Y00457*
X00985Y00458*
X00986Y00458*
X00987Y00459*
X00988Y00459*
X0099Y00459*
X00991Y00459*
X00993Y0046*
Y0047*
X00991Y0047*
X0099Y0047*
X00988Y0047*
X00987Y0047*
X00986Y00471*
X00985Y00471*
X00984Y00472*
X00984Y00473*
X00983Y00473*
X00983Y00474*
Y00455*
G37*
G36*
X0101Y00473D02*
X0101Y00473D01*
X01009Y00472*
X01009Y00471*
X01008Y00471*
X01007Y0047*
X01005Y0047*
X01004Y0047*
X01002Y0047*
X01Y0047*
Y0046*
X01002Y00459*
X01004Y00459*
X01005Y00459*
X01007Y00459*
X01008Y00458*
X01009Y00458*
X01009Y00457*
X0101Y00456*
X0101Y00456*
X0101Y00455*
Y00474*
X0101Y00473*
G37*
G36*
X00698Y0043D02*
X00699Y00429D01*
X00699Y00429*
X007Y00428*
X007Y00427*
X007Y00426*
X007Y00425*
X007Y00423*
X00701Y0042*
X00711*
X00711Y00422*
X00711Y00425*
X00711Y00426*
X00711Y00427*
X00712Y00428*
X00712Y00429*
X00712Y00429*
X00713Y0043*
X00713Y0043*
X00698*
X00698Y0043*
G37*
G36*
X00701Y00412D02*
X007Y00409D01*
X007Y00408*
X007Y00407*
X007Y00406*
X00699Y00405*
X00699Y00405*
X00698Y00404*
X00698Y00404*
X00713*
X00713Y00404*
X00712Y00405*
X00712Y00405*
X00712Y00406*
X00711Y00407*
X00711Y00408*
X00711Y00409*
X00711Y00411*
X00711Y00414*
X00701*
X00701Y00412*
G37*
G36*
X00698Y00385D02*
X00699Y00384D01*
X00699Y00384*
X007Y00383*
X007Y00382*
X007Y00381*
X007Y0038*
X007Y00379*
X007Y00379*
X007Y00378*
X007Y00377*
X00699Y00376*
X00699Y00375*
X00699Y00374*
X00698Y00374*
X00697Y00373*
X00714*
X00713Y00374*
X00713Y00374*
X00712Y00375*
X00712Y00376*
X00711Y00377*
X00711Y00378*
X00711Y00379*
X00711Y00379*
X00711Y0038*
X00711Y00381*
X00711Y00382*
X00712Y00383*
X00712Y00384*
X00712Y00384*
X00713Y00385*
X00713Y00385*
X00698*
X00698Y00385*
G37*
G36*
X00662Y00353D02*
X00662Y00353D01*
X00663Y00353*
X00664Y00352*
X00664Y00351*
X00665Y00351*
X00665Y0035*
X00665Y00349*
X00666Y00348*
X00666Y00347*
X00666Y00346*
X00676Y00351*
X00676Y00352*
X00676Y00357*
X00676Y00358*
X00676Y0036*
X00677Y0036*
X00662Y00353*
G37*
G36*
X00666Y00332D02*
X00665Y00329D01*
X00665Y00328*
X00665Y00327*
X00665Y00326*
X00664Y00325*
X00664Y00325*
X00663Y00324*
X00663Y00324*
X00678*
X00678Y00324*
X00677Y00325*
X00677Y00325*
X00677Y00326*
X00676Y00327*
X00676Y00328*
X00676Y00329*
X00676Y00331*
X00676Y00334*
X00666*
X00666Y00332*
G37*
%LNusb2can-2*%
%LPC*%
G36*
X00197Y01724D02*
X00224D01*
Y01715*
X00259*
X00263Y01718*
X00271Y0172*
X00278Y01718*
X00285Y01714*
X00289Y01707*
X00291Y017*
X00289Y01692*
X00285Y01685*
X0028Y01682*
Y01677*
X00285Y01674*
X00289Y01667*
X00291Y0166*
X00289Y01652*
X00285Y01645*
X00278Y01641*
X00271Y01639*
X00263Y01641*
X00256Y01645*
X00256Y01646*
X00224*
Y0164*
X00197*
Y01679*
X00221*
X00222Y01683*
X0022Y01685*
X00217*
X00216Y01685*
X00216Y01685*
X00197*
Y01724*
G37*
G36*
X00533Y01756D02*
X00569D01*
Y01706*
X00574Y01704*
X00576Y01709*
X00583Y01713*
X00591Y01715*
X00598Y01713*
X00604Y01709*
X00608Y01712*
Y01756*
X00643*
Y01704*
X00648Y01702*
X00653Y01707*
X00657Y01709*
X00662Y0171*
X00678*
Y01713*
X00686*
X00686Y01713*
X00686Y01713*
X00705*
X00705Y01713*
X00706Y01713*
X00713*
Y0171*
X00728*
X00733Y01709*
X00736Y01707*
X00736Y01707*
X00736Y01707*
X00736Y01707*
X00738Y01708*
X00746Y0171*
X00753Y01708*
X0076Y01704*
X00764Y01697*
X00766Y0169*
X00765Y01688*
X00775Y01679*
X00778Y01675*
X00779Y0167*
Y01625*
X00778Y01619*
X00775Y01615*
X0076Y016*
X00756Y01597*
X00751Y01596*
X00726*
X00709Y01579*
Y01542*
X00711*
Y01534*
X00711Y01534*
X00711Y01534*
Y01515*
X00711Y01515*
X00711Y01515*
Y01507*
X00709*
Y01473*
X00709Y01473*
X00709Y01472*
X00711Y01465*
X00709Y01457*
X00705Y0145*
X00704Y0145*
Y01443*
X00789*
X00792Y01448*
X00791Y01454*
X00792Y01462*
X00795Y01466*
Y0147*
X00795Y0147*
X00795Y0147*
Y01489*
X00795Y01489*
X00795Y01489*
Y01497*
X00798*
Y01507*
X00796*
Y01515*
X00796Y01515*
X00796Y01515*
Y01542*
X00828*
X0083*
X00861*
Y01515*
X00861Y01515*
X00861Y01515*
Y01507*
X00859*
Y01473*
X00865Y01469*
X00868Y01464*
X00868Y01464*
X00872Y01461*
X00905Y01429*
X00908Y01425*
X00909Y0142*
Y01264*
X0091Y01264*
X00914Y01257*
X00915Y01253*
X00943*
Y01255*
X00951*
X00951Y01255*
X00951Y01255*
X00978*
Y01224*
X00951*
X00951Y01224*
X00951Y01224*
X00943*
Y01226*
X00906*
X00901Y01227*
X00897Y0123*
X00896Y01229*
X00888Y01231*
X00881Y01235*
X00881Y01236*
X00716*
X00715Y01235*
X00708Y01231*
X00704Y0123*
Y01212*
X00706*
Y01204*
X00706Y01204*
X00706Y01204*
Y01177*
X00675*
Y01204*
X00675Y01204*
X00675Y01204*
Y01212*
X00677*
Y0124*
X00678Y01245*
X00681Y01248*
X00681Y0125*
X00682Y01257*
X00686Y01264*
X00693Y01268*
X00701Y0127*
X00708Y01268*
X00715Y01264*
X00716Y01263*
X00881*
X00881Y01264*
X00882Y01264*
Y01414*
X0086Y01437*
X00858Y01436*
X00851Y01434*
X00849Y01435*
X00835Y0142*
X00831Y01417*
X00826Y01416*
X00695*
X00688Y0141*
Y01397*
X00689Y01393*
X00701*
X00701Y01394*
X00708Y01398*
X00716Y014*
X00723Y01398*
X0073Y01394*
X00734Y01387*
X00736Y0138*
X00734Y01372*
X0073Y01365*
X00723Y01361*
X00716Y01359*
X00708Y01361*
X00701Y01365*
X00701Y01366*
X00688*
Y01364*
X00681*
X0068Y01364*
X0068Y01364*
X00661*
X00661Y01364*
X00661Y01364*
X00653*
Y01366*
X00643*
Y01364*
X00636*
X00635Y01364*
X00635Y01364*
X00608*
Y01395*
X00635*
X00635Y01395*
X00636Y01395*
X00643*
Y01393*
X00652*
X00653Y01397*
Y014*
Y01429*
X0067*
X00677Y01436*
Y01449*
X00643*
Y01444*
X00608*
Y01476*
X00635*
X00635Y01476*
X00636Y01476*
X00636*
X00636Y01476*
X00636Y01476*
X00643*
Y01475*
X00643Y01475*
X00674*
X00676Y01479*
X00682Y01483*
Y01507*
X0068*
Y01515*
X0068Y01515*
X0068Y01515*
Y01534*
X0068Y01534*
X0068Y01534*
Y01542*
X00682*
Y01585*
X00683Y0159*
X00686Y01594*
X00711Y01619*
X00716Y01622*
X00721Y01623*
X00745*
X00752Y0163*
Y01641*
X00747Y01644*
X00746Y01642*
X00741Y01641*
X00736Y01642*
X00731Y01645*
X00731Y01646*
X0073Y01645*
X0073*
X0073Y01645*
X00729Y01645*
X00727Y01645*
X00727Y01645*
X00727*
X00726Y01646*
X00724Y01646*
X00724Y01647*
X00724Y01647*
X00723Y01648*
X00722Y01649*
X00712*
X00712*
X00711Y01649*
X00711*
X00711Y01648*
X0071Y01648*
X0071Y01647*
X00709Y01647*
X00708Y01647*
X00708Y01646*
X00707Y01646*
X00706Y01646*
X00705Y01646*
X00705Y01646*
X00704Y01646*
X00703Y01646*
X00702Y01647*
X00702Y01647*
X00701Y01647*
X007Y01648*
X007Y01648*
X00699Y01649*
X00696*
X00691Y0165*
X00686Y01653*
X00683Y01657*
X00682Y01662*
X00683Y01667*
X00686Y01671*
X00691Y01674*
X00696Y01675*
X00697*
X00699Y01676*
X00697Y01681*
X00686*
X00686Y01681*
X00686Y01681*
X00678*
Y01684*
X00667*
X00649Y01665*
X00644Y01662*
X00639Y01661*
X0062*
X00606Y01647*
Y01603*
X00589*
X00577Y01591*
X00577Y0159*
X00581Y01588*
X00583Y01588*
X00583Y01588*
X00591Y0159*
X00598Y01588*
X00605Y01584*
X00609Y01577*
X00611Y0157*
X00609Y01562*
X00605Y01555*
X00598Y01551*
X00591Y01549*
X00583Y01551*
X00579Y01554*
X00574Y01552*
X00571Y01548*
Y01542*
X00574*
Y01534*
X00574Y01534*
X00574Y01534*
Y01507*
X00543*
Y01534*
X00543Y01534*
X00543Y01534*
Y01542*
X00545*
Y01551*
X00541Y01552*
X00509*
Y01573*
X00504Y01575*
X00504Y01575*
Y01455*
X00503Y01449*
X005Y01445*
X00455Y01401*
X00456Y014*
X00454Y01392*
X0045Y01385*
X00443Y01381*
X00436Y01379*
X00428Y01381*
X00421Y01385*
X00417Y01392*
X00416Y014*
X00417Y01407*
X00421Y01414*
X00428Y01418*
X00428Y01418*
X00429Y01423*
X00426Y01425*
X00422Y01432*
X00421Y0144*
X00422Y01447*
X00426Y01454*
X00433Y01458*
X00441Y0146*
X00442Y01459*
X00455Y01472*
Y01577*
X00401Y0163*
X00398Y01635*
X00397Y0164*
Y0172*
X00398Y01725*
X00401Y01729*
X00406Y01733*
X00406Y01735*
X00407Y01742*
X00411Y01749*
X00418Y01753*
X00426Y01755*
X00433Y01753*
X0044Y01749*
X00444Y01742*
X00446Y01735*
X00444Y01727*
X0044Y0172*
X00433Y01716*
X00426Y01714*
X00424Y0171*
Y01645*
X00467Y01602*
X00473Y01603*
X00476Y01609*
X00483Y01613*
X00491Y01615*
X00498Y01613*
X00505Y01609*
X00509Y01602*
X0051Y01596*
X00515*
X00516Y01597*
X00518Y01601*
X00526Y01609*
X00531Y01612*
X00536Y01613*
X00562*
X0057Y01622*
Y01666*
X00587*
X00591Y0167*
X00589Y01675*
X00583Y01676*
X00576Y0168*
X00572Y01687*
X00572Y01689*
X00571Y0169*
X00565Y0169*
X00564Y01689*
Y01685*
X00563Y0168*
X0056Y01675*
X0054Y01655*
X00536Y01652*
X00531Y01651*
X00508*
Y01649*
X00501*
X005Y01649*
X005Y01649*
X00481*
X00481Y01649*
X00481Y01649*
X00473*
Y01651*
X00467*
X00466Y01651*
X00466Y01651*
X00466Y01651*
X00465Y01651*
X00465Y01651*
X00465Y0165*
X00458Y01646*
X00451Y01644*
X00443Y01646*
X00436Y0165*
X00432Y01657*
X00431Y01665*
X00432Y01672*
X00436Y01679*
X00442Y01682*
X00441Y01687*
X00441Y01687*
X00436Y0169*
X00433Y01694*
X00432Y017*
X00433Y01705*
X00436Y01709*
X00437Y01709*
X00441Y01712*
X00446Y01713*
X00448*
X00448Y01713*
X00448Y01713*
X00448Y01714*
X00449Y01714*
X0045Y01715*
X0045Y01715*
X0045Y01715*
X00452Y01716*
X00453Y01716*
X00453Y01716*
X00453Y01716*
X00455Y01716*
X00456Y01716*
X00456Y01716*
X00457Y01716*
X00458Y01715*
X00459Y01714*
X00459Y01714*
X0046Y01714*
X0046Y01714*
X0046Y01713*
X0046Y01713*
X00461Y01713*
X00461Y01713*
X00462Y01713*
X00474*
X00474*
X00475Y01713*
X00475Y01713*
X00475Y01713*
X00476Y01714*
X00476Y01714*
X00477Y01715*
X00478Y01715*
X00479Y01715*
X00479Y01716*
X0048*
X00481Y01716*
X00482Y01716*
X00482Y01716*
X00483Y01715*
X00484Y01715*
X00485Y01715*
X00485Y01714*
X00486Y01714*
X00487Y01713*
X00487Y01713*
X00491*
X00496Y01712*
X005Y01709*
X00503Y01705*
X00504Y017*
X00503Y01695*
X005Y01691*
X00496Y01688*
X00491Y01687*
X00489*
X00487Y01685*
X00489Y0168*
X005*
X005Y0168*
X00501Y0168*
X00508*
Y01678*
X00525*
X00536Y01688*
X00533Y01693*
X00533*
Y01701*
X00533Y01701*
X00533Y01701*
Y01756*
G37*
G36*
X00961Y01724D02*
X00989D01*
Y01685*
X00975*
X00974Y01685*
X00973*
X0097Y01683*
X00965Y01682*
X00962*
X0096Y0168*
X0096Y01678*
X00963Y01674*
X00989*
Y01635*
X00962*
Y01641*
X00931*
X0093Y0164*
X00923Y01636*
X00916Y01634*
X00908Y01636*
X00901Y0164*
X00897Y01647*
X00896Y01655*
X00897Y01662*
X00901Y01669*
X00908Y01673*
X00915Y01674*
X00917Y01677*
X00917Y01678*
X00916Y01679*
X00916Y01679*
X00908Y01681*
X00901Y01685*
X00897Y01692*
X00896Y017*
X00897Y01707*
X00901Y01714*
X00908Y01718*
X00916Y0172*
X00923Y01718*
X0093Y01714*
X00931Y01713*
X00943*
X00948Y01712*
X00953Y01709*
X00953Y01708*
X00961*
X00961Y01709*
Y01724*
G37*
G36*
X00234Y01542D02*
X00266D01*
Y01527*
X00268Y01524*
X00269Y01519*
Y01474*
X0027Y01474*
X00274Y01467*
X00276Y0146*
X00274Y01452*
X0027Y01445*
X00265Y01442*
X00265Y01442*
X00262Y01438*
X00245Y0142*
X00243Y01416*
Y0141*
X00248Y0141*
X00252Y01407*
X003Y01359*
X00303Y01355*
X00304Y0135*
Y0129*
X00303Y01284*
X003Y0128*
X00275Y01256*
X00276Y01255*
X00274Y01247*
X0027Y0124*
X00264Y01236*
Y01217*
X00266*
Y01209*
X00266Y01209*
X00266Y01209*
Y01182*
X00235*
Y01209*
X00235Y01209*
X00235Y01209*
Y01217*
X00237*
Y01246*
X00238Y01246*
X00237Y01247*
X00236Y01255*
X00237Y01262*
X00241Y01269*
X00248Y01273*
X00256Y01275*
X00257Y01274*
X00277Y01295*
Y0131*
X00272Y01313*
X0027Y01311*
X00262Y01309*
X00254Y01311*
X00248Y01315*
X00243Y01322*
X00242Y01329*
X00243Y01337*
X00244Y01338*
X00231Y01351*
X00216*
X00216Y01351*
X00216Y01351*
X00208*
Y01355*
X00198*
Y01354*
X00191*
X00191Y01354*
X0019Y01354*
X0019Y01354*
X0019Y01354*
X00163*
Y01385*
X0019*
X0019Y01385*
X00191Y01385*
X00198*
Y01381*
X00204*
X00208Y01385*
Y01408*
X00208Y01408*
X00208Y01408*
Y01416*
X00212*
Y0142*
X00213Y01425*
X00216Y01429*
X00226Y01438*
X00224Y01443*
X00198*
Y01439*
X00191*
X0019Y01439*
X0019Y01439*
X00163*
Y0147*
X0019*
X0019Y0147*
X0019Y0147*
X0019Y0147*
X00191Y0147*
X00198*
Y01469*
X00238*
X00238Y01469*
X00238Y01469*
X00241Y01474*
X00242Y01474*
Y01507*
X00234*
Y01542*
G37*
G36*
X00396D02*
D01*
X00398*
X00427*
Y01515*
X00427Y01515*
X00427Y01515*
Y01507*
X00424*
Y01465*
X00423Y0146*
X00421Y01456*
X00407Y01443*
X00409Y0144*
X00411Y01432*
X00409Y01424*
X00405Y01418*
X00398Y01413*
X00391Y01412*
X00383Y01413*
X00376Y01418*
X00372Y01424*
X00371Y01432*
X00371Y01433*
X00366Y01435*
X00359Y01429*
X00359Y01427*
X00355Y0142*
X00348Y01416*
X00341Y01414*
X00333Y01416*
X00326Y0142*
X00322Y01427*
X00321Y01435*
X00322Y01442*
X00326Y01449*
X00333Y01453*
X00341Y01455*
X00347Y01453*
X0036Y01466*
Y01469*
X0036Y01469*
X0036Y0147*
X0036Y0147*
X0036Y0147*
Y01489*
X0036Y01489*
X0036Y01489*
Y01497*
X00364*
Y01507*
X00362*
Y01514*
X00362Y01514*
X00362Y01514*
Y01515*
X00362Y01515*
X00362Y01515*
Y01542*
X00391*
X00394*
X00396*
G37*
G36*
X00451Y0127D02*
X00458Y01268D01*
X00465Y01264*
X00466Y01263*
X00466*
X00471Y01262*
X00475Y01259*
X00481Y01253*
X00498*
Y01255*
X00506*
X00506Y01255*
X00506Y01255*
X00533*
Y01224*
X00506*
X00506Y01224*
X00506Y01224*
X00498*
Y01226*
X00476*
X00471Y01227*
X00466Y0123*
X00463Y01234*
X00458Y01231*
X00451Y01229*
X00443Y01231*
X00436Y01235*
X00432Y01242*
X00431Y0125*
X00432Y01257*
X00436Y01264*
X00443Y01268*
X00451Y0127*
G37*
G36*
X00794Y01102D02*
X00826D01*
Y01075*
X00826Y01075*
X00826Y01075*
Y01067*
X00823*
Y01058*
X00828Y01057*
X0083*
X00861*
Y0103*
X00861Y0103*
X00861Y0103*
Y01022*
X00859*
Y01013*
X00865Y01009*
X00869Y01002*
X00871Y00995*
X00869Y00987*
X00865Y0098*
X00858Y00976*
X00851Y00974*
X00843Y00976*
X00836Y0098*
X00832Y00987*
X00831Y00993*
X00827Y00995*
X00826Y00995*
X00822Y00993*
X00814Y00991*
X00806Y00993*
X008Y00997*
X00795Y01004*
X00794Y01011*
X00795Y01019*
X00796Y01022*
Y0103*
X00796Y0103*
X00796Y0103*
Y01049*
X00796Y01049*
X00796Y01049*
Y01057*
X00797*
Y01067*
X00794*
Y01075*
X00794Y01075*
X00794Y01075*
Y01102*
G37*
G36*
X00362D02*
X00394D01*
Y01075*
X00394Y01075*
X00394Y01075*
Y01067*
X00391*
Y01059*
X00395Y01057*
X00426*
Y0103*
X00426Y0103*
X00426Y0103*
Y01022*
X00426Y01017*
X00429Y01012*
X00431Y01005*
X00429Y00997*
X00425Y0099*
X00418Y00986*
X00411Y00984*
X00403Y00986*
X00396Y0099*
X00393Y00995*
X00388*
X00385Y0099*
X00378Y00986*
X00371Y00984*
X00363Y00986*
X00356Y0099*
X00352Y00997*
X00351Y01005*
X00352Y01012*
X00356Y01019*
X00361Y01022*
Y0103*
X00361Y0103*
X00361Y0103*
Y01049*
X00361Y01049*
X00361Y01049*
Y01057*
X00364*
Y01067*
X00362*
Y01075*
X00362Y01075*
X00362Y01075*
Y01102*
G37*
G36*
X00831Y0094D02*
X00838Y00938D01*
X00845Y00934*
X00849Y00927*
X00851Y0092*
X0085Y00917*
X00851Y00916*
X00855Y00913*
X00861Y00915*
X00868Y00913*
X00875Y00909*
X00879Y00902*
X00881Y00895*
X00879Y00887*
X00875Y0088*
X00874Y0088*
Y00709*
X00876Y00705*
X00883Y00703*
X0089Y00699*
X00894Y00692*
X00896Y00685*
X00894Y00677*
X0089Y0067*
X00883Y00666*
X00876Y00664*
X00868Y00666*
X00861Y0067*
X00857Y00677*
X00856Y00685*
X00856Y00686*
X00852Y0069*
X00851Y0069*
X00847Y00686*
X00848Y00682*
X00847Y00674*
X00842Y00668*
X00836Y00663*
X00828Y00662*
X0082Y00663*
X00814Y00668*
X0081Y00674*
X00808Y00682*
X0081Y0069*
X00814Y00696*
X00815Y00697*
Y00908*
X00812Y00912*
X00811Y0092*
X00812Y00927*
X00816Y00934*
X00823Y00938*
X00831Y0094*
G37*
G36*
X00962Y00404D02*
X00989D01*
Y00365*
X0097*
X0097Y00365*
X0097Y00365*
X00969*
X00969*
X00969*
X00966*
X00964Y00363*
X00965Y00359*
X00989*
Y0032*
X00962*
Y00326*
X00936*
X00935Y00325*
X00928Y00321*
X00921Y00319*
X00913Y00321*
X00906Y00325*
X00902Y00332*
X00901Y0034*
X00902Y00347*
X00906Y00354*
X00911Y00357*
Y00362*
X00906Y00365*
X00902Y00372*
X00901Y0038*
X00902Y00387*
X00906Y00394*
X00913Y00398*
X00921Y004*
X00928Y00398*
X00935Y00394*
X0095*
X0095Y00394*
X0095Y00394*
X0095Y00394*
X00951Y00394*
X00958*
X00962Y00397*
Y00404*
G37*
G36*
X00266Y0039D02*
X00273Y00388D01*
X0028Y00384*
X00284Y00377*
X00286Y0037*
X00284Y00362*
X0028Y00355*
X00275Y00352*
Y00347*
X0028Y00344*
X00284Y00337*
X00286Y0033*
X00284Y00322*
X0028Y00315*
X00273Y00311*
X00266Y00309*
X00258Y00311*
X00251Y00315*
X00251Y00316*
X00251Y00316*
X00251Y00316*
X00236*
X00236Y00316*
X00236Y00316*
X00236Y00316*
X00235Y00316*
X00228*
X00224Y00312*
Y00305*
X00197*
Y00344*
X00216*
X00216Y00344*
X00217Y00344*
X00217*
X00217Y00344*
Y00344*
X00221*
X00222Y00347*
X00221Y0035*
X00197*
Y00389*
X00224*
Y00383*
X00251*
X00251Y00384*
X00258Y00388*
X00266Y0039*
G37*
G36*
X00831Y00285D02*
X00838Y00283D01*
X00845Y00279*
X00849Y00272*
X00851Y00265*
X00849Y00257*
X00845Y0025*
X00838Y00246*
X00831Y00244*
X00831Y00244*
X0083Y00244*
X0083Y00244*
X00753Y00167*
X00749Y00164*
X00743Y00163*
X00732*
X0073Y0016*
X00723Y00156*
X00716Y00154*
X00708Y00156*
X00701Y0016*
X007Y00163*
X00683*
Y00161*
X00676*
X00676Y00161*
X00676Y00161*
X00676*
X00675Y00161*
X00675Y00161*
X00648*
Y00193*
X00675*
X00675Y00193*
X00676Y00193*
X00676*
X00676Y00193*
X00676Y00193*
X00683*
Y00191*
X00684Y00191*
X00705*
X00708Y00193*
X00716Y00195*
X00723Y00193*
X00726Y00191*
X00738*
X0081Y00264*
X0081Y00264*
X0081Y00264*
X00811Y00264*
Y00265*
X00812Y00272*
X00816Y00279*
X00823Y00283*
X00831Y00285*
G37*
G36*
X00761Y00124D02*
X00768Y00122D01*
X00768Y00123*
X00776*
X00776Y00123*
X00776Y00123*
X00803*
Y00091*
X00777*
X00775Y00089*
X00769Y00085*
X00761Y00083*
X0076Y00084*
X00734Y00058*
X00735Y00053*
X00738Y00052*
X00741*
X00762*
X00762Y00052*
X00762Y00052*
X0077*
Y00049*
X00771Y00049*
X00791*
X00791Y00049*
X00791Y00049*
X00791Y00049*
X00798Y00053*
X00806Y00055*
X00813Y00053*
X0082Y00049*
X00824Y00042*
X00826Y00035*
X00824Y00027*
X0082Y0002*
X00813Y00016*
X00806Y00014*
X00798Y00016*
X00791Y0002*
X00791Y0002*
X00791Y0002*
X0079Y0002*
X00771*
X0077Y0002*
X0077Y0002*
Y00017*
X00762*
X00762Y00017*
X00762Y00017*
X00741*
X00738*
X00733*
X00705*
Y00044*
X00705Y00044*
X00705Y00044*
Y00052*
X00708*
Y00063*
X00709Y00068*
X00711Y00072*
X00741Y00102*
X00741Y00103*
X00743Y00111*
X00747Y00118*
X00753Y00122*
X00761Y00124*
G37*
G36*
X00601Y00385D02*
X00608Y00383D01*
X00615Y00379*
X00619Y00372*
X00621Y00365*
X00619Y00357*
X00615Y0035*
X00608Y00346*
X00607Y00346*
Y00332*
X0061*
Y00324*
X0061Y00324*
X0061Y00324*
Y00297*
X00581*
X00578*
X00574*
X0057Y00292*
X00571Y00287*
X00571*
Y0028*
X00571Y0028*
X00571Y0028*
Y00279*
X00571Y00279*
X00571Y00279*
Y0026*
X00571Y0026*
X00571Y0026*
Y00259*
X00571Y00259*
X00571Y00259*
Y00252*
X0057*
X0057Y00251*
Y0024*
X0057Y00239*
X0057Y00239*
X0057Y00239*
Y00239*
X00574Y00232*
X00576Y00225*
X00574Y00217*
X0057Y0021*
X00563Y00206*
X00556Y00204*
X00553Y00205*
X00551Y002*
X00552Y00199*
X00553Y00198*
X00554Y00197*
X00592*
Y00142*
X00537*
Y00148*
X00532Y0015*
X00528Y00147*
X00522Y00145*
X00515Y00144*
X00512Y0014*
X00512Y00139*
Y00134*
X00512Y00134*
Y00134*
Y00134*
X00512Y00128*
X00512Y00128*
X00512Y00128*
X00512Y00126*
X00512Y00126*
X00512Y00126*
X00512Y00126*
X00512Y00126*
X00512Y00125*
X00512Y00125*
Y00115*
X00512Y00114*
Y00101*
X00514*
Y00062*
X00473*
Y00095*
X00458*
Y00107*
X00426*
X00425Y00105*
X00418Y00101*
X00411Y00099*
X00403Y00101*
X00396Y00105*
X00392Y00112*
X00391Y0012*
X00391Y00122*
X00372Y00141*
X00369Y00145*
X00369Y0015*
Y0019*
X00369Y00194*
X00372Y00198*
Y00198*
X00392Y00218*
X00396Y00221*
X00401Y00222*
X00524*
X00529Y00221*
X00532Y00219*
X00536Y00221*
X00536Y00222*
X00536Y00225*
X00537Y00232*
X00541Y00239*
Y00239*
X00541Y00239*
X00542Y00239*
X00542Y0024*
Y00252*
X0054*
Y00259*
X0054Y00259*
X0054Y00259*
Y0026*
X0054Y0026*
X0054Y0026*
Y00279*
X0054Y00279*
X0054Y00279*
Y0028*
X0054Y0028*
X0054Y0028*
Y00287*
X00542*
X00542Y00288*
Y00308*
X00543Y00313*
X00545Y00316*
Y00332*
X00573*
X00576*
X00581Y00333*
Y00354*
X00582Y00358*
X00581Y00365*
X00582Y00372*
X00586Y00379*
X00593Y00383*
X00601Y00385*
G37*
%LNusb2can-3*%
%LPD*%
G36*
X00216Y01693D02*
X00216Y01694D01*
X00217Y01694*
X00217Y01695*
X00218Y01695*
X00219Y01696*
X0022Y01696*
X00221Y01697*
X00223Y01697*
X00224Y01697*
X00226Y01697*
X00228Y01697*
X0023Y01697*
X00231Y01697*
X00232Y01696*
X00233Y01696*
X00234Y01695*
X00235Y01695*
X00236Y01694*
X00236Y01693*
X00236Y01692*
X00236Y01706*
X00236Y01706*
X00235Y01706*
X00235Y01706*
X00234Y01707*
X00233Y01707*
X00231Y01707*
X00228Y01707*
X00226Y01707*
X00224Y01707*
X00223Y01707*
X00221Y01707*
X0022Y01708*
X00219Y01708*
X00218Y01709*
X00217Y01709*
X00217Y0171*
X00216Y01711*
X00216Y01712*
X00216Y01693*
G37*
G36*
X00263Y01707D02*
X00257Y01707D01*
X00256Y01706*
X00256Y01706*
X00255Y01706*
X00255Y01706*
Y01692*
X00255Y01693*
X00256Y01694*
X00256Y01695*
X00257Y01695*
X00258Y01696*
X00259Y01696*
X0026Y01697*
X00262Y01697*
X00263Y01697*
X00265Y01697*
Y01707*
X00263Y01707*
G37*
G36*
X00216Y0165D02*
X00216Y0165D01*
X00217Y01651*
X00217Y01652*
X00218Y01653*
X00219Y01653*
X0022Y01654*
X00221Y01654*
X00223Y01654*
X00224Y01654*
X00226Y01655*
Y01655*
X00236Y01657*
X00236Y0167*
X00236Y01669*
X00236Y01668*
X00235Y01667*
X00234Y01666*
X00233Y01666*
X00232Y01665*
X00231Y01665*
X0023Y01665*
X00228Y01665*
X00226Y01665*
X00224Y01665*
X00223Y01665*
X00221Y01665*
X0022Y01665*
X00219Y01666*
X00218Y01666*
X00217Y01667*
X00217Y01668*
X00216Y01669*
X00216Y0167*
Y0165*
G37*
G36*
X00255Y01657D02*
X00255Y01656D01*
X00256Y01656*
X00256Y01656*
X00257Y01655*
X00258Y01655*
X00259Y01655*
X0026Y01655*
X00263Y01655*
X00265Y01655*
Y01665*
X00263Y01665*
X00262Y01665*
X0026Y01665*
X00259Y01665*
X00258Y01666*
X00257Y01666*
X00256Y01667*
X00256Y01668*
X00255Y01669*
X00255Y0167*
Y01657*
G37*
G36*
X00725Y01693D02*
X00735Y01683D01*
X00738Y01699*
X00738Y01699*
X00737Y01698*
X00737Y01698*
X00736*
X00735Y01698*
X00735Y01698*
X00734Y01699*
X00733Y01699*
X00732Y017*
X00731Y01701*
X00725Y01693*
G37*
G36*
X00616Y01713D02*
X00617Y01713D01*
X00617Y01712*
X00616Y01711*
X00616Y01709*
X00615Y01708*
X00614Y01706*
X00612Y01705*
X00609Y01701*
X00616Y01694*
X00618Y01696*
X00621Y01699*
X00623Y017*
X00624Y01701*
X00625Y01701*
X00626Y01702*
X00627Y01702*
X00628Y01702*
X00629Y01701*
X00616Y01714*
X00616Y01713*
G37*
G36*
X00481Y01707D02*
X0048Y01707D01*
X0048Y01706*
X00479Y01706*
X00478Y01706*
X00477Y01705*
X00476Y01705*
X00474Y01705*
X00471Y01705*
Y01695*
X00473Y01695*
X00476Y01695*
X00477Y01694*
X00478Y01694*
X00479Y01694*
X0048Y01694*
X0048Y01693*
X00481Y01693*
X00481Y01692*
Y01708*
X00481Y01707*
G37*
G36*
X00454Y01692D02*
X00455Y01692D01*
X00456Y01693*
X00456Y01693*
X00457Y01694*
X00458Y01694*
X00459Y01694*
X0046Y01695*
X00461Y01695*
X00462Y01695*
X00464Y01695*
X00463Y01705*
X00462Y01705*
X00461Y01705*
X0046Y01705*
X00459Y01705*
X00458Y01706*
X00457Y01706*
X00456Y01706*
X00455Y01707*
X00454Y01707*
X00454Y01708*
X00454Y01692*
G37*
G36*
X00542Y01701D02*
X00543Y01701D01*
X00543Y017*
X00544Y01699*
X00545Y01699*
X00545Y01697*
X00545Y01696*
X00546Y01695*
X00546Y01693*
X00546Y01691*
X00556*
X00556Y01693*
X00556Y01695*
X00556Y01696*
X00557Y01697*
X00557Y01699*
X00558Y01699*
X00558Y017*
X00559Y01701*
X0056Y01701*
X00561Y01701*
X00541*
X00542Y01701*
G37*
G36*
X00686Y01704D02*
X00685Y01704D01*
X00685Y01704*
X00684Y01703*
X00683Y01703*
X00682Y01703*
X00681Y01702*
X00679Y01702*
X00676Y01702*
Y01692*
X00678Y01692*
X00681Y01692*
X00682Y01692*
X00683Y01692*
X00684Y01691*
X00685Y01691*
X00685Y0169*
X00686Y0169*
X00686Y01689*
Y01705*
X00686Y01704*
G37*
G36*
X00705Y01689D02*
X00705Y0169D01*
X00706Y0169*
X00706Y01691*
X00707Y01691*
X00708Y01692*
X00709Y01692*
X0071Y01692*
X00712Y01692*
X00715Y01692*
Y01702*
X00713Y01702*
X0071Y01702*
X00709Y01703*
X00708Y01703*
X00707Y01703*
X00706Y01704*
X00706Y01704*
X00705Y01704*
X00705Y01705*
Y01689*
G37*
G36*
X00599Y01686D02*
X006Y01687D01*
X006Y01688*
X00601Y01688*
X00602Y01688*
X00603Y01689*
X00604Y01689*
X00605Y01689*
X00606Y01689*
X00607Y01689*
X00608Y0169*
Y017*
X00607Y017*
X00606Y017*
X00605Y017*
X00604Y017*
X00603Y017*
X00602Y01701*
X00601Y01701*
X006Y01702*
X006Y01702*
X00599Y01703*
Y01686*
G37*
G36*
X00481Y01672D02*
X0048Y01671D01*
X0048Y01671*
X00479Y0167*
X00478Y0167*
X00477Y0167*
X00476Y0167*
X00474Y0167*
X00471Y0167*
Y0166*
X00473Y01659*
X00476Y01659*
X00477Y01659*
X00478Y01659*
X00479Y01659*
X0048Y01658*
X0048Y01658*
X00481Y01657*
X00481Y01657*
Y01672*
X00481Y01672*
G37*
G36*
X005Y01657D02*
X005Y01657D01*
X00501Y01658*
X00501Y01658*
X00502Y01659*
X00503Y01659*
X00504Y01659*
X00505Y01659*
X00507Y01659*
X0051Y0166*
Y0167*
X00508Y0167*
X00505Y0167*
X00504Y0167*
X00503Y0167*
X00502Y0167*
X00501Y01671*
X00501Y01671*
X005Y01672*
X005Y01672*
Y01657*
G37*
G36*
X00459Y01656D02*
X0046Y01657D01*
X0046Y01657*
X00461Y01658*
X00462Y01658*
X00463Y01659*
X00464Y01659*
X00465Y01659*
X00466Y01659*
X00467Y01659*
X00468Y0166*
Y0167*
X00467Y0167*
X00466Y0167*
X00465Y0167*
X00464Y0167*
X00463Y0167*
X00462Y01671*
X00461Y01671*
X0046Y01672*
X0046Y01672*
X00459Y01673*
Y01656*
G37*
G36*
X00705Y01654D02*
X00705Y01655D01*
X00706Y01655*
X00706Y01655*
X00707Y01656*
X00708Y01656*
X00709Y01656*
X0071Y01657*
X00712Y01657*
X00715Y01657*
Y01667*
X00713Y01667*
X0071Y01667*
X00709Y01667*
X00708Y01667*
X00707Y01668*
X00706Y01668*
X00706Y01669*
X00705Y01669*
X00705Y0167*
Y01654*
G37*
G36*
X00722Y01657D02*
X00723Y01657D01*
X00724Y01657*
X00725Y01656*
X00726Y01656*
X00727Y01656*
X00728Y01655*
X00728Y01655*
X00728Y01654*
X00729Y01654*
X00729Y01653*
X00738Y01666*
X00724Y01667*
X00722Y01657*
G37*
G36*
X00523Y01587D02*
X00523Y01586D01*
X00522Y01584*
X00522Y01583*
X00521Y01582*
X00521Y01581*
X0052Y0158*
X0052Y0158*
X00519Y01579*
X00518Y01579*
X00533*
X00533Y01579*
X00533Y0158*
X00533Y01584*
X00533Y01589*
X00523*
X00523Y01587*
G37*
G36*
X00483Y01585D02*
X00484Y01585D01*
X00484Y01584*
X00484Y01583*
X00485Y01582*
X00485Y01581*
X00485Y0158*
X00485Y01579*
X00486Y01578*
X00486Y01577*
X00496*
X00496Y01578*
X00496Y01579*
X00496Y0158*
X00496Y01581*
X00496Y01582*
X00497Y01583*
X00497Y01584*
X00498Y01585*
X00498Y01585*
X00499Y01586*
X00482*
X00483Y01585*
G37*
G36*
X00566Y0156D02*
X00551D01*
X00551Y0156*
X00552Y01559*
X00552Y01559*
X00552Y01558*
X00553Y01557*
X00553Y01556*
X00553Y01555*
X00553Y01553*
X00553Y0155*
X00563*
X00563Y01552*
X00564Y01555*
X00564Y01556*
X00564Y01557*
X00564Y01558*
X00565Y01559*
X00565Y01559*
X00566Y0156*
X00566Y0156*
X00566Y01561*
X00566Y01561*
X00567Y01562*
X00568Y01563*
X00569Y01563*
X0057Y01564*
X00571Y01564*
X00572Y01564*
X00574Y01564*
X00574*
X00575Y01564*
X00576Y01564*
X00577Y01564*
X00578Y01564*
X00579Y01563*
X0058Y01563*
X00581Y01562*
X00582Y01562*
X00582Y01561*
Y01578*
X00582Y01577*
X00581Y01577*
X0058Y01576*
X00579Y01576*
X00578Y01575*
X00577Y01575*
X00576Y01575*
X00575Y01575*
X00574Y01575*
X00574*
X00572Y01575*
X00571Y01575*
X0057Y01575*
X00569Y01576*
X00568Y01576*
X00567Y01577*
X00566Y01578*
X00566Y01578*
X00566Y01579*
Y0156*
G37*
G36*
X00553Y01542D02*
X00553Y01539D01*
X00553Y01538*
X00553Y01537*
X00552Y01536*
X00552Y01535*
X00552Y01535*
X00551Y01534*
X00551Y01534*
X00566*
X00566Y01534*
X00565Y01535*
X00565Y01535*
X00564Y01536*
X00564Y01537*
X00564Y01538*
X00564Y01539*
X00563Y01541*
X00563Y01544*
X00553*
X00553Y01542*
G37*
G36*
X00691D02*
X0069Y01539D01*
X0069Y01538*
X0069Y01537*
X0069Y01536*
X00689Y01535*
X00689Y01535*
X00688Y01534*
X00688Y01534*
X00703*
X00703Y01534*
X00702Y01535*
X00702Y01535*
X00702Y01536*
X00701Y01537*
X00701Y01538*
X00701Y01539*
X00701Y01541*
X00701Y01544*
X00691*
X00691Y01542*
G37*
G36*
X00688Y01515D02*
X00689Y01514D01*
X00689Y01514*
X0069Y01513*
X0069Y01512*
X0069Y01511*
X0069Y0151*
X0069Y01508*
X00691Y01505*
X00701*
X00701Y01507*
X00701Y0151*
X00701Y01511*
X00701Y01512*
X00702Y01513*
X00702Y01514*
X00702Y01514*
X00703Y01515*
X00703Y01515*
X00688*
X00688Y01515*
G37*
G36*
X00805D02*
X00805Y01514D01*
X00805Y01514*
X00806Y01513*
X00806Y01512*
X00806Y01511*
X00806Y0151*
X00806Y01507*
X00806Y01505*
X00816*
X00816Y01507*
X00817Y0151*
X00817Y01511*
X00817Y01512*
X00818Y01513*
X00818Y01514*
X00819Y01514*
X00819Y01515*
X0082Y01515*
X00804*
X00805Y01515*
G37*
G36*
X00838D02*
X00839Y01514D01*
X00839Y01514*
X0084Y01513*
X0084Y01512*
X0084Y01511*
X0084Y0151*
X0084Y01508*
X00841Y01505*
X00851*
X00851Y01507*
X00851Y0151*
X00851Y01511*
X00851Y01512*
X00852Y01513*
X00852Y01514*
X00852Y01514*
X00853Y01515*
X00853Y01515*
X00838*
X00838Y01515*
G37*
G36*
X00806Y01497D02*
X00806Y01494D01*
X00806Y01493*
X00805Y01492*
X00805Y01491*
X00805Y0149*
X00804Y0149*
X00804Y01489*
X00803Y01489*
X00818*
X00818Y01489*
X00818Y0149*
X00817Y0149*
X00817Y01491*
X00817Y01492*
X00817Y01493*
X00817Y01494*
X00816Y01497*
X00816Y01499*
X00806*
X00806Y01497*
G37*
G36*
X00806Y01471D02*
X00805Y0147D01*
X00803*
X00803Y0147*
X00804Y01469*
X00804Y01469*
X00805Y01468*
X00805Y01467*
X00805Y01467*
X00805Y01467*
X00804Y01466*
X00804Y01465*
X00804Y01464*
X00803Y01463*
X00802Y01463*
X00806*
X00806Y0146*
X00816*
X00816Y01462*
X00816Y01463*
X00819*
X00818Y01463*
X00818Y01464*
X00817Y01465*
X00817Y01466*
X00816Y01467*
X00816Y01467*
X00816Y01467*
X00817Y01468*
X00817Y01469*
X00817Y01469*
X00818Y0147*
X00818Y0147*
X00816*
X00816Y01471*
X00816Y01472*
X00806*
X00806Y01471*
G37*
G36*
X00841Y01468D02*
X00841Y01467D01*
X0084Y01461*
X0084Y01461*
X0084Y01459*
X0084Y01459*
X00855Y01466*
X00854Y01466*
X00853Y01466*
X00853Y01467*
X00852Y01468*
X00852Y01468*
X00851Y01469*
X00851Y0147*
X00851Y01471*
X00851Y01472*
X00851Y01473*
X00841Y01468*
G37*
G36*
X00635Y01452D02*
X00635Y01453D01*
X00636Y01454*
X00636Y01455*
X00637Y01455*
X00638Y01456*
X00639Y01456*
X0064Y01457*
X00642Y01457*
X00643Y01457*
X00645Y01457*
Y01467*
X00635Y01468*
Y01452*
G37*
G36*
X00635Y01372D02*
X00635Y01372D01*
X00636Y01373*
X00636Y01373*
X00637Y01374*
X00638Y01374*
X00639Y01374*
X0064Y01374*
X00642Y01374*
X00645Y01375*
Y01385*
X00643Y01385*
X0064Y01385*
X00639Y01385*
X00638Y01385*
X00637Y01385*
X00636Y01386*
X00636Y01386*
X00635Y01387*
X00635Y01387*
Y01372*
G37*
G36*
X00661Y01387D02*
X0066Y01386D01*
X0066Y01386*
X00659Y01385*
X00658Y01385*
X00657Y01385*
X00656Y01385*
X00654Y01385*
X00651Y01385*
Y01375*
X00653Y01374*
X00656Y01374*
X00657Y01374*
X00658Y01374*
X00659Y01374*
X0066Y01373*
X0066Y01373*
X00661Y01372*
X00661Y01372*
Y01387*
X00661Y01387*
G37*
G36*
X0068Y01372D02*
X0068Y01372D01*
X00681Y01373*
X00681Y01373*
X00682Y01374*
X00683Y01374*
X00684Y01374*
X00685Y01374*
X00687Y01374*
X0069Y01375*
Y01385*
X00688Y01385*
X00685Y01385*
X00684Y01385*
X00683Y01385*
X00682Y01385*
X00681Y01386*
X00681Y01386*
X0068Y01387*
X0068Y01387*
Y01372*
G37*
G36*
X00951Y01247D02*
X0095Y01246D01*
X0095Y01246*
X00949Y01245*
X00948Y01245*
X00947Y01245*
X00946Y01245*
X00944Y01245*
X00941Y01245*
Y01235*
X00943Y01234*
X00946Y01234*
X00947Y01234*
X00948Y01234*
X00949Y01234*
X0095Y01233*
X0095Y01233*
X00951Y01232*
X00951Y01232*
Y01247*
X00951Y01247*
G37*
G36*
X00686Y01212D02*
X00685Y01209D01*
X00685Y01208*
X00685Y01207*
X00685Y01206*
X00684Y01205*
X00684Y01205*
X00683Y01204*
X00683Y01204*
X00698*
X00698Y01204*
X00697Y01205*
X00697Y01205*
X00697Y01206*
X00696Y01207*
X00696Y01208*
X00696Y01209*
X00696Y01211*
X00696Y01214*
X00686*
X00686Y01212*
G37*
G36*
X00921Y01695D02*
X00923Y01694D01*
X00924Y01694*
X00926Y01694*
X00927Y01694*
X00928Y01693*
X00929Y01693*
X0093Y01692*
X0093Y01691*
X00931Y0169*
X00931Y0169*
Y017*
X00931Y01701*
X0093Y01702*
X0093Y01702*
X00929Y01703*
X00928Y01703*
X00927Y01704*
X00926Y01704*
X00924Y01704*
X00923Y01704*
X00921Y01705*
Y01695*
G37*
G36*
X0095Y01685D02*
X0095Y01686D01*
X00951Y01687*
X00951Y01687*
X00952Y01688*
X00953Y01689*
X00954Y01689*
X00955Y01689*
X00957Y0169*
X00958Y0169*
X0096Y0169*
Y017*
X0095Y017*
X0095Y01685*
G37*
G36*
X0095Y01651D02*
X0095Y01651D01*
X00951Y0165*
X00951Y0165*
X00952Y0165*
X00953Y0165*
X00954Y0165*
X00957Y0165*
X0096Y0165*
Y0165*
X00962Y01649*
X00963Y01649*
X00965Y01649*
X00966Y01649*
X00967Y01648*
X00968Y01648*
X00969Y01647*
X0097Y01646*
X0097Y01645*
X0097Y01645*
Y01665*
X0097Y01664*
X0097Y01663*
X00969Y01662*
X00968Y01661*
X00967Y01661*
X00966Y0166*
X00965Y0166*
X00963Y0166*
X00962Y0166*
X0096Y0166*
X00958Y0166*
X00957Y0166*
X00955Y0166*
X00954Y0166*
X00953Y01661*
X00952Y01661*
X00951Y01662*
X00951Y01663*
X0095Y01664*
X0095Y01665*
X0095Y01651*
G37*
G36*
X00931Y01664D02*
X0093Y01663D01*
X0093Y01662*
X00929Y01661*
X00928Y01661*
X00927Y0166*
X00926Y0166*
X00924Y0166*
X00923Y0166*
X00921Y0166*
Y0165*
X00923Y0165*
X00928Y0165*
X00929Y0165*
X0093Y0165*
X0093Y0165*
X00931Y01651*
X00931Y01651*
Y01665*
X00931Y01664*
G37*
G36*
X00247Y01515D02*
X00247Y01514D01*
X00248Y01514*
X00249Y01513*
X00249Y01512*
X0025Y01511*
X0025Y0151*
X0025Y01508*
X00251Y01507*
X00251Y01505*
X00261*
X00258Y01515*
X00246Y01515*
X00247Y01515*
G37*
G36*
X00245Y01464D02*
X00244Y01463D01*
X00243Y01463*
X00243Y01462*
X00242Y01462*
X00241Y01462*
X0024Y01461*
X00239Y01461*
X00238Y01461*
X00237Y01461*
X0024Y01451*
X00242Y01451*
X00245Y01451*
X00246Y0145*
X00248Y0145*
X00249Y0145*
X00249Y01449*
X0025Y01449*
X00245Y01465*
X00245Y01464*
G37*
G36*
X0019Y01447D02*
X0019Y01448D01*
X00191Y01448*
X00191Y01449*
X00192Y01449*
X00193Y0145*
X00194Y0145*
X00195Y01451*
X00197Y01451*
X00198Y01451*
X002Y01451*
Y01461*
X00198Y01461*
X00192Y01461*
X00191Y01462*
X00191Y01462*
X0019Y01462*
X0019Y01462*
Y01447*
G37*
G36*
X00221Y01416D02*
X0022Y01414D01*
X0022Y01413*
X0022Y01412*
X00219Y01411*
X00219Y0141*
X00218Y01409*
X00218Y01408*
X00217Y01408*
X00216Y01408*
X00235*
X00234Y01408*
X00234Y01408*
X00233Y01409*
X00232Y0141*
X00232Y01411*
X00231Y01412*
X00231Y01413*
X00231Y01414*
X00231Y01416*
X00231Y01418*
X00221*
X00221Y01416*
G37*
G36*
X00235Y01393D02*
X00235Y01392D01*
X00236Y01392*
X00237Y01392*
X00243Y01392*
Y01402*
X00241Y01402*
X00239Y01403*
X00238Y01403*
X00237Y01403*
X00237Y01403*
X00236Y01404*
X00236Y01404*
X00235Y01404*
X00235Y01405*
Y01393*
G37*
G36*
X0019Y01362D02*
X0019Y01362D01*
X00191Y01362*
X00191Y01362*
X00192Y01363*
X00193Y01363*
X00194Y01363*
X00197Y01363*
X002Y01363*
Y01373*
X00198Y01373*
X00195Y01374*
X00194Y01374*
X00193Y01374*
X00192Y01375*
X00191Y01375*
X00191Y01376*
X0019Y01376*
X0019Y01377*
Y01362*
G37*
G36*
X00216Y01374D02*
X00215Y01374D01*
X00215Y01374*
X00214Y01374*
X00213Y01373*
X00212Y01373*
X00209Y01373*
X00206Y01373*
Y01363*
X00208Y01363*
X00211Y01363*
X00212Y01362*
X00213Y01362*
X00214Y01362*
X00215Y01361*
X00215Y01361*
X00216Y0136*
X00216Y01359*
Y01375*
X00216Y01374*
G37*
G36*
X00246Y01217D02*
X00245Y01214D01*
X00245Y01213*
X00245Y01212*
X00245Y01211*
X00244Y0121*
X00244Y0121*
X00243Y01209*
X00243Y01209*
X00258*
X00258Y01209*
X00257Y0121*
X00257Y0121*
X00257Y01211*
X00256Y01212*
X00256Y01213*
X00256Y01214*
X00256Y01216*
X00256Y01219*
X00246*
X00246Y01217*
G37*
G36*
X0037Y01515D02*
X00371Y01514D01*
X00371Y01514*
X00371Y01513*
X00371Y01512*
X00371Y01511*
X00372Y01508*
X00372Y01505*
X00382*
X00382Y01507*
X00382Y0151*
X00382Y01511*
X00383Y01512*
X00383Y01513*
X00384Y01514*
X00384Y01514*
X00385Y01515*
X00386Y01515*
X0037*
X0037Y01515*
G37*
G36*
X00404D02*
X00405Y01514D01*
X00405Y01514*
X00405Y01513*
X00406Y01512*
X00406Y01511*
X00406Y0151*
X00406Y01508*
X00406Y01505*
X00416*
X00416Y01507*
X00417Y0151*
X00417Y01511*
X00417Y01512*
X00417Y01513*
X00418Y01514*
X00418Y01514*
X00419Y01515*
X00419Y01515*
X00404*
X00404Y01515*
G37*
G36*
X00372Y01497D02*
X00371Y01494D01*
X00371Y01493*
X00371Y01492*
X0037Y01491*
X0037Y0149*
X00369Y0149*
X00369Y01489*
X00368Y01489*
X00383*
X00383Y01489*
X00383Y0149*
X00383Y0149*
X00382Y01491*
X00382Y01492*
X00382Y01493*
X00382Y01496*
X00382Y01499*
X00372*
X00372Y01497*
G37*
G36*
X00368Y0147D02*
X00368Y0147D01*
X00368Y01469*
X00368Y01469*
X00369Y01468*
X00369Y01468*
X00369Y01467*
X00369Y01465*
X00369Y01462*
X00379*
X00379Y01463*
X00379Y01466*
X0038Y01467*
X0038Y01468*
X0038Y01469*
X00381Y01469*
X00381Y0147*
X00382Y0147*
X00382Y0147*
X00368Y0147*
G37*
G36*
X00506Y01247D02*
X00505Y01246D01*
X00505Y01246*
X00504Y01245*
X00503Y01245*
X00502Y01245*
X00501Y01245*
X00499Y01245*
X00496Y01245*
Y01235*
X00498Y01234*
X00501Y01234*
X00502Y01234*
X00503Y01234*
X00504Y01234*
X00505Y01233*
X00505Y01233*
X00506Y01232*
X00506Y01232*
Y01247*
X00506Y01247*
G37*
G36*
X00803Y01075D02*
X00803Y01074D01*
X00804Y01074*
X00804Y01073*
X00804Y01072*
X00805Y01071*
X00805Y0107*
X00805Y01068*
X00805Y01065*
X00815*
X00815Y01067*
X00815Y0107*
X00816Y01071*
X00816Y01072*
X00816Y01073*
X00817Y01074*
X00817Y01074*
X00817Y01075*
X00818Y01075*
X00802*
X00803Y01075*
G37*
G36*
X00805Y01057D02*
X00805Y0105D01*
X00805Y01049*
X00804Y01049*
X0082*
X00819Y01049*
X00818Y0105*
X00817Y0105*
X00817Y01051*
X00816Y01052*
X00816Y01053*
X00816Y01054*
X00815Y01056*
X00815Y01057*
X00815Y01059*
X00805*
X00805Y01057*
G37*
G36*
X00838Y0103D02*
X00839Y01029D01*
X00839Y01029*
X0084Y01028*
X0084Y01027*
X0084Y01026*
X0084Y01025*
X0084Y01023*
X00841Y0102*
X00851*
X00851Y01022*
X00851Y01025*
X00851Y01026*
X00851Y01027*
X00852Y01028*
X00852Y01029*
X00852Y01029*
X00853Y0103*
X00853Y0103*
X00838*
X00838Y0103*
G37*
G36*
X00805D02*
X00805Y01029D01*
X00806Y01029*
X00806Y01028*
X00806Y01027*
X00807Y01026*
X00807Y01025*
X00807Y01025*
X00807Y01025*
X00807Y01024*
X00806Y01023*
X00806Y01022*
X00806Y01021*
X00805Y0102*
X00805Y01019*
X00804Y01018*
X00814Y0102*
X00817*
Y0102*
X00821Y01021*
X0082Y01021*
X00819Y01022*
X00819Y01023*
X00818Y01023*
X00818Y01024*
X00818Y01025*
X00818Y01026*
X00818Y01026*
X00818Y01027*
X00818Y01028*
X00818Y01029*
X00819Y01029*
X00819Y0103*
X0082Y0103*
X00804*
X00805Y0103*
G37*
G36*
X00841Y01008D02*
X00841Y01007D01*
X0084Y01001*
X0084Y01001*
X0084Y00999*
X0084Y00999*
X00855Y01006*
X00854Y01006*
X00853Y01006*
X00853Y01007*
X00852Y01008*
X00852Y01008*
X00851Y01009*
X00851Y0101*
X00851Y01011*
X00851Y01012*
X00851Y01013*
X00841Y01008*
G37*
G36*
X00371Y01075D02*
X00371Y01074D01*
X00371Y01074*
X00372Y01073*
X00372Y01072*
X00372Y01071*
X00372Y0107*
X00372Y01067*
X00373Y01065*
X00383*
X00383Y01067*
X00383Y0107*
X00383Y01071*
X00383Y01072*
X00384Y01073*
X00384Y01074*
X00385Y01074*
X00385Y01075*
X00386Y01075*
X0037*
X00371Y01075*
G37*
G36*
X00372Y01057D02*
X00372Y01054D01*
X00372Y01053*
X00372Y01052*
X00371Y01051*
X00371Y0105*
X00371Y0105*
X0037Y01049*
X00369Y01049*
X00385*
X00384Y01049*
X00384Y0105*
X00384Y0105*
X00383Y01051*
X00383Y01052*
X00383Y01053*
X00383Y01054*
X00383Y01057*
X00383Y01059*
X00373*
X00372Y01057*
G37*
G36*
X00403Y0103D02*
X00404Y01029D01*
X00404Y01029*
X00405Y01028*
X00405Y01027*
X00405Y01026*
X00405Y01025*
X00405Y01023*
X00406Y01021*
X00405Y0102*
X00405Y01019*
X00405Y01018*
X00405Y01017*
X00404Y01016*
X00404Y01015*
X00404Y01014*
X00403Y01014*
X00402Y01013*
X00419*
X00418Y01014*
X00418Y01014*
X00417Y01015*
X00417Y01016*
X00416Y01017*
X00416Y01018*
X00416Y01019*
X00416Y0102*
X00416Y01021*
X00416Y01021*
X00416Y01022*
X00416Y01025*
X00416Y01026*
X00416Y01027*
X00417Y01028*
X00417Y01029*
X00417Y01029*
X00418Y0103*
X00418Y0103*
X00403*
X00403Y0103*
G37*
G36*
X0037D02*
X0037Y01029D01*
X00371Y01029*
X00371Y01028*
X00371Y01027*
X00372Y01026*
X00372Y01025*
X00372Y01023*
X00372Y01022*
X00372Y01021*
X00372Y0102*
X00372Y01019*
X00371Y01018*
X00371Y01018*
X0037Y01017*
X0037Y01017*
X00369Y01016*
X00368Y01016*
X00382Y01008*
X00382Y0102*
X00382*
X00382Y01022*
X00382Y01025*
X00383Y01026*
X00383Y01027*
X00383Y01028*
X00383Y01029*
X00384Y01029*
X00384Y0103*
X00385Y0103*
X00369*
X0037Y0103*
G37*
G36*
X00929Y00385D02*
X00928Y00385D01*
X00926Y00385*
X00921Y00385*
Y00375*
X00923Y00374*
X00924Y00374*
X00926Y00374*
X00927Y00374*
X00928Y00373*
X00929Y00373*
Y00371*
X0093Y00372*
X0093Y00372*
X0093Y00372*
X00931Y00371*
X00931Y0037*
Y00373*
X00931Y00373*
X00932Y00373*
X00933Y00374*
X00934Y00374*
X00935Y00374*
X00936Y00374*
X00937Y00374*
X00938Y00375*
Y00385*
X00937Y00385*
X00936Y00385*
X00935Y00385*
X00934Y00385*
X00933Y00385*
X00932Y00386*
X00931Y00386*
X0093Y00387*
X0093Y00387*
X00929Y00388*
Y00385*
G37*
G36*
X0097Y00389D02*
X0097Y00388D01*
X00969Y00387*
X00968Y00386*
X00967Y00386*
X00966Y00385*
X00965Y00385*
X00963Y00385*
X00962Y00385*
X0096Y00385*
X00958Y00385*
X00952Y00385*
X00951Y00385*
X00951Y00385*
X0095Y00385*
X0095Y00386*
Y0037*
X0095Y00371*
X00951Y00372*
X00951Y00372*
X00952Y00373*
X00953Y00373*
X00954Y00374*
X00955Y00374*
X00957Y00374*
X00958Y00374*
X0096Y00375*
X00962Y00374*
X00967Y00374*
X00968Y00374*
X00969Y00374*
X00969Y00373*
X0097Y00373*
X0097Y00373*
X0097Y0039*
X0097Y00389*
G37*
G36*
X0095Y00337D02*
X0095Y00336D01*
X00951Y00336*
X00951Y00336*
X00952Y00335*
X00953Y00335*
X00954Y00335*
X00955Y00335*
X00958Y00335*
X0096Y00335*
Y00335*
X00962Y00334*
X00963Y00334*
X00965Y00334*
X00966Y00334*
X00967Y00333*
X00968Y00333*
X00969Y00332*
X0097Y00331*
X0097Y0033*
X0097Y0033*
Y0035*
X0097Y00349*
X0097Y00348*
X00969Y00347*
X00968Y00346*
X00967Y00346*
X00966Y00345*
X00965Y00345*
X00963Y00345*
X00962Y00345*
X0096Y00345*
X00958Y00345*
X00957Y00345*
X00955Y00345*
X00954Y00345*
X00953Y00346*
X00952Y00346*
X00951Y00347*
X00951Y00348*
X0095Y00349*
X0095Y0035*
X0095Y00337*
G37*
G36*
X00931Y00349D02*
X0093Y00348D01*
X0093Y00347*
X00929Y00346*
X00928Y00346*
X00927Y00345*
X00926Y00345*
X00924Y00345*
X00923Y00345*
X00921Y00345*
Y00335*
X00923Y00335*
X00927Y00335*
X00928Y00335*
X00929Y00335*
X0093Y00336*
X0093Y00336*
X00931Y00336*
X00931Y00337*
Y0035*
X00931Y00349*
G37*
G36*
X00226Y00365D02*
X00228Y00364D01*
X0023Y00364*
X00231Y00364*
X00232Y00364*
X00233Y00363*
X00234Y00363*
X00235Y00362*
X00236Y00361*
X00236Y0036*
X00236Y0036*
X00236Y00373*
X00236Y00373*
X00235Y00374*
X00235Y00374*
X00234Y00374*
X00233Y00374*
X00232Y00374*
X00229Y00374*
X00226Y00375*
Y00365*
G37*
G36*
X00263Y00374D02*
X00258Y00374D01*
X00257Y00374*
X00256Y00374*
X00256Y00374*
X00255Y00373*
X00255Y00373*
Y0036*
X00255Y0036*
X00256Y00361*
X00256Y00362*
X00257Y00363*
X00258Y00363*
X00259Y00364*
X0026Y00364*
X00262Y00364*
X00263Y00364*
X00265Y00365*
Y00375*
X00263Y00374*
G37*
G36*
X00255Y00336D02*
X00255Y00336D01*
X00254Y00336*
X00253Y00335*
X00252Y00335*
X00251Y00335*
X0025Y00335*
X00249Y00335*
X00248Y00335*
Y00325*
X00249Y00324*
X0025Y00324*
X00251Y00324*
X00252Y00324*
X00253Y00324*
X00254Y00323*
X00255Y00323*
X00256Y00322*
X00257Y00322*
X00257Y00321*
Y00324*
X00262Y00324*
X00265Y00325*
Y00335*
X00263Y00335*
X00262Y00335*
X0026Y00335*
X00259Y00335*
X00258Y00336*
X00257Y00336*
Y00338*
X00257Y00337*
X00256Y00337*
X00256Y00337*
X00256Y00338*
X00255Y00339*
X00255Y0034*
Y00336*
G37*
G36*
X00236Y00339D02*
X00236Y00338D01*
X00235Y00337*
X00234Y00336*
X00233Y00336*
X00232Y00335*
X00231Y00335*
X0023Y00335*
X00228Y00335*
X00226Y00335*
X00224Y00335*
X00219Y00335*
X00218Y00335*
X00217Y00335*
X00217Y00336*
X00216Y00336*
X00216Y00336*
X00216Y0032*
X00216Y0032*
X00217Y00321*
X00217Y00322*
X00218Y00323*
X00219Y00323*
X0022Y00324*
X00221Y00324*
X00223Y00324*
X00224Y00324*
X00226Y00324*
X00236Y00324*
X00236Y0034*
X00236Y00339*
G37*
G36*
X00819Y00264D02*
X00819Y00263D01*
X00818Y00262*
X00818Y00262*
X00818Y00261*
X00817Y0026*
X00817Y00259*
X00816Y00258*
X00814Y00256*
X00823Y00248*
X00823Y00249*
X00825Y0025*
X00826Y00251*
X00827Y00252*
X00828Y00252*
X00828Y00252*
X00829Y00253*
X0083Y00253*
X0083Y00253*
X00819Y00264*
X00819Y00264*
G37*
G36*
X00675Y00169D02*
X00675Y0017D01*
X00676Y0017*
X00676Y0017*
X00677Y00171*
X00678Y00171*
X0068Y00171*
X00683Y00171*
X00687Y00171*
Y00183*
X00685Y00183*
X00678Y00184*
X00677Y00184*
X00676Y00184*
X00676Y00184*
X00675Y00185*
X00675Y00185*
Y00169*
G37*
G36*
X00776Y00114D02*
X00775Y00113D01*
X00775Y00112*
X00774Y00112*
X00773Y00111*
X00772Y00111*
X00772Y00111*
X00771Y00111*
X0077Y00112*
X00769Y00112*
X00768Y00113*
X00769Y0011*
X00768Y0011*
X00766Y0011*
Y001*
X00768Y001*
X0077Y001*
X00771Y00096*
X00771Y00097*
X00772Y00098*
X00773Y00098*
X00773Y00099*
X00774Y00099*
X00775Y001*
X00775Y00099*
X00776Y00099*
X00776Y00099*
Y001*
X00776Y001*
X00777Y001*
X00778Y001*
X0078Y001*
X00778Y0011*
X00777Y0011*
X00776Y0011*
Y00115*
X00776Y00114*
G37*
G36*
X00716Y00052D02*
X00715Y00049D01*
X00715Y00048*
X00715Y00047*
X00715Y00046*
X00714Y00045*
X00714Y00045*
X00713Y00044*
X00713Y00044*
X00728*
X00728Y00044*
X00727Y00045*
X00727Y00045*
X00727Y00046*
X00726Y00047*
X00726Y00048*
X00726Y00049*
X00726Y00051*
X00726Y00054*
X00716*
X00716Y00052*
G37*
G36*
X00797Y00042D02*
X00796Y00042D01*
X00795Y00042*
X00795Y00041*
X00794Y00041*
X00793Y00041*
X00792Y00041*
X00791Y00041*
X00788Y0004*
Y00029*
X0079Y00029*
X00792Y00028*
X00793Y00028*
X00794Y00028*
X00795Y00028*
X00795Y00027*
X00796Y00027*
X00797Y00027*
X00797Y00026*
Y00043*
X00797Y00042*
G37*
G36*
X00762Y00025D02*
X00762Y00026D01*
X00762Y00026*
X00763Y00027*
X00764Y00027*
X00765Y00028*
X00766Y00028*
X00768Y00028*
X00769Y00028*
X00774Y00029*
Y0004*
X00771Y0004*
X00768Y00041*
X00766Y00041*
X00765Y00041*
X00764Y00042*
X00763Y00042*
X00762Y00043*
X00762Y00044*
X00762Y00044*
Y00025*
G37*
G36*
X00589Y00332D02*
X00589Y00329D01*
X00589Y00328*
X00588Y00327*
X00588Y00326*
X00588Y00325*
X00587Y00325*
X00587Y00324*
X00586Y00324*
X00602*
X00601Y00324*
X00601Y00325*
X006Y00325*
X006Y00326*
X006Y00327*
X006Y00328*
X00599Y00329*
X00599Y00331*
X00599Y00334*
X00589*
X00589Y00332*
G37*
G36*
X00553Y00305D02*
X00552Y00305D01*
X00552Y00304*
X00551Y00304*
X00551Y00303*
X0055Y00302*
X0055Y00301*
X0055Y00299*
X0055Y00297*
X0055Y00293*
X00562*
X00562Y00295*
X00562Y00297*
X00562Y00299*
X00562Y00301*
X00563Y00302*
X00564Y00303*
X00564Y00304*
X00565Y00304*
X00566Y00305*
X00567Y00305*
X00553Y00305*
G37*
G36*
X0055Y00289D02*
X00549Y00282D01*
X00549Y00281*
X00549Y0028*
X00549Y0028*
X00548Y00279*
X00548Y00279*
X00563*
X00563Y00279*
X00563Y0028*
X00562Y0028*
X00562Y00281*
X00562Y00282*
X00562Y00283*
X00562Y00287*
X00562Y00291*
X0055*
X0055Y00289*
G37*
G36*
X00548Y0026D02*
X00549Y00259D01*
X00549Y00259*
X00549Y00258*
X00549Y00257*
X00549Y00256*
X0055Y00252*
X0055Y00248*
X00562*
X00562Y0025*
X00562Y00257*
X00562Y00258*
X00562Y00259*
X00563Y00259*
X00563Y0026*
X00563Y0026*
X00548*
X00548Y0026*
G37*
G36*
X0055Y00241D02*
X00549Y00238D01*
X00549Y00237*
X00549Y00236*
X00549Y00235*
X00549Y00235*
X00548Y00234*
X00548Y00233*
X00547Y00233*
X00564*
X00563Y00233*
X00563Y00234*
X00563Y00235*
X00562Y00235*
X00562Y00236*
X00562Y00237*
X00562Y00238*
X00562Y00239*
X00562Y00242*
X0055*
X0055Y00241*
G37*
G36*
X00539Y00189D02*
X00541Y00187D01*
X00543Y00185*
X00544Y00183*
X00545Y00182*
X00545Y00181*
X00546Y0018*
X00546Y00179*
X00545Y00179*
X00545Y00178*
X00556Y00189*
X00555Y00189*
X00555Y00188*
X00554Y00188*
X00553Y00189*
X00552Y00189*
X00551Y0019*
X00549Y00191*
X00548Y00192*
X00545Y00195*
X00539Y00189*
G37*
G36*
X00501Y00156D02*
X00501Y00155D01*
X00501Y00155*
X00501Y00154*
X00501Y00154*
X00501Y00153*
X00501Y00152*
X005Y00152*
X005Y00151*
X00499Y0015*
X00505Y00145*
X00506Y00146*
X00508Y00148*
X00509Y00148*
X00509Y00149*
X0051Y00149*
X00511Y0015*
X00512Y0015*
X00513Y0015*
X00513*
X005Y00157*
X00501Y00156*
G37*
G36*
X00462Y0015D02*
X00465Y0015D01*
X00473Y00148*
X00475Y00147*
X00478Y00145*
X00479Y00145*
X00481Y00144*
X00482Y00143*
X00488Y00147*
X00487Y00149*
X00486Y0015*
X00486Y00151*
X00485Y00153*
X00485Y00155*
X00485Y00157*
X00484Y00159*
X00485Y00161*
X00485Y00163*
X00485Y00166*
X00462Y0015*
G37*
G36*
X00393Y00185D02*
Y00154D01*
X00408Y00139*
X00411Y0014*
X00418Y00138*
X00425Y00134*
X00426Y00132*
X00458*
Y00134*
X00465*
X00466Y00134*
X00466Y00134*
X00475*
X00475Y00134*
X00476Y00135*
Y0014*
X00475Y0014*
X00472Y00141*
X00471Y00142*
X00464Y00143*
X00461Y00144*
X0046Y00144*
X00459Y00145*
X00453Y00147*
X00448Y00151*
X00444Y00157*
X00441Y00163*
X0044Y0017*
X00441Y00176*
X00444Y00182*
X00448Y00188*
X00453Y00192*
X00455Y00192*
X00454Y00197*
X00406*
X00393Y00185*
G37*
G36*
X00481Y00126D02*
X0049D01*
X0049Y00126*
X0049Y00126*
X0049Y00127*
X0049Y00128*
X0049Y00134*
X00482*
X00481Y00126*
G37*
G36*
X00498Y00132D02*
X00497Y00127D01*
X00497Y00126*
X00497Y00126*
X00497Y00126*
X00506*
X00506Y00126*
X00506Y00126*
X00506Y00128*
X00506Y00134*
X00498*
X00498Y00132*
G37*
G36*
X00465Y00125D02*
X00465Y00125D01*
X00465Y00125*
X00464Y00124*
X00464Y00124*
X00463Y00124*
X00462Y00124*
X00461Y00124*
X00458Y00123*
Y00116*
X00459Y00116*
X00461Y00115*
X00462Y00115*
X00463Y00115*
X00464Y00115*
X00464Y00114*
X00465Y00114*
X00465Y00113*
X00466Y00112*
X00466Y00112*
X00466Y00126*
X00465Y00125*
G37*
G54D10*
X00239Y01017D02*
X00156D01*
X00239Y01017D02*
Y01021D01*
X00251Y01032D02*
X00239Y01021D01*
X0074Y00394D02*
X00739Y00395D01*
X0074Y00375D02*
Y00394D01*
X00741Y00375D02*
X0074Y00375D01*
X00828Y00682D02*
Y00917D01*
X00831Y0092D02*
X00828Y00917D01*
X00861Y007D02*
Y00895D01*
X00681Y00965D02*
Y01025D01*
Y01028*
Y01025D02*
X00679Y01023D01*
X00681Y00965D02*
X00675Y0096D01*
X00679Y01023D02*
X00647D01*
X00633Y0101*
X0069Y01038D02*
X00681Y01028D01*
X0069Y01038D02*
Y01075D01*
X00695Y0096D02*
X00675D01*
X00731Y0084D02*
Y00925D01*
X00695Y0096*
X00633Y0101D02*
X00626D01*
X00731Y0084D02*
X00701Y0081D01*
X00814Y01011D02*
X00812Y01013D01*
Y0104*
X0081Y01041*
X00309Y00685D02*
X00261Y00637D01*
X00309Y00685D02*
Y00786D01*
X01011Y0061D02*
X01006Y00605D01*
X01024Y0061D02*
X01011D01*
X01041Y00626D02*
X01024Y0061D01*
X00786Y0056D02*
X00751Y00525D01*
X01003Y00531D02*
Y00555D01*
X00998Y0056*
X00786*
X01003Y00531D02*
X00998Y00526D01*
X01018Y00465D02*
X01016Y00466D01*
X0101Y00495D02*
Y00499D01*
X00998Y00522D02*
Y00526D01*
X01016Y00489D02*
X0101Y00495D01*
X01016Y00466D02*
Y00489D01*
X00998Y00522D02*
X00964Y00487D01*
X00962*
X00955Y0048*
X00946Y00469D02*
X00945D01*
X00942Y00465D02*
Y00466D01*
X00945Y00469D02*
X00942Y00466D01*
X00955Y00478D02*
X00946Y00469D01*
X00955Y00478D02*
Y0048D01*
X00239Y00978D02*
Y01017D01*
Y00978D02*
X00225Y00965D01*
X00201*
X00239Y01017D02*
X00239Y01017D01*
X00251Y01032D02*
Y0108D01*
X00309Y00786D02*
X00281Y00814D01*
X0031Y0055D02*
X00281D01*
X00331Y00595D02*
X00328Y00592D01*
Y00568D02*
Y00592D01*
Y00568D02*
X0031Y0055D01*
X00251Y0058D02*
X00161D01*
X00281Y0055D02*
X00251Y0058D01*
X00143Y00625D02*
X00138Y0063D01*
X00143Y00597D02*
Y00625D01*
X00161Y0058D02*
X00143Y00597D01*
X00208Y00611D02*
X00177D01*
X00176Y0061*
X00213Y00616D02*
X00208Y00611D01*
X00213Y00616D02*
Y0063D01*
X00466Y0125D02*
X00451D01*
X00476Y0124D02*
X00466Y0125D01*
X00291Y0135D02*
X00243Y01397D01*
X00228*
X00226Y014*
Y0142*
X00253Y01447D02*
X00226Y0142D01*
X00253Y01447D02*
Y01457D01*
X00256Y0146D02*
X00253Y01457D01*
X00182Y01456D02*
X00181Y01455D01*
X00248Y01456D02*
X00182D01*
X00252Y0146D02*
X00248Y01456D01*
X00256Y0146D02*
X00252D01*
X00291Y0129D02*
X00256Y01255D01*
X00291Y0129D02*
Y0135D01*
X00259Y01332D02*
Y01341D01*
X00232Y01368*
X00262Y01329D02*
X00259Y01332D01*
X00232Y01368D02*
X00182D01*
X00256Y0146D02*
Y01519D01*
X0025Y01525*
X00374Y01462D02*
X00347Y01435D01*
X00341*
X00391Y01432D02*
Y01445D01*
X00411Y01465D02*
X00391Y01445D01*
X00411Y01465D02*
Y01525D01*
X00374Y01462D02*
Y01478D01*
X00377Y01481D02*
X00374Y01478D01*
X00491Y01665D02*
X00451D01*
X00531D02*
X00493D01*
X00551Y01685D02*
X00531Y01665D01*
X00551Y01685D02*
Y01725D01*
X00609Y01695D02*
X00591D01*
X00626Y01711D02*
Y01725D01*
Y01711D02*
X00609Y01695D01*
X00846Y01D02*
Y0104D01*
X00851Y00995D02*
X00846Y01D01*
X0081Y01041D02*
Y0108D01*
X00876Y00685D02*
X00861Y007D01*
X00701Y0091D02*
D01*
X00695Y0093D02*
X00626D01*
X00701Y00924D02*
X00695Y0093D01*
X00701Y0091D02*
Y00924D01*
X00966Y0064D02*
X00966Y0064D01*
Y00794*
X00966Y00795*
X00961Y0063D02*
X00883D01*
X00966Y00634D02*
X00961Y0063D01*
X00966Y00634D02*
Y0064D01*
X00685Y0077D02*
Y00794D01*
X00701Y0081D02*
X00685Y00794D01*
X01018Y00465D02*
X00976D01*
X01041Y00626D02*
Y0064D01*
X00976Y0034D02*
X00921D01*
X00673Y01416D02*
X00671Y01413D01*
X00675Y01416D02*
X00673D01*
X00692Y01432D02*
X00675Y01416D01*
X00826Y0143D02*
X00694D01*
X00851Y01455D02*
X00826Y0143D01*
X00694D02*
X00691Y01433D01*
X00811Y01454D02*
Y0148D01*
X00691Y01433D02*
Y01465D01*
X00696Y01525D02*
Y01585D01*
X00721Y0161D02*
X00696Y01585D01*
X00766Y01625D02*
X00751Y0161D01*
X00721*
X00766Y0167D02*
X00746Y0169D01*
X00766Y01625D02*
Y0167D01*
X00733Y01662D02*
X00696D01*
X00741Y01655D02*
X00733Y01662D01*
X00558Y0157D02*
D01*
Y01525D02*
Y0157D01*
Y01525D02*
D01*
Y0157D02*
D01*
X00591D02*
X00558D01*
X00528Y01572D02*
Y01592D01*
X00588Y01621D02*
X00567Y016D01*
X00536D02*
X00528Y01592D01*
X00567Y016D02*
X00536D01*
X00588Y01621D02*
Y01635D01*
X00528Y01572D02*
X00525Y0157D01*
X00614Y01675D02*
X00588Y01648D01*
X00639Y01675D02*
X00614D01*
X00588Y01635D02*
Y01648D01*
X00696Y01697D02*
X00662D01*
X00639Y01675*
X00853Y01452D02*
X00851Y01455D01*
X00863Y01452D02*
X00853D01*
X00896Y0142D02*
X00863Y01452D01*
X00896Y0125D02*
Y0142D01*
X00811Y0148D02*
X00811Y0148D01*
X00896Y0125D02*
X00701D01*
X00636Y00525D02*
X00576Y00465D01*
X00239*
X00176Y00526D02*
Y0054D01*
X0018Y00521D02*
X00176Y00526D01*
X00185Y00521D02*
X0018D01*
X00236Y0047D02*
X00185Y00521D01*
X00706Y00525D02*
X00636D01*
X00751D02*
X00706D01*
X00697Y00534D02*
Y0059D01*
X00706Y00525D02*
X00697Y00534D01*
X00733Y00635D02*
X00731Y00632D01*
Y0059D02*
Y00632D01*
X00942Y00465D02*
X00807D01*
X00739Y00396*
Y00395D02*
Y00396D01*
X00721Y00035D02*
X00721Y00035D01*
X00721Y00035D02*
Y00063D01*
X00761Y00103D02*
X00721Y00063D01*
X00266Y0033D02*
X00212D01*
X00628Y01462D02*
X00626Y0146D01*
X00688Y01462D02*
X00628D01*
X00691Y01465D02*
X00688Y01462D01*
X00716Y0138D02*
X00671D01*
X00966Y00795D02*
X00911D01*
X00901Y00805*
X00411Y01005D02*
Y0104D01*
X00377Y01011D02*
Y0104D01*
Y01011D02*
X00371Y01005D01*
X00378Y01085D02*
X00378Y01084D01*
Y0104D02*
Y01084D01*
Y0104D02*
X00377Y0104D01*
X00266Y00934D02*
Y0098D01*
X00271Y00985D02*
X00266Y0098D01*
X00281Y0092D02*
X00266Y00934D01*
X00231Y0093D02*
X00196D01*
X00256Y00905D02*
X00231Y0093D01*
X00291Y00941D02*
Y00945D01*
X00366Y00755D02*
X00298Y00822D01*
X00281Y00814D02*
Y0092D01*
X00298Y00933D02*
X00291Y00941D01*
X00298Y00822D02*
Y00933D01*
X00151Y00929D02*
X00151Y00928D01*
X00195Y00929D02*
X00151D01*
X00196Y0093D02*
X00195Y00929D01*
X00257Y00743D02*
Y00796D01*
Y00743D02*
X00253Y0074D01*
X00443Y00797D02*
X00421D01*
X00451Y00805D02*
X00443Y00797D01*
X00378Y01525D02*
X00377Y01523D01*
Y01481D02*
Y01523D01*
X00182Y01368D02*
X00181Y0137D01*
X00251Y012D02*
Y01246D01*
X00256Y01251D02*
X00251Y01246D01*
X00256Y01251D02*
Y01255D01*
X00516Y0124D02*
X00476D01*
X00846Y0146D02*
Y01525D01*
X00851Y01455D02*
X00846Y0146D01*
X00812Y01525D02*
X00811Y01524D01*
Y0148D02*
Y01524D01*
X00696Y01473D02*
Y01525D01*
Y01473D02*
X00691Y01468D01*
Y01465D02*
Y01468D01*
X00671Y0138D02*
X00626D01*
X00691Y01195D02*
Y0124D01*
X00701Y0125D02*
X00691Y0124D01*
X00961D02*
X00906D01*
X00896Y0125*
X00271Y0166D02*
X00211D01*
X00268Y01702D02*
X00212D01*
X00211Y01703D02*
Y01705D01*
X00212Y01702D02*
X00211Y01703D01*
X00271Y017D02*
X00268Y01702D01*
X00491Y017D02*
X00446D01*
X00446Y017*
X00411Y0164D02*
Y0172D01*
X00426Y01735D02*
X00411Y0172D01*
X00468Y01582D02*
X00411Y0164D01*
X00491Y01455D02*
Y01595D01*
X00468Y01467D02*
X00441Y0144D01*
X00468Y01467D02*
Y01582D01*
X00491Y01455D02*
X00436Y014D01*
X00746Y0169D02*
X00736D01*
X00728Y01697*
X00696*
X00943Y017D02*
X00916D01*
X00965Y01695D02*
X00943D01*
X00941Y01692*
X00975Y01699D02*
Y01705D01*
Y01699D02*
X00974Y01698D01*
X00968*
X00965Y01695*
X00976Y01655D02*
X00916D01*
X00266Y0037D02*
X00217D01*
X00212Y00375*
X00211Y0037D02*
Y00374D01*
X00212Y00375D02*
X00211Y00374D01*
Y00325D02*
Y00329D01*
X00212Y0033D02*
X00211Y00329D01*
X00333Y00597D02*
Y00635D01*
Y00597D02*
X00331Y00595D01*
X00366Y00645D02*
Y00755D01*
X00883Y0063D02*
X00881Y00627D01*
Y0059D02*
Y00627D01*
X00975Y0038D02*
X00921D01*
X00976Y0038D02*
Y00385D01*
Y0038D02*
X00975Y0038D01*
X00771Y00735D02*
Y0113D01*
Y00735D02*
X00736Y007D01*
X00721Y00685*
X00681*
X00621Y00705D02*
Y00706D01*
X00651Y00715D02*
Y00765D01*
X00645Y00709D02*
X00624D01*
X00651Y00715D02*
X00645Y00709D01*
X00624D02*
X00621Y00706D01*
X00731Y0055D02*
Y0059D01*
X00501Y0055D02*
Y0061D01*
X00541Y0067D02*
Y007D01*
X00546Y00705D02*
X00541Y007D01*
X00581Y0067D02*
Y00675D01*
X00586Y0068D02*
Y00705D01*
Y0068D02*
X00581Y00675D01*
X00486Y00835D02*
Y00869D01*
Y00715D02*
Y00835D01*
X00524Y00833D02*
X00487D01*
X00486Y00835*
X00651Y00765D02*
Y00869D01*
X00649Y00766D02*
X00607D01*
X00651Y00765D02*
X00649Y00766D01*
X00645Y00875D02*
X00491D01*
X00651Y00869D02*
X00645Y00875D01*
X00491D02*
X00486Y00869D01*
X00507Y00709D02*
X00491D01*
X00486Y00715*
X0051Y00705D02*
Y00706D01*
X00507Y00709*
X00546Y00705D02*
Y00747D01*
X00526Y00766*
X00607Y00833D02*
X00605D01*
X00576Y0073D02*
X00568Y00737D01*
X0058Y0073D02*
X00576D01*
X00568Y00737D02*
Y00796D01*
X00586Y00724D02*
X0058Y0073D01*
X00605Y00833D02*
X00568Y00796D01*
X00526Y00766D02*
X00524D01*
X00586Y00705D02*
Y00724D01*
X00786Y00107D02*
X00784Y00105D01*
X00763*
X00761Y00103*
X00706Y00365D02*
Y00395D01*
X00594Y00315D02*
Y00354D01*
X00601Y00361D02*
X00594Y00354D01*
X00601Y00361D02*
Y00365D01*
X00706Y00395D02*
Y0044D01*
G54D11*
X00671Y00315D02*
Y0036D01*
X00666Y00365*
G54D16*
X00469Y0012D02*
X00411D01*
X00381Y0015*
X00565Y00499D02*
X00439D01*
X00621Y00555D02*
X00565Y00499D01*
X00581Y00555D02*
X00541Y00515D01*
X00439Y00499D02*
X00426Y00512D01*
X00441Y00519D02*
Y00729D01*
X00541Y00515D02*
X00446D01*
X00441Y00519*
X0047Y00115D02*
Y00119D01*
X00469Y0012*
X00564Y0017D02*
X00524Y0021D01*
X00401D02*
X00381Y0019D01*
X00524Y0021D02*
X00401D01*
X00381Y0015D02*
Y0019D01*
X00466Y00164D02*
Y0017D01*
X00486Y00145D02*
X00466Y00164D01*
X00486Y00115D02*
Y00145D01*
X00336Y01125D02*
X00333Y01121D01*
Y01114D02*
Y01121D01*
X00331Y00839D02*
Y01112D01*
X00333Y01114D02*
X00331Y01112D01*
X00315Y01106D02*
X00301Y0112D01*
Y01125*
X00426Y00722D02*
X00315Y00833D01*
Y01106*
X00441Y00729D02*
X00331Y00839D01*
X00426Y00512D02*
Y00722D01*
X00754Y00743D02*
X00721Y0071D01*
X00754Y00743D02*
Y01108D01*
X00736Y01126D02*
Y0113D01*
X00754Y01108D02*
X00736Y01126D01*
X00721Y0071D02*
X00671D01*
X00656Y00695*
Y00675D02*
Y00695D01*
X00706Y0066D02*
X00671D01*
X00656Y00675*
X00515Y00161D02*
Y0017D01*
Y00161D02*
X00502Y00148D01*
Y00115D02*
Y00148D01*
Y00115D02*
X00501Y00115D01*
G54D20*
X00626Y01725D03*
X00551D03*
X00588Y01635D03*
X00213Y0063D03*
X00138D03*
X00176Y0054D03*
X01041Y0064D03*
X00966D03*
X01003Y0055D03*
G54D45*
X00806Y00035D02*
X00754D01*
X00743Y00177D02*
X00666D01*
X00831Y00265D02*
X00743Y00177D01*
X00556Y0027D02*
Y00308D01*
X00561Y00313D02*
X00556Y00308D01*
X00561Y00313D02*
Y00315D01*
X00556Y00225D02*
Y0027D01*
G54D46*
X00166Y00465D02*
Y00485D01*
X00176Y00495D02*
X00166Y00485D01*
X00206Y00465D02*
X00166D01*
G54D47*
X00564Y0017D03*
G54D48*
X00515Y0017D03*
X00466D03*
X00417D03*
G54D49*
X00966Y00105D03*
X00219Y00104D03*
G54D50*
X00459Y0179D03*
X00321D03*
X00598D03*
X00737D03*
X00876D03*
X00311Y01595D03*
X00376Y0161D03*
X00526Y01495D03*
X00871Y01595D03*
X01021Y0166D03*
Y01705D03*
X00171Y0171D03*
Y01655D03*
Y01515D03*
X01001Y015D03*
X00951D03*
X00136Y00855D03*
X01021Y01025D03*
Y00885D03*
X00751Y0049D03*
X01021Y0033D03*
Y0039D03*
X00376Y0026D03*
X00166Y0033D03*
Y00385D03*
X00426Y0042D03*
X00226Y01163D03*
X00187Y01084D03*
Y00769D03*
X00383Y00061D03*
X00462Y0132D03*
Y01005D03*
X00541Y01163D03*
X00502Y01084D03*
X00541Y00061D03*
X0058Y01242D03*
X0062Y01163D03*
X0058Y01084D03*
X0062Y00061D03*
X00777Y0132D03*
Y00376D03*
X00816Y01399D03*
X00856Y0132D03*
X00816Y00297D03*
X00856Y00218D03*
X00816Y00139D03*
X00935Y01163D03*
Y0069D03*
X01013Y01163D03*
X00974Y01084D03*
X01013Y0069D03*
Y00218D03*
X00191Y01165D03*
X00616Y0013D03*
X00856Y0095D03*
X00831Y0092D03*
X00861Y00895D03*
X00681Y01025D03*
X00814Y01011D03*
X00701Y00865D03*
X00821Y01325D03*
X00401Y01305D03*
X00272Y00698D03*
X00261Y00637D03*
X00601Y00745D03*
X01006Y00605D03*
X00971Y0053D03*
X0101Y00499D03*
X00411Y0012D03*
X00239Y01017D03*
X00296Y00585D03*
X00176Y0061D03*
X00451Y0125D03*
X00262Y01329D03*
X00256Y0146D03*
X00341Y01435D03*
X00391Y01432D03*
X00591Y01695D03*
X00851Y00995D03*
X00701Y0091D03*
Y0081D03*
X00921Y0034D03*
X00811Y01454D03*
X00741Y01655D03*
X00591Y0157D03*
X00581Y00555D03*
X00636Y00525D03*
X00806Y00035D03*
X00716Y00175D03*
X00831Y00265D03*
X00176Y00495D03*
X00266Y0033D03*
X00716Y0138D03*
X00901Y00805D03*
X00371Y01005D03*
X00411D03*
X00271Y00985D03*
X00256Y00905D03*
X00257Y00796D03*
X00451Y00805D03*
X00256Y01255D03*
X00851Y01455D03*
X00691Y01465D03*
X00701Y0125D03*
X00896D03*
X00271Y0166D03*
Y017D03*
X00446D03*
X00451Y01665D03*
X00426Y01735D03*
X00491Y01595D03*
X00441Y0144D03*
X00436Y014D03*
X00746Y0169D03*
X00916Y017D03*
Y01655D03*
X00266Y0037D03*
X00331Y00595D03*
X00291Y00945D03*
X00366Y00645D03*
X00846Y0059D03*
X00881D03*
X00921Y0038D03*
X00876Y00685D03*
X00828Y00682D03*
X00621Y00555D03*
X00336Y01125D03*
X00301D03*
X00736Y0113D03*
X00771Y0113D03*
X00681Y00685D03*
X00706Y0066D03*
X00731Y0055D03*
X00501D03*
X00541Y0067D03*
X00581D03*
X00761Y00103D03*
X00706Y00365D03*
X00666D03*
X00741Y00375D03*
X00556Y00225D03*
X00601Y00365D03*
G54D51*
X00966Y0083D03*
Y00795D03*
X00961Y01275D03*
Y0124D03*
X00246Y00332D03*
Y00365D03*
X00181Y01419D03*
Y01455D03*
Y01336D03*
Y0137D03*
X00226Y01367D03*
Y014D03*
X00246Y01665D03*
Y01698D03*
X00491Y01665D03*
Y017D03*
X00696Y01697D03*
X00696Y01662D03*
X00941Y01692D03*
Y01659D03*
X00626Y01425D03*
X00626Y0146D03*
X00671Y0138D03*
Y01413D03*
X00626Y01346D03*
Y0138D03*
X00516Y01275D03*
Y0124D03*
X00151Y00895D03*
Y00929D03*
X00156Y0098D03*
Y01015D03*
X00201Y00931D03*
Y00965D03*
X00626Y00974D03*
Y0101D03*
Y00896D03*
Y0093D03*
X00671D03*
Y00963D03*
X00421Y00832D03*
Y00797D03*
X00941Y00378D03*
Y00345D03*
X00666Y00142D03*
Y00177D03*
X00786Y00142D03*
Y00107D03*
G54D52*
X0013Y00465D03*
X00166D03*
X00206D03*
X00239D03*
X00378Y01525D03*
X00411D03*
X00376Y0148D03*
X0034D03*
X00286Y01525D03*
X0025D03*
X00731D03*
X00696D03*
X00812D03*
X00846D03*
X00811Y0148D03*
X00775D03*
X00523Y01525D03*
X00558D03*
Y0157D03*
X00525D03*
X00286Y012D03*
X00251D03*
X00377Y0104D03*
X00411D03*
X00378Y01085D03*
X00413D03*
X00286Y0108D03*
X00251D03*
X00726Y01195D03*
X00691D03*
X00812Y0104D03*
X00846D03*
X0081Y01085D03*
X00846D03*
X00726Y01075D03*
X0069D03*
X00288Y0074D03*
X00253D03*
X00333Y00635D03*
X00298D03*
X00586Y00705D03*
X00621D03*
X00546D03*
X0051D03*
X00467Y0061D03*
X00501D03*
X00721Y0077D03*
X00685D03*
X00733Y00635D03*
X00768D03*
X00697Y0059D03*
X00731D03*
X00883Y0063D03*
X00848D03*
X01053Y00465D03*
X01018D03*
X00976D03*
X00942D03*
X00706Y0044D03*
X0067D03*
X00739Y00395D03*
X00706D03*
X00671Y00315D03*
X00637D03*
X00594D03*
X00561D03*
X0052Y0027D03*
X00556D03*
X00721Y00035D03*
X00754D03*
G54D53*
X00185Y0037D03*
X00211D03*
X00185Y00325D03*
X00211D03*
X00185Y01705D03*
X00211D03*
X00185Y0166D03*
X00211D03*
X01001Y01705D03*
X00975D03*
X01001Y01655D03*
X00976D03*
X01001Y0034D03*
X00976D03*
X01001Y00385D03*
X00976D03*
G54D54*
X00524Y00766D03*
X00607D03*
Y00833D03*
X00524D03*
G54D55*
X0047Y00115D03*
X00486D03*
X00501D03*
Y00082D03*
X00486D03*
X0047D03*
M02*