%FSTAX23Y23*%
%MOIN*%
%SFA1B1*%

%IPPOS*%
%ADD10C,0.010000*%
%ADD11C,0.009840*%
%ADD12C,0.019680*%
%ADD13C,0.020000*%
%ADD14C,0.015000*%
%ADD15C,0.008000*%
%ADD16C,0.007870*%
%ADD17C,0.007000*%
%LNusb2can-1*%
%LPD*%
G54D10*
X00629Y01669D02*
D01*
X00629Y01668*
X00629Y01668*
X00629Y01668*
X00629Y01668*
X00629Y01668*
X00629Y01668*
X00629Y01668*
X00629Y01668*
X00629Y01668*
X00629Y01668*
X00629Y01668*
X00629Y01668*
X00629Y01668*
X00629Y01668*
X0063Y01668*
X0063Y01668*
X0063Y01668*
X0063Y01668*
X0063Y01668*
X0063Y01668*
X0063Y01668*
X0063Y01668*
X0063*
X0063Y01668*
X0063Y01668*
X0063Y01668*
X0063Y01668*
X0063Y01668*
X0063Y01668*
X00631Y01668*
X00631Y01668*
X00631Y01668*
X00631Y01668*
X00631Y01668*
X00631Y01668*
X00631Y01668*
X00631Y01668*
X00631Y01668*
X00631Y01668*
X00631Y01668*
X00631Y01668*
X00631Y01668*
X00631Y01668*
X00631Y01668*
X00631Y01669*
X00631Y01669*
X00631Y01669*
X00631Y01669*
X00631Y01669*
X00631Y01669*
X00631Y01669*
X00631Y01669*
X00631Y01669*
X00631Y01669*
X00631Y01669*
X00631Y01669*
X00631Y01669*
X00631Y01669*
X00631Y01669*
X00631Y01669*
X0063Y01669*
X0063Y01669*
X0063Y01669*
X0063Y01669*
X0063Y01669*
X0063Y01669*
X0063Y01669*
X0063*
X0063Y01669*
X0063Y01669*
X0063Y01669*
X0063Y01669*
X0063Y01669*
X0063Y01669*
X0063Y01669*
X00629Y01669*
X00629Y01669*
X00629Y01669*
X00629Y01669*
X00629Y01669*
X00629Y01669*
X00629Y01669*
X00629Y01669*
X00629Y01669*
X00629Y01669*
X00629Y01669*
X00629Y01669*
X00629Y01669*
X00629Y01669*
X00629Y01669*
X00649Y01613D02*
D01*
X00649Y01612*
X00649Y01612*
X00649Y01612*
X00649Y01612*
X00649Y01611*
X00649Y01611*
X00649Y01611*
X00649Y01611*
X00649Y01611*
X00649Y01611*
X00649Y0161*
X0065Y0161*
X0065Y0161*
X0065Y0161*
X0065Y0161*
X0065Y0161*
X0065Y0161*
X00651Y0161*
X00651Y0161*
X00651Y0161*
X00651Y0161*
X00651Y0161*
X00652*
X00652Y0161*
X00652Y0161*
X00652Y0161*
X00653Y0161*
X00653Y0161*
X00653Y0161*
X00653Y0161*
X00653Y0161*
X00653Y0161*
X00654Y0161*
X00654Y0161*
X00654Y01611*
X00654Y01611*
X00654Y01611*
X00654Y01611*
X00654Y01611*
X00654Y01611*
X00654Y01612*
X00655Y01612*
X00655Y01612*
X00655Y01612*
X00655Y01613*
X00655Y01613*
X00655Y01613*
X00655Y01613*
X00654Y01613*
X00654Y01614*
X00654Y01614*
X00654Y01614*
X00654Y01614*
X00654Y01614*
X00654Y01614*
X00654Y01615*
X00654Y01615*
X00653Y01615*
X00653Y01615*
X00653Y01615*
X00653Y01615*
X00653Y01615*
X00653Y01615*
X00652Y01615*
X00652Y01615*
X00652Y01615*
X00652Y01615*
X00651*
X00651Y01615*
X00651Y01615*
X00651Y01615*
X00651Y01615*
X0065Y01615*
X0065Y01615*
X0065Y01615*
X0065Y01615*
X0065Y01615*
X0065Y01615*
X00649Y01615*
X00649Y01614*
X00649Y01614*
X00649Y01614*
X00649Y01614*
X00649Y01614*
X00649Y01614*
X00649Y01613*
X00649Y01613*
X00649Y01613*
X00649Y01613*
X00649Y01613*
X01042Y00568D02*
D01*
X01042Y00568*
X01042Y00568*
X01042Y00568*
X01042Y00568*
X01042Y00568*
X01042Y00568*
X01042Y00568*
X01042Y00568*
X01042Y00568*
X01042Y00568*
X01042Y00568*
X01042Y00568*
X01042Y00568*
X01042Y00568*
X01042Y00568*
X01042Y00567*
X01042Y00567*
X01042Y00567*
X01042Y00567*
X01042Y00567*
X01042Y00567*
X01043Y00567*
X01043*
X01043Y00567*
X01043Y00567*
X01043Y00567*
X01043Y00567*
X01043Y00567*
X01043Y00567*
X01043Y00568*
X01043Y00568*
X01043Y00568*
X01043Y00568*
X01043Y00568*
X01043Y00568*
X01043Y00568*
X01043Y00568*
X01043Y00568*
X01044Y00568*
X01044Y00568*
X01044Y00568*
X01044Y00568*
X01044Y00568*
X01044Y00568*
X01044Y00568*
X01044Y00568*
X01044Y00569*
X01044Y00569*
X01044Y00569*
X01044Y00569*
X01044Y00569*
X01043Y00569*
X01043Y00569*
X01043Y00569*
X01043Y00569*
X01043Y00569*
X01043Y00569*
X01043Y00569*
X01043Y00569*
X01043Y00569*
X01043Y00569*
X01043Y00569*
X01043Y00569*
X01043Y00569*
X01043Y00569*
X01043Y00569*
X01043Y00569*
X01043*
X01042Y00569*
X01042Y00569*
X01042Y00569*
X01042Y00569*
X01042Y00569*
X01042Y00569*
X01042Y00569*
X01042Y00569*
X01042Y00569*
X01042Y00569*
X01042Y00569*
X01042Y00569*
X01042Y00569*
X01042Y00569*
X01042Y00569*
X01042Y00569*
X01042Y00569*
X01042Y00569*
X01042Y00569*
X01042Y00569*
X01042Y00568*
X01042Y00568*
X01061Y00512D02*
D01*
X01061Y00512*
X01061Y00512*
X01061Y00512*
X01061Y00512*
X01061Y00511*
X01061Y00511*
X01062Y00511*
X01062Y00511*
X01062Y00511*
X01062Y0051*
X01062Y0051*
X01062Y0051*
X01062Y0051*
X01063Y0051*
X01063Y0051*
X01063Y0051*
X01063Y0051*
X01063Y0051*
X01063Y00509*
X01064Y00509*
X01064Y00509*
X01064Y00509*
X01064*
X01065Y00509*
X01065Y00509*
X01065Y00509*
X01065Y0051*
X01065Y0051*
X01066Y0051*
X01066Y0051*
X01066Y0051*
X01066Y0051*
X01066Y0051*
X01066Y0051*
X01066Y0051*
X01067Y00511*
X01067Y00511*
X01067Y00511*
X01067Y00511*
X01067Y00511*
X01067Y00512*
X01067Y00512*
X01067Y00512*
X01067Y00512*
X01067Y00512*
X01067Y00513*
X01067Y00513*
X01067Y00513*
X01067Y00513*
X01067Y00513*
X01067Y00514*
X01067Y00514*
X01067Y00514*
X01067Y00514*
X01066Y00514*
X01066Y00514*
X01066Y00515*
X01066Y00515*
X01066Y00515*
X01066Y00515*
X01066Y00515*
X01065Y00515*
X01065Y00515*
X01065Y00515*
X01065Y00515*
X01065Y00515*
X01064Y00515*
X01064*
X01064Y00515*
X01064Y00515*
X01063Y00515*
X01063Y00515*
X01063Y00515*
X01063Y00515*
X01063Y00515*
X01063Y00515*
X01062Y00515*
X01062Y00515*
X01062Y00514*
X01062Y00514*
X01062Y00514*
X01062Y00514*
X01062Y00514*
X01061Y00514*
X01061Y00513*
X01061Y00513*
X01061Y00513*
X01061Y00513*
X01061Y00513*
X01061Y00512*
X00217Y00569D02*
D01*
X00217Y00569*
X00217Y00568*
X00217Y00568*
X00217Y00568*
X00217Y00568*
X00217Y00568*
X00217Y00568*
X00217Y00568*
X00217Y00568*
X00217Y00568*
X00217Y00568*
X00217Y00568*
X00217Y00568*
X00217Y00568*
X00217Y00568*
X00217Y00568*
X00217Y00568*
X00217Y00568*
X00217Y00568*
X00217Y00568*
X00217Y00568*
X00218Y00568*
X00218*
X00218Y00568*
X00218Y00568*
X00218Y00568*
X00218Y00568*
X00218Y00568*
X00218Y00568*
X00218Y00568*
X00218Y00568*
X00218Y00568*
X00218Y00568*
X00218Y00568*
X00218Y00568*
X00218Y00568*
X00218Y00568*
X00218Y00568*
X00219Y00568*
X00219Y00568*
X00219Y00568*
X00219Y00568*
X00219Y00568*
X00219Y00569*
X00219Y00569*
X00219Y00569*
X00219Y00569*
X00219Y00569*
X00219Y00569*
X00219Y00569*
X00219Y00569*
X00218Y00569*
X00218Y00569*
X00218Y00569*
X00218Y00569*
X00218Y00569*
X00218Y00569*
X00218Y00569*
X00218Y00569*
X00218Y00569*
X00218Y0057*
X00218Y0057*
X00218Y0057*
X00218Y0057*
X00218Y0057*
X00218Y0057*
X00218Y0057*
X00218*
X00217Y0057*
X00217Y0057*
X00217Y0057*
X00217Y0057*
X00217Y0057*
X00217Y0057*
X00217Y00569*
X00217Y00569*
X00217Y00569*
X00217Y00569*
X00217Y00569*
X00217Y00569*
X00217Y00569*
X00217Y00569*
X00217Y00569*
X00217Y00569*
X00217Y00569*
X00217Y00569*
X00217Y00569*
X00217Y00569*
X00217Y00569*
X00217Y00569*
X00236Y00513D02*
D01*
X00236Y00512*
X00236Y00512*
X00236Y00512*
X00236Y00512*
X00236Y00512*
X00236Y00511*
X00237Y00511*
X00237Y00511*
X00237Y00511*
X00237Y00511*
X00237Y00511*
X00237Y0051*
X00237Y0051*
X00238Y0051*
X00238Y0051*
X00238Y0051*
X00238Y0051*
X00238Y0051*
X00238Y0051*
X00239Y0051*
X00239Y0051*
X00239Y0051*
X00239*
X0024Y0051*
X0024Y0051*
X0024Y0051*
X0024Y0051*
X0024Y0051*
X00241Y0051*
X00241Y0051*
X00241Y0051*
X00241Y0051*
X00241Y0051*
X00241Y00511*
X00241Y00511*
X00242Y00511*
X00242Y00511*
X00242Y00511*
X00242Y00511*
X00242Y00512*
X00242Y00512*
X00242Y00512*
X00242Y00512*
X00242Y00512*
X00242Y00513*
X00242Y00513*
X00242Y00513*
X00242Y00513*
X00242Y00513*
X00242Y00514*
X00242Y00514*
X00242Y00514*
X00242Y00514*
X00242Y00514*
X00241Y00515*
X00241Y00515*
X00241Y00515*
X00241Y00515*
X00241Y00515*
X00241Y00515*
X00241Y00515*
X0024Y00515*
X0024Y00515*
X0024Y00516*
X0024Y00516*
X0024Y00516*
X00239Y00516*
X00239*
X00239Y00516*
X00239Y00516*
X00238Y00516*
X00238Y00515*
X00238Y00515*
X00238Y00515*
X00238Y00515*
X00238Y00515*
X00237Y00515*
X00237Y00515*
X00237Y00515*
X00237Y00515*
X00237Y00514*
X00237Y00514*
X00237Y00514*
X00236Y00514*
X00236Y00514*
X00236Y00513*
X00236Y00513*
X00236Y00513*
X00236Y00513*
X00236Y00513*
X00719Y001D02*
D01*
X00719Y001*
X00719Y001*
X00719Y001*
X00719Y001*
X00719Y001*
X00719Y001*
X00719Y001*
X00719Y001*
X00719Y001*
X00719Y00099*
X00719Y00099*
X00719Y00099*
X00719Y00099*
X00719Y00099*
X00719Y00099*
X00719Y00099*
X00719Y00099*
X00719Y00099*
X00719Y00099*
X00719Y00099*
X00719Y00099*
X0072Y00099*
X0072*
X0072Y00099*
X0072Y00099*
X0072Y00099*
X0072Y00099*
X0072Y00099*
X0072Y00099*
X0072Y00099*
X0072Y00099*
X0072Y00099*
X0072Y00099*
X0072Y00099*
X0072Y00099*
X0072Y001*
X0072Y001*
X0072Y001*
X00721Y001*
X00721Y001*
X00721Y001*
X00721Y001*
X00721Y001*
X00721Y001*
X00721Y001*
X00721Y001*
X00721Y001*
X00721Y001*
X00721Y001*
X00721Y001*
X00721Y00101*
X0072Y00101*
X0072Y00101*
X0072Y00101*
X0072Y00101*
X0072Y00101*
X0072Y00101*
X0072Y00101*
X0072Y00101*
X0072Y00101*
X0072Y00101*
X0072Y00101*
X0072Y00101*
X0072Y00101*
X0072Y00101*
X0072Y00101*
X0072Y00101*
X0072*
X00719Y00101*
X00719Y00101*
X00719Y00101*
X00719Y00101*
X00719Y00101*
X00719Y00101*
X00719Y00101*
X00719Y00101*
X00719Y00101*
X00719Y00101*
X00719Y00101*
X00719Y00101*
X00719Y00101*
X00719Y00101*
X00719Y00101*
X00719Y00101*
X00719Y001*
X00719Y001*
X00719Y001*
X00719Y001*
X00719Y001*
X00719Y001*
X00661Y00079D02*
D01*
X00661Y00078*
X00661Y00078*
X00661Y00078*
X00661Y00078*
X00661Y00077*
X00661Y00077*
X00661Y00077*
X00661Y00077*
X00661Y00077*
X00661Y00077*
X00661Y00076*
X00662Y00076*
X00662Y00076*
X00662Y00076*
X00662Y00076*
X00662Y00076*
X00662Y00076*
X00663Y00076*
X00663Y00076*
X00663Y00076*
X00663Y00076*
X00663Y00076*
X00664*
X00664Y00076*
X00664Y00076*
X00664Y00076*
X00665Y00076*
X00665Y00076*
X00665Y00076*
X00665Y00076*
X00665Y00076*
X00665Y00076*
X00666Y00076*
X00666Y00076*
X00666Y00077*
X00666Y00077*
X00666Y00077*
X00666Y00077*
X00666Y00077*
X00666Y00077*
X00666Y00078*
X00667Y00078*
X00667Y00078*
X00667Y00078*
X00667Y00079*
X00667Y00079*
X00667Y00079*
X00667Y00079*
X00666Y00079*
X00666Y0008*
X00666Y0008*
X00666Y0008*
X00666Y0008*
X00666Y0008*
X00666Y0008*
X00666Y00081*
X00666Y00081*
X00665Y00081*
X00665Y00081*
X00665Y00081*
X00665Y00081*
X00665Y00081*
X00665Y00081*
X00664Y00081*
X00664Y00081*
X00664Y00081*
X00664Y00081*
X00663*
X00663Y00081*
X00663Y00081*
X00663Y00081*
X00663Y00081*
X00662Y00081*
X00662Y00081*
X00662Y00081*
X00662Y00081*
X00662Y00081*
X00662Y00081*
X00661Y00081*
X00661Y0008*
X00661Y0008*
X00661Y0008*
X00661Y0008*
X00661Y0008*
X00661Y0008*
X00661Y00079*
X00661Y00079*
X00661Y00079*
X00661Y00079*
X00661Y00079*
X00471Y0146D02*
X00251D01*
Y0124D02*
Y0146D01*
X00471Y0124D02*
X00251D01*
X00471D02*
Y0146D01*
X00911D02*
X00691D01*
Y0124D02*
Y0146D01*
X00911Y0124D02*
X00691D01*
X00911D02*
Y0146D01*
X00471Y01015D02*
X00251D01*
Y00795D02*
Y01015D01*
X00471Y00795D02*
X00251D01*
X00471D02*
Y01015D01*
X00911D02*
X00691D01*
Y00795D02*
Y01015D01*
X00911Y00795D02*
X00691D01*
X00911D02*
Y01015D01*
G54D11*
X00496Y01745D02*
D01*
X00496Y01744*
X00496Y01744*
X00496Y01743*
X00496Y01743*
X00496Y01743*
X00496Y01742*
X00496Y01742*
X00496Y01742*
X00497Y01742*
X00497Y01741*
X00497Y01741*
X00497Y01741*
X00498Y01741*
X00498Y0174*
X00498Y0174*
X00498Y0174*
X00499Y0174*
X00499Y0174*
X00499Y0174*
X005Y0174*
X005Y0174*
X005Y0174*
X00501*
X00501Y0174*
X00501Y0174*
X00502Y0174*
X00502Y0174*
X00502Y0174*
X00503Y0174*
X00503Y0174*
X00503Y0174*
X00504Y01741*
X00504Y01741*
X00504Y01741*
X00504Y01741*
X00505Y01742*
X00505Y01742*
X00505Y01742*
X00505Y01742*
X00505Y01743*
X00505Y01743*
X00505Y01743*
X00505Y01744*
X00506Y01744*
X00506Y01745*
X00506Y01745*
X00505Y01745*
X00505Y01746*
X00505Y01746*
X00505Y01746*
X00505Y01747*
X00505Y01747*
X00505Y01747*
X00505Y01747*
X00504Y01748*
X00504Y01748*
X00504Y01748*
X00504Y01748*
X00503Y01749*
X00503Y01749*
X00503Y01749*
X00502Y01749*
X00502Y01749*
X00502Y01749*
X00501Y01749*
X00501Y01749*
X00501Y01749*
X005*
X005Y01749*
X005Y01749*
X00499Y01749*
X00499Y01749*
X00499Y01749*
X00498Y01749*
X00498Y01749*
X00498Y01749*
X00498Y01748*
X00497Y01748*
X00497Y01748*
X00497Y01748*
X00497Y01747*
X00496Y01747*
X00496Y01747*
X00496Y01747*
X00496Y01746*
X00496Y01746*
X00496Y01746*
X00496Y01745*
X00496Y01745*
X00496Y01745*
X00681Y01615D02*
D01*
X00681Y01614*
X00681Y01614*
X00681Y01613*
X00681Y01613*
X00681Y01613*
X00681Y01612*
X00681Y01612*
X00681Y01612*
X00682Y01612*
X00682Y01611*
X00682Y01611*
X00682Y01611*
X00683Y01611*
X00683Y0161*
X00683Y0161*
X00683Y0161*
X00684Y0161*
X00684Y0161*
X00684Y0161*
X00685Y0161*
X00685Y0161*
X00685Y0161*
X00686*
X00686Y0161*
X00686Y0161*
X00687Y0161*
X00687Y0161*
X00687Y0161*
X00688Y0161*
X00688Y0161*
X00688Y0161*
X00689Y01611*
X00689Y01611*
X00689Y01611*
X00689Y01611*
X0069Y01612*
X0069Y01612*
X0069Y01612*
X0069Y01612*
X0069Y01613*
X0069Y01613*
X0069Y01613*
X0069Y01614*
X00691Y01614*
X00691Y01615*
X00691Y01615*
X0069Y01615*
X0069Y01616*
X0069Y01616*
X0069Y01616*
X0069Y01617*
X0069Y01617*
X0069Y01617*
X0069Y01617*
X00689Y01618*
X00689Y01618*
X00689Y01618*
X00689Y01618*
X00688Y01619*
X00688Y01619*
X00688Y01619*
X00687Y01619*
X00687Y01619*
X00687Y01619*
X00686Y01619*
X00686Y01619*
X00686Y01619*
X00685*
X00685Y01619*
X00685Y01619*
X00684Y01619*
X00684Y01619*
X00684Y01619*
X00683Y01619*
X00683Y01619*
X00683Y01619*
X00683Y01618*
X00682Y01618*
X00682Y01618*
X00682Y01618*
X00682Y01617*
X00681Y01617*
X00681Y01617*
X00681Y01617*
X00681Y01616*
X00681Y01616*
X00681Y01616*
X00681Y01615*
X00681Y01615*
X00681Y01615*
X00796Y00645D02*
D01*
X00796Y00644*
X00796Y00644*
X00796Y00643*
X00796Y00643*
X00796Y00643*
X00796Y00642*
X00796Y00642*
X00796Y00642*
X00797Y00642*
X00797Y00641*
X00797Y00641*
X00797Y00641*
X00798Y00641*
X00798Y0064*
X00798Y0064*
X00798Y0064*
X00799Y0064*
X00799Y0064*
X00799Y0064*
X008Y0064*
X008Y0064*
X008Y0064*
X00801*
X00801Y0064*
X00801Y0064*
X00802Y0064*
X00802Y0064*
X00802Y0064*
X00803Y0064*
X00803Y0064*
X00803Y0064*
X00804Y00641*
X00804Y00641*
X00804Y00641*
X00804Y00641*
X00805Y00642*
X00805Y00642*
X00805Y00642*
X00805Y00642*
X00805Y00643*
X00805Y00643*
X00805Y00643*
X00805Y00644*
X00806Y00644*
X00806Y00645*
X00806Y00645*
X00805Y00645*
X00805Y00646*
X00805Y00646*
X00805Y00646*
X00805Y00647*
X00805Y00647*
X00805Y00647*
X00805Y00647*
X00804Y00648*
X00804Y00648*
X00804Y00648*
X00804Y00648*
X00803Y00649*
X00803Y00649*
X00803Y00649*
X00802Y00649*
X00802Y00649*
X00802Y00649*
X00801Y00649*
X00801Y00649*
X00801Y00649*
X008*
X008Y00649*
X008Y00649*
X00799Y00649*
X00799Y00649*
X00799Y00649*
X00798Y00649*
X00798Y00649*
X00798Y00649*
X00798Y00648*
X00797Y00648*
X00797Y00648*
X00797Y00648*
X00797Y00647*
X00796Y00647*
X00796Y00647*
X00796Y00647*
X00796Y00646*
X00796Y00646*
X00796Y00646*
X00796Y00645*
X00796Y00645*
X00796Y00645*
X00246D02*
D01*
X00246Y00644*
X00246Y00644*
X00246Y00643*
X00246Y00643*
X00246Y00643*
X00246Y00642*
X00246Y00642*
X00246Y00642*
X00247Y00642*
X00247Y00641*
X00247Y00641*
X00247Y00641*
X00248Y00641*
X00248Y0064*
X00248Y0064*
X00248Y0064*
X00249Y0064*
X00249Y0064*
X00249Y0064*
X0025Y0064*
X0025Y0064*
X0025Y0064*
X00251*
X00251Y0064*
X00251Y0064*
X00252Y0064*
X00252Y0064*
X00252Y0064*
X00253Y0064*
X00253Y0064*
X00253Y0064*
X00254Y00641*
X00254Y00641*
X00254Y00641*
X00254Y00641*
X00255Y00642*
X00255Y00642*
X00255Y00642*
X00255Y00642*
X00255Y00643*
X00255Y00643*
X00255Y00643*
X00255Y00644*
X00256Y00644*
X00256Y00645*
X00256Y00645*
X00255Y00645*
X00255Y00646*
X00255Y00646*
X00255Y00646*
X00255Y00647*
X00255Y00647*
X00255Y00647*
X00255Y00647*
X00254Y00648*
X00254Y00648*
X00254Y00648*
X00254Y00648*
X00253Y00649*
X00253Y00649*
X00253Y00649*
X00252Y00649*
X00252Y00649*
X00252Y00649*
X00251Y00649*
X00251Y00649*
X00251Y00649*
X0025*
X0025Y00649*
X0025Y00649*
X00249Y00649*
X00249Y00649*
X00249Y00649*
X00248Y00649*
X00248Y00649*
X00248Y00649*
X00248Y00648*
X00247Y00648*
X00247Y00648*
X00247Y00648*
X00247Y00647*
X00246Y00647*
X00246Y00647*
X00246Y00647*
X00246Y00646*
X00246Y00646*
X00246Y00646*
X00246Y00645*
X00246Y00645*
X00246Y00645*
G54D12*
X00281Y0142D02*
D01*
X00281Y01419*
X00281Y01418*
X00281Y01417*
X00281Y01417*
X00281Y01416*
X00282Y01415*
X00282Y01415*
X00282Y01414*
X00283Y01414*
X00283Y01413*
X00284Y01413*
X00284Y01412*
X00285Y01412*
X00285Y01411*
X00286Y01411*
X00286Y01411*
X00287Y0141*
X00288Y0141*
X00288Y0141*
X00289Y0141*
X0029Y0141*
X0029Y0141*
X00291*
X00292Y0141*
X00292Y0141*
X00293Y0141*
X00294Y0141*
X00294Y0141*
X00295Y01411*
X00296Y01411*
X00296Y01411*
X00297Y01412*
X00297Y01412*
X00298Y01413*
X00298Y01413*
X00299Y01414*
X00299Y01414*
X00299Y01415*
X003Y01415*
X003Y01416*
X003Y01417*
X003Y01417*
X003Y01418*
X003Y01419*
X003Y0142*
X003Y0142*
X003Y01421*
X003Y01422*
X003Y01422*
X003Y01423*
X003Y01424*
X00299Y01424*
X00299Y01425*
X00299Y01425*
X00298Y01426*
X00298Y01426*
X00297Y01427*
X00297Y01427*
X00296Y01428*
X00296Y01428*
X00295Y01428*
X00294Y01429*
X00294Y01429*
X00293Y01429*
X00292Y01429*
X00292Y01429*
X00291Y01429*
X0029*
X0029Y01429*
X00289Y01429*
X00288Y01429*
X00288Y01429*
X00287Y01429*
X00286Y01428*
X00286Y01428*
X00285Y01428*
X00285Y01427*
X00284Y01427*
X00284Y01426*
X00283Y01426*
X00283Y01425*
X00282Y01425*
X00282Y01424*
X00282Y01424*
X00281Y01423*
X00281Y01422*
X00281Y01422*
X00281Y01421*
X00281Y0142*
X00281Y0142*
X00721D02*
D01*
X00721Y01419*
X00721Y01418*
X00721Y01417*
X00721Y01417*
X00721Y01416*
X00722Y01415*
X00722Y01415*
X00722Y01414*
X00723Y01414*
X00723Y01413*
X00724Y01413*
X00724Y01412*
X00725Y01412*
X00725Y01411*
X00726Y01411*
X00726Y01411*
X00727Y0141*
X00728Y0141*
X00728Y0141*
X00729Y0141*
X0073Y0141*
X0073Y0141*
X00731*
X00732Y0141*
X00732Y0141*
X00733Y0141*
X00734Y0141*
X00734Y0141*
X00735Y01411*
X00736Y01411*
X00736Y01411*
X00737Y01412*
X00737Y01412*
X00738Y01413*
X00738Y01413*
X00739Y01414*
X00739Y01414*
X00739Y01415*
X0074Y01415*
X0074Y01416*
X0074Y01417*
X0074Y01417*
X0074Y01418*
X0074Y01419*
X0074Y0142*
X0074Y0142*
X0074Y01421*
X0074Y01422*
X0074Y01422*
X0074Y01423*
X0074Y01424*
X00739Y01424*
X00739Y01425*
X00739Y01425*
X00738Y01426*
X00738Y01426*
X00737Y01427*
X00737Y01427*
X00736Y01428*
X00736Y01428*
X00735Y01428*
X00734Y01429*
X00734Y01429*
X00733Y01429*
X00732Y01429*
X00732Y01429*
X00731Y01429*
X0073*
X0073Y01429*
X00729Y01429*
X00728Y01429*
X00728Y01429*
X00727Y01429*
X00726Y01428*
X00726Y01428*
X00725Y01428*
X00725Y01427*
X00724Y01427*
X00724Y01426*
X00723Y01426*
X00723Y01425*
X00722Y01425*
X00722Y01424*
X00722Y01424*
X00721Y01423*
X00721Y01422*
X00721Y01422*
X00721Y01421*
X00721Y0142*
X00721Y0142*
X00281Y00975D02*
D01*
X00281Y00974*
X00281Y00973*
X00281Y00972*
X00281Y00972*
X00281Y00971*
X00282Y0097*
X00282Y0097*
X00282Y00969*
X00283Y00969*
X00283Y00968*
X00284Y00968*
X00284Y00967*
X00285Y00967*
X00285Y00966*
X00286Y00966*
X00286Y00966*
X00287Y00965*
X00288Y00965*
X00288Y00965*
X00289Y00965*
X0029Y00965*
X0029Y00965*
X00291*
X00292Y00965*
X00292Y00965*
X00293Y00965*
X00294Y00965*
X00294Y00965*
X00295Y00966*
X00296Y00966*
X00296Y00966*
X00297Y00967*
X00297Y00967*
X00298Y00968*
X00298Y00968*
X00299Y00969*
X00299Y00969*
X00299Y0097*
X003Y0097*
X003Y00971*
X003Y00972*
X003Y00972*
X003Y00973*
X003Y00974*
X003Y00975*
X003Y00975*
X003Y00976*
X003Y00977*
X003Y00977*
X003Y00978*
X003Y00979*
X00299Y00979*
X00299Y0098*
X00299Y0098*
X00298Y00981*
X00298Y00981*
X00297Y00982*
X00297Y00982*
X00296Y00983*
X00296Y00983*
X00295Y00983*
X00294Y00984*
X00294Y00984*
X00293Y00984*
X00292Y00984*
X00292Y00984*
X00291Y00984*
X0029*
X0029Y00984*
X00289Y00984*
X00288Y00984*
X00288Y00984*
X00287Y00984*
X00286Y00983*
X00286Y00983*
X00285Y00983*
X00285Y00982*
X00284Y00982*
X00284Y00981*
X00283Y00981*
X00283Y0098*
X00282Y0098*
X00282Y00979*
X00282Y00979*
X00281Y00978*
X00281Y00977*
X00281Y00977*
X00281Y00976*
X00281Y00975*
X00281Y00975*
X00721D02*
D01*
X00721Y00974*
X00721Y00973*
X00721Y00972*
X00721Y00972*
X00721Y00971*
X00722Y0097*
X00722Y0097*
X00722Y00969*
X00723Y00969*
X00723Y00968*
X00724Y00968*
X00724Y00967*
X00725Y00967*
X00725Y00966*
X00726Y00966*
X00726Y00966*
X00727Y00965*
X00728Y00965*
X00728Y00965*
X00729Y00965*
X0073Y00965*
X0073Y00965*
X00731*
X00732Y00965*
X00732Y00965*
X00733Y00965*
X00734Y00965*
X00734Y00965*
X00735Y00966*
X00736Y00966*
X00736Y00966*
X00737Y00967*
X00737Y00967*
X00738Y00968*
X00738Y00968*
X00739Y00969*
X00739Y00969*
X00739Y0097*
X0074Y0097*
X0074Y00971*
X0074Y00972*
X0074Y00972*
X0074Y00973*
X0074Y00974*
X0074Y00975*
X0074Y00975*
X0074Y00976*
X0074Y00977*
X0074Y00977*
X0074Y00978*
X0074Y00979*
X00739Y00979*
X00739Y0098*
X00739Y0098*
X00738Y00981*
X00738Y00981*
X00737Y00982*
X00737Y00982*
X00736Y00983*
X00736Y00983*
X00735Y00983*
X00734Y00984*
X00734Y00984*
X00733Y00984*
X00732Y00984*
X00732Y00984*
X00731Y00984*
X0073*
X0073Y00984*
X00729Y00984*
X00728Y00984*
X00728Y00984*
X00727Y00984*
X00726Y00983*
X00726Y00983*
X00725Y00983*
X00725Y00982*
X00724Y00982*
X00724Y00981*
X00723Y00981*
X00723Y0098*
X00722Y0098*
X00722Y00979*
X00722Y00979*
X00721Y00978*
X00721Y00977*
X00721Y00977*
X00721Y00976*
X00721Y00975*
X00721Y00975*
G54D13*
X00206Y01525D02*
D01*
X00206Y01524*
X00206Y01523*
X00206Y01522*
X00206Y01522*
X00206Y01521*
X00207Y0152*
X00207Y0152*
X00207Y01519*
X00208Y01519*
X00208Y01518*
X00209Y01518*
X00209Y01517*
X0021Y01517*
X0021Y01516*
X00211Y01516*
X00211Y01516*
X00212Y01515*
X00213Y01515*
X00213Y01515*
X00214Y01515*
X00215Y01515*
X00215Y01515*
X00216*
X00217Y01515*
X00217Y01515*
X00218Y01515*
X00219Y01515*
X00219Y01515*
X0022Y01516*
X00221Y01516*
X00221Y01516*
X00222Y01517*
X00222Y01517*
X00223Y01518*
X00223Y01518*
X00224Y01519*
X00224Y01519*
X00224Y0152*
X00225Y0152*
X00225Y01521*
X00225Y01522*
X00225Y01522*
X00225Y01523*
X00225Y01524*
X00225Y01525*
X00225Y01525*
X00225Y01526*
X00225Y01527*
X00225Y01527*
X00225Y01528*
X00225Y01529*
X00224Y01529*
X00224Y0153*
X00224Y0153*
X00223Y01531*
X00223Y01531*
X00222Y01532*
X00222Y01532*
X00221Y01533*
X00221Y01533*
X0022Y01533*
X00219Y01534*
X00219Y01534*
X00218Y01534*
X00217Y01534*
X00217Y01534*
X00216Y01534*
X00215*
X00215Y01534*
X00214Y01534*
X00213Y01534*
X00213Y01534*
X00212Y01534*
X00211Y01533*
X00211Y01533*
X0021Y01533*
X0021Y01532*
X00209Y01532*
X00209Y01531*
X00208Y01531*
X00208Y0153*
X00207Y0153*
X00207Y01529*
X00207Y01529*
X00206Y01528*
X00206Y01527*
X00206Y01527*
X00206Y01526*
X00206Y01525*
X00206Y01525*
X00646D02*
D01*
X00646Y01524*
X00646Y01523*
X00646Y01522*
X00646Y01522*
X00646Y01521*
X00647Y0152*
X00647Y0152*
X00647Y01519*
X00648Y01519*
X00648Y01518*
X00649Y01518*
X00649Y01517*
X0065Y01517*
X0065Y01516*
X00651Y01516*
X00651Y01516*
X00652Y01515*
X00653Y01515*
X00653Y01515*
X00654Y01515*
X00655Y01515*
X00655Y01515*
X00656*
X00657Y01515*
X00657Y01515*
X00658Y01515*
X00659Y01515*
X00659Y01515*
X0066Y01516*
X00661Y01516*
X00661Y01516*
X00662Y01517*
X00662Y01517*
X00663Y01518*
X00663Y01518*
X00664Y01519*
X00664Y01519*
X00664Y0152*
X00665Y0152*
X00665Y01521*
X00665Y01522*
X00665Y01522*
X00665Y01523*
X00665Y01524*
X00665Y01525*
X00665Y01525*
X00665Y01526*
X00665Y01527*
X00665Y01527*
X00665Y01528*
X00665Y01529*
X00664Y01529*
X00664Y0153*
X00664Y0153*
X00663Y01531*
X00663Y01531*
X00662Y01532*
X00662Y01532*
X00661Y01533*
X00661Y01533*
X0066Y01533*
X00659Y01534*
X00659Y01534*
X00658Y01534*
X00657Y01534*
X00657Y01534*
X00656Y01534*
X00655*
X00655Y01534*
X00654Y01534*
X00653Y01534*
X00653Y01534*
X00652Y01534*
X00651Y01533*
X00651Y01533*
X0065Y01533*
X0065Y01532*
X00649Y01532*
X00649Y01531*
X00648Y01531*
X00648Y0153*
X00647Y0153*
X00647Y01529*
X00647Y01529*
X00646Y01528*
X00646Y01527*
X00646Y01527*
X00646Y01526*
X00646Y01525*
X00646Y01525*
X00206Y0108D02*
D01*
X00206Y01079*
X00206Y01078*
X00206Y01077*
X00206Y01077*
X00206Y01076*
X00207Y01075*
X00207Y01075*
X00207Y01074*
X00208Y01074*
X00208Y01073*
X00209Y01073*
X00209Y01072*
X0021Y01072*
X0021Y01071*
X00211Y01071*
X00211Y01071*
X00212Y0107*
X00213Y0107*
X00213Y0107*
X00214Y0107*
X00215Y0107*
X00215Y0107*
X00216*
X00217Y0107*
X00217Y0107*
X00218Y0107*
X00219Y0107*
X00219Y0107*
X0022Y01071*
X00221Y01071*
X00221Y01071*
X00222Y01072*
X00222Y01072*
X00223Y01073*
X00223Y01073*
X00224Y01074*
X00224Y01074*
X00224Y01075*
X00225Y01075*
X00225Y01076*
X00225Y01077*
X00225Y01077*
X00225Y01078*
X00225Y01079*
X00225Y0108*
X00225Y0108*
X00225Y01081*
X00225Y01082*
X00225Y01082*
X00225Y01083*
X00225Y01084*
X00224Y01084*
X00224Y01085*
X00224Y01085*
X00223Y01086*
X00223Y01086*
X00222Y01087*
X00222Y01087*
X00221Y01088*
X00221Y01088*
X0022Y01088*
X00219Y01089*
X00219Y01089*
X00218Y01089*
X00217Y01089*
X00217Y01089*
X00216Y01089*
X00215*
X00215Y01089*
X00214Y01089*
X00213Y01089*
X00213Y01089*
X00212Y01089*
X00211Y01088*
X00211Y01088*
X0021Y01088*
X0021Y01087*
X00209Y01087*
X00209Y01086*
X00208Y01086*
X00208Y01085*
X00207Y01085*
X00207Y01084*
X00207Y01084*
X00206Y01083*
X00206Y01082*
X00206Y01082*
X00206Y01081*
X00206Y0108*
X00206Y0108*
X00646D02*
D01*
X00646Y01079*
X00646Y01078*
X00646Y01077*
X00646Y01077*
X00646Y01076*
X00647Y01075*
X00647Y01075*
X00647Y01074*
X00648Y01074*
X00648Y01073*
X00649Y01073*
X00649Y01072*
X0065Y01072*
X0065Y01071*
X00651Y01071*
X00651Y01071*
X00652Y0107*
X00653Y0107*
X00653Y0107*
X00654Y0107*
X00655Y0107*
X00655Y0107*
X00656*
X00657Y0107*
X00657Y0107*
X00658Y0107*
X00659Y0107*
X00659Y0107*
X0066Y01071*
X00661Y01071*
X00661Y01071*
X00662Y01072*
X00662Y01072*
X00663Y01073*
X00663Y01073*
X00664Y01074*
X00664Y01074*
X00664Y01075*
X00665Y01075*
X00665Y01076*
X00665Y01077*
X00665Y01077*
X00665Y01078*
X00665Y01079*
X00665Y0108*
X00665Y0108*
X00665Y01081*
X00665Y01082*
X00665Y01082*
X00665Y01083*
X00665Y01084*
X00664Y01084*
X00664Y01085*
X00664Y01085*
X00663Y01086*
X00663Y01086*
X00662Y01087*
X00662Y01087*
X00661Y01088*
X00661Y01088*
X0066Y01088*
X00659Y01089*
X00659Y01089*
X00658Y01089*
X00657Y01089*
X00657Y01089*
X00656Y01089*
X00655*
X00655Y01089*
X00654Y01089*
X00653Y01089*
X00653Y01089*
X00652Y01089*
X00651Y01088*
X00651Y01088*
X0065Y01088*
X0065Y01087*
X00649Y01087*
X00649Y01086*
X00648Y01086*
X00648Y01085*
X00647Y01085*
X00647Y01084*
X00647Y01084*
X00646Y01083*
X00646Y01082*
X00646Y01082*
X00646Y01081*
X00646Y0108*
X00646Y0108*
G54D14*
X00377Y00617D02*
D01*
X00377Y00617*
X00377Y00616*
X00377Y00616*
X00377Y00616*
X00377Y00615*
X00377Y00615*
X00378Y00615*
X00378Y00614*
X00378Y00614*
X00378Y00614*
X00378Y00614*
X00379Y00613*
X00379Y00613*
X00379Y00613*
X00379Y00613*
X0038Y00612*
X0038Y00612*
X0038Y00612*
X00381Y00612*
X00381Y00612*
X00381Y00612*
X00382Y00612*
X00382*
X00382Y00612*
X00383Y00612*
X00383Y00612*
X00383Y00612*
X00384Y00612*
X00384Y00612*
X00384Y00613*
X00385Y00613*
X00385Y00613*
X00385Y00613*
X00386Y00614*
X00386Y00614*
X00386Y00614*
X00386Y00614*
X00386Y00615*
X00387Y00615*
X00387Y00615*
X00387Y00616*
X00387Y00616*
X00387Y00616*
X00387Y00617*
X00387Y00617*
X00387Y00617*
X00387Y00618*
X00387Y00618*
X00387Y00618*
X00387Y00619*
X00387Y00619*
X00386Y00619*
X00386Y0062*
X00386Y0062*
X00386Y0062*
X00386Y0062*
X00385Y00621*
X00385Y00621*
X00385Y00621*
X00384Y00621*
X00384Y00621*
X00384Y00622*
X00383Y00622*
X00383Y00622*
X00383Y00622*
X00382Y00622*
X00382Y00622*
X00382*
X00381Y00622*
X00381Y00622*
X00381Y00622*
X0038Y00622*
X0038Y00622*
X0038Y00621*
X00379Y00621*
X00379Y00621*
X00379Y00621*
X00379Y00621*
X00378Y0062*
X00378Y0062*
X00378Y0062*
X00378Y0062*
X00378Y00619*
X00377Y00619*
X00377Y00619*
X00377Y00618*
X00377Y00618*
X00377Y00618*
X00377Y00617*
X00377Y00617*
G54D15*
X00391Y0044D02*
D01*
X00392Y0044*
X00393Y0044*
X00395Y0044*
X00396Y0044*
X00397Y00441*
X00399Y00441*
X004Y00442*
X00401Y00443*
X00402Y00443*
X00403Y00444*
X00404Y00445*
X00405Y00446*
X00406Y00447*
X00407Y00448*
X00408Y0045*
X00409Y00451*
X00409Y00452*
X0041Y00453*
X0041Y00455*
X0041Y00456*
X0041Y00457*
X00411Y00459*
Y0046*
X0041Y00462*
X0041Y00463*
X0041Y00464*
X0041Y00466*
X00409Y00467*
X00409Y00468*
X00408Y0047*
X00407Y00471*
X00406Y00472*
X00405Y00473*
X00404Y00474*
X00403Y00475*
X00402Y00476*
X00401Y00476*
X004Y00477*
X00399Y00478*
X00397Y00478*
X00396Y00479*
X00395Y00479*
X00393Y00479*
X00392Y00479*
X00391Y0048*
Y0036D02*
Y0044D01*
Y0048D02*
Y00558D01*
X00787Y0036D02*
X00391D01*
X00787D02*
Y00558D01*
X00391*
X0067Y00007D02*
X0066D01*
Y00063*
X0067D02*
X0066D01*
X00724Y00007D02*
X00671D01*
X0067D02*
Y00061D01*
X00724Y00063D02*
X0067D01*
X00812Y00007D02*
X00758D01*
X00812D02*
Y00009D01*
Y00063*
X00811*
X00758*
G54D16*
X0031Y01778D02*
X00242D01*
X0031Y01729D02*
Y01778D01*
Y01581D02*
Y0163D01*
Y01581D02*
X00242D01*
X00127Y01613D02*
Y01746D01*
X00416Y01618D02*
Y01741D01*
X00456Y01618D02*
Y01741D01*
Y01618D02*
X00416D01*
X00456Y01741D02*
X00416D01*
X00771Y01618D02*
Y01741D01*
X00731Y01618D02*
Y01741D01*
X00771D02*
X00731D01*
X00771Y01618D02*
X00731D01*
X00945Y01581D02*
X00876D01*
Y0163*
Y01729D02*
Y01778D01*
X00945D02*
X00876D01*
X01059Y01613D02*
Y01746D01*
X00927Y0056D02*
X00805D01*
X00927Y006D02*
X00805D01*
X00927Y0056D02*
Y006D01*
X00805Y0056D02*
Y006D01*
X00377Y0056D02*
X00255D01*
X00377Y006D02*
X00255D01*
X00377Y0056D02*
Y006D01*
X00255Y0056D02*
Y006D01*
X0031Y0045D02*
X00242D01*
X0031Y00401D02*
Y0045D01*
Y00254D02*
Y00303D01*
Y00254D02*
X00242D01*
X00127Y00285D02*
Y00419D01*
X00945Y00264D02*
X00876D01*
Y00313*
Y00411D02*
Y0046D01*
X00945D02*
X00876D01*
X01059Y00295D02*
Y00429D01*
X00573Y00065D02*
Y0013D01*
Y00065D02*
X00513D01*
Y0013*
X00573D02*
X00513D01*
X00628Y00203D02*
X00353D01*
Y00005D02*
Y00203D01*
X00628Y00005D02*
X00353D01*
X00628D02*
Y00203D01*
Y00025D02*
X00353D01*
X00468Y0013D02*
X00408D01*
X00468Y00065D02*
Y0013D01*
Y00065D02*
X00408D01*
Y0013*
X01015Y01487D02*
X01055D01*
X01015D02*
Y01474D01*
X01017Y01468*
X01021Y01464*
X01025Y01462*
X0103Y0146*
X0104*
X01045Y01462*
X01049Y01464*
X01053Y01468*
X01055Y01474*
Y01487*
X01028Y0145D02*
X01055Y01438D01*
X01028Y01427D02*
X01055Y01438D01*
X01062Y01442*
X01066Y01446*
X01068Y0145*
Y01452*
X01028Y01421D02*
X01055D01*
X01036D02*
X0103Y01415D01*
X01028Y01411*
Y01406*
X0103Y01402*
X01036Y014*
X01055*
X01028Y01367D02*
X01055D01*
X01034D02*
X0103Y01371D01*
X01028Y01375*
Y0138*
X0103Y01384*
X01034Y01388*
X0104Y0139*
X01043*
X01049Y01388*
X01053Y01384*
X01055Y0138*
Y01375*
X01053Y01371*
X01049Y01367*
X01028Y01357D02*
X01055D01*
X01036D02*
X0103Y01351D01*
X01028Y01347*
Y01342*
X0103Y01338*
X01036Y01336*
X01055*
X01036D02*
X0103Y0133D01*
X01028Y01327*
Y01321*
X0103Y01317*
X01036Y01316*
X01055*
X01015Y01299D02*
X01017Y01298D01*
X01015Y01296*
X01013Y01298*
X01015Y01299*
X01028Y01298D02*
X01055D01*
X01034Y01266D02*
X0103Y0127D01*
X01028Y01274*
Y01279*
X0103Y01283*
X01034Y01287*
X0104Y01289*
X01043*
X01049Y01287*
X01053Y01283*
X01055Y01279*
Y01274*
X01053Y0127*
X01049Y01266*
X01015Y01258D02*
X01055Y01232D01*
X01015D02*
X01055Y01258D01*
X01018Y01182D02*
X01046D01*
X01052Y0118*
X01056Y01176*
X01058Y0117*
Y01167*
X01056Y01161*
X01052Y01157*
X01046Y01155*
X01018*
X01024Y01118D02*
X0102Y01122D01*
X01018Y01128*
Y01135*
X0102Y01141*
X01024Y01145*
X01028*
X01031Y01143*
X01033Y01141*
X01035Y01137*
X01039Y01126*
X01041Y01122*
X01043Y0112*
X01046Y01118*
X01052*
X01056Y01122*
X01058Y01128*
Y01135*
X01056Y01141*
X01052Y01145*
X01018Y01109D02*
X01058D01*
X01018D02*
Y01093D01*
X0102Y01087*
X01022Y01085*
X01026Y01083*
X0103*
X01033Y01085*
X01035Y01087*
X01037Y01093*
Y01109D02*
Y01093D01*
X01039Y01087*
X01041Y01085*
X01045Y01083*
X0105*
X01054Y01085*
X01056Y01087*
X01058Y01093*
Y01109*
X01028Y01073D02*
X01026D01*
X01022Y01071*
X0102Y01069*
X01018Y01065*
Y01058*
X0102Y01054*
X01022Y01052*
X01026Y0105*
X0103*
X01033Y01052*
X01039Y01056*
X01058Y01074*
Y01048*
X01028Y01011D02*
X01024Y01013D01*
X0102Y01017*
X01018Y01021*
Y01028*
X0102Y01032*
X01024Y01036*
X01028Y01037*
X01033Y01039*
X01043*
X01048Y01037*
X01052Y01036*
X01056Y01032*
X01058Y01028*
Y01021*
X01056Y01017*
X01052Y01013*
X01048Y01011*
X01058Y0097D02*
X01018Y00985D01*
X01058Y01*
X01045Y00995D02*
Y00976D01*
X01018Y00961D02*
X01058D01*
X01018D02*
X01058Y00935D01*
X01018D02*
X01058D01*
X00158Y01017D02*
X0013D01*
X00124Y01019*
X0012Y01023*
X00118Y01029*
Y01032*
X0012Y01038*
X00124Y01042*
X0013Y01044*
X00158*
X00152Y01081D02*
X00156Y01077D01*
X00158Y01071*
Y01064*
X00156Y01058*
X00152Y01054*
X00148*
X00145Y01056*
X00143Y01058*
X00141Y01062*
X00137Y01073*
X00135Y01077*
X00133Y01079*
X0013Y01081*
X00124*
X0012Y01077*
X00118Y01071*
Y01064*
X0012Y01058*
X00124Y01054*
X00158Y0109D02*
X00118D01*
X00158D02*
Y01106D01*
X00156Y01112*
X00154Y01114*
X0015Y01116*
X00147*
X00143Y01114*
X00141Y01112*
X00139Y01106*
Y0109D02*
Y01106D01*
X00137Y01112*
X00135Y01114*
X00132Y01116*
X00126*
X00122Y01114*
X0012Y01112*
X00118Y01106*
Y0109*
X00148Y01126D02*
X0015D01*
X00154Y01128*
X00156Y0113*
X00158Y01134*
Y01141*
X00156Y01145*
X00154Y01147*
X0015Y01149*
X00147*
X00143Y01147*
X00137Y01143*
X00118Y01125*
Y01151*
X00148Y01188D02*
X00152Y01186D01*
X00156Y01182*
X00158Y01178*
Y01171*
X00156Y01167*
X00152Y01163*
X00148Y01162*
X00143Y0116*
X00133*
X00128Y01162*
X00124Y01163*
X0012Y01167*
X00118Y01171*
Y01178*
X0012Y01182*
X00124Y01186*
X00128Y01188*
X00118Y01229D02*
X00158Y01214D01*
X00118Y01199*
X00132Y01204D02*
Y01223D01*
X00158Y01238D02*
X00118D01*
X00158D02*
X00118Y01264D01*
X00158D02*
X00118D01*
X00161Y01317D02*
X00122D01*
X00142D02*
X00146Y01321D01*
X00148Y01325*
Y0133*
X00146Y01334*
X00142Y01338*
X00137Y0134*
X00133*
X00127Y01338*
X00123Y01334*
X00122Y0133*
Y01325*
X00123Y01321*
X00127Y01317*
X00148Y0135D02*
X00122Y01361D01*
X00148Y01373D02*
X00122Y01361D01*
X00114Y01358*
X0011Y01354*
X00108Y0135*
Y01348*
X00148Y01431D02*
X00122Y0141D01*
X00148D02*
Y01431D01*
X00122Y0141D02*
Y01431D01*
X00161Y01439D02*
X00122D01*
X0014D02*
X00146Y01445D01*
X00148Y01448*
Y01454*
X00146Y01458*
X0014Y0146*
X00122*
X00148Y0147D02*
X00129D01*
X00123Y01472*
X00122Y01476*
Y01481*
X00123Y01485*
X00129Y01491*
X00148D02*
X00122D01*
X00148Y0151D02*
X00146Y01507D01*
X00142Y01503*
X00137Y01501*
X00133*
X00127Y01503*
X00123Y01507*
X00122Y0151*
Y01516*
X00123Y0152*
X00127Y01523*
X00133Y01525*
X00137*
X00142Y01523*
X00146Y0152*
X00148Y01516*
Y0151*
X00161Y00712D02*
X00122D01*
X00161D02*
Y00726D01*
X00159Y00731*
X00155Y00735*
X00152Y00737*
X00146Y00739*
X00137*
X00131Y00737*
X00127Y00735*
X00123Y00731*
X00122Y00726*
Y00712*
X00148Y00749D02*
X00122Y00761D01*
X00148Y00772D02*
X00122Y00761D01*
X00114Y00757*
X0011Y00753*
X00108Y00749*
Y00747*
X00148Y00778D02*
X00122D01*
X0014D02*
X00146Y00784D01*
X00148Y00788*
Y00793*
X00146Y00797*
X0014Y00799*
X00122*
X00148Y00832D02*
X00122D01*
X00142D02*
X00146Y00828D01*
X00148Y00824*
Y00819*
X00146Y00815*
X00142Y00811*
X00137Y00809*
X00133*
X00127Y00811*
X00123Y00815*
X00122Y00819*
Y00824*
X00123Y00828*
X00127Y00832*
X00148Y00842D02*
X00122D01*
X0014D02*
X00146Y00848D01*
X00148Y00852*
Y00857*
X00146Y00861*
X0014Y00863*
X00122*
X0014D02*
X00146Y00869D01*
X00148Y00872*
Y00878*
X00146Y00882*
X0014Y00884*
X00122*
X00161Y009D02*
X00159Y00902D01*
X00161Y00903*
X00163Y00902*
X00161Y009*
X00148Y00902D02*
X00122D01*
X00142Y00933D02*
X00146Y00929D01*
X00148Y00925*
Y0092*
X00146Y00916*
X00142Y00912*
X00137Y0091*
X00133*
X00127Y00912*
X00123Y00916*
X00122Y0092*
Y00925*
X00123Y00929*
X00127Y00933*
X00161Y00941D02*
X00122Y00967D01*
X00161D02*
X00122Y00941D01*
X01015Y00882D02*
X01055D01*
X01034D02*
X0103Y00878D01*
X01028Y00874*
Y00869*
X0103Y00865*
X01034Y00861*
X0104Y00859*
X01043*
X01049Y00861*
X01053Y00865*
X01055Y00869*
Y00874*
X01053Y00878*
X01049Y00882*
X01028Y00849D02*
X01055Y00838D01*
X01028Y00826D02*
X01055Y00838D01*
X01062Y00841*
X01066Y00845*
X01068Y00849*
Y00851*
X01028Y00768D02*
X01055Y00789D01*
X01028D02*
Y00768D01*
X01055Y00789D02*
Y00768D01*
X01015Y0076D02*
X01055D01*
X01036D02*
X0103Y00754D01*
X01028Y00751*
Y00745*
X0103Y00741*
X01036Y00739*
X01055*
X01028Y00729D02*
X01047D01*
X01053Y00727*
X01055Y00723*
Y00718*
X01053Y00714*
X01047Y00708*
X01028D02*
X01055D01*
X01028Y00689D02*
X0103Y00693D01*
X01034Y00696*
X0104Y00698*
X01043*
X01049Y00696*
X01053Y00693*
X01055Y00689*
Y00683*
X01053Y00679*
X01049Y00676*
X01043Y00674*
X0104*
X01034Y00676*
X0103Y00679*
X01028Y00683*
Y00689*
X00693Y00259D02*
Y00226D01*
X00687Y0022*
X00673*
X00667Y00226*
Y00259*
X00627Y00253D02*
X00634Y00259D01*
X00647*
X00654Y00253*
Y00246*
X00647Y0024*
X00634*
X00627Y00233*
Y00226*
X00634Y0022*
X00647*
X00654Y00226*
X00614Y00259D02*
Y0022D01*
X00595*
X00588Y00226*
Y00233*
X00595Y0024*
X00614*
X00595*
X00588Y00246*
Y00253*
X00595Y00259*
X00614*
X00855Y01794D02*
Y01761D01*
X00848Y01755*
X00835*
X00829Y01761*
Y01794*
X00815Y01755D02*
X00802D01*
X00809*
Y01794*
X00815Y01788*
X00783D02*
X00776Y01794D01*
X00763*
X00756Y01788*
Y01781*
X00763Y01775*
X00756Y01768*
Y01761*
X00763Y01755*
X00776*
X00783Y01761*
Y01768*
X00776Y01775*
X00783Y01781*
Y01788*
X00776Y01775D02*
X00763D01*
X01025Y01554D02*
Y01521D01*
X01018Y01515*
X01005*
X00999Y01521*
Y01554*
X00985Y01515D02*
X00972D01*
X00979*
Y01554*
X00985Y01548*
X00953Y01554D02*
X00926D01*
Y01548*
X00953Y01521*
Y01515*
X00585Y01554D02*
Y01521D01*
X00578Y01515*
X00565*
X00559Y01521*
Y01554*
X00545Y01515D02*
X00532D01*
X00539*
Y01554*
X00545Y01548*
X00486Y01554D02*
X005Y01548D01*
X00513Y01535*
Y01521*
X00506Y01515*
X00493*
X00486Y01521*
Y01528*
X00493Y01535*
X00513*
X0044Y01799D02*
Y01766D01*
X00433Y0176*
X0042*
X00414Y01766*
Y01799*
X004Y0176D02*
X00387D01*
X00394*
Y01799*
X004Y01793*
X00341Y01799D02*
X00368D01*
Y0178*
X00355Y01786*
X00348*
X00341Y0178*
Y01766*
X00348Y0176*
X00361*
X00368Y01766*
X0037Y007D02*
Y00674D01*
X00365Y00669*
X00354*
X00349Y00674*
Y007*
X00338Y00669D02*
X00328D01*
X00333*
Y007*
X00338Y00695*
X00296Y00669D02*
Y007D01*
X00312Y00685*
X00291*
X00985Y01144D02*
Y01111D01*
X00978Y01105*
X00965*
X00959Y01111*
Y01144*
X00945Y01105D02*
X00932D01*
X00939*
Y01144*
X00945Y01138*
X00913D02*
X00906Y01144D01*
X00893*
X00886Y01138*
Y01131*
X00893Y01125*
X009*
X00893*
X00886Y01118*
Y01111*
X00893Y01105*
X00906*
X00913Y01111*
X00595Y01144D02*
Y01111D01*
X00588Y01105*
X00575*
X00569Y01111*
Y01144*
X00555Y01105D02*
X00542D01*
X00549*
Y01144*
X00555Y01138*
X00496Y01105D02*
X00523D01*
X00496Y01131*
Y01138*
X00503Y01144*
X00516*
X00523Y01138*
X00808Y00699D02*
Y00666D01*
X00802Y0066*
X00789*
X00782Y00666*
Y00699*
X00769Y0066D02*
X00756D01*
X00762*
Y00699*
X00769Y00693*
X00736Y0066D02*
X00723D01*
X0073*
Y00699*
X00736Y00693*
X00715Y01804D02*
Y01771D01*
X00708Y01765*
X00695*
X00689Y01771*
Y01804*
X00675Y01765D02*
X00662D01*
X00669*
Y01804*
X00675Y01798*
X00643D02*
X00636Y01804D01*
X00623*
X00616Y01798*
Y01771*
X00623Y01765*
X00636*
X00643Y01771*
Y01798*
X00232Y007D02*
Y00674D01*
X00227Y00669*
X00216*
X00211Y00674*
Y007*
X002Y00674D02*
X00195Y00669D01*
X00185*
X00179Y00674*
Y00695*
X00185Y007*
X00195*
X002Y00695*
Y0069*
X00195Y00685*
X00179*
X01008Y00744D02*
Y00711D01*
X01002Y00705*
X00989*
X00982Y00711*
Y00744*
X00969Y00738D02*
X00962Y00744D01*
X00949*
X00943Y00738*
Y00731*
X00949Y00725*
X00943Y00718*
Y00711*
X00949Y00705*
X00962*
X00969Y00711*
Y00718*
X00962Y00725*
X00969Y00731*
Y00738*
X00962Y00725D02*
X00949D01*
X00658Y00699D02*
Y00666D01*
X00652Y0066*
X00639*
X00632Y00666*
Y00699*
X00619D02*
X00593D01*
Y00693*
X00619Y00666*
Y0066*
X00833Y00239D02*
Y00206D01*
X00827Y002*
X00814*
X00807Y00206*
Y00239*
X00768D02*
X00781Y00233D01*
X00794Y0022*
Y00206*
X00787Y002*
X00774*
X00768Y00206*
Y00213*
X00774Y0022*
X00794*
X00865Y00007D02*
X00826D01*
Y00026*
X00832Y00033*
X00859*
X00865Y00026*
Y00007*
X00859Y00046D02*
X00865Y00053D01*
Y00066*
X00859Y00072*
X00852*
X00846Y00066*
X00839Y00072*
X00832*
X00826Y00066*
Y00053*
X00832Y00046*
X00839*
X00846Y00053*
X00852Y00046*
X00859*
X00846Y00053D02*
Y00066D01*
X00832Y01593D02*
X00838Y01599D01*
X00851*
X00858Y01593*
Y01566*
X00851Y0156*
X00838*
X00832Y01566*
X00818Y0156D02*
Y01586D01*
X00805Y01599*
X00792Y01586*
Y0156*
Y0158*
X00818*
X00779Y0156D02*
Y01599D01*
X00753Y0156*
Y01599*
X0072Y0156D02*
Y01599D01*
X0074Y0158*
X00713*
X00442Y01593D02*
X00448Y01599D01*
X00461*
X00468Y01593*
Y01566*
X00461Y0156*
X00448*
X00442Y01566*
X00428Y0156D02*
Y01586D01*
X00415Y01599*
X00402Y01586*
Y0156*
Y0158*
X00428*
X00389Y0156D02*
Y01599D01*
X00363Y0156*
Y01599*
X0035Y01593D02*
X00343Y01599D01*
X0033*
X00323Y01593*
Y01586*
X0033Y0158*
X00337*
X0033*
X00323Y01573*
Y01566*
X0033Y0156*
X00343*
X0035Y01566*
X00379Y00314D02*
X00385Y00307D01*
Y00294*
X00379Y00287*
X00352*
X00346Y00294*
Y00307*
X00352Y00314*
X00346Y00327D02*
X00372D01*
X00385Y0034*
X00372Y00353*
X00346*
X00366*
Y00327*
X00346Y00366D02*
X00385D01*
X00346Y00392*
X00385*
X00346Y00432D02*
Y00405D01*
X00372Y00432*
X00379*
X00385Y00425*
Y00412*
X00379Y00405*
X00802Y00424D02*
X00796Y0043D01*
Y00444*
X00802Y0045*
X00829*
X00835Y00444*
Y0043*
X00829Y00424*
X00835Y00411D02*
X00809D01*
X00796Y00398*
X00809Y00385*
X00835*
X00816*
Y00411*
X00835Y00371D02*
X00796D01*
X00835Y00345*
X00796*
X00835Y00332D02*
Y00319D01*
Y00325*
X00796*
X00802Y00332*
G54D17*
X0065Y01657D02*
X00532D01*
X0065Y01702D02*
X00532D01*
Y01657D02*
Y01702D01*
X0065Y01657D02*
Y01702D01*
X01062Y00556D02*
X00944D01*
X01062Y00601D02*
X00944D01*
Y00556D02*
Y00601D01*
X01062Y00556D02*
Y00601D01*
X00237Y00557D02*
X00119D01*
X00237Y00602D02*
X00119D01*
Y00557D02*
Y00602D01*
X00237Y00557D02*
Y00602D01*
X00708Y0008D02*
Y00199D01*
X00753Y0008D02*
Y00199D01*
X00708*
X00753Y0008D02*
X00708D01*
M02*