%FSTAX23Y23*%
%MOIN*%
%SFA1B1*%

%IPPOS*%
%ADD61C,0.003940*%
%ADD62C,0.005910*%
%ADD68C,0.001000*%
%ADD69C,0.001970*%
%ADD70C,0.001580*%
%LNusb2can-1*%
%LPD*%
G54D61*
X00651Y01755D02*
X00525D01*
X00651Y01605D02*
X00525D01*
X00651D02*
Y01755D01*
X00525Y01605D02*
Y01755D01*
X00239Y0066D02*
X00113D01*
X00239Y0051D02*
X00113D01*
X00239D02*
Y0066D01*
X00113Y0051D02*
Y0066D01*
X01066Y0067D02*
X0094D01*
X01066Y0052D02*
X0094D01*
X01066D02*
Y0067D01*
X0094Y0052D02*
Y0067D01*
X00656Y01595D02*
Y01765D01*
Y01595D02*
X00526D01*
Y01765*
X00656D02*
X00526D01*
X00521Y01615D02*
X00351D01*
X00521Y01745D02*
X00351D01*
Y01615D02*
Y01745D01*
X00521Y01615D02*
Y01745D01*
X00836D02*
X00666D01*
X00836Y01615D02*
X00666D01*
X00836D02*
Y01745D01*
X00666Y01615D02*
Y01745D01*
X00565Y01554D02*
X00156D01*
X00565Y01145D02*
X00156D01*
Y01554D02*
Y01145D01*
X00565D02*
Y01554D01*
X01005D02*
X00596D01*
X01005Y01145D02*
X00596D01*
Y01554D02*
Y01145D01*
X01005D02*
Y01554D01*
X00565Y01109D02*
X00156D01*
X00565Y007D02*
X00156D01*
Y01109D02*
Y007D01*
X00565D02*
Y01109D01*
X01005D02*
X00596D01*
X01005Y007D02*
X00596D01*
Y01109D02*
Y007D01*
X01005D02*
Y01109D01*
X00796Y0066D02*
X00386D01*
X00796Y0026D02*
Y0066D01*
Y0026D02*
X00386D01*
Y0066*
X00931Y00495D02*
Y00665D01*
X00801Y00495D02*
Y00665D01*
X00931Y00495D02*
X00801D01*
X00931Y00665D02*
X00801D01*
X01068Y00494D02*
Y00664D01*
Y00494D02*
X00938D01*
Y00664*
X01068D02*
X00938D01*
X00381Y00495D02*
Y00665D01*
X00251Y00495D02*
Y00665D01*
X00381Y00495D02*
X00251D01*
X00381Y00665D02*
X00251D01*
X00243Y00495D02*
Y00665D01*
Y00495D02*
X00113D01*
Y00665*
X00243D02*
X00113D01*
X00816Y00075D02*
X00646D01*
Y00205*
X00816D02*
X00646D01*
X00816Y00075D02*
Y00205D01*
G54D62*
X00467Y00067D02*
D01*
X00467Y00066*
X00467Y00066*
X00467Y00066*
X00467Y00066*
X00467Y00066*
X00467Y00065*
X00467Y00065*
X00467Y00065*
X00467Y00065*
X00468Y00065*
X00468Y00065*
X00468Y00064*
X00468Y00064*
X00468Y00064*
X00468Y00064*
X00469Y00064*
X00469Y00064*
X00469Y00064*
X00469Y00064*
X00469Y00064*
X0047Y00064*
X0047Y00064*
X0047*
X0047Y00064*
X0047Y00064*
X00471Y00064*
X00471Y00064*
X00471Y00064*
X00471Y00064*
X00471Y00064*
X00471Y00064*
X00472Y00064*
X00472Y00064*
X00472Y00065*
X00472Y00065*
X00472Y00065*
X00472Y00065*
X00472Y00065*
X00473Y00065*
X00473Y00066*
X00473Y00066*
X00473Y00066*
X00473Y00066*
X00473Y00066*
X00473Y00067*
X00473Y00067*
X00473Y00067*
X00473Y00067*
X00473Y00067*
X00473Y00068*
X00473Y00068*
X00472Y00068*
X00472Y00068*
X00472Y00068*
X00472Y00068*
X00472Y00069*
X00472Y00069*
X00472Y00069*
X00471Y00069*
X00471Y00069*
X00471Y00069*
X00471Y00069*
X00471Y00069*
X00471Y00069*
X0047Y00069*
X0047Y00069*
X0047Y0007*
X0047*
X0047Y00069*
X00469Y00069*
X00469Y00069*
X00469Y00069*
X00469Y00069*
X00469Y00069*
X00468Y00069*
X00468Y00069*
X00468Y00069*
X00468Y00069*
X00468Y00069*
X00468Y00068*
X00467Y00068*
X00467Y00068*
X00467Y00068*
X00467Y00068*
X00467Y00068*
X00467Y00067*
X00467Y00067*
X00467Y00067*
X00467Y00067*
X00467Y00067*
G54D68*
X00961Y00812D02*
D01*
X00961Y00812*
X00961Y00812*
X00961Y00811*
X00961Y00811*
X00961Y00811*
X00961Y0081*
X00961Y0081*
X00961Y0081*
X00962Y00809*
X00962Y00809*
X00962Y00809*
X00962Y00809*
X00963Y00808*
X00963Y00808*
X00963Y00808*
X00963Y00808*
X00964Y00808*
X00964Y00807*
X00964Y00807*
X00965Y00807*
X00965Y00807*
X00965Y00807*
X00966*
X00966Y00807*
X00966Y00807*
X00967Y00807*
X00967Y00807*
X00967Y00808*
X00968Y00808*
X00968Y00808*
X00968Y00808*
X00969Y00808*
X00969Y00809*
X00969Y00809*
X00969Y00809*
X0097Y00809*
X0097Y0081*
X0097Y0081*
X0097Y0081*
X0097Y00811*
X0097Y00811*
X0097Y00811*
X00971Y00812*
X00971Y00812*
X00971Y00812*
X00971Y00813*
X00971Y00813*
X0097Y00813*
X0097Y00814*
X0097Y00814*
X0097Y00814*
X0097Y00815*
X0097Y00815*
X0097Y00815*
X00969Y00815*
X00969Y00816*
X00969Y00816*
X00969Y00816*
X00968Y00816*
X00968Y00817*
X00968Y00817*
X00967Y00817*
X00967Y00817*
X00967Y00817*
X00966Y00817*
X00966Y00817*
X00966Y00817*
X00965*
X00965Y00817*
X00965Y00817*
X00964Y00817*
X00964Y00817*
X00964Y00817*
X00963Y00817*
X00963Y00817*
X00963Y00816*
X00963Y00816*
X00962Y00816*
X00962Y00816*
X00962Y00815*
X00962Y00815*
X00961Y00815*
X00961Y00815*
X00961Y00814*
X00961Y00814*
X00961Y00814*
X00961Y00813*
X00961Y00813*
X00961Y00813*
X00961Y00812*
X00956Y01257D02*
D01*
X00956Y01257*
X00956Y01257*
X00956Y01256*
X00956Y01256*
X00956Y01256*
X00956Y01255*
X00956Y01255*
X00956Y01255*
X00957Y01254*
X00957Y01254*
X00957Y01254*
X00957Y01254*
X00958Y01253*
X00958Y01253*
X00958Y01253*
X00958Y01253*
X00959Y01253*
X00959Y01252*
X00959Y01252*
X0096Y01252*
X0096Y01252*
X0096Y01252*
X00961*
X00961Y01252*
X00961Y01252*
X00962Y01252*
X00962Y01252*
X00962Y01253*
X00963Y01253*
X00963Y01253*
X00963Y01253*
X00964Y01253*
X00964Y01254*
X00964Y01254*
X00964Y01254*
X00965Y01254*
X00965Y01255*
X00965Y01255*
X00965Y01255*
X00965Y01256*
X00965Y01256*
X00965Y01256*
X00966Y01257*
X00966Y01257*
X00966Y01257*
X00966Y01258*
X00966Y01258*
X00965Y01258*
X00965Y01259*
X00965Y01259*
X00965Y01259*
X00965Y0126*
X00965Y0126*
X00965Y0126*
X00964Y0126*
X00964Y01261*
X00964Y01261*
X00964Y01261*
X00963Y01261*
X00963Y01262*
X00963Y01262*
X00962Y01262*
X00962Y01262*
X00962Y01262*
X00961Y01262*
X00961Y01262*
X00961Y01262*
X0096*
X0096Y01262*
X0096Y01262*
X00959Y01262*
X00959Y01262*
X00959Y01262*
X00958Y01262*
X00958Y01262*
X00958Y01261*
X00958Y01261*
X00957Y01261*
X00957Y01261*
X00957Y0126*
X00957Y0126*
X00956Y0126*
X00956Y0126*
X00956Y01259*
X00956Y01259*
X00956Y01259*
X00956Y01258*
X00956Y01258*
X00956Y01258*
X00956Y01257*
X00143Y00465D02*
D01*
X00143Y00464*
X00143Y00464*
X00143Y00463*
X00143Y00463*
X00143Y00463*
X00143Y00462*
X00143Y00462*
X00144Y00462*
X00144Y00462*
X00144Y00461*
X00144Y00461*
X00145Y00461*
X00145Y00461*
X00145Y0046*
X00145Y0046*
X00146Y0046*
X00146Y0046*
X00146Y0046*
X00147Y0046*
X00147Y0046*
X00147Y0046*
X00148Y0046*
X00148*
X00148Y0046*
X00149Y0046*
X00149Y0046*
X00149Y0046*
X0015Y0046*
X0015Y0046*
X0015Y0046*
X00151Y0046*
X00151Y00461*
X00151Y00461*
X00151Y00461*
X00152Y00461*
X00152Y00462*
X00152Y00462*
X00152Y00462*
X00152Y00462*
X00153Y00463*
X00153Y00463*
X00153Y00463*
X00153Y00464*
X00153Y00464*
X00153Y00465*
X00153Y00465*
X00153Y00465*
X00153Y00466*
X00153Y00466*
X00153Y00466*
X00152Y00467*
X00152Y00467*
X00152Y00467*
X00152Y00467*
X00152Y00468*
X00151Y00468*
X00151Y00468*
X00151Y00468*
X00151Y00469*
X0015Y00469*
X0015Y00469*
X0015Y00469*
X00149Y00469*
X00149Y00469*
X00149Y00469*
X00148Y00469*
X00148Y00469*
X00148*
X00147Y00469*
X00147Y00469*
X00147Y00469*
X00146Y00469*
X00146Y00469*
X00146Y00469*
X00145Y00469*
X00145Y00469*
X00145Y00468*
X00145Y00468*
X00144Y00468*
X00144Y00468*
X00144Y00467*
X00144Y00467*
X00143Y00467*
X00143Y00467*
X00143Y00466*
X00143Y00466*
X00143Y00466*
X00143Y00465*
X00143Y00465*
X00143Y00465*
X00218D02*
D01*
X00218Y00464*
X00218Y00464*
X00218Y00463*
X00219Y00463*
X00219Y00463*
X00219Y00462*
X00219Y00462*
X00219Y00462*
X00219Y00462*
X00219Y00461*
X0022Y00461*
X0022Y00461*
X0022Y00461*
X00221Y0046*
X00221Y0046*
X00221Y0046*
X00221Y0046*
X00222Y0046*
X00222Y0046*
X00222Y0046*
X00223Y0046*
X00223Y0046*
X00223*
X00224Y0046*
X00224Y0046*
X00225Y0046*
X00225Y0046*
X00225Y0046*
X00226Y0046*
X00226Y0046*
X00226Y0046*
X00226Y00461*
X00227Y00461*
X00227Y00461*
X00227Y00461*
X00227Y00462*
X00228Y00462*
X00228Y00462*
X00228Y00462*
X00228Y00463*
X00228Y00463*
X00228Y00463*
X00228Y00464*
X00228Y00464*
X00228Y00465*
X00228Y00465*
X00228Y00465*
X00228Y00466*
X00228Y00466*
X00228Y00466*
X00228Y00467*
X00228Y00467*
X00228Y00467*
X00227Y00467*
X00227Y00468*
X00227Y00468*
X00227Y00468*
X00226Y00468*
X00226Y00469*
X00226Y00469*
X00226Y00469*
X00225Y00469*
X00225Y00469*
X00225Y00469*
X00224Y00469*
X00224Y00469*
X00223Y00469*
X00223*
X00223Y00469*
X00222Y00469*
X00222Y00469*
X00222Y00469*
X00221Y00469*
X00221Y00469*
X00221Y00469*
X00221Y00469*
X0022Y00468*
X0022Y00468*
X0022Y00468*
X00219Y00468*
X00219Y00467*
X00219Y00467*
X00219Y00467*
X00219Y00467*
X00219Y00466*
X00219Y00466*
X00218Y00466*
X00218Y00465*
X00218Y00465*
X00218Y00465*
X00241Y0035D02*
D01*
X00241Y00349*
X00241Y00349*
X00241Y00348*
X00241Y00348*
X00241Y00348*
X00241Y00347*
X00241Y00347*
X00241Y00347*
X00242Y00347*
X00242Y00346*
X00242Y00346*
X00242Y00346*
X00243Y00346*
X00243Y00345*
X00243Y00345*
X00243Y00345*
X00244Y00345*
X00244Y00345*
X00244Y00345*
X00245Y00345*
X00245Y00345*
X00245Y00345*
X00246*
X00246Y00345*
X00246Y00345*
X00247Y00345*
X00247Y00345*
X00247Y00345*
X00248Y00345*
X00248Y00345*
X00248Y00345*
X00249Y00346*
X00249Y00346*
X00249Y00346*
X00249Y00346*
X0025Y00347*
X0025Y00347*
X0025Y00347*
X0025Y00347*
X0025Y00348*
X0025Y00348*
X0025Y00348*
X00251Y00349*
X00251Y00349*
X00251Y0035*
X00251Y0035*
X00251Y0035*
X0025Y00351*
X0025Y00351*
X0025Y00351*
X0025Y00352*
X0025Y00352*
X0025Y00352*
X0025Y00352*
X00249Y00353*
X00249Y00353*
X00249Y00353*
X00249Y00353*
X00248Y00354*
X00248Y00354*
X00248Y00354*
X00247Y00354*
X00247Y00354*
X00247Y00354*
X00246Y00354*
X00246Y00354*
X00246Y00354*
X00245*
X00245Y00354*
X00245Y00354*
X00244Y00354*
X00244Y00354*
X00244Y00354*
X00243Y00354*
X00243Y00354*
X00243Y00354*
X00243Y00353*
X00242Y00353*
X00242Y00353*
X00242Y00353*
X00242Y00352*
X00241Y00352*
X00241Y00352*
X00241Y00352*
X00241Y00351*
X00241Y00351*
X00241Y00351*
X00241Y0035*
X00241Y0035*
X00241Y0035*
X00391Y01525D02*
D01*
X00391Y01524*
X00391Y01524*
X00391Y01523*
X00391Y01523*
X00391Y01523*
X00391Y01522*
X00391Y01522*
X00391Y01522*
X00392Y01522*
X00392Y01521*
X00392Y01521*
X00392Y01521*
X00393Y01521*
X00393Y0152*
X00393Y0152*
X00393Y0152*
X00394Y0152*
X00394Y0152*
X00394Y0152*
X00395Y0152*
X00395Y0152*
X00395Y0152*
X00396*
X00396Y0152*
X00396Y0152*
X00397Y0152*
X00397Y0152*
X00397Y0152*
X00398Y0152*
X00398Y0152*
X00398Y0152*
X00399Y01521*
X00399Y01521*
X00399Y01521*
X00399Y01521*
X004Y01522*
X004Y01522*
X004Y01522*
X004Y01522*
X004Y01523*
X004Y01523*
X004Y01523*
X00401Y01524*
X00401Y01524*
X00401Y01525*
X00401Y01525*
X00401Y01525*
X004Y01526*
X004Y01526*
X004Y01526*
X004Y01527*
X004Y01527*
X004Y01527*
X004Y01527*
X00399Y01528*
X00399Y01528*
X00399Y01528*
X00399Y01528*
X00398Y01529*
X00398Y01529*
X00398Y01529*
X00397Y01529*
X00397Y01529*
X00397Y01529*
X00396Y01529*
X00396Y01529*
X00396Y01529*
X00395*
X00395Y01529*
X00395Y01529*
X00394Y01529*
X00394Y01529*
X00394Y01529*
X00393Y01529*
X00393Y01529*
X00393Y01529*
X00393Y01528*
X00392Y01528*
X00392Y01528*
X00392Y01528*
X00392Y01527*
X00391Y01527*
X00391Y01527*
X00391Y01527*
X00391Y01526*
X00391Y01526*
X00391Y01526*
X00391Y01525*
X00391Y01525*
X00391Y01525*
X00353Y0148D02*
D01*
X00353Y01479*
X00353Y01479*
X00353Y01478*
X00353Y01478*
X00353Y01478*
X00353Y01477*
X00353Y01477*
X00354Y01477*
X00354Y01477*
X00354Y01476*
X00354Y01476*
X00355Y01476*
X00355Y01476*
X00355Y01475*
X00355Y01475*
X00356Y01475*
X00356Y01475*
X00356Y01475*
X00357Y01475*
X00357Y01475*
X00357Y01475*
X00358Y01475*
X00358*
X00358Y01475*
X00359Y01475*
X00359Y01475*
X00359Y01475*
X0036Y01475*
X0036Y01475*
X0036Y01475*
X00361Y01475*
X00361Y01476*
X00361Y01476*
X00361Y01476*
X00362Y01476*
X00362Y01477*
X00362Y01477*
X00362Y01477*
X00362Y01477*
X00363Y01478*
X00363Y01478*
X00363Y01478*
X00363Y01479*
X00363Y01479*
X00363Y0148*
X00363Y0148*
X00363Y0148*
X00363Y01481*
X00363Y01481*
X00363Y01481*
X00362Y01482*
X00362Y01482*
X00362Y01482*
X00362Y01482*
X00362Y01483*
X00361Y01483*
X00361Y01483*
X00361Y01483*
X00361Y01484*
X0036Y01484*
X0036Y01484*
X0036Y01484*
X00359Y01484*
X00359Y01484*
X00359Y01484*
X00358Y01484*
X00358Y01484*
X00358*
X00357Y01484*
X00357Y01484*
X00357Y01484*
X00356Y01484*
X00356Y01484*
X00356Y01484*
X00355Y01484*
X00355Y01484*
X00355Y01483*
X00355Y01483*
X00354Y01483*
X00354Y01483*
X00354Y01482*
X00354Y01482*
X00353Y01482*
X00353Y01482*
X00353Y01481*
X00353Y01481*
X00353Y01481*
X00353Y0148*
X00353Y0148*
X00353Y0148*
X00263Y01525D02*
D01*
X00263Y01524*
X00263Y01524*
X00263Y01523*
X00263Y01523*
X00263Y01523*
X00263Y01522*
X00263Y01522*
X00264Y01522*
X00264Y01522*
X00264Y01521*
X00264Y01521*
X00265Y01521*
X00265Y01521*
X00265Y0152*
X00265Y0152*
X00266Y0152*
X00266Y0152*
X00266Y0152*
X00267Y0152*
X00267Y0152*
X00267Y0152*
X00268Y0152*
X00268*
X00268Y0152*
X00269Y0152*
X00269Y0152*
X00269Y0152*
X0027Y0152*
X0027Y0152*
X0027Y0152*
X00271Y0152*
X00271Y01521*
X00271Y01521*
X00271Y01521*
X00272Y01521*
X00272Y01522*
X00272Y01522*
X00272Y01522*
X00272Y01522*
X00273Y01523*
X00273Y01523*
X00273Y01523*
X00273Y01524*
X00273Y01524*
X00273Y01525*
X00273Y01525*
X00273Y01525*
X00273Y01526*
X00273Y01526*
X00273Y01526*
X00272Y01527*
X00272Y01527*
X00272Y01527*
X00272Y01527*
X00272Y01528*
X00271Y01528*
X00271Y01528*
X00271Y01528*
X00271Y01529*
X0027Y01529*
X0027Y01529*
X0027Y01529*
X00269Y01529*
X00269Y01529*
X00269Y01529*
X00268Y01529*
X00268Y01529*
X00268*
X00267Y01529*
X00267Y01529*
X00267Y01529*
X00266Y01529*
X00266Y01529*
X00266Y01529*
X00265Y01529*
X00265Y01529*
X00265Y01528*
X00265Y01528*
X00264Y01528*
X00264Y01528*
X00264Y01527*
X00264Y01527*
X00263Y01527*
X00263Y01527*
X00263Y01526*
X00263Y01526*
X00263Y01526*
X00263Y01525*
X00263Y01525*
X00263Y01525*
X00176Y01437D02*
D01*
X00176Y01436*
X00176Y01436*
X00176Y01436*
X00176Y01435*
X00176Y01435*
X00176Y01435*
X00176Y01434*
X00176Y01434*
X00177Y01434*
X00177Y01434*
X00177Y01433*
X00177Y01433*
X00178Y01433*
X00178Y01433*
X00178Y01432*
X00178Y01432*
X00179Y01432*
X00179Y01432*
X00179Y01432*
X0018Y01432*
X0018Y01432*
X0018Y01432*
X00181*
X00181Y01432*
X00181Y01432*
X00182Y01432*
X00182Y01432*
X00182Y01432*
X00183Y01432*
X00183Y01432*
X00183Y01433*
X00184Y01433*
X00184Y01433*
X00184Y01433*
X00184Y01434*
X00185Y01434*
X00185Y01434*
X00185Y01434*
X00185Y01435*
X00185Y01435*
X00185Y01435*
X00185Y01436*
X00186Y01436*
X00186Y01436*
X00186Y01437*
X00186Y01437*
X00186Y01437*
X00185Y01438*
X00185Y01438*
X00185Y01438*
X00185Y01439*
X00185Y01439*
X00185Y01439*
X00185Y0144*
X00184Y0144*
X00184Y0144*
X00184Y0144*
X00184Y01441*
X00183Y01441*
X00183Y01441*
X00183Y01441*
X00182Y01441*
X00182Y01442*
X00182Y01442*
X00181Y01442*
X00181Y01442*
X00181Y01442*
X0018*
X0018Y01442*
X0018Y01442*
X00179Y01442*
X00179Y01442*
X00179Y01441*
X00178Y01441*
X00178Y01441*
X00178Y01441*
X00178Y01441*
X00177Y0144*
X00177Y0144*
X00177Y0144*
X00177Y0144*
X00176Y01439*
X00176Y01439*
X00176Y01439*
X00176Y01438*
X00176Y01438*
X00176Y01438*
X00176Y01437*
X00176Y01437*
X00176Y01437*
Y01354D02*
D01*
X00176Y01353*
X00176Y01353*
X00176Y01353*
X00176Y01352*
X00176Y01352*
X00176Y01352*
X00176Y01351*
X00176Y01351*
X00177Y01351*
X00177Y01351*
X00177Y0135*
X00177Y0135*
X00178Y0135*
X00178Y0135*
X00178Y01349*
X00178Y01349*
X00179Y01349*
X00179Y01349*
X00179Y01349*
X0018Y01349*
X0018Y01349*
X0018Y01349*
X00181*
X00181Y01349*
X00181Y01349*
X00182Y01349*
X00182Y01349*
X00182Y01349*
X00183Y01349*
X00183Y01349*
X00183Y0135*
X00184Y0135*
X00184Y0135*
X00184Y0135*
X00184Y01351*
X00185Y01351*
X00185Y01351*
X00185Y01351*
X00185Y01352*
X00185Y01352*
X00185Y01352*
X00185Y01353*
X00186Y01353*
X00186Y01353*
X00186Y01354*
X00186Y01354*
X00186Y01354*
X00185Y01355*
X00185Y01355*
X00185Y01355*
X00185Y01356*
X00185Y01356*
X00185Y01356*
X00185Y01357*
X00184Y01357*
X00184Y01357*
X00184Y01357*
X00184Y01358*
X00183Y01358*
X00183Y01358*
X00183Y01358*
X00182Y01358*
X00182Y01359*
X00182Y01359*
X00181Y01359*
X00181Y01359*
X00181Y01359*
X0018*
X0018Y01359*
X0018Y01359*
X00179Y01359*
X00179Y01359*
X00179Y01358*
X00178Y01358*
X00178Y01358*
X00178Y01358*
X00178Y01358*
X00177Y01357*
X00177Y01357*
X00177Y01357*
X00177Y01357*
X00176Y01356*
X00176Y01356*
X00176Y01356*
X00176Y01355*
X00176Y01355*
X00176Y01355*
X00176Y01354*
X00176Y01354*
X00176Y01354*
X00221Y01385D02*
D01*
X00221Y01384*
X00221Y01384*
X00221Y01383*
X00221Y01383*
X00221Y01383*
X00221Y01382*
X00221Y01382*
X00221Y01382*
X00222Y01382*
X00222Y01381*
X00222Y01381*
X00222Y01381*
X00223Y01381*
X00223Y0138*
X00223Y0138*
X00223Y0138*
X00224Y0138*
X00224Y0138*
X00224Y0138*
X00225Y0138*
X00225Y0138*
X00225Y0138*
X00226*
X00226Y0138*
X00226Y0138*
X00227Y0138*
X00227Y0138*
X00227Y0138*
X00228Y0138*
X00228Y0138*
X00228Y0138*
X00229Y01381*
X00229Y01381*
X00229Y01381*
X00229Y01381*
X0023Y01382*
X0023Y01382*
X0023Y01382*
X0023Y01382*
X0023Y01383*
X0023Y01383*
X0023Y01383*
X00231Y01384*
X00231Y01384*
X00231Y01385*
X00231Y01385*
X00231Y01385*
X0023Y01386*
X0023Y01386*
X0023Y01386*
X0023Y01387*
X0023Y01387*
X0023Y01387*
X0023Y01387*
X00229Y01388*
X00229Y01388*
X00229Y01388*
X00229Y01388*
X00228Y01389*
X00228Y01389*
X00228Y01389*
X00227Y01389*
X00227Y01389*
X00227Y01389*
X00226Y01389*
X00226Y01389*
X00226Y01389*
X00225*
X00225Y01389*
X00225Y01389*
X00224Y01389*
X00224Y01389*
X00224Y01389*
X00223Y01389*
X00223Y01389*
X00223Y01389*
X00223Y01388*
X00222Y01388*
X00222Y01388*
X00222Y01388*
X00222Y01387*
X00221Y01387*
X00221Y01387*
X00221Y01387*
X00221Y01386*
X00221Y01386*
X00221Y01386*
X00221Y01385*
X00221Y01385*
X00221Y01385*
X00241Y01682D02*
D01*
X00241Y01682*
X00241Y01682*
X00241Y01681*
X00241Y01681*
X00241Y0168*
X00241Y0168*
X00241Y0168*
X00241Y0168*
X00242Y01679*
X00242Y01679*
X00242Y01679*
X00242Y01678*
X00243Y01678*
X00243Y01678*
X00243Y01678*
X00243Y01678*
X00244Y01678*
X00244Y01677*
X00244Y01677*
X00245Y01677*
X00245Y01677*
X00245Y01677*
X00246*
X00246Y01677*
X00246Y01677*
X00247Y01677*
X00247Y01677*
X00247Y01678*
X00248Y01678*
X00248Y01678*
X00248Y01678*
X00249Y01678*
X00249Y01678*
X00249Y01679*
X00249Y01679*
X0025Y01679*
X0025Y0168*
X0025Y0168*
X0025Y0168*
X0025Y0168*
X0025Y01681*
X00251Y01681*
X00251Y01682*
X00251Y01682*
X00251Y01682*
X00251Y01683*
X00251Y01683*
X00251Y01683*
X0025Y01684*
X0025Y01684*
X0025Y01684*
X0025Y01685*
X0025Y01685*
X0025Y01685*
X00249Y01685*
X00249Y01686*
X00249Y01686*
X00249Y01686*
X00248Y01686*
X00248Y01687*
X00248Y01687*
X00247Y01687*
X00247Y01687*
X00247Y01687*
X00246Y01687*
X00246Y01687*
X00246Y01687*
X00245*
X00245Y01687*
X00245Y01687*
X00244Y01687*
X00244Y01687*
X00244Y01687*
X00243Y01687*
X00243Y01687*
X00243Y01686*
X00243Y01686*
X00242Y01686*
X00242Y01686*
X00242Y01685*
X00242Y01685*
X00241Y01685*
X00241Y01685*
X00241Y01684*
X00241Y01684*
X00241Y01684*
X00241Y01683*
X00241Y01683*
X00241Y01683*
X00241Y01682*
X00486D02*
D01*
X00486Y01682*
X00486Y01682*
X00486Y01681*
X00486Y01681*
X00486Y0168*
X00486Y0168*
X00486Y0168*
X00486Y0168*
X00487Y01679*
X00487Y01679*
X00487Y01679*
X00487Y01678*
X00488Y01678*
X00488Y01678*
X00488Y01678*
X00488Y01678*
X00489Y01678*
X00489Y01677*
X00489Y01677*
X0049Y01677*
X0049Y01677*
X0049Y01677*
X00491*
X00491Y01677*
X00491Y01677*
X00492Y01677*
X00492Y01677*
X00492Y01678*
X00493Y01678*
X00493Y01678*
X00493Y01678*
X00494Y01678*
X00494Y01678*
X00494Y01679*
X00494Y01679*
X00495Y01679*
X00495Y0168*
X00495Y0168*
X00495Y0168*
X00495Y0168*
X00495Y01681*
X00495Y01681*
X00496Y01682*
X00496Y01682*
X00496Y01682*
X00496Y01683*
X00496Y01683*
X00495Y01683*
X00495Y01684*
X00495Y01684*
X00495Y01684*
X00495Y01685*
X00495Y01685*
X00495Y01685*
X00494Y01685*
X00494Y01686*
X00494Y01686*
X00494Y01686*
X00493Y01686*
X00493Y01687*
X00493Y01687*
X00492Y01687*
X00492Y01687*
X00492Y01687*
X00491Y01687*
X00491Y01687*
X00491Y01687*
X0049*
X0049Y01687*
X0049Y01687*
X00489Y01687*
X00489Y01687*
X00489Y01687*
X00488Y01687*
X00488Y01687*
X00488Y01686*
X00488Y01686*
X00487Y01686*
X00487Y01686*
X00487Y01685*
X00487Y01685*
X00486Y01685*
X00486Y01685*
X00486Y01684*
X00486Y01684*
X00486Y01684*
X00486Y01683*
X00486Y01683*
X00486Y01683*
X00486Y01682*
X00691Y0168D02*
D01*
X00691Y01679*
X00691Y01679*
X00691Y01678*
X00691Y01678*
X00691Y01678*
X00691Y01677*
X00691Y01677*
X00691Y01677*
X00692Y01677*
X00692Y01676*
X00692Y01676*
X00692Y01676*
X00693Y01676*
X00693Y01675*
X00693Y01675*
X00693Y01675*
X00694Y01675*
X00694Y01675*
X00694Y01675*
X00695Y01675*
X00695Y01675*
X00695Y01675*
X00696*
X00696Y01675*
X00696Y01675*
X00697Y01675*
X00697Y01675*
X00697Y01675*
X00698Y01675*
X00698Y01675*
X00698Y01675*
X00699Y01676*
X00699Y01676*
X00699Y01676*
X00699Y01676*
X007Y01677*
X007Y01677*
X007Y01677*
X007Y01677*
X007Y01678*
X007Y01678*
X007Y01678*
X00701Y01679*
X00701Y01679*
X00701Y0168*
X00701Y0168*
X00701Y0168*
X007Y01681*
X007Y01681*
X007Y01681*
X007Y01682*
X007Y01682*
X007Y01682*
X007Y01682*
X00699Y01683*
X00699Y01683*
X00699Y01683*
X00699Y01683*
X00698Y01684*
X00698Y01684*
X00698Y01684*
X00697Y01684*
X00697Y01684*
X00697Y01684*
X00696Y01684*
X00696Y01684*
X00696Y01684*
X00695*
X00695Y01684*
X00695Y01684*
X00694Y01684*
X00694Y01684*
X00694Y01684*
X00693Y01684*
X00693Y01684*
X00693Y01684*
X00693Y01683*
X00692Y01683*
X00692Y01683*
X00692Y01683*
X00692Y01682*
X00691Y01682*
X00691Y01682*
X00691Y01682*
X00691Y01681*
X00691Y01681*
X00691Y01681*
X00691Y0168*
X00691Y0168*
X00691Y0168*
X00936Y01675D02*
D01*
X00936Y01674*
X00936Y01674*
X00936Y01673*
X00936Y01673*
X00936Y01673*
X00936Y01672*
X00936Y01672*
X00936Y01672*
X00937Y01672*
X00937Y01671*
X00937Y01671*
X00937Y01671*
X00938Y01671*
X00938Y0167*
X00938Y0167*
X00938Y0167*
X00939Y0167*
X00939Y0167*
X00939Y0167*
X0094Y0167*
X0094Y0167*
X0094Y0167*
X00941*
X00941Y0167*
X00941Y0167*
X00942Y0167*
X00942Y0167*
X00942Y0167*
X00943Y0167*
X00943Y0167*
X00943Y0167*
X00944Y01671*
X00944Y01671*
X00944Y01671*
X00944Y01671*
X00945Y01672*
X00945Y01672*
X00945Y01672*
X00945Y01672*
X00945Y01673*
X00945Y01673*
X00945Y01673*
X00946Y01674*
X00946Y01674*
X00946Y01675*
X00946Y01675*
X00946Y01675*
X00945Y01676*
X00945Y01676*
X00945Y01676*
X00945Y01677*
X00945Y01677*
X00945Y01677*
X00945Y01677*
X00944Y01678*
X00944Y01678*
X00944Y01678*
X00944Y01678*
X00943Y01679*
X00943Y01679*
X00943Y01679*
X00942Y01679*
X00942Y01679*
X00942Y01679*
X00941Y01679*
X00941Y01679*
X00941Y01679*
X0094*
X0094Y01679*
X0094Y01679*
X00939Y01679*
X00939Y01679*
X00939Y01679*
X00938Y01679*
X00938Y01679*
X00938Y01679*
X00938Y01678*
X00937Y01678*
X00937Y01678*
X00937Y01678*
X00937Y01677*
X00936Y01677*
X00936Y01677*
X00936Y01677*
X00936Y01676*
X00936Y01676*
X00936Y01676*
X00936Y01675*
X00936Y01675*
X00936Y01675*
X00708Y01525D02*
D01*
X00708Y01524*
X00708Y01524*
X00708Y01523*
X00709Y01523*
X00709Y01523*
X00709Y01522*
X00709Y01522*
X00709Y01522*
X00709Y01522*
X00709Y01521*
X0071Y01521*
X0071Y01521*
X0071Y01521*
X00711Y0152*
X00711Y0152*
X00711Y0152*
X00711Y0152*
X00712Y0152*
X00712Y0152*
X00712Y0152*
X00713Y0152*
X00713Y0152*
X00713*
X00714Y0152*
X00714Y0152*
X00715Y0152*
X00715Y0152*
X00715Y0152*
X00716Y0152*
X00716Y0152*
X00716Y0152*
X00716Y01521*
X00717Y01521*
X00717Y01521*
X00717Y01521*
X00717Y01522*
X00718Y01522*
X00718Y01522*
X00718Y01522*
X00718Y01523*
X00718Y01523*
X00718Y01523*
X00718Y01524*
X00718Y01524*
X00718Y01525*
X00718Y01525*
X00718Y01525*
X00718Y01526*
X00718Y01526*
X00718Y01526*
X00718Y01527*
X00718Y01527*
X00718Y01527*
X00717Y01527*
X00717Y01528*
X00717Y01528*
X00717Y01528*
X00716Y01528*
X00716Y01529*
X00716Y01529*
X00716Y01529*
X00715Y01529*
X00715Y01529*
X00715Y01529*
X00714Y01529*
X00714Y01529*
X00713Y01529*
X00713*
X00713Y01529*
X00712Y01529*
X00712Y01529*
X00712Y01529*
X00711Y01529*
X00711Y01529*
X00711Y01529*
X00711Y01529*
X0071Y01528*
X0071Y01528*
X0071Y01528*
X00709Y01528*
X00709Y01527*
X00709Y01527*
X00709Y01527*
X00709Y01527*
X00709Y01526*
X00709Y01526*
X00708Y01526*
X00708Y01525*
X00708Y01525*
X00708Y01525*
X00825D02*
D01*
X00825Y01524*
X00825Y01524*
X00825Y01523*
X00825Y01523*
X00825Y01523*
X00825Y01522*
X00825Y01522*
X00826Y01522*
X00826Y01522*
X00826Y01521*
X00826Y01521*
X00827Y01521*
X00827Y01521*
X00827Y0152*
X00827Y0152*
X00828Y0152*
X00828Y0152*
X00828Y0152*
X00829Y0152*
X00829Y0152*
X00829Y0152*
X0083Y0152*
X0083*
X0083Y0152*
X00831Y0152*
X00831Y0152*
X00831Y0152*
X00832Y0152*
X00832Y0152*
X00832Y0152*
X00833Y0152*
X00833Y01521*
X00833Y01521*
X00833Y01521*
X00834Y01521*
X00834Y01522*
X00834Y01522*
X00834Y01522*
X00834Y01522*
X00835Y01523*
X00835Y01523*
X00835Y01523*
X00835Y01524*
X00835Y01524*
X00835Y01525*
X00835Y01525*
X00835Y01525*
X00835Y01526*
X00835Y01526*
X00835Y01526*
X00834Y01527*
X00834Y01527*
X00834Y01527*
X00834Y01527*
X00834Y01528*
X00833Y01528*
X00833Y01528*
X00833Y01528*
X00833Y01529*
X00832Y01529*
X00832Y01529*
X00832Y01529*
X00831Y01529*
X00831Y01529*
X00831Y01529*
X0083Y01529*
X0083Y01529*
X0083*
X00829Y01529*
X00829Y01529*
X00829Y01529*
X00828Y01529*
X00828Y01529*
X00828Y01529*
X00827Y01529*
X00827Y01529*
X00827Y01528*
X00827Y01528*
X00826Y01528*
X00826Y01528*
X00826Y01527*
X00826Y01527*
X00825Y01527*
X00825Y01527*
X00825Y01526*
X00825Y01526*
X00825Y01526*
X00825Y01525*
X00825Y01525*
X00825Y01525*
X00788Y0148D02*
D01*
X00788Y01479*
X00788Y01479*
X00788Y01478*
X00788Y01478*
X00788Y01478*
X00788Y01477*
X00788Y01477*
X00789Y01477*
X00789Y01477*
X00789Y01476*
X00789Y01476*
X0079Y01476*
X0079Y01476*
X0079Y01475*
X0079Y01475*
X00791Y01475*
X00791Y01475*
X00791Y01475*
X00792Y01475*
X00792Y01475*
X00792Y01475*
X00793Y01475*
X00793*
X00793Y01475*
X00794Y01475*
X00794Y01475*
X00794Y01475*
X00795Y01475*
X00795Y01475*
X00795Y01475*
X00796Y01475*
X00796Y01476*
X00796Y01476*
X00796Y01476*
X00797Y01476*
X00797Y01477*
X00797Y01477*
X00797Y01477*
X00797Y01477*
X00798Y01478*
X00798Y01478*
X00798Y01478*
X00798Y01479*
X00798Y01479*
X00798Y0148*
X00798Y0148*
X00798Y0148*
X00798Y01481*
X00798Y01481*
X00798Y01481*
X00797Y01482*
X00797Y01482*
X00797Y01482*
X00797Y01482*
X00797Y01483*
X00796Y01483*
X00796Y01483*
X00796Y01483*
X00796Y01484*
X00795Y01484*
X00795Y01484*
X00795Y01484*
X00794Y01484*
X00794Y01484*
X00794Y01484*
X00793Y01484*
X00793Y01484*
X00793*
X00792Y01484*
X00792Y01484*
X00792Y01484*
X00791Y01484*
X00791Y01484*
X00791Y01484*
X0079Y01484*
X0079Y01484*
X0079Y01483*
X0079Y01483*
X00789Y01483*
X00789Y01483*
X00789Y01482*
X00789Y01482*
X00788Y01482*
X00788Y01482*
X00788Y01481*
X00788Y01481*
X00788Y01481*
X00788Y0148*
X00788Y0148*
X00788Y0148*
X00536Y01525D02*
D01*
X00536Y01524*
X00536Y01524*
X00536Y01523*
X00536Y01523*
X00536Y01523*
X00536Y01522*
X00536Y01522*
X00536Y01522*
X00537Y01522*
X00537Y01521*
X00537Y01521*
X00537Y01521*
X00538Y01521*
X00538Y0152*
X00538Y0152*
X00538Y0152*
X00539Y0152*
X00539Y0152*
X00539Y0152*
X0054Y0152*
X0054Y0152*
X0054Y0152*
X00541*
X00541Y0152*
X00541Y0152*
X00542Y0152*
X00542Y0152*
X00542Y0152*
X00543Y0152*
X00543Y0152*
X00543Y0152*
X00544Y01521*
X00544Y01521*
X00544Y01521*
X00544Y01521*
X00545Y01522*
X00545Y01522*
X00545Y01522*
X00545Y01522*
X00545Y01523*
X00545Y01523*
X00545Y01523*
X00546Y01524*
X00546Y01524*
X00546Y01525*
X00546Y01525*
X00546Y01525*
X00545Y01526*
X00545Y01526*
X00545Y01526*
X00545Y01527*
X00545Y01527*
X00545Y01527*
X00545Y01527*
X00544Y01528*
X00544Y01528*
X00544Y01528*
X00544Y01528*
X00543Y01529*
X00543Y01529*
X00543Y01529*
X00542Y01529*
X00542Y01529*
X00542Y01529*
X00541Y01529*
X00541Y01529*
X00541Y01529*
X0054*
X0054Y01529*
X0054Y01529*
X00539Y01529*
X00539Y01529*
X00539Y01529*
X00538Y01529*
X00538Y01529*
X00538Y01529*
X00538Y01528*
X00537Y01528*
X00537Y01528*
X00537Y01528*
X00537Y01527*
X00536Y01527*
X00536Y01527*
X00536Y01527*
X00536Y01526*
X00536Y01526*
X00536Y01526*
X00536Y01525*
X00536Y01525*
X00536Y01525*
Y0157D02*
D01*
X00536Y01569*
X00536Y01569*
X00536Y01568*
X00536Y01568*
X00536Y01568*
X00536Y01567*
X00536Y01567*
X00536Y01567*
X00537Y01567*
X00537Y01566*
X00537Y01566*
X00537Y01566*
X00538Y01566*
X00538Y01565*
X00538Y01565*
X00538Y01565*
X00539Y01565*
X00539Y01565*
X00539Y01565*
X0054Y01565*
X0054Y01565*
X0054Y01565*
X00541*
X00541Y01565*
X00541Y01565*
X00542Y01565*
X00542Y01565*
X00542Y01565*
X00543Y01565*
X00543Y01565*
X00543Y01565*
X00544Y01566*
X00544Y01566*
X00544Y01566*
X00544Y01566*
X00545Y01567*
X00545Y01567*
X00545Y01567*
X00545Y01567*
X00545Y01568*
X00545Y01568*
X00545Y01568*
X00546Y01569*
X00546Y01569*
X00546Y0157*
X00546Y0157*
X00546Y0157*
X00545Y01571*
X00545Y01571*
X00545Y01571*
X00545Y01572*
X00545Y01572*
X00545Y01572*
X00545Y01572*
X00544Y01573*
X00544Y01573*
X00544Y01573*
X00544Y01573*
X00543Y01574*
X00543Y01574*
X00543Y01574*
X00542Y01574*
X00542Y01574*
X00542Y01574*
X00541Y01574*
X00541Y01574*
X00541Y01574*
X0054*
X0054Y01574*
X0054Y01574*
X00539Y01574*
X00539Y01574*
X00539Y01574*
X00538Y01574*
X00538Y01574*
X00538Y01574*
X00538Y01573*
X00537Y01573*
X00537Y01573*
X00537Y01573*
X00537Y01572*
X00536Y01572*
X00536Y01572*
X00536Y01572*
X00536Y01571*
X00536Y01571*
X00536Y01571*
X00536Y0157*
X00536Y0157*
X00536Y0157*
X00621Y01442D02*
D01*
X00621Y01442*
X00621Y01442*
X00621Y01441*
X00621Y01441*
X00621Y0144*
X00621Y0144*
X00621Y0144*
X00621Y0144*
X00622Y01439*
X00622Y01439*
X00622Y01439*
X00622Y01438*
X00623Y01438*
X00623Y01438*
X00623Y01438*
X00623Y01438*
X00624Y01438*
X00624Y01437*
X00624Y01437*
X00625Y01437*
X00625Y01437*
X00625Y01437*
X00626*
X00626Y01437*
X00626Y01437*
X00627Y01437*
X00627Y01437*
X00627Y01438*
X00628Y01438*
X00628Y01438*
X00628Y01438*
X00629Y01438*
X00629Y01438*
X00629Y01439*
X00629Y01439*
X0063Y01439*
X0063Y0144*
X0063Y0144*
X0063Y0144*
X0063Y0144*
X0063Y01441*
X00631Y01441*
X00631Y01442*
X00631Y01442*
X00631Y01442*
X00631Y01443*
X00631Y01443*
X00631Y01443*
X0063Y01444*
X0063Y01444*
X0063Y01444*
X0063Y01445*
X0063Y01445*
X0063Y01445*
X00629Y01445*
X00629Y01446*
X00629Y01446*
X00629Y01446*
X00628Y01446*
X00628Y01447*
X00628Y01447*
X00627Y01447*
X00627Y01447*
X00627Y01447*
X00626Y01447*
X00626Y01447*
X00626Y01447*
X00625*
X00625Y01447*
X00625Y01447*
X00624Y01447*
X00624Y01447*
X00624Y01447*
X00623Y01447*
X00623Y01447*
X00623Y01446*
X00623Y01446*
X00622Y01446*
X00622Y01446*
X00622Y01445*
X00622Y01445*
X00621Y01445*
X00621Y01445*
X00621Y01444*
X00621Y01444*
X00621Y01444*
X00621Y01443*
X00621Y01443*
X00621Y01443*
X00621Y01442*
X00666Y01397D02*
D01*
X00666Y01397*
X00666Y01397*
X00666Y01396*
X00666Y01396*
X00666Y01395*
X00666Y01395*
X00666Y01395*
X00666Y01395*
X00667Y01394*
X00667Y01394*
X00667Y01394*
X00667Y01393*
X00668Y01393*
X00668Y01393*
X00668Y01393*
X00668Y01393*
X00669Y01393*
X00669Y01392*
X00669Y01392*
X0067Y01392*
X0067Y01392*
X0067Y01392*
X00671*
X00671Y01392*
X00671Y01392*
X00672Y01392*
X00672Y01392*
X00672Y01393*
X00673Y01393*
X00673Y01393*
X00673Y01393*
X00674Y01393*
X00674Y01393*
X00674Y01394*
X00674Y01394*
X00675Y01394*
X00675Y01395*
X00675Y01395*
X00675Y01395*
X00675Y01395*
X00675Y01396*
X00675Y01396*
X00676Y01397*
X00676Y01397*
X00676Y01397*
X00676Y01398*
X00676Y01398*
X00675Y01398*
X00675Y01399*
X00675Y01399*
X00675Y01399*
X00675Y014*
X00675Y014*
X00675Y014*
X00674Y014*
X00674Y01401*
X00674Y01401*
X00674Y01401*
X00673Y01401*
X00673Y01402*
X00673Y01402*
X00672Y01402*
X00672Y01402*
X00672Y01402*
X00671Y01402*
X00671Y01402*
X00671Y01402*
X0067*
X0067Y01402*
X0067Y01402*
X00669Y01402*
X00669Y01402*
X00669Y01402*
X00668Y01402*
X00668Y01402*
X00668Y01401*
X00668Y01401*
X00667Y01401*
X00667Y01401*
X00667Y014*
X00667Y014*
X00666Y014*
X00666Y014*
X00666Y01399*
X00666Y01399*
X00666Y01399*
X00666Y01398*
X00666Y01398*
X00666Y01398*
X00666Y01397*
X00621Y01364D02*
D01*
X00621Y01363*
X00621Y01363*
X00621Y01363*
X00621Y01362*
X00621Y01362*
X00621Y01362*
X00621Y01361*
X00621Y01361*
X00622Y01361*
X00622Y01361*
X00622Y0136*
X00622Y0136*
X00623Y0136*
X00623Y0136*
X00623Y01359*
X00623Y01359*
X00624Y01359*
X00624Y01359*
X00624Y01359*
X00625Y01359*
X00625Y01359*
X00625Y01359*
X00626*
X00626Y01359*
X00626Y01359*
X00627Y01359*
X00627Y01359*
X00627Y01359*
X00628Y01359*
X00628Y01359*
X00628Y0136*
X00629Y0136*
X00629Y0136*
X00629Y0136*
X00629Y01361*
X0063Y01361*
X0063Y01361*
X0063Y01361*
X0063Y01362*
X0063Y01362*
X0063Y01362*
X00631Y01363*
X00631Y01363*
X00631Y01363*
X00631Y01364*
X00631Y01364*
X00631Y01364*
X00631Y01365*
X0063Y01365*
X0063Y01365*
X0063Y01366*
X0063Y01366*
X0063Y01366*
X0063Y01367*
X00629Y01367*
X00629Y01367*
X00629Y01367*
X00629Y01368*
X00628Y01368*
X00628Y01368*
X00628Y01368*
X00627Y01368*
X00627Y01369*
X00627Y01369*
X00626Y01369*
X00626Y01369*
X00626Y01369*
X00625*
X00625Y01369*
X00625Y01369*
X00624Y01369*
X00624Y01369*
X00624Y01368*
X00623Y01368*
X00623Y01368*
X00623Y01368*
X00623Y01368*
X00622Y01367*
X00622Y01367*
X00622Y01367*
X00622Y01367*
X00621Y01366*
X00621Y01366*
X00621Y01366*
X00621Y01365*
X00621Y01365*
X00621Y01365*
X00621Y01364*
X00621Y01364*
X00621Y01364*
X00511Y01257D02*
D01*
X00511Y01257*
X00511Y01257*
X00511Y01256*
X00511Y01256*
X00511Y01256*
X00511Y01255*
X00511Y01255*
X00511Y01255*
X00512Y01254*
X00512Y01254*
X00512Y01254*
X00512Y01254*
X00513Y01253*
X00513Y01253*
X00513Y01253*
X00513Y01253*
X00514Y01253*
X00514Y01252*
X00514Y01252*
X00515Y01252*
X00515Y01252*
X00515Y01252*
X00516*
X00516Y01252*
X00516Y01252*
X00517Y01252*
X00517Y01252*
X00517Y01253*
X00518Y01253*
X00518Y01253*
X00518Y01253*
X00519Y01253*
X00519Y01254*
X00519Y01254*
X00519Y01254*
X0052Y01254*
X0052Y01255*
X0052Y01255*
X0052Y01255*
X0052Y01256*
X0052Y01256*
X0052Y01256*
X00521Y01257*
X00521Y01257*
X00521Y01257*
X00521Y01258*
X00521Y01258*
X0052Y01258*
X0052Y01259*
X0052Y01259*
X0052Y01259*
X0052Y0126*
X0052Y0126*
X0052Y0126*
X00519Y0126*
X00519Y01261*
X00519Y01261*
X00519Y01261*
X00518Y01261*
X00518Y01262*
X00518Y01262*
X00517Y01262*
X00517Y01262*
X00517Y01262*
X00516Y01262*
X00516Y01262*
X00516Y01262*
X00515*
X00515Y01262*
X00515Y01262*
X00514Y01262*
X00514Y01262*
X00514Y01262*
X00513Y01262*
X00513Y01262*
X00513Y01261*
X00513Y01261*
X00512Y01261*
X00512Y01261*
X00512Y0126*
X00512Y0126*
X00511Y0126*
X00511Y0126*
X00511Y01259*
X00511Y01259*
X00511Y01259*
X00511Y01258*
X00511Y01258*
X00511Y01258*
X00511Y01257*
X00263Y012D02*
D01*
X00263Y01199*
X00263Y01199*
X00263Y01198*
X00264Y01198*
X00264Y01198*
X00264Y01197*
X00264Y01197*
X00264Y01197*
X00264Y01197*
X00264Y01196*
X00265Y01196*
X00265Y01196*
X00265Y01196*
X00266Y01195*
X00266Y01195*
X00266Y01195*
X00266Y01195*
X00267Y01195*
X00267Y01195*
X00267Y01195*
X00268Y01195*
X00268Y01195*
X00268*
X00269Y01195*
X00269Y01195*
X0027Y01195*
X0027Y01195*
X0027Y01195*
X00271Y01195*
X00271Y01195*
X00271Y01195*
X00271Y01196*
X00272Y01196*
X00272Y01196*
X00272Y01196*
X00272Y01197*
X00273Y01197*
X00273Y01197*
X00273Y01197*
X00273Y01198*
X00273Y01198*
X00273Y01198*
X00273Y01199*
X00273Y01199*
X00273Y012*
X00273Y012*
X00273Y012*
X00273Y01201*
X00273Y01201*
X00273Y01201*
X00273Y01202*
X00273Y01202*
X00273Y01202*
X00272Y01202*
X00272Y01203*
X00272Y01203*
X00272Y01203*
X00271Y01203*
X00271Y01204*
X00271Y01204*
X00271Y01204*
X0027Y01204*
X0027Y01204*
X0027Y01204*
X00269Y01204*
X00269Y01204*
X00268Y01204*
X00268*
X00268Y01204*
X00267Y01204*
X00267Y01204*
X00267Y01204*
X00266Y01204*
X00266Y01204*
X00266Y01204*
X00266Y01204*
X00265Y01203*
X00265Y01203*
X00265Y01203*
X00264Y01203*
X00264Y01202*
X00264Y01202*
X00264Y01202*
X00264Y01202*
X00264Y01201*
X00264Y01201*
X00263Y01201*
X00263Y012*
X00263Y012*
X00263Y012*
X0039Y0104D02*
D01*
X0039Y01039*
X0039Y01039*
X0039Y01038*
X0039Y01038*
X0039Y01038*
X0039Y01037*
X0039Y01037*
X00391Y01037*
X00391Y01037*
X00391Y01036*
X00391Y01036*
X00392Y01036*
X00392Y01036*
X00392Y01035*
X00392Y01035*
X00393Y01035*
X00393Y01035*
X00393Y01035*
X00394Y01035*
X00394Y01035*
X00394Y01035*
X00395Y01035*
X00395*
X00395Y01035*
X00396Y01035*
X00396Y01035*
X00396Y01035*
X00397Y01035*
X00397Y01035*
X00397Y01035*
X00398Y01035*
X00398Y01036*
X00398Y01036*
X00398Y01036*
X00399Y01036*
X00399Y01037*
X00399Y01037*
X00399Y01037*
X00399Y01037*
X004Y01038*
X004Y01038*
X004Y01038*
X004Y01039*
X004Y01039*
X004Y0104*
X004Y0104*
X004Y0104*
X004Y01041*
X004Y01041*
X004Y01041*
X00399Y01042*
X00399Y01042*
X00399Y01042*
X00399Y01042*
X00399Y01043*
X00398Y01043*
X00398Y01043*
X00398Y01043*
X00398Y01044*
X00397Y01044*
X00397Y01044*
X00397Y01044*
X00396Y01044*
X00396Y01044*
X00396Y01044*
X00395Y01044*
X00395Y01044*
X00395*
X00394Y01044*
X00394Y01044*
X00394Y01044*
X00393Y01044*
X00393Y01044*
X00393Y01044*
X00392Y01044*
X00392Y01044*
X00392Y01043*
X00392Y01043*
X00391Y01043*
X00391Y01043*
X00391Y01042*
X00391Y01042*
X0039Y01042*
X0039Y01042*
X0039Y01041*
X0039Y01041*
X0039Y01041*
X0039Y0104*
X0039Y0104*
X0039Y0104*
X00391Y01085D02*
D01*
X00391Y01084*
X00391Y01084*
X00391Y01083*
X00391Y01083*
X00391Y01083*
X00391Y01082*
X00391Y01082*
X00391Y01082*
X00392Y01082*
X00392Y01081*
X00392Y01081*
X00392Y01081*
X00393Y01081*
X00393Y0108*
X00393Y0108*
X00393Y0108*
X00394Y0108*
X00394Y0108*
X00394Y0108*
X00395Y0108*
X00395Y0108*
X00395Y0108*
X00396*
X00396Y0108*
X00396Y0108*
X00397Y0108*
X00397Y0108*
X00397Y0108*
X00398Y0108*
X00398Y0108*
X00398Y0108*
X00399Y01081*
X00399Y01081*
X00399Y01081*
X00399Y01081*
X004Y01082*
X004Y01082*
X004Y01082*
X004Y01082*
X004Y01083*
X004Y01083*
X004Y01083*
X00401Y01084*
X00401Y01084*
X00401Y01085*
X00401Y01085*
X00401Y01085*
X004Y01086*
X004Y01086*
X004Y01086*
X004Y01087*
X004Y01087*
X004Y01087*
X004Y01087*
X00399Y01088*
X00399Y01088*
X00399Y01088*
X00399Y01088*
X00398Y01089*
X00398Y01089*
X00398Y01089*
X00397Y01089*
X00397Y01089*
X00397Y01089*
X00396Y01089*
X00396Y01089*
X00396Y01089*
X00395*
X00395Y01089*
X00395Y01089*
X00394Y01089*
X00394Y01089*
X00394Y01089*
X00393Y01089*
X00393Y01089*
X00393Y01089*
X00393Y01088*
X00392Y01088*
X00392Y01088*
X00392Y01088*
X00392Y01087*
X00391Y01087*
X00391Y01087*
X00391Y01087*
X00391Y01086*
X00391Y01086*
X00391Y01086*
X00391Y01085*
X00391Y01085*
X00391Y01085*
X00263Y0108D02*
D01*
X00263Y01079*
X00263Y01079*
X00263Y01078*
X00264Y01078*
X00264Y01078*
X00264Y01077*
X00264Y01077*
X00264Y01077*
X00264Y01077*
X00264Y01076*
X00265Y01076*
X00265Y01076*
X00265Y01076*
X00266Y01075*
X00266Y01075*
X00266Y01075*
X00266Y01075*
X00267Y01075*
X00267Y01075*
X00267Y01075*
X00268Y01075*
X00268Y01075*
X00268*
X00269Y01075*
X00269Y01075*
X0027Y01075*
X0027Y01075*
X0027Y01075*
X00271Y01075*
X00271Y01075*
X00271Y01075*
X00271Y01076*
X00272Y01076*
X00272Y01076*
X00272Y01076*
X00272Y01077*
X00273Y01077*
X00273Y01077*
X00273Y01077*
X00273Y01078*
X00273Y01078*
X00273Y01078*
X00273Y01079*
X00273Y01079*
X00273Y0108*
X00273Y0108*
X00273Y0108*
X00273Y01081*
X00273Y01081*
X00273Y01081*
X00273Y01082*
X00273Y01082*
X00273Y01082*
X00272Y01082*
X00272Y01083*
X00272Y01083*
X00272Y01083*
X00271Y01083*
X00271Y01084*
X00271Y01084*
X00271Y01084*
X0027Y01084*
X0027Y01084*
X0027Y01084*
X00269Y01084*
X00269Y01084*
X00268Y01084*
X00268*
X00268Y01084*
X00267Y01084*
X00267Y01084*
X00267Y01084*
X00266Y01084*
X00266Y01084*
X00266Y01084*
X00266Y01084*
X00265Y01083*
X00265Y01083*
X00265Y01083*
X00264Y01083*
X00264Y01082*
X00264Y01082*
X00264Y01082*
X00264Y01082*
X00264Y01081*
X00264Y01081*
X00263Y01081*
X00263Y0108*
X00263Y0108*
X00263Y0108*
X00146Y00913D02*
D01*
X00146Y00913*
X00146Y00912*
X00146Y00912*
X00147Y00912*
X00147Y00911*
X00147Y00911*
X00147Y00911*
X00147Y0091*
X00147Y0091*
X00148Y0091*
X00148Y0091*
X00148Y00909*
X00148Y00909*
X00149Y00909*
X00149Y00909*
X00149Y00908*
X00149Y00908*
X0015Y00908*
X0015Y00908*
X00151Y00908*
X00151Y00908*
X00151Y00908*
X00152*
X00152Y00908*
X00152Y00908*
X00153Y00908*
X00153Y00908*
X00153Y00908*
X00154Y00908*
X00154Y00909*
X00154Y00909*
X00154Y00909*
X00155Y00909*
X00155Y0091*
X00155Y0091*
X00155Y0091*
X00156Y0091*
X00156Y00911*
X00156Y00911*
X00156Y00911*
X00156Y00912*
X00156Y00912*
X00156Y00912*
X00156Y00913*
X00156Y00913*
X00156Y00913*
X00156Y00914*
X00156Y00914*
X00156Y00914*
X00156Y00915*
X00156Y00915*
X00156Y00915*
X00156Y00916*
X00155Y00916*
X00155Y00916*
X00155Y00916*
X00155Y00917*
X00154Y00917*
X00154Y00917*
X00154Y00917*
X00154Y00917*
X00153Y00918*
X00153Y00918*
X00153Y00918*
X00152Y00918*
X00152Y00918*
X00152Y00918*
X00151*
X00151Y00918*
X00151Y00918*
X0015Y00918*
X0015Y00918*
X00149Y00918*
X00149Y00917*
X00149Y00917*
X00149Y00917*
X00148Y00917*
X00148Y00917*
X00148Y00916*
X00148Y00916*
X00147Y00916*
X00147Y00916*
X00147Y00915*
X00147Y00915*
X00147Y00915*
X00147Y00914*
X00146Y00914*
X00146Y00914*
X00146Y00913*
X00146Y00913*
X00151Y00997D02*
D01*
X00151Y00997*
X00151Y00997*
X00151Y00996*
X00151Y00996*
X00151Y00995*
X00151Y00995*
X00151Y00995*
X00151Y00995*
X00152Y00994*
X00152Y00994*
X00152Y00994*
X00152Y00993*
X00153Y00993*
X00153Y00993*
X00153Y00993*
X00153Y00993*
X00154Y00993*
X00154Y00992*
X00154Y00992*
X00155Y00992*
X00155Y00992*
X00155Y00992*
X00156*
X00156Y00992*
X00156Y00992*
X00157Y00992*
X00157Y00992*
X00157Y00993*
X00158Y00993*
X00158Y00993*
X00158Y00993*
X00159Y00993*
X00159Y00993*
X00159Y00994*
X00159Y00994*
X0016Y00994*
X0016Y00995*
X0016Y00995*
X0016Y00995*
X0016Y00995*
X0016Y00996*
X00161Y00996*
X00161Y00997*
X00161Y00997*
X00161Y00997*
X00161Y00998*
X00161Y00998*
X00161Y00998*
X0016Y00999*
X0016Y00999*
X0016Y00999*
X0016Y01*
X0016Y01*
X0016Y01*
X00159Y01*
X00159Y01001*
X00159Y01001*
X00159Y01001*
X00158Y01001*
X00158Y01002*
X00158Y01002*
X00157Y01002*
X00157Y01002*
X00157Y01002*
X00156Y01002*
X00156Y01002*
X00156Y01002*
X00155*
X00155Y01002*
X00155Y01002*
X00154Y01002*
X00154Y01002*
X00154Y01002*
X00153Y01002*
X00153Y01002*
X00153Y01001*
X00153Y01001*
X00152Y01001*
X00152Y01001*
X00152Y01*
X00152Y01*
X00151Y01*
X00151Y01*
X00151Y00999*
X00151Y00999*
X00151Y00999*
X00151Y00998*
X00151Y00998*
X00151Y00998*
X00151Y00997*
X00196Y00949D02*
D01*
X00196Y00948*
X00196Y00948*
X00196Y00948*
X00196Y00947*
X00196Y00947*
X00196Y00947*
X00196Y00946*
X00196Y00946*
X00197Y00946*
X00197Y00946*
X00197Y00945*
X00197Y00945*
X00198Y00945*
X00198Y00945*
X00198Y00944*
X00198Y00944*
X00199Y00944*
X00199Y00944*
X00199Y00944*
X002Y00944*
X002Y00944*
X002Y00944*
X00201*
X00201Y00944*
X00201Y00944*
X00202Y00944*
X00202Y00944*
X00202Y00944*
X00203Y00944*
X00203Y00944*
X00203Y00945*
X00204Y00945*
X00204Y00945*
X00204Y00945*
X00204Y00946*
X00205Y00946*
X00205Y00946*
X00205Y00946*
X00205Y00947*
X00205Y00947*
X00205Y00947*
X00206Y00948*
X00206Y00948*
X00206Y00948*
X00206Y00949*
X00206Y00949*
X00206Y00949*
X00206Y0095*
X00205Y0095*
X00205Y0095*
X00205Y00951*
X00205Y00951*
X00205Y00951*
X00205Y00952*
X00204Y00952*
X00204Y00952*
X00204Y00952*
X00204Y00953*
X00203Y00953*
X00203Y00953*
X00203Y00953*
X00202Y00953*
X00202Y00954*
X00202Y00954*
X00201Y00954*
X00201Y00954*
X00201Y00954*
X002*
X002Y00954*
X002Y00954*
X00199Y00954*
X00199Y00954*
X00199Y00953*
X00198Y00953*
X00198Y00953*
X00198Y00953*
X00198Y00953*
X00197Y00952*
X00197Y00952*
X00197Y00952*
X00197Y00952*
X00196Y00951*
X00196Y00951*
X00196Y00951*
X00196Y0095*
X00196Y0095*
X00196Y0095*
X00196Y00949*
X00196Y00949*
X00196Y00949*
X00703Y01195D02*
D01*
X00703Y01194*
X00703Y01194*
X00703Y01193*
X00704Y01193*
X00704Y01193*
X00704Y01192*
X00704Y01192*
X00704Y01192*
X00704Y01192*
X00704Y01191*
X00705Y01191*
X00705Y01191*
X00705Y01191*
X00706Y0119*
X00706Y0119*
X00706Y0119*
X00706Y0119*
X00707Y0119*
X00707Y0119*
X00707Y0119*
X00708Y0119*
X00708Y0119*
X00708*
X00709Y0119*
X00709Y0119*
X0071Y0119*
X0071Y0119*
X0071Y0119*
X00711Y0119*
X00711Y0119*
X00711Y0119*
X00711Y01191*
X00712Y01191*
X00712Y01191*
X00712Y01191*
X00712Y01192*
X00713Y01192*
X00713Y01192*
X00713Y01192*
X00713Y01193*
X00713Y01193*
X00713Y01193*
X00713Y01194*
X00713Y01194*
X00713Y01195*
X00713Y01195*
X00713Y01195*
X00713Y01196*
X00713Y01196*
X00713Y01196*
X00713Y01197*
X00713Y01197*
X00713Y01197*
X00712Y01197*
X00712Y01198*
X00712Y01198*
X00712Y01198*
X00711Y01198*
X00711Y01199*
X00711Y01199*
X00711Y01199*
X0071Y01199*
X0071Y01199*
X0071Y01199*
X00709Y01199*
X00709Y01199*
X00708Y01199*
X00708*
X00708Y01199*
X00707Y01199*
X00707Y01199*
X00707Y01199*
X00706Y01199*
X00706Y01199*
X00706Y01199*
X00706Y01199*
X00705Y01198*
X00705Y01198*
X00705Y01198*
X00704Y01198*
X00704Y01197*
X00704Y01197*
X00704Y01197*
X00704Y01197*
X00704Y01196*
X00704Y01196*
X00703Y01196*
X00703Y01195*
X00703Y01195*
X00703Y01195*
X00825Y0104D02*
D01*
X00825Y01039*
X00825Y01039*
X00825Y01038*
X00825Y01038*
X00825Y01038*
X00825Y01037*
X00825Y01037*
X00826Y01037*
X00826Y01037*
X00826Y01036*
X00826Y01036*
X00827Y01036*
X00827Y01036*
X00827Y01035*
X00827Y01035*
X00828Y01035*
X00828Y01035*
X00828Y01035*
X00829Y01035*
X00829Y01035*
X00829Y01035*
X0083Y01035*
X0083*
X0083Y01035*
X00831Y01035*
X00831Y01035*
X00831Y01035*
X00832Y01035*
X00832Y01035*
X00832Y01035*
X00833Y01035*
X00833Y01036*
X00833Y01036*
X00833Y01036*
X00834Y01036*
X00834Y01037*
X00834Y01037*
X00834Y01037*
X00834Y01037*
X00835Y01038*
X00835Y01038*
X00835Y01038*
X00835Y01039*
X00835Y01039*
X00835Y0104*
X00835Y0104*
X00835Y0104*
X00835Y01041*
X00835Y01041*
X00835Y01041*
X00834Y01042*
X00834Y01042*
X00834Y01042*
X00834Y01042*
X00834Y01043*
X00833Y01043*
X00833Y01043*
X00833Y01043*
X00833Y01044*
X00832Y01044*
X00832Y01044*
X00832Y01044*
X00831Y01044*
X00831Y01044*
X00831Y01044*
X0083Y01044*
X0083Y01044*
X0083*
X00829Y01044*
X00829Y01044*
X00829Y01044*
X00828Y01044*
X00828Y01044*
X00828Y01044*
X00827Y01044*
X00827Y01044*
X00827Y01043*
X00827Y01043*
X00826Y01043*
X00826Y01043*
X00826Y01042*
X00826Y01042*
X00825Y01042*
X00825Y01042*
X00825Y01041*
X00825Y01041*
X00825Y01041*
X00825Y0104*
X00825Y0104*
X00825Y0104*
X00823Y01085D02*
D01*
X00823Y01084*
X00823Y01084*
X00823Y01083*
X00823Y01083*
X00823Y01083*
X00823Y01082*
X00823Y01082*
X00824Y01082*
X00824Y01082*
X00824Y01081*
X00824Y01081*
X00825Y01081*
X00825Y01081*
X00825Y0108*
X00825Y0108*
X00826Y0108*
X00826Y0108*
X00826Y0108*
X00827Y0108*
X00827Y0108*
X00827Y0108*
X00828Y0108*
X00828*
X00828Y0108*
X00829Y0108*
X00829Y0108*
X00829Y0108*
X0083Y0108*
X0083Y0108*
X0083Y0108*
X00831Y0108*
X00831Y01081*
X00831Y01081*
X00831Y01081*
X00832Y01081*
X00832Y01082*
X00832Y01082*
X00832Y01082*
X00832Y01082*
X00833Y01083*
X00833Y01083*
X00833Y01083*
X00833Y01084*
X00833Y01084*
X00833Y01085*
X00833Y01085*
X00833Y01085*
X00833Y01086*
X00833Y01086*
X00833Y01086*
X00832Y01087*
X00832Y01087*
X00832Y01087*
X00832Y01087*
X00832Y01088*
X00831Y01088*
X00831Y01088*
X00831Y01088*
X00831Y01089*
X0083Y01089*
X0083Y01089*
X0083Y01089*
X00829Y01089*
X00829Y01089*
X00829Y01089*
X00828Y01089*
X00828Y01089*
X00828*
X00827Y01089*
X00827Y01089*
X00827Y01089*
X00826Y01089*
X00826Y01089*
X00826Y01089*
X00825Y01089*
X00825Y01089*
X00825Y01088*
X00825Y01088*
X00824Y01088*
X00824Y01088*
X00824Y01087*
X00824Y01087*
X00823Y01087*
X00823Y01087*
X00823Y01086*
X00823Y01086*
X00823Y01086*
X00823Y01085*
X00823Y01085*
X00823Y01085*
X00703Y01075D02*
D01*
X00703Y01074*
X00703Y01074*
X00703Y01073*
X00703Y01073*
X00703Y01073*
X00703Y01072*
X00703Y01072*
X00704Y01072*
X00704Y01072*
X00704Y01071*
X00704Y01071*
X00705Y01071*
X00705Y01071*
X00705Y0107*
X00705Y0107*
X00706Y0107*
X00706Y0107*
X00706Y0107*
X00707Y0107*
X00707Y0107*
X00707Y0107*
X00708Y0107*
X00708*
X00708Y0107*
X00709Y0107*
X00709Y0107*
X00709Y0107*
X0071Y0107*
X0071Y0107*
X0071Y0107*
X00711Y0107*
X00711Y01071*
X00711Y01071*
X00711Y01071*
X00712Y01071*
X00712Y01072*
X00712Y01072*
X00712Y01072*
X00712Y01072*
X00713Y01073*
X00713Y01073*
X00713Y01073*
X00713Y01074*
X00713Y01074*
X00713Y01075*
X00713Y01075*
X00713Y01075*
X00713Y01076*
X00713Y01076*
X00713Y01076*
X00712Y01077*
X00712Y01077*
X00712Y01077*
X00712Y01077*
X00712Y01078*
X00711Y01078*
X00711Y01078*
X00711Y01078*
X00711Y01079*
X0071Y01079*
X0071Y01079*
X0071Y01079*
X00709Y01079*
X00709Y01079*
X00709Y01079*
X00708Y01079*
X00708Y01079*
X00708*
X00707Y01079*
X00707Y01079*
X00707Y01079*
X00706Y01079*
X00706Y01079*
X00706Y01079*
X00705Y01079*
X00705Y01079*
X00705Y01078*
X00705Y01078*
X00704Y01078*
X00704Y01078*
X00704Y01077*
X00704Y01077*
X00703Y01077*
X00703Y01077*
X00703Y01076*
X00703Y01076*
X00703Y01076*
X00703Y01075*
X00703Y01075*
X00703Y01075*
X00621Y00992D02*
D01*
X00621Y00991*
X00621Y00991*
X00621Y00991*
X00621Y0099*
X00621Y0099*
X00621Y0099*
X00621Y00989*
X00621Y00989*
X00622Y00989*
X00622Y00989*
X00622Y00988*
X00622Y00988*
X00623Y00988*
X00623Y00988*
X00623Y00987*
X00623Y00987*
X00624Y00987*
X00624Y00987*
X00624Y00987*
X00625Y00987*
X00625Y00987*
X00625Y00987*
X00626*
X00626Y00987*
X00626Y00987*
X00627Y00987*
X00627Y00987*
X00627Y00987*
X00628Y00987*
X00628Y00987*
X00628Y00988*
X00629Y00988*
X00629Y00988*
X00629Y00988*
X00629Y00989*
X0063Y00989*
X0063Y00989*
X0063Y00989*
X0063Y0099*
X0063Y0099*
X0063Y0099*
X0063Y00991*
X00631Y00991*
X00631Y00991*
X00631Y00992*
X00631Y00992*
X00631Y00992*
X0063Y00993*
X0063Y00993*
X0063Y00993*
X0063Y00994*
X0063Y00994*
X0063Y00994*
X0063Y00995*
X00629Y00995*
X00629Y00995*
X00629Y00995*
X00629Y00996*
X00628Y00996*
X00628Y00996*
X00628Y00996*
X00627Y00996*
X00627Y00997*
X00627Y00997*
X00626Y00997*
X00626Y00997*
X00626Y00997*
X00625*
X00625Y00997*
X00625Y00997*
X00624Y00997*
X00624Y00997*
X00624Y00996*
X00623Y00996*
X00623Y00996*
X00623Y00996*
X00623Y00996*
X00622Y00995*
X00622Y00995*
X00622Y00995*
X00622Y00995*
X00621Y00994*
X00621Y00994*
X00621Y00994*
X00621Y00993*
X00621Y00993*
X00621Y00993*
X00621Y00992*
X00621Y00992*
X00621Y00992*
X00621Y00914D02*
D01*
X00621Y00913*
X00621Y00913*
X00621Y00913*
X00621Y00912*
X00621Y00912*
X00621Y00912*
X00621Y00911*
X00621Y00911*
X00622Y00911*
X00622Y00911*
X00622Y0091*
X00622Y0091*
X00623Y0091*
X00623Y0091*
X00623Y00909*
X00623Y00909*
X00624Y00909*
X00624Y00909*
X00624Y00909*
X00625Y00909*
X00625Y00909*
X00625Y00909*
X00626*
X00626Y00909*
X00626Y00909*
X00627Y00909*
X00627Y00909*
X00627Y00909*
X00628Y00909*
X00628Y00909*
X00628Y0091*
X00629Y0091*
X00629Y0091*
X00629Y0091*
X00629Y00911*
X0063Y00911*
X0063Y00911*
X0063Y00911*
X0063Y00912*
X0063Y00912*
X0063Y00912*
X00631Y00913*
X00631Y00913*
X00631Y00913*
X00631Y00914*
X00631Y00914*
X00631Y00914*
X00631Y00915*
X0063Y00915*
X0063Y00915*
X0063Y00916*
X0063Y00916*
X0063Y00916*
X0063Y00917*
X00629Y00917*
X00629Y00917*
X00629Y00917*
X00629Y00918*
X00628Y00918*
X00628Y00918*
X00628Y00918*
X00627Y00918*
X00627Y00919*
X00627Y00919*
X00626Y00919*
X00626Y00919*
X00626Y00919*
X00625*
X00625Y00919*
X00625Y00919*
X00624Y00919*
X00624Y00919*
X00624Y00918*
X00623Y00918*
X00623Y00918*
X00623Y00918*
X00623Y00918*
X00622Y00917*
X00622Y00917*
X00622Y00917*
X00622Y00917*
X00621Y00916*
X00621Y00916*
X00621Y00916*
X00621Y00915*
X00621Y00915*
X00621Y00915*
X00621Y00914*
X00621Y00914*
X00621Y00914*
X00666Y00947D02*
D01*
X00666Y00947*
X00666Y00947*
X00666Y00946*
X00666Y00946*
X00666Y00945*
X00666Y00945*
X00666Y00945*
X00666Y00945*
X00667Y00944*
X00667Y00944*
X00667Y00944*
X00667Y00943*
X00668Y00943*
X00668Y00943*
X00668Y00943*
X00668Y00943*
X00669Y00943*
X00669Y00942*
X00669Y00942*
X0067Y00942*
X0067Y00942*
X0067Y00942*
X00671*
X00671Y00942*
X00671Y00942*
X00672Y00942*
X00672Y00942*
X00672Y00943*
X00673Y00943*
X00673Y00943*
X00673Y00943*
X00674Y00943*
X00674Y00943*
X00674Y00944*
X00674Y00944*
X00675Y00944*
X00675Y00945*
X00675Y00945*
X00675Y00945*
X00675Y00945*
X00675Y00946*
X00675Y00946*
X00676Y00947*
X00676Y00947*
X00676Y00947*
X00676Y00948*
X00676Y00948*
X00675Y00948*
X00675Y00949*
X00675Y00949*
X00675Y00949*
X00675Y0095*
X00675Y0095*
X00675Y0095*
X00674Y0095*
X00674Y00951*
X00674Y00951*
X00674Y00951*
X00673Y00951*
X00673Y00952*
X00673Y00952*
X00672Y00952*
X00672Y00952*
X00672Y00952*
X00671Y00952*
X00671Y00952*
X00671Y00952*
X0067*
X0067Y00952*
X0067Y00952*
X00669Y00952*
X00669Y00952*
X00669Y00952*
X00668Y00952*
X00668Y00952*
X00668Y00951*
X00668Y00951*
X00667Y00951*
X00667Y00951*
X00667Y0095*
X00667Y0095*
X00666Y0095*
X00666Y0095*
X00666Y00949*
X00666Y00949*
X00666Y00949*
X00666Y00948*
X00666Y00948*
X00666Y00948*
X00666Y00947*
X00416Y00815D02*
D01*
X00416Y00814*
X00416Y00814*
X00416Y00813*
X00416Y00813*
X00416Y00813*
X00416Y00812*
X00416Y00812*
X00416Y00812*
X00417Y00812*
X00417Y00811*
X00417Y00811*
X00417Y00811*
X00418Y00811*
X00418Y0081*
X00418Y0081*
X00418Y0081*
X00419Y0081*
X00419Y0081*
X00419Y0081*
X0042Y0081*
X0042Y0081*
X0042Y0081*
X00421*
X00421Y0081*
X00421Y0081*
X00422Y0081*
X00422Y0081*
X00422Y0081*
X00423Y0081*
X00423Y0081*
X00423Y0081*
X00424Y00811*
X00424Y00811*
X00424Y00811*
X00424Y00811*
X00425Y00812*
X00425Y00812*
X00425Y00812*
X00425Y00812*
X00425Y00813*
X00425Y00813*
X00425Y00813*
X00426Y00814*
X00426Y00814*
X00426Y00815*
X00426Y00815*
X00426Y00815*
X00425Y00816*
X00425Y00816*
X00425Y00816*
X00425Y00817*
X00425Y00817*
X00425Y00817*
X00425Y00817*
X00424Y00818*
X00424Y00818*
X00424Y00818*
X00424Y00818*
X00423Y00819*
X00423Y00819*
X00423Y00819*
X00422Y00819*
X00422Y00819*
X00422Y00819*
X00421Y00819*
X00421Y00819*
X00421Y00819*
X0042*
X0042Y00819*
X0042Y00819*
X00419Y00819*
X00419Y00819*
X00419Y00819*
X00418Y00819*
X00418Y00819*
X00418Y00819*
X00418Y00818*
X00417Y00818*
X00417Y00818*
X00417Y00818*
X00417Y00817*
X00416Y00817*
X00416Y00817*
X00416Y00817*
X00416Y00816*
X00416Y00816*
X00416Y00816*
X00416Y00815*
X00416Y00815*
X00416Y00815*
X00266Y0074D02*
D01*
X00266Y00739*
X00266Y00739*
X00266Y00738*
X00266Y00738*
X00266Y00738*
X00266Y00737*
X00266Y00737*
X00266Y00737*
X00267Y00737*
X00267Y00736*
X00267Y00736*
X00267Y00736*
X00268Y00736*
X00268Y00735*
X00268Y00735*
X00268Y00735*
X00269Y00735*
X00269Y00735*
X00269Y00735*
X0027Y00735*
X0027Y00735*
X0027Y00735*
X00271*
X00271Y00735*
X00271Y00735*
X00272Y00735*
X00272Y00735*
X00272Y00735*
X00273Y00735*
X00273Y00735*
X00273Y00735*
X00274Y00736*
X00274Y00736*
X00274Y00736*
X00274Y00736*
X00275Y00737*
X00275Y00737*
X00275Y00737*
X00275Y00737*
X00275Y00738*
X00275Y00738*
X00275Y00738*
X00276Y00739*
X00276Y00739*
X00276Y0074*
X00276Y0074*
X00276Y0074*
X00275Y00741*
X00275Y00741*
X00275Y00741*
X00275Y00742*
X00275Y00742*
X00275Y00742*
X00275Y00742*
X00274Y00743*
X00274Y00743*
X00274Y00743*
X00274Y00743*
X00273Y00744*
X00273Y00744*
X00273Y00744*
X00272Y00744*
X00272Y00744*
X00272Y00744*
X00271Y00744*
X00271Y00744*
X00271Y00744*
X0027*
X0027Y00744*
X0027Y00744*
X00269Y00744*
X00269Y00744*
X00269Y00744*
X00268Y00744*
X00268Y00744*
X00268Y00744*
X00268Y00743*
X00267Y00743*
X00267Y00743*
X00267Y00743*
X00267Y00742*
X00266Y00742*
X00266Y00742*
X00266Y00742*
X00266Y00741*
X00266Y00741*
X00266Y00741*
X00266Y0074*
X00266Y0074*
X00266Y0074*
X00311Y00635D02*
D01*
X00311Y00634*
X00311Y00634*
X00311Y00633*
X00311Y00633*
X00311Y00633*
X00311Y00632*
X00311Y00632*
X00311Y00632*
X00312Y00632*
X00312Y00631*
X00312Y00631*
X00312Y00631*
X00313Y00631*
X00313Y0063*
X00313Y0063*
X00313Y0063*
X00314Y0063*
X00314Y0063*
X00314Y0063*
X00315Y0063*
X00315Y0063*
X00315Y0063*
X00316*
X00316Y0063*
X00316Y0063*
X00317Y0063*
X00317Y0063*
X00317Y0063*
X00318Y0063*
X00318Y0063*
X00318Y0063*
X00319Y00631*
X00319Y00631*
X00319Y00631*
X00319Y00631*
X0032Y00632*
X0032Y00632*
X0032Y00632*
X0032Y00632*
X0032Y00633*
X0032Y00633*
X0032Y00633*
X00321Y00634*
X00321Y00634*
X00321Y00635*
X00321Y00635*
X00321Y00635*
X0032Y00636*
X0032Y00636*
X0032Y00636*
X0032Y00637*
X0032Y00637*
X0032Y00637*
X0032Y00637*
X00319Y00638*
X00319Y00638*
X00319Y00638*
X00319Y00638*
X00318Y00639*
X00318Y00639*
X00318Y00639*
X00317Y00639*
X00317Y00639*
X00317Y00639*
X00316Y00639*
X00316Y00639*
X00316Y00639*
X00315*
X00315Y00639*
X00315Y00639*
X00314Y00639*
X00314Y00639*
X00314Y00639*
X00313Y00639*
X00313Y00639*
X00313Y00639*
X00313Y00638*
X00312Y00638*
X00312Y00638*
X00312Y00638*
X00312Y00637*
X00311Y00637*
X00311Y00637*
X00311Y00637*
X00311Y00636*
X00311Y00636*
X00311Y00636*
X00311Y00635*
X00311Y00635*
X00311Y00635*
X00598Y00705D02*
D01*
X00598Y00704*
X00598Y00704*
X00598Y00703*
X00599Y00703*
X00599Y00703*
X00599Y00702*
X00599Y00702*
X00599Y00702*
X00599Y00702*
X00599Y00701*
X006Y00701*
X006Y00701*
X006Y00701*
X00601Y007*
X00601Y007*
X00601Y007*
X00601Y007*
X00602Y007*
X00602Y007*
X00602Y007*
X00603Y007*
X00603Y007*
X00603*
X00604Y007*
X00604Y007*
X00605Y007*
X00605Y007*
X00605Y007*
X00606Y007*
X00606Y007*
X00606Y007*
X00606Y00701*
X00607Y00701*
X00607Y00701*
X00607Y00701*
X00607Y00702*
X00608Y00702*
X00608Y00702*
X00608Y00702*
X00608Y00703*
X00608Y00703*
X00608Y00703*
X00608Y00704*
X00608Y00704*
X00608Y00705*
X00608Y00705*
X00608Y00705*
X00608Y00706*
X00608Y00706*
X00608Y00706*
X00608Y00707*
X00608Y00707*
X00608Y00707*
X00607Y00707*
X00607Y00708*
X00607Y00708*
X00607Y00708*
X00606Y00708*
X00606Y00709*
X00606Y00709*
X00606Y00709*
X00605Y00709*
X00605Y00709*
X00605Y00709*
X00604Y00709*
X00604Y00709*
X00603Y00709*
X00603*
X00603Y00709*
X00602Y00709*
X00602Y00709*
X00602Y00709*
X00601Y00709*
X00601Y00709*
X00601Y00709*
X00601Y00709*
X006Y00708*
X006Y00708*
X006Y00708*
X00599Y00708*
X00599Y00707*
X00599Y00707*
X00599Y00707*
X00599Y00707*
X00599Y00706*
X00599Y00706*
X00598Y00706*
X00598Y00705*
X00598Y00705*
X00598Y00705*
X00523D02*
D01*
X00523Y00704*
X00523Y00704*
X00523Y00703*
X00523Y00703*
X00523Y00703*
X00523Y00702*
X00523Y00702*
X00524Y00702*
X00524Y00702*
X00524Y00701*
X00524Y00701*
X00525Y00701*
X00525Y00701*
X00525Y007*
X00525Y007*
X00526Y007*
X00526Y007*
X00526Y007*
X00527Y007*
X00527Y007*
X00527Y007*
X00528Y007*
X00528*
X00528Y007*
X00529Y007*
X00529Y007*
X00529Y007*
X0053Y007*
X0053Y007*
X0053Y007*
X00531Y007*
X00531Y00701*
X00531Y00701*
X00531Y00701*
X00532Y00701*
X00532Y00702*
X00532Y00702*
X00532Y00702*
X00532Y00702*
X00533Y00703*
X00533Y00703*
X00533Y00703*
X00533Y00704*
X00533Y00704*
X00533Y00705*
X00533Y00705*
X00533Y00705*
X00533Y00706*
X00533Y00706*
X00533Y00706*
X00532Y00707*
X00532Y00707*
X00532Y00707*
X00532Y00707*
X00532Y00708*
X00531Y00708*
X00531Y00708*
X00531Y00708*
X00531Y00709*
X0053Y00709*
X0053Y00709*
X0053Y00709*
X00529Y00709*
X00529Y00709*
X00529Y00709*
X00528Y00709*
X00528Y00709*
X00528*
X00527Y00709*
X00527Y00709*
X00527Y00709*
X00526Y00709*
X00526Y00709*
X00526Y00709*
X00525Y00709*
X00525Y00709*
X00525Y00708*
X00525Y00708*
X00524Y00708*
X00524Y00708*
X00524Y00707*
X00524Y00707*
X00523Y00707*
X00523Y00707*
X00523Y00706*
X00523Y00706*
X00523Y00706*
X00523Y00705*
X00523Y00705*
X00523Y00705*
X0048Y0061D02*
D01*
X0048Y00609*
X0048Y00609*
X0048Y00608*
X0048Y00608*
X0048Y00608*
X0048Y00607*
X0048Y00607*
X00481Y00607*
X00481Y00607*
X00481Y00606*
X00481Y00606*
X00482Y00606*
X00482Y00606*
X00482Y00605*
X00482Y00605*
X00483Y00605*
X00483Y00605*
X00483Y00605*
X00484Y00605*
X00484Y00605*
X00484Y00605*
X00485Y00605*
X00485*
X00485Y00605*
X00486Y00605*
X00486Y00605*
X00486Y00605*
X00487Y00605*
X00487Y00605*
X00487Y00605*
X00488Y00605*
X00488Y00606*
X00488Y00606*
X00488Y00606*
X00489Y00606*
X00489Y00607*
X00489Y00607*
X00489Y00607*
X00489Y00607*
X0049Y00608*
X0049Y00608*
X0049Y00608*
X0049Y00609*
X0049Y00609*
X0049Y0061*
X0049Y0061*
X0049Y0061*
X0049Y00611*
X0049Y00611*
X0049Y00611*
X00489Y00612*
X00489Y00612*
X00489Y00612*
X00489Y00612*
X00489Y00613*
X00488Y00613*
X00488Y00613*
X00488Y00613*
X00488Y00614*
X00487Y00614*
X00487Y00614*
X00487Y00614*
X00486Y00614*
X00486Y00614*
X00486Y00614*
X00485Y00614*
X00485Y00614*
X00485*
X00484Y00614*
X00484Y00614*
X00484Y00614*
X00483Y00614*
X00483Y00614*
X00483Y00614*
X00482Y00614*
X00482Y00614*
X00482Y00613*
X00482Y00613*
X00481Y00613*
X00481Y00613*
X00481Y00612*
X00481Y00612*
X0048Y00612*
X0048Y00612*
X0048Y00611*
X0048Y00611*
X0048Y00611*
X0048Y0061*
X0048Y0061*
X0048Y0061*
X00698Y0077D02*
D01*
X00698Y00769*
X00698Y00769*
X00698Y00768*
X00698Y00768*
X00698Y00768*
X00698Y00767*
X00698Y00767*
X00699Y00767*
X00699Y00767*
X00699Y00766*
X00699Y00766*
X007Y00766*
X007Y00766*
X007Y00765*
X007Y00765*
X00701Y00765*
X00701Y00765*
X00701Y00765*
X00702Y00765*
X00702Y00765*
X00702Y00765*
X00703Y00765*
X00703*
X00703Y00765*
X00704Y00765*
X00704Y00765*
X00704Y00765*
X00705Y00765*
X00705Y00765*
X00705Y00765*
X00706Y00765*
X00706Y00766*
X00706Y00766*
X00706Y00766*
X00707Y00766*
X00707Y00767*
X00707Y00767*
X00707Y00767*
X00707Y00767*
X00708Y00768*
X00708Y00768*
X00708Y00768*
X00708Y00769*
X00708Y00769*
X00708Y0077*
X00708Y0077*
X00708Y0077*
X00708Y00771*
X00708Y00771*
X00708Y00771*
X00707Y00772*
X00707Y00772*
X00707Y00772*
X00707Y00772*
X00707Y00773*
X00706Y00773*
X00706Y00773*
X00706Y00773*
X00706Y00774*
X00705Y00774*
X00705Y00774*
X00705Y00774*
X00704Y00774*
X00704Y00774*
X00704Y00774*
X00703Y00774*
X00703Y00774*
X00703*
X00702Y00774*
X00702Y00774*
X00702Y00774*
X00701Y00774*
X00701Y00774*
X00701Y00774*
X007Y00774*
X007Y00774*
X007Y00773*
X007Y00773*
X00699Y00773*
X00699Y00773*
X00699Y00772*
X00699Y00772*
X00698Y00772*
X00698Y00772*
X00698Y00771*
X00698Y00771*
X00698Y00771*
X00698Y0077*
X00698Y0077*
X00698Y0077*
X00746Y00635D02*
D01*
X00746Y00634*
X00746Y00634*
X00746Y00633*
X00746Y00633*
X00746Y00633*
X00746Y00632*
X00746Y00632*
X00746Y00632*
X00747Y00632*
X00747Y00631*
X00747Y00631*
X00747Y00631*
X00748Y00631*
X00748Y0063*
X00748Y0063*
X00748Y0063*
X00749Y0063*
X00749Y0063*
X00749Y0063*
X0075Y0063*
X0075Y0063*
X0075Y0063*
X00751*
X00751Y0063*
X00751Y0063*
X00752Y0063*
X00752Y0063*
X00752Y0063*
X00753Y0063*
X00753Y0063*
X00753Y0063*
X00754Y00631*
X00754Y00631*
X00754Y00631*
X00754Y00631*
X00755Y00632*
X00755Y00632*
X00755Y00632*
X00755Y00632*
X00755Y00633*
X00755Y00633*
X00755Y00633*
X00756Y00634*
X00756Y00634*
X00756Y00635*
X00756Y00635*
X00756Y00635*
X00755Y00636*
X00755Y00636*
X00755Y00636*
X00755Y00637*
X00755Y00637*
X00755Y00637*
X00755Y00637*
X00754Y00638*
X00754Y00638*
X00754Y00638*
X00754Y00638*
X00753Y00639*
X00753Y00639*
X00753Y00639*
X00752Y00639*
X00752Y00639*
X00752Y00639*
X00751Y00639*
X00751Y00639*
X00751Y00639*
X0075*
X0075Y00639*
X0075Y00639*
X00749Y00639*
X00749Y00639*
X00749Y00639*
X00748Y00639*
X00748Y00639*
X00748Y00639*
X00748Y00638*
X00747Y00638*
X00747Y00638*
X00747Y00638*
X00747Y00637*
X00746Y00637*
X00746Y00637*
X00746Y00637*
X00746Y00636*
X00746Y00636*
X00746Y00636*
X00746Y00635*
X00746Y00635*
X00746Y00635*
X0071Y0059D02*
D01*
X0071Y00589*
X0071Y00589*
X0071Y00588*
X0071Y00588*
X0071Y00588*
X0071Y00587*
X0071Y00587*
X00711Y00587*
X00711Y00587*
X00711Y00586*
X00711Y00586*
X00712Y00586*
X00712Y00586*
X00712Y00585*
X00712Y00585*
X00713Y00585*
X00713Y00585*
X00713Y00585*
X00714Y00585*
X00714Y00585*
X00714Y00585*
X00715Y00585*
X00715*
X00715Y00585*
X00716Y00585*
X00716Y00585*
X00716Y00585*
X00717Y00585*
X00717Y00585*
X00717Y00585*
X00718Y00585*
X00718Y00586*
X00718Y00586*
X00718Y00586*
X00719Y00586*
X00719Y00587*
X00719Y00587*
X00719Y00587*
X00719Y00587*
X0072Y00588*
X0072Y00588*
X0072Y00588*
X0072Y00589*
X0072Y00589*
X0072Y0059*
X0072Y0059*
X0072Y0059*
X0072Y00591*
X0072Y00591*
X0072Y00591*
X00719Y00592*
X00719Y00592*
X00719Y00592*
X00719Y00592*
X00719Y00593*
X00718Y00593*
X00718Y00593*
X00718Y00593*
X00718Y00594*
X00717Y00594*
X00717Y00594*
X00717Y00594*
X00716Y00594*
X00716Y00594*
X00716Y00594*
X00715Y00594*
X00715Y00594*
X00715*
X00714Y00594*
X00714Y00594*
X00714Y00594*
X00713Y00594*
X00713Y00594*
X00713Y00594*
X00712Y00594*
X00712Y00594*
X00712Y00593*
X00712Y00593*
X00711Y00593*
X00711Y00593*
X00711Y00592*
X00711Y00592*
X0071Y00592*
X0071Y00592*
X0071Y00591*
X0071Y00591*
X0071Y00591*
X0071Y0059*
X0071Y0059*
X0071Y0059*
X00861Y0063D02*
D01*
X00861Y00629*
X00861Y00629*
X00861Y00628*
X00861Y00628*
X00861Y00628*
X00861Y00627*
X00861Y00627*
X00861Y00627*
X00862Y00627*
X00862Y00626*
X00862Y00626*
X00862Y00626*
X00863Y00626*
X00863Y00625*
X00863Y00625*
X00863Y00625*
X00864Y00625*
X00864Y00625*
X00864Y00625*
X00865Y00625*
X00865Y00625*
X00865Y00625*
X00866*
X00866Y00625*
X00866Y00625*
X00867Y00625*
X00867Y00625*
X00867Y00625*
X00868Y00625*
X00868Y00625*
X00868Y00625*
X00869Y00626*
X00869Y00626*
X00869Y00626*
X00869Y00626*
X0087Y00627*
X0087Y00627*
X0087Y00627*
X0087Y00627*
X0087Y00628*
X0087Y00628*
X0087Y00628*
X00871Y00629*
X00871Y00629*
X00871Y0063*
X00871Y0063*
X00871Y0063*
X0087Y00631*
X0087Y00631*
X0087Y00631*
X0087Y00632*
X0087Y00632*
X0087Y00632*
X0087Y00632*
X00869Y00633*
X00869Y00633*
X00869Y00633*
X00869Y00633*
X00868Y00634*
X00868Y00634*
X00868Y00634*
X00867Y00634*
X00867Y00634*
X00867Y00634*
X00866Y00634*
X00866Y00634*
X00866Y00634*
X00865*
X00865Y00634*
X00865Y00634*
X00864Y00634*
X00864Y00634*
X00864Y00634*
X00863Y00634*
X00863Y00634*
X00863Y00634*
X00863Y00633*
X00862Y00633*
X00862Y00633*
X00862Y00633*
X00862Y00632*
X00861Y00632*
X00861Y00632*
X00861Y00632*
X00861Y00631*
X00861Y00631*
X00861Y00631*
X00861Y0063*
X00861Y0063*
X00861Y0063*
X01031Y00465D02*
D01*
X01031Y00464*
X01031Y00464*
X01031Y00463*
X01031Y00463*
X01031Y00463*
X01031Y00462*
X01031Y00462*
X01031Y00462*
X01032Y00462*
X01032Y00461*
X01032Y00461*
X01032Y00461*
X01033Y00461*
X01033Y0046*
X01033Y0046*
X01033Y0046*
X01034Y0046*
X01034Y0046*
X01034Y0046*
X01035Y0046*
X01035Y0046*
X01035Y0046*
X01036*
X01036Y0046*
X01036Y0046*
X01037Y0046*
X01037Y0046*
X01037Y0046*
X01038Y0046*
X01038Y0046*
X01038Y0046*
X01039Y00461*
X01039Y00461*
X01039Y00461*
X01039Y00461*
X0104Y00462*
X0104Y00462*
X0104Y00462*
X0104Y00462*
X0104Y00463*
X0104Y00463*
X0104Y00463*
X01041Y00464*
X01041Y00464*
X01041Y00465*
X01041Y00465*
X01041Y00465*
X0104Y00466*
X0104Y00466*
X0104Y00466*
X0104Y00467*
X0104Y00467*
X0104Y00467*
X0104Y00467*
X01039Y00468*
X01039Y00468*
X01039Y00468*
X01039Y00468*
X01038Y00469*
X01038Y00469*
X01038Y00469*
X01037Y00469*
X01037Y00469*
X01037Y00469*
X01036Y00469*
X01036Y00469*
X01036Y00469*
X01035*
X01035Y00469*
X01035Y00469*
X01034Y00469*
X01034Y00469*
X01034Y00469*
X01033Y00469*
X01033Y00469*
X01033Y00469*
X01033Y00468*
X01032Y00468*
X01032Y00468*
X01032Y00468*
X01032Y00467*
X01031Y00467*
X01031Y00467*
X01031Y00467*
X01031Y00466*
X01031Y00466*
X01031Y00466*
X01031Y00465*
X01031Y00465*
X01031Y00465*
X00953D02*
D01*
X00953Y00464*
X00953Y00464*
X00953Y00463*
X00953Y00463*
X00953Y00463*
X00953Y00462*
X00953Y00462*
X00954Y00462*
X00954Y00462*
X00954Y00461*
X00954Y00461*
X00955Y00461*
X00955Y00461*
X00955Y0046*
X00955Y0046*
X00956Y0046*
X00956Y0046*
X00956Y0046*
X00957Y0046*
X00957Y0046*
X00957Y0046*
X00958Y0046*
X00958*
X00958Y0046*
X00959Y0046*
X00959Y0046*
X00959Y0046*
X0096Y0046*
X0096Y0046*
X0096Y0046*
X00961Y0046*
X00961Y00461*
X00961Y00461*
X00961Y00461*
X00962Y00461*
X00962Y00462*
X00962Y00462*
X00962Y00462*
X00962Y00462*
X00963Y00463*
X00963Y00463*
X00963Y00463*
X00963Y00464*
X00963Y00464*
X00963Y00465*
X00963Y00465*
X00963Y00465*
X00963Y00466*
X00963Y00466*
X00963Y00466*
X00962Y00467*
X00962Y00467*
X00962Y00467*
X00962Y00467*
X00962Y00468*
X00961Y00468*
X00961Y00468*
X00961Y00468*
X00961Y00469*
X0096Y00469*
X0096Y00469*
X0096Y00469*
X00959Y00469*
X00959Y00469*
X00959Y00469*
X00958Y00469*
X00958Y00469*
X00958*
X00957Y00469*
X00957Y00469*
X00957Y00469*
X00956Y00469*
X00956Y00469*
X00956Y00469*
X00955Y00469*
X00955Y00469*
X00955Y00468*
X00955Y00468*
X00954Y00468*
X00954Y00468*
X00954Y00467*
X00954Y00467*
X00953Y00467*
X00953Y00467*
X00953Y00466*
X00953Y00466*
X00953Y00466*
X00953Y00465*
X00953Y00465*
X00953Y00465*
X00936Y0036D02*
D01*
X00936Y0036*
X00936Y0036*
X00936Y00359*
X00936Y00359*
X00936Y00359*
X00936Y00358*
X00936Y00358*
X00936Y00358*
X00937Y00357*
X00937Y00357*
X00937Y00357*
X00937Y00357*
X00938Y00356*
X00938Y00356*
X00938Y00356*
X00938Y00356*
X00939Y00356*
X00939Y00355*
X00939Y00355*
X0094Y00355*
X0094Y00355*
X0094Y00355*
X00941*
X00941Y00355*
X00941Y00355*
X00942Y00355*
X00942Y00355*
X00942Y00356*
X00943Y00356*
X00943Y00356*
X00943Y00356*
X00944Y00356*
X00944Y00357*
X00944Y00357*
X00944Y00357*
X00945Y00357*
X00945Y00358*
X00945Y00358*
X00945Y00358*
X00945Y00359*
X00945Y00359*
X00945Y00359*
X00946Y0036*
X00946Y0036*
X00946Y0036*
X00946Y00361*
X00946Y00361*
X00945Y00361*
X00945Y00362*
X00945Y00362*
X00945Y00362*
X00945Y00363*
X00945Y00363*
X00945Y00363*
X00944Y00363*
X00944Y00364*
X00944Y00364*
X00944Y00364*
X00943Y00364*
X00943Y00365*
X00943Y00365*
X00942Y00365*
X00942Y00365*
X00942Y00365*
X00941Y00365*
X00941Y00365*
X00941Y00365*
X0094*
X0094Y00365*
X0094Y00365*
X00939Y00365*
X00939Y00365*
X00939Y00365*
X00938Y00365*
X00938Y00365*
X00938Y00364*
X00938Y00364*
X00937Y00364*
X00937Y00364*
X00937Y00363*
X00937Y00363*
X00936Y00363*
X00936Y00363*
X00936Y00362*
X00936Y00362*
X00936Y00362*
X00936Y00361*
X00936Y00361*
X00936Y00361*
X00936Y0036*
X00683Y0044D02*
D01*
X00683Y00439*
X00683Y00439*
X00683Y00438*
X00683Y00438*
X00683Y00438*
X00683Y00437*
X00683Y00437*
X00684Y00437*
X00684Y00437*
X00684Y00436*
X00684Y00436*
X00685Y00436*
X00685Y00436*
X00685Y00435*
X00685Y00435*
X00686Y00435*
X00686Y00435*
X00686Y00435*
X00687Y00435*
X00687Y00435*
X00687Y00435*
X00688Y00435*
X00688*
X00688Y00435*
X00689Y00435*
X00689Y00435*
X00689Y00435*
X0069Y00435*
X0069Y00435*
X0069Y00435*
X00691Y00435*
X00691Y00436*
X00691Y00436*
X00691Y00436*
X00692Y00436*
X00692Y00437*
X00692Y00437*
X00692Y00437*
X00692Y00437*
X00693Y00438*
X00693Y00438*
X00693Y00438*
X00693Y00439*
X00693Y00439*
X00693Y0044*
X00693Y0044*
X00693Y0044*
X00693Y00441*
X00693Y00441*
X00693Y00441*
X00692Y00442*
X00692Y00442*
X00692Y00442*
X00692Y00442*
X00692Y00443*
X00691Y00443*
X00691Y00443*
X00691Y00443*
X00691Y00444*
X0069Y00444*
X0069Y00444*
X0069Y00444*
X00689Y00444*
X00689Y00444*
X00689Y00444*
X00688Y00444*
X00688Y00444*
X00688*
X00687Y00444*
X00687Y00444*
X00687Y00444*
X00686Y00444*
X00686Y00444*
X00686Y00444*
X00685Y00444*
X00685Y00444*
X00685Y00443*
X00685Y00443*
X00684Y00443*
X00684Y00443*
X00684Y00442*
X00684Y00442*
X00683Y00442*
X00683Y00442*
X00683Y00441*
X00683Y00441*
X00683Y00441*
X00683Y0044*
X00683Y0044*
X00683Y0044*
X00716Y00395D02*
D01*
X00716Y00394*
X00716Y00394*
X00716Y00393*
X00717Y00393*
X00717Y00393*
X00717Y00392*
X00717Y00392*
X00717Y00392*
X00717Y00392*
X00718Y00391*
X00718Y00391*
X00718Y00391*
X00718Y00391*
X00719Y0039*
X00719Y0039*
X00719Y0039*
X00719Y0039*
X0072Y0039*
X0072Y0039*
X0072Y0039*
X00721Y0039*
X00721Y0039*
X00722*
X00722Y0039*
X00722Y0039*
X00723Y0039*
X00723Y0039*
X00723Y0039*
X00724Y0039*
X00724Y0039*
X00724Y0039*
X00724Y00391*
X00725Y00391*
X00725Y00391*
X00725Y00391*
X00725Y00392*
X00726Y00392*
X00726Y00392*
X00726Y00392*
X00726Y00393*
X00726Y00393*
X00726Y00393*
X00726Y00394*
X00726Y00394*
X00726Y00395*
X00726Y00395*
X00726Y00395*
X00726Y00396*
X00726Y00396*
X00726Y00396*
X00726Y00397*
X00726Y00397*
X00726Y00397*
X00725Y00397*
X00725Y00398*
X00725Y00398*
X00725Y00398*
X00724Y00398*
X00724Y00399*
X00724Y00399*
X00724Y00399*
X00723Y00399*
X00723Y00399*
X00723Y00399*
X00722Y00399*
X00722Y00399*
X00722Y00399*
X00721*
X00721Y00399*
X0072Y00399*
X0072Y00399*
X0072Y00399*
X00719Y00399*
X00719Y00399*
X00719Y00399*
X00719Y00399*
X00718Y00398*
X00718Y00398*
X00718Y00398*
X00718Y00398*
X00717Y00397*
X00717Y00397*
X00717Y00397*
X00717Y00397*
X00717Y00396*
X00717Y00396*
X00716Y00396*
X00716Y00395*
X00716Y00395*
X00716Y00395*
X00648Y00315D02*
D01*
X00648Y00314*
X00648Y00314*
X00648Y00313*
X00648Y00313*
X00648Y00313*
X00648Y00312*
X00648Y00312*
X00649Y00312*
X00649Y00312*
X00649Y00311*
X00649Y00311*
X0065Y00311*
X0065Y00311*
X0065Y0031*
X0065Y0031*
X00651Y0031*
X00651Y0031*
X00651Y0031*
X00652Y0031*
X00652Y0031*
X00652Y0031*
X00653Y0031*
X00653*
X00653Y0031*
X00654Y0031*
X00654Y0031*
X00654Y0031*
X00655Y0031*
X00655Y0031*
X00655Y0031*
X00656Y0031*
X00656Y00311*
X00656Y00311*
X00656Y00311*
X00657Y00311*
X00657Y00312*
X00657Y00312*
X00657Y00312*
X00657Y00312*
X00658Y00313*
X00658Y00313*
X00658Y00313*
X00658Y00314*
X00658Y00314*
X00658Y00315*
X00658Y00315*
X00658Y00315*
X00658Y00316*
X00658Y00316*
X00658Y00316*
X00657Y00317*
X00657Y00317*
X00657Y00317*
X00657Y00317*
X00657Y00318*
X00656Y00318*
X00656Y00318*
X00656Y00318*
X00656Y00319*
X00655Y00319*
X00655Y00319*
X00655Y00319*
X00654Y00319*
X00654Y00319*
X00654Y00319*
X00653Y00319*
X00653Y00319*
X00653*
X00652Y00319*
X00652Y00319*
X00652Y00319*
X00651Y00319*
X00651Y00319*
X00651Y00319*
X0065Y00319*
X0065Y00319*
X0065Y00318*
X0065Y00318*
X00649Y00318*
X00649Y00318*
X00649Y00317*
X00649Y00317*
X00648Y00317*
X00648Y00317*
X00648Y00316*
X00648Y00316*
X00648Y00316*
X00648Y00315*
X00648Y00315*
X00648Y00315*
X00571D02*
D01*
X00571Y00314*
X00571Y00314*
X00571Y00313*
X00572Y00313*
X00572Y00313*
X00572Y00312*
X00572Y00312*
X00572Y00312*
X00572Y00312*
X00573Y00311*
X00573Y00311*
X00573Y00311*
X00573Y00311*
X00574Y0031*
X00574Y0031*
X00574Y0031*
X00574Y0031*
X00575Y0031*
X00575Y0031*
X00575Y0031*
X00576Y0031*
X00576Y0031*
X00577*
X00577Y0031*
X00577Y0031*
X00578Y0031*
X00578Y0031*
X00578Y0031*
X00579Y0031*
X00579Y0031*
X00579Y0031*
X00579Y00311*
X0058Y00311*
X0058Y00311*
X0058Y00311*
X0058Y00312*
X00581Y00312*
X00581Y00312*
X00581Y00312*
X00581Y00313*
X00581Y00313*
X00581Y00313*
X00581Y00314*
X00581Y00314*
X00581Y00315*
X00581Y00315*
X00581Y00315*
X00581Y00316*
X00581Y00316*
X00581Y00316*
X00581Y00317*
X00581Y00317*
X00581Y00317*
X0058Y00317*
X0058Y00318*
X0058Y00318*
X0058Y00318*
X00579Y00318*
X00579Y00319*
X00579Y00319*
X00579Y00319*
X00578Y00319*
X00578Y00319*
X00578Y00319*
X00577Y00319*
X00577Y00319*
X00577Y00319*
X00576*
X00576Y00319*
X00575Y00319*
X00575Y00319*
X00575Y00319*
X00574Y00319*
X00574Y00319*
X00574Y00319*
X00574Y00319*
X00573Y00318*
X00573Y00318*
X00573Y00318*
X00573Y00318*
X00572Y00317*
X00572Y00317*
X00572Y00317*
X00572Y00317*
X00572Y00316*
X00572Y00316*
X00571Y00316*
X00571Y00315*
X00571Y00315*
X00571Y00315*
X00533Y0027D02*
D01*
X00533Y00269*
X00533Y00269*
X00533Y00268*
X00533Y00268*
X00533Y00268*
X00533Y00267*
X00533Y00267*
X00534Y00267*
X00534Y00267*
X00534Y00266*
X00534Y00266*
X00535Y00266*
X00535Y00266*
X00535Y00265*
X00535Y00265*
X00536Y00265*
X00536Y00265*
X00536Y00265*
X00537Y00265*
X00537Y00265*
X00537Y00265*
X00538Y00265*
X00538*
X00538Y00265*
X00539Y00265*
X00539Y00265*
X00539Y00265*
X0054Y00265*
X0054Y00265*
X0054Y00265*
X00541Y00265*
X00541Y00266*
X00541Y00266*
X00541Y00266*
X00542Y00266*
X00542Y00267*
X00542Y00267*
X00542Y00267*
X00542Y00267*
X00543Y00268*
X00543Y00268*
X00543Y00268*
X00543Y00269*
X00543Y00269*
X00543Y0027*
X00543Y0027*
X00543Y0027*
X00543Y00271*
X00543Y00271*
X00543Y00271*
X00542Y00272*
X00542Y00272*
X00542Y00272*
X00542Y00272*
X00542Y00273*
X00541Y00273*
X00541Y00273*
X00541Y00273*
X00541Y00274*
X0054Y00274*
X0054Y00274*
X0054Y00274*
X00539Y00274*
X00539Y00274*
X00539Y00274*
X00538Y00274*
X00538Y00274*
X00538*
X00537Y00274*
X00537Y00274*
X00537Y00274*
X00536Y00274*
X00536Y00274*
X00536Y00274*
X00535Y00274*
X00535Y00274*
X00535Y00273*
X00535Y00273*
X00534Y00273*
X00534Y00273*
X00534Y00272*
X00534Y00272*
X00533Y00272*
X00533Y00272*
X00533Y00271*
X00533Y00271*
X00533Y00271*
X00533Y0027*
X00533Y0027*
X00533Y0027*
X00661Y0016D02*
D01*
X00661Y00159*
X00661Y00159*
X00661Y00158*
X00661Y00158*
X00661Y00158*
X00661Y00157*
X00661Y00157*
X00661Y00157*
X00662Y00157*
X00662Y00156*
X00662Y00156*
X00662Y00156*
X00663Y00156*
X00663Y00155*
X00663Y00155*
X00663Y00155*
X00664Y00155*
X00664Y00155*
X00664Y00155*
X00665Y00155*
X00665Y00155*
X00665Y00155*
X00666*
X00666Y00155*
X00666Y00155*
X00667Y00155*
X00667Y00155*
X00667Y00155*
X00668Y00155*
X00668Y00155*
X00668Y00155*
X00669Y00156*
X00669Y00156*
X00669Y00156*
X00669Y00156*
X0067Y00157*
X0067Y00157*
X0067Y00157*
X0067Y00157*
X0067Y00158*
X0067Y00158*
X0067Y00158*
X00671Y00159*
X00671Y00159*
X00671Y0016*
X00671Y0016*
X00671Y0016*
X0067Y00161*
X0067Y00161*
X0067Y00161*
X0067Y00162*
X0067Y00162*
X0067Y00162*
X0067Y00162*
X00669Y00163*
X00669Y00163*
X00669Y00163*
X00669Y00163*
X00668Y00164*
X00668Y00164*
X00668Y00164*
X00667Y00164*
X00667Y00164*
X00667Y00164*
X00666Y00164*
X00666Y00164*
X00666Y00164*
X00665*
X00665Y00164*
X00665Y00164*
X00664Y00164*
X00664Y00164*
X00664Y00164*
X00663Y00164*
X00663Y00164*
X00663Y00164*
X00663Y00163*
X00662Y00163*
X00662Y00163*
X00662Y00163*
X00662Y00162*
X00661Y00162*
X00661Y00162*
X00661Y00162*
X00661Y00161*
X00661Y00161*
X00661Y00161*
X00661Y0016*
X00661Y0016*
X00661Y0016*
X00781Y00125D02*
D01*
X00781Y00124*
X00781Y00124*
X00781Y00123*
X00781Y00123*
X00781Y00123*
X00781Y00122*
X00781Y00122*
X00781Y00122*
X00782Y00122*
X00782Y00121*
X00782Y00121*
X00782Y00121*
X00783Y00121*
X00783Y0012*
X00783Y0012*
X00783Y0012*
X00784Y0012*
X00784Y0012*
X00784Y0012*
X00785Y0012*
X00785Y0012*
X00785Y0012*
X00786*
X00786Y0012*
X00786Y0012*
X00787Y0012*
X00787Y0012*
X00787Y0012*
X00788Y0012*
X00788Y0012*
X00788Y0012*
X00789Y00121*
X00789Y00121*
X00789Y00121*
X00789Y00121*
X0079Y00122*
X0079Y00122*
X0079Y00122*
X0079Y00122*
X0079Y00123*
X0079Y00123*
X0079Y00123*
X00791Y00124*
X00791Y00124*
X00791Y00125*
X00791Y00125*
X00791Y00125*
X0079Y00126*
X0079Y00126*
X0079Y00126*
X0079Y00127*
X0079Y00127*
X0079Y00127*
X0079Y00127*
X00789Y00128*
X00789Y00128*
X00789Y00128*
X00789Y00128*
X00788Y00129*
X00788Y00129*
X00788Y00129*
X00787Y00129*
X00787Y00129*
X00787Y00129*
X00786Y00129*
X00786Y00129*
X00786Y00129*
X00785*
X00785Y00129*
X00785Y00129*
X00784Y00129*
X00784Y00129*
X00784Y00129*
X00783Y00129*
X00783Y00129*
X00783Y00129*
X00783Y00128*
X00782Y00128*
X00782Y00128*
X00782Y00128*
X00782Y00127*
X00781Y00127*
X00781Y00127*
X00781Y00127*
X00781Y00126*
X00781Y00126*
X00781Y00126*
X00781Y00125*
X00781Y00125*
X00781Y00125*
X00733Y00035D02*
D01*
X00733Y00034*
X00733Y00034*
X00733Y00033*
X00734Y00033*
X00734Y00033*
X00734Y00032*
X00734Y00032*
X00734Y00032*
X00734Y00032*
X00734Y00031*
X00735Y00031*
X00735Y00031*
X00735Y00031*
X00736Y0003*
X00736Y0003*
X00736Y0003*
X00736Y0003*
X00737Y0003*
X00737Y0003*
X00737Y0003*
X00738Y0003*
X00738Y0003*
X00738*
X00739Y0003*
X00739Y0003*
X0074Y0003*
X0074Y0003*
X0074Y0003*
X00741Y0003*
X00741Y0003*
X00741Y0003*
X00741Y00031*
X00742Y00031*
X00742Y00031*
X00742Y00031*
X00742Y00032*
X00743Y00032*
X00743Y00032*
X00743Y00032*
X00743Y00033*
X00743Y00033*
X00743Y00033*
X00743Y00034*
X00743Y00034*
X00743Y00035*
X00743Y00035*
X00743Y00035*
X00743Y00036*
X00743Y00036*
X00743Y00036*
X00743Y00037*
X00743Y00037*
X00743Y00037*
X00742Y00037*
X00742Y00038*
X00742Y00038*
X00742Y00038*
X00741Y00038*
X00741Y00039*
X00741Y00039*
X00741Y00039*
X0074Y00039*
X0074Y00039*
X0074Y00039*
X00739Y00039*
X00739Y00039*
X00738Y00039*
X00738*
X00738Y00039*
X00737Y00039*
X00737Y00039*
X00737Y00039*
X00736Y00039*
X00736Y00039*
X00736Y00039*
X00736Y00039*
X00735Y00038*
X00735Y00038*
X00735Y00038*
X00734Y00038*
X00734Y00037*
X00734Y00037*
X00734Y00037*
X00734Y00037*
X00734Y00036*
X00734Y00036*
X00733Y00036*
X00733Y00035*
X00733Y00035*
X00733Y00035*
X00966Y00804D02*
Y0082D01*
X00973Y00812D02*
X00958D01*
X00961Y01249D02*
Y01265D01*
X00968Y01257D02*
X00953D01*
X00156Y00465D02*
X0014D01*
X00148Y00457D02*
Y00472D01*
X00231Y00465D02*
X00215D01*
X00223Y00457D02*
Y00472D01*
X00246Y00342D02*
Y00357D01*
X00253Y0035D02*
X00238D01*
X00403Y01525D02*
X00388D01*
X00396Y01517D02*
Y01532D01*
X00366Y0148D02*
X0035D01*
X00358Y01472D02*
Y01487D01*
X00276Y01525D02*
X0026D01*
X00268Y01517D02*
Y01532D01*
X00181Y01429D02*
Y01445D01*
X00188Y01437D02*
X00173D01*
X00181Y01346D02*
Y01362D01*
X00188Y01354D02*
X00173D01*
X00226Y01377D02*
Y01392D01*
X00233Y01385D02*
X00218D01*
X00246Y01674D02*
Y0169D01*
X00253Y01682D02*
X00238D01*
X00491Y01674D02*
Y0169D01*
X00498Y01682D02*
X00483D01*
X00696Y01672D02*
Y01687D01*
X00703Y0168D02*
X00688D01*
X00941Y01667D02*
Y01682D01*
X00948Y01675D02*
X00933D01*
X00721Y01525D02*
X00705D01*
X00713Y01517D02*
Y01532D01*
X00838Y01525D02*
X00822D01*
X0083Y01517D02*
Y01532D01*
X00801Y0148D02*
X00785D01*
X00793Y01472D02*
Y01487D01*
X00548Y01525D02*
X00533D01*
X00541Y01517D02*
Y01532D01*
X00548Y0157D02*
X00533D01*
X00541Y01562D02*
Y01577D01*
X00626Y01434D02*
Y0145D01*
X00633Y01442D02*
X00618D01*
X00671Y01389D02*
Y01405D01*
X00678Y01397D02*
X00663D01*
X00626Y01356D02*
Y01372D01*
X00633Y01364D02*
X00618D01*
X00516Y01249D02*
Y01265D01*
X00523Y01257D02*
X00508D01*
X00276Y012D02*
X0026D01*
X00268Y01192D02*
Y01207D01*
X00403Y0104D02*
X00387D01*
X00395Y01032D02*
Y01047D01*
X00403Y01085D02*
X00388D01*
X00396Y01077D02*
Y01092D01*
X00276Y0108D02*
X0026D01*
X00268Y01072D02*
Y01087D01*
X00151Y00905D02*
Y00921D01*
X00159Y00913D02*
X00144D01*
X00156Y00989D02*
Y01005D01*
X00163Y00997D02*
X00148D01*
X00201Y00941D02*
Y00957D01*
X00208Y00949D02*
X00193D01*
X00716Y01195D02*
X007D01*
X00708Y01187D02*
Y01202D01*
X00838Y0104D02*
X00822D01*
X0083Y01032D02*
Y01047D01*
X00836Y01085D02*
X0082D01*
X00828Y01077D02*
Y01092D01*
X00716Y01075D02*
X007D01*
X00708Y01067D02*
Y01082D01*
X00626Y00984D02*
Y01D01*
X00633Y00992D02*
X00618D01*
X00626Y00906D02*
Y00922D01*
X00633Y00914D02*
X00618D01*
X00671Y00939D02*
Y00955D01*
X00678Y00947D02*
X00663D01*
X00421Y00807D02*
Y00822D01*
X00428Y00815D02*
X00413D01*
X00278Y0074D02*
X00263D01*
X00271Y00732D02*
Y00747D01*
X00323Y00635D02*
X00308D01*
X00316Y00627D02*
Y00642D01*
X00611Y00705D02*
X00595D01*
X00603Y00697D02*
Y00712D01*
X00536Y00705D02*
X0052D01*
X00528Y00697D02*
Y00712D01*
X00493Y0061D02*
X00477D01*
X00485Y00602D02*
Y00617D01*
X00711Y0077D02*
X00695D01*
X00703Y00762D02*
Y00777D01*
X00758Y00635D02*
X00743D01*
X00751Y00627D02*
Y00642D01*
X00723Y0059D02*
X00707D01*
X00715Y00582D02*
Y00597D01*
X00873Y0063D02*
X00858D01*
X00866Y00622D02*
Y00637D01*
X01043Y00465D02*
X01028D01*
X01036Y00457D02*
Y00472D01*
X00966Y00465D02*
X0095D01*
X00958Y00457D02*
Y00472D01*
X00941Y00352D02*
Y00368D01*
X00948Y0036D02*
X00933D01*
X00696Y0044D02*
X0068D01*
X00688Y00432D02*
Y00447D01*
X00729Y00395D02*
X00713D01*
X00721Y00387D02*
Y00402D01*
X00661Y00315D02*
X00645D01*
X00653Y00307D02*
Y00322D01*
X00584Y00315D02*
X00568D01*
X00576Y00307D02*
Y00322D01*
X00546Y0027D02*
X0053D01*
X00538Y00262D02*
Y00277D01*
X00666Y00152D02*
Y00167D01*
X00673Y0016D02*
X00658D01*
X00786Y00117D02*
Y00132D01*
X00793Y00125D02*
X00778D01*
X00746Y00035D02*
X0073D01*
X00738Y00027D02*
Y00042D01*
G54D69*
X00574Y0168D02*
D01*
X00574Y01679*
X00575Y01678*
X00575Y01677*
X00575Y01676*
X00575Y01675*
X00576Y01674*
X00576Y01673*
X00577Y01672*
X00577Y01671*
X00578Y01671*
X00578Y0167*
X00579Y01669*
X0058Y01669*
X0058Y01668*
X00581Y01668*
X00582Y01667*
X00583Y01667*
X00584Y01666*
X00585Y01666*
X00586Y01666*
X00587Y01666*
X00588Y01666*
X00589*
X0059Y01666*
X00591Y01666*
X00592Y01666*
X00592Y01666*
X00593Y01667*
X00594Y01667*
X00595Y01668*
X00596Y01668*
X00597Y01669*
X00597Y01669*
X00598Y0167*
X00599Y01671*
X00599Y01671*
X006Y01672*
X006Y01673*
X00601Y01674*
X00601Y01675*
X00601Y01676*
X00602Y01677*
X00602Y01678*
X00602Y01679*
X00602Y0168*
X00602Y0168*
X00602Y01681*
X00602Y01682*
X00601Y01683*
X00601Y01684*
X00601Y01685*
X006Y01686*
X006Y01687*
X00599Y01688*
X00599Y01688*
X00598Y01689*
X00597Y0169*
X00597Y0169*
X00596Y01691*
X00595Y01691*
X00594Y01692*
X00593Y01692*
X00592Y01693*
X00592Y01693*
X00591Y01693*
X0059Y01693*
X00589Y01693*
X00588*
X00587Y01693*
X00586Y01693*
X00585Y01693*
X00584Y01693*
X00583Y01692*
X00582Y01692*
X00581Y01691*
X0058Y01691*
X0058Y0169*
X00579Y0169*
X00578Y01689*
X00578Y01688*
X00577Y01688*
X00577Y01687*
X00576Y01686*
X00576Y01685*
X00575Y01684*
X00575Y01683*
X00575Y01682*
X00575Y01681*
X00574Y0168*
X00574Y0168*
X00162Y00585D02*
D01*
X00162Y00584*
X00162Y00583*
X00162Y00582*
X00162Y00581*
X00163Y0058*
X00163Y00579*
X00163Y00578*
X00164Y00577*
X00164Y00576*
X00165Y00576*
X00166Y00575*
X00166Y00574*
X00167Y00574*
X00168Y00573*
X00169Y00573*
X0017Y00572*
X0017Y00572*
X00171Y00571*
X00172Y00571*
X00173Y00571*
X00174Y00571*
X00175Y00571*
X00176*
X00177Y00571*
X00178Y00571*
X00179Y00571*
X0018Y00571*
X00181Y00572*
X00182Y00572*
X00182Y00573*
X00183Y00573*
X00184Y00574*
X00185Y00574*
X00186Y00575*
X00186Y00576*
X00187Y00576*
X00187Y00577*
X00188Y00578*
X00188Y00579*
X00189Y0058*
X00189Y00581*
X00189Y00582*
X00189Y00583*
X00189Y00584*
X00189Y00585*
X00189Y00585*
X00189Y00586*
X00189Y00587*
X00189Y00588*
X00189Y00589*
X00188Y0059*
X00188Y00591*
X00187Y00592*
X00187Y00593*
X00186Y00593*
X00186Y00594*
X00185Y00595*
X00184Y00595*
X00183Y00596*
X00182Y00596*
X00182Y00597*
X00181Y00597*
X0018Y00598*
X00179Y00598*
X00178Y00598*
X00177Y00598*
X00176Y00598*
X00175*
X00174Y00598*
X00173Y00598*
X00172Y00598*
X00171Y00598*
X0017Y00597*
X0017Y00597*
X00169Y00596*
X00168Y00596*
X00167Y00595*
X00166Y00595*
X00166Y00594*
X00165Y00593*
X00164Y00593*
X00164Y00592*
X00163Y00591*
X00163Y0059*
X00163Y00589*
X00162Y00588*
X00162Y00587*
X00162Y00586*
X00162Y00585*
X00162Y00585*
X00989Y00595D02*
D01*
X00989Y00594*
X0099Y00593*
X0099Y00592*
X0099Y00591*
X0099Y0059*
X00991Y00589*
X00991Y00588*
X00992Y00587*
X00992Y00586*
X00993Y00586*
X00993Y00585*
X00994Y00584*
X00995Y00584*
X00995Y00583*
X00996Y00583*
X00997Y00582*
X00998Y00582*
X00999Y00581*
X01Y00581*
X01001Y00581*
X01002Y00581*
X01003Y00581*
X01004*
X01005Y00581*
X01006Y00581*
X01007Y00581*
X01007Y00581*
X01008Y00582*
X01009Y00582*
X0101Y00583*
X01011Y00583*
X01012Y00584*
X01012Y00584*
X01013Y00585*
X01014Y00586*
X01014Y00586*
X01015Y00587*
X01015Y00588*
X01016Y00589*
X01016Y0059*
X01016Y00591*
X01017Y00592*
X01017Y00593*
X01017Y00594*
X01017Y00595*
X01017Y00595*
X01017Y00596*
X01017Y00597*
X01016Y00598*
X01016Y00599*
X01016Y006*
X01015Y00601*
X01015Y00602*
X01014Y00603*
X01014Y00603*
X01013Y00604*
X01012Y00605*
X01012Y00605*
X01011Y00606*
X0101Y00606*
X01009Y00607*
X01008Y00607*
X01007Y00608*
X01007Y00608*
X01006Y00608*
X01005Y00608*
X01004Y00608*
X01003*
X01002Y00608*
X01001Y00608*
X01Y00608*
X00999Y00608*
X00998Y00607*
X00997Y00607*
X00996Y00606*
X00995Y00606*
X00995Y00605*
X00994Y00605*
X00993Y00604*
X00993Y00603*
X00992Y00603*
X00992Y00602*
X00991Y00601*
X00991Y006*
X0099Y00599*
X0099Y00598*
X0099Y00597*
X0099Y00596*
X00989Y00595*
X00989Y00595*
X00577Y0168D02*
D01*
X00577Y01679*
X00577Y01678*
X00577Y01677*
X00577Y01676*
X00578Y01675*
X00578Y01674*
X00578Y01673*
X00579Y01672*
X00579Y01671*
X0058Y01671*
X00581Y0167*
X00581Y01669*
X00582Y01669*
X00583Y01668*
X00584Y01668*
X00585Y01667*
X00585Y01667*
X00586Y01666*
X00587Y01666*
X00588Y01666*
X00589Y01666*
X0059Y01666*
X00591*
X00592Y01666*
X00593Y01666*
X00594Y01666*
X00595Y01666*
X00596Y01667*
X00597Y01667*
X00597Y01668*
X00598Y01668*
X00599Y01669*
X006Y01669*
X00601Y0167*
X00601Y01671*
X00602Y01671*
X00602Y01672*
X00603Y01673*
X00603Y01674*
X00604Y01675*
X00604Y01676*
X00604Y01677*
X00604Y01678*
X00604Y01679*
X00604Y0168*
X00604Y0168*
X00604Y01681*
X00604Y01682*
X00604Y01683*
X00604Y01684*
X00603Y01685*
X00603Y01686*
X00602Y01687*
X00602Y01688*
X00601Y01688*
X00601Y01689*
X006Y0169*
X00599Y0169*
X00598Y01691*
X00597Y01691*
X00597Y01692*
X00596Y01692*
X00595Y01693*
X00594Y01693*
X00593Y01693*
X00592Y01693*
X00591Y01693*
X0059*
X00589Y01693*
X00588Y01693*
X00587Y01693*
X00586Y01693*
X00585Y01692*
X00585Y01692*
X00584Y01691*
X00583Y01691*
X00582Y0169*
X00581Y0169*
X00581Y01689*
X0058Y01688*
X00579Y01688*
X00579Y01687*
X00578Y01686*
X00578Y01685*
X00578Y01684*
X00577Y01683*
X00577Y01682*
X00577Y01681*
X00577Y0168*
X00577Y0168*
X00422D02*
D01*
X00422Y01679*
X00422Y01678*
X00422Y01677*
X00422Y01676*
X00423Y01675*
X00423Y01674*
X00423Y01673*
X00424Y01672*
X00424Y01671*
X00425Y01671*
X00426Y0167*
X00426Y01669*
X00427Y01669*
X00428Y01668*
X00429Y01668*
X0043Y01667*
X0043Y01667*
X00431Y01666*
X00432Y01666*
X00433Y01666*
X00434Y01666*
X00435Y01666*
X00436*
X00437Y01666*
X00438Y01666*
X00439Y01666*
X0044Y01666*
X00441Y01667*
X00442Y01667*
X00442Y01668*
X00443Y01668*
X00444Y01669*
X00445Y01669*
X00446Y0167*
X00446Y01671*
X00447Y01671*
X00447Y01672*
X00448Y01673*
X00448Y01674*
X00449Y01675*
X00449Y01676*
X00449Y01677*
X00449Y01678*
X00449Y01679*
X00449Y0168*
X00449Y0168*
X00449Y01681*
X00449Y01682*
X00449Y01683*
X00449Y01684*
X00448Y01685*
X00448Y01686*
X00447Y01687*
X00447Y01688*
X00446Y01688*
X00446Y01689*
X00445Y0169*
X00444Y0169*
X00443Y01691*
X00442Y01691*
X00442Y01692*
X00441Y01692*
X0044Y01693*
X00439Y01693*
X00438Y01693*
X00437Y01693*
X00436Y01693*
X00435*
X00434Y01693*
X00433Y01693*
X00432Y01693*
X00431Y01693*
X0043Y01692*
X0043Y01692*
X00429Y01691*
X00428Y01691*
X00427Y0169*
X00426Y0169*
X00426Y01689*
X00425Y01688*
X00424Y01688*
X00424Y01687*
X00423Y01686*
X00423Y01685*
X00423Y01684*
X00422Y01683*
X00422Y01682*
X00422Y01681*
X00422Y0168*
X00422Y0168*
X00737D02*
D01*
X00737Y01679*
X00737Y01678*
X00737Y01677*
X00737Y01676*
X00738Y01675*
X00738Y01674*
X00738Y01673*
X00739Y01672*
X00739Y01671*
X0074Y01671*
X00741Y0167*
X00741Y01669*
X00742Y01669*
X00743Y01668*
X00744Y01668*
X00745Y01667*
X00745Y01667*
X00746Y01666*
X00747Y01666*
X00748Y01666*
X00749Y01666*
X0075Y01666*
X00751*
X00752Y01666*
X00753Y01666*
X00754Y01666*
X00755Y01666*
X00756Y01667*
X00757Y01667*
X00757Y01668*
X00758Y01668*
X00759Y01669*
X0076Y01669*
X00761Y0167*
X00761Y01671*
X00762Y01671*
X00762Y01672*
X00763Y01673*
X00763Y01674*
X00764Y01675*
X00764Y01676*
X00764Y01677*
X00764Y01678*
X00764Y01679*
X00764Y0168*
X00764Y0168*
X00764Y01681*
X00764Y01682*
X00764Y01683*
X00764Y01684*
X00763Y01685*
X00763Y01686*
X00762Y01687*
X00762Y01688*
X00761Y01688*
X00761Y01689*
X0076Y0169*
X00759Y0169*
X00758Y01691*
X00757Y01691*
X00757Y01692*
X00756Y01692*
X00755Y01693*
X00754Y01693*
X00753Y01693*
X00752Y01693*
X00751Y01693*
X0075*
X00749Y01693*
X00748Y01693*
X00747Y01693*
X00746Y01693*
X00745Y01692*
X00745Y01692*
X00744Y01691*
X00743Y01691*
X00742Y0169*
X00741Y0169*
X00741Y01689*
X0074Y01688*
X00739Y01688*
X00739Y01687*
X00738Y01686*
X00738Y01685*
X00738Y01684*
X00737Y01683*
X00737Y01682*
X00737Y01681*
X00737Y0168*
X00737Y0168*
X00347Y0135D02*
D01*
X00347Y01349*
X00347Y01348*
X00347Y01347*
X00347Y01346*
X00348Y01345*
X00348Y01344*
X00348Y01343*
X00349Y01342*
X00349Y01341*
X0035Y01341*
X00351Y0134*
X00351Y01339*
X00352Y01339*
X00353Y01338*
X00354Y01338*
X00355Y01337*
X00355Y01337*
X00356Y01336*
X00357Y01336*
X00358Y01336*
X00359Y01336*
X0036Y01336*
X00361*
X00362Y01336*
X00363Y01336*
X00364Y01336*
X00365Y01336*
X00366Y01337*
X00367Y01337*
X00367Y01338*
X00368Y01338*
X00369Y01339*
X0037Y01339*
X00371Y0134*
X00371Y01341*
X00372Y01341*
X00372Y01342*
X00373Y01343*
X00373Y01344*
X00374Y01345*
X00374Y01346*
X00374Y01347*
X00374Y01348*
X00374Y01349*
X00374Y0135*
X00374Y0135*
X00374Y01351*
X00374Y01352*
X00374Y01353*
X00374Y01354*
X00373Y01355*
X00373Y01356*
X00372Y01357*
X00372Y01358*
X00371Y01358*
X00371Y01359*
X0037Y0136*
X00369Y0136*
X00368Y01361*
X00367Y01361*
X00367Y01362*
X00366Y01362*
X00365Y01363*
X00364Y01363*
X00363Y01363*
X00362Y01363*
X00361Y01363*
X0036*
X00359Y01363*
X00358Y01363*
X00357Y01363*
X00356Y01363*
X00355Y01362*
X00355Y01362*
X00354Y01361*
X00353Y01361*
X00352Y0136*
X00351Y0136*
X00351Y01359*
X0035Y01358*
X00349Y01358*
X00349Y01357*
X00348Y01356*
X00348Y01355*
X00348Y01354*
X00347Y01353*
X00347Y01352*
X00347Y01351*
X00347Y0135*
X00347Y0135*
X00787D02*
D01*
X00787Y01349*
X00787Y01348*
X00787Y01347*
X00787Y01346*
X00788Y01345*
X00788Y01344*
X00788Y01343*
X00789Y01342*
X00789Y01341*
X0079Y01341*
X00791Y0134*
X00791Y01339*
X00792Y01339*
X00793Y01338*
X00794Y01338*
X00795Y01337*
X00795Y01337*
X00796Y01336*
X00797Y01336*
X00798Y01336*
X00799Y01336*
X008Y01336*
X00801*
X00802Y01336*
X00803Y01336*
X00804Y01336*
X00805Y01336*
X00806Y01337*
X00807Y01337*
X00807Y01338*
X00808Y01338*
X00809Y01339*
X0081Y01339*
X00811Y0134*
X00811Y01341*
X00812Y01341*
X00812Y01342*
X00813Y01343*
X00813Y01344*
X00814Y01345*
X00814Y01346*
X00814Y01347*
X00814Y01348*
X00814Y01349*
X00814Y0135*
X00814Y0135*
X00814Y01351*
X00814Y01352*
X00814Y01353*
X00814Y01354*
X00813Y01355*
X00813Y01356*
X00812Y01357*
X00812Y01358*
X00811Y01358*
X00811Y01359*
X0081Y0136*
X00809Y0136*
X00808Y01361*
X00807Y01361*
X00807Y01362*
X00806Y01362*
X00805Y01363*
X00804Y01363*
X00803Y01363*
X00802Y01363*
X00801Y01363*
X008*
X00799Y01363*
X00798Y01363*
X00797Y01363*
X00796Y01363*
X00795Y01362*
X00795Y01362*
X00794Y01361*
X00793Y01361*
X00792Y0136*
X00791Y0136*
X00791Y01359*
X0079Y01358*
X00789Y01358*
X00789Y01357*
X00788Y01356*
X00788Y01355*
X00788Y01354*
X00787Y01353*
X00787Y01352*
X00787Y01351*
X00787Y0135*
X00787Y0135*
X00347Y00905D02*
D01*
X00347Y00904*
X00347Y00903*
X00347Y00902*
X00347Y00901*
X00348Y009*
X00348Y00899*
X00348Y00898*
X00349Y00897*
X00349Y00896*
X0035Y00896*
X00351Y00895*
X00351Y00894*
X00352Y00894*
X00353Y00893*
X00354Y00893*
X00355Y00892*
X00355Y00892*
X00356Y00891*
X00357Y00891*
X00358Y00891*
X00359Y00891*
X0036Y00891*
X00361*
X00362Y00891*
X00363Y00891*
X00364Y00891*
X00365Y00891*
X00366Y00892*
X00367Y00892*
X00367Y00893*
X00368Y00893*
X00369Y00894*
X0037Y00894*
X00371Y00895*
X00371Y00896*
X00372Y00896*
X00372Y00897*
X00373Y00898*
X00373Y00899*
X00374Y009*
X00374Y00901*
X00374Y00902*
X00374Y00903*
X00374Y00904*
X00374Y00905*
X00374Y00905*
X00374Y00906*
X00374Y00907*
X00374Y00908*
X00374Y00909*
X00373Y0091*
X00373Y00911*
X00372Y00912*
X00372Y00913*
X00371Y00913*
X00371Y00914*
X0037Y00915*
X00369Y00915*
X00368Y00916*
X00367Y00916*
X00367Y00917*
X00366Y00917*
X00365Y00918*
X00364Y00918*
X00363Y00918*
X00362Y00918*
X00361Y00918*
X0036*
X00359Y00918*
X00358Y00918*
X00357Y00918*
X00356Y00918*
X00355Y00917*
X00355Y00917*
X00354Y00916*
X00353Y00916*
X00352Y00915*
X00351Y00915*
X00351Y00914*
X0035Y00913*
X00349Y00913*
X00349Y00912*
X00348Y00911*
X00348Y0091*
X00348Y00909*
X00347Y00908*
X00347Y00907*
X00347Y00906*
X00347Y00905*
X00347Y00905*
X00787D02*
D01*
X00787Y00904*
X00787Y00903*
X00787Y00902*
X00787Y00901*
X00788Y009*
X00788Y00899*
X00788Y00898*
X00789Y00897*
X00789Y00896*
X0079Y00896*
X00791Y00895*
X00791Y00894*
X00792Y00894*
X00793Y00893*
X00794Y00893*
X00795Y00892*
X00795Y00892*
X00796Y00891*
X00797Y00891*
X00798Y00891*
X00799Y00891*
X008Y00891*
X00801*
X00802Y00891*
X00803Y00891*
X00804Y00891*
X00805Y00891*
X00806Y00892*
X00807Y00892*
X00807Y00893*
X00808Y00893*
X00809Y00894*
X0081Y00894*
X00811Y00895*
X00811Y00896*
X00812Y00896*
X00812Y00897*
X00813Y00898*
X00813Y00899*
X00814Y009*
X00814Y00901*
X00814Y00902*
X00814Y00903*
X00814Y00904*
X00814Y00905*
X00814Y00905*
X00814Y00906*
X00814Y00907*
X00814Y00908*
X00814Y00909*
X00813Y0091*
X00813Y00911*
X00812Y00912*
X00812Y00913*
X00811Y00913*
X00811Y00914*
X0081Y00915*
X00809Y00915*
X00808Y00916*
X00807Y00916*
X00807Y00917*
X00806Y00917*
X00805Y00918*
X00804Y00918*
X00803Y00918*
X00802Y00918*
X00801Y00918*
X008*
X00799Y00918*
X00798Y00918*
X00797Y00918*
X00796Y00918*
X00795Y00917*
X00795Y00917*
X00794Y00916*
X00793Y00916*
X00792Y00915*
X00791Y00915*
X00791Y00914*
X0079Y00913*
X00789Y00913*
X00789Y00912*
X00788Y00911*
X00788Y0091*
X00788Y00909*
X00787Y00908*
X00787Y00907*
X00787Y00906*
X00787Y00905*
X00787Y00905*
X00577Y0046D02*
D01*
X00577Y00459*
X00577Y00458*
X00577Y00457*
X00577Y00456*
X00578Y00455*
X00578Y00454*
X00578Y00453*
X00579Y00452*
X00579Y00451*
X0058Y00451*
X00581Y0045*
X00581Y00449*
X00582Y00449*
X00583Y00448*
X00584Y00448*
X00585Y00447*
X00585Y00447*
X00586Y00446*
X00587Y00446*
X00588Y00446*
X00589Y00446*
X0059Y00446*
X00591*
X00592Y00446*
X00593Y00446*
X00594Y00446*
X00595Y00446*
X00596Y00447*
X00597Y00447*
X00597Y00448*
X00598Y00448*
X00599Y00449*
X006Y00449*
X00601Y0045*
X00601Y00451*
X00602Y00451*
X00602Y00452*
X00603Y00453*
X00603Y00454*
X00604Y00455*
X00604Y00456*
X00604Y00457*
X00604Y00458*
X00604Y00459*
X00604Y0046*
X00604Y0046*
X00604Y00461*
X00604Y00462*
X00604Y00463*
X00604Y00464*
X00603Y00465*
X00603Y00466*
X00602Y00467*
X00602Y00468*
X00601Y00468*
X00601Y00469*
X006Y0047*
X00599Y0047*
X00598Y00471*
X00597Y00471*
X00597Y00472*
X00596Y00472*
X00595Y00473*
X00594Y00473*
X00593Y00473*
X00592Y00473*
X00591Y00473*
X0059*
X00589Y00473*
X00588Y00473*
X00587Y00473*
X00586Y00473*
X00585Y00472*
X00585Y00472*
X00584Y00471*
X00583Y00471*
X00582Y0047*
X00581Y0047*
X00581Y00469*
X0058Y00468*
X00579Y00468*
X00579Y00467*
X00578Y00466*
X00578Y00465*
X00578Y00464*
X00577Y00463*
X00577Y00462*
X00577Y00461*
X00577Y0046*
X00577Y0046*
X00852Y0058D02*
D01*
X00852Y00579*
X00852Y00578*
X00852Y00577*
X00852Y00576*
X00853Y00575*
X00853Y00574*
X00853Y00573*
X00854Y00572*
X00854Y00571*
X00855Y00571*
X00856Y0057*
X00856Y00569*
X00857Y00569*
X00858Y00568*
X00859Y00568*
X0086Y00567*
X0086Y00567*
X00861Y00566*
X00862Y00566*
X00863Y00566*
X00864Y00566*
X00865Y00566*
X00866*
X00867Y00566*
X00868Y00566*
X00869Y00566*
X0087Y00566*
X00871Y00567*
X00872Y00567*
X00872Y00568*
X00873Y00568*
X00874Y00569*
X00875Y00569*
X00876Y0057*
X00876Y00571*
X00877Y00571*
X00877Y00572*
X00878Y00573*
X00878Y00574*
X00879Y00575*
X00879Y00576*
X00879Y00577*
X00879Y00578*
X00879Y00579*
X00879Y0058*
X00879Y0058*
X00879Y00581*
X00879Y00582*
X00879Y00583*
X00879Y00584*
X00878Y00585*
X00878Y00586*
X00877Y00587*
X00877Y00588*
X00876Y00588*
X00876Y00589*
X00875Y0059*
X00874Y0059*
X00873Y00591*
X00872Y00591*
X00872Y00592*
X00871Y00592*
X0087Y00593*
X00869Y00593*
X00868Y00593*
X00867Y00593*
X00866Y00593*
X00865*
X00864Y00593*
X00863Y00593*
X00862Y00593*
X00861Y00593*
X0086Y00592*
X0086Y00592*
X00859Y00591*
X00858Y00591*
X00857Y0059*
X00856Y0059*
X00856Y00589*
X00855Y00588*
X00854Y00588*
X00854Y00587*
X00853Y00586*
X00853Y00585*
X00853Y00584*
X00852Y00583*
X00852Y00582*
X00852Y00581*
X00852Y0058*
X00852Y0058*
X00989Y00579D02*
D01*
X00989Y00578*
X0099Y00577*
X0099Y00577*
X0099Y00576*
X0099Y00575*
X00991Y00574*
X00991Y00573*
X00992Y00572*
X00992Y00571*
X00993Y00571*
X00993Y0057*
X00994Y00569*
X00995Y00569*
X00995Y00568*
X00996Y00567*
X00997Y00567*
X00998Y00567*
X00999Y00566*
X01Y00566*
X01001Y00566*
X01002Y00566*
X01003Y00566*
X01004*
X01005Y00566*
X01006Y00566*
X01007Y00566*
X01007Y00566*
X01008Y00567*
X01009Y00567*
X0101Y00567*
X01011Y00568*
X01012Y00569*
X01012Y00569*
X01013Y0057*
X01014Y00571*
X01014Y00571*
X01015Y00572*
X01015Y00573*
X01016Y00574*
X01016Y00575*
X01016Y00576*
X01017Y00577*
X01017Y00577*
X01017Y00578*
X01017Y00579*
X01017Y0058*
X01017Y00581*
X01017Y00582*
X01016Y00583*
X01016Y00584*
X01016Y00585*
X01015Y00586*
X01015Y00587*
X01014Y00587*
X01014Y00588*
X01013Y00589*
X01012Y0059*
X01012Y0059*
X01011Y00591*
X0101Y00591*
X01009Y00592*
X01008Y00592*
X01007Y00592*
X01007Y00593*
X01006Y00593*
X01005Y00593*
X01004Y00593*
X01003*
X01002Y00593*
X01001Y00593*
X01Y00593*
X00999Y00592*
X00998Y00592*
X00997Y00592*
X00996Y00591*
X00995Y00591*
X00995Y0059*
X00994Y0059*
X00993Y00589*
X00993Y00588*
X00992Y00587*
X00992Y00587*
X00991Y00586*
X00991Y00585*
X0099Y00584*
X0099Y00583*
X0099Y00582*
X0099Y00581*
X00989Y0058*
X00989Y00579*
X00302Y0058D02*
D01*
X00302Y00579*
X00302Y00578*
X00302Y00577*
X00302Y00576*
X00303Y00575*
X00303Y00574*
X00303Y00573*
X00304Y00572*
X00304Y00571*
X00305Y00571*
X00306Y0057*
X00306Y00569*
X00307Y00569*
X00308Y00568*
X00309Y00568*
X0031Y00567*
X0031Y00567*
X00311Y00566*
X00312Y00566*
X00313Y00566*
X00314Y00566*
X00315Y00566*
X00316*
X00317Y00566*
X00318Y00566*
X00319Y00566*
X0032Y00566*
X00321Y00567*
X00322Y00567*
X00322Y00568*
X00323Y00568*
X00324Y00569*
X00325Y00569*
X00326Y0057*
X00326Y00571*
X00327Y00571*
X00327Y00572*
X00328Y00573*
X00328Y00574*
X00329Y00575*
X00329Y00576*
X00329Y00577*
X00329Y00578*
X00329Y00579*
X00329Y0058*
X00329Y0058*
X00329Y00581*
X00329Y00582*
X00329Y00583*
X00329Y00584*
X00328Y00585*
X00328Y00586*
X00327Y00587*
X00327Y00588*
X00326Y00588*
X00326Y00589*
X00325Y0059*
X00324Y0059*
X00323Y00591*
X00322Y00591*
X00322Y00592*
X00321Y00592*
X0032Y00593*
X00319Y00593*
X00318Y00593*
X00317Y00593*
X00316Y00593*
X00315*
X00314Y00593*
X00313Y00593*
X00312Y00593*
X00311Y00593*
X0031Y00592*
X0031Y00592*
X00309Y00591*
X00308Y00591*
X00307Y0059*
X00306Y0059*
X00306Y00589*
X00305Y00588*
X00304Y00588*
X00304Y00587*
X00303Y00586*
X00303Y00585*
X00303Y00584*
X00302Y00583*
X00302Y00582*
X00302Y00581*
X00302Y0058*
X00302Y0058*
X00164Y0058D02*
D01*
X00164Y00579*
X00165Y00578*
X00165Y00577*
X00165Y00576*
X00165Y00575*
X00166Y00574*
X00166Y00573*
X00167Y00572*
X00167Y00572*
X00168Y00571*
X00168Y0057*
X00169Y00569*
X0017Y00569*
X0017Y00568*
X00171Y00568*
X00172Y00567*
X00173Y00567*
X00174Y00567*
X00175Y00566*
X00176Y00566*
X00177Y00566*
X00178Y00566*
X00179*
X0018Y00566*
X00181Y00566*
X00182Y00566*
X00182Y00567*
X00183Y00567*
X00184Y00567*
X00185Y00568*
X00186Y00568*
X00187Y00569*
X00187Y00569*
X00188Y0057*
X00189Y00571*
X00189Y00572*
X0019Y00572*
X0019Y00573*
X00191Y00574*
X00191Y00575*
X00191Y00576*
X00192Y00577*
X00192Y00578*
X00192Y00579*
X00192Y0058*
X00192Y00581*
X00192Y00582*
X00192Y00582*
X00191Y00583*
X00191Y00584*
X00191Y00585*
X0019Y00586*
X0019Y00587*
X00189Y00588*
X00189Y00588*
X00188Y00589*
X00187Y0059*
X00187Y0059*
X00186Y00591*
X00185Y00592*
X00184Y00592*
X00183Y00592*
X00182Y00593*
X00182Y00593*
X00181Y00593*
X0018Y00593*
X00179Y00593*
X00178*
X00177Y00593*
X00176Y00593*
X00175Y00593*
X00174Y00593*
X00173Y00592*
X00172Y00592*
X00171Y00592*
X0017Y00591*
X0017Y0059*
X00169Y0059*
X00168Y00589*
X00168Y00588*
X00167Y00588*
X00167Y00587*
X00166Y00586*
X00166Y00585*
X00165Y00584*
X00165Y00583*
X00165Y00582*
X00165Y00582*
X00164Y00581*
X00164Y0058*
X00717Y0014D02*
D01*
X00717Y00139*
X00717Y00138*
X00717Y00137*
X00717Y00136*
X00718Y00135*
X00718Y00134*
X00718Y00133*
X00719Y00132*
X00719Y00131*
X0072Y00131*
X00721Y0013*
X00721Y00129*
X00722Y00129*
X00723Y00128*
X00724Y00128*
X00725Y00127*
X00725Y00127*
X00726Y00126*
X00727Y00126*
X00728Y00126*
X00729Y00126*
X0073Y00126*
X00731*
X00732Y00126*
X00733Y00126*
X00734Y00126*
X00735Y00126*
X00736Y00127*
X00737Y00127*
X00737Y00128*
X00738Y00128*
X00739Y00129*
X0074Y00129*
X00741Y0013*
X00741Y00131*
X00742Y00131*
X00742Y00132*
X00743Y00133*
X00743Y00134*
X00744Y00135*
X00744Y00136*
X00744Y00137*
X00744Y00138*
X00744Y00139*
X00744Y0014*
X00744Y0014*
X00744Y00141*
X00744Y00142*
X00744Y00143*
X00744Y00144*
X00743Y00145*
X00743Y00146*
X00742Y00147*
X00742Y00148*
X00741Y00148*
X00741Y00149*
X0074Y0015*
X00739Y0015*
X00738Y00151*
X00737Y00151*
X00737Y00152*
X00736Y00152*
X00735Y00153*
X00734Y00153*
X00733Y00153*
X00732Y00153*
X00731Y00153*
X0073*
X00729Y00153*
X00728Y00153*
X00727Y00153*
X00726Y00153*
X00725Y00152*
X00725Y00152*
X00724Y00151*
X00723Y00151*
X00722Y0015*
X00721Y0015*
X00721Y00149*
X0072Y00148*
X00719Y00148*
X00719Y00147*
X00718Y00146*
X00718Y00145*
X00718Y00144*
X00717Y00143*
X00717Y00142*
X00717Y00141*
X00717Y0014*
X00717Y0014*
X00727Y00034D02*
D01*
X00727Y00033*
X00727Y00032*
X00727Y00031*
X00727Y0003*
X00728Y0003*
X00728Y00029*
X00728Y00028*
X00729Y00027*
X00729Y00026*
X0073Y00025*
X00731Y00025*
X00731Y00024*
X00732Y00023*
X00733Y00023*
X00734Y00022*
X00735Y00022*
X00735Y00021*
X00736Y00021*
X00737Y00021*
X00738Y00021*
X00739Y00021*
X0074Y0002*
X00741*
X00742Y00021*
X00743Y00021*
X00744Y00021*
X00745Y00021*
X00746Y00021*
X00747Y00022*
X00748Y00022*
X00748Y00023*
X00749Y00023*
X0075Y00024*
X00751Y00025*
X00751Y00025*
X00752Y00026*
X00752Y00027*
X00753Y00028*
X00753Y00029*
X00754Y0003*
X00754Y0003*
X00754Y00031*
X00754Y00032*
X00754Y00033*
X00754Y00034*
X00754Y00035*
X00754Y00036*
X00754Y00037*
X00754Y00038*
X00754Y00039*
X00753Y0004*
X00753Y00041*
X00752Y00042*
X00752Y00042*
X00751Y00043*
X00751Y00044*
X0075Y00044*
X00749Y00045*
X00748Y00046*
X00748Y00046*
X00747Y00047*
X00746Y00047*
X00745Y00047*
X00744Y00048*
X00743Y00048*
X00742Y00048*
X00741Y00048*
X0074*
X00739Y00048*
X00738Y00048*
X00737Y00048*
X00736Y00047*
X00735Y00047*
X00735Y00047*
X00734Y00046*
X00733Y00046*
X00732Y00045*
X00731Y00044*
X00731Y00044*
X0073Y00043*
X00729Y00042*
X00729Y00042*
X00728Y00041*
X00728Y0004*
X00728Y00039*
X00727Y00038*
X00727Y00037*
X00727Y00036*
X00727Y00035*
X00727Y00034*
X00477Y0017D02*
D01*
X00477Y00169*
X00477Y00168*
X00477Y00167*
X00477Y00166*
X00478Y00165*
X00478Y00164*
X00478Y00163*
X00479Y00162*
X00479Y00161*
X0048Y00161*
X00481Y0016*
X00481Y00159*
X00482Y00159*
X00483Y00158*
X00484Y00158*
X00485Y00157*
X00485Y00157*
X00486Y00156*
X00487Y00156*
X00488Y00156*
X00489Y00156*
X0049Y00156*
X00491*
X00492Y00156*
X00493Y00156*
X00494Y00156*
X00495Y00156*
X00496Y00157*
X00497Y00157*
X00497Y00158*
X00498Y00158*
X00499Y00159*
X005Y00159*
X00501Y0016*
X00501Y00161*
X00502Y00161*
X00502Y00162*
X00503Y00163*
X00503Y00164*
X00504Y00165*
X00504Y00166*
X00504Y00167*
X00504Y00168*
X00504Y00169*
X00504Y0017*
X00504Y0017*
X00504Y00171*
X00504Y00172*
X00504Y00173*
X00504Y00174*
X00503Y00175*
X00503Y00176*
X00502Y00177*
X00502Y00178*
X00501Y00178*
X00501Y00179*
X005Y0018*
X00499Y0018*
X00498Y00181*
X00497Y00181*
X00497Y00182*
X00496Y00182*
X00495Y00183*
X00494Y00183*
X00493Y00183*
X00492Y00183*
X00491Y00183*
X0049*
X00489Y00183*
X00488Y00183*
X00487Y00183*
X00486Y00183*
X00485Y00182*
X00485Y00182*
X00484Y00181*
X00483Y00181*
X00482Y0018*
X00481Y0018*
X00481Y00179*
X0048Y00178*
X00479Y00178*
X00479Y00177*
X00478Y00176*
X00478Y00175*
X00478Y00174*
X00477Y00173*
X00477Y00172*
X00477Y00171*
X00477Y0017*
X00477Y0017*
X00608Y0168D02*
X00569D01*
X00588Y0166D02*
Y01699D01*
X00195Y00585D02*
X00156D01*
X00176Y00565D02*
Y00604D01*
X01023Y00595D02*
X00984D01*
X01003Y00575D02*
Y00614D01*
X0061Y0168D02*
X00571D01*
X00591Y0166D02*
Y01699D01*
X00455Y0168D02*
X00416D01*
X00436Y0166D02*
Y01699D01*
X0077Y0168D02*
X00731D01*
X00751Y0166D02*
Y01699D01*
X0038Y0135D02*
X00341D01*
X00361Y0133D02*
Y01369D01*
X0082Y0135D02*
X00781D01*
X00801Y0133D02*
Y01369D01*
X0038Y00905D02*
X00341D01*
X00361Y00885D02*
Y00924D01*
X0082Y00905D02*
X00781D01*
X00801Y00885D02*
Y00924D01*
X00591Y0044D02*
Y00479D01*
X0061Y0046D02*
X00571D01*
X00866Y0056D02*
Y00599D01*
X00885Y0058D02*
X00846D01*
X01023Y00579D02*
X00984D01*
X01003Y0056D02*
Y00599D01*
X00316Y0056D02*
Y00599D01*
X00335Y0058D02*
X00296D01*
X00198Y0058D02*
X00159D01*
X00178Y0056D02*
Y00599D01*
X00731Y0012D02*
Y00159D01*
X0075Y0014D02*
X00711D01*
X00741Y00015D02*
Y00054D01*
X0076Y00034D02*
X00721D01*
X0051Y0017D02*
X00471D01*
X00491Y0015D02*
Y00189D01*
G54D70*
X00559Y008D02*
D01*
X00559Y00799*
X00559Y00799*
X00559Y00798*
X00559Y00798*
X00559Y00797*
X00559Y00797*
X00559Y00796*
X0056Y00796*
X0056Y00795*
X0056Y00795*
X00561Y00795*
X00561Y00794*
X00561Y00794*
X00562Y00794*
X00562Y00793*
X00563Y00793*
X00563Y00793*
X00563Y00793*
X00564Y00793*
X00564Y00793*
X00565Y00792*
X00565Y00792*
X00566*
X00566Y00792*
X00567Y00793*
X00567Y00793*
X00568Y00793*
X00568Y00793*
X00569Y00793*
X00569Y00793*
X0057Y00794*
X0057Y00794*
X0057Y00794*
X00571Y00795*
X00571Y00795*
X00571Y00795*
X00572Y00796*
X00572Y00796*
X00572Y00797*
X00572Y00797*
X00572Y00798*
X00573Y00798*
X00573Y00799*
X00573Y00799*
X00573Y008*
X00573Y008*
X00573Y008*
X00573Y00801*
X00572Y00801*
X00572Y00802*
X00572Y00802*
X00572Y00803*
X00572Y00803*
X00571Y00804*
X00571Y00804*
X00571Y00804*
X0057Y00805*
X0057Y00805*
X0057Y00805*
X00569Y00806*
X00569Y00806*
X00568Y00806*
X00568Y00806*
X00567Y00806*
X00567Y00806*
X00566Y00807*
X00566Y00807*
X00565*
X00565Y00807*
X00564Y00806*
X00564Y00806*
X00563Y00806*
X00563Y00806*
X00563Y00806*
X00562Y00806*
X00562Y00805*
X00561Y00805*
X00561Y00805*
X00561Y00804*
X0056Y00804*
X0056Y00804*
X0056Y00803*
X00559Y00803*
X00559Y00802*
X00559Y00802*
X00559Y00801*
X00559Y00801*
X00559Y008*
X00559Y008*
X00559Y008*
X00566Y0079D02*
Y0081D01*
X00576Y008D02*
X00556D01*
M02*