%FSTAX23Y23*%
%MOIN*%
%SFA1B1*%

%IPPOS*%
%ADD61C,0.003940*%
%ADD66C,0.005910*%
%LNusb2can-1*%
%LPD*%
G54D61*
X0062Y01668D02*
D01*
X0062Y01667*
X0062Y01667*
X0062Y01666*
X0062Y01665*
X0062Y01665*
X00621Y01664*
X00621Y01663*
X00621Y01663*
X00622Y01662*
X00622Y01662*
X00622Y01661*
X00623Y01661*
X00624Y0166*
X00624Y0166*
X00625Y01659*
X00625Y01659*
X00626Y01659*
X00627Y01658*
X00627Y01658*
X00628Y01658*
X00629Y01658*
X00629Y01658*
X0063*
X00631Y01658*
X00631Y01658*
X00632Y01658*
X00633Y01658*
X00633Y01659*
X00634Y01659*
X00635Y01659*
X00635Y0166*
X00636Y0166*
X00636Y01661*
X00637Y01661*
X00637Y01662*
X00638Y01662*
X00638Y01663*
X00638Y01663*
X00639Y01664*
X00639Y01665*
X00639Y01665*
X00639Y01666*
X0064Y01667*
X0064Y01667*
X0064Y01668*
X0064Y01669*
X0064Y01669*
X00639Y0167*
X00639Y01671*
X00639Y01671*
X00639Y01672*
X00638Y01673*
X00638Y01673*
X00638Y01674*
X00637Y01674*
X00637Y01675*
X00636Y01675*
X00636Y01676*
X00635Y01676*
X00635Y01677*
X00634Y01677*
X00633Y01677*
X00633Y01678*
X00632Y01678*
X00631Y01678*
X00631Y01678*
X0063Y01678*
X00629*
X00629Y01678*
X00628Y01678*
X00627Y01678*
X00627Y01678*
X00626Y01677*
X00625Y01677*
X00625Y01677*
X00624Y01676*
X00624Y01676*
X00623Y01675*
X00622Y01675*
X00622Y01674*
X00622Y01674*
X00621Y01673*
X00621Y01673*
X00621Y01672*
X0062Y01671*
X0062Y01671*
X0062Y0167*
X0062Y01669*
X0062Y01669*
X0062Y01668*
X00437Y01719D02*
D01*
X00437Y01718*
X00437Y01717*
X00437Y01716*
X00437Y01716*
X00438Y01715*
X00438Y01714*
X00438Y01714*
X00439Y01713*
X00439Y01713*
X00439Y01712*
X0044Y01712*
X0044Y01711*
X00441Y01711*
X00442Y0171*
X00442Y0171*
X00443Y0171*
X00443Y01709*
X00444Y01709*
X00445Y01709*
X00445Y01709*
X00446Y01709*
X00447Y01709*
X00447*
X00448Y01709*
X00449Y01709*
X0045Y01709*
X0045Y01709*
X00451Y01709*
X00451Y0171*
X00452Y0171*
X00453Y0171*
X00453Y01711*
X00454Y01711*
X00454Y01712*
X00455Y01712*
X00455Y01713*
X00456Y01713*
X00456Y01714*
X00456Y01714*
X00456Y01715*
X00457Y01716*
X00457Y01716*
X00457Y01717*
X00457Y01718*
X00457Y01719*
X00457Y01719*
X00457Y0172*
X00457Y01721*
X00457Y01721*
X00456Y01722*
X00456Y01723*
X00456Y01723*
X00456Y01724*
X00455Y01724*
X00455Y01725*
X00454Y01726*
X00454Y01726*
X00453Y01726*
X00453Y01727*
X00452Y01727*
X00451Y01728*
X00451Y01728*
X0045Y01728*
X0045Y01728*
X00449Y01728*
X00448Y01729*
X00447Y01729*
X00447*
X00446Y01729*
X00445Y01728*
X00445Y01728*
X00444Y01728*
X00443Y01728*
X00443Y01728*
X00442Y01727*
X00442Y01727*
X00441Y01726*
X0044Y01726*
X0044Y01726*
X00439Y01725*
X00439Y01724*
X00439Y01724*
X00438Y01723*
X00438Y01723*
X00438Y01722*
X00437Y01721*
X00437Y01721*
X00437Y0172*
X00437Y01719*
X00437Y01719*
X00729Y0164D02*
D01*
X00729Y0164*
X00729Y01639*
X00729Y01638*
X00729Y01638*
X0073Y01637*
X0073Y01636*
X0073Y01636*
X00731Y01635*
X00731Y01635*
X00731Y01634*
X00732Y01633*
X00732Y01633*
X00733Y01633*
X00734Y01632*
X00734Y01632*
X00735Y01631*
X00735Y01631*
X00736Y01631*
X00737Y01631*
X00737Y01631*
X00738Y0163*
X00739Y0163*
X00739*
X0074Y0163*
X00741Y01631*
X00742Y01631*
X00742Y01631*
X00743Y01631*
X00743Y01631*
X00744Y01632*
X00745Y01632*
X00745Y01633*
X00746Y01633*
X00746Y01633*
X00747Y01634*
X00747Y01635*
X00748Y01635*
X00748Y01636*
X00748Y01636*
X00749Y01637*
X00749Y01638*
X00749Y01638*
X00749Y01639*
X00749Y0164*
X00749Y0164*
X00749Y01641*
X00749Y01642*
X00749Y01643*
X00749Y01643*
X00749Y01644*
X00748Y01645*
X00748Y01645*
X00748Y01646*
X00747Y01646*
X00747Y01647*
X00746Y01647*
X00746Y01648*
X00745Y01648*
X00745Y01649*
X00744Y01649*
X00743Y01649*
X00743Y0165*
X00742Y0165*
X00742Y0165*
X00741Y0165*
X0074Y0165*
X00739Y0165*
X00739*
X00738Y0165*
X00737Y0165*
X00737Y0165*
X00736Y0165*
X00735Y0165*
X00735Y01649*
X00734Y01649*
X00734Y01649*
X00733Y01648*
X00732Y01648*
X00732Y01647*
X00731Y01647*
X00731Y01646*
X00731Y01646*
X0073Y01645*
X0073Y01645*
X0073Y01644*
X00729Y01643*
X00729Y01643*
X00729Y01642*
X00729Y01641*
X00729Y0164*
X00817Y00591D02*
D01*
X00817Y0059*
X00817Y0059*
X00817Y00589*
X00817Y00588*
X00817Y00588*
X00817Y00587*
X00818Y00586*
X00818Y00586*
X00818Y00585*
X00819Y00585*
X00819Y00584*
X0082Y00584*
X0082Y00583*
X00821Y00583*
X00822Y00582*
X00822Y00582*
X00823Y00582*
X00823Y00581*
X00824Y00581*
X00825Y00581*
X00826Y00581*
X00826Y00581*
X00827*
X00828Y00581*
X00828Y00581*
X00829Y00581*
X0083Y00581*
X0083Y00582*
X00831Y00582*
X00832Y00582*
X00832Y00583*
X00833Y00583*
X00833Y00584*
X00834Y00584*
X00834Y00585*
X00835Y00585*
X00835Y00586*
X00835Y00586*
X00836Y00587*
X00836Y00588*
X00836Y00588*
X00836Y00589*
X00836Y0059*
X00837Y0059*
X00837Y00591*
X00837Y00592*
X00836Y00592*
X00836Y00593*
X00836Y00594*
X00836Y00594*
X00836Y00595*
X00835Y00596*
X00835Y00596*
X00835Y00597*
X00834Y00597*
X00834Y00598*
X00833Y00598*
X00833Y00599*
X00832Y00599*
X00832Y006*
X00831Y006*
X0083Y006*
X0083Y00601*
X00829Y00601*
X00828Y00601*
X00828Y00601*
X00827Y00601*
X00826*
X00826Y00601*
X00825Y00601*
X00824Y00601*
X00823Y00601*
X00823Y006*
X00822Y006*
X00822Y006*
X00821Y00599*
X0082Y00599*
X0082Y00598*
X00819Y00598*
X00819Y00597*
X00818Y00597*
X00818Y00596*
X00818Y00596*
X00817Y00595*
X00817Y00594*
X00817Y00594*
X00817Y00593*
X00817Y00592*
X00817Y00592*
X00817Y00591*
X01032Y00568D02*
D01*
X01032Y00567*
X01032Y00566*
X01032Y00566*
X01033Y00565*
X01033Y00564*
X01033Y00564*
X01033Y00563*
X01034Y00563*
X01034Y00562*
X01035Y00561*
X01035Y00561*
X01036Y0056*
X01036Y0056*
X01037Y0056*
X01037Y00559*
X01038Y00559*
X01039Y00559*
X01039Y00558*
X0104Y00558*
X01041Y00558*
X01041Y00558*
X01042Y00558*
X01043*
X01043Y00558*
X01044Y00558*
X01045Y00558*
X01045Y00558*
X01046Y00559*
X01047Y00559*
X01047Y00559*
X01048Y0056*
X01048Y0056*
X01049Y0056*
X01049Y00561*
X0105Y00561*
X0105Y00562*
X01051Y00563*
X01051Y00563*
X01051Y00564*
X01052Y00564*
X01052Y00565*
X01052Y00566*
X01052Y00566*
X01052Y00567*
X01052Y00568*
X01052Y00569*
X01052Y00569*
X01052Y0057*
X01052Y00571*
X01052Y00571*
X01051Y00572*
X01051Y00573*
X01051Y00573*
X0105Y00574*
X0105Y00574*
X01049Y00575*
X01049Y00575*
X01048Y00576*
X01048Y00576*
X01047Y00577*
X01047Y00577*
X01046Y00577*
X01045Y00577*
X01045Y00578*
X01044Y00578*
X01043Y00578*
X01043Y00578*
X01042*
X01041Y00578*
X01041Y00578*
X0104Y00578*
X01039Y00577*
X01039Y00577*
X01038Y00577*
X01037Y00577*
X01037Y00576*
X01036Y00576*
X01036Y00575*
X01035Y00575*
X01035Y00574*
X01034Y00574*
X01034Y00573*
X01033Y00573*
X01033Y00572*
X01033Y00571*
X01033Y00571*
X01032Y0057*
X01032Y00569*
X01032Y00569*
X01032Y00568*
X00267Y00591D02*
D01*
X00267Y0059*
X00267Y0059*
X00267Y00589*
X00267Y00588*
X00267Y00588*
X00267Y00587*
X00268Y00586*
X00268Y00586*
X00268Y00585*
X00269Y00585*
X00269Y00584*
X0027Y00584*
X0027Y00583*
X00271Y00583*
X00272Y00582*
X00272Y00582*
X00273Y00582*
X00273Y00581*
X00274Y00581*
X00275Y00581*
X00276Y00581*
X00276Y00581*
X00277*
X00278Y00581*
X00278Y00581*
X00279Y00581*
X0028Y00581*
X0028Y00582*
X00281Y00582*
X00282Y00582*
X00282Y00583*
X00283Y00583*
X00283Y00584*
X00284Y00584*
X00284Y00585*
X00285Y00585*
X00285Y00586*
X00285Y00586*
X00286Y00587*
X00286Y00588*
X00286Y00588*
X00286Y00589*
X00286Y0059*
X00287Y0059*
X00287Y00591*
X00287Y00592*
X00286Y00592*
X00286Y00593*
X00286Y00594*
X00286Y00594*
X00286Y00595*
X00285Y00596*
X00285Y00596*
X00285Y00597*
X00284Y00597*
X00284Y00598*
X00283Y00598*
X00283Y00599*
X00282Y00599*
X00282Y006*
X00281Y006*
X0028Y006*
X0028Y00601*
X00279Y00601*
X00278Y00601*
X00278Y00601*
X00277Y00601*
X00276*
X00276Y00601*
X00275Y00601*
X00274Y00601*
X00273Y00601*
X00273Y006*
X00272Y006*
X00272Y006*
X00271Y00599*
X0027Y00599*
X0027Y00598*
X00269Y00598*
X00269Y00597*
X00268Y00597*
X00268Y00596*
X00268Y00596*
X00267Y00595*
X00267Y00594*
X00267Y00594*
X00267Y00593*
X00267Y00592*
X00267Y00592*
X00267Y00591*
X00207Y00568D02*
D01*
X00207Y00567*
X00207Y00567*
X00207Y00566*
X00208Y00565*
X00208Y00565*
X00208Y00564*
X00208Y00563*
X00209Y00563*
X00209Y00562*
X0021Y00562*
X0021Y00561*
X00211Y00561*
X00211Y0056*
X00212Y0056*
X00212Y00559*
X00213Y00559*
X00214Y00559*
X00214Y00559*
X00215Y00558*
X00216Y00558*
X00216Y00558*
X00217Y00558*
X00218*
X00218Y00558*
X00219Y00558*
X0022Y00558*
X0022Y00559*
X00221Y00559*
X00222Y00559*
X00222Y00559*
X00223Y0056*
X00223Y0056*
X00224Y00561*
X00224Y00561*
X00225Y00562*
X00225Y00562*
X00226Y00563*
X00226Y00563*
X00226Y00564*
X00227Y00565*
X00227Y00565*
X00227Y00566*
X00227Y00567*
X00227Y00567*
X00227Y00568*
X00227Y00569*
X00227Y0057*
X00227Y0057*
X00227Y00571*
X00227Y00572*
X00226Y00572*
X00226Y00573*
X00226Y00573*
X00225Y00574*
X00225Y00575*
X00224Y00575*
X00224Y00576*
X00223Y00576*
X00223Y00576*
X00222Y00577*
X00222Y00577*
X00221Y00577*
X0022Y00578*
X0022Y00578*
X00219Y00578*
X00218Y00578*
X00218Y00578*
X00217*
X00216Y00578*
X00216Y00578*
X00215Y00578*
X00214Y00578*
X00214Y00577*
X00213Y00577*
X00212Y00577*
X00212Y00576*
X00211Y00576*
X00211Y00576*
X0021Y00575*
X0021Y00575*
X00209Y00574*
X00209Y00573*
X00208Y00573*
X00208Y00572*
X00208Y00572*
X00208Y00571*
X00207Y0057*
X00207Y0057*
X00207Y00569*
X00207Y00568*
X00709Y001D02*
D01*
X00709Y001*
X00709Y00099*
X00709Y00098*
X00709Y00098*
X0071Y00097*
X0071Y00096*
X0071Y00096*
X00711Y00095*
X00711Y00095*
X00711Y00094*
X00712Y00094*
X00712Y00093*
X00713Y00093*
X00714Y00092*
X00714Y00092*
X00715Y00091*
X00715Y00091*
X00716Y00091*
X00717Y00091*
X00717Y00091*
X00718Y00091*
X00719Y0009*
X00719*
X0072Y00091*
X00721Y00091*
X00722Y00091*
X00722Y00091*
X00723Y00091*
X00723Y00091*
X00724Y00092*
X00725Y00092*
X00725Y00093*
X00726Y00093*
X00726Y00094*
X00727Y00094*
X00727Y00095*
X00728Y00095*
X00728Y00096*
X00728Y00096*
X00729Y00097*
X00729Y00098*
X00729Y00098*
X00729Y00099*
X00729Y001*
X00729Y001*
X00729Y00101*
X00729Y00102*
X00729Y00103*
X00729Y00103*
X00729Y00104*
X00728Y00105*
X00728Y00105*
X00728Y00106*
X00727Y00106*
X00727Y00107*
X00726Y00107*
X00726Y00108*
X00725Y00108*
X00725Y00109*
X00724Y00109*
X00723Y00109*
X00723Y0011*
X00722Y0011*
X00722Y0011*
X00721Y0011*
X0072Y0011*
X00719Y0011*
X00719*
X00718Y0011*
X00717Y0011*
X00717Y0011*
X00716Y0011*
X00715Y0011*
X00715Y00109*
X00714Y00109*
X00714Y00109*
X00713Y00108*
X00712Y00108*
X00712Y00107*
X00711Y00107*
X00711Y00106*
X00711Y00106*
X0071Y00105*
X0071Y00105*
X0071Y00104*
X00709Y00103*
X00709Y00103*
X00709Y00102*
X00709Y00101*
X00709Y001*
X00647Y01705D02*
X00529D01*
X00647Y01654D02*
X00529D01*
X00647D02*
Y01705D01*
X00529Y01654D02*
Y01705D01*
X00235Y0061D02*
X00117D01*
X00235Y00559D02*
X00117D01*
X00235D02*
Y0061D01*
X00117Y00559D02*
Y0061D01*
X01062Y0062D02*
X00944D01*
X01062Y00569D02*
X00944D01*
X01062D02*
Y0062D01*
X00944Y00569D02*
Y0062D01*
X0065Y01711D02*
X00532D01*
Y01648D02*
Y01711D01*
X0065Y01648D02*
X00532D01*
X0065D02*
Y01711D01*
X00467Y0162D02*
X00404D01*
X00467Y01739D02*
X00404D01*
Y0162D02*
Y01739D01*
X00467Y0162D02*
Y01739D01*
X00782Y01739D02*
X00719D01*
X00782Y0162D02*
X00719D01*
X00782D02*
Y01739D01*
X00719Y0162D02*
Y01739D01*
X00925Y00548D02*
Y00611D01*
X00807Y00548D02*
Y00611D01*
X00925Y00548D02*
X00807D01*
X00925Y00611D02*
X00807D01*
X01062Y00611D02*
X00944D01*
Y00548D02*
Y00611D01*
X01062Y00548D02*
X00944D01*
X01062D02*
Y00611D01*
X00375Y00548D02*
Y00611D01*
X00257Y00548D02*
Y00611D01*
X00375Y00548D02*
X00257D01*
X00375Y00611D02*
X00257D01*
X00237Y00611D02*
X00119D01*
Y00548D02*
Y00611D01*
X00237Y00548D02*
X00119D01*
X00237D02*
Y00611D01*
X00762Y0008D02*
Y00199D01*
X00699*
Y0008D02*
Y00199D01*
X00762Y0008D02*
X00699D01*
G54D66*
X00239Y01452D02*
D01*
X00239Y0145*
X00239Y01449*
X00239Y01448*
X00239Y01446*
X0024Y01445*
X0024Y01444*
X00241Y01443*
X00242Y01441*
X00242Y0144*
X00243Y01439*
X00244Y01438*
X00245Y01437*
X00246Y01436*
X00247Y01436*
X00248Y01435*
X0025Y01434*
X00251Y01434*
X00252Y01433*
X00253Y01433*
X00255Y01432*
X00256Y01432*
X00258Y01432*
X00259*
X0026Y01432*
X00262Y01432*
X00263Y01433*
X00264Y01433*
X00266Y01434*
X00267Y01434*
X00268Y01435*
X00269Y01436*
X0027Y01436*
X00271Y01437*
X00272Y01438*
X00273Y01439*
X00274Y0144*
X00275Y01441*
X00276Y01443*
X00276Y01444*
X00277Y01445*
X00277Y01446*
X00277Y01448*
X00278Y01449*
X00278Y0145*
X00278Y01452*
X00278Y01453*
X00278Y01455*
X00277Y01456*
X00277Y01457*
X00277Y01459*
X00276Y0146*
X00276Y01461*
X00275Y01462*
X00274Y01463*
X00273Y01465*
X00272Y01466*
X00271Y01466*
X0027Y01467*
X00269Y01468*
X00268Y01469*
X00267Y0147*
X00266Y0147*
X00264Y01471*
X00263Y01471*
X00262Y01471*
X0026Y01471*
X00259Y01472*
X00258*
X00256Y01471*
X00255Y01471*
X00253Y01471*
X00252Y01471*
X00251Y0147*
X0025Y0147*
X00248Y01469*
X00247Y01468*
X00246Y01467*
X00245Y01466*
X00244Y01466*
X00243Y01465*
X00242Y01463*
X00242Y01462*
X00241Y01461*
X0024Y0146*
X0024Y01459*
X00239Y01457*
X00239Y01456*
X00239Y01455*
X00239Y01453*
X00239Y01452*
X00679D02*
D01*
X00679Y0145*
X00679Y01449*
X00679Y01448*
X00679Y01446*
X0068Y01445*
X0068Y01444*
X00681Y01443*
X00682Y01441*
X00682Y0144*
X00683Y01439*
X00684Y01438*
X00685Y01437*
X00686Y01436*
X00687Y01436*
X00688Y01435*
X0069Y01434*
X00691Y01434*
X00692Y01433*
X00693Y01433*
X00695Y01432*
X00696Y01432*
X00698Y01432*
X00699*
X007Y01432*
X00702Y01432*
X00703Y01433*
X00704Y01433*
X00706Y01434*
X00707Y01434*
X00708Y01435*
X00709Y01436*
X0071Y01436*
X00711Y01437*
X00712Y01438*
X00713Y01439*
X00714Y0144*
X00715Y01441*
X00716Y01443*
X00716Y01444*
X00717Y01445*
X00717Y01446*
X00717Y01448*
X00718Y01449*
X00718Y0145*
X00718Y01452*
X00718Y01453*
X00718Y01455*
X00717Y01456*
X00717Y01457*
X00717Y01459*
X00716Y0146*
X00716Y01461*
X00715Y01462*
X00714Y01463*
X00713Y01465*
X00712Y01466*
X00711Y01466*
X0071Y01467*
X00709Y01468*
X00708Y01469*
X00707Y0147*
X00706Y0147*
X00704Y01471*
X00703Y01471*
X00702Y01471*
X007Y01471*
X00699Y01472*
X00698*
X00696Y01471*
X00695Y01471*
X00693Y01471*
X00692Y01471*
X00691Y0147*
X0069Y0147*
X00688Y01469*
X00687Y01468*
X00686Y01467*
X00685Y01466*
X00684Y01466*
X00683Y01465*
X00682Y01463*
X00682Y01462*
X00681Y01461*
X0068Y0146*
X0068Y01459*
X00679Y01457*
X00679Y01456*
X00679Y01455*
X00679Y01453*
X00679Y01452*
X00239Y01007D02*
D01*
X00239Y01005*
X00239Y01004*
X00239Y01003*
X00239Y01001*
X0024Y01*
X0024Y00999*
X00241Y00998*
X00242Y00996*
X00242Y00995*
X00243Y00994*
X00244Y00993*
X00245Y00992*
X00246Y00991*
X00247Y00991*
X00248Y0099*
X0025Y00989*
X00251Y00989*
X00252Y00988*
X00253Y00988*
X00255Y00987*
X00256Y00987*
X00258Y00987*
X00259*
X0026Y00987*
X00262Y00987*
X00263Y00988*
X00264Y00988*
X00266Y00989*
X00267Y00989*
X00268Y0099*
X00269Y00991*
X0027Y00991*
X00271Y00992*
X00272Y00993*
X00273Y00994*
X00274Y00995*
X00275Y00996*
X00276Y00998*
X00276Y00999*
X00277Y01*
X00277Y01001*
X00277Y01003*
X00278Y01004*
X00278Y01005*
X00278Y01007*
X00278Y01008*
X00278Y0101*
X00277Y01011*
X00277Y01012*
X00277Y01014*
X00276Y01015*
X00276Y01016*
X00275Y01017*
X00274Y01018*
X00273Y0102*
X00272Y01021*
X00271Y01021*
X0027Y01022*
X00269Y01023*
X00268Y01024*
X00267Y01025*
X00266Y01025*
X00264Y01026*
X00263Y01026*
X00262Y01026*
X0026Y01026*
X00259Y01027*
X00258*
X00256Y01026*
X00255Y01026*
X00253Y01026*
X00252Y01026*
X00251Y01025*
X0025Y01025*
X00248Y01024*
X00247Y01023*
X00246Y01022*
X00245Y01021*
X00244Y01021*
X00243Y0102*
X00242Y01018*
X00242Y01017*
X00241Y01016*
X0024Y01015*
X0024Y01014*
X00239Y01012*
X00239Y01011*
X00239Y0101*
X00239Y01008*
X00239Y01007*
X00679D02*
D01*
X00679Y01005*
X00679Y01004*
X00679Y01003*
X00679Y01001*
X0068Y01*
X0068Y00999*
X00681Y00998*
X00682Y00996*
X00682Y00995*
X00683Y00994*
X00684Y00993*
X00685Y00992*
X00686Y00991*
X00687Y00991*
X00688Y0099*
X0069Y00989*
X00691Y00989*
X00692Y00988*
X00693Y00988*
X00695Y00987*
X00696Y00987*
X00698Y00987*
X00699*
X007Y00987*
X00702Y00987*
X00703Y00988*
X00704Y00988*
X00706Y00989*
X00707Y00989*
X00708Y0099*
X00709Y00991*
X0071Y00991*
X00711Y00992*
X00712Y00993*
X00713Y00994*
X00714Y00995*
X00715Y00996*
X00716Y00998*
X00716Y00999*
X00717Y01*
X00717Y01001*
X00717Y01003*
X00718Y01004*
X00718Y01005*
X00718Y01007*
X00718Y01008*
X00718Y0101*
X00717Y01011*
X00717Y01012*
X00717Y01014*
X00716Y01015*
X00716Y01016*
X00715Y01017*
X00714Y01018*
X00713Y0102*
X00712Y01021*
X00711Y01021*
X0071Y01022*
X00709Y01023*
X00708Y01024*
X00707Y01025*
X00706Y01025*
X00704Y01026*
X00703Y01026*
X00702Y01026*
X007Y01026*
X00699Y01027*
X00698*
X00696Y01026*
X00695Y01026*
X00693Y01026*
X00692Y01026*
X00691Y01025*
X0069Y01025*
X00688Y01024*
X00687Y01023*
X00686Y01022*
X00685Y01021*
X00684Y01021*
X00683Y0102*
X00682Y01018*
X00682Y01017*
X00681Y01016*
X0068Y01015*
X0068Y01014*
X00679Y01012*
X00679Y01011*
X00679Y0101*
X00679Y01008*
X00679Y01007*
X00403Y00535D02*
D01*
X00403Y00533*
X00403Y00531*
X00404Y0053*
X00404Y00528*
X00405Y00527*
X00405Y00525*
X00406Y00524*
X00407Y00523*
X00408Y00521*
X00408Y0052*
X0041Y00519*
X00411Y00518*
X00412Y00517*
X00413Y00516*
X00414Y00515*
X00416Y00514*
X00417Y00514*
X00419Y00513*
X0042Y00513*
X00422Y00512*
X00423Y00512*
X00425Y00512*
X00426*
X00428Y00512*
X00429Y00512*
X00431Y00513*
X00433Y00513*
X00434Y00514*
X00435Y00514*
X00437Y00515*
X00438Y00516*
X00439Y00517*
X00441Y00518*
X00442Y00519*
X00443Y0052*
X00444Y00521*
X00445Y00523*
X00445Y00524*
X00446Y00525*
X00447Y00527*
X00447Y00528*
X00447Y0053*
X00448Y00531*
X00448Y00533*
X00448Y00535*
X00448Y00536*
X00448Y00538*
X00447Y00539*
X00447Y00541*
X00447Y00542*
X00446Y00544*
X00445Y00545*
X00445Y00546*
X00444Y00548*
X00443Y00549*
X00442Y0055*
X00441Y00551*
X00439Y00552*
X00438Y00553*
X00437Y00554*
X00435Y00555*
X00434Y00555*
X00433Y00556*
X00431Y00556*
X00429Y00557*
X00428Y00557*
X00426Y00557*
X00425*
X00423Y00557*
X00422Y00557*
X0042Y00556*
X00419Y00556*
X00417Y00555*
X00416Y00555*
X00414Y00554*
X00413Y00553*
X00412Y00552*
X00411Y00551*
X0041Y0055*
X00408Y00549*
X00408Y00548*
X00407Y00546*
X00406Y00545*
X00405Y00544*
X00405Y00542*
X00404Y00541*
X00404Y00539*
X00403Y00538*
X00403Y00536*
X00403Y00535*
X00498Y01212D02*
Y01487D01*
X00223Y01212D02*
Y01487D01*
X00498Y01212D02*
X00223D01*
X00498Y01487D02*
X00223D01*
X00938Y01212D02*
Y01487D01*
X00663Y01212D02*
Y01487D01*
X00938Y01212D02*
X00663D01*
X00938Y01487D02*
X00663D01*
X00498Y00767D02*
Y01042D01*
X00223Y00767D02*
Y01042D01*
X00498Y00767D02*
X00223D01*
X00498Y01042D02*
X00223D01*
X00938Y00767D02*
Y01042D01*
X00663Y00767D02*
Y01042D01*
X00938Y00767D02*
X00663D01*
X00938Y01042D02*
X00663D01*
X00791Y00572D02*
X0039D01*
X00791Y00347D02*
Y00572D01*
Y00347D02*
X0039D01*
Y00572*
M02*