%FSTAX23Y23*%
%MOIN*%
%SFA1B1*%

%IPPOS*%
%ADD11C,0.009840*%
%ADD16C,0.007870*%
%ADD61C,0.003940*%
%ADD62C,0.005910*%
%ADD63C,0.006000*%
%ADD64C,0.005000*%
%ADD65C,0.003150*%
%ADD66C,0.005910*%
%LNusb2can-1*%
%LPD*%
G54D11*
X00646Y01745D02*
D01*
X00646Y01744*
X00646Y01744*
X00646Y01743*
X00646Y01743*
X00647Y01743*
X00647Y01742*
X00647Y01742*
X00647Y01742*
X00647Y01742*
X00647Y01741*
X00648Y01741*
X00648Y01741*
X00648Y01741*
X00648Y0174*
X00649Y0174*
X00649Y0174*
X00649Y0174*
X0065Y0174*
X0065Y0174*
X0065Y0174*
X00651Y0174*
X00651Y0174*
X00651*
X00652Y0174*
X00652Y0174*
X00652Y0174*
X00653Y0174*
X00653Y0174*
X00653Y0174*
X00654Y0174*
X00654Y0174*
X00654Y01741*
X00654Y01741*
X00655Y01741*
X00655Y01741*
X00655Y01742*
X00655Y01742*
X00656Y01742*
X00656Y01742*
X00656Y01743*
X00656Y01743*
X00656Y01743*
X00656Y01744*
X00656Y01744*
X00656Y01745*
X00656Y01745*
X00656Y01745*
X00656Y01746*
X00656Y01746*
X00656Y01746*
X00656Y01747*
X00656Y01747*
X00655Y01747*
X00655Y01747*
X00655Y01748*
X00655Y01748*
X00654Y01748*
X00654Y01748*
X00654Y01749*
X00654Y01749*
X00653Y01749*
X00653Y01749*
X00653Y01749*
X00652Y01749*
X00652Y01749*
X00652Y01749*
X00651Y01749*
X00651*
X00651Y01749*
X0065Y01749*
X0065Y01749*
X0065Y01749*
X00649Y01749*
X00649Y01749*
X00649Y01749*
X00648Y01749*
X00648Y01748*
X00648Y01748*
X00648Y01748*
X00647Y01748*
X00647Y01747*
X00647Y01747*
X00647Y01747*
X00647Y01747*
X00647Y01746*
X00646Y01746*
X00646Y01746*
X00646Y01745*
X00646Y01745*
X00646Y01745*
X00234Y0065D02*
D01*
X00234Y00649*
X00234Y00649*
X00234Y00648*
X00234Y00648*
X00234Y00648*
X00234Y00647*
X00234Y00647*
X00234Y00647*
X00235Y00647*
X00235Y00646*
X00235Y00646*
X00235Y00646*
X00236Y00646*
X00236Y00645*
X00236Y00645*
X00236Y00645*
X00237Y00645*
X00237Y00645*
X00237Y00645*
X00238Y00645*
X00238Y00645*
X00238Y00645*
X00239*
X00239Y00645*
X00239Y00645*
X0024Y00645*
X0024Y00645*
X0024Y00645*
X00241Y00645*
X00241Y00645*
X00241Y00645*
X00242Y00646*
X00242Y00646*
X00242Y00646*
X00242Y00646*
X00243Y00647*
X00243Y00647*
X00243Y00647*
X00243Y00647*
X00243Y00648*
X00243Y00648*
X00243Y00648*
X00243Y00649*
X00243Y00649*
X00244Y0065*
X00243Y0065*
X00243Y0065*
X00243Y00651*
X00243Y00651*
X00243Y00651*
X00243Y00652*
X00243Y00652*
X00243Y00652*
X00243Y00652*
X00242Y00653*
X00242Y00653*
X00242Y00653*
X00242Y00653*
X00241Y00654*
X00241Y00654*
X00241Y00654*
X0024Y00654*
X0024Y00654*
X0024Y00654*
X00239Y00654*
X00239Y00654*
X00239Y00654*
X00238*
X00238Y00654*
X00238Y00654*
X00237Y00654*
X00237Y00654*
X00237Y00654*
X00236Y00654*
X00236Y00654*
X00236Y00654*
X00236Y00653*
X00235Y00653*
X00235Y00653*
X00235Y00653*
X00235Y00652*
X00234Y00652*
X00234Y00652*
X00234Y00652*
X00234Y00651*
X00234Y00651*
X00234Y00651*
X00234Y0065*
X00234Y0065*
X00234Y0065*
X01061Y0066D02*
D01*
X01061Y00659*
X01061Y00659*
X01061Y00658*
X01061Y00658*
X01062Y00658*
X01062Y00657*
X01062Y00657*
X01062Y00657*
X01062Y00657*
X01062Y00656*
X01063Y00656*
X01063Y00656*
X01063Y00656*
X01063Y00655*
X01064Y00655*
X01064Y00655*
X01064Y00655*
X01065Y00655*
X01065Y00655*
X01065Y00655*
X01066Y00655*
X01066Y00655*
X01066*
X01067Y00655*
X01067Y00655*
X01067Y00655*
X01068Y00655*
X01068Y00655*
X01068Y00655*
X01069Y00655*
X01069Y00655*
X01069Y00656*
X01069Y00656*
X0107Y00656*
X0107Y00656*
X0107Y00657*
X0107Y00657*
X01071Y00657*
X01071Y00657*
X01071Y00658*
X01071Y00658*
X01071Y00658*
X01071Y00659*
X01071Y00659*
X01071Y0066*
X01071Y0066*
X01071Y0066*
X01071Y00661*
X01071Y00661*
X01071Y00661*
X01071Y00662*
X01071Y00662*
X0107Y00662*
X0107Y00662*
X0107Y00663*
X0107Y00663*
X01069Y00663*
X01069Y00663*
X01069Y00664*
X01069Y00664*
X01068Y00664*
X01068Y00664*
X01068Y00664*
X01067Y00664*
X01067Y00664*
X01067Y00664*
X01066Y00664*
X01066*
X01066Y00664*
X01065Y00664*
X01065Y00664*
X01065Y00664*
X01064Y00664*
X01064Y00664*
X01064Y00664*
X01063Y00664*
X01063Y00663*
X01063Y00663*
X01063Y00663*
X01062Y00663*
X01062Y00662*
X01062Y00662*
X01062Y00662*
X01062Y00662*
X01062Y00661*
X01061Y00661*
X01061Y00661*
X01061Y0066*
X01061Y0066*
X01061Y0066*
G54D16*
X00647Y01652D02*
Y01687D01*
Y01652D02*
X00616D01*
X00529D02*
Y01687D01*
X00561Y01652D02*
X00529D01*
X00486Y00732D02*
Y00776D01*
X00531Y00731D02*
X00486D01*
X00235Y00557D02*
Y00592D01*
Y00557D02*
X00203D01*
X00117D02*
Y00592D01*
X00148Y00557D02*
X00117D01*
X01062Y00567D02*
Y00602D01*
Y00567D02*
X01031D01*
X00944D02*
Y00602D01*
X00976Y00567D02*
X00944D01*
X00484Y0091D02*
X00505Y00879D01*
Y0091D02*
X00484Y00879D01*
X00537D02*
X00516D01*
X00537Y009*
Y00905*
X00532Y0091*
X00521*
X00516Y00905*
X00891Y01638D02*
X0086D01*
Y01653*
X00865Y01659*
X00876*
X00881Y01653*
Y01638*
Y01648D02*
X00891Y01659D01*
X00865Y01669D02*
X0086Y01674D01*
Y01685*
X00865Y0169*
X0087*
X00876Y01685*
Y0168*
Y01685*
X00881Y0169*
X00886*
X00891Y01685*
Y01674*
X00886Y01669*
X00891Y01716D02*
X0086D01*
X00876Y017*
Y01721*
X00514Y01339D02*
Y0137D01*
X00529*
X00535Y01365*
Y01355*
X00529Y01349*
X00514*
X00524D02*
X00535Y01339D01*
X00545Y01365D02*
X0055Y0137D01*
X00561*
X00566Y01365*
Y0136*
X00561Y01355*
X00556*
X00561*
X00566Y01349*
Y01344*
X00561Y01339*
X0055*
X00545Y01344*
X00577Y01365D02*
X00582Y0137D01*
X00592*
X00598Y01365*
Y0136*
X00592Y01355*
X00587*
X00592*
X00598Y01349*
Y01344*
X00592Y01339*
X00582*
X00577Y01344*
X00151Y01303D02*
X0012D01*
Y01318*
X00125Y01324*
X00136*
X00141Y01318*
Y01303*
Y01313D02*
X00151Y01324D01*
X00125Y01334D02*
X0012Y01339D01*
Y0135*
X00125Y01355*
X0013*
X00136Y0135*
Y01345*
Y0135*
X00141Y01355*
X00146*
X00151Y0135*
Y01339*
X00146Y01334*
X00151Y01386D02*
Y01365D01*
X0013Y01386*
X00125*
X0012Y01381*
Y01371*
X00125Y01365*
X00794Y01554D02*
Y01585D01*
X0081*
X00815Y0158*
Y0157*
X0081Y01564*
X00794*
X00804D02*
X00815Y01554D01*
X00825Y0158D02*
X00831Y01585D01*
X00841*
X00846Y0158*
Y01575*
X00841Y0157*
X00836*
X00841*
X00846Y01564*
Y01559*
X00841Y01554*
X00831*
X00825Y01559*
X00857Y01554D02*
X00867D01*
X00862*
Y01585*
X00857Y0158*
X00359Y01559D02*
Y0159D01*
X00374*
X0038Y01585*
Y01575*
X00374Y01569*
X00359*
X00369D02*
X0038Y01559D01*
X0039Y01585D02*
X00395Y0159D01*
X00406*
X00411Y01585*
Y0158*
X00406Y01575*
X00401*
X00406*
X00411Y01569*
Y01564*
X00406Y01559*
X00395*
X0039Y01564*
X00422Y01585D02*
X00427Y0159D01*
X00437*
X00443Y01585*
Y01564*
X00437Y01559*
X00427*
X00422Y01564*
Y01585*
X00659Y01324D02*
Y01355D01*
X00674*
X0068Y0135*
Y0134*
X00674Y01334*
X00659*
X00669D02*
X0068Y01324D01*
X00711D02*
X0069D01*
X00711Y01345*
Y0135*
X00706Y01355*
X00695*
X0069Y0135*
X00722Y01329D02*
X00727Y01324D01*
X00737*
X00743Y01329*
Y0135*
X00737Y01355*
X00727*
X00722Y0135*
Y01345*
X00727Y0134*
X00743*
X00236Y01253D02*
X00205D01*
Y01268*
X0021Y01274*
X00221*
X00226Y01268*
Y01253*
Y01263D02*
X00236Y01274D01*
Y01305D02*
Y01284D01*
X00215Y01305*
X0021*
X00205Y013*
Y01289*
X0021Y01284*
Y01315D02*
X00205Y01321D01*
Y01331*
X0021Y01336*
X00215*
X00221Y01331*
X00226Y01336*
X00231*
X00236Y01331*
Y01321*
X00231Y01315*
X00226*
X00221Y01321*
X00215Y01315*
X0021*
X00221Y01321D02*
Y01331D01*
X00244Y01729D02*
Y0176D01*
X00259*
X00265Y01755*
Y01745*
X00259Y01739*
X00244*
X00254D02*
X00265Y01729D01*
X00296D02*
X00275D01*
X00296Y0175*
Y01755*
X00291Y0176*
X0028*
X00275Y01755*
X00307Y0176D02*
X00328D01*
Y01755*
X00307Y01734*
Y01729*
X00289Y00334D02*
Y00365D01*
X00304*
X0031Y0036*
Y0035*
X00304Y00344*
X00289*
X00299D02*
X0031Y00334D01*
X00341D02*
X0032D01*
X00341Y00355*
Y0036*
X00336Y00365*
X00325*
X0032Y0036*
X00373Y00365D02*
X00362Y0036D01*
X00352Y0035*
Y00339*
X00357Y00334*
X00367*
X00373Y00339*
Y00344*
X00367Y0035*
X00352*
X00596Y00878D02*
X00565D01*
Y00893*
X0057Y00899*
X00581*
X00586Y00893*
Y00878*
Y00888D02*
X00596Y00899D01*
Y0093D02*
Y00909D01*
X00575Y0093*
X0057*
X00565Y00925*
Y00914*
X0057Y00909*
X00565Y00961D02*
Y0094D01*
X00581*
X00575Y00951*
Y00956*
X00581Y00961*
X00591*
X00596Y00956*
Y00946*
X00591Y0094*
X00164Y00839D02*
Y0087D01*
X00179*
X00185Y00865*
Y00855*
X00179Y00849*
X00164*
X00174D02*
X00185Y00839D01*
X00216D02*
X00195D01*
X00216Y0086*
Y00865*
X00211Y0087*
X002*
X00195Y00865*
X00242Y00839D02*
Y0087D01*
X00227Y00855*
X00248*
X00874Y01019D02*
Y0105D01*
X00889*
X00895Y01045*
Y01035*
X00889Y01029*
X00874*
X00884D02*
X00895Y01019D01*
X00926D02*
X00905D01*
X00926Y0104*
Y01045*
X00921Y0105*
X0091*
X00905Y01045*
X00937D02*
X00942Y0105D01*
X00952*
X00958Y01045*
Y0104*
X00952Y01035*
X00947*
X00952*
X00958Y01029*
Y01024*
X00952Y01019*
X00942*
X00937Y01024*
X00444Y01024D02*
Y01055D01*
X00459*
X00465Y0105*
Y0104*
X00459Y01034*
X00444*
X00454D02*
X00465Y01024D01*
X00496D02*
X00475D01*
X00496Y01045*
Y0105*
X00491Y01055*
X0048*
X00475Y0105*
X00528Y01024D02*
X00507D01*
X00528Y01045*
Y0105*
X00522Y01055*
X00512*
X00507Y0105*
X007Y01001D02*
X00731D01*
Y00985*
X00726Y0098*
X00716*
X0071Y00985*
Y01001*
Y00991D02*
X007Y0098D01*
Y00949D02*
Y0097D01*
X00721Y00949*
X00726*
X00731Y00954*
Y00965*
X00726Y0097*
X007Y00938D02*
Y00928D01*
Y00933*
X00731*
X00726Y00938*
X00185Y01071D02*
X00216D01*
Y01056*
X00211Y0105*
X00201*
X00195Y01056*
Y01071*
Y01061D02*
X00185Y0105D01*
Y01019D02*
Y0104D01*
X00206Y01019*
X00211*
X00216Y01024*
Y01035*
X00211Y0104*
Y01009D02*
X00216Y01003D01*
Y00993*
X00211Y00988*
X0019*
X00185Y00993*
Y01003*
X0019Y01009*
X00211*
X00816Y00339D02*
Y0037D01*
X00832*
X00837Y00365*
Y00355*
X00832Y00349*
X00816*
X00827D02*
X00837Y00339D01*
X00848D02*
X00858D01*
X00853*
Y0037*
X00848Y00365*
X00874Y00344D02*
X00879Y00339D01*
X0089*
X00895Y00344*
Y00365*
X0089Y0037*
X00879*
X00874Y00365*
Y0036*
X00879Y00355*
X00895*
X00491Y01604D02*
Y01635D01*
X00507*
X00512Y0163*
Y0162*
X00507Y01614*
X00491*
X00502D02*
X00512Y01604D01*
X00523D02*
X00533D01*
X00528*
Y01635*
X00523Y0163*
X00549D02*
X00554Y01635D01*
X00565*
X0057Y0163*
Y01625*
X00565Y0162*
X0057Y01614*
Y01609*
X00565Y01604*
X00554*
X00549Y01609*
Y01614*
X00554Y0162*
X00549Y01625*
Y0163*
X00554Y0162D02*
X00565D01*
X00271Y00449D02*
Y0048D01*
X00287*
X00292Y00475*
Y00465*
X00287Y00459*
X00271*
X00282D02*
X00292Y00449D01*
X00303D02*
X00313D01*
X00308*
Y0048*
X00303Y00475*
X00329Y0048D02*
X0035D01*
Y00475*
X00329Y00454*
Y00449*
X00831D02*
Y0048D01*
X00847*
X00852Y00475*
Y00465*
X00847Y00459*
X00831*
X00842D02*
X00852Y00449D01*
X00863D02*
X00873D01*
X00868*
Y0048*
X00863Y00475*
X0091Y0048D02*
X00899Y00475D01*
X00889Y00465*
Y00454*
X00894Y00449*
X00905*
X0091Y00454*
Y00459*
X00905Y00465*
X00889*
X00766Y00399D02*
Y0043D01*
X00782*
X00787Y00425*
Y00415*
X00782Y00409*
X00766*
X00777D02*
X00787Y00399D01*
X00798D02*
X00808D01*
X00803*
Y0043*
X00798Y00425*
X00845Y0043D02*
X00824D01*
Y00415*
X00834Y0042*
X0084*
X00845Y00415*
Y00404*
X0084Y00399*
X00829*
X00824Y00404*
X00751Y00569D02*
Y006D01*
X00767*
X00772Y00595*
Y00585*
X00767Y00579*
X00751*
X00762D02*
X00772Y00569D01*
X00783D02*
X00793D01*
X00788*
Y006*
X00783Y00595*
X00825Y00569D02*
Y006D01*
X00809Y00585*
X0083*
X00701Y00299D02*
Y0033D01*
X00717*
X00722Y00325*
Y00315*
X00717Y00309*
X00701*
X00712D02*
X00722Y00299D01*
X00733D02*
X00743D01*
X00738*
Y0033*
X00733Y00325*
X00759D02*
X00764Y0033D01*
X00775*
X0078Y00325*
Y0032*
X00775Y00315*
X00769*
X00775*
X0078Y00309*
Y00304*
X00775Y00299*
X00764*
X00759Y00304*
X00451Y00299D02*
Y0033D01*
X00467*
X00472Y00325*
Y00315*
X00467Y00309*
X00451*
X00462D02*
X00472Y00299D01*
X00483D02*
X00493D01*
X00488*
Y0033*
X00483Y00325*
X0053Y00299D02*
X00509D01*
X0053Y0032*
Y00325*
X00525Y0033*
X00514*
X00509Y00325*
X00531Y00589D02*
Y0062D01*
X00547*
X00552Y00615*
Y00605*
X00547Y00599*
X00531*
X00542D02*
X00552Y00589D01*
X00563D02*
X00573D01*
X00568*
Y0062*
X00563Y00615*
X00589Y00589D02*
X006D01*
X00594*
Y0062*
X00589Y00615*
X00611Y00009D02*
Y0004D01*
X00627*
X00632Y00035*
Y00025*
X00627Y00019*
X00611*
X00622D02*
X00632Y00009D01*
X00643D02*
X00653D01*
X00648*
Y0004*
X00643Y00035*
X00669D02*
X00674Y0004D01*
X00685*
X0069Y00035*
Y00014*
X00685Y00009*
X00674*
X00669Y00014*
Y00035*
X0054Y01774D02*
Y01795D01*
X00535Y018*
X00525*
X00519Y01795*
Y01774*
X00525Y01769*
X00535*
X0053Y01779D02*
X0054Y01769D01*
X00535D02*
X0054Y01774D01*
X00572Y018D02*
X00551D01*
Y01785*
X00561Y0179*
X00567*
X00572Y01785*
Y01774*
X00567Y01769*
X00556*
X00551Y01774*
X0017Y00674D02*
Y00695D01*
X00165Y007*
X00155*
X00149Y00695*
Y00674*
X00155Y00669*
X00165*
X0016Y00679D02*
X0017Y00669D01*
X00165D02*
X0017Y00674D01*
X00197Y00669D02*
Y007D01*
X00181Y00685*
X00202*
X01Y00714D02*
Y00735D01*
X00995Y0074*
X00985*
X00979Y00735*
Y00714*
X00985Y00709*
X00995*
X0099Y00719D02*
X01Y00709D01*
X00995D02*
X01Y00714D01*
X01011Y00735D02*
X01016Y0074D01*
X01027*
X01032Y00735*
Y0073*
X01027Y00725*
X01021*
X01027*
X01032Y00719*
Y00714*
X01027Y00709*
X01016*
X01011Y00714*
X00946Y01765D02*
Y01734D01*
X00962*
X00967Y01739*
Y0176*
X00962Y01765*
X00946*
X00978Y01734D02*
X00988D01*
X00983*
Y01765*
X00978Y0176*
X01025Y01765D02*
X01014Y0176D01*
X01004Y0175*
Y01739*
X01009Y01734*
X0102*
X01025Y01739*
Y01744*
X0102Y0175*
X01004*
X00951Y01625D02*
Y01594D01*
X00967*
X00972Y01599*
Y0162*
X00967Y01625*
X00951*
X00983Y01594D02*
X00993D01*
X00988*
Y01625*
X00983Y0162*
X0103Y01625D02*
X01009D01*
Y0161*
X01019Y01615*
X01025*
X0103Y0161*
Y01599*
X01025Y01594*
X01014*
X01009Y01599*
X00131Y01635D02*
Y01604D01*
X00147*
X00152Y01609*
Y0163*
X00147Y01635*
X00131*
X00163Y01604D02*
X00173D01*
X00168*
Y01635*
X00163Y0163*
X00205Y01604D02*
Y01635D01*
X00189Y0162*
X0021*
X00136Y0176D02*
Y01729D01*
X00152*
X00157Y01734*
Y01755*
X00152Y0176*
X00136*
X00168Y01729D02*
X00178D01*
X00173*
Y0176*
X00168Y01755*
X00194D02*
X00199Y0176D01*
X0021*
X00215Y01755*
Y0175*
X0021Y01745*
X00204*
X0021*
X00215Y01739*
Y01734*
X0021Y01729*
X00199*
X00194Y01734*
X00191Y00295D02*
Y00264D01*
X00207*
X00212Y00269*
Y0029*
X00207Y00295*
X00191*
X00223Y00264D02*
X00233D01*
X00228*
Y00295*
X00223Y0029*
X0027Y00264D02*
X00249D01*
X0027Y00285*
Y0029*
X00265Y00295*
X00254*
X00249Y0029*
X00115Y00305D02*
X00146D01*
Y00321*
X00141Y00326*
X0012*
X00115Y00321*
Y00305*
X00146Y00337D02*
Y00347D01*
Y00342*
X00115*
X0012Y00337*
X00146Y00363D02*
Y00374D01*
Y00368*
X00115*
X0012Y00363*
X00951Y00435D02*
Y00404D01*
X00967*
X00972Y00409*
Y0043*
X00967Y00435*
X00951*
X00983Y00404D02*
X00993D01*
X00988*
Y00435*
X00983Y0043*
X01009D02*
X01014Y00435D01*
X01025*
X0103Y0043*
Y00409*
X01025Y00404*
X01014*
X01009Y00409*
Y0043*
X00959Y00315D02*
Y00284D01*
X00975*
X0098Y00289*
Y0031*
X00975Y00315*
X00959*
X00991Y00289D02*
X00996Y00284D01*
X01007*
X01012Y00289*
Y0031*
X01007Y00315*
X00996*
X00991Y0031*
Y00305*
X00996Y003*
X01012*
X00459Y0004D02*
Y00009D01*
X00475*
X0048Y00014*
Y00035*
X00475Y0004*
X00459*
X00491D02*
X00512D01*
Y00035*
X00491Y00014*
Y00009*
X00925Y0133D02*
X00919Y01335D01*
X00909*
X00904Y0133*
Y01309*
X00909Y01304*
X00919*
X00925Y01309*
X00951Y01304D02*
Y01335D01*
X00935Y0132*
X00956*
X00982Y01304D02*
Y01335D01*
X00967Y0132*
X00988*
X00225Y0158D02*
X00219Y01585D01*
X00209*
X00204Y0158*
Y01559*
X00209Y01554*
X00219*
X00225Y01559*
X00251Y01554D02*
Y01585D01*
X00235Y0157*
X00256*
X00267Y0158D02*
X00272Y01585D01*
X00282*
X00288Y0158*
Y01575*
X00282Y0157*
X00277*
X00282*
X00288Y01564*
Y01559*
X00282Y01554*
X00272*
X00267Y01559*
X00705Y0158D02*
X00699Y01585D01*
X00689*
X00684Y0158*
Y01559*
X00689Y01554*
X00699*
X00705Y01559*
X00731Y01554D02*
Y01585D01*
X00715Y0157*
X00736*
X00768Y01554D02*
X00747D01*
X00768Y01575*
Y0158*
X00762Y01585*
X00752*
X00747Y0158*
X00125Y01424D02*
X0012Y01419D01*
Y01408*
X00125Y01403*
X00146*
X00151Y01408*
Y01419*
X00146Y01424*
X00151Y0145D02*
X0012D01*
X00136Y01434*
Y01455*
X00151Y01466D02*
Y01476D01*
Y01471*
X0012*
X00125Y01466*
X00535Y0145D02*
X00529Y01455D01*
X00519*
X00514Y0145*
Y01429*
X00519Y01424*
X00529*
X00535Y01429*
X00561Y01424D02*
Y01455D01*
X00545Y0144*
X00566*
X00577Y0145D02*
X00582Y01455D01*
X00592*
X00598Y0145*
Y01429*
X00592Y01424*
X00582*
X00577Y01429*
Y0145*
X0051Y01205D02*
X00504Y0121D01*
X00494*
X00489Y01205*
Y01184*
X00494Y01179*
X00504*
X0051Y01184*
X0052Y01205D02*
X00525Y0121D01*
X00536*
X00541Y01205*
Y012*
X00536Y01195*
X00531*
X00536*
X00541Y01189*
Y01184*
X00536Y01179*
X00525*
X0052Y01184*
X00552D02*
X00557Y01179D01*
X00567*
X00573Y01184*
Y01205*
X00567Y0121*
X00557*
X00552Y01205*
Y012*
X00557Y01195*
X00573*
X00775Y01205D02*
X00769Y0121D01*
X00759*
X00754Y01205*
Y01184*
X00759Y01179*
X00769*
X00775Y01184*
X00785Y01205D02*
X0079Y0121D01*
X00801*
X00806Y01205*
Y012*
X00801Y01195*
X00796*
X00801*
X00806Y01189*
Y01184*
X00801Y01179*
X0079*
X00785Y01184*
X00817Y01205D02*
X00822Y0121D01*
X00832*
X00838Y01205*
Y012*
X00832Y01195*
X00838Y01189*
Y01184*
X00832Y01179*
X00822*
X00817Y01184*
Y01189*
X00822Y01195*
X00817Y012*
Y01205*
X00822Y01195D02*
X00832D01*
X00335Y0121D02*
X00329Y01215D01*
X00319*
X00314Y0121*
Y01189*
X00319Y01184*
X00329*
X00335Y01189*
X00345Y0121D02*
X0035Y01215D01*
X00361*
X00366Y0121*
Y01205*
X00361Y012*
X00356*
X00361*
X00366Y01194*
Y01189*
X00361Y01184*
X0035*
X00345Y01189*
X00377Y01215D02*
X00398D01*
Y0121*
X00377Y01189*
Y01184*
X00695Y0175D02*
X00689Y01755D01*
X00679*
X00674Y0175*
Y01729*
X00679Y01724*
X00689*
X00695Y01729*
X00705Y0175D02*
X0071Y01755D01*
X00721*
X00726Y0175*
Y01745*
X00721Y0174*
X00716*
X00721*
X00726Y01734*
Y01729*
X00721Y01724*
X0071*
X00705Y01729*
X00758Y01755D02*
X00747Y0175D01*
X00737Y0174*
Y01729*
X00742Y01724*
X00752*
X00758Y01729*
Y01734*
X00752Y0174*
X00737*
X0073Y0144D02*
X00724Y01445D01*
X00714*
X00709Y0144*
Y01419*
X00714Y01414*
X00724*
X0073Y01419*
X0074Y0144D02*
X00745Y01445D01*
X00756*
X00761Y0144*
Y01435*
X00756Y0143*
X00751*
X00756*
X00761Y01424*
Y01419*
X00756Y01414*
X00745*
X0074Y01419*
X00793Y01445D02*
X00772D01*
Y0143*
X00782Y01435*
X00787*
X00793Y0143*
Y01419*
X00787Y01414*
X00777*
X00772Y01419*
X0043Y0149D02*
X00424Y01495D01*
X00414*
X00409Y0149*
Y01469*
X00414Y01464*
X00424*
X0043Y01469*
X0044Y0149D02*
X00445Y01495D01*
X00456*
X00461Y0149*
Y01485*
X00456Y0148*
X00451*
X00456*
X00461Y01474*
Y01469*
X00456Y01464*
X00445*
X0044Y01469*
X00487Y01464D02*
Y01495D01*
X00472Y0148*
X00493*
X00465Y0175D02*
X00459Y01755D01*
X00449*
X00444Y0175*
Y01729*
X00449Y01724*
X00459*
X00465Y01729*
X00475Y0175D02*
X0048Y01755D01*
X00491*
X00496Y0175*
Y01745*
X00491Y0174*
X00486*
X00491*
X00496Y01734*
Y01729*
X00491Y01724*
X0048*
X00475Y01729*
X00507Y0175D02*
X00512Y01755D01*
X00522*
X00528Y0175*
Y01745*
X00522Y0174*
X00517*
X00522*
X00528Y01734*
Y01729*
X00522Y01724*
X00512*
X00507Y01729*
X0077Y0078D02*
X00764Y00785D01*
X00754*
X00749Y0078*
Y00759*
X00754Y00754*
X00764*
X0077Y00759*
X0078Y0078D02*
X00785Y00785D01*
X00796*
X00801Y0078*
Y00775*
X00796Y0077*
X00791*
X00796*
X00801Y00764*
Y00759*
X00796Y00754*
X00785*
X0078Y00759*
X00833Y00754D02*
X00812D01*
X00833Y00775*
Y0078*
X00827Y00785*
X00817*
X00812Y0078*
X0041Y00888D02*
X00405Y00893D01*
X00394*
X00389Y00888*
Y00867*
X00394Y00861*
X00405*
X0041Y00867*
X0042Y00888D02*
X00426Y00893D01*
X00436*
X00441Y00888*
Y00882*
X00436Y00877*
X00431*
X00436*
X00441Y00872*
Y00867*
X00436Y00861*
X00426*
X0042Y00867*
X00452Y00861D02*
X00462D01*
X00457*
Y00893*
X00452Y00888*
X00645Y0113D02*
X00639Y01135D01*
X00629*
X00624Y0113*
Y01109*
X00629Y01104*
X00639*
X00645Y01109*
X00655Y0113D02*
X0066Y01135D01*
X00671*
X00676Y0113*
Y01125*
X00671Y0112*
X00666*
X00671*
X00676Y01114*
Y01109*
X00671Y01104*
X0066*
X00655Y01109*
X00687Y0113D02*
X00692Y01135D01*
X00702*
X00708Y0113*
Y01109*
X00702Y01104*
X00692*
X00687Y01109*
Y0113*
X00215Y01135D02*
X00209Y0114D01*
X00199*
X00194Y01135*
Y01114*
X00199Y01109*
X00209*
X00215Y01114*
X00246Y01109D02*
X00225D01*
X00246Y0113*
Y01135*
X00241Y0114*
X0023*
X00225Y01135*
X00257Y01114D02*
X00262Y01109D01*
X00272*
X00278Y01114*
Y01135*
X00272Y0114*
X00262*
X00257Y01135*
Y0113*
X00262Y01125*
X00278*
X0057Y01004D02*
X00565Y00998D01*
Y00988*
X0057Y00983*
X00591*
X00596Y00988*
Y00998*
X00591Y01004*
X00596Y01035D02*
Y01014D01*
X00575Y01035*
X0057*
X00565Y0103*
Y01019*
X0057Y01014*
Y01045D02*
X00565Y01051D01*
Y01061*
X0057Y01066*
X00575*
X00581Y01061*
X00586Y01066*
X00591*
X00596Y01061*
Y01051*
X00591Y01045*
X00586*
X00581Y01051*
X00575Y01045*
X0057*
X00581Y01051D02*
Y01061D01*
X00161Y01105D02*
X00166Y01111D01*
Y01121*
X00161Y01126*
X0014*
X00135Y01121*
Y01111*
X0014Y01105*
X00135Y01074D02*
Y01095D01*
X00156Y01074*
X00161*
X00166Y01079*
Y0109*
X00161Y01095*
X00166Y01064D02*
Y01043D01*
X00161*
X0014Y01064*
X00135*
X0094Y0088D02*
X00934Y00885D01*
X00924*
X00919Y0088*
Y00859*
X00924Y00854*
X00934*
X0094Y00859*
X00971Y00854D02*
X0095D01*
X00971Y00875*
Y0088*
X00966Y00885*
X00955*
X0095Y0088*
X01003Y00885D02*
X00992Y0088D01*
X00982Y0087*
Y00859*
X00987Y00854*
X00997*
X01003Y00859*
Y00864*
X00997Y0087*
X00982*
X0031Y0069D02*
X00304Y00695D01*
X00294*
X00289Y0069*
Y00669*
X00294Y00664*
X00304*
X0031Y00669*
X00341Y00664D02*
X0032D01*
X00341Y00685*
Y0069*
X00336Y00695*
X00325*
X0032Y0069*
X00373Y00695D02*
X00352D01*
Y0068*
X00362Y00685*
X00367*
X00373Y0068*
Y00669*
X00367Y00664*
X00357*
X00352Y00669*
X00335Y0075D02*
X00329Y00755D01*
X00319*
X00314Y0075*
Y00729*
X00319Y00724*
X00329*
X00335Y00729*
X00366Y00724D02*
X00345D01*
X00366Y00745*
Y0075*
X00361Y00755*
X0035*
X00345Y0075*
X00392Y00724D02*
Y00755D01*
X00377Y0074*
X00398*
X0039Y0114D02*
X00384Y01145D01*
X00374*
X00369Y0114*
Y01119*
X00374Y01114*
X00384*
X0039Y01119*
X00421Y01114D02*
X004D01*
X00421Y01135*
Y0114*
X00416Y01145*
X00405*
X004Y0114*
X00432D02*
X00437Y01145D01*
X00447*
X00453Y0114*
Y01135*
X00447Y0113*
X00442*
X00447*
X00453Y01124*
Y01119*
X00447Y01114*
X00437*
X00432Y01119*
X00895Y01095D02*
X00889Y011D01*
X00879*
X00874Y01095*
Y01074*
X00879Y01069*
X00889*
X00895Y01074*
X00926Y01069D02*
X00905D01*
X00926Y0109*
Y01095*
X00921Y011*
X0091*
X00905Y01095*
X00958Y01069D02*
X00937D01*
X00958Y0109*
Y01095*
X00952Y011*
X00942*
X00937Y01095*
X00915Y00614D02*
X0091Y00609D01*
Y00598*
X00915Y00593*
X00936*
X00941Y00598*
Y00609*
X00936Y00614*
X00941Y00645D02*
Y00624D01*
X0092Y00645*
X00915*
X0091Y0064*
Y0063*
X00915Y00624*
X00941Y00656D02*
Y00666D01*
Y00661*
X0091*
X00915Y00656*
X00607Y0153D02*
X00602Y01535D01*
X00592*
X00586Y0153*
Y01509*
X00592Y01504*
X00602*
X00607Y01509*
X00639Y01504D02*
X00618D01*
X00639Y01525*
Y0153*
X00634Y01535*
X00623*
X00618Y0153*
X00649D02*
X00655Y01535D01*
X00665*
X0067Y0153*
Y01509*
X00665Y01504*
X00655*
X00649Y01509*
Y0153*
X00137Y0043D02*
X00132Y00435D01*
X00121*
X00116Y0043*
Y00409*
X00121Y00404*
X00132*
X00137Y00409*
X00148Y00404D02*
X00158D01*
X00153*
Y00435*
X00148Y0043*
X00174Y00409D02*
X00179Y00404D01*
X0019*
X00195Y00409*
Y0043*
X0019Y00435*
X00179*
X00174Y0043*
Y00425*
X00179Y0042*
X00195*
X00892Y0052D02*
X00887Y00525D01*
X00876*
X00871Y0052*
Y00499*
X00876Y00494*
X00887*
X00892Y00499*
X00903Y00494D02*
X00913D01*
X00908*
Y00525*
X00903Y0052*
X00929D02*
X00934Y00525D01*
X00945*
X0095Y0052*
Y00515*
X00945Y0051*
X0095Y00504*
Y00499*
X00945Y00494*
X00934*
X00929Y00499*
Y00504*
X00934Y0051*
X00929Y00515*
Y0052*
X00934Y0051D02*
X00945D01*
X00747Y0069D02*
X00742Y00695D01*
X00731*
X00726Y0069*
Y00669*
X00731Y00664*
X00742*
X00747Y00669*
X00758Y00664D02*
X00768D01*
X00763*
Y00695*
X00758Y0069*
X00784Y00695D02*
X00805D01*
Y0069*
X00784Y00669*
Y00664*
X00617Y00665D02*
X00612Y0067D01*
X00601*
X00596Y00665*
Y00644*
X00601Y00639*
X00612*
X00617Y00644*
X00628Y00639D02*
X00638D01*
X00633*
Y0067*
X00628Y00665*
X00675Y0067D02*
X00664Y00665D01*
X00654Y00655*
Y00644*
X00659Y00639*
X0067*
X00675Y00644*
Y00649*
X0067Y00655*
X00654*
X00452Y0067D02*
X00447Y00675D01*
X00436*
X00431Y0067*
Y00649*
X00436Y00644*
X00447*
X00452Y00649*
X00463Y00644D02*
X00473D01*
X00468*
Y00675*
X00463Y0067*
X0051Y00675D02*
X00489D01*
Y0066*
X00499Y00665*
X00505*
X0051Y0066*
Y00649*
X00505Y00644*
X00494*
X00489Y00649*
X00587Y0045D02*
X00582Y00455D01*
X00571*
X00566Y0045*
Y00429*
X00571Y00424*
X00582*
X00587Y00429*
X00598Y00424D02*
X00608D01*
X00603*
Y00455*
X00598Y0045*
X0064Y00424D02*
Y00455D01*
X00624Y0044*
X00645*
X00432Y0028D02*
X00427Y00285D01*
X00416*
X00411Y0028*
Y00259*
X00416Y00254*
X00427*
X00432Y00259*
X00443Y00254D02*
X00453D01*
X00448*
Y00285*
X00443Y0028*
X00469D02*
X00474Y00285D01*
X00485*
X0049Y0028*
Y00275*
X00485Y0027*
X00479*
X00485*
X0049Y00264*
Y00259*
X00485Y00254*
X00474*
X00469Y00259*
X00777Y00195D02*
X00772Y002D01*
X00762*
X00756Y00195*
Y00174*
X00762Y00169*
X00772*
X00777Y00174*
X00788Y00169D02*
X00798D01*
X00793*
Y002*
X00788Y00195*
X00814Y00169D02*
X00825D01*
X00819*
Y002*
X00814Y00195*
X00665Y0023D02*
X0066Y00235D01*
X0065*
X00644Y0023*
Y00209*
X0065Y00204*
X0066*
X00665Y00209*
X00692Y00204D02*
Y00235D01*
X00676Y0022*
X00697*
G54D61*
X00168Y00362D02*
D01*
X00168Y00361*
X00168Y00361*
X00168Y00361*
X00168Y00361*
X00168Y00361*
X00168Y00361*
X00169Y00361*
X00169Y00361*
X00169Y0036*
X00169Y0036*
X00169Y0036*
X00169Y0036*
X00169Y0036*
X00169Y0036*
X00169Y0036*
X00169Y0036*
X0017Y0036*
X0017Y0036*
X0017Y0036*
X0017Y0036*
X0017Y0036*
X0017Y0036*
X0017*
X0017Y0036*
X00171Y0036*
X00171Y0036*
X00171Y0036*
X00171Y0036*
X00171Y0036*
X00171Y0036*
X00171Y0036*
X00171Y0036*
X00172Y0036*
X00172Y0036*
X00172Y0036*
X00172Y0036*
X00172Y00361*
X00172Y00361*
X00172Y00361*
X00172Y00361*
X00172Y00361*
X00172Y00361*
X00172Y00361*
X00172Y00361*
X00172Y00362*
D01*
X00172Y00362*
X00172Y00362*
X00172Y00362*
X00172Y00362*
X00172Y00362*
X00172Y00362*
X00172Y00363*
X00172Y00363*
X00172Y00363*
X00172Y00363*
X00172Y00363*
X00172Y00363*
X00171Y00363*
X00171Y00363*
X00171Y00363*
X00171Y00363*
X00171Y00363*
X00171Y00364*
X00171Y00364*
X00171Y00364*
X0017Y00364*
X0017Y00364*
X0017*
X0017Y00364*
X0017Y00364*
X0017Y00364*
X0017Y00364*
X0017Y00363*
X00169Y00363*
X00169Y00363*
X00169Y00363*
X00169Y00363*
X00169Y00363*
X00169Y00363*
X00169Y00363*
X00169Y00363*
X00169Y00363*
X00169Y00363*
X00168Y00362*
X00168Y00362*
X00168Y00362*
X00168Y00362*
X00168Y00362*
X00168Y00362*
X00168Y00362*
Y00317D02*
D01*
X00168Y00316*
X00168Y00316*
X00168Y00316*
X00168Y00316*
X00168Y00316*
X00168Y00316*
X00169Y00316*
X00169Y00316*
X00169Y00315*
X00169Y00315*
X00169Y00315*
X00169Y00315*
X00169Y00315*
X00169Y00315*
X00169Y00315*
X00169Y00315*
X0017Y00315*
X0017Y00315*
X0017Y00315*
X0017Y00315*
X0017Y00315*
X0017Y00315*
X0017*
X0017Y00315*
X00171Y00315*
X00171Y00315*
X00171Y00315*
X00171Y00315*
X00171Y00315*
X00171Y00315*
X00171Y00315*
X00171Y00315*
X00172Y00315*
X00172Y00315*
X00172Y00315*
X00172Y00315*
X00172Y00316*
X00172Y00316*
X00172Y00316*
X00172Y00316*
X00172Y00316*
X00172Y00316*
X00172Y00316*
X00172Y00316*
X00172Y00317*
D01*
X00172Y00317*
X00172Y00317*
X00172Y00317*
X00172Y00317*
X00172Y00317*
X00172Y00317*
X00172Y00318*
X00172Y00318*
X00172Y00318*
X00172Y00318*
X00172Y00318*
X00172Y00318*
X00171Y00318*
X00171Y00318*
X00171Y00318*
X00171Y00318*
X00171Y00318*
X00171Y00319*
X00171Y00319*
X00171Y00319*
X0017Y00319*
X0017Y00319*
X0017*
X0017Y00319*
X0017Y00319*
X0017Y00319*
X0017Y00319*
X0017Y00318*
X00169Y00318*
X00169Y00318*
X00169Y00318*
X00169Y00318*
X00169Y00318*
X00169Y00318*
X00169Y00318*
X00169Y00318*
X00169Y00318*
X00169Y00318*
X00168Y00317*
X00168Y00317*
X00168Y00317*
X00168Y00317*
X00168Y00317*
X00168Y00317*
X00168Y00317*
Y01697D02*
D01*
X00168Y01696*
X00168Y01696*
X00168Y01696*
X00168Y01696*
X00168Y01696*
X00168Y01696*
X00169Y01696*
X00169Y01696*
X00169Y01695*
X00169Y01695*
X00169Y01695*
X00169Y01695*
X00169Y01695*
X00169Y01695*
X00169Y01695*
X00169Y01695*
X0017Y01695*
X0017Y01695*
X0017Y01695*
X0017Y01695*
X0017Y01695*
X0017Y01695*
X0017*
X0017Y01695*
X00171Y01695*
X00171Y01695*
X00171Y01695*
X00171Y01695*
X00171Y01695*
X00171Y01695*
X00171Y01695*
X00171Y01695*
X00172Y01695*
X00172Y01695*
X00172Y01695*
X00172Y01695*
X00172Y01696*
X00172Y01696*
X00172Y01696*
X00172Y01696*
X00172Y01696*
X00172Y01696*
X00172Y01696*
X00172Y01696*
X00172Y01697*
D01*
X00172Y01697*
X00172Y01697*
X00172Y01697*
X00172Y01697*
X00172Y01697*
X00172Y01697*
X00172Y01698*
X00172Y01698*
X00172Y01698*
X00172Y01698*
X00172Y01698*
X00172Y01698*
X00171Y01698*
X00171Y01698*
X00171Y01698*
X00171Y01698*
X00171Y01698*
X00171Y01699*
X00171Y01699*
X00171Y01699*
X0017Y01699*
X0017Y01699*
X0017*
X0017Y01699*
X0017Y01699*
X0017Y01699*
X0017Y01699*
X0017Y01698*
X00169Y01698*
X00169Y01698*
X00169Y01698*
X00169Y01698*
X00169Y01698*
X00169Y01698*
X00169Y01698*
X00169Y01698*
X00169Y01698*
X00169Y01698*
X00168Y01697*
X00168Y01697*
X00168Y01697*
X00168Y01697*
X00168Y01697*
X00168Y01697*
X00168Y01697*
Y01652D02*
D01*
X00168Y01651*
X00168Y01651*
X00168Y01651*
X00168Y01651*
X00168Y01651*
X00168Y01651*
X00169Y01651*
X00169Y01651*
X00169Y0165*
X00169Y0165*
X00169Y0165*
X00169Y0165*
X00169Y0165*
X00169Y0165*
X00169Y0165*
X00169Y0165*
X0017Y0165*
X0017Y0165*
X0017Y0165*
X0017Y0165*
X0017Y0165*
X0017Y0165*
X0017*
X0017Y0165*
X00171Y0165*
X00171Y0165*
X00171Y0165*
X00171Y0165*
X00171Y0165*
X00171Y0165*
X00171Y0165*
X00171Y0165*
X00172Y0165*
X00172Y0165*
X00172Y0165*
X00172Y0165*
X00172Y01651*
X00172Y01651*
X00172Y01651*
X00172Y01651*
X00172Y01651*
X00172Y01651*
X00172Y01651*
X00172Y01651*
X00172Y01652*
D01*
X00172Y01652*
X00172Y01652*
X00172Y01652*
X00172Y01652*
X00172Y01652*
X00172Y01652*
X00172Y01653*
X00172Y01653*
X00172Y01653*
X00172Y01653*
X00172Y01653*
X00172Y01653*
X00171Y01653*
X00171Y01653*
X00171Y01653*
X00171Y01653*
X00171Y01653*
X00171Y01654*
X00171Y01654*
X00171Y01654*
X0017Y01654*
X0017Y01654*
X0017*
X0017Y01654*
X0017Y01654*
X0017Y01654*
X0017Y01654*
X0017Y01653*
X00169Y01653*
X00169Y01653*
X00169Y01653*
X00169Y01653*
X00169Y01653*
X00169Y01653*
X00169Y01653*
X00169Y01653*
X00169Y01653*
X00169Y01653*
X00168Y01652*
X00168Y01652*
X00168Y01652*
X00168Y01652*
X00168Y01652*
X00168Y01652*
X00168Y01652*
X01017Y01712D02*
D01*
X01017Y01713*
X01017Y01713*
X01017Y01713*
X01017Y01713*
X01017Y01713*
X01017Y01713*
X01017Y01713*
X01017Y01713*
X01017Y01714*
X01017Y01714*
X01017Y01714*
X01017Y01714*
X01017Y01714*
X01016Y01714*
X01016Y01714*
X01016Y01714*
X01016Y01714*
X01016Y01714*
X01016Y01714*
X01016Y01714*
X01016Y01714*
X01015Y01714*
X01015*
X01015Y01714*
X01015Y01714*
X01015Y01714*
X01015Y01714*
X01015Y01714*
X01014Y01714*
X01014Y01714*
X01014Y01714*
X01014Y01714*
X01014Y01714*
X01014Y01714*
X01014Y01714*
X01014Y01714*
X01014Y01713*
X01014Y01713*
X01014Y01713*
X01014Y01713*
X01013Y01713*
X01013Y01713*
X01013Y01713*
X01013Y01713*
X01013Y01712*
D01*
X01013Y01712*
X01013Y01712*
X01013Y01712*
X01013Y01712*
X01014Y01712*
X01014Y01712*
X01014Y01711*
X01014Y01711*
X01014Y01711*
X01014Y01711*
X01014Y01711*
X01014Y01711*
X01014Y01711*
X01014Y01711*
X01014Y01711*
X01015Y01711*
X01015Y01711*
X01015Y0171*
X01015Y0171*
X01015Y0171*
X01015Y0171*
X01015Y0171*
X01015*
X01016Y0171*
X01016Y0171*
X01016Y0171*
X01016Y0171*
X01016Y01711*
X01016Y01711*
X01016Y01711*
X01016Y01711*
X01017Y01711*
X01017Y01711*
X01017Y01711*
X01017Y01711*
X01017Y01711*
X01017Y01711*
X01017Y01711*
X01017Y01712*
X01017Y01712*
X01017Y01712*
X01017Y01712*
X01017Y01712*
X01017Y01712*
X01017Y01712*
X01018Y01662D02*
D01*
X01018Y01663*
X01018Y01663*
X01018Y01663*
X01018Y01663*
X01018Y01663*
X01018Y01663*
X01018Y01663*
X01018Y01663*
X01018Y01664*
X01017Y01664*
X01017Y01664*
X01017Y01664*
X01017Y01664*
X01017Y01664*
X01017Y01664*
X01017Y01664*
X01017Y01664*
X01017Y01664*
X01016Y01664*
X01016Y01664*
X01016Y01664*
X01016Y01664*
X01016*
X01016Y01664*
X01016Y01664*
X01015Y01664*
X01015Y01664*
X01015Y01664*
X01015Y01664*
X01015Y01664*
X01015Y01664*
X01015Y01664*
X01015Y01664*
X01015Y01664*
X01014Y01664*
X01014Y01664*
X01014Y01663*
X01014Y01663*
X01014Y01663*
X01014Y01663*
X01014Y01663*
X01014Y01663*
X01014Y01663*
X01014Y01663*
X01014Y01662*
D01*
X01014Y01662*
X01014Y01662*
X01014Y01662*
X01014Y01662*
X01014Y01662*
X01014Y01662*
X01014Y01661*
X01014Y01661*
X01014Y01661*
X01014Y01661*
X01015Y01661*
X01015Y01661*
X01015Y01661*
X01015Y01661*
X01015Y01661*
X01015Y01661*
X01015Y01661*
X01015Y0166*
X01015Y0166*
X01016Y0166*
X01016Y0166*
X01016Y0166*
X01016*
X01016Y0166*
X01016Y0166*
X01016Y0166*
X01017Y0166*
X01017Y01661*
X01017Y01661*
X01017Y01661*
X01017Y01661*
X01017Y01661*
X01017Y01661*
X01017Y01661*
X01017Y01661*
X01018Y01661*
X01018Y01661*
X01018Y01661*
X01018Y01662*
X01018Y01662*
X01018Y01662*
X01018Y01662*
X01018Y01662*
X01018Y01662*
X01018Y01662*
Y00347D02*
D01*
X01018Y00348*
X01018Y00348*
X01018Y00348*
X01018Y00348*
X01018Y00348*
X01018Y00348*
X01018Y00348*
X01018Y00348*
X01018Y00349*
X01017Y00349*
X01017Y00349*
X01017Y00349*
X01017Y00349*
X01017Y00349*
X01017Y00349*
X01017Y00349*
X01017Y00349*
X01017Y00349*
X01016Y00349*
X01016Y00349*
X01016Y00349*
X01016Y00349*
X01016*
X01016Y00349*
X01016Y00349*
X01015Y00349*
X01015Y00349*
X01015Y00349*
X01015Y00349*
X01015Y00349*
X01015Y00349*
X01015Y00349*
X01015Y00349*
X01015Y00349*
X01014Y00349*
X01014Y00349*
X01014Y00348*
X01014Y00348*
X01014Y00348*
X01014Y00348*
X01014Y00348*
X01014Y00348*
X01014Y00348*
X01014Y00348*
X01014Y00347*
D01*
X01014Y00347*
X01014Y00347*
X01014Y00347*
X01014Y00347*
X01014Y00347*
X01014Y00347*
X01014Y00346*
X01014Y00346*
X01014Y00346*
X01014Y00346*
X01015Y00346*
X01015Y00346*
X01015Y00346*
X01015Y00346*
X01015Y00346*
X01015Y00346*
X01015Y00346*
X01015Y00345*
X01015Y00345*
X01016Y00345*
X01016Y00345*
X01016Y00345*
X01016*
X01016Y00345*
X01016Y00345*
X01016Y00345*
X01017Y00345*
X01017Y00346*
X01017Y00346*
X01017Y00346*
X01017Y00346*
X01017Y00346*
X01017Y00346*
X01017Y00346*
X01017Y00346*
X01018Y00346*
X01018Y00346*
X01018Y00346*
X01018Y00347*
X01018Y00347*
X01018Y00347*
X01018Y00347*
X01018Y00347*
X01018Y00347*
X01018Y00347*
Y00392D02*
D01*
X01018Y00393*
X01018Y00393*
X01018Y00393*
X01018Y00393*
X01018Y00393*
X01018Y00393*
X01018Y00393*
X01018Y00393*
X01018Y00394*
X01017Y00394*
X01017Y00394*
X01017Y00394*
X01017Y00394*
X01017Y00394*
X01017Y00394*
X01017Y00394*
X01017Y00394*
X01017Y00394*
X01016Y00394*
X01016Y00394*
X01016Y00394*
X01016Y00394*
X01016*
X01016Y00394*
X01016Y00394*
X01015Y00394*
X01015Y00394*
X01015Y00394*
X01015Y00394*
X01015Y00394*
X01015Y00394*
X01015Y00394*
X01015Y00394*
X01015Y00394*
X01014Y00394*
X01014Y00394*
X01014Y00393*
X01014Y00393*
X01014Y00393*
X01014Y00393*
X01014Y00393*
X01014Y00393*
X01014Y00393*
X01014Y00393*
X01014Y00392*
D01*
X01014Y00392*
X01014Y00392*
X01014Y00392*
X01014Y00392*
X01014Y00392*
X01014Y00392*
X01014Y00391*
X01014Y00391*
X01014Y00391*
X01014Y00391*
X01015Y00391*
X01015Y00391*
X01015Y00391*
X01015Y00391*
X01015Y00391*
X01015Y00391*
X01015Y00391*
X01015Y0039*
X01015Y0039*
X01016Y0039*
X01016Y0039*
X01016Y0039*
X01016*
X01016Y0039*
X01016Y0039*
X01016Y0039*
X01017Y0039*
X01017Y00391*
X01017Y00391*
X01017Y00391*
X01017Y00391*
X01017Y00391*
X01017Y00391*
X01017Y00391*
X01017Y00391*
X01018Y00391*
X01018Y00391*
X01018Y00391*
X01018Y00392*
X01018Y00392*
X01018Y00392*
X01018Y00392*
X01018Y00392*
X01018Y00392*
X01018Y00392*
G54D62*
X00467Y00058D02*
D01*
X00467Y00058*
X00467Y00058*
X00467Y00058*
X00467Y00057*
X00467Y00057*
X00467Y00057*
X00467Y00057*
X00467Y00057*
X00467Y00057*
X00468Y00056*
X00468Y00056*
X00468Y00056*
X00468Y00056*
X00468Y00056*
X00468Y00056*
X00469Y00056*
X00469Y00056*
X00469Y00055*
X00469Y00055*
X00469Y00055*
X0047Y00055*
X0047Y00055*
X0047*
X0047Y00055*
X0047Y00055*
X00471Y00055*
X00471Y00055*
X00471Y00056*
X00471Y00056*
X00471Y00056*
X00471Y00056*
X00472Y00056*
X00472Y00056*
X00472Y00056*
X00472Y00056*
X00472Y00057*
X00472Y00057*
X00472Y00057*
X00473Y00057*
X00473Y00057*
X00473Y00057*
X00473Y00058*
X00473Y00058*
X00473Y00058*
X00473Y00058*
X00473Y00059*
X00473Y00059*
X00473Y00059*
X00473Y00059*
X00473Y00059*
X00473Y00059*
X00472Y0006*
X00472Y0006*
X00472Y0006*
X00472Y0006*
X00472Y0006*
X00472Y0006*
X00472Y00061*
X00471Y00061*
X00471Y00061*
X00471Y00061*
X00471Y00061*
X00471Y00061*
X00471Y00061*
X0047Y00061*
X0047Y00061*
X0047Y00061*
X0047*
X0047Y00061*
X00469Y00061*
X00469Y00061*
X00469Y00061*
X00469Y00061*
X00469Y00061*
X00468Y00061*
X00468Y00061*
X00468Y00061*
X00468Y0006*
X00468Y0006*
X00468Y0006*
X00467Y0006*
X00467Y0006*
X00467Y0006*
X00467Y00059*
X00467Y00059*
X00467Y00059*
X00467Y00059*
X00467Y00059*
X00467Y00059*
X00467Y00058*
G54D63*
X00972Y00812D02*
X0096D01*
X00983Y00846D02*
X00948D01*
X00983Y00779D02*
Y00779D01*
X00948*
Y00802*
Y00822D02*
Y00846D01*
X00983Y00779D02*
Y00802D01*
Y00822D02*
Y00846D01*
X00967Y01257D02*
X00955D01*
X00978Y01291D02*
X00943D01*
X00978Y01224D02*
Y01224D01*
X00943*
Y01247*
Y01267D02*
Y01291D01*
X00978Y01224D02*
Y01247D01*
Y01267D02*
Y01291D01*
X00148Y00459D02*
Y00471D01*
X00114Y00447D02*
Y00482D01*
X00181Y00482D02*
X00181Y00482D01*
X00181Y00447D02*
Y00482D01*
Y00447D02*
X00158D01*
X00138D02*
X00114D01*
X00181Y00482D02*
X00158D01*
X00138D02*
X00114D01*
X0019Y00447D02*
Y00482D01*
X00255Y00447D02*
Y00482D01*
X0019*
X00255Y00447D02*
X0019D01*
X00263Y00316D02*
X00228D01*
X00263Y00381D02*
X00228D01*
Y00316D02*
Y00381D01*
X00263Y00316D02*
Y00381D01*
X00362Y01507D02*
Y01542D01*
X00427Y01507D02*
Y01542D01*
X00362*
X00427Y01507D02*
X00362D01*
X00358Y01474D02*
Y01486D01*
X00391Y01462D02*
Y01497D01*
X00324Y01462D02*
Y01462D01*
Y01497*
X00348D02*
X00324D01*
X00391D02*
X00368D01*
X00348Y01462D02*
X00324D01*
X00391D02*
X00368D01*
X00268Y01519D02*
Y01531D01*
X00301Y01507D02*
Y01542D01*
X00234Y01507D02*
Y01507D01*
Y01542*
X00258D02*
X00234D01*
X00301D02*
X00278D01*
X00258Y01507D02*
X00234D01*
X00301D02*
X00278D01*
X00187Y01437D02*
X00175D01*
X00198Y01403D02*
X00163D01*
X00163Y0147D02*
X00163D01*
X00198D02*
X00163D01*
X00198Y01447D02*
Y0147D01*
Y01403D02*
Y01427D01*
X00163Y01447D02*
Y0147D01*
Y01403D02*
Y01427D01*
X00198Y0132D02*
X00163D01*
X00198Y01385D02*
X00163D01*
Y0132D02*
Y01385D01*
X00198Y0132D02*
Y01385D01*
X00243Y01351D02*
X00208D01*
X00243Y01416D02*
X00208D01*
Y01351D02*
Y01416D01*
X00243Y01351D02*
Y01416D01*
X00263Y01649D02*
X00228D01*
X00263Y01714D02*
X00228D01*
Y01649D02*
Y01714D01*
X00263Y01649D02*
Y01714D01*
X00497Y01682D02*
X00485D01*
X00508Y01649D02*
X00473D01*
Y01716D02*
D01*
X00508D02*
X00473D01*
X00508Y01692D02*
Y01716D01*
Y01649D02*
Y01672D01*
X00473Y01692D02*
Y01716D01*
Y01649D02*
Y01672D01*
X00702Y0168D02*
X0069D01*
X00713Y01713D02*
X00678D01*
X00713Y01646D02*
X00713Y01646D01*
X00678*
Y0167*
Y0169D02*
Y01713D01*
X00713Y01646D02*
Y0167D01*
Y0169D02*
Y01713D01*
X00958Y01708D02*
X00923D01*
X00958Y01643D02*
X00923D01*
X00958D02*
Y01708D01*
X00923Y01643D02*
Y01708D01*
X00713Y01519D02*
Y01531D01*
X00747Y01507D02*
Y01542D01*
X0068Y01507D02*
Y01507D01*
Y01542*
X00703D02*
X0068D01*
X00747D02*
X00723D01*
X00703Y01507D02*
X0068D01*
X00747D02*
X00723D01*
X00796Y01507D02*
Y01542D01*
X00861Y01507D02*
Y01542D01*
X00796*
X00861Y01507D02*
X00796D01*
X00793Y01474D02*
Y01486D01*
X00826Y01462D02*
Y01497D01*
X00759Y01462D02*
Y01462D01*
Y01497*
X00783D02*
X00759D01*
X00826D02*
X00803D01*
X00783Y01462D02*
X00759D01*
X00826D02*
X00803D01*
X00541Y01519D02*
Y01531D01*
X00507Y01507D02*
Y01542D01*
X00574Y01542D02*
Y01542D01*
Y01507D02*
Y01542D01*
Y01507D02*
X00551D01*
X00531D02*
X00507D01*
X00574Y01542D02*
X00551D01*
X00531D02*
X00507D01*
X00574Y01552D02*
Y01587D01*
X00509Y01552D02*
Y01587D01*
X00574Y01552D02*
X00509D01*
X00574Y01587D02*
X00509D01*
X00632Y01442D02*
X0062D01*
X00643Y01409D02*
X00608D01*
Y01476D02*
D01*
X00643D02*
X00608D01*
X00643Y01452D02*
Y01476D01*
Y01409D02*
Y01432D01*
X00608Y01452D02*
Y01476D01*
Y01409D02*
Y01432D01*
X00688Y01364D02*
X00653D01*
X00688Y01429D02*
X00653D01*
Y01364D02*
Y01429D01*
X00688Y01364D02*
Y01429D01*
X00643Y0133D02*
X00608D01*
X00643Y01395D02*
X00608D01*
Y0133D02*
Y01395D01*
X00643Y0133D02*
Y01395D01*
X00522Y01257D02*
X0051D01*
X00533Y01291D02*
X00498D01*
X00533Y01224D02*
Y01224D01*
X00498*
Y01247*
Y01267D02*
Y01291D01*
X00533Y01224D02*
Y01247D01*
Y01267D02*
Y01291D01*
X00268Y01194D02*
Y01206D01*
X00302Y01182D02*
Y01217D01*
X00235Y01182D02*
Y01182D01*
Y01217*
X00258D02*
X00235D01*
X00302D02*
X00278D01*
X00258Y01182D02*
X00235D01*
X00302D02*
X00278D01*
X00361Y01022D02*
Y01057D01*
X00426Y01022D02*
Y01057D01*
X00361*
X00426Y01022D02*
X00361D01*
X00396Y01079D02*
Y01091D01*
X00362Y01067D02*
Y01102D01*
X00429Y01102D02*
Y01102D01*
Y01067D02*
Y01102D01*
Y01067D02*
X00406D01*
X00386D02*
X00362D01*
X00429Y01102D02*
X00406D01*
X00386D02*
X00362D01*
X00268Y01074D02*
Y01086D01*
X00302Y01062D02*
Y01097D01*
X00235Y01062D02*
Y01062D01*
Y01097*
X00258D02*
X00235D01*
X00302D02*
X00278D01*
X00258Y01062D02*
X00235D01*
X00302D02*
X00278D01*
X00169Y0088D02*
X00134D01*
X00169Y00944D02*
X00134D01*
Y0088D02*
Y00944D01*
X00169Y0088D02*
Y00944D01*
X00162Y00997D02*
X0015D01*
X00173Y00964D02*
X00138D01*
X00138Y01031D02*
X00138Y01031D01*
X00173Y01031D02*
X00138D01*
X00173Y01007D02*
Y01031D01*
Y00964D02*
Y00987D01*
X00138Y01007D02*
Y01031D01*
Y00964D02*
Y00987D01*
X00218Y00915D02*
X00183D01*
X00218Y0098D02*
X00183D01*
Y00915D02*
Y0098D01*
X00218Y00915D02*
Y0098D01*
X00708Y01189D02*
Y01201D01*
X00742Y01177D02*
Y01212D01*
X00675Y01177D02*
Y01177D01*
Y01212*
X00698D02*
X00675D01*
X00742D02*
X00718D01*
X00698Y01177D02*
X00675D01*
X00742D02*
X00718D01*
X00796Y01022D02*
Y01057D01*
X00861Y01022D02*
Y01057D01*
X00796*
X00861Y01022D02*
X00796D01*
X00828Y01079D02*
Y01091D01*
X00794Y01067D02*
Y01102D01*
X00861Y01102D02*
X00861Y01102D01*
X00861Y01067D02*
Y01102D01*
Y01067D02*
X00838D01*
X00818D02*
X00794D01*
X00861Y01102D02*
X00838D01*
X00818D02*
X00794D01*
X00708Y01069D02*
Y01081D01*
X00741Y01057D02*
Y01092D01*
X00674Y01057D02*
Y01057D01*
Y01092*
X00698D02*
X00674D01*
X00741D02*
X00718D01*
X00698Y01057D02*
X00674D01*
X00741D02*
X00718D01*
X00632Y00992D02*
X0062D01*
X00643Y00958D02*
X00608D01*
X00608Y01025D02*
X00608Y01025D01*
X00643Y01025D02*
X00608D01*
X00643Y01002D02*
Y01025D01*
Y00958D02*
Y00982D01*
X00608Y01002D02*
Y01025D01*
Y00958D02*
Y00982D01*
X00643Y0088D02*
X00608D01*
X00643Y00945D02*
X00608D01*
Y0088D02*
Y00945D01*
X00643Y0088D02*
Y00945D01*
X00688Y00914D02*
X00653D01*
X00688Y00979D02*
X00653D01*
Y00914D02*
Y00979D01*
X00688Y00914D02*
Y00979D01*
X00427Y00815D02*
X00415D01*
X00438Y00848D02*
X00403D01*
X00438Y00781D02*
X00438D01*
X00403*
Y00805*
Y00825D02*
Y00848D01*
X00438Y00781D02*
Y00805D01*
Y00825D02*
Y00848D01*
X00271Y00734D02*
Y00746D01*
X00304Y00722D02*
Y00757D01*
X00237Y00722D02*
X00237Y00722D01*
Y00757*
X00261D02*
X00237D01*
X00304D02*
X00281D01*
X00261Y00722D02*
X00237D01*
X00304D02*
X00281D01*
X00316Y00629D02*
Y00641D01*
X00349Y00617D02*
Y00652D01*
X00282Y00617D02*
X00282Y00617D01*
Y00652*
X00306D02*
X00282D01*
X00349D02*
X00326D01*
X00306Y00617D02*
X00282D01*
X00349D02*
X00326D01*
X00603Y00699D02*
Y00711D01*
X0057Y00687D02*
Y00722D01*
X00637Y00722D02*
X00637Y00722D01*
X00637Y00687D02*
Y00722D01*
Y00687D02*
X00613D01*
X00593D02*
X0057D01*
X00637Y00722D02*
X00613D01*
X00593D02*
X0057D01*
X00528Y00699D02*
Y00711D01*
X00561Y00687D02*
Y00722D01*
X00494Y00687D02*
Y00687D01*
Y00722*
X00518D02*
X00494D01*
X00561D02*
X00538D01*
X00518Y00687D02*
X00494D01*
X00561D02*
X00538D01*
X00451Y00592D02*
Y00627D01*
X00516Y00592D02*
Y00627D01*
X00451*
X00516Y00592D02*
X00451D01*
X00703Y00764D02*
Y00776D01*
X00736Y00752D02*
Y00787D01*
X00669Y00752D02*
Y00752D01*
Y00787*
X00693D02*
X00669D01*
X00736D02*
X00713D01*
X00693Y00752D02*
X00669D01*
X00736D02*
X00713D01*
X00751Y00629D02*
Y00641D01*
X00717Y00617D02*
Y00652D01*
X00784Y00652D02*
Y00652D01*
Y00617D02*
Y00652D01*
Y00617D02*
X00761D01*
X00741D02*
X00717D01*
X00784Y00652D02*
X00761D01*
X00741D02*
X00717D01*
X00681Y00572D02*
Y00607D01*
X00746Y00572D02*
Y00607D01*
X00681*
X00746Y00572D02*
X00681D01*
X00866Y00624D02*
Y00636D01*
X00899Y00612D02*
Y00647D01*
X00832Y00612D02*
X00832Y00612D01*
Y00647*
X00856D02*
X00832D01*
X00899D02*
X00876D01*
X00856Y00612D02*
X00832D01*
X00899D02*
X00876D01*
X01036Y00459D02*
Y00471D01*
X01069Y00447D02*
Y00482D01*
X01002Y00447D02*
X01002Y00447D01*
Y00482*
X01026D02*
X01002D01*
X01069D02*
X01046D01*
X01026Y00447D02*
X01002D01*
X01069D02*
X01046D01*
X00991Y00447D02*
Y00482D01*
X00926Y00447D02*
Y00482D01*
X00991Y00447D02*
X00926D01*
X00991Y00482D02*
X00926D01*
X00958Y00394D02*
X00923D01*
X00958Y00329D02*
X00923D01*
X00958D02*
Y00394D01*
X00923Y00329D02*
Y00394D01*
X00688Y00434D02*
Y00446D01*
X00721Y00422D02*
Y00457D01*
X00654Y00422D02*
Y00422D01*
Y00457*
X00678D02*
X00654D01*
X00721D02*
X00698D01*
X00678Y00422D02*
X00654D01*
X00721D02*
X00698D01*
X00755Y00377D02*
Y00412D01*
X0069Y00377D02*
Y00412D01*
X00755Y00377D02*
X0069D01*
X00755Y00412D02*
X0069D01*
X00686Y00297D02*
Y00332D01*
X00621Y00297D02*
Y00332D01*
X00686Y00297D02*
X00621D01*
X00686Y00332D02*
X00621D01*
X0061Y00297D02*
Y00332D01*
X00545Y00297D02*
Y00332D01*
X0061Y00297D02*
X00545D01*
X0061Y00332D02*
X00545D01*
X00538Y00264D02*
Y00276D01*
X00504Y00252D02*
Y00287D01*
X00571Y00287D02*
X00571Y00287D01*
X00571Y00252D02*
Y00287D01*
Y00252D02*
X00548D01*
X00528D02*
X00504D01*
X00571Y00287D02*
X00548D01*
X00528D02*
X00504D01*
X00512Y00075D02*
Y00121D01*
X00459Y00075D02*
Y00121D01*
X00672Y0016D02*
X0066D01*
X00683Y00126D02*
X00648D01*
X00648Y00193D02*
X00648Y00193D01*
X00683Y00193D02*
X00648D01*
X00683Y0017D02*
Y00193D01*
Y00126D02*
Y0015D01*
X00648Y0017D02*
Y00193D01*
Y00126D02*
Y0015D01*
X00792Y00125D02*
X0078D01*
X00803Y00158D02*
X00768D01*
X00803Y00091D02*
Y00091D01*
X00768*
Y00115*
Y00135D02*
Y00158D01*
X00803Y00091D02*
Y00115D01*
Y00135D02*
Y00158D01*
X00705Y00017D02*
Y00052D01*
X0077Y00017D02*
Y00052D01*
X00705*
X0077Y00017D02*
X00705D01*
G54D64*
X00996Y0052D02*
X00986Y0051D01*
X00956*
X01046Y0052D02*
X00996D01*
X01057Y00508D02*
X01046Y0052D01*
X01057Y00482D02*
Y00508D01*
G54D65*
X00178Y00358D02*
Y00381D01*
X00218Y00358D02*
X00178D01*
X00218D02*
Y00381D01*
X00178*
Y00313D02*
Y00336D01*
X00218Y00313D02*
X00178D01*
X00218D02*
Y00336D01*
X00178*
Y01693D02*
Y01716D01*
X00218Y01693D02*
X00178D01*
X00218D02*
Y01716D01*
X00178*
Y01648D02*
Y01671D01*
X00218Y01648D02*
X00178D01*
X00218D02*
Y01671D01*
X00178*
X01007Y01693D02*
Y01716D01*
X00968*
Y01693D02*
Y01716D01*
X01007Y01693D02*
X00968D01*
X01008Y01643D02*
Y01666D01*
X00969*
Y01643D02*
Y01666D01*
X01008Y01643D02*
X00969D01*
X01008Y00328D02*
Y00351D01*
X00969*
Y00328D02*
Y00351D01*
X01008Y00328D02*
X00969D01*
X01008Y00373D02*
Y00396D01*
X00969*
Y00373D02*
Y00396D01*
X01008Y00373D02*
X00969D01*
G54D66*
X00641Y00865D02*
X00491D01*
X00641Y00735D02*
Y00865D01*
Y00735D02*
X00491D01*
Y00865*
M02*